%TF.GenerationSoftware,KiCad,Pcbnew,(6.0.10)*%
%TF.CreationDate,2023-05-16T15:36:24-07:00*%
%TF.ProjectId,SevenSegment,53657665-6e53-4656-976d-656e742e6b69,rev?*%
%TF.SameCoordinates,Original*%
%TF.FileFunction,Soldermask,Bot*%
%TF.FilePolarity,Negative*%
%FSLAX46Y46*%
G04 Gerber Fmt 4.6, Leading zero omitted, Abs format (unit mm)*
G04 Created by KiCad (PCBNEW (6.0.10)) date 2023-05-16 15:36:24*
%MOMM*%
%LPD*%
G01*
G04 APERTURE LIST*
%ADD10C,1.270000*%
%ADD11R,1.270000X1.270000*%
%ADD12R,1.130000X1.130000*%
%ADD13C,1.130000*%
%ADD14R,1.700000X1.700000*%
%ADD15O,1.700000X1.700000*%
G04 APERTURE END LIST*
D10*
%TO.C,DS-TENS1*%
X97060000Y-104990000D03*
X98330000Y-107530000D03*
X99600000Y-104990000D03*
X100870000Y-107530000D03*
X102140000Y-104990000D03*
X102140000Y-112610000D03*
X100870000Y-110070000D03*
X99600000Y-112610000D03*
X98330000Y-110070000D03*
D11*
X97060000Y-112610000D03*
%TD*%
D10*
%TO.C,DS-ONES1*%
X106360000Y-104990000D03*
X107630000Y-107530000D03*
X108900000Y-104990000D03*
X110170000Y-107530000D03*
X111440000Y-104990000D03*
X111440000Y-112610000D03*
X110170000Y-110070000D03*
X108900000Y-112610000D03*
X107630000Y-110070000D03*
D11*
X106360000Y-112610000D03*
%TD*%
D12*
%TO.C,IC2*%
X105930000Y-101590000D03*
D13*
X105930000Y-99050000D03*
X105930000Y-96510000D03*
X105930000Y-93970000D03*
X105930000Y-91430000D03*
X105930000Y-88890000D03*
X105930000Y-86350000D03*
X105930000Y-83810000D03*
X113870000Y-83810000D03*
X113870000Y-86350000D03*
X113870000Y-88890000D03*
X113870000Y-91430000D03*
X113870000Y-93970000D03*
X113870000Y-96510000D03*
X113870000Y-99050000D03*
X113870000Y-101590000D03*
%TD*%
%TO.C,IC1*%
X102570000Y-101590000D03*
X102570000Y-99050000D03*
X102570000Y-96510000D03*
X102570000Y-93970000D03*
X102570000Y-91430000D03*
X102570000Y-88890000D03*
X102570000Y-86350000D03*
X102570000Y-83810000D03*
X94630000Y-83810000D03*
X94630000Y-86350000D03*
X94630000Y-88890000D03*
X94630000Y-91430000D03*
X94630000Y-93970000D03*
X94630000Y-96510000D03*
X94630000Y-99050000D03*
D12*
X94630000Y-101590000D03*
%TD*%
D14*
%TO.C,J1*%
X100390000Y-79300000D03*
D15*
X102930000Y-79300000D03*
X105470000Y-79300000D03*
X108010000Y-79300000D03*
%TD*%
M02*
