M48
; DRILL file {KiCad (6.0.10)} date Tue May 16 15:36:21 2023
; FORMAT={-:-/ absolute / inch / decimal}
; #@! TF.CreationDate,2023-05-16T15:36:21-07:00
; #@! TF.GenerationSoftware,Kicad,Pcbnew,(6.0.10)
; #@! TF.FileFunction,Plated,1,2,PTH
FMAT,2
INCH
; #@! TA.AperFunction,Plated,PTH,ViaDrill
T1C0.0157
; #@! TA.AperFunction,Plated,PTH,ComponentDrill
T2C0.0287
; #@! TA.AperFunction,Plated,PTH,ComponentDrill
T3C0.0300
; #@! TA.AperFunction,Plated,PTH,ComponentDrill
T4C0.0394
%
G90
G05
T1
X3.7323Y-4.1063
X3.7913Y-3.8819
X4.2953Y-4.0039
X4.2992Y-3.7717
T2
X3.7256Y-3.2996
X3.7256Y-3.3996
X3.7256Y-3.4996
X3.7256Y-3.5996
X3.7256Y-3.6996
X3.7256Y-3.7996
X3.7256Y-3.8996
X3.7256Y-3.9996
X4.0382Y-3.2996
X4.0382Y-3.3996
X4.0382Y-3.4996
X4.0382Y-3.5996
X4.0382Y-3.6996
X4.0382Y-3.7996
X4.0382Y-3.8996
X4.0382Y-3.9996
X4.1705Y-3.2996
X4.1705Y-3.3996
X4.1705Y-3.4996
X4.1705Y-3.5996
X4.1705Y-3.6996
X4.1705Y-3.7996
X4.1705Y-3.8996
X4.1705Y-3.9996
X4.4831Y-3.2996
X4.4831Y-3.3996
X4.4831Y-3.4996
X4.4831Y-3.5996
X4.4831Y-3.6996
X4.4831Y-3.7996
X4.4831Y-3.8996
X4.4831Y-3.9996
T3
X3.8213Y-4.1335
X3.8213Y-4.4335
X3.8713Y-4.2335
X3.8713Y-4.3335
X3.9213Y-4.1335
X3.9213Y-4.4335
X3.9713Y-4.2335
X3.9713Y-4.3335
X4.0213Y-4.1335
X4.0213Y-4.4335
X4.1874Y-4.1335
X4.1874Y-4.4335
X4.2374Y-4.2335
X4.2374Y-4.3335
X4.2874Y-4.1335
X4.2874Y-4.4335
X4.3374Y-4.2335
X4.3374Y-4.3335
X4.3874Y-4.1335
X4.3874Y-4.4335
T4
X3.9524Y-3.122
X4.0524Y-3.122
X4.1524Y-3.122
X4.2524Y-3.122
T0
M30
