%TF.GenerationSoftware,KiCad,Pcbnew,(6.0.10)*%
%TF.CreationDate,2023-05-16T15:36:24-07:00*%
%TF.ProjectId,SevenSegment,53657665-6e53-4656-976d-656e742e6b69,rev?*%
%TF.SameCoordinates,Original*%
%TF.FileFunction,Copper,L1,Top*%
%TF.FilePolarity,Positive*%
%FSLAX46Y46*%
G04 Gerber Fmt 4.6, Leading zero omitted, Abs format (unit mm)*
G04 Created by KiCad (PCBNEW (6.0.10)) date 2023-05-16 15:36:24*
%MOMM*%
%LPD*%
G01*
G04 APERTURE LIST*
G04 Aperture macros list*
%AMRoundRect*
0 Rectangle with rounded corners*
0 $1 Rounding radius*
0 $2 $3 $4 $5 $6 $7 $8 $9 X,Y pos of 4 corners*
0 Add a 4 corners polygon primitive as box body*
4,1,4,$2,$3,$4,$5,$6,$7,$8,$9,$2,$3,0*
0 Add four circle primitives for the rounded corners*
1,1,$1+$1,$2,$3*
1,1,$1+$1,$4,$5*
1,1,$1+$1,$6,$7*
1,1,$1+$1,$8,$9*
0 Add four rect primitives between the rounded corners*
20,1,$1+$1,$2,$3,$4,$5,0*
20,1,$1+$1,$4,$5,$6,$7,0*
20,1,$1+$1,$6,$7,$8,$9,0*
20,1,$1+$1,$8,$9,$2,$3,0*%
G04 Aperture macros list end*
%TA.AperFunction,ComponentPad*%
%ADD10C,1.270000*%
%TD*%
%TA.AperFunction,ComponentPad*%
%ADD11R,1.270000X1.270000*%
%TD*%
%TA.AperFunction,ComponentPad*%
%ADD12R,1.130000X1.130000*%
%TD*%
%TA.AperFunction,ComponentPad*%
%ADD13C,1.130000*%
%TD*%
%TA.AperFunction,SMDPad,CuDef*%
%ADD14RoundRect,0.135000X-0.135000X-0.185000X0.135000X-0.185000X0.135000X0.185000X-0.135000X0.185000X0*%
%TD*%
%TA.AperFunction,SMDPad,CuDef*%
%ADD15RoundRect,0.135000X0.135000X0.185000X-0.135000X0.185000X-0.135000X-0.185000X0.135000X-0.185000X0*%
%TD*%
%TA.AperFunction,ComponentPad*%
%ADD16R,1.700000X1.700000*%
%TD*%
%TA.AperFunction,ComponentPad*%
%ADD17O,1.700000X1.700000*%
%TD*%
%TA.AperFunction,SMDPad,CuDef*%
%ADD18RoundRect,0.140000X-0.140000X-0.170000X0.140000X-0.170000X0.140000X0.170000X-0.140000X0.170000X0*%
%TD*%
%TA.AperFunction,ViaPad*%
%ADD19C,0.800000*%
%TD*%
%TA.AperFunction,Conductor*%
%ADD20C,0.250000*%
%TD*%
G04 APERTURE END LIST*
D10*
%TO.P,DS-TENS1,10,F*%
%TO.N,/F2*%
X97060000Y-104990000D03*
%TO.P,DS-TENS1,9,G*%
%TO.N,/G2*%
X98330000Y-107530000D03*
%TO.P,DS-TENS1,8,A(C)_2*%
%TO.N,GND*%
X99600000Y-104990000D03*
%TO.P,DS-TENS1,7,A*%
%TO.N,/A2*%
X100870000Y-107530000D03*
%TO.P,DS-TENS1,6,B*%
%TO.N,/B2*%
X102140000Y-104990000D03*
%TO.P,DS-TENS1,5,DP*%
%TO.N,GND*%
X102140000Y-112610000D03*
%TO.P,DS-TENS1,4,C*%
%TO.N,/C2*%
X100870000Y-110070000D03*
%TO.P,DS-TENS1,3,A(C)_1*%
%TO.N,GND*%
X99600000Y-112610000D03*
%TO.P,DS-TENS1,2,D*%
%TO.N,/D2*%
X98330000Y-110070000D03*
D11*
%TO.P,DS-TENS1,1,E*%
%TO.N,/E2*%
X97060000Y-112610000D03*
%TD*%
D10*
%TO.P,DS-ONES1,10,F*%
%TO.N,/F1*%
X106360000Y-104990000D03*
%TO.P,DS-ONES1,9,G*%
%TO.N,/G1*%
X107630000Y-107530000D03*
%TO.P,DS-ONES1,8,A(C)_2*%
%TO.N,GND*%
X108900000Y-104990000D03*
%TO.P,DS-ONES1,7,A*%
%TO.N,/A1*%
X110170000Y-107530000D03*
%TO.P,DS-ONES1,6,B*%
%TO.N,/B1*%
X111440000Y-104990000D03*
%TO.P,DS-ONES1,5,DP*%
%TO.N,GND*%
X111440000Y-112610000D03*
%TO.P,DS-ONES1,4,C*%
%TO.N,/C1*%
X110170000Y-110070000D03*
%TO.P,DS-ONES1,3,A(C)_1*%
%TO.N,GND*%
X108900000Y-112610000D03*
%TO.P,DS-ONES1,2,D*%
%TO.N,/D1*%
X107630000Y-110070000D03*
D11*
%TO.P,DS-ONES1,1,E*%
%TO.N,/E1*%
X106360000Y-112610000D03*
%TD*%
D12*
%TO.P,IC2,1,CLOCK*%
%TO.N,CLOCK_BAR*%
X105930000Y-101590000D03*
D13*
%TO.P,IC2,2,CLOCKINHIBIT*%
%TO.N,Net-(IC2-Pad2)*%
X105930000Y-99050000D03*
%TO.P,IC2,3,RIPPLEBLANKINGIN*%
%TO.N,unconnected-(IC2-Pad3)*%
X105930000Y-96510000D03*
%TO.P,IC2,4,RIPPLEBLANKINGOUT*%
%TO.N,unconnected-(IC2-Pad4)*%
X105930000Y-93970000D03*
%TO.P,IC2,5,CARRYOUT*%
%TO.N,CARRY_1*%
X105930000Y-91430000D03*
%TO.P,IC2,6,F*%
%TO.N,/F1*%
X105930000Y-88890000D03*
%TO.P,IC2,7,G*%
%TO.N,/G1*%
X105930000Y-86350000D03*
%TO.P,IC2,8,VSS*%
%TO.N,GND*%
X105930000Y-83810000D03*
%TO.P,IC2,9,D*%
%TO.N,/D1*%
X113870000Y-83810000D03*
%TO.P,IC2,10,A*%
%TO.N,/A1*%
X113870000Y-86350000D03*
%TO.P,IC2,11,E*%
%TO.N,/E1*%
X113870000Y-88890000D03*
%TO.P,IC2,12,B*%
%TO.N,/B1*%
X113870000Y-91430000D03*
%TO.P,IC2,13,C*%
%TO.N,/C1*%
X113870000Y-93970000D03*
%TO.P,IC2,14,LAMPTEST*%
%TO.N,GND*%
X113870000Y-96510000D03*
%TO.P,IC2,15,RESET*%
%TO.N,/RESET*%
X113870000Y-99050000D03*
%TO.P,IC2,16,VDD*%
%TO.N,+12V*%
X113870000Y-101590000D03*
%TD*%
%TO.P,IC1,16,VDD*%
%TO.N,+12V*%
X102570000Y-101590000D03*
%TO.P,IC1,15,RESET*%
%TO.N,/RESET*%
X102570000Y-99050000D03*
%TO.P,IC1,14,LAMPTEST*%
%TO.N,GND*%
X102570000Y-96510000D03*
%TO.P,IC1,13,C*%
%TO.N,/C2*%
X102570000Y-93970000D03*
%TO.P,IC1,12,B*%
%TO.N,/B2*%
X102570000Y-91430000D03*
%TO.P,IC1,11,E*%
%TO.N,/E2*%
X102570000Y-88890000D03*
%TO.P,IC1,10,A*%
%TO.N,/A2*%
X102570000Y-86350000D03*
%TO.P,IC1,9,D*%
%TO.N,/D2*%
X102570000Y-83810000D03*
%TO.P,IC1,8,VSS*%
%TO.N,GND*%
X94630000Y-83810000D03*
%TO.P,IC1,7,G*%
%TO.N,/G2*%
X94630000Y-86350000D03*
%TO.P,IC1,6,F*%
%TO.N,/F2*%
X94630000Y-88890000D03*
%TO.P,IC1,5,CARRYOUT*%
%TO.N,unconnected-(IC1-Pad5)*%
X94630000Y-91430000D03*
%TO.P,IC1,4,RIPPLEBLANKINGOUT*%
%TO.N,unconnected-(IC1-Pad4)*%
X94630000Y-93970000D03*
%TO.P,IC1,3,RIPPLEBLANKINGIN*%
%TO.N,unconnected-(IC1-Pad3)*%
X94630000Y-96510000D03*
%TO.P,IC1,2,CLOCKINHIBIT*%
%TO.N,Net-(IC1-Pad2)*%
X94630000Y-99050000D03*
D12*
%TO.P,IC1,1,CLOCK*%
%TO.N,CARRY_1*%
X94630000Y-101590000D03*
%TD*%
D14*
%TO.P,R4,1*%
%TO.N,GND*%
X115890000Y-99472500D03*
%TO.P,R4,2*%
%TO.N,/RESET*%
X116910000Y-99472500D03*
%TD*%
%TO.P,R3,1*%
%TO.N,GND*%
X91690000Y-99472500D03*
%TO.P,R3,2*%
%TO.N,/RESET*%
X92710000Y-99472500D03*
%TD*%
D15*
%TO.P,R2,1*%
%TO.N,Net-(IC2-Pad2)*%
X116910000Y-96600000D03*
%TO.P,R2,2*%
%TO.N,GND*%
X115890000Y-96600000D03*
%TD*%
%TO.P,R1,1*%
%TO.N,Net-(IC1-Pad2)*%
X92710000Y-96600000D03*
%TO.P,R1,2*%
%TO.N,GND*%
X91690000Y-96600000D03*
%TD*%
D16*
%TO.P,J1,1,Pin_1*%
%TO.N,+12V*%
X100390000Y-79300000D03*
D17*
%TO.P,J1,2,Pin_2*%
%TO.N,GND*%
X102930000Y-79300000D03*
%TO.P,J1,3,Pin_3*%
%TO.N,CLOCK_BAR*%
X105470000Y-79300000D03*
%TO.P,J1,4,Pin_4*%
%TO.N,/RESET*%
X108010000Y-79300000D03*
%TD*%
D18*
%TO.P,C2,1*%
%TO.N,GND*%
X91700000Y-102335000D03*
%TO.P,C2,2*%
%TO.N,+12V*%
X92660000Y-102335000D03*
%TD*%
%TO.P,C1,1*%
%TO.N,GND*%
X115900000Y-102335000D03*
%TO.P,C1,2*%
%TO.N,+12V*%
X116860000Y-102335000D03*
%TD*%
D19*
%TO.N,GND*%
X94800000Y-104300000D03*
X96300000Y-98600000D03*
X109100000Y-101700000D03*
X109200000Y-95800000D03*
%TD*%
D20*
%TO.N,/RESET*%
X117505000Y-98877500D02*
X116910000Y-99472500D01*
X113900000Y-79300000D02*
X117505000Y-82905000D01*
X117505000Y-82905000D02*
X117505000Y-98877500D01*
X108010000Y-79300000D02*
X113900000Y-79300000D01*
%TO.N,+12V*%
X103090000Y-82000000D02*
X100390000Y-79300000D01*
X107100000Y-82000000D02*
X103090000Y-82000000D01*
X108000000Y-82900000D02*
X107100000Y-82000000D01*
X108000000Y-95698652D02*
X108000000Y-82900000D01*
X104449326Y-99249326D02*
X108000000Y-95698652D01*
%TO.N,/RESET*%
X91475000Y-78125000D02*
X90700000Y-78900000D01*
X94275000Y-78125000D02*
X91475000Y-78125000D01*
X90700000Y-97462500D02*
X92710000Y-99472500D01*
X94800000Y-77600000D02*
X94275000Y-78125000D01*
X106310000Y-77600000D02*
X94800000Y-77600000D01*
X108010000Y-79300000D02*
X106310000Y-77600000D01*
X90700000Y-78900000D02*
X90700000Y-97462500D01*
%TO.N,CARRY_1*%
X105040000Y-97838650D02*
X105040000Y-92320000D01*
X101288650Y-101590000D02*
X105040000Y-97838650D01*
X94630000Y-101590000D02*
X101288650Y-101590000D01*
X105040000Y-92320000D02*
X105930000Y-91430000D01*
%TO.N,+12V*%
X104200000Y-99498652D02*
X104449326Y-99249326D01*
X104200000Y-99800000D02*
X104200000Y-99498652D01*
X112680000Y-100400000D02*
X104800000Y-100400000D01*
X113870000Y-101590000D02*
X112680000Y-100400000D01*
X104800000Y-100400000D02*
X104200000Y-99800000D01*
X102570000Y-101128651D02*
X104449326Y-99249326D01*
X102570000Y-101590000D02*
X102570000Y-101128651D01*
%TO.N,Net-(IC2-Pad2)*%
X107580000Y-97400000D02*
X105930000Y-99050000D01*
X116910000Y-96600000D02*
X116110000Y-97400000D01*
X116110000Y-97400000D02*
X107580000Y-97400000D01*
%TO.N,/RESET*%
X115922500Y-98485000D02*
X116910000Y-99472500D01*
X114435000Y-98485000D02*
X115922500Y-98485000D01*
X113870000Y-99050000D02*
X114435000Y-98485000D01*
%TO.N,+12V*%
X116122609Y-101590000D02*
X113870000Y-101590000D01*
X116860000Y-102327391D02*
X116122609Y-101590000D01*
X116860000Y-102335000D02*
X116860000Y-102327391D01*
X92805000Y-102480000D02*
X101680000Y-102480000D01*
X101680000Y-102480000D02*
X102570000Y-101590000D01*
X92660000Y-102335000D02*
X92805000Y-102480000D01*
%TO.N,/RESET*%
X101680000Y-99940000D02*
X102570000Y-99050000D01*
X93177500Y-99940000D02*
X101680000Y-99940000D01*
X92710000Y-99472500D02*
X93177500Y-99940000D01*
%TO.N,Net-(IC1-Pad2)*%
X92710000Y-97130000D02*
X94630000Y-99050000D01*
X92710000Y-96600000D02*
X92710000Y-97130000D01*
%TD*%
%TA.AperFunction,Conductor*%
%TO.N,GND*%
G36*
X90667012Y-98325870D02*
G01*
X90673595Y-98331999D01*
X91048283Y-98706687D01*
X91082309Y-98768999D01*
X91077244Y-98839814D01*
X91052748Y-98877929D01*
X91053356Y-98878400D01*
X91038854Y-98897095D01*
X90964230Y-99023278D01*
X90957981Y-99037717D01*
X90916662Y-99179936D01*
X90914363Y-99192523D01*
X90913740Y-99200443D01*
X90916910Y-99215530D01*
X90928374Y-99218500D01*
X91507906Y-99218500D01*
X91576027Y-99238502D01*
X91597001Y-99255405D01*
X91894596Y-99553000D01*
X91928622Y-99615312D01*
X91931501Y-99642095D01*
X91931501Y-99722488D01*
X91934371Y-99758966D01*
X91936166Y-99765144D01*
X91936168Y-99765153D01*
X91938997Y-99774890D01*
X91944000Y-99810042D01*
X91944000Y-100274400D01*
X91947973Y-100287931D01*
X91955871Y-100289066D01*
X92074783Y-100254519D01*
X92089220Y-100248271D01*
X92135370Y-100220978D01*
X92204187Y-100203518D01*
X92263646Y-100220977D01*
X92317404Y-100252769D01*
X92325015Y-100254980D01*
X92325017Y-100254981D01*
X92391858Y-100274400D01*
X92473534Y-100298129D01*
X92479941Y-100298633D01*
X92479945Y-100298634D01*
X92507556Y-100300807D01*
X92507562Y-100300807D01*
X92510011Y-100301000D01*
X92589429Y-100301000D01*
X92657550Y-100321002D01*
X92683712Y-100344200D01*
X92685500Y-100347018D01*
X92691277Y-100352443D01*
X92691278Y-100352444D01*
X92735151Y-100393643D01*
X92737993Y-100396398D01*
X92757730Y-100416135D01*
X92760927Y-100418615D01*
X92769947Y-100426318D01*
X92802179Y-100456586D01*
X92809125Y-100460405D01*
X92809128Y-100460407D01*
X92819934Y-100466348D01*
X92836453Y-100477199D01*
X92852459Y-100489614D01*
X92859728Y-100492759D01*
X92859732Y-100492762D01*
X92893037Y-100507174D01*
X92903687Y-100512391D01*
X92942440Y-100533695D01*
X92950115Y-100535666D01*
X92950116Y-100535666D01*
X92962062Y-100538733D01*
X92980767Y-100545137D01*
X92999355Y-100553181D01*
X93007178Y-100554420D01*
X93007188Y-100554423D01*
X93043024Y-100560099D01*
X93054644Y-100562505D01*
X93089789Y-100571528D01*
X93097470Y-100573500D01*
X93117724Y-100573500D01*
X93137434Y-100575051D01*
X93157443Y-100578220D01*
X93165335Y-100577474D01*
X93190967Y-100575051D01*
X93201462Y-100574059D01*
X93213319Y-100573500D01*
X93515980Y-100573500D01*
X93584101Y-100593502D01*
X93630594Y-100647158D01*
X93640698Y-100717432D01*
X93622145Y-100762181D01*
X93624079Y-100763240D01*
X93619771Y-100771108D01*
X93614385Y-100778295D01*
X93563255Y-100914684D01*
X93556500Y-100976866D01*
X93556500Y-101709632D01*
X93536498Y-101777753D01*
X93482842Y-101824246D01*
X93412568Y-101834350D01*
X93347988Y-101804856D01*
X93322048Y-101773772D01*
X93316488Y-101764371D01*
X93200629Y-101648512D01*
X93076352Y-101575015D01*
X93066420Y-101569141D01*
X93066419Y-101569141D01*
X93059597Y-101565106D01*
X93051986Y-101562895D01*
X93051984Y-101562894D01*
X92978144Y-101541442D01*
X92902254Y-101519394D01*
X92895849Y-101518890D01*
X92895844Y-101518889D01*
X92867940Y-101516693D01*
X92867932Y-101516693D01*
X92865484Y-101516500D01*
X92454516Y-101516500D01*
X92452068Y-101516693D01*
X92452060Y-101516693D01*
X92424156Y-101518889D01*
X92424151Y-101518890D01*
X92417746Y-101519394D01*
X92341856Y-101541442D01*
X92268016Y-101562894D01*
X92268014Y-101562895D01*
X92260403Y-101565106D01*
X92253576Y-101569143D01*
X92253577Y-101569143D01*
X92243647Y-101575015D01*
X92174830Y-101592474D01*
X92115372Y-101575016D01*
X92106222Y-101569605D01*
X92091784Y-101563357D01*
X91971395Y-101528381D01*
X91957295Y-101528421D01*
X91954000Y-101535691D01*
X91954000Y-101813621D01*
X91936454Y-101877760D01*
X91920106Y-101905403D01*
X91874394Y-102062746D01*
X91873890Y-102069151D01*
X91873889Y-102069156D01*
X91873191Y-102078031D01*
X91871500Y-102099516D01*
X91871500Y-102570484D01*
X91871693Y-102572932D01*
X91871693Y-102572940D01*
X91873184Y-102591876D01*
X91874394Y-102607254D01*
X91920106Y-102764597D01*
X91924141Y-102771419D01*
X91924141Y-102771420D01*
X91936454Y-102792240D01*
X91954000Y-102856379D01*
X91954000Y-103128558D01*
X91957973Y-103142089D01*
X91965871Y-103143224D01*
X92091784Y-103106643D01*
X92106222Y-103100395D01*
X92115372Y-103094984D01*
X92184188Y-103077526D01*
X92243647Y-103094985D01*
X92249547Y-103098474D01*
X92260403Y-103104894D01*
X92268014Y-103107105D01*
X92268016Y-103107106D01*
X92307246Y-103118503D01*
X92417746Y-103150606D01*
X92424151Y-103151110D01*
X92424156Y-103151111D01*
X92452060Y-103153307D01*
X92452068Y-103153307D01*
X92454516Y-103153500D01*
X92865484Y-103153500D01*
X92867932Y-103153307D01*
X92867940Y-103153307D01*
X92895844Y-103151111D01*
X92895849Y-103151110D01*
X92902254Y-103150606D01*
X93012755Y-103118503D01*
X93047907Y-103113500D01*
X101601233Y-103113500D01*
X101612416Y-103114027D01*
X101619909Y-103115702D01*
X101627835Y-103115453D01*
X101627836Y-103115453D01*
X101687986Y-103113562D01*
X101691945Y-103113500D01*
X101719856Y-103113500D01*
X101723791Y-103113003D01*
X101723856Y-103112995D01*
X101735693Y-103112062D01*
X101767951Y-103111048D01*
X101771970Y-103110922D01*
X101779889Y-103110673D01*
X101799343Y-103105021D01*
X101818700Y-103101013D01*
X101830930Y-103099468D01*
X101830931Y-103099468D01*
X101838797Y-103098474D01*
X101846168Y-103095555D01*
X101846170Y-103095555D01*
X101879912Y-103082196D01*
X101891142Y-103078351D01*
X101925983Y-103068229D01*
X101925984Y-103068229D01*
X101933593Y-103066018D01*
X101940412Y-103061985D01*
X101940417Y-103061983D01*
X101951028Y-103055707D01*
X101968776Y-103047012D01*
X101987617Y-103039552D01*
X102020197Y-103015882D01*
X102023387Y-103013564D01*
X102033307Y-103007048D01*
X102064535Y-102988580D01*
X102064538Y-102988578D01*
X102071362Y-102984542D01*
X102085683Y-102970221D01*
X102100717Y-102957380D01*
X102110694Y-102950131D01*
X102117107Y-102945472D01*
X102122158Y-102939367D01*
X102122163Y-102939362D01*
X102145299Y-102911396D01*
X102153287Y-102902618D01*
X102359276Y-102696629D01*
X102421588Y-102662603D01*
X102453318Y-102659821D01*
X102546965Y-102663500D01*
X102626423Y-102666622D01*
X102741789Y-102649894D01*
X102815955Y-102639141D01*
X102815959Y-102639140D01*
X102821677Y-102638311D01*
X102827149Y-102636453D01*
X102827151Y-102636453D01*
X103003038Y-102576747D01*
X103003040Y-102576746D01*
X103008502Y-102574892D01*
X103180642Y-102478490D01*
X103332331Y-102352331D01*
X103458490Y-102200642D01*
X103554892Y-102028502D01*
X103594095Y-101913016D01*
X103616453Y-101847151D01*
X103616453Y-101847149D01*
X103618311Y-101841677D01*
X103619374Y-101834350D01*
X103637457Y-101709632D01*
X103646622Y-101646423D01*
X103648099Y-101590000D01*
X103630046Y-101393532D01*
X103576492Y-101203644D01*
X103570505Y-101191502D01*
X103555134Y-101160334D01*
X103542944Y-101090392D01*
X103570504Y-101024962D01*
X103579045Y-101015511D01*
X103960231Y-100634325D01*
X104022543Y-100600299D01*
X104093358Y-100605364D01*
X104138421Y-100634325D01*
X104296343Y-100792247D01*
X104303887Y-100800537D01*
X104308000Y-100807018D01*
X104313777Y-100812443D01*
X104357667Y-100853658D01*
X104360509Y-100856413D01*
X104380230Y-100876134D01*
X104383425Y-100878612D01*
X104392447Y-100886318D01*
X104424679Y-100916586D01*
X104431628Y-100920406D01*
X104442432Y-100926346D01*
X104458956Y-100937199D01*
X104474959Y-100949613D01*
X104515543Y-100967176D01*
X104526173Y-100972383D01*
X104564940Y-100993695D01*
X104572617Y-100995666D01*
X104572622Y-100995668D01*
X104584558Y-100998732D01*
X104603266Y-101005137D01*
X104621855Y-101013181D01*
X104629683Y-101014421D01*
X104629690Y-101014423D01*
X104665524Y-101020099D01*
X104677144Y-101022505D01*
X104712289Y-101031528D01*
X104719970Y-101033500D01*
X104730500Y-101033500D01*
X104732464Y-101034077D01*
X104735760Y-101034493D01*
X104735693Y-101035025D01*
X104798621Y-101053502D01*
X104845114Y-101107158D01*
X104856500Y-101159500D01*
X104856500Y-102203134D01*
X104863255Y-102265316D01*
X104914385Y-102401705D01*
X105001739Y-102518261D01*
X105118295Y-102605615D01*
X105254684Y-102656745D01*
X105316866Y-102663500D01*
X106543134Y-102663500D01*
X106605316Y-102656745D01*
X106741705Y-102605615D01*
X106858261Y-102518261D01*
X106945615Y-102401705D01*
X106996745Y-102265316D01*
X107003500Y-102203134D01*
X107003500Y-101159500D01*
X107023502Y-101091379D01*
X107077158Y-101044886D01*
X107129500Y-101033500D01*
X112365406Y-101033500D01*
X112433527Y-101053502D01*
X112454501Y-101070405D01*
X112765312Y-101381216D01*
X112799338Y-101443528D01*
X112801343Y-101485122D01*
X112792949Y-101556035D01*
X112792949Y-101556045D01*
X112792270Y-101561779D01*
X112805174Y-101758652D01*
X112853739Y-101949877D01*
X112936339Y-102129049D01*
X113050207Y-102290169D01*
X113054341Y-102294196D01*
X113160786Y-102397890D01*
X113191530Y-102427840D01*
X113196326Y-102431045D01*
X113196329Y-102431047D01*
X113239963Y-102460202D01*
X113355576Y-102537452D01*
X113360879Y-102539730D01*
X113360882Y-102539732D01*
X113521566Y-102608767D01*
X113536849Y-102615333D01*
X113630185Y-102636453D01*
X113723644Y-102657601D01*
X113723647Y-102657601D01*
X113729280Y-102658876D01*
X113735051Y-102659103D01*
X113735053Y-102659103D01*
X113794054Y-102661421D01*
X113926423Y-102666622D01*
X114041789Y-102649894D01*
X114115955Y-102639141D01*
X114115959Y-102639140D01*
X114121677Y-102638311D01*
X114127149Y-102636453D01*
X114127151Y-102636453D01*
X114223417Y-102603775D01*
X115114937Y-102603775D01*
X115116688Y-102613359D01*
X115158357Y-102756784D01*
X115164604Y-102771220D01*
X115239876Y-102898499D01*
X115249516Y-102910926D01*
X115354074Y-103015484D01*
X115366501Y-103025124D01*
X115493780Y-103100396D01*
X115508216Y-103106643D01*
X115628605Y-103141619D01*
X115642705Y-103141579D01*
X115646000Y-103134309D01*
X115646000Y-102607115D01*
X115641525Y-102591876D01*
X115640135Y-102590671D01*
X115632452Y-102589000D01*
X115131576Y-102589000D01*
X115116781Y-102593344D01*
X115114937Y-102603775D01*
X114223417Y-102603775D01*
X114303038Y-102576747D01*
X114303040Y-102576746D01*
X114308502Y-102574892D01*
X114480642Y-102478490D01*
X114546384Y-102423813D01*
X114627891Y-102356024D01*
X114627893Y-102356022D01*
X114632331Y-102352331D01*
X114701695Y-102268931D01*
X114760631Y-102229347D01*
X114798568Y-102223500D01*
X115808015Y-102223500D01*
X115876136Y-102243502D01*
X115897110Y-102260405D01*
X116034595Y-102397890D01*
X116068621Y-102460202D01*
X116071500Y-102486985D01*
X116071500Y-102570484D01*
X116071693Y-102572932D01*
X116071693Y-102572940D01*
X116073184Y-102591876D01*
X116074394Y-102607254D01*
X116120106Y-102764597D01*
X116124141Y-102771419D01*
X116124141Y-102771420D01*
X116136454Y-102792240D01*
X116154000Y-102856379D01*
X116154000Y-103128558D01*
X116157973Y-103142089D01*
X116165871Y-103143224D01*
X116291784Y-103106643D01*
X116306222Y-103100395D01*
X116315372Y-103094984D01*
X116384188Y-103077526D01*
X116443647Y-103094985D01*
X116449547Y-103098474D01*
X116460403Y-103104894D01*
X116468014Y-103107105D01*
X116468016Y-103107106D01*
X116507246Y-103118503D01*
X116617746Y-103150606D01*
X116624151Y-103151110D01*
X116624156Y-103151111D01*
X116652060Y-103153307D01*
X116652068Y-103153307D01*
X116654516Y-103153500D01*
X117065484Y-103153500D01*
X117067932Y-103153307D01*
X117067940Y-103153307D01*
X117095844Y-103151111D01*
X117095849Y-103151110D01*
X117102254Y-103150606D01*
X117212754Y-103118503D01*
X117251984Y-103107106D01*
X117251986Y-103107105D01*
X117259597Y-103104894D01*
X117267205Y-103100395D01*
X117393808Y-103025522D01*
X117400629Y-103021488D01*
X117516488Y-102905629D01*
X117599894Y-102764597D01*
X117645606Y-102607254D01*
X117646817Y-102591876D01*
X117648307Y-102572940D01*
X117648307Y-102572932D01*
X117648500Y-102570484D01*
X117648500Y-102099516D01*
X117646809Y-102078031D01*
X117646111Y-102069156D01*
X117646110Y-102069151D01*
X117645606Y-102062746D01*
X117599894Y-101905403D01*
X117557874Y-101834350D01*
X117520522Y-101771192D01*
X117516488Y-101764371D01*
X117400629Y-101648512D01*
X117276352Y-101575015D01*
X117266420Y-101569141D01*
X117266419Y-101569141D01*
X117259597Y-101565106D01*
X117251986Y-101562895D01*
X117251984Y-101562894D01*
X117178144Y-101541442D01*
X117102254Y-101519394D01*
X117095849Y-101518890D01*
X117095844Y-101518889D01*
X117067940Y-101516693D01*
X117067932Y-101516693D01*
X117065484Y-101516500D01*
X116997204Y-101516500D01*
X116929083Y-101496498D01*
X116908109Y-101479595D01*
X116626261Y-101197747D01*
X116618721Y-101189461D01*
X116614609Y-101182982D01*
X116564957Y-101136356D01*
X116562116Y-101133602D01*
X116542379Y-101113865D01*
X116539182Y-101111385D01*
X116530160Y-101103680D01*
X116516010Y-101090392D01*
X116497930Y-101073414D01*
X116490984Y-101069595D01*
X116490981Y-101069593D01*
X116480175Y-101063652D01*
X116463656Y-101052801D01*
X116463192Y-101052441D01*
X116447650Y-101040386D01*
X116440381Y-101037241D01*
X116440377Y-101037238D01*
X116407072Y-101022826D01*
X116396422Y-101017609D01*
X116357669Y-100996305D01*
X116338046Y-100991267D01*
X116319343Y-100984863D01*
X116308029Y-100979967D01*
X116308028Y-100979967D01*
X116300754Y-100976819D01*
X116292931Y-100975580D01*
X116292921Y-100975577D01*
X116257085Y-100969901D01*
X116245465Y-100967495D01*
X116210320Y-100958472D01*
X116210319Y-100958472D01*
X116202639Y-100956500D01*
X116182385Y-100956500D01*
X116162674Y-100954949D01*
X116154290Y-100953621D01*
X116142666Y-100951780D01*
X116134774Y-100952526D01*
X116098648Y-100955941D01*
X116086790Y-100956500D01*
X114799979Y-100956500D01*
X114731858Y-100936498D01*
X114699021Y-100905889D01*
X114674637Y-100873235D01*
X114674636Y-100873234D01*
X114671184Y-100868611D01*
X114666948Y-100864695D01*
X114530546Y-100738607D01*
X114530544Y-100738605D01*
X114526305Y-100734687D01*
X114359447Y-100629407D01*
X114176197Y-100556297D01*
X114170529Y-100555170D01*
X114170527Y-100555169D01*
X113988360Y-100518934D01*
X113988356Y-100518934D01*
X113982692Y-100517807D01*
X113976917Y-100517731D01*
X113976913Y-100517731D01*
X113878267Y-100516440D01*
X113785413Y-100515224D01*
X113769253Y-100518001D01*
X113698731Y-100509825D01*
X113658821Y-100482916D01*
X113475883Y-100299978D01*
X113441857Y-100237666D01*
X113446922Y-100166851D01*
X113489469Y-100110015D01*
X113555989Y-100085204D01*
X113592784Y-100087990D01*
X113661791Y-100103605D01*
X113723644Y-100117601D01*
X113723647Y-100117601D01*
X113729280Y-100118876D01*
X113735051Y-100119103D01*
X113735053Y-100119103D01*
X113794054Y-100121421D01*
X113926423Y-100126622D01*
X114041789Y-100109894D01*
X114115955Y-100099141D01*
X114115959Y-100099140D01*
X114121677Y-100098311D01*
X114127149Y-100096453D01*
X114127151Y-100096453D01*
X114303038Y-100036747D01*
X114303040Y-100036746D01*
X114308502Y-100034892D01*
X114480642Y-99938490D01*
X114632331Y-99812331D01*
X114690407Y-99742503D01*
X115113579Y-99742503D01*
X115114363Y-99752477D01*
X115116662Y-99765064D01*
X115157981Y-99907283D01*
X115164230Y-99921722D01*
X115238854Y-100047905D01*
X115248501Y-100060341D01*
X115352159Y-100163999D01*
X115364595Y-100173646D01*
X115490778Y-100248270D01*
X115505217Y-100254519D01*
X115618605Y-100287461D01*
X115632705Y-100287421D01*
X115636000Y-100280151D01*
X115636000Y-99744615D01*
X115631525Y-99729376D01*
X115630135Y-99728171D01*
X115622452Y-99726500D01*
X115130434Y-99726500D01*
X115115639Y-99730844D01*
X115113579Y-99742503D01*
X114690407Y-99742503D01*
X114758490Y-99660642D01*
X114854892Y-99488502D01*
X114918311Y-99301677D01*
X114919141Y-99295955D01*
X114920364Y-99290860D01*
X114955715Y-99229290D01*
X115018741Y-99196607D01*
X115089432Y-99203186D01*
X115102369Y-99211763D01*
X115128374Y-99218500D01*
X115707906Y-99218500D01*
X115776027Y-99238502D01*
X115797001Y-99255405D01*
X116094596Y-99553000D01*
X116128622Y-99615312D01*
X116131501Y-99642095D01*
X116131501Y-99722488D01*
X116134371Y-99758966D01*
X116136166Y-99765144D01*
X116136168Y-99765153D01*
X116138997Y-99774890D01*
X116144000Y-99810042D01*
X116144000Y-100274400D01*
X116147973Y-100287931D01*
X116155871Y-100289066D01*
X116274783Y-100254519D01*
X116289220Y-100248271D01*
X116335370Y-100220978D01*
X116404187Y-100203518D01*
X116463646Y-100220977D01*
X116517404Y-100252769D01*
X116525015Y-100254980D01*
X116525017Y-100254981D01*
X116591858Y-100274400D01*
X116673534Y-100298129D01*
X116679941Y-100298633D01*
X116679945Y-100298634D01*
X116707556Y-100300807D01*
X116707562Y-100300807D01*
X116710011Y-100301000D01*
X116909878Y-100301000D01*
X117109988Y-100300999D01*
X117146466Y-100298129D01*
X117243270Y-100270005D01*
X117294983Y-100254981D01*
X117294985Y-100254980D01*
X117302596Y-100252769D01*
X117310204Y-100248270D01*
X117435720Y-100174040D01*
X117442541Y-100170006D01*
X117557506Y-100055041D01*
X117591564Y-99997452D01*
X117636234Y-99921919D01*
X117636234Y-99921918D01*
X117640269Y-99915096D01*
X117649474Y-99883414D01*
X117681003Y-99774890D01*
X117685629Y-99758966D01*
X117686135Y-99752547D01*
X117688307Y-99724944D01*
X117688307Y-99724938D01*
X117688500Y-99722489D01*
X117688500Y-99642095D01*
X117708502Y-99573974D01*
X117725405Y-99553000D01*
X117726405Y-99552000D01*
X117788717Y-99517974D01*
X117859532Y-99523039D01*
X117916368Y-99565586D01*
X117941179Y-99632106D01*
X117941500Y-99641095D01*
X117941500Y-114265500D01*
X117921498Y-114333621D01*
X117867842Y-114380114D01*
X117815500Y-114391500D01*
X90584500Y-114391500D01*
X90516379Y-114371498D01*
X90469886Y-114317842D01*
X90458500Y-114265500D01*
X90458500Y-113293134D01*
X95916500Y-113293134D01*
X95923255Y-113355316D01*
X95974385Y-113491705D01*
X96061739Y-113608261D01*
X96178295Y-113695615D01*
X96314684Y-113746745D01*
X96376866Y-113753500D01*
X97743134Y-113753500D01*
X97805316Y-113746745D01*
X97941705Y-113695615D01*
X98058261Y-113608261D01*
X98082042Y-113576530D01*
X98997830Y-113576530D01*
X99007710Y-113589017D01*
X99047472Y-113615585D01*
X99057575Y-113621071D01*
X99239973Y-113699435D01*
X99250916Y-113702990D01*
X99444533Y-113746802D01*
X99455942Y-113748304D01*
X99654308Y-113756097D01*
X99665790Y-113755495D01*
X99862250Y-113727011D01*
X99873445Y-113724323D01*
X100061424Y-113660512D01*
X100071931Y-113655834D01*
X100193745Y-113587614D01*
X100203610Y-113577536D01*
X100203222Y-113576530D01*
X101537830Y-113576530D01*
X101547710Y-113589017D01*
X101587472Y-113615585D01*
X101597575Y-113621071D01*
X101779973Y-113699435D01*
X101790916Y-113702990D01*
X101984533Y-113746802D01*
X101995942Y-113748304D01*
X102194308Y-113756097D01*
X102205790Y-113755495D01*
X102402250Y-113727011D01*
X102413445Y-113724323D01*
X102601424Y-113660512D01*
X102611931Y-113655834D01*
X102733745Y-113587614D01*
X102743610Y-113577536D01*
X102740654Y-113569864D01*
X102463924Y-113293134D01*
X105216500Y-113293134D01*
X105223255Y-113355316D01*
X105274385Y-113491705D01*
X105361739Y-113608261D01*
X105478295Y-113695615D01*
X105614684Y-113746745D01*
X105676866Y-113753500D01*
X107043134Y-113753500D01*
X107105316Y-113746745D01*
X107241705Y-113695615D01*
X107358261Y-113608261D01*
X107382042Y-113576530D01*
X108297830Y-113576530D01*
X108307710Y-113589017D01*
X108347472Y-113615585D01*
X108357575Y-113621071D01*
X108539973Y-113699435D01*
X108550916Y-113702990D01*
X108744533Y-113746802D01*
X108755942Y-113748304D01*
X108954308Y-113756097D01*
X108965790Y-113755495D01*
X109162250Y-113727011D01*
X109173445Y-113724323D01*
X109361424Y-113660512D01*
X109371931Y-113655834D01*
X109493745Y-113587614D01*
X109503610Y-113577536D01*
X109503222Y-113576530D01*
X110837830Y-113576530D01*
X110847710Y-113589017D01*
X110887472Y-113615585D01*
X110897575Y-113621071D01*
X111079973Y-113699435D01*
X111090916Y-113702990D01*
X111284533Y-113746802D01*
X111295942Y-113748304D01*
X111494308Y-113756097D01*
X111505790Y-113755495D01*
X111702250Y-113727011D01*
X111713445Y-113724323D01*
X111901424Y-113660512D01*
X111911931Y-113655834D01*
X112033745Y-113587614D01*
X112043610Y-113577536D01*
X112040654Y-113569864D01*
X111452812Y-112982022D01*
X111438868Y-112974408D01*
X111437035Y-112974539D01*
X111430420Y-112978790D01*
X110844027Y-113565183D01*
X110837830Y-113576530D01*
X109503222Y-113576530D01*
X109500654Y-113569864D01*
X108912812Y-112982022D01*
X108898868Y-112974408D01*
X108897035Y-112974539D01*
X108890420Y-112978790D01*
X108304027Y-113565183D01*
X108297830Y-113576530D01*
X107382042Y-113576530D01*
X107445615Y-113491705D01*
X107496745Y-113355316D01*
X107503500Y-113293134D01*
X107503500Y-112629903D01*
X107515474Y-112589123D01*
X107513663Y-112585407D01*
X107744613Y-112585407D01*
X107750396Y-112594405D01*
X107755230Y-112621662D01*
X107765858Y-112783803D01*
X107767659Y-112795173D01*
X107816523Y-112987576D01*
X107820364Y-112998423D01*
X107903475Y-113178705D01*
X107909223Y-113188661D01*
X107920675Y-113204867D01*
X107931263Y-113213254D01*
X107944564Y-113206226D01*
X108527978Y-112622812D01*
X108534356Y-112611132D01*
X109264408Y-112611132D01*
X109264539Y-112612965D01*
X109268790Y-112619580D01*
X109855950Y-113206740D01*
X109868330Y-113213500D01*
X109874910Y-113208574D01*
X109945834Y-113081931D01*
X109950512Y-113071424D01*
X110014323Y-112883445D01*
X110017011Y-112872250D01*
X110045791Y-112673750D01*
X110046737Y-112662664D01*
X110048427Y-112662808D01*
X110064573Y-112612817D01*
X110063036Y-112609662D01*
X110275506Y-112609662D01*
X110294105Y-112640382D01*
X110298031Y-112664387D01*
X110305858Y-112783803D01*
X110307659Y-112795173D01*
X110356523Y-112987576D01*
X110360364Y-112998423D01*
X110443475Y-113178705D01*
X110449223Y-113188661D01*
X110460675Y-113204867D01*
X110471263Y-113213254D01*
X110484564Y-113206226D01*
X111067978Y-112622812D01*
X111074356Y-112611132D01*
X111804408Y-112611132D01*
X111804539Y-112612965D01*
X111808790Y-112619580D01*
X112395950Y-113206740D01*
X112408330Y-113213500D01*
X112414910Y-113208574D01*
X112485834Y-113081931D01*
X112490512Y-113071424D01*
X112554323Y-112883445D01*
X112557011Y-112872250D01*
X112585791Y-112673750D01*
X112586421Y-112666367D01*
X112587800Y-112613704D01*
X112587557Y-112606305D01*
X112569204Y-112406566D01*
X112567107Y-112395251D01*
X112513222Y-112204190D01*
X112509100Y-112193451D01*
X112421299Y-112015409D01*
X112419192Y-112011970D01*
X112409876Y-112004980D01*
X112397459Y-112011751D01*
X111812022Y-112597188D01*
X111804408Y-112611132D01*
X111074356Y-112611132D01*
X111075592Y-112608868D01*
X111075461Y-112607035D01*
X111071210Y-112600420D01*
X110482626Y-112011836D01*
X110470246Y-112005076D01*
X110464280Y-112009542D01*
X110382173Y-112165602D01*
X110377768Y-112176236D01*
X110318900Y-112365822D01*
X110316508Y-112377076D01*
X110294149Y-112565985D01*
X110275506Y-112609662D01*
X110063036Y-112609662D01*
X110044791Y-112572217D01*
X110043551Y-112562704D01*
X110029204Y-112406566D01*
X110027107Y-112395251D01*
X109973222Y-112204190D01*
X109969100Y-112193451D01*
X109881299Y-112015409D01*
X109879192Y-112011970D01*
X109869876Y-112004980D01*
X109857459Y-112011751D01*
X109272022Y-112597188D01*
X109264408Y-112611132D01*
X108534356Y-112611132D01*
X108535592Y-112608868D01*
X108535461Y-112607035D01*
X108531210Y-112600420D01*
X107942626Y-112011836D01*
X107930246Y-112005076D01*
X107924280Y-112009542D01*
X107842173Y-112165602D01*
X107837768Y-112176236D01*
X107778900Y-112365822D01*
X107776508Y-112377076D01*
X107754627Y-112561947D01*
X107744613Y-112585407D01*
X107513663Y-112585407D01*
X107505269Y-112568179D01*
X107503500Y-112547137D01*
X107503500Y-111926866D01*
X107496745Y-111864684D01*
X107445615Y-111728295D01*
X107381794Y-111643139D01*
X108297251Y-111643139D01*
X108300738Y-111651528D01*
X108887188Y-112237978D01*
X108901132Y-112245592D01*
X108902965Y-112245461D01*
X108909580Y-112241210D01*
X109495657Y-111655133D01*
X109502206Y-111643139D01*
X110837251Y-111643139D01*
X110840738Y-111651528D01*
X111427188Y-112237978D01*
X111441132Y-112245592D01*
X111442965Y-112245461D01*
X111449580Y-112241210D01*
X112035657Y-111655133D01*
X112042417Y-111642753D01*
X112036387Y-111634698D01*
X111966020Y-111590299D01*
X111955769Y-111585076D01*
X111771389Y-111511516D01*
X111760352Y-111508247D01*
X111565654Y-111469518D01*
X111554210Y-111468315D01*
X111355719Y-111465718D01*
X111344239Y-111466621D01*
X111148599Y-111500238D01*
X111137479Y-111503218D01*
X110951234Y-111571927D01*
X110940856Y-111576877D01*
X110846849Y-111632806D01*
X110837251Y-111643139D01*
X109502206Y-111643139D01*
X109502417Y-111642753D01*
X109496387Y-111634698D01*
X109426020Y-111590299D01*
X109415769Y-111585076D01*
X109231389Y-111511516D01*
X109220352Y-111508247D01*
X109025654Y-111469518D01*
X109014210Y-111468315D01*
X108815719Y-111465718D01*
X108804239Y-111466621D01*
X108608599Y-111500238D01*
X108597479Y-111503218D01*
X108411234Y-111571927D01*
X108400856Y-111576877D01*
X108306849Y-111632806D01*
X108297251Y-111643139D01*
X107381794Y-111643139D01*
X107358261Y-111611739D01*
X107241705Y-111524385D01*
X107105316Y-111473255D01*
X107043134Y-111466500D01*
X105676866Y-111466500D01*
X105614684Y-111473255D01*
X105478295Y-111524385D01*
X105361739Y-111611739D01*
X105274385Y-111728295D01*
X105223255Y-111864684D01*
X105216500Y-111926866D01*
X105216500Y-113293134D01*
X102463924Y-113293134D01*
X102152812Y-112982022D01*
X102138868Y-112974408D01*
X102137035Y-112974539D01*
X102130420Y-112978790D01*
X101544027Y-113565183D01*
X101537830Y-113576530D01*
X100203222Y-113576530D01*
X100200654Y-113569864D01*
X99612812Y-112982022D01*
X99598868Y-112974408D01*
X99597035Y-112974539D01*
X99590420Y-112978790D01*
X99004027Y-113565183D01*
X98997830Y-113576530D01*
X98082042Y-113576530D01*
X98145615Y-113491705D01*
X98196745Y-113355316D01*
X98203500Y-113293134D01*
X98203500Y-112629903D01*
X98215474Y-112589123D01*
X98213663Y-112585407D01*
X98444613Y-112585407D01*
X98450396Y-112594405D01*
X98455230Y-112621662D01*
X98465858Y-112783803D01*
X98467659Y-112795173D01*
X98516523Y-112987576D01*
X98520364Y-112998423D01*
X98603475Y-113178705D01*
X98609223Y-113188661D01*
X98620675Y-113204867D01*
X98631263Y-113213254D01*
X98644564Y-113206226D01*
X99227978Y-112622812D01*
X99234356Y-112611132D01*
X99964408Y-112611132D01*
X99964539Y-112612965D01*
X99968790Y-112619580D01*
X100555950Y-113206740D01*
X100568330Y-113213500D01*
X100574910Y-113208574D01*
X100645834Y-113081931D01*
X100650512Y-113071424D01*
X100714323Y-112883445D01*
X100717011Y-112872250D01*
X100745791Y-112673750D01*
X100746737Y-112662664D01*
X100748427Y-112662808D01*
X100764573Y-112612817D01*
X100763036Y-112609662D01*
X100975506Y-112609662D01*
X100994105Y-112640382D01*
X100998031Y-112664387D01*
X101005858Y-112783803D01*
X101007659Y-112795173D01*
X101056523Y-112987576D01*
X101060364Y-112998423D01*
X101143475Y-113178705D01*
X101149223Y-113188661D01*
X101160675Y-113204867D01*
X101171263Y-113213254D01*
X101184564Y-113206226D01*
X101767978Y-112622812D01*
X101774356Y-112611132D01*
X102504408Y-112611132D01*
X102504539Y-112612965D01*
X102508790Y-112619580D01*
X103095950Y-113206740D01*
X103108330Y-113213500D01*
X103114910Y-113208574D01*
X103185834Y-113081931D01*
X103190512Y-113071424D01*
X103254323Y-112883445D01*
X103257011Y-112872250D01*
X103285791Y-112673750D01*
X103286421Y-112666367D01*
X103287800Y-112613704D01*
X103287557Y-112606305D01*
X103269204Y-112406566D01*
X103267107Y-112395251D01*
X103213222Y-112204190D01*
X103209100Y-112193451D01*
X103121299Y-112015409D01*
X103119192Y-112011970D01*
X103109876Y-112004980D01*
X103097459Y-112011751D01*
X102512022Y-112597188D01*
X102504408Y-112611132D01*
X101774356Y-112611132D01*
X101775592Y-112608868D01*
X101775461Y-112607035D01*
X101771210Y-112600420D01*
X101182626Y-112011836D01*
X101170246Y-112005076D01*
X101164280Y-112009542D01*
X101082173Y-112165602D01*
X101077768Y-112176236D01*
X101018900Y-112365822D01*
X101016508Y-112377076D01*
X100994149Y-112565985D01*
X100975506Y-112609662D01*
X100763036Y-112609662D01*
X100744791Y-112572217D01*
X100743551Y-112562704D01*
X100729204Y-112406566D01*
X100727107Y-112395251D01*
X100673222Y-112204190D01*
X100669100Y-112193451D01*
X100581299Y-112015409D01*
X100579192Y-112011970D01*
X100569876Y-112004980D01*
X100557459Y-112011751D01*
X99972022Y-112597188D01*
X99964408Y-112611132D01*
X99234356Y-112611132D01*
X99235592Y-112608868D01*
X99235461Y-112607035D01*
X99231210Y-112600420D01*
X98642626Y-112011836D01*
X98630246Y-112005076D01*
X98624280Y-112009542D01*
X98542173Y-112165602D01*
X98537768Y-112176236D01*
X98478900Y-112365822D01*
X98476508Y-112377076D01*
X98454627Y-112561947D01*
X98444613Y-112585407D01*
X98213663Y-112585407D01*
X98205269Y-112568179D01*
X98203500Y-112547137D01*
X98203500Y-111926866D01*
X98196745Y-111864684D01*
X98145615Y-111728295D01*
X98081794Y-111643139D01*
X98997251Y-111643139D01*
X99000738Y-111651528D01*
X99587188Y-112237978D01*
X99601132Y-112245592D01*
X99602965Y-112245461D01*
X99609580Y-112241210D01*
X100195657Y-111655133D01*
X100202206Y-111643139D01*
X101537251Y-111643139D01*
X101540738Y-111651528D01*
X102127188Y-112237978D01*
X102141132Y-112245592D01*
X102142965Y-112245461D01*
X102149580Y-112241210D01*
X102735657Y-111655133D01*
X102742417Y-111642753D01*
X102736387Y-111634698D01*
X102666020Y-111590299D01*
X102655769Y-111585076D01*
X102471389Y-111511516D01*
X102460352Y-111508247D01*
X102265654Y-111469518D01*
X102254210Y-111468315D01*
X102055719Y-111465718D01*
X102044239Y-111466621D01*
X101848599Y-111500238D01*
X101837479Y-111503218D01*
X101651234Y-111571927D01*
X101640856Y-111576877D01*
X101546849Y-111632806D01*
X101537251Y-111643139D01*
X100202206Y-111643139D01*
X100202417Y-111642753D01*
X100196387Y-111634698D01*
X100126020Y-111590299D01*
X100115769Y-111585076D01*
X99931389Y-111511516D01*
X99920352Y-111508247D01*
X99725654Y-111469518D01*
X99714210Y-111468315D01*
X99515719Y-111465718D01*
X99504239Y-111466621D01*
X99308599Y-111500238D01*
X99297479Y-111503218D01*
X99111234Y-111571927D01*
X99100856Y-111576877D01*
X99006849Y-111632806D01*
X98997251Y-111643139D01*
X98081794Y-111643139D01*
X98058261Y-111611739D01*
X97941705Y-111524385D01*
X97805316Y-111473255D01*
X97743134Y-111466500D01*
X96376866Y-111466500D01*
X96314684Y-111473255D01*
X96178295Y-111524385D01*
X96061739Y-111611739D01*
X95974385Y-111728295D01*
X95923255Y-111864684D01*
X95916500Y-111926866D01*
X95916500Y-113293134D01*
X90458500Y-113293134D01*
X90458500Y-110039938D01*
X97181995Y-110039938D01*
X97195740Y-110249649D01*
X97247471Y-110453343D01*
X97249890Y-110458590D01*
X97333038Y-110638953D01*
X97333041Y-110638958D01*
X97335457Y-110644199D01*
X97456751Y-110815825D01*
X97607289Y-110962474D01*
X97612085Y-110965679D01*
X97612088Y-110965681D01*
X97682499Y-111012728D01*
X97782031Y-111079233D01*
X97787339Y-111081514D01*
X97787340Y-111081514D01*
X97969822Y-111159914D01*
X97969825Y-111159915D01*
X97975125Y-111162192D01*
X97980754Y-111163466D01*
X97980755Y-111163466D01*
X98174467Y-111207299D01*
X98174473Y-111207300D01*
X98180104Y-111208574D01*
X98185875Y-111208801D01*
X98185877Y-111208801D01*
X98249433Y-111211298D01*
X98390103Y-111216825D01*
X98598088Y-111186669D01*
X98603552Y-111184814D01*
X98603557Y-111184813D01*
X98791624Y-111120973D01*
X98791629Y-111120971D01*
X98797096Y-111119115D01*
X98980460Y-111016426D01*
X99142041Y-110882041D01*
X99276426Y-110720460D01*
X99379115Y-110537096D01*
X99380971Y-110531629D01*
X99380973Y-110531624D01*
X99444813Y-110343557D01*
X99444814Y-110343552D01*
X99446669Y-110338088D01*
X99476825Y-110130103D01*
X99476868Y-110128466D01*
X99497816Y-110074564D01*
X99496184Y-110071214D01*
X99702868Y-110071214D01*
X99725730Y-110114477D01*
X99727985Y-110131334D01*
X99735740Y-110249649D01*
X99787471Y-110453343D01*
X99789890Y-110458590D01*
X99873038Y-110638953D01*
X99873041Y-110638958D01*
X99875457Y-110644199D01*
X99996751Y-110815825D01*
X100147289Y-110962474D01*
X100152085Y-110965679D01*
X100152088Y-110965681D01*
X100222499Y-111012728D01*
X100322031Y-111079233D01*
X100327339Y-111081514D01*
X100327340Y-111081514D01*
X100509822Y-111159914D01*
X100509825Y-111159915D01*
X100515125Y-111162192D01*
X100520754Y-111163466D01*
X100520755Y-111163466D01*
X100714467Y-111207299D01*
X100714473Y-111207300D01*
X100720104Y-111208574D01*
X100725875Y-111208801D01*
X100725877Y-111208801D01*
X100789433Y-111211298D01*
X100930103Y-111216825D01*
X101138088Y-111186669D01*
X101143552Y-111184814D01*
X101143557Y-111184813D01*
X101331624Y-111120973D01*
X101331629Y-111120971D01*
X101337096Y-111119115D01*
X101520460Y-111016426D01*
X101682041Y-110882041D01*
X101816426Y-110720460D01*
X101919115Y-110537096D01*
X101920971Y-110531629D01*
X101920973Y-110531624D01*
X101984813Y-110343557D01*
X101984814Y-110343552D01*
X101986669Y-110338088D01*
X102016825Y-110130103D01*
X102018399Y-110070000D01*
X102015637Y-110039938D01*
X106481995Y-110039938D01*
X106495740Y-110249649D01*
X106547471Y-110453343D01*
X106549890Y-110458590D01*
X106633038Y-110638953D01*
X106633041Y-110638958D01*
X106635457Y-110644199D01*
X106756751Y-110815825D01*
X106907289Y-110962474D01*
X106912085Y-110965679D01*
X106912088Y-110965681D01*
X106982499Y-111012728D01*
X107082031Y-111079233D01*
X107087339Y-111081514D01*
X107087340Y-111081514D01*
X107269822Y-111159914D01*
X107269825Y-111159915D01*
X107275125Y-111162192D01*
X107280754Y-111163466D01*
X107280755Y-111163466D01*
X107474467Y-111207299D01*
X107474473Y-111207300D01*
X107480104Y-111208574D01*
X107485875Y-111208801D01*
X107485877Y-111208801D01*
X107549433Y-111211298D01*
X107690103Y-111216825D01*
X107898088Y-111186669D01*
X107903552Y-111184814D01*
X107903557Y-111184813D01*
X108091624Y-111120973D01*
X108091629Y-111120971D01*
X108097096Y-111119115D01*
X108280460Y-111016426D01*
X108442041Y-110882041D01*
X108576426Y-110720460D01*
X108679115Y-110537096D01*
X108680971Y-110531629D01*
X108680973Y-110531624D01*
X108744813Y-110343557D01*
X108744814Y-110343552D01*
X108746669Y-110338088D01*
X108776825Y-110130103D01*
X108776868Y-110128466D01*
X108797816Y-110074564D01*
X108796184Y-110071214D01*
X109002868Y-110071214D01*
X109025730Y-110114477D01*
X109027985Y-110131334D01*
X109035740Y-110249649D01*
X109087471Y-110453343D01*
X109089890Y-110458590D01*
X109173038Y-110638953D01*
X109173041Y-110638958D01*
X109175457Y-110644199D01*
X109296751Y-110815825D01*
X109447289Y-110962474D01*
X109452085Y-110965679D01*
X109452088Y-110965681D01*
X109522499Y-111012728D01*
X109622031Y-111079233D01*
X109627339Y-111081514D01*
X109627340Y-111081514D01*
X109809822Y-111159914D01*
X109809825Y-111159915D01*
X109815125Y-111162192D01*
X109820754Y-111163466D01*
X109820755Y-111163466D01*
X110014467Y-111207299D01*
X110014473Y-111207300D01*
X110020104Y-111208574D01*
X110025875Y-111208801D01*
X110025877Y-111208801D01*
X110089433Y-111211298D01*
X110230103Y-111216825D01*
X110438088Y-111186669D01*
X110443552Y-111184814D01*
X110443557Y-111184813D01*
X110631624Y-111120973D01*
X110631629Y-111120971D01*
X110637096Y-111119115D01*
X110820460Y-111016426D01*
X110982041Y-110882041D01*
X111116426Y-110720460D01*
X111219115Y-110537096D01*
X111220971Y-110531629D01*
X111220973Y-110531624D01*
X111284813Y-110343557D01*
X111284814Y-110343552D01*
X111286669Y-110338088D01*
X111316825Y-110130103D01*
X111318399Y-110070000D01*
X111299169Y-109860721D01*
X111242123Y-109658451D01*
X111149171Y-109469963D01*
X111023427Y-109301571D01*
X110869101Y-109158914D01*
X110691362Y-109046769D01*
X110496163Y-108968892D01*
X110490506Y-108967767D01*
X110490500Y-108967765D01*
X110295707Y-108929019D01*
X110295705Y-108929019D01*
X110290040Y-108927892D01*
X110284265Y-108927816D01*
X110284261Y-108927816D01*
X110249466Y-108927361D01*
X110247720Y-108927338D01*
X110205049Y-108914200D01*
X110191146Y-108922382D01*
X110158775Y-108926174D01*
X110079898Y-108925141D01*
X110074201Y-108926120D01*
X110074200Y-108926120D01*
X109878469Y-108959753D01*
X109872772Y-108960732D01*
X109675601Y-109033472D01*
X109494988Y-109140926D01*
X109336981Y-109279494D01*
X109206872Y-109444537D01*
X109204181Y-109449653D01*
X109204179Y-109449655D01*
X109190769Y-109475144D01*
X109109018Y-109630527D01*
X109046696Y-109831234D01*
X109046017Y-109836969D01*
X109046017Y-109836970D01*
X109024212Y-110021206D01*
X109002868Y-110071214D01*
X108796184Y-110071214D01*
X108774855Y-110027440D01*
X108773614Y-110017926D01*
X108759698Y-109866478D01*
X108759169Y-109860721D01*
X108702123Y-109658451D01*
X108609171Y-109469963D01*
X108483427Y-109301571D01*
X108329101Y-109158914D01*
X108151362Y-109046769D01*
X107956163Y-108968892D01*
X107950506Y-108967767D01*
X107950500Y-108967765D01*
X107755707Y-108929019D01*
X107755705Y-108929019D01*
X107750040Y-108927892D01*
X107744265Y-108927816D01*
X107744261Y-108927816D01*
X107709466Y-108927361D01*
X107707720Y-108927338D01*
X107665049Y-108914200D01*
X107651146Y-108922382D01*
X107618775Y-108926174D01*
X107539898Y-108925141D01*
X107534201Y-108926120D01*
X107534200Y-108926120D01*
X107338469Y-108959753D01*
X107332772Y-108960732D01*
X107135601Y-109033472D01*
X106954988Y-109140926D01*
X106796981Y-109279494D01*
X106666872Y-109444537D01*
X106664181Y-109449653D01*
X106664179Y-109449655D01*
X106650769Y-109475144D01*
X106569018Y-109630527D01*
X106506696Y-109831234D01*
X106481995Y-110039938D01*
X102015637Y-110039938D01*
X101999169Y-109860721D01*
X101942123Y-109658451D01*
X101849171Y-109469963D01*
X101723427Y-109301571D01*
X101569101Y-109158914D01*
X101391362Y-109046769D01*
X101196163Y-108968892D01*
X101190506Y-108967767D01*
X101190500Y-108967765D01*
X100995707Y-108929019D01*
X100995705Y-108929019D01*
X100990040Y-108927892D01*
X100984265Y-108927816D01*
X100984261Y-108927816D01*
X100949466Y-108927361D01*
X100947720Y-108927338D01*
X100905049Y-108914200D01*
X100891146Y-108922382D01*
X100858775Y-108926174D01*
X100779898Y-108925141D01*
X100774201Y-108926120D01*
X100774200Y-108926120D01*
X100578469Y-108959753D01*
X100572772Y-108960732D01*
X100375601Y-109033472D01*
X100194988Y-109140926D01*
X100036981Y-109279494D01*
X99906872Y-109444537D01*
X99904181Y-109449653D01*
X99904179Y-109449655D01*
X99890769Y-109475144D01*
X99809018Y-109630527D01*
X99746696Y-109831234D01*
X99746017Y-109836969D01*
X99746017Y-109836970D01*
X99724212Y-110021206D01*
X99702868Y-110071214D01*
X99496184Y-110071214D01*
X99474855Y-110027440D01*
X99473614Y-110017926D01*
X99459698Y-109866478D01*
X99459169Y-109860721D01*
X99402123Y-109658451D01*
X99309171Y-109469963D01*
X99183427Y-109301571D01*
X99029101Y-109158914D01*
X98851362Y-109046769D01*
X98656163Y-108968892D01*
X98650506Y-108967767D01*
X98650500Y-108967765D01*
X98455707Y-108929019D01*
X98455705Y-108929019D01*
X98450040Y-108927892D01*
X98444265Y-108927816D01*
X98444261Y-108927816D01*
X98409466Y-108927361D01*
X98407720Y-108927338D01*
X98365049Y-108914200D01*
X98351146Y-108922382D01*
X98318775Y-108926174D01*
X98239898Y-108925141D01*
X98234201Y-108926120D01*
X98234200Y-108926120D01*
X98038469Y-108959753D01*
X98032772Y-108960732D01*
X97835601Y-109033472D01*
X97654988Y-109140926D01*
X97496981Y-109279494D01*
X97366872Y-109444537D01*
X97364181Y-109449653D01*
X97364179Y-109449655D01*
X97350769Y-109475144D01*
X97269018Y-109630527D01*
X97206696Y-109831234D01*
X97181995Y-110039938D01*
X90458500Y-110039938D01*
X90458500Y-107499938D01*
X97181995Y-107499938D01*
X97195740Y-107709649D01*
X97247471Y-107913343D01*
X97249890Y-107918590D01*
X97333038Y-108098953D01*
X97333041Y-108098958D01*
X97335457Y-108104199D01*
X97456751Y-108275825D01*
X97607289Y-108422474D01*
X97612085Y-108425679D01*
X97612088Y-108425681D01*
X97682499Y-108472728D01*
X97782031Y-108539233D01*
X97787339Y-108541514D01*
X97787340Y-108541514D01*
X97969822Y-108619914D01*
X97969825Y-108619915D01*
X97975125Y-108622192D01*
X97980754Y-108623466D01*
X97980755Y-108623466D01*
X98174467Y-108667299D01*
X98174473Y-108667300D01*
X98180104Y-108668574D01*
X98185875Y-108668801D01*
X98185877Y-108668801D01*
X98325369Y-108674282D01*
X98363852Y-108687243D01*
X98375456Y-108679999D01*
X98391289Y-108676653D01*
X98598088Y-108646669D01*
X98603552Y-108644814D01*
X98603557Y-108644813D01*
X98791624Y-108580973D01*
X98791629Y-108580971D01*
X98797096Y-108579115D01*
X98980460Y-108476426D01*
X99142041Y-108342041D01*
X99276426Y-108180460D01*
X99379115Y-107997096D01*
X99380971Y-107991629D01*
X99380973Y-107991624D01*
X99444813Y-107803557D01*
X99444814Y-107803552D01*
X99446669Y-107798088D01*
X99476825Y-107590103D01*
X99476868Y-107588466D01*
X99497816Y-107534564D01*
X99496184Y-107531214D01*
X99702868Y-107531214D01*
X99725730Y-107574477D01*
X99727985Y-107591334D01*
X99735740Y-107709649D01*
X99787471Y-107913343D01*
X99789890Y-107918590D01*
X99873038Y-108098953D01*
X99873041Y-108098958D01*
X99875457Y-108104199D01*
X99996751Y-108275825D01*
X100147289Y-108422474D01*
X100152085Y-108425679D01*
X100152088Y-108425681D01*
X100222499Y-108472728D01*
X100322031Y-108539233D01*
X100327339Y-108541514D01*
X100327340Y-108541514D01*
X100509822Y-108619914D01*
X100509825Y-108619915D01*
X100515125Y-108622192D01*
X100520754Y-108623466D01*
X100520755Y-108623466D01*
X100714467Y-108667299D01*
X100714473Y-108667300D01*
X100720104Y-108668574D01*
X100725875Y-108668801D01*
X100725877Y-108668801D01*
X100865369Y-108674282D01*
X100903852Y-108687243D01*
X100915456Y-108679999D01*
X100931289Y-108676653D01*
X101138088Y-108646669D01*
X101143552Y-108644814D01*
X101143557Y-108644813D01*
X101331624Y-108580973D01*
X101331629Y-108580971D01*
X101337096Y-108579115D01*
X101520460Y-108476426D01*
X101682041Y-108342041D01*
X101816426Y-108180460D01*
X101919115Y-107997096D01*
X101920971Y-107991629D01*
X101920973Y-107991624D01*
X101984813Y-107803557D01*
X101984814Y-107803552D01*
X101986669Y-107798088D01*
X102016825Y-107590103D01*
X102018399Y-107530000D01*
X102015637Y-107499938D01*
X106481995Y-107499938D01*
X106495740Y-107709649D01*
X106547471Y-107913343D01*
X106549890Y-107918590D01*
X106633038Y-108098953D01*
X106633041Y-108098958D01*
X106635457Y-108104199D01*
X106756751Y-108275825D01*
X106907289Y-108422474D01*
X106912085Y-108425679D01*
X106912088Y-108425681D01*
X106982499Y-108472728D01*
X107082031Y-108539233D01*
X107087339Y-108541514D01*
X107087340Y-108541514D01*
X107269822Y-108619914D01*
X107269825Y-108619915D01*
X107275125Y-108622192D01*
X107280754Y-108623466D01*
X107280755Y-108623466D01*
X107474467Y-108667299D01*
X107474473Y-108667300D01*
X107480104Y-108668574D01*
X107485875Y-108668801D01*
X107485877Y-108668801D01*
X107625369Y-108674282D01*
X107663852Y-108687243D01*
X107675456Y-108679999D01*
X107691289Y-108676653D01*
X107898088Y-108646669D01*
X107903552Y-108644814D01*
X107903557Y-108644813D01*
X108091624Y-108580973D01*
X108091629Y-108580971D01*
X108097096Y-108579115D01*
X108280460Y-108476426D01*
X108442041Y-108342041D01*
X108576426Y-108180460D01*
X108679115Y-107997096D01*
X108680971Y-107991629D01*
X108680973Y-107991624D01*
X108744813Y-107803557D01*
X108744814Y-107803552D01*
X108746669Y-107798088D01*
X108776825Y-107590103D01*
X108776868Y-107588466D01*
X108797816Y-107534564D01*
X108796184Y-107531214D01*
X109002868Y-107531214D01*
X109025730Y-107574477D01*
X109027985Y-107591334D01*
X109035740Y-107709649D01*
X109087471Y-107913343D01*
X109089890Y-107918590D01*
X109173038Y-108098953D01*
X109173041Y-108098958D01*
X109175457Y-108104199D01*
X109296751Y-108275825D01*
X109447289Y-108422474D01*
X109452085Y-108425679D01*
X109452088Y-108425681D01*
X109522499Y-108472728D01*
X109622031Y-108539233D01*
X109627339Y-108541514D01*
X109627340Y-108541514D01*
X109809822Y-108619914D01*
X109809825Y-108619915D01*
X109815125Y-108622192D01*
X109820754Y-108623466D01*
X109820755Y-108623466D01*
X110014467Y-108667299D01*
X110014473Y-108667300D01*
X110020104Y-108668574D01*
X110025875Y-108668801D01*
X110025877Y-108668801D01*
X110165369Y-108674282D01*
X110203852Y-108687243D01*
X110215456Y-108679999D01*
X110231289Y-108676653D01*
X110438088Y-108646669D01*
X110443552Y-108644814D01*
X110443557Y-108644813D01*
X110631624Y-108580973D01*
X110631629Y-108580971D01*
X110637096Y-108579115D01*
X110820460Y-108476426D01*
X110982041Y-108342041D01*
X111116426Y-108180460D01*
X111219115Y-107997096D01*
X111220971Y-107991629D01*
X111220973Y-107991624D01*
X111284813Y-107803557D01*
X111284814Y-107803552D01*
X111286669Y-107798088D01*
X111316825Y-107590103D01*
X111318399Y-107530000D01*
X111299169Y-107320721D01*
X111242123Y-107118451D01*
X111149171Y-106929963D01*
X111023427Y-106761571D01*
X110869101Y-106618914D01*
X110691362Y-106506769D01*
X110496163Y-106428892D01*
X110490506Y-106427767D01*
X110490500Y-106427765D01*
X110295707Y-106389019D01*
X110295705Y-106389019D01*
X110290040Y-106387892D01*
X110284265Y-106387816D01*
X110284261Y-106387816D01*
X110179001Y-106386438D01*
X110079898Y-106385141D01*
X110074201Y-106386120D01*
X110074200Y-106386120D01*
X109878469Y-106419753D01*
X109872772Y-106420732D01*
X109675601Y-106493472D01*
X109494988Y-106600926D01*
X109336981Y-106739494D01*
X109206872Y-106904537D01*
X109204181Y-106909653D01*
X109204179Y-106909655D01*
X109190769Y-106935144D01*
X109109018Y-107090527D01*
X109046696Y-107291234D01*
X109046017Y-107296969D01*
X109046017Y-107296970D01*
X109024212Y-107481206D01*
X109002868Y-107531214D01*
X108796184Y-107531214D01*
X108774855Y-107487440D01*
X108773614Y-107477926D01*
X108759698Y-107326478D01*
X108759169Y-107320721D01*
X108702123Y-107118451D01*
X108609171Y-106929963D01*
X108483427Y-106761571D01*
X108329101Y-106618914D01*
X108151362Y-106506769D01*
X107956163Y-106428892D01*
X107950506Y-106427767D01*
X107950500Y-106427765D01*
X107755707Y-106389019D01*
X107755705Y-106389019D01*
X107750040Y-106387892D01*
X107744265Y-106387816D01*
X107744261Y-106387816D01*
X107639001Y-106386438D01*
X107539898Y-106385141D01*
X107534201Y-106386120D01*
X107534200Y-106386120D01*
X107338469Y-106419753D01*
X107332772Y-106420732D01*
X107135601Y-106493472D01*
X106954988Y-106600926D01*
X106796981Y-106739494D01*
X106666872Y-106904537D01*
X106664181Y-106909653D01*
X106664179Y-106909655D01*
X106650769Y-106935144D01*
X106569018Y-107090527D01*
X106506696Y-107291234D01*
X106481995Y-107499938D01*
X102015637Y-107499938D01*
X101999169Y-107320721D01*
X101942123Y-107118451D01*
X101849171Y-106929963D01*
X101723427Y-106761571D01*
X101569101Y-106618914D01*
X101391362Y-106506769D01*
X101196163Y-106428892D01*
X101190506Y-106427767D01*
X101190500Y-106427765D01*
X100995707Y-106389019D01*
X100995705Y-106389019D01*
X100990040Y-106387892D01*
X100984265Y-106387816D01*
X100984261Y-106387816D01*
X100879001Y-106386438D01*
X100779898Y-106385141D01*
X100774201Y-106386120D01*
X100774200Y-106386120D01*
X100578469Y-106419753D01*
X100572772Y-106420732D01*
X100375601Y-106493472D01*
X100194988Y-106600926D01*
X100036981Y-106739494D01*
X99906872Y-106904537D01*
X99904181Y-106909653D01*
X99904179Y-106909655D01*
X99890769Y-106935144D01*
X99809018Y-107090527D01*
X99746696Y-107291234D01*
X99746017Y-107296969D01*
X99746017Y-107296970D01*
X99724212Y-107481206D01*
X99702868Y-107531214D01*
X99496184Y-107531214D01*
X99474855Y-107487440D01*
X99473614Y-107477926D01*
X99459698Y-107326478D01*
X99459169Y-107320721D01*
X99402123Y-107118451D01*
X99309171Y-106929963D01*
X99183427Y-106761571D01*
X99029101Y-106618914D01*
X98851362Y-106506769D01*
X98656163Y-106428892D01*
X98650506Y-106427767D01*
X98650500Y-106427765D01*
X98455707Y-106389019D01*
X98455705Y-106389019D01*
X98450040Y-106387892D01*
X98444265Y-106387816D01*
X98444261Y-106387816D01*
X98339001Y-106386438D01*
X98239898Y-106385141D01*
X98234201Y-106386120D01*
X98234200Y-106386120D01*
X98038469Y-106419753D01*
X98032772Y-106420732D01*
X97835601Y-106493472D01*
X97654988Y-106600926D01*
X97496981Y-106739494D01*
X97366872Y-106904537D01*
X97364181Y-106909653D01*
X97364179Y-106909655D01*
X97350769Y-106935144D01*
X97269018Y-107090527D01*
X97206696Y-107291234D01*
X97181995Y-107499938D01*
X90458500Y-107499938D01*
X90458500Y-104959938D01*
X95911995Y-104959938D01*
X95925740Y-105169649D01*
X95977471Y-105373343D01*
X95979890Y-105378590D01*
X96063038Y-105558953D01*
X96063041Y-105558958D01*
X96065457Y-105564199D01*
X96068788Y-105568912D01*
X96068789Y-105568914D01*
X96082684Y-105588574D01*
X96186751Y-105735825D01*
X96337289Y-105882474D01*
X96342085Y-105885679D01*
X96342088Y-105885681D01*
X96449627Y-105957536D01*
X96512031Y-105999233D01*
X96517339Y-106001514D01*
X96517340Y-106001514D01*
X96699822Y-106079914D01*
X96699825Y-106079915D01*
X96705125Y-106082192D01*
X96710754Y-106083466D01*
X96710755Y-106083466D01*
X96904467Y-106127299D01*
X96904473Y-106127300D01*
X96910104Y-106128574D01*
X96915875Y-106128801D01*
X96915877Y-106128801D01*
X96979433Y-106131298D01*
X97120103Y-106136825D01*
X97328088Y-106106669D01*
X97333552Y-106104814D01*
X97333557Y-106104813D01*
X97521624Y-106040973D01*
X97521629Y-106040971D01*
X97527096Y-106039115D01*
X97674562Y-105956530D01*
X98997830Y-105956530D01*
X99007710Y-105969017D01*
X99047472Y-105995585D01*
X99057575Y-106001071D01*
X99239973Y-106079435D01*
X99250916Y-106082990D01*
X99444533Y-106126802D01*
X99455942Y-106128304D01*
X99654308Y-106136097D01*
X99665790Y-106135495D01*
X99862250Y-106107011D01*
X99873445Y-106104323D01*
X100061424Y-106040512D01*
X100071931Y-106035834D01*
X100193745Y-105967614D01*
X100203610Y-105957536D01*
X100200654Y-105949864D01*
X99612812Y-105362022D01*
X99598868Y-105354408D01*
X99597035Y-105354539D01*
X99590420Y-105358790D01*
X99004027Y-105945183D01*
X98997830Y-105956530D01*
X97674562Y-105956530D01*
X97710460Y-105936426D01*
X97872041Y-105802041D01*
X98006426Y-105640460D01*
X98109115Y-105457096D01*
X98110971Y-105451629D01*
X98110973Y-105451624D01*
X98174813Y-105263557D01*
X98174814Y-105263552D01*
X98176669Y-105258088D01*
X98206825Y-105050103D01*
X98206922Y-105046394D01*
X98206994Y-105045551D01*
X98226836Y-104994493D01*
X98224832Y-104990380D01*
X98434464Y-104990380D01*
X98456013Y-105031159D01*
X98458268Y-105048015D01*
X98465858Y-105163803D01*
X98467659Y-105175173D01*
X98516523Y-105367576D01*
X98520364Y-105378423D01*
X98603475Y-105558705D01*
X98609223Y-105568661D01*
X98620675Y-105584867D01*
X98631263Y-105593254D01*
X98644564Y-105586226D01*
X99227978Y-105002812D01*
X99234356Y-104991132D01*
X99964408Y-104991132D01*
X99964539Y-104992965D01*
X99968790Y-104999580D01*
X100555950Y-105586740D01*
X100568330Y-105593500D01*
X100574910Y-105588574D01*
X100645834Y-105461931D01*
X100650512Y-105451424D01*
X100714323Y-105263445D01*
X100717011Y-105252250D01*
X100745791Y-105053753D01*
X100746493Y-105045525D01*
X100766332Y-104994487D01*
X100764324Y-104990365D01*
X100973966Y-104990365D01*
X100995514Y-105031147D01*
X100997766Y-105047993D01*
X101005740Y-105169649D01*
X101057471Y-105373343D01*
X101059890Y-105378590D01*
X101143038Y-105558953D01*
X101143041Y-105558958D01*
X101145457Y-105564199D01*
X101148788Y-105568912D01*
X101148789Y-105568914D01*
X101162684Y-105588574D01*
X101266751Y-105735825D01*
X101417289Y-105882474D01*
X101422085Y-105885679D01*
X101422088Y-105885681D01*
X101529627Y-105957536D01*
X101592031Y-105999233D01*
X101597339Y-106001514D01*
X101597340Y-106001514D01*
X101779822Y-106079914D01*
X101779825Y-106079915D01*
X101785125Y-106082192D01*
X101790754Y-106083466D01*
X101790755Y-106083466D01*
X101984467Y-106127299D01*
X101984473Y-106127300D01*
X101990104Y-106128574D01*
X101995875Y-106128801D01*
X101995877Y-106128801D01*
X102059433Y-106131298D01*
X102200103Y-106136825D01*
X102408088Y-106106669D01*
X102413552Y-106104814D01*
X102413557Y-106104813D01*
X102601624Y-106040973D01*
X102601629Y-106040971D01*
X102607096Y-106039115D01*
X102790460Y-105936426D01*
X102952041Y-105802041D01*
X103086426Y-105640460D01*
X103189115Y-105457096D01*
X103190971Y-105451629D01*
X103190973Y-105451624D01*
X103254813Y-105263557D01*
X103254814Y-105263552D01*
X103256669Y-105258088D01*
X103286825Y-105050103D01*
X103288399Y-104990000D01*
X103285637Y-104959938D01*
X105211995Y-104959938D01*
X105225740Y-105169649D01*
X105277471Y-105373343D01*
X105279890Y-105378590D01*
X105363038Y-105558953D01*
X105363041Y-105558958D01*
X105365457Y-105564199D01*
X105368788Y-105568912D01*
X105368789Y-105568914D01*
X105382684Y-105588574D01*
X105486751Y-105735825D01*
X105637289Y-105882474D01*
X105642085Y-105885679D01*
X105642088Y-105885681D01*
X105749627Y-105957536D01*
X105812031Y-105999233D01*
X105817339Y-106001514D01*
X105817340Y-106001514D01*
X105999822Y-106079914D01*
X105999825Y-106079915D01*
X106005125Y-106082192D01*
X106010754Y-106083466D01*
X106010755Y-106083466D01*
X106204467Y-106127299D01*
X106204473Y-106127300D01*
X106210104Y-106128574D01*
X106215875Y-106128801D01*
X106215877Y-106128801D01*
X106279433Y-106131298D01*
X106420103Y-106136825D01*
X106628088Y-106106669D01*
X106633552Y-106104814D01*
X106633557Y-106104813D01*
X106821624Y-106040973D01*
X106821629Y-106040971D01*
X106827096Y-106039115D01*
X106974562Y-105956530D01*
X108297830Y-105956530D01*
X108307710Y-105969017D01*
X108347472Y-105995585D01*
X108357575Y-106001071D01*
X108539973Y-106079435D01*
X108550916Y-106082990D01*
X108744533Y-106126802D01*
X108755942Y-106128304D01*
X108954308Y-106136097D01*
X108965790Y-106135495D01*
X109162250Y-106107011D01*
X109173445Y-106104323D01*
X109361424Y-106040512D01*
X109371931Y-106035834D01*
X109493745Y-105967614D01*
X109503610Y-105957536D01*
X109500654Y-105949864D01*
X108912812Y-105362022D01*
X108898868Y-105354408D01*
X108897035Y-105354539D01*
X108890420Y-105358790D01*
X108304027Y-105945183D01*
X108297830Y-105956530D01*
X106974562Y-105956530D01*
X107010460Y-105936426D01*
X107172041Y-105802041D01*
X107306426Y-105640460D01*
X107409115Y-105457096D01*
X107410971Y-105451629D01*
X107410973Y-105451624D01*
X107474813Y-105263557D01*
X107474814Y-105263552D01*
X107476669Y-105258088D01*
X107506825Y-105050103D01*
X107506922Y-105046394D01*
X107506994Y-105045551D01*
X107526836Y-104994493D01*
X107524832Y-104990380D01*
X107734464Y-104990380D01*
X107756013Y-105031159D01*
X107758268Y-105048015D01*
X107765858Y-105163803D01*
X107767659Y-105175173D01*
X107816523Y-105367576D01*
X107820364Y-105378423D01*
X107903475Y-105558705D01*
X107909223Y-105568661D01*
X107920675Y-105584867D01*
X107931263Y-105593254D01*
X107944564Y-105586226D01*
X108527978Y-105002812D01*
X108534356Y-104991132D01*
X109264408Y-104991132D01*
X109264539Y-104992965D01*
X109268790Y-104999580D01*
X109855950Y-105586740D01*
X109868330Y-105593500D01*
X109874910Y-105588574D01*
X109945834Y-105461931D01*
X109950512Y-105451424D01*
X110014323Y-105263445D01*
X110017011Y-105252250D01*
X110045791Y-105053753D01*
X110046493Y-105045525D01*
X110066332Y-104994487D01*
X110064324Y-104990365D01*
X110273966Y-104990365D01*
X110295514Y-105031147D01*
X110297766Y-105047993D01*
X110305740Y-105169649D01*
X110357471Y-105373343D01*
X110359890Y-105378590D01*
X110443038Y-105558953D01*
X110443041Y-105558958D01*
X110445457Y-105564199D01*
X110448788Y-105568912D01*
X110448789Y-105568914D01*
X110462684Y-105588574D01*
X110566751Y-105735825D01*
X110717289Y-105882474D01*
X110722085Y-105885679D01*
X110722088Y-105885681D01*
X110829627Y-105957536D01*
X110892031Y-105999233D01*
X110897339Y-106001514D01*
X110897340Y-106001514D01*
X111079822Y-106079914D01*
X111079825Y-106079915D01*
X111085125Y-106082192D01*
X111090754Y-106083466D01*
X111090755Y-106083466D01*
X111284467Y-106127299D01*
X111284473Y-106127300D01*
X111290104Y-106128574D01*
X111295875Y-106128801D01*
X111295877Y-106128801D01*
X111359433Y-106131298D01*
X111500103Y-106136825D01*
X111708088Y-106106669D01*
X111713552Y-106104814D01*
X111713557Y-106104813D01*
X111901624Y-106040973D01*
X111901629Y-106040971D01*
X111907096Y-106039115D01*
X112090460Y-105936426D01*
X112252041Y-105802041D01*
X112386426Y-105640460D01*
X112489115Y-105457096D01*
X112490971Y-105451629D01*
X112490973Y-105451624D01*
X112554813Y-105263557D01*
X112554814Y-105263552D01*
X112556669Y-105258088D01*
X112586825Y-105050103D01*
X112588399Y-104990000D01*
X112569169Y-104780721D01*
X112562501Y-104757076D01*
X112523271Y-104617978D01*
X112512123Y-104578451D01*
X112419171Y-104389963D01*
X112293427Y-104221571D01*
X112139101Y-104078914D01*
X111961362Y-103966769D01*
X111766163Y-103888892D01*
X111760506Y-103887767D01*
X111760500Y-103887765D01*
X111565707Y-103849019D01*
X111565705Y-103849019D01*
X111560040Y-103847892D01*
X111554265Y-103847816D01*
X111554261Y-103847816D01*
X111449001Y-103846438D01*
X111349898Y-103845141D01*
X111344201Y-103846120D01*
X111344200Y-103846120D01*
X111148469Y-103879753D01*
X111142772Y-103880732D01*
X110945601Y-103953472D01*
X110940640Y-103956424D01*
X110940639Y-103956424D01*
X110917318Y-103970299D01*
X110764988Y-104060926D01*
X110606981Y-104199494D01*
X110476872Y-104364537D01*
X110474181Y-104369653D01*
X110474179Y-104369655D01*
X110462554Y-104391751D01*
X110379018Y-104550527D01*
X110316696Y-104751234D01*
X110316018Y-104756966D01*
X110316017Y-104756969D01*
X110293929Y-104943595D01*
X110273966Y-104990365D01*
X110064324Y-104990365D01*
X110044572Y-104949828D01*
X110043331Y-104940314D01*
X110029204Y-104786566D01*
X110027107Y-104775251D01*
X109973222Y-104584190D01*
X109969100Y-104573451D01*
X109881299Y-104395409D01*
X109879192Y-104391970D01*
X109869876Y-104384980D01*
X109857459Y-104391751D01*
X109272022Y-104977188D01*
X109264408Y-104991132D01*
X108534356Y-104991132D01*
X108535592Y-104988868D01*
X108535461Y-104987035D01*
X108531210Y-104980420D01*
X107942626Y-104391836D01*
X107930246Y-104385076D01*
X107924280Y-104389542D01*
X107842173Y-104545602D01*
X107837768Y-104556236D01*
X107778900Y-104745822D01*
X107776508Y-104757076D01*
X107754432Y-104943597D01*
X107734464Y-104990380D01*
X107524832Y-104990380D01*
X107505075Y-104949830D01*
X107503834Y-104940316D01*
X107489698Y-104786478D01*
X107489169Y-104780721D01*
X107482501Y-104757076D01*
X107443271Y-104617978D01*
X107432123Y-104578451D01*
X107339171Y-104389963D01*
X107213427Y-104221571D01*
X107059101Y-104078914D01*
X106970703Y-104023139D01*
X108297251Y-104023139D01*
X108300738Y-104031528D01*
X108887188Y-104617978D01*
X108901132Y-104625592D01*
X108902965Y-104625461D01*
X108909580Y-104621210D01*
X109495657Y-104035133D01*
X109502417Y-104022753D01*
X109496387Y-104014698D01*
X109426020Y-103970299D01*
X109415769Y-103965076D01*
X109231389Y-103891516D01*
X109220352Y-103888247D01*
X109025654Y-103849518D01*
X109014210Y-103848315D01*
X108815719Y-103845718D01*
X108804239Y-103846621D01*
X108608599Y-103880238D01*
X108597479Y-103883218D01*
X108411234Y-103951927D01*
X108400856Y-103956877D01*
X108306849Y-104012806D01*
X108297251Y-104023139D01*
X106970703Y-104023139D01*
X106881362Y-103966769D01*
X106686163Y-103888892D01*
X106680506Y-103887767D01*
X106680500Y-103887765D01*
X106485707Y-103849019D01*
X106485705Y-103849019D01*
X106480040Y-103847892D01*
X106474265Y-103847816D01*
X106474261Y-103847816D01*
X106369001Y-103846438D01*
X106269898Y-103845141D01*
X106264201Y-103846120D01*
X106264200Y-103846120D01*
X106068469Y-103879753D01*
X106062772Y-103880732D01*
X105865601Y-103953472D01*
X105860640Y-103956424D01*
X105860639Y-103956424D01*
X105837318Y-103970299D01*
X105684988Y-104060926D01*
X105526981Y-104199494D01*
X105396872Y-104364537D01*
X105394181Y-104369653D01*
X105394179Y-104369655D01*
X105382554Y-104391751D01*
X105299018Y-104550527D01*
X105236696Y-104751234D01*
X105236017Y-104756969D01*
X105236017Y-104756970D01*
X105233865Y-104775157D01*
X105211995Y-104959938D01*
X103285637Y-104959938D01*
X103269169Y-104780721D01*
X103262501Y-104757076D01*
X103223271Y-104617978D01*
X103212123Y-104578451D01*
X103119171Y-104389963D01*
X102993427Y-104221571D01*
X102839101Y-104078914D01*
X102661362Y-103966769D01*
X102466163Y-103888892D01*
X102460506Y-103887767D01*
X102460500Y-103887765D01*
X102265707Y-103849019D01*
X102265705Y-103849019D01*
X102260040Y-103847892D01*
X102254265Y-103847816D01*
X102254261Y-103847816D01*
X102149001Y-103846438D01*
X102049898Y-103845141D01*
X102044201Y-103846120D01*
X102044200Y-103846120D01*
X101848469Y-103879753D01*
X101842772Y-103880732D01*
X101645601Y-103953472D01*
X101640640Y-103956424D01*
X101640639Y-103956424D01*
X101617318Y-103970299D01*
X101464988Y-104060926D01*
X101306981Y-104199494D01*
X101176872Y-104364537D01*
X101174181Y-104369653D01*
X101174179Y-104369655D01*
X101162554Y-104391751D01*
X101079018Y-104550527D01*
X101016696Y-104751234D01*
X101016018Y-104756966D01*
X101016017Y-104756969D01*
X100993929Y-104943595D01*
X100973966Y-104990365D01*
X100764324Y-104990365D01*
X100744572Y-104949828D01*
X100743331Y-104940314D01*
X100729204Y-104786566D01*
X100727107Y-104775251D01*
X100673222Y-104584190D01*
X100669100Y-104573451D01*
X100581299Y-104395409D01*
X100579192Y-104391970D01*
X100569876Y-104384980D01*
X100557459Y-104391751D01*
X99972022Y-104977188D01*
X99964408Y-104991132D01*
X99234356Y-104991132D01*
X99235592Y-104988868D01*
X99235461Y-104987035D01*
X99231210Y-104980420D01*
X98642626Y-104391836D01*
X98630246Y-104385076D01*
X98624280Y-104389542D01*
X98542173Y-104545602D01*
X98537768Y-104556236D01*
X98478900Y-104745822D01*
X98476508Y-104757076D01*
X98454432Y-104943597D01*
X98434464Y-104990380D01*
X98224832Y-104990380D01*
X98205075Y-104949830D01*
X98203834Y-104940316D01*
X98189698Y-104786478D01*
X98189169Y-104780721D01*
X98182501Y-104757076D01*
X98143271Y-104617978D01*
X98132123Y-104578451D01*
X98039171Y-104389963D01*
X97913427Y-104221571D01*
X97759101Y-104078914D01*
X97670703Y-104023139D01*
X98997251Y-104023139D01*
X99000738Y-104031528D01*
X99587188Y-104617978D01*
X99601132Y-104625592D01*
X99602965Y-104625461D01*
X99609580Y-104621210D01*
X100195657Y-104035133D01*
X100202417Y-104022753D01*
X100196387Y-104014698D01*
X100126020Y-103970299D01*
X100115769Y-103965076D01*
X99931389Y-103891516D01*
X99920352Y-103888247D01*
X99725654Y-103849518D01*
X99714210Y-103848315D01*
X99515719Y-103845718D01*
X99504239Y-103846621D01*
X99308599Y-103880238D01*
X99297479Y-103883218D01*
X99111234Y-103951927D01*
X99100856Y-103956877D01*
X99006849Y-104012806D01*
X98997251Y-104023139D01*
X97670703Y-104023139D01*
X97581362Y-103966769D01*
X97386163Y-103888892D01*
X97380506Y-103887767D01*
X97380500Y-103887765D01*
X97185707Y-103849019D01*
X97185705Y-103849019D01*
X97180040Y-103847892D01*
X97174265Y-103847816D01*
X97174261Y-103847816D01*
X97069001Y-103846438D01*
X96969898Y-103845141D01*
X96964201Y-103846120D01*
X96964200Y-103846120D01*
X96768469Y-103879753D01*
X96762772Y-103880732D01*
X96565601Y-103953472D01*
X96560640Y-103956424D01*
X96560639Y-103956424D01*
X96537318Y-103970299D01*
X96384988Y-104060926D01*
X96226981Y-104199494D01*
X96096872Y-104364537D01*
X96094181Y-104369653D01*
X96094179Y-104369655D01*
X96082554Y-104391751D01*
X95999018Y-104550527D01*
X95936696Y-104751234D01*
X95936017Y-104756969D01*
X95936017Y-104756970D01*
X95933865Y-104775157D01*
X95911995Y-104959938D01*
X90458500Y-104959938D01*
X90458500Y-102603775D01*
X90914937Y-102603775D01*
X90916688Y-102613359D01*
X90958357Y-102756784D01*
X90964604Y-102771220D01*
X91039876Y-102898499D01*
X91049516Y-102910926D01*
X91154074Y-103015484D01*
X91166501Y-103025124D01*
X91293780Y-103100396D01*
X91308216Y-103106643D01*
X91428605Y-103141619D01*
X91442705Y-103141579D01*
X91446000Y-103134309D01*
X91446000Y-102607115D01*
X91441525Y-102591876D01*
X91440135Y-102590671D01*
X91432452Y-102589000D01*
X90931576Y-102589000D01*
X90916781Y-102593344D01*
X90914937Y-102603775D01*
X90458500Y-102603775D01*
X90458500Y-102064609D01*
X90915232Y-102064609D01*
X90918052Y-102078031D01*
X90929513Y-102081000D01*
X91427885Y-102081000D01*
X91443124Y-102076525D01*
X91444329Y-102075135D01*
X91446000Y-102067452D01*
X91446000Y-101541442D01*
X91442027Y-101527911D01*
X91434129Y-101526776D01*
X91308216Y-101563357D01*
X91293780Y-101569604D01*
X91166501Y-101644876D01*
X91154074Y-101654516D01*
X91049516Y-101759074D01*
X91039876Y-101771501D01*
X90964604Y-101898780D01*
X90958357Y-101913216D01*
X90916688Y-102056641D01*
X90915232Y-102064609D01*
X90458500Y-102064609D01*
X90458500Y-99742503D01*
X90913579Y-99742503D01*
X90914363Y-99752477D01*
X90916662Y-99765064D01*
X90957981Y-99907283D01*
X90964230Y-99921722D01*
X91038854Y-100047905D01*
X91048501Y-100060341D01*
X91152159Y-100163999D01*
X91164595Y-100173646D01*
X91290778Y-100248270D01*
X91305217Y-100254519D01*
X91418605Y-100287461D01*
X91432705Y-100287421D01*
X91436000Y-100280151D01*
X91436000Y-99744615D01*
X91431525Y-99729376D01*
X91430135Y-99728171D01*
X91422452Y-99726500D01*
X90930434Y-99726500D01*
X90915639Y-99730844D01*
X90913579Y-99742503D01*
X90458500Y-99742503D01*
X90458500Y-98421094D01*
X90478502Y-98352973D01*
X90532158Y-98306480D01*
X90602432Y-98296376D01*
X90667012Y-98325870D01*
G37*
%TD.AperFunction*%
%TA.AperFunction,Conductor*%
G36*
X98977482Y-78253502D02*
G01*
X99023975Y-78307158D01*
X99034624Y-78373107D01*
X99031500Y-78401866D01*
X99031500Y-80198134D01*
X99038255Y-80260316D01*
X99089385Y-80396705D01*
X99176739Y-80513261D01*
X99293295Y-80600615D01*
X99429684Y-80651745D01*
X99491866Y-80658500D01*
X100800406Y-80658500D01*
X100868527Y-80678502D01*
X100889501Y-80695405D01*
X102586343Y-82392247D01*
X102593887Y-82400537D01*
X102598000Y-82407018D01*
X102603777Y-82412443D01*
X102647667Y-82453658D01*
X102650509Y-82456413D01*
X102670231Y-82476135D01*
X102673355Y-82478558D01*
X102673359Y-82478562D01*
X102673424Y-82478612D01*
X102682445Y-82486317D01*
X102714679Y-82516586D01*
X102713153Y-82518211D01*
X102749558Y-82565428D01*
X102755629Y-82636165D01*
X102722493Y-82698955D01*
X102660671Y-82733862D01*
X102630494Y-82737124D01*
X102485413Y-82735224D01*
X102479716Y-82736203D01*
X102479715Y-82736203D01*
X102333625Y-82761306D01*
X102290967Y-82768636D01*
X102105866Y-82836924D01*
X102100905Y-82839876D01*
X102100904Y-82839876D01*
X101941277Y-82934844D01*
X101941274Y-82934846D01*
X101936309Y-82937800D01*
X101931969Y-82941606D01*
X101931965Y-82941609D01*
X101899658Y-82969942D01*
X101787975Y-83067886D01*
X101665830Y-83222825D01*
X101663141Y-83227936D01*
X101663139Y-83227939D01*
X101616732Y-83316144D01*
X101573966Y-83397429D01*
X101515460Y-83585851D01*
X101492270Y-83781779D01*
X101505174Y-83978652D01*
X101553739Y-84169877D01*
X101636339Y-84349049D01*
X101750207Y-84510169D01*
X101891530Y-84647840D01*
X101896326Y-84651045D01*
X101896329Y-84651047D01*
X101961809Y-84694799D01*
X102055576Y-84757452D01*
X102060879Y-84759730D01*
X102060882Y-84759732D01*
X102230432Y-84832576D01*
X102236849Y-84835333D01*
X102328038Y-84855967D01*
X102423644Y-84877601D01*
X102423647Y-84877601D01*
X102429280Y-84878876D01*
X102435051Y-84879103D01*
X102435053Y-84879103D01*
X102494054Y-84881421D01*
X102626423Y-84886622D01*
X102741789Y-84869894D01*
X102815955Y-84859141D01*
X102815959Y-84859140D01*
X102821677Y-84858311D01*
X102827149Y-84856453D01*
X102827151Y-84856453D01*
X103003038Y-84796747D01*
X103003040Y-84796746D01*
X103008502Y-84794892D01*
X103131333Y-84726104D01*
X103131413Y-84726059D01*
X105378302Y-84726059D01*
X105388184Y-84738548D01*
X105411009Y-84753799D01*
X105421123Y-84759291D01*
X105591697Y-84832576D01*
X105602640Y-84836131D01*
X105783708Y-84877103D01*
X105795118Y-84878605D01*
X105980629Y-84885893D01*
X105992111Y-84885291D01*
X106175846Y-84858652D01*
X106187029Y-84855967D01*
X106362826Y-84796292D01*
X106373339Y-84791611D01*
X106472313Y-84736182D01*
X106482178Y-84726104D01*
X106479222Y-84718432D01*
X105942812Y-84182022D01*
X105928868Y-84174408D01*
X105927035Y-84174539D01*
X105920420Y-84178790D01*
X105384498Y-84714712D01*
X105378302Y-84726059D01*
X103131413Y-84726059D01*
X103175605Y-84701311D01*
X103175606Y-84701310D01*
X103180642Y-84698490D01*
X103332331Y-84572331D01*
X103458490Y-84420642D01*
X103554892Y-84248502D01*
X103583541Y-84164107D01*
X103616453Y-84067151D01*
X103616453Y-84067149D01*
X103618311Y-84061677D01*
X103619157Y-84055846D01*
X103646089Y-83870096D01*
X103646622Y-83866423D01*
X103648099Y-83810000D01*
X103646037Y-83787558D01*
X104853150Y-83787558D01*
X104865292Y-83972805D01*
X104867093Y-83984175D01*
X104912789Y-84164107D01*
X104916631Y-84174956D01*
X104994358Y-84343557D01*
X105000105Y-84353511D01*
X105000902Y-84354640D01*
X105011490Y-84363027D01*
X105024791Y-84355999D01*
X105557978Y-83822812D01*
X105564356Y-83811132D01*
X106294408Y-83811132D01*
X106294539Y-83812965D01*
X106298790Y-83819580D01*
X106834518Y-84355308D01*
X106846898Y-84362068D01*
X106853478Y-84357142D01*
X106911611Y-84253339D01*
X106916292Y-84242826D01*
X106975967Y-84067029D01*
X106978652Y-84055846D01*
X107005587Y-83870071D01*
X107006217Y-83862689D01*
X107007500Y-83813704D01*
X107007257Y-83806305D01*
X106990082Y-83619378D01*
X106987985Y-83608064D01*
X106937591Y-83429383D01*
X106933469Y-83418644D01*
X106857954Y-83265515D01*
X106848407Y-83255138D01*
X106841974Y-83257236D01*
X106302022Y-83797188D01*
X106294408Y-83811132D01*
X105564356Y-83811132D01*
X105565592Y-83808868D01*
X105565461Y-83807035D01*
X105561210Y-83800420D01*
X105024459Y-83263669D01*
X105012079Y-83256909D01*
X105006113Y-83261375D01*
X104937122Y-83392505D01*
X104932717Y-83403139D01*
X104877664Y-83580438D01*
X104875272Y-83591692D01*
X104853451Y-83776057D01*
X104853150Y-83787558D01*
X103646037Y-83787558D01*
X103630046Y-83613532D01*
X103623887Y-83591692D01*
X103578060Y-83429203D01*
X103578059Y-83429201D01*
X103576492Y-83423644D01*
X103566381Y-83403139D01*
X103491786Y-83251876D01*
X103489231Y-83246695D01*
X103471407Y-83222825D01*
X103374637Y-83093235D01*
X103374636Y-83093234D01*
X103371184Y-83088611D01*
X103348764Y-83067886D01*
X103230546Y-82958607D01*
X103230544Y-82958605D01*
X103226305Y-82954687D01*
X103221422Y-82951606D01*
X103221418Y-82951603D01*
X103085844Y-82866062D01*
X103038905Y-82812795D01*
X103028216Y-82742608D01*
X103057171Y-82677784D01*
X103116575Y-82638904D01*
X103153079Y-82633500D01*
X105350547Y-82633500D01*
X105418668Y-82653502D01*
X105465161Y-82707158D01*
X105475265Y-82777432D01*
X105445771Y-82842012D01*
X105414970Y-82867785D01*
X105387922Y-82883877D01*
X105378323Y-82894211D01*
X105381810Y-82902600D01*
X105917188Y-83437978D01*
X105931132Y-83445592D01*
X105932965Y-83445461D01*
X105939580Y-83441210D01*
X106474905Y-82905885D01*
X106481665Y-82893505D01*
X106475635Y-82885450D01*
X106444907Y-82866062D01*
X106397968Y-82812795D01*
X106387279Y-82742608D01*
X106416233Y-82677784D01*
X106475638Y-82638904D01*
X106512142Y-82633500D01*
X106785406Y-82633500D01*
X106853527Y-82653502D01*
X106874501Y-82670405D01*
X107329595Y-83125499D01*
X107363621Y-83187811D01*
X107366500Y-83214594D01*
X107366500Y-95384057D01*
X107346498Y-95452178D01*
X107329595Y-95473152D01*
X106955092Y-95847655D01*
X106892780Y-95881681D01*
X106821965Y-95876616D01*
X106765040Y-95833949D01*
X106731184Y-95788611D01*
X106726948Y-95784695D01*
X106590546Y-95658607D01*
X106590544Y-95658605D01*
X106586305Y-95654687D01*
X106419447Y-95549407D01*
X106236197Y-95476297D01*
X106230529Y-95475170D01*
X106230527Y-95475169D01*
X106048360Y-95438934D01*
X106048356Y-95438934D01*
X106042692Y-95437807D01*
X106036917Y-95437731D01*
X106036913Y-95437731D01*
X105938267Y-95436440D01*
X105845413Y-95435224D01*
X105820838Y-95439447D01*
X105750315Y-95431271D01*
X105695407Y-95386264D01*
X105673500Y-95315267D01*
X105673500Y-95165375D01*
X105693502Y-95097254D01*
X105747158Y-95050761D01*
X105804447Y-95039472D01*
X105832349Y-95040568D01*
X105986423Y-95046622D01*
X106101789Y-95029894D01*
X106175955Y-95019141D01*
X106175959Y-95019140D01*
X106181677Y-95018311D01*
X106187149Y-95016453D01*
X106187151Y-95016453D01*
X106363038Y-94956747D01*
X106363040Y-94956746D01*
X106368502Y-94954892D01*
X106540642Y-94858490D01*
X106692331Y-94732331D01*
X106818490Y-94580642D01*
X106914892Y-94408502D01*
X106978311Y-94221677D01*
X107006622Y-94026423D01*
X107008099Y-93970000D01*
X106990046Y-93773532D01*
X106980684Y-93740334D01*
X106938060Y-93589203D01*
X106938059Y-93589201D01*
X106936492Y-93583644D01*
X106926286Y-93562947D01*
X106851786Y-93411876D01*
X106849231Y-93406695D01*
X106831407Y-93382825D01*
X106734637Y-93253235D01*
X106734636Y-93253234D01*
X106731184Y-93248611D01*
X106708764Y-93227886D01*
X106590546Y-93118607D01*
X106590544Y-93118605D01*
X106586305Y-93114687D01*
X106419447Y-93009407D01*
X106236197Y-92936297D01*
X106230529Y-92935170D01*
X106230527Y-92935169D01*
X106048360Y-92898934D01*
X106048356Y-92898934D01*
X106042692Y-92897807D01*
X106036917Y-92897731D01*
X106036913Y-92897731D01*
X105938267Y-92896440D01*
X105845413Y-92895224D01*
X105820838Y-92899447D01*
X105750315Y-92891271D01*
X105695407Y-92846264D01*
X105673500Y-92775267D01*
X105673500Y-92634595D01*
X105693502Y-92566474D01*
X105710410Y-92545495D01*
X105719282Y-92536624D01*
X105781596Y-92502602D01*
X105813319Y-92499821D01*
X105907790Y-92503532D01*
X105986423Y-92506622D01*
X106101789Y-92489894D01*
X106175955Y-92479141D01*
X106175959Y-92479140D01*
X106181677Y-92478311D01*
X106187149Y-92476453D01*
X106187151Y-92476453D01*
X106363038Y-92416747D01*
X106363040Y-92416746D01*
X106368502Y-92414892D01*
X106540642Y-92318490D01*
X106692331Y-92192331D01*
X106818490Y-92040642D01*
X106914892Y-91868502D01*
X106932595Y-91816353D01*
X106976453Y-91687151D01*
X106976453Y-91687149D01*
X106978311Y-91681677D01*
X107006622Y-91486423D01*
X107008099Y-91430000D01*
X106990046Y-91233532D01*
X106980684Y-91200334D01*
X106938060Y-91049203D01*
X106938059Y-91049201D01*
X106936492Y-91043644D01*
X106926286Y-91022947D01*
X106851786Y-90871876D01*
X106849231Y-90866695D01*
X106831407Y-90842825D01*
X106734637Y-90713235D01*
X106734636Y-90713234D01*
X106731184Y-90708611D01*
X106708764Y-90687886D01*
X106590546Y-90578607D01*
X106590544Y-90578605D01*
X106586305Y-90574687D01*
X106419447Y-90469407D01*
X106236197Y-90396297D01*
X106230529Y-90395170D01*
X106230527Y-90395169D01*
X106048360Y-90358934D01*
X106048356Y-90358934D01*
X106042692Y-90357807D01*
X106036917Y-90357731D01*
X106036913Y-90357731D01*
X105938267Y-90356440D01*
X105845413Y-90355224D01*
X105839716Y-90356203D01*
X105839715Y-90356203D01*
X105823822Y-90358934D01*
X105650967Y-90388636D01*
X105465866Y-90456924D01*
X105460905Y-90459876D01*
X105460904Y-90459876D01*
X105301277Y-90554844D01*
X105301274Y-90554846D01*
X105296309Y-90557800D01*
X105291969Y-90561606D01*
X105291965Y-90561609D01*
X105280566Y-90571606D01*
X105147975Y-90687886D01*
X105025830Y-90842825D01*
X105023141Y-90847936D01*
X105023139Y-90847939D01*
X105013271Y-90866695D01*
X104933966Y-91017429D01*
X104875460Y-91205851D01*
X104852270Y-91401779D01*
X104852648Y-91407545D01*
X104861457Y-91541937D01*
X104845954Y-91611220D01*
X104824822Y-91639274D01*
X104647742Y-91816353D01*
X104639463Y-91823887D01*
X104632982Y-91828000D01*
X104590222Y-91873535D01*
X104586357Y-91877651D01*
X104583602Y-91880493D01*
X104563865Y-91900230D01*
X104561385Y-91903427D01*
X104553682Y-91912447D01*
X104523414Y-91944679D01*
X104519595Y-91951625D01*
X104519593Y-91951628D01*
X104513652Y-91962434D01*
X104502801Y-91978953D01*
X104490386Y-91994959D01*
X104487241Y-92002228D01*
X104487238Y-92002232D01*
X104472826Y-92035537D01*
X104467609Y-92046187D01*
X104446305Y-92084940D01*
X104444334Y-92092615D01*
X104444334Y-92092616D01*
X104441267Y-92104562D01*
X104434863Y-92123266D01*
X104426819Y-92141855D01*
X104425580Y-92149678D01*
X104425577Y-92149688D01*
X104419901Y-92185524D01*
X104417495Y-92197144D01*
X104406500Y-92239970D01*
X104406500Y-92260224D01*
X104404949Y-92279934D01*
X104401780Y-92299943D01*
X104402526Y-92307835D01*
X104405941Y-92343961D01*
X104406500Y-92355819D01*
X104406500Y-97524055D01*
X104386498Y-97592176D01*
X104369595Y-97613151D01*
X103595091Y-98387654D01*
X103532779Y-98421679D01*
X103461963Y-98416614D01*
X103405038Y-98373947D01*
X103374637Y-98333235D01*
X103374636Y-98333234D01*
X103371184Y-98328611D01*
X103347243Y-98306480D01*
X103230546Y-98198607D01*
X103230544Y-98198605D01*
X103226305Y-98194687D01*
X103059447Y-98089407D01*
X102876197Y-98016297D01*
X102870529Y-98015170D01*
X102870527Y-98015169D01*
X102688360Y-97978934D01*
X102688356Y-97978934D01*
X102682692Y-97977807D01*
X102676917Y-97977731D01*
X102676913Y-97977731D01*
X102578267Y-97976440D01*
X102485413Y-97975224D01*
X102479716Y-97976203D01*
X102479715Y-97976203D01*
X102296664Y-98007657D01*
X102290967Y-98008636D01*
X102105866Y-98076924D01*
X102100905Y-98079876D01*
X102100904Y-98079876D01*
X101941277Y-98174844D01*
X101941274Y-98174846D01*
X101936309Y-98177800D01*
X101931969Y-98181606D01*
X101931965Y-98181609D01*
X101801100Y-98296376D01*
X101787975Y-98307886D01*
X101665830Y-98462825D01*
X101663141Y-98467936D01*
X101663139Y-98467939D01*
X101650545Y-98491876D01*
X101573966Y-98637429D01*
X101515460Y-98825851D01*
X101492270Y-99021779D01*
X101492648Y-99027545D01*
X101501457Y-99161937D01*
X101485954Y-99231220D01*
X101464818Y-99259278D01*
X101454495Y-99269600D01*
X101392181Y-99303622D01*
X101365404Y-99306500D01*
X95823199Y-99306500D01*
X95755078Y-99286498D01*
X95708585Y-99232842D01*
X95698503Y-99162420D01*
X95706089Y-99110096D01*
X95706622Y-99106423D01*
X95708099Y-99050000D01*
X95692885Y-98884431D01*
X95690575Y-98859286D01*
X95690574Y-98859283D01*
X95690046Y-98853532D01*
X95680684Y-98820334D01*
X95638060Y-98669203D01*
X95638059Y-98669201D01*
X95636492Y-98663644D01*
X95629106Y-98648665D01*
X95551786Y-98491876D01*
X95549231Y-98486695D01*
X95531407Y-98462825D01*
X95434637Y-98333235D01*
X95434636Y-98333234D01*
X95431184Y-98328611D01*
X95407243Y-98306480D01*
X95290546Y-98198607D01*
X95290544Y-98198605D01*
X95286305Y-98194687D01*
X95119447Y-98089407D01*
X94936197Y-98016297D01*
X94930529Y-98015170D01*
X94930527Y-98015169D01*
X94748360Y-97978934D01*
X94748356Y-97978934D01*
X94742692Y-97977807D01*
X94736917Y-97977731D01*
X94736913Y-97977731D01*
X94638267Y-97976440D01*
X94545413Y-97975224D01*
X94529253Y-97978001D01*
X94458731Y-97969825D01*
X94418821Y-97942916D01*
X94235883Y-97759978D01*
X94201857Y-97697666D01*
X94206922Y-97626851D01*
X94249469Y-97570015D01*
X94315989Y-97545204D01*
X94352784Y-97547990D01*
X94408928Y-97560694D01*
X94483644Y-97577601D01*
X94483647Y-97577601D01*
X94489280Y-97578876D01*
X94495051Y-97579103D01*
X94495053Y-97579103D01*
X94554054Y-97581421D01*
X94686423Y-97586622D01*
X94801789Y-97569894D01*
X94875955Y-97559141D01*
X94875959Y-97559140D01*
X94881677Y-97558311D01*
X94887149Y-97556453D01*
X94887151Y-97556453D01*
X95063038Y-97496747D01*
X95063040Y-97496746D01*
X95068502Y-97494892D01*
X95191333Y-97426104D01*
X95191413Y-97426059D01*
X102018302Y-97426059D01*
X102028184Y-97438548D01*
X102051009Y-97453799D01*
X102061123Y-97459291D01*
X102231697Y-97532576D01*
X102242640Y-97536131D01*
X102423708Y-97577103D01*
X102435118Y-97578605D01*
X102620629Y-97585893D01*
X102632111Y-97585291D01*
X102815846Y-97558652D01*
X102827029Y-97555967D01*
X103002826Y-97496292D01*
X103013339Y-97491611D01*
X103112313Y-97436182D01*
X103122178Y-97426104D01*
X103119222Y-97418432D01*
X102582812Y-96882022D01*
X102568868Y-96874408D01*
X102567035Y-96874539D01*
X102560420Y-96878790D01*
X102024498Y-97414712D01*
X102018302Y-97426059D01*
X95191413Y-97426059D01*
X95235605Y-97401311D01*
X95235606Y-97401310D01*
X95240642Y-97398490D01*
X95392331Y-97272331D01*
X95518490Y-97120642D01*
X95614892Y-96948502D01*
X95643541Y-96864107D01*
X95676453Y-96767151D01*
X95676453Y-96767149D01*
X95678311Y-96761677D01*
X95679157Y-96755846D01*
X95706089Y-96570096D01*
X95706622Y-96566423D01*
X95708099Y-96510000D01*
X95706037Y-96487558D01*
X101493150Y-96487558D01*
X101505292Y-96672805D01*
X101507093Y-96684175D01*
X101552789Y-96864107D01*
X101556631Y-96874956D01*
X101634358Y-97043557D01*
X101640105Y-97053511D01*
X101640902Y-97054640D01*
X101651490Y-97063027D01*
X101664791Y-97055999D01*
X102197978Y-96522812D01*
X102204356Y-96511132D01*
X102934408Y-96511132D01*
X102934539Y-96512965D01*
X102938790Y-96519580D01*
X103474518Y-97055308D01*
X103486898Y-97062068D01*
X103493478Y-97057142D01*
X103551611Y-96953339D01*
X103556292Y-96942826D01*
X103615967Y-96767029D01*
X103618652Y-96755846D01*
X103645587Y-96570071D01*
X103646217Y-96562689D01*
X103647500Y-96513704D01*
X103647257Y-96506305D01*
X103630082Y-96319378D01*
X103627985Y-96308064D01*
X103577591Y-96129383D01*
X103573469Y-96118644D01*
X103497954Y-95965515D01*
X103488407Y-95955138D01*
X103481974Y-95957236D01*
X102942022Y-96497188D01*
X102934408Y-96511132D01*
X102204356Y-96511132D01*
X102205592Y-96508868D01*
X102205461Y-96507035D01*
X102201210Y-96500420D01*
X101664459Y-95963669D01*
X101652079Y-95956909D01*
X101646113Y-95961375D01*
X101577122Y-96092505D01*
X101572717Y-96103139D01*
X101517664Y-96280438D01*
X101515272Y-96291692D01*
X101493451Y-96476057D01*
X101493150Y-96487558D01*
X95706037Y-96487558D01*
X95693398Y-96350011D01*
X95690575Y-96319286D01*
X95690574Y-96319283D01*
X95690046Y-96313532D01*
X95688304Y-96307353D01*
X95638060Y-96129203D01*
X95638059Y-96129201D01*
X95636492Y-96123644D01*
X95632345Y-96115233D01*
X95551786Y-95951876D01*
X95549231Y-95946695D01*
X95531407Y-95922825D01*
X95434637Y-95793235D01*
X95434635Y-95793233D01*
X95431184Y-95788611D01*
X95426948Y-95784695D01*
X95290546Y-95658607D01*
X95290544Y-95658605D01*
X95286305Y-95654687D01*
X95190457Y-95594211D01*
X102018323Y-95594211D01*
X102021810Y-95602600D01*
X102557188Y-96137978D01*
X102571132Y-96145592D01*
X102572965Y-96145461D01*
X102579580Y-96141210D01*
X103114905Y-95605885D01*
X103121665Y-95593505D01*
X103115635Y-95585450D01*
X103064102Y-95552935D01*
X103053855Y-95547714D01*
X102881423Y-95478921D01*
X102870386Y-95475652D01*
X102688306Y-95439433D01*
X102676861Y-95438230D01*
X102491235Y-95435801D01*
X102479755Y-95436704D01*
X102296794Y-95468142D01*
X102285674Y-95471122D01*
X102111498Y-95535379D01*
X102101124Y-95540327D01*
X102027921Y-95583878D01*
X102018323Y-95594211D01*
X95190457Y-95594211D01*
X95119447Y-95549407D01*
X94936197Y-95476297D01*
X94930529Y-95475170D01*
X94930527Y-95475169D01*
X94748360Y-95438934D01*
X94748356Y-95438934D01*
X94742692Y-95437807D01*
X94736917Y-95437731D01*
X94736913Y-95437731D01*
X94638267Y-95436440D01*
X94545413Y-95435224D01*
X94539716Y-95436203D01*
X94539715Y-95436203D01*
X94356664Y-95467657D01*
X94350967Y-95468636D01*
X94165866Y-95536924D01*
X94160905Y-95539876D01*
X94160904Y-95539876D01*
X94001277Y-95634844D01*
X94001274Y-95634846D01*
X93996309Y-95637800D01*
X93991969Y-95641606D01*
X93991965Y-95641609D01*
X93913049Y-95710817D01*
X93847975Y-95767886D01*
X93844399Y-95772422D01*
X93841446Y-95776168D01*
X93725830Y-95922825D01*
X93723141Y-95927936D01*
X93723139Y-95927939D01*
X93643266Y-96079753D01*
X93633966Y-96097429D01*
X93633128Y-96096988D01*
X93591850Y-96148202D01*
X93524485Y-96170616D01*
X93455695Y-96153052D01*
X93411545Y-96108835D01*
X93408177Y-96103139D01*
X93375290Y-96047530D01*
X93361540Y-96024279D01*
X93361537Y-96024275D01*
X93357506Y-96017459D01*
X93242541Y-95902494D01*
X93115332Y-95827263D01*
X93109419Y-95823766D01*
X93109418Y-95823766D01*
X93102596Y-95819731D01*
X93094985Y-95817520D01*
X93094983Y-95817519D01*
X92964726Y-95779676D01*
X92946466Y-95774371D01*
X92940059Y-95773867D01*
X92940055Y-95773866D01*
X92912444Y-95771693D01*
X92912438Y-95771693D01*
X92909989Y-95771500D01*
X92710122Y-95771500D01*
X92510012Y-95771501D01*
X92473534Y-95774371D01*
X92376730Y-95802495D01*
X92325017Y-95817519D01*
X92325015Y-95817520D01*
X92317404Y-95819731D01*
X92263647Y-95851523D01*
X92194834Y-95868982D01*
X92135370Y-95851522D01*
X92089220Y-95824229D01*
X92074783Y-95817981D01*
X91961395Y-95785039D01*
X91947295Y-95785079D01*
X91944000Y-95792349D01*
X91944000Y-96262458D01*
X91938997Y-96297610D01*
X91936166Y-96307353D01*
X91936165Y-96307360D01*
X91934371Y-96313534D01*
X91931500Y-96350011D01*
X91931501Y-96570096D01*
X91931501Y-96728000D01*
X91911499Y-96796120D01*
X91857844Y-96842613D01*
X91805501Y-96854000D01*
X91562000Y-96854000D01*
X91493879Y-96833998D01*
X91447386Y-96780342D01*
X91436000Y-96728000D01*
X91436000Y-95798100D01*
X91431525Y-95782861D01*
X91427850Y-95779676D01*
X91376987Y-95756448D01*
X91338604Y-95696722D01*
X91333500Y-95661224D01*
X91333500Y-93941779D01*
X93552270Y-93941779D01*
X93565174Y-94138652D01*
X93613739Y-94329877D01*
X93696339Y-94509049D01*
X93810207Y-94670169D01*
X93951530Y-94807840D01*
X93956326Y-94811045D01*
X93956329Y-94811047D01*
X94021809Y-94854799D01*
X94115576Y-94917452D01*
X94120879Y-94919730D01*
X94120882Y-94919732D01*
X94291542Y-94993053D01*
X94296849Y-94995333D01*
X94373498Y-95012677D01*
X94483644Y-95037601D01*
X94483647Y-95037601D01*
X94489280Y-95038876D01*
X94495051Y-95039103D01*
X94495053Y-95039103D01*
X94554054Y-95041421D01*
X94686423Y-95046622D01*
X94801789Y-95029894D01*
X94875955Y-95019141D01*
X94875959Y-95019140D01*
X94881677Y-95018311D01*
X94887149Y-95016453D01*
X94887151Y-95016453D01*
X95063038Y-94956747D01*
X95063040Y-94956746D01*
X95068502Y-94954892D01*
X95240642Y-94858490D01*
X95392331Y-94732331D01*
X95518490Y-94580642D01*
X95614892Y-94408502D01*
X95678311Y-94221677D01*
X95706622Y-94026423D01*
X95708099Y-93970000D01*
X95705506Y-93941779D01*
X101492270Y-93941779D01*
X101505174Y-94138652D01*
X101553739Y-94329877D01*
X101636339Y-94509049D01*
X101750207Y-94670169D01*
X101891530Y-94807840D01*
X101896326Y-94811045D01*
X101896329Y-94811047D01*
X101961809Y-94854799D01*
X102055576Y-94917452D01*
X102060879Y-94919730D01*
X102060882Y-94919732D01*
X102231542Y-94993053D01*
X102236849Y-94995333D01*
X102313498Y-95012677D01*
X102423644Y-95037601D01*
X102423647Y-95037601D01*
X102429280Y-95038876D01*
X102435051Y-95039103D01*
X102435053Y-95039103D01*
X102494054Y-95041421D01*
X102626423Y-95046622D01*
X102741789Y-95029894D01*
X102815955Y-95019141D01*
X102815959Y-95019140D01*
X102821677Y-95018311D01*
X102827149Y-95016453D01*
X102827151Y-95016453D01*
X103003038Y-94956747D01*
X103003040Y-94956746D01*
X103008502Y-94954892D01*
X103180642Y-94858490D01*
X103332331Y-94732331D01*
X103458490Y-94580642D01*
X103554892Y-94408502D01*
X103618311Y-94221677D01*
X103646622Y-94026423D01*
X103648099Y-93970000D01*
X103630046Y-93773532D01*
X103620684Y-93740334D01*
X103578060Y-93589203D01*
X103578059Y-93589201D01*
X103576492Y-93583644D01*
X103566286Y-93562947D01*
X103491786Y-93411876D01*
X103489231Y-93406695D01*
X103471407Y-93382825D01*
X103374637Y-93253235D01*
X103374636Y-93253234D01*
X103371184Y-93248611D01*
X103348764Y-93227886D01*
X103230546Y-93118607D01*
X103230544Y-93118605D01*
X103226305Y-93114687D01*
X103059447Y-93009407D01*
X102876197Y-92936297D01*
X102870529Y-92935170D01*
X102870527Y-92935169D01*
X102688360Y-92898934D01*
X102688356Y-92898934D01*
X102682692Y-92897807D01*
X102676917Y-92897731D01*
X102676913Y-92897731D01*
X102578267Y-92896440D01*
X102485413Y-92895224D01*
X102479716Y-92896203D01*
X102479715Y-92896203D01*
X102296664Y-92927657D01*
X102290967Y-92928636D01*
X102105866Y-92996924D01*
X102100905Y-92999876D01*
X102100904Y-92999876D01*
X101941277Y-93094844D01*
X101941274Y-93094846D01*
X101936309Y-93097800D01*
X101931969Y-93101606D01*
X101931965Y-93101609D01*
X101920566Y-93111606D01*
X101787975Y-93227886D01*
X101665830Y-93382825D01*
X101663141Y-93387936D01*
X101663139Y-93387939D01*
X101653271Y-93406695D01*
X101573966Y-93557429D01*
X101515460Y-93745851D01*
X101492270Y-93941779D01*
X95705506Y-93941779D01*
X95690046Y-93773532D01*
X95680684Y-93740334D01*
X95638060Y-93589203D01*
X95638059Y-93589201D01*
X95636492Y-93583644D01*
X95626286Y-93562947D01*
X95551786Y-93411876D01*
X95549231Y-93406695D01*
X95531407Y-93382825D01*
X95434637Y-93253235D01*
X95434636Y-93253234D01*
X95431184Y-93248611D01*
X95408764Y-93227886D01*
X95290546Y-93118607D01*
X95290544Y-93118605D01*
X95286305Y-93114687D01*
X95119447Y-93009407D01*
X94936197Y-92936297D01*
X94930529Y-92935170D01*
X94930527Y-92935169D01*
X94748360Y-92898934D01*
X94748356Y-92898934D01*
X94742692Y-92897807D01*
X94736917Y-92897731D01*
X94736913Y-92897731D01*
X94638267Y-92896440D01*
X94545413Y-92895224D01*
X94539716Y-92896203D01*
X94539715Y-92896203D01*
X94356664Y-92927657D01*
X94350967Y-92928636D01*
X94165866Y-92996924D01*
X94160905Y-92999876D01*
X94160904Y-92999876D01*
X94001277Y-93094844D01*
X94001274Y-93094846D01*
X93996309Y-93097800D01*
X93991969Y-93101606D01*
X93991965Y-93101609D01*
X93980566Y-93111606D01*
X93847975Y-93227886D01*
X93725830Y-93382825D01*
X93723141Y-93387936D01*
X93723139Y-93387939D01*
X93713271Y-93406695D01*
X93633966Y-93557429D01*
X93575460Y-93745851D01*
X93552270Y-93941779D01*
X91333500Y-93941779D01*
X91333500Y-91401779D01*
X93552270Y-91401779D01*
X93565174Y-91598652D01*
X93613739Y-91789877D01*
X93696339Y-91969049D01*
X93810207Y-92130169D01*
X93951530Y-92267840D01*
X93956326Y-92271045D01*
X93956329Y-92271047D01*
X94021809Y-92314799D01*
X94115576Y-92377452D01*
X94120879Y-92379730D01*
X94120882Y-92379732D01*
X94291542Y-92453053D01*
X94296849Y-92455333D01*
X94390185Y-92476453D01*
X94483644Y-92497601D01*
X94483647Y-92497601D01*
X94489280Y-92498876D01*
X94495051Y-92499103D01*
X94495053Y-92499103D01*
X94554054Y-92501421D01*
X94686423Y-92506622D01*
X94801789Y-92489894D01*
X94875955Y-92479141D01*
X94875959Y-92479140D01*
X94881677Y-92478311D01*
X94887149Y-92476453D01*
X94887151Y-92476453D01*
X95063038Y-92416747D01*
X95063040Y-92416746D01*
X95068502Y-92414892D01*
X95240642Y-92318490D01*
X95392331Y-92192331D01*
X95518490Y-92040642D01*
X95614892Y-91868502D01*
X95632595Y-91816353D01*
X95676453Y-91687151D01*
X95676453Y-91687149D01*
X95678311Y-91681677D01*
X95706622Y-91486423D01*
X95708099Y-91430000D01*
X95705506Y-91401779D01*
X101492270Y-91401779D01*
X101505174Y-91598652D01*
X101553739Y-91789877D01*
X101636339Y-91969049D01*
X101750207Y-92130169D01*
X101891530Y-92267840D01*
X101896326Y-92271045D01*
X101896329Y-92271047D01*
X101961809Y-92314799D01*
X102055576Y-92377452D01*
X102060879Y-92379730D01*
X102060882Y-92379732D01*
X102231542Y-92453053D01*
X102236849Y-92455333D01*
X102330185Y-92476453D01*
X102423644Y-92497601D01*
X102423647Y-92497601D01*
X102429280Y-92498876D01*
X102435051Y-92499103D01*
X102435053Y-92499103D01*
X102494054Y-92501421D01*
X102626423Y-92506622D01*
X102741789Y-92489894D01*
X102815955Y-92479141D01*
X102815959Y-92479140D01*
X102821677Y-92478311D01*
X102827149Y-92476453D01*
X102827151Y-92476453D01*
X103003038Y-92416747D01*
X103003040Y-92416746D01*
X103008502Y-92414892D01*
X103180642Y-92318490D01*
X103332331Y-92192331D01*
X103458490Y-92040642D01*
X103554892Y-91868502D01*
X103572595Y-91816353D01*
X103616453Y-91687151D01*
X103616453Y-91687149D01*
X103618311Y-91681677D01*
X103646622Y-91486423D01*
X103648099Y-91430000D01*
X103630046Y-91233532D01*
X103620684Y-91200334D01*
X103578060Y-91049203D01*
X103578059Y-91049201D01*
X103576492Y-91043644D01*
X103566286Y-91022947D01*
X103491786Y-90871876D01*
X103489231Y-90866695D01*
X103471407Y-90842825D01*
X103374637Y-90713235D01*
X103374636Y-90713234D01*
X103371184Y-90708611D01*
X103348764Y-90687886D01*
X103230546Y-90578607D01*
X103230544Y-90578605D01*
X103226305Y-90574687D01*
X103059447Y-90469407D01*
X102876197Y-90396297D01*
X102870529Y-90395170D01*
X102870527Y-90395169D01*
X102688360Y-90358934D01*
X102688356Y-90358934D01*
X102682692Y-90357807D01*
X102676917Y-90357731D01*
X102676913Y-90357731D01*
X102578267Y-90356440D01*
X102485413Y-90355224D01*
X102479716Y-90356203D01*
X102479715Y-90356203D01*
X102463822Y-90358934D01*
X102290967Y-90388636D01*
X102105866Y-90456924D01*
X102100905Y-90459876D01*
X102100904Y-90459876D01*
X101941277Y-90554844D01*
X101941274Y-90554846D01*
X101936309Y-90557800D01*
X101931969Y-90561606D01*
X101931965Y-90561609D01*
X101920566Y-90571606D01*
X101787975Y-90687886D01*
X101665830Y-90842825D01*
X101663141Y-90847936D01*
X101663139Y-90847939D01*
X101653271Y-90866695D01*
X101573966Y-91017429D01*
X101515460Y-91205851D01*
X101492270Y-91401779D01*
X95705506Y-91401779D01*
X95690046Y-91233532D01*
X95680684Y-91200334D01*
X95638060Y-91049203D01*
X95638059Y-91049201D01*
X95636492Y-91043644D01*
X95626286Y-91022947D01*
X95551786Y-90871876D01*
X95549231Y-90866695D01*
X95531407Y-90842825D01*
X95434637Y-90713235D01*
X95434636Y-90713234D01*
X95431184Y-90708611D01*
X95408764Y-90687886D01*
X95290546Y-90578607D01*
X95290544Y-90578605D01*
X95286305Y-90574687D01*
X95119447Y-90469407D01*
X94936197Y-90396297D01*
X94930529Y-90395170D01*
X94930527Y-90395169D01*
X94748360Y-90358934D01*
X94748356Y-90358934D01*
X94742692Y-90357807D01*
X94736917Y-90357731D01*
X94736913Y-90357731D01*
X94638267Y-90356440D01*
X94545413Y-90355224D01*
X94539716Y-90356203D01*
X94539715Y-90356203D01*
X94523822Y-90358934D01*
X94350967Y-90388636D01*
X94165866Y-90456924D01*
X94160905Y-90459876D01*
X94160904Y-90459876D01*
X94001277Y-90554844D01*
X94001274Y-90554846D01*
X93996309Y-90557800D01*
X93991969Y-90561606D01*
X93991965Y-90561609D01*
X93980566Y-90571606D01*
X93847975Y-90687886D01*
X93725830Y-90842825D01*
X93723141Y-90847936D01*
X93723139Y-90847939D01*
X93713271Y-90866695D01*
X93633966Y-91017429D01*
X93575460Y-91205851D01*
X93552270Y-91401779D01*
X91333500Y-91401779D01*
X91333500Y-88861779D01*
X93552270Y-88861779D01*
X93565174Y-89058652D01*
X93613739Y-89249877D01*
X93696339Y-89429049D01*
X93810207Y-89590169D01*
X93951530Y-89727840D01*
X93956326Y-89731045D01*
X93956329Y-89731047D01*
X94021809Y-89774799D01*
X94115576Y-89837452D01*
X94120879Y-89839730D01*
X94120882Y-89839732D01*
X94291542Y-89913053D01*
X94296849Y-89915333D01*
X94390185Y-89936453D01*
X94483644Y-89957601D01*
X94483647Y-89957601D01*
X94489280Y-89958876D01*
X94495051Y-89959103D01*
X94495053Y-89959103D01*
X94554054Y-89961421D01*
X94686423Y-89966622D01*
X94801789Y-89949894D01*
X94875955Y-89939141D01*
X94875959Y-89939140D01*
X94881677Y-89938311D01*
X94887149Y-89936453D01*
X94887151Y-89936453D01*
X95063038Y-89876747D01*
X95063040Y-89876746D01*
X95068502Y-89874892D01*
X95240642Y-89778490D01*
X95392331Y-89652331D01*
X95518490Y-89500642D01*
X95614892Y-89328502D01*
X95678311Y-89141677D01*
X95706622Y-88946423D01*
X95708099Y-88890000D01*
X95705506Y-88861779D01*
X101492270Y-88861779D01*
X101505174Y-89058652D01*
X101553739Y-89249877D01*
X101636339Y-89429049D01*
X101750207Y-89590169D01*
X101891530Y-89727840D01*
X101896326Y-89731045D01*
X101896329Y-89731047D01*
X101961809Y-89774799D01*
X102055576Y-89837452D01*
X102060879Y-89839730D01*
X102060882Y-89839732D01*
X102231542Y-89913053D01*
X102236849Y-89915333D01*
X102330185Y-89936453D01*
X102423644Y-89957601D01*
X102423647Y-89957601D01*
X102429280Y-89958876D01*
X102435051Y-89959103D01*
X102435053Y-89959103D01*
X102494054Y-89961421D01*
X102626423Y-89966622D01*
X102741789Y-89949894D01*
X102815955Y-89939141D01*
X102815959Y-89939140D01*
X102821677Y-89938311D01*
X102827149Y-89936453D01*
X102827151Y-89936453D01*
X103003038Y-89876747D01*
X103003040Y-89876746D01*
X103008502Y-89874892D01*
X103180642Y-89778490D01*
X103332331Y-89652331D01*
X103458490Y-89500642D01*
X103554892Y-89328502D01*
X103618311Y-89141677D01*
X103646622Y-88946423D01*
X103648099Y-88890000D01*
X103645506Y-88861779D01*
X104852270Y-88861779D01*
X104865174Y-89058652D01*
X104913739Y-89249877D01*
X104996339Y-89429049D01*
X105110207Y-89590169D01*
X105251530Y-89727840D01*
X105256326Y-89731045D01*
X105256329Y-89731047D01*
X105321809Y-89774799D01*
X105415576Y-89837452D01*
X105420879Y-89839730D01*
X105420882Y-89839732D01*
X105591542Y-89913053D01*
X105596849Y-89915333D01*
X105690185Y-89936453D01*
X105783644Y-89957601D01*
X105783647Y-89957601D01*
X105789280Y-89958876D01*
X105795051Y-89959103D01*
X105795053Y-89959103D01*
X105854054Y-89961421D01*
X105986423Y-89966622D01*
X106101789Y-89949894D01*
X106175955Y-89939141D01*
X106175959Y-89939140D01*
X106181677Y-89938311D01*
X106187149Y-89936453D01*
X106187151Y-89936453D01*
X106363038Y-89876747D01*
X106363040Y-89876746D01*
X106368502Y-89874892D01*
X106540642Y-89778490D01*
X106692331Y-89652331D01*
X106818490Y-89500642D01*
X106914892Y-89328502D01*
X106978311Y-89141677D01*
X107006622Y-88946423D01*
X107008099Y-88890000D01*
X106990046Y-88693532D01*
X106980684Y-88660334D01*
X106938060Y-88509203D01*
X106938059Y-88509201D01*
X106936492Y-88503644D01*
X106926286Y-88482947D01*
X106851786Y-88331876D01*
X106849231Y-88326695D01*
X106831407Y-88302825D01*
X106734637Y-88173235D01*
X106734636Y-88173234D01*
X106731184Y-88168611D01*
X106708764Y-88147886D01*
X106590546Y-88038607D01*
X106590544Y-88038605D01*
X106586305Y-88034687D01*
X106419447Y-87929407D01*
X106236197Y-87856297D01*
X106230529Y-87855170D01*
X106230527Y-87855169D01*
X106048360Y-87818934D01*
X106048356Y-87818934D01*
X106042692Y-87817807D01*
X106036917Y-87817731D01*
X106036913Y-87817731D01*
X105938267Y-87816440D01*
X105845413Y-87815224D01*
X105839716Y-87816203D01*
X105839715Y-87816203D01*
X105823822Y-87818934D01*
X105650967Y-87848636D01*
X105465866Y-87916924D01*
X105460905Y-87919876D01*
X105460904Y-87919876D01*
X105301277Y-88014844D01*
X105301274Y-88014846D01*
X105296309Y-88017800D01*
X105291969Y-88021606D01*
X105291965Y-88021609D01*
X105280566Y-88031606D01*
X105147975Y-88147886D01*
X105025830Y-88302825D01*
X105023141Y-88307936D01*
X105023139Y-88307939D01*
X105013271Y-88326695D01*
X104933966Y-88477429D01*
X104875460Y-88665851D01*
X104852270Y-88861779D01*
X103645506Y-88861779D01*
X103630046Y-88693532D01*
X103620684Y-88660334D01*
X103578060Y-88509203D01*
X103578059Y-88509201D01*
X103576492Y-88503644D01*
X103566286Y-88482947D01*
X103491786Y-88331876D01*
X103489231Y-88326695D01*
X103471407Y-88302825D01*
X103374637Y-88173235D01*
X103374636Y-88173234D01*
X103371184Y-88168611D01*
X103348764Y-88147886D01*
X103230546Y-88038607D01*
X103230544Y-88038605D01*
X103226305Y-88034687D01*
X103059447Y-87929407D01*
X102876197Y-87856297D01*
X102870529Y-87855170D01*
X102870527Y-87855169D01*
X102688360Y-87818934D01*
X102688356Y-87818934D01*
X102682692Y-87817807D01*
X102676917Y-87817731D01*
X102676913Y-87817731D01*
X102578267Y-87816440D01*
X102485413Y-87815224D01*
X102479716Y-87816203D01*
X102479715Y-87816203D01*
X102463822Y-87818934D01*
X102290967Y-87848636D01*
X102105866Y-87916924D01*
X102100905Y-87919876D01*
X102100904Y-87919876D01*
X101941277Y-88014844D01*
X101941274Y-88014846D01*
X101936309Y-88017800D01*
X101931969Y-88021606D01*
X101931965Y-88021609D01*
X101920566Y-88031606D01*
X101787975Y-88147886D01*
X101665830Y-88302825D01*
X101663141Y-88307936D01*
X101663139Y-88307939D01*
X101653271Y-88326695D01*
X101573966Y-88477429D01*
X101515460Y-88665851D01*
X101492270Y-88861779D01*
X95705506Y-88861779D01*
X95690046Y-88693532D01*
X95680684Y-88660334D01*
X95638060Y-88509203D01*
X95638059Y-88509201D01*
X95636492Y-88503644D01*
X95626286Y-88482947D01*
X95551786Y-88331876D01*
X95549231Y-88326695D01*
X95531407Y-88302825D01*
X95434637Y-88173235D01*
X95434636Y-88173234D01*
X95431184Y-88168611D01*
X95408764Y-88147886D01*
X95290546Y-88038607D01*
X95290544Y-88038605D01*
X95286305Y-88034687D01*
X95119447Y-87929407D01*
X94936197Y-87856297D01*
X94930529Y-87855170D01*
X94930527Y-87855169D01*
X94748360Y-87818934D01*
X94748356Y-87818934D01*
X94742692Y-87817807D01*
X94736917Y-87817731D01*
X94736913Y-87817731D01*
X94638267Y-87816440D01*
X94545413Y-87815224D01*
X94539716Y-87816203D01*
X94539715Y-87816203D01*
X94523822Y-87818934D01*
X94350967Y-87848636D01*
X94165866Y-87916924D01*
X94160905Y-87919876D01*
X94160904Y-87919876D01*
X94001277Y-88014844D01*
X94001274Y-88014846D01*
X93996309Y-88017800D01*
X93991969Y-88021606D01*
X93991965Y-88021609D01*
X93980566Y-88031606D01*
X93847975Y-88147886D01*
X93725830Y-88302825D01*
X93723141Y-88307936D01*
X93723139Y-88307939D01*
X93713271Y-88326695D01*
X93633966Y-88477429D01*
X93575460Y-88665851D01*
X93552270Y-88861779D01*
X91333500Y-88861779D01*
X91333500Y-86321779D01*
X93552270Y-86321779D01*
X93565174Y-86518652D01*
X93613739Y-86709877D01*
X93696339Y-86889049D01*
X93810207Y-87050169D01*
X93951530Y-87187840D01*
X93956326Y-87191045D01*
X93956329Y-87191047D01*
X94021809Y-87234799D01*
X94115576Y-87297452D01*
X94120879Y-87299730D01*
X94120882Y-87299732D01*
X94291542Y-87373053D01*
X94296849Y-87375333D01*
X94390185Y-87396453D01*
X94483644Y-87417601D01*
X94483647Y-87417601D01*
X94489280Y-87418876D01*
X94495051Y-87419103D01*
X94495053Y-87419103D01*
X94554054Y-87421421D01*
X94686423Y-87426622D01*
X94801789Y-87409894D01*
X94875955Y-87399141D01*
X94875959Y-87399140D01*
X94881677Y-87398311D01*
X94887149Y-87396453D01*
X94887151Y-87396453D01*
X95063038Y-87336747D01*
X95063040Y-87336746D01*
X95068502Y-87334892D01*
X95240642Y-87238490D01*
X95392331Y-87112331D01*
X95518490Y-86960642D01*
X95614892Y-86788502D01*
X95678311Y-86601677D01*
X95706622Y-86406423D01*
X95708099Y-86350000D01*
X95705506Y-86321779D01*
X101492270Y-86321779D01*
X101505174Y-86518652D01*
X101553739Y-86709877D01*
X101636339Y-86889049D01*
X101750207Y-87050169D01*
X101891530Y-87187840D01*
X101896326Y-87191045D01*
X101896329Y-87191047D01*
X101961809Y-87234799D01*
X102055576Y-87297452D01*
X102060879Y-87299730D01*
X102060882Y-87299732D01*
X102231542Y-87373053D01*
X102236849Y-87375333D01*
X102330185Y-87396453D01*
X102423644Y-87417601D01*
X102423647Y-87417601D01*
X102429280Y-87418876D01*
X102435051Y-87419103D01*
X102435053Y-87419103D01*
X102494054Y-87421421D01*
X102626423Y-87426622D01*
X102741789Y-87409894D01*
X102815955Y-87399141D01*
X102815959Y-87399140D01*
X102821677Y-87398311D01*
X102827149Y-87396453D01*
X102827151Y-87396453D01*
X103003038Y-87336747D01*
X103003040Y-87336746D01*
X103008502Y-87334892D01*
X103180642Y-87238490D01*
X103332331Y-87112331D01*
X103458490Y-86960642D01*
X103554892Y-86788502D01*
X103618311Y-86601677D01*
X103646622Y-86406423D01*
X103648099Y-86350000D01*
X103645506Y-86321779D01*
X104852270Y-86321779D01*
X104865174Y-86518652D01*
X104913739Y-86709877D01*
X104996339Y-86889049D01*
X105110207Y-87050169D01*
X105251530Y-87187840D01*
X105256326Y-87191045D01*
X105256329Y-87191047D01*
X105321809Y-87234799D01*
X105415576Y-87297452D01*
X105420879Y-87299730D01*
X105420882Y-87299732D01*
X105591542Y-87373053D01*
X105596849Y-87375333D01*
X105690185Y-87396453D01*
X105783644Y-87417601D01*
X105783647Y-87417601D01*
X105789280Y-87418876D01*
X105795051Y-87419103D01*
X105795053Y-87419103D01*
X105854054Y-87421421D01*
X105986423Y-87426622D01*
X106101789Y-87409894D01*
X106175955Y-87399141D01*
X106175959Y-87399140D01*
X106181677Y-87398311D01*
X106187149Y-87396453D01*
X106187151Y-87396453D01*
X106363038Y-87336747D01*
X106363040Y-87336746D01*
X106368502Y-87334892D01*
X106540642Y-87238490D01*
X106692331Y-87112331D01*
X106818490Y-86960642D01*
X106914892Y-86788502D01*
X106978311Y-86601677D01*
X107006622Y-86406423D01*
X107008099Y-86350000D01*
X106990046Y-86153532D01*
X106980684Y-86120334D01*
X106938060Y-85969203D01*
X106938059Y-85969201D01*
X106936492Y-85963644D01*
X106926286Y-85942947D01*
X106851786Y-85791876D01*
X106849231Y-85786695D01*
X106831407Y-85762825D01*
X106734637Y-85633235D01*
X106734636Y-85633234D01*
X106731184Y-85628611D01*
X106708764Y-85607886D01*
X106590546Y-85498607D01*
X106590544Y-85498605D01*
X106586305Y-85494687D01*
X106419447Y-85389407D01*
X106236197Y-85316297D01*
X106230529Y-85315170D01*
X106230527Y-85315169D01*
X106048360Y-85278934D01*
X106048356Y-85278934D01*
X106042692Y-85277807D01*
X106036917Y-85277731D01*
X106036913Y-85277731D01*
X105938267Y-85276440D01*
X105845413Y-85275224D01*
X105839716Y-85276203D01*
X105839715Y-85276203D01*
X105823822Y-85278934D01*
X105650967Y-85308636D01*
X105465866Y-85376924D01*
X105460905Y-85379876D01*
X105460904Y-85379876D01*
X105301277Y-85474844D01*
X105301274Y-85474846D01*
X105296309Y-85477800D01*
X105291969Y-85481606D01*
X105291965Y-85481609D01*
X105280566Y-85491606D01*
X105147975Y-85607886D01*
X105025830Y-85762825D01*
X105023141Y-85767936D01*
X105023139Y-85767939D01*
X105013271Y-85786695D01*
X104933966Y-85937429D01*
X104875460Y-86125851D01*
X104852270Y-86321779D01*
X103645506Y-86321779D01*
X103630046Y-86153532D01*
X103620684Y-86120334D01*
X103578060Y-85969203D01*
X103578059Y-85969201D01*
X103576492Y-85963644D01*
X103566286Y-85942947D01*
X103491786Y-85791876D01*
X103489231Y-85786695D01*
X103471407Y-85762825D01*
X103374637Y-85633235D01*
X103374636Y-85633234D01*
X103371184Y-85628611D01*
X103348764Y-85607886D01*
X103230546Y-85498607D01*
X103230544Y-85498605D01*
X103226305Y-85494687D01*
X103059447Y-85389407D01*
X102876197Y-85316297D01*
X102870529Y-85315170D01*
X102870527Y-85315169D01*
X102688360Y-85278934D01*
X102688356Y-85278934D01*
X102682692Y-85277807D01*
X102676917Y-85277731D01*
X102676913Y-85277731D01*
X102578267Y-85276440D01*
X102485413Y-85275224D01*
X102479716Y-85276203D01*
X102479715Y-85276203D01*
X102463822Y-85278934D01*
X102290967Y-85308636D01*
X102105866Y-85376924D01*
X102100905Y-85379876D01*
X102100904Y-85379876D01*
X101941277Y-85474844D01*
X101941274Y-85474846D01*
X101936309Y-85477800D01*
X101931969Y-85481606D01*
X101931965Y-85481609D01*
X101920566Y-85491606D01*
X101787975Y-85607886D01*
X101665830Y-85762825D01*
X101663141Y-85767936D01*
X101663139Y-85767939D01*
X101653271Y-85786695D01*
X101573966Y-85937429D01*
X101515460Y-86125851D01*
X101492270Y-86321779D01*
X95705506Y-86321779D01*
X95690046Y-86153532D01*
X95680684Y-86120334D01*
X95638060Y-85969203D01*
X95638059Y-85969201D01*
X95636492Y-85963644D01*
X95626286Y-85942947D01*
X95551786Y-85791876D01*
X95549231Y-85786695D01*
X95531407Y-85762825D01*
X95434637Y-85633235D01*
X95434636Y-85633234D01*
X95431184Y-85628611D01*
X95408764Y-85607886D01*
X95290546Y-85498607D01*
X95290544Y-85498605D01*
X95286305Y-85494687D01*
X95119447Y-85389407D01*
X94936197Y-85316297D01*
X94930529Y-85315170D01*
X94930527Y-85315169D01*
X94748360Y-85278934D01*
X94748356Y-85278934D01*
X94742692Y-85277807D01*
X94736917Y-85277731D01*
X94736913Y-85277731D01*
X94638267Y-85276440D01*
X94545413Y-85275224D01*
X94539716Y-85276203D01*
X94539715Y-85276203D01*
X94523822Y-85278934D01*
X94350967Y-85308636D01*
X94165866Y-85376924D01*
X94160905Y-85379876D01*
X94160904Y-85379876D01*
X94001277Y-85474844D01*
X94001274Y-85474846D01*
X93996309Y-85477800D01*
X93991969Y-85481606D01*
X93991965Y-85481609D01*
X93980566Y-85491606D01*
X93847975Y-85607886D01*
X93725830Y-85762825D01*
X93723141Y-85767936D01*
X93723139Y-85767939D01*
X93713271Y-85786695D01*
X93633966Y-85937429D01*
X93575460Y-86125851D01*
X93552270Y-86321779D01*
X91333500Y-86321779D01*
X91333500Y-84726059D01*
X94078302Y-84726059D01*
X94088184Y-84738548D01*
X94111009Y-84753799D01*
X94121123Y-84759291D01*
X94291697Y-84832576D01*
X94302640Y-84836131D01*
X94483708Y-84877103D01*
X94495118Y-84878605D01*
X94680629Y-84885893D01*
X94692111Y-84885291D01*
X94875846Y-84858652D01*
X94887029Y-84855967D01*
X95062826Y-84796292D01*
X95073339Y-84791611D01*
X95172313Y-84736182D01*
X95182178Y-84726104D01*
X95179222Y-84718432D01*
X94642812Y-84182022D01*
X94628868Y-84174408D01*
X94627035Y-84174539D01*
X94620420Y-84178790D01*
X94084498Y-84714712D01*
X94078302Y-84726059D01*
X91333500Y-84726059D01*
X91333500Y-83787558D01*
X93553150Y-83787558D01*
X93565292Y-83972805D01*
X93567093Y-83984175D01*
X93612789Y-84164107D01*
X93616631Y-84174956D01*
X93694358Y-84343557D01*
X93700105Y-84353511D01*
X93700902Y-84354640D01*
X93711490Y-84363027D01*
X93724791Y-84355999D01*
X94257978Y-83822812D01*
X94264356Y-83811132D01*
X94994408Y-83811132D01*
X94994539Y-83812965D01*
X94998790Y-83819580D01*
X95534518Y-84355308D01*
X95546898Y-84362068D01*
X95553478Y-84357142D01*
X95611611Y-84253339D01*
X95616292Y-84242826D01*
X95675967Y-84067029D01*
X95678652Y-84055846D01*
X95705587Y-83870071D01*
X95706217Y-83862689D01*
X95707500Y-83813704D01*
X95707257Y-83806305D01*
X95690082Y-83619378D01*
X95687985Y-83608064D01*
X95637591Y-83429383D01*
X95633469Y-83418644D01*
X95557954Y-83265515D01*
X95548407Y-83255138D01*
X95541974Y-83257236D01*
X95002022Y-83797188D01*
X94994408Y-83811132D01*
X94264356Y-83811132D01*
X94265592Y-83808868D01*
X94265461Y-83807035D01*
X94261210Y-83800420D01*
X93724459Y-83263669D01*
X93712079Y-83256909D01*
X93706113Y-83261375D01*
X93637122Y-83392505D01*
X93632717Y-83403139D01*
X93577664Y-83580438D01*
X93575272Y-83591692D01*
X93553451Y-83776057D01*
X93553150Y-83787558D01*
X91333500Y-83787558D01*
X91333500Y-82894211D01*
X94078323Y-82894211D01*
X94081810Y-82902600D01*
X94617188Y-83437978D01*
X94631132Y-83445592D01*
X94632965Y-83445461D01*
X94639580Y-83441210D01*
X95174905Y-82905885D01*
X95181665Y-82893505D01*
X95175635Y-82885450D01*
X95124102Y-82852935D01*
X95113855Y-82847714D01*
X94941423Y-82778921D01*
X94930386Y-82775652D01*
X94748306Y-82739433D01*
X94736861Y-82738230D01*
X94551235Y-82735801D01*
X94539755Y-82736704D01*
X94356794Y-82768142D01*
X94345674Y-82771122D01*
X94171498Y-82835379D01*
X94161124Y-82840327D01*
X94087921Y-82883878D01*
X94078323Y-82894211D01*
X91333500Y-82894211D01*
X91333500Y-79214594D01*
X91353502Y-79146473D01*
X91370405Y-79125499D01*
X91700499Y-78795405D01*
X91762811Y-78761379D01*
X91789594Y-78758500D01*
X94196233Y-78758500D01*
X94207416Y-78759027D01*
X94214909Y-78760702D01*
X94222835Y-78760453D01*
X94222836Y-78760453D01*
X94282986Y-78758562D01*
X94286945Y-78758500D01*
X94314856Y-78758500D01*
X94318791Y-78758003D01*
X94318856Y-78757995D01*
X94330693Y-78757062D01*
X94362951Y-78756048D01*
X94366970Y-78755922D01*
X94374889Y-78755673D01*
X94394343Y-78750021D01*
X94413700Y-78746013D01*
X94425930Y-78744468D01*
X94425931Y-78744468D01*
X94433797Y-78743474D01*
X94441168Y-78740555D01*
X94441170Y-78740555D01*
X94474912Y-78727196D01*
X94486142Y-78723351D01*
X94520983Y-78713229D01*
X94520984Y-78713229D01*
X94528593Y-78711018D01*
X94535412Y-78706985D01*
X94535417Y-78706983D01*
X94546028Y-78700707D01*
X94563776Y-78692012D01*
X94582617Y-78684552D01*
X94613961Y-78661780D01*
X94618387Y-78658564D01*
X94628307Y-78652048D01*
X94659535Y-78633580D01*
X94659538Y-78633578D01*
X94666362Y-78629542D01*
X94680683Y-78615221D01*
X94695717Y-78602380D01*
X94705693Y-78595132D01*
X94712107Y-78590472D01*
X94740288Y-78556407D01*
X94748278Y-78547626D01*
X95025501Y-78270404D01*
X95087813Y-78236379D01*
X95114596Y-78233500D01*
X98909361Y-78233500D01*
X98977482Y-78253502D01*
G37*
%TD.AperFunction*%
%TA.AperFunction,Conductor*%
G36*
X103126121Y-79066002D02*
G01*
X103172614Y-79119658D01*
X103184000Y-79172000D01*
X103184000Y-80618517D01*
X103188064Y-80632359D01*
X103201478Y-80634393D01*
X103208184Y-80633534D01*
X103218262Y-80631392D01*
X103422255Y-80570191D01*
X103431842Y-80566433D01*
X103623095Y-80472739D01*
X103631945Y-80467464D01*
X103805328Y-80343792D01*
X103813200Y-80337139D01*
X103964052Y-80186812D01*
X103970730Y-80178965D01*
X104098022Y-80001819D01*
X104099279Y-80002722D01*
X104146373Y-79959362D01*
X104216311Y-79947145D01*
X104281751Y-79974678D01*
X104309579Y-80006511D01*
X104369987Y-80105088D01*
X104516250Y-80273938D01*
X104688126Y-80416632D01*
X104881000Y-80529338D01*
X105089692Y-80609030D01*
X105094760Y-80610061D01*
X105094763Y-80610062D01*
X105199604Y-80631392D01*
X105308597Y-80653567D01*
X105313772Y-80653757D01*
X105313774Y-80653757D01*
X105526673Y-80661564D01*
X105526677Y-80661564D01*
X105531837Y-80661753D01*
X105536957Y-80661097D01*
X105536959Y-80661097D01*
X105748288Y-80634025D01*
X105748289Y-80634025D01*
X105753416Y-80633368D01*
X105758366Y-80631883D01*
X105962429Y-80570661D01*
X105962434Y-80570659D01*
X105967384Y-80569174D01*
X106167994Y-80470896D01*
X106349860Y-80341173D01*
X106508096Y-80183489D01*
X106638453Y-80002077D01*
X106639776Y-80003028D01*
X106686645Y-79959857D01*
X106756580Y-79947625D01*
X106822026Y-79975144D01*
X106849875Y-80006994D01*
X106909987Y-80105088D01*
X107056250Y-80273938D01*
X107228126Y-80416632D01*
X107421000Y-80529338D01*
X107629692Y-80609030D01*
X107634760Y-80610061D01*
X107634763Y-80610062D01*
X107739604Y-80631392D01*
X107848597Y-80653567D01*
X107853772Y-80653757D01*
X107853774Y-80653757D01*
X108066673Y-80661564D01*
X108066677Y-80661564D01*
X108071837Y-80661753D01*
X108076957Y-80661097D01*
X108076959Y-80661097D01*
X108288288Y-80634025D01*
X108288289Y-80634025D01*
X108293416Y-80633368D01*
X108298366Y-80631883D01*
X108502429Y-80570661D01*
X108502434Y-80570659D01*
X108507384Y-80569174D01*
X108707994Y-80470896D01*
X108889860Y-80341173D01*
X109048096Y-80183489D01*
X109178453Y-80002077D01*
X109180746Y-79997437D01*
X109182446Y-79994608D01*
X109234674Y-79946518D01*
X109290451Y-79933500D01*
X113585406Y-79933500D01*
X113653527Y-79953502D01*
X113674501Y-79970405D01*
X116834595Y-83130500D01*
X116868621Y-83192812D01*
X116871500Y-83219595D01*
X116871500Y-95645501D01*
X116851498Y-95713622D01*
X116797842Y-95760115D01*
X116745500Y-95771501D01*
X116710012Y-95771501D01*
X116673534Y-95774371D01*
X116576730Y-95802495D01*
X116525017Y-95817519D01*
X116525015Y-95817520D01*
X116517404Y-95819731D01*
X116463647Y-95851523D01*
X116394834Y-95868982D01*
X116335370Y-95851522D01*
X116289220Y-95824229D01*
X116274783Y-95817981D01*
X116161395Y-95785039D01*
X116147295Y-95785079D01*
X116144000Y-95792349D01*
X116144000Y-96262458D01*
X116138997Y-96297610D01*
X116136166Y-96307353D01*
X116136165Y-96307360D01*
X116134371Y-96313534D01*
X116131500Y-96350011D01*
X116131500Y-96430405D01*
X116111498Y-96498526D01*
X116094595Y-96519500D01*
X115884500Y-96729595D01*
X115822188Y-96763621D01*
X115795405Y-96766500D01*
X115762000Y-96766500D01*
X115693879Y-96746498D01*
X115647386Y-96692842D01*
X115636000Y-96640500D01*
X115636000Y-95798100D01*
X115632027Y-95784569D01*
X115624129Y-95783434D01*
X115505217Y-95817981D01*
X115490778Y-95824230D01*
X115364595Y-95898854D01*
X115352159Y-95908501D01*
X115248501Y-96012159D01*
X115238854Y-96024595D01*
X115164230Y-96150778D01*
X115157982Y-96165215D01*
X115143628Y-96214621D01*
X115105415Y-96274456D01*
X115040918Y-96304133D01*
X114970616Y-96294229D01*
X114916828Y-96247890D01*
X114901362Y-96213669D01*
X114877591Y-96129383D01*
X114873469Y-96118644D01*
X114797954Y-95965515D01*
X114788407Y-95955138D01*
X114781974Y-95957236D01*
X114009615Y-96729595D01*
X113947303Y-96763621D01*
X113920520Y-96766500D01*
X113819480Y-96766500D01*
X113751359Y-96746498D01*
X113730385Y-96729595D01*
X112964459Y-95963669D01*
X112952079Y-95956909D01*
X112946113Y-95961375D01*
X112877122Y-96092505D01*
X112872717Y-96103139D01*
X112817664Y-96280438D01*
X112815272Y-96291692D01*
X112793451Y-96476057D01*
X112793150Y-96487558D01*
X112802634Y-96632259D01*
X112787130Y-96701542D01*
X112736630Y-96751445D01*
X112676904Y-96766500D01*
X108132246Y-96766500D01*
X108064125Y-96746498D01*
X108017632Y-96692842D01*
X108007528Y-96622568D01*
X108037022Y-96557988D01*
X108043151Y-96551405D01*
X108392247Y-96202309D01*
X108400537Y-96194765D01*
X108407018Y-96190652D01*
X108453659Y-96140984D01*
X108456413Y-96138143D01*
X108476134Y-96118422D01*
X108478612Y-96115227D01*
X108486318Y-96106205D01*
X108511158Y-96079753D01*
X108516586Y-96073973D01*
X108526346Y-96056220D01*
X108537199Y-96039697D01*
X108544753Y-96029958D01*
X108549613Y-96023693D01*
X108567176Y-95983109D01*
X108572383Y-95972479D01*
X108593695Y-95933712D01*
X108595666Y-95926035D01*
X108595668Y-95926030D01*
X108598732Y-95914094D01*
X108605138Y-95895382D01*
X108610033Y-95884071D01*
X108613181Y-95876797D01*
X108614421Y-95868969D01*
X108614423Y-95868962D01*
X108620099Y-95833128D01*
X108622505Y-95821508D01*
X108631528Y-95786363D01*
X108631528Y-95786362D01*
X108633500Y-95778682D01*
X108633500Y-95758428D01*
X108635051Y-95738717D01*
X108636980Y-95726538D01*
X108638220Y-95718709D01*
X108634059Y-95674690D01*
X108633500Y-95662833D01*
X108633500Y-95594211D01*
X113318323Y-95594211D01*
X113321810Y-95602600D01*
X113857188Y-96137978D01*
X113871132Y-96145592D01*
X113872965Y-96145461D01*
X113879580Y-96141210D01*
X114414905Y-95605885D01*
X114421665Y-95593505D01*
X114415635Y-95585450D01*
X114364102Y-95552935D01*
X114353855Y-95547714D01*
X114181423Y-95478921D01*
X114170386Y-95475652D01*
X113988306Y-95439433D01*
X113976861Y-95438230D01*
X113791235Y-95435801D01*
X113779755Y-95436704D01*
X113596794Y-95468142D01*
X113585674Y-95471122D01*
X113411498Y-95535379D01*
X113401124Y-95540327D01*
X113327921Y-95583878D01*
X113318323Y-95594211D01*
X108633500Y-95594211D01*
X108633500Y-93941779D01*
X112792270Y-93941779D01*
X112805174Y-94138652D01*
X112853739Y-94329877D01*
X112936339Y-94509049D01*
X113050207Y-94670169D01*
X113191530Y-94807840D01*
X113196326Y-94811045D01*
X113196329Y-94811047D01*
X113261809Y-94854799D01*
X113355576Y-94917452D01*
X113360879Y-94919730D01*
X113360882Y-94919732D01*
X113531542Y-94993053D01*
X113536849Y-94995333D01*
X113613498Y-95012677D01*
X113723644Y-95037601D01*
X113723647Y-95037601D01*
X113729280Y-95038876D01*
X113735051Y-95039103D01*
X113735053Y-95039103D01*
X113794054Y-95041421D01*
X113926423Y-95046622D01*
X114041789Y-95029894D01*
X114115955Y-95019141D01*
X114115959Y-95019140D01*
X114121677Y-95018311D01*
X114127149Y-95016453D01*
X114127151Y-95016453D01*
X114303038Y-94956747D01*
X114303040Y-94956746D01*
X114308502Y-94954892D01*
X114480642Y-94858490D01*
X114632331Y-94732331D01*
X114758490Y-94580642D01*
X114854892Y-94408502D01*
X114918311Y-94221677D01*
X114946622Y-94026423D01*
X114948099Y-93970000D01*
X114930046Y-93773532D01*
X114920684Y-93740334D01*
X114878060Y-93589203D01*
X114878059Y-93589201D01*
X114876492Y-93583644D01*
X114866286Y-93562947D01*
X114791786Y-93411876D01*
X114789231Y-93406695D01*
X114771407Y-93382825D01*
X114674637Y-93253235D01*
X114674636Y-93253234D01*
X114671184Y-93248611D01*
X114648764Y-93227886D01*
X114530546Y-93118607D01*
X114530544Y-93118605D01*
X114526305Y-93114687D01*
X114359447Y-93009407D01*
X114176197Y-92936297D01*
X114170529Y-92935170D01*
X114170527Y-92935169D01*
X113988360Y-92898934D01*
X113988356Y-92898934D01*
X113982692Y-92897807D01*
X113976917Y-92897731D01*
X113976913Y-92897731D01*
X113878267Y-92896440D01*
X113785413Y-92895224D01*
X113779716Y-92896203D01*
X113779715Y-92896203D01*
X113596664Y-92927657D01*
X113590967Y-92928636D01*
X113405866Y-92996924D01*
X113400905Y-92999876D01*
X113400904Y-92999876D01*
X113241277Y-93094844D01*
X113241274Y-93094846D01*
X113236309Y-93097800D01*
X113231969Y-93101606D01*
X113231965Y-93101609D01*
X113220566Y-93111606D01*
X113087975Y-93227886D01*
X112965830Y-93382825D01*
X112963141Y-93387936D01*
X112963139Y-93387939D01*
X112953271Y-93406695D01*
X112873966Y-93557429D01*
X112815460Y-93745851D01*
X112792270Y-93941779D01*
X108633500Y-93941779D01*
X108633500Y-91401779D01*
X112792270Y-91401779D01*
X112805174Y-91598652D01*
X112853739Y-91789877D01*
X112936339Y-91969049D01*
X113050207Y-92130169D01*
X113191530Y-92267840D01*
X113196326Y-92271045D01*
X113196329Y-92271047D01*
X113261809Y-92314799D01*
X113355576Y-92377452D01*
X113360879Y-92379730D01*
X113360882Y-92379732D01*
X113531542Y-92453053D01*
X113536849Y-92455333D01*
X113630185Y-92476453D01*
X113723644Y-92497601D01*
X113723647Y-92497601D01*
X113729280Y-92498876D01*
X113735051Y-92499103D01*
X113735053Y-92499103D01*
X113794054Y-92501421D01*
X113926423Y-92506622D01*
X114041789Y-92489894D01*
X114115955Y-92479141D01*
X114115959Y-92479140D01*
X114121677Y-92478311D01*
X114127149Y-92476453D01*
X114127151Y-92476453D01*
X114303038Y-92416747D01*
X114303040Y-92416746D01*
X114308502Y-92414892D01*
X114480642Y-92318490D01*
X114632331Y-92192331D01*
X114758490Y-92040642D01*
X114854892Y-91868502D01*
X114872595Y-91816353D01*
X114916453Y-91687151D01*
X114916453Y-91687149D01*
X114918311Y-91681677D01*
X114946622Y-91486423D01*
X114948099Y-91430000D01*
X114930046Y-91233532D01*
X114920684Y-91200334D01*
X114878060Y-91049203D01*
X114878059Y-91049201D01*
X114876492Y-91043644D01*
X114866286Y-91022947D01*
X114791786Y-90871876D01*
X114789231Y-90866695D01*
X114771407Y-90842825D01*
X114674637Y-90713235D01*
X114674636Y-90713234D01*
X114671184Y-90708611D01*
X114648764Y-90687886D01*
X114530546Y-90578607D01*
X114530544Y-90578605D01*
X114526305Y-90574687D01*
X114359447Y-90469407D01*
X114176197Y-90396297D01*
X114170529Y-90395170D01*
X114170527Y-90395169D01*
X113988360Y-90358934D01*
X113988356Y-90358934D01*
X113982692Y-90357807D01*
X113976917Y-90357731D01*
X113976913Y-90357731D01*
X113878267Y-90356440D01*
X113785413Y-90355224D01*
X113779716Y-90356203D01*
X113779715Y-90356203D01*
X113763822Y-90358934D01*
X113590967Y-90388636D01*
X113405866Y-90456924D01*
X113400905Y-90459876D01*
X113400904Y-90459876D01*
X113241277Y-90554844D01*
X113241274Y-90554846D01*
X113236309Y-90557800D01*
X113231969Y-90561606D01*
X113231965Y-90561609D01*
X113220566Y-90571606D01*
X113087975Y-90687886D01*
X112965830Y-90842825D01*
X112963141Y-90847936D01*
X112963139Y-90847939D01*
X112953271Y-90866695D01*
X112873966Y-91017429D01*
X112815460Y-91205851D01*
X112792270Y-91401779D01*
X108633500Y-91401779D01*
X108633500Y-88861779D01*
X112792270Y-88861779D01*
X112805174Y-89058652D01*
X112853739Y-89249877D01*
X112936339Y-89429049D01*
X113050207Y-89590169D01*
X113191530Y-89727840D01*
X113196326Y-89731045D01*
X113196329Y-89731047D01*
X113261809Y-89774799D01*
X113355576Y-89837452D01*
X113360879Y-89839730D01*
X113360882Y-89839732D01*
X113531542Y-89913053D01*
X113536849Y-89915333D01*
X113630185Y-89936453D01*
X113723644Y-89957601D01*
X113723647Y-89957601D01*
X113729280Y-89958876D01*
X113735051Y-89959103D01*
X113735053Y-89959103D01*
X113794054Y-89961421D01*
X113926423Y-89966622D01*
X114041789Y-89949894D01*
X114115955Y-89939141D01*
X114115959Y-89939140D01*
X114121677Y-89938311D01*
X114127149Y-89936453D01*
X114127151Y-89936453D01*
X114303038Y-89876747D01*
X114303040Y-89876746D01*
X114308502Y-89874892D01*
X114480642Y-89778490D01*
X114632331Y-89652331D01*
X114758490Y-89500642D01*
X114854892Y-89328502D01*
X114918311Y-89141677D01*
X114946622Y-88946423D01*
X114948099Y-88890000D01*
X114930046Y-88693532D01*
X114920684Y-88660334D01*
X114878060Y-88509203D01*
X114878059Y-88509201D01*
X114876492Y-88503644D01*
X114866286Y-88482947D01*
X114791786Y-88331876D01*
X114789231Y-88326695D01*
X114771407Y-88302825D01*
X114674637Y-88173235D01*
X114674636Y-88173234D01*
X114671184Y-88168611D01*
X114648764Y-88147886D01*
X114530546Y-88038607D01*
X114530544Y-88038605D01*
X114526305Y-88034687D01*
X114359447Y-87929407D01*
X114176197Y-87856297D01*
X114170529Y-87855170D01*
X114170527Y-87855169D01*
X113988360Y-87818934D01*
X113988356Y-87818934D01*
X113982692Y-87817807D01*
X113976917Y-87817731D01*
X113976913Y-87817731D01*
X113878267Y-87816440D01*
X113785413Y-87815224D01*
X113779716Y-87816203D01*
X113779715Y-87816203D01*
X113763822Y-87818934D01*
X113590967Y-87848636D01*
X113405866Y-87916924D01*
X113400905Y-87919876D01*
X113400904Y-87919876D01*
X113241277Y-88014844D01*
X113241274Y-88014846D01*
X113236309Y-88017800D01*
X113231969Y-88021606D01*
X113231965Y-88021609D01*
X113220566Y-88031606D01*
X113087975Y-88147886D01*
X112965830Y-88302825D01*
X112963141Y-88307936D01*
X112963139Y-88307939D01*
X112953271Y-88326695D01*
X112873966Y-88477429D01*
X112815460Y-88665851D01*
X112792270Y-88861779D01*
X108633500Y-88861779D01*
X108633500Y-86321779D01*
X112792270Y-86321779D01*
X112805174Y-86518652D01*
X112853739Y-86709877D01*
X112936339Y-86889049D01*
X113050207Y-87050169D01*
X113191530Y-87187840D01*
X113196326Y-87191045D01*
X113196329Y-87191047D01*
X113261809Y-87234799D01*
X113355576Y-87297452D01*
X113360879Y-87299730D01*
X113360882Y-87299732D01*
X113531542Y-87373053D01*
X113536849Y-87375333D01*
X113630185Y-87396453D01*
X113723644Y-87417601D01*
X113723647Y-87417601D01*
X113729280Y-87418876D01*
X113735051Y-87419103D01*
X113735053Y-87419103D01*
X113794054Y-87421421D01*
X113926423Y-87426622D01*
X114041789Y-87409894D01*
X114115955Y-87399141D01*
X114115959Y-87399140D01*
X114121677Y-87398311D01*
X114127149Y-87396453D01*
X114127151Y-87396453D01*
X114303038Y-87336747D01*
X114303040Y-87336746D01*
X114308502Y-87334892D01*
X114480642Y-87238490D01*
X114632331Y-87112331D01*
X114758490Y-86960642D01*
X114854892Y-86788502D01*
X114918311Y-86601677D01*
X114946622Y-86406423D01*
X114948099Y-86350000D01*
X114930046Y-86153532D01*
X114920684Y-86120334D01*
X114878060Y-85969203D01*
X114878059Y-85969201D01*
X114876492Y-85963644D01*
X114866286Y-85942947D01*
X114791786Y-85791876D01*
X114789231Y-85786695D01*
X114771407Y-85762825D01*
X114674637Y-85633235D01*
X114674636Y-85633234D01*
X114671184Y-85628611D01*
X114648764Y-85607886D01*
X114530546Y-85498607D01*
X114530544Y-85498605D01*
X114526305Y-85494687D01*
X114359447Y-85389407D01*
X114176197Y-85316297D01*
X114170529Y-85315170D01*
X114170527Y-85315169D01*
X113988360Y-85278934D01*
X113988356Y-85278934D01*
X113982692Y-85277807D01*
X113976917Y-85277731D01*
X113976913Y-85277731D01*
X113878267Y-85276440D01*
X113785413Y-85275224D01*
X113779716Y-85276203D01*
X113779715Y-85276203D01*
X113763822Y-85278934D01*
X113590967Y-85308636D01*
X113405866Y-85376924D01*
X113400905Y-85379876D01*
X113400904Y-85379876D01*
X113241277Y-85474844D01*
X113241274Y-85474846D01*
X113236309Y-85477800D01*
X113231969Y-85481606D01*
X113231965Y-85481609D01*
X113220566Y-85491606D01*
X113087975Y-85607886D01*
X112965830Y-85762825D01*
X112963141Y-85767936D01*
X112963139Y-85767939D01*
X112953271Y-85786695D01*
X112873966Y-85937429D01*
X112815460Y-86125851D01*
X112792270Y-86321779D01*
X108633500Y-86321779D01*
X108633500Y-83781779D01*
X112792270Y-83781779D01*
X112805174Y-83978652D01*
X112853739Y-84169877D01*
X112936339Y-84349049D01*
X113050207Y-84510169D01*
X113191530Y-84647840D01*
X113196326Y-84651045D01*
X113196329Y-84651047D01*
X113261809Y-84694799D01*
X113355576Y-84757452D01*
X113360879Y-84759730D01*
X113360882Y-84759732D01*
X113530432Y-84832576D01*
X113536849Y-84835333D01*
X113628038Y-84855967D01*
X113723644Y-84877601D01*
X113723647Y-84877601D01*
X113729280Y-84878876D01*
X113735051Y-84879103D01*
X113735053Y-84879103D01*
X113794054Y-84881421D01*
X113926423Y-84886622D01*
X114041789Y-84869894D01*
X114115955Y-84859141D01*
X114115959Y-84859140D01*
X114121677Y-84858311D01*
X114127149Y-84856453D01*
X114127151Y-84856453D01*
X114303038Y-84796747D01*
X114303040Y-84796746D01*
X114308502Y-84794892D01*
X114431333Y-84726104D01*
X114475605Y-84701311D01*
X114475606Y-84701310D01*
X114480642Y-84698490D01*
X114632331Y-84572331D01*
X114758490Y-84420642D01*
X114854892Y-84248502D01*
X114883541Y-84164107D01*
X114916453Y-84067151D01*
X114916453Y-84067149D01*
X114918311Y-84061677D01*
X114919157Y-84055846D01*
X114946089Y-83870096D01*
X114946622Y-83866423D01*
X114948099Y-83810000D01*
X114930046Y-83613532D01*
X114923887Y-83591692D01*
X114878060Y-83429203D01*
X114878059Y-83429201D01*
X114876492Y-83423644D01*
X114866381Y-83403139D01*
X114791786Y-83251876D01*
X114789231Y-83246695D01*
X114771407Y-83222825D01*
X114674637Y-83093235D01*
X114674636Y-83093234D01*
X114671184Y-83088611D01*
X114648764Y-83067886D01*
X114530546Y-82958607D01*
X114530544Y-82958605D01*
X114526305Y-82954687D01*
X114359447Y-82849407D01*
X114176197Y-82776297D01*
X114170529Y-82775170D01*
X114170527Y-82775169D01*
X113988360Y-82738934D01*
X113988356Y-82738934D01*
X113982692Y-82737807D01*
X113976917Y-82737731D01*
X113976913Y-82737731D01*
X113878267Y-82736440D01*
X113785413Y-82735224D01*
X113779716Y-82736203D01*
X113779715Y-82736203D01*
X113633625Y-82761306D01*
X113590967Y-82768636D01*
X113405866Y-82836924D01*
X113400905Y-82839876D01*
X113400904Y-82839876D01*
X113241277Y-82934844D01*
X113241274Y-82934846D01*
X113236309Y-82937800D01*
X113231969Y-82941606D01*
X113231965Y-82941609D01*
X113199658Y-82969942D01*
X113087975Y-83067886D01*
X112965830Y-83222825D01*
X112963141Y-83227936D01*
X112963139Y-83227939D01*
X112916732Y-83316144D01*
X112873966Y-83397429D01*
X112815460Y-83585851D01*
X112792270Y-83781779D01*
X108633500Y-83781779D01*
X108633500Y-82978767D01*
X108634027Y-82967584D01*
X108635702Y-82960091D01*
X108633562Y-82892014D01*
X108633500Y-82888055D01*
X108633500Y-82860144D01*
X108632995Y-82856144D01*
X108632062Y-82844301D01*
X108631768Y-82834926D01*
X108630673Y-82800110D01*
X108625022Y-82780658D01*
X108621014Y-82761306D01*
X108619467Y-82749063D01*
X108618474Y-82741203D01*
X108615556Y-82733832D01*
X108602200Y-82700097D01*
X108598355Y-82688870D01*
X108592990Y-82670405D01*
X108586018Y-82646407D01*
X108581984Y-82639585D01*
X108581981Y-82639579D01*
X108575706Y-82628968D01*
X108567010Y-82611218D01*
X108562472Y-82599756D01*
X108562469Y-82599751D01*
X108559552Y-82592383D01*
X108533573Y-82556625D01*
X108527057Y-82546707D01*
X108508575Y-82515457D01*
X108504542Y-82508637D01*
X108490218Y-82494313D01*
X108477376Y-82479278D01*
X108465472Y-82462893D01*
X108431406Y-82434711D01*
X108422627Y-82426722D01*
X107603652Y-81607747D01*
X107596112Y-81599461D01*
X107592000Y-81592982D01*
X107542348Y-81546356D01*
X107539507Y-81543602D01*
X107519770Y-81523865D01*
X107516573Y-81521385D01*
X107507551Y-81513680D01*
X107481100Y-81488841D01*
X107475321Y-81483414D01*
X107468375Y-81479595D01*
X107468372Y-81479593D01*
X107457566Y-81473652D01*
X107441047Y-81462801D01*
X107440583Y-81462441D01*
X107425041Y-81450386D01*
X107417772Y-81447241D01*
X107417768Y-81447238D01*
X107384463Y-81432826D01*
X107373813Y-81427609D01*
X107335060Y-81406305D01*
X107315437Y-81401267D01*
X107296734Y-81394863D01*
X107285420Y-81389967D01*
X107285419Y-81389967D01*
X107278145Y-81386819D01*
X107270322Y-81385580D01*
X107270312Y-81385577D01*
X107234476Y-81379901D01*
X107222856Y-81377495D01*
X107187711Y-81368472D01*
X107187710Y-81368472D01*
X107180030Y-81366500D01*
X107159776Y-81366500D01*
X107140065Y-81364949D01*
X107127886Y-81363020D01*
X107120057Y-81361780D01*
X107112165Y-81362526D01*
X107076039Y-81365941D01*
X107064181Y-81366500D01*
X103404594Y-81366500D01*
X103336473Y-81346498D01*
X103315499Y-81329595D01*
X102712801Y-80726897D01*
X102678775Y-80664585D01*
X102675949Y-80634148D01*
X102676000Y-80632390D01*
X102676000Y-79172000D01*
X102696002Y-79103879D01*
X102749658Y-79057386D01*
X102802000Y-79046000D01*
X103058000Y-79046000D01*
X103126121Y-79066002D01*
G37*
%TD.AperFunction*%
%TD*%
M02*
