%TF.GenerationSoftware,KiCad,Pcbnew,(6.0.10)*%
%TF.CreationDate,2023-05-16T15:36:24-07:00*%
%TF.ProjectId,SevenSegment,53657665-6e53-4656-976d-656e742e6b69,rev?*%
%TF.SameCoordinates,Original*%
%TF.FileFunction,Copper,L2,Bot*%
%TF.FilePolarity,Positive*%
%FSLAX46Y46*%
G04 Gerber Fmt 4.6, Leading zero omitted, Abs format (unit mm)*
G04 Created by KiCad (PCBNEW (6.0.10)) date 2023-05-16 15:36:24*
%MOMM*%
%LPD*%
G01*
G04 APERTURE LIST*
%TA.AperFunction,ComponentPad*%
%ADD10C,1.270000*%
%TD*%
%TA.AperFunction,ComponentPad*%
%ADD11R,1.270000X1.270000*%
%TD*%
%TA.AperFunction,ComponentPad*%
%ADD12R,1.130000X1.130000*%
%TD*%
%TA.AperFunction,ComponentPad*%
%ADD13C,1.130000*%
%TD*%
%TA.AperFunction,ComponentPad*%
%ADD14R,1.700000X1.700000*%
%TD*%
%TA.AperFunction,ComponentPad*%
%ADD15O,1.700000X1.700000*%
%TD*%
%TA.AperFunction,ViaPad*%
%ADD16C,0.800000*%
%TD*%
%TA.AperFunction,Conductor*%
%ADD17C,0.250000*%
%TD*%
G04 APERTURE END LIST*
D10*
%TO.P,DS-TENS1,10,F*%
%TO.N,/F2*%
X97060000Y-104990000D03*
%TO.P,DS-TENS1,9,G*%
%TO.N,/G2*%
X98330000Y-107530000D03*
%TO.P,DS-TENS1,8,A(C)_2*%
%TO.N,GND*%
X99600000Y-104990000D03*
%TO.P,DS-TENS1,7,A*%
%TO.N,/A2*%
X100870000Y-107530000D03*
%TO.P,DS-TENS1,6,B*%
%TO.N,/B2*%
X102140000Y-104990000D03*
%TO.P,DS-TENS1,5,DP*%
%TO.N,GND*%
X102140000Y-112610000D03*
%TO.P,DS-TENS1,4,C*%
%TO.N,/C2*%
X100870000Y-110070000D03*
%TO.P,DS-TENS1,3,A(C)_1*%
%TO.N,GND*%
X99600000Y-112610000D03*
%TO.P,DS-TENS1,2,D*%
%TO.N,/D2*%
X98330000Y-110070000D03*
D11*
%TO.P,DS-TENS1,1,E*%
%TO.N,/E2*%
X97060000Y-112610000D03*
%TD*%
D10*
%TO.P,DS-ONES1,10,F*%
%TO.N,/F1*%
X106360000Y-104990000D03*
%TO.P,DS-ONES1,9,G*%
%TO.N,/G1*%
X107630000Y-107530000D03*
%TO.P,DS-ONES1,8,A(C)_2*%
%TO.N,GND*%
X108900000Y-104990000D03*
%TO.P,DS-ONES1,7,A*%
%TO.N,/A1*%
X110170000Y-107530000D03*
%TO.P,DS-ONES1,6,B*%
%TO.N,/B1*%
X111440000Y-104990000D03*
%TO.P,DS-ONES1,5,DP*%
%TO.N,GND*%
X111440000Y-112610000D03*
%TO.P,DS-ONES1,4,C*%
%TO.N,/C1*%
X110170000Y-110070000D03*
%TO.P,DS-ONES1,3,A(C)_1*%
%TO.N,GND*%
X108900000Y-112610000D03*
%TO.P,DS-ONES1,2,D*%
%TO.N,/D1*%
X107630000Y-110070000D03*
D11*
%TO.P,DS-ONES1,1,E*%
%TO.N,/E1*%
X106360000Y-112610000D03*
%TD*%
D12*
%TO.P,IC2,1,CLOCK*%
%TO.N,CLOCK_BAR*%
X105930000Y-101590000D03*
D13*
%TO.P,IC2,2,CLOCKINHIBIT*%
%TO.N,Net-(IC2-Pad2)*%
X105930000Y-99050000D03*
%TO.P,IC2,3,RIPPLEBLANKINGIN*%
%TO.N,unconnected-(IC2-Pad3)*%
X105930000Y-96510000D03*
%TO.P,IC2,4,RIPPLEBLANKINGOUT*%
%TO.N,unconnected-(IC2-Pad4)*%
X105930000Y-93970000D03*
%TO.P,IC2,5,CARRYOUT*%
%TO.N,CARRY_1*%
X105930000Y-91430000D03*
%TO.P,IC2,6,F*%
%TO.N,/F1*%
X105930000Y-88890000D03*
%TO.P,IC2,7,G*%
%TO.N,/G1*%
X105930000Y-86350000D03*
%TO.P,IC2,8,VSS*%
%TO.N,GND*%
X105930000Y-83810000D03*
%TO.P,IC2,9,D*%
%TO.N,/D1*%
X113870000Y-83810000D03*
%TO.P,IC2,10,A*%
%TO.N,/A1*%
X113870000Y-86350000D03*
%TO.P,IC2,11,E*%
%TO.N,/E1*%
X113870000Y-88890000D03*
%TO.P,IC2,12,B*%
%TO.N,/B1*%
X113870000Y-91430000D03*
%TO.P,IC2,13,C*%
%TO.N,/C1*%
X113870000Y-93970000D03*
%TO.P,IC2,14,LAMPTEST*%
%TO.N,GND*%
X113870000Y-96510000D03*
%TO.P,IC2,15,RESET*%
%TO.N,/RESET*%
X113870000Y-99050000D03*
%TO.P,IC2,16,VDD*%
%TO.N,+12V*%
X113870000Y-101590000D03*
%TD*%
%TO.P,IC1,16,VDD*%
%TO.N,+12V*%
X102570000Y-101590000D03*
%TO.P,IC1,15,RESET*%
%TO.N,/RESET*%
X102570000Y-99050000D03*
%TO.P,IC1,14,LAMPTEST*%
%TO.N,GND*%
X102570000Y-96510000D03*
%TO.P,IC1,13,C*%
%TO.N,/C2*%
X102570000Y-93970000D03*
%TO.P,IC1,12,B*%
%TO.N,/B2*%
X102570000Y-91430000D03*
%TO.P,IC1,11,E*%
%TO.N,/E2*%
X102570000Y-88890000D03*
%TO.P,IC1,10,A*%
%TO.N,/A2*%
X102570000Y-86350000D03*
%TO.P,IC1,9,D*%
%TO.N,/D2*%
X102570000Y-83810000D03*
%TO.P,IC1,8,VSS*%
%TO.N,GND*%
X94630000Y-83810000D03*
%TO.P,IC1,7,G*%
%TO.N,/G2*%
X94630000Y-86350000D03*
%TO.P,IC1,6,F*%
%TO.N,/F2*%
X94630000Y-88890000D03*
%TO.P,IC1,5,CARRYOUT*%
%TO.N,unconnected-(IC1-Pad5)*%
X94630000Y-91430000D03*
%TO.P,IC1,4,RIPPLEBLANKINGOUT*%
%TO.N,unconnected-(IC1-Pad4)*%
X94630000Y-93970000D03*
%TO.P,IC1,3,RIPPLEBLANKINGIN*%
%TO.N,unconnected-(IC1-Pad3)*%
X94630000Y-96510000D03*
%TO.P,IC1,2,CLOCKINHIBIT*%
%TO.N,Net-(IC1-Pad2)*%
X94630000Y-99050000D03*
D12*
%TO.P,IC1,1,CLOCK*%
%TO.N,CARRY_1*%
X94630000Y-101590000D03*
%TD*%
D14*
%TO.P,J1,1,Pin_1*%
%TO.N,+12V*%
X100390000Y-79300000D03*
D15*
%TO.P,J1,2,Pin_2*%
%TO.N,GND*%
X102930000Y-79300000D03*
%TO.P,J1,3,Pin_3*%
%TO.N,CLOCK_BAR*%
X105470000Y-79300000D03*
%TO.P,J1,4,Pin_4*%
%TO.N,/RESET*%
X108010000Y-79300000D03*
%TD*%
D16*
%TO.N,GND*%
X94800000Y-104300000D03*
X96300000Y-98600000D03*
X109100000Y-101700000D03*
X109200000Y-95800000D03*
%TD*%
D17*
%TO.N,GND*%
X96300000Y-98600000D02*
X96300000Y-102800000D01*
X96300000Y-102800000D02*
X94800000Y-104300000D01*
X109200000Y-101600000D02*
X109200000Y-95800000D01*
X109100000Y-101700000D02*
X109200000Y-101600000D01*
%TO.N,/F1*%
X106995000Y-89955000D02*
X105930000Y-88890000D01*
X106995000Y-104355000D02*
X106995000Y-89955000D01*
X106360000Y-104990000D02*
X106995000Y-104355000D01*
%TO.N,/G1*%
X107630000Y-107530000D02*
X107630000Y-88050000D01*
X107630000Y-88050000D02*
X105930000Y-86350000D01*
%TO.N,/A1*%
X110170000Y-90050000D02*
X113870000Y-86350000D01*
X110170000Y-107530000D02*
X110170000Y-90050000D01*
%TO.N,/B1*%
X111440000Y-93860000D02*
X113870000Y-91430000D01*
X111440000Y-104990000D02*
X111440000Y-93860000D01*
%TO.N,/C1*%
X112980000Y-107260000D02*
X112980000Y-94860000D01*
X112980000Y-94860000D02*
X113870000Y-93970000D01*
X110170000Y-110070000D02*
X112980000Y-107260000D01*
%TO.N,/E1*%
X106360000Y-112640000D02*
X106300000Y-112700000D01*
X106300000Y-110042354D02*
X107232354Y-109110000D01*
X107232354Y-109110000D02*
X108027646Y-109110000D01*
X109200000Y-110282354D02*
X109200000Y-110900000D01*
X109200000Y-110900000D02*
X109400000Y-111100000D01*
X112200000Y-111100000D02*
X115300000Y-108000000D01*
X108027646Y-109110000D02*
X109200000Y-110282354D01*
X115300000Y-90320000D02*
X113870000Y-88890000D01*
X106360000Y-112610000D02*
X106360000Y-112640000D01*
X115300000Y-108000000D02*
X115300000Y-90320000D01*
X106300000Y-112700000D02*
X106300000Y-110042354D01*
X109400000Y-111100000D02*
X112200000Y-111100000D01*
%TO.N,/D1*%
X113950000Y-111650000D02*
X117000000Y-108600000D01*
X117000000Y-108600000D02*
X117000000Y-86940000D01*
X107630000Y-110070000D02*
X109260000Y-111700000D01*
X109260000Y-111700000D02*
X110992354Y-111700000D01*
X111042354Y-111650000D02*
X113950000Y-111650000D01*
X117000000Y-86940000D02*
X113870000Y-83810000D01*
X110992354Y-111700000D02*
X111042354Y-111650000D01*
%TO.N,/E2*%
X104000000Y-108350000D02*
X104000000Y-90320000D01*
X101250000Y-111100000D02*
X104000000Y-108350000D01*
X104000000Y-90320000D02*
X102570000Y-88890000D01*
X97060000Y-112640000D02*
X97000000Y-112700000D01*
X97060000Y-112610000D02*
X97060000Y-112640000D01*
X97000000Y-112700000D02*
X97000000Y-110042354D01*
X97000000Y-110042354D02*
X97932354Y-109110000D01*
X98727646Y-109110000D02*
X99898198Y-110280552D01*
X99898198Y-110280552D02*
X99898198Y-110548198D01*
X97932354Y-109110000D02*
X98727646Y-109110000D01*
X99898198Y-110548198D02*
X100450000Y-111100000D01*
X100450000Y-111100000D02*
X101250000Y-111100000D01*
%TO.N,/D2*%
X98330000Y-110070000D02*
X99960000Y-111700000D01*
X101742354Y-111650000D02*
X102537646Y-111650000D01*
X99960000Y-111700000D02*
X101692354Y-111700000D01*
X101692354Y-111700000D02*
X101742354Y-111650000D01*
X102537646Y-111650000D02*
X102587646Y-111700000D01*
X104500000Y-111700000D02*
X104500000Y-84700000D01*
X102587646Y-111700000D02*
X104500000Y-111700000D01*
X104500000Y-84700000D02*
X103610000Y-83810000D01*
X103610000Y-83810000D02*
X102570000Y-83810000D01*
%TO.N,/B2*%
X101050000Y-103900000D02*
X101050000Y-103613604D01*
X102140000Y-104990000D02*
X101050000Y-103900000D01*
X100700000Y-93300000D02*
X102570000Y-91430000D01*
X101050000Y-103613604D02*
X100700000Y-103263604D01*
X100700000Y-103263604D02*
X100700000Y-93300000D01*
%TO.N,/A2*%
X100600000Y-103800000D02*
X99800000Y-103000000D01*
X99800000Y-89120000D02*
X102570000Y-86350000D01*
%TO.N,/G2*%
X98330000Y-107530000D02*
X98330000Y-90050000D01*
%TO.N,/A2*%
X99800000Y-103000000D02*
X99800000Y-89120000D01*
X100600000Y-107260000D02*
X100600000Y-103800000D01*
X100870000Y-107530000D02*
X100600000Y-107260000D01*
%TO.N,/G2*%
X98330000Y-90050000D02*
X94630000Y-86350000D01*
%TO.N,/F2*%
X97060000Y-90560000D02*
X95200000Y-88700000D01*
X97060000Y-104990000D02*
X97060000Y-90560000D01*
X94820000Y-88700000D02*
X94630000Y-88890000D01*
X95200000Y-88700000D02*
X94820000Y-88700000D01*
%TO.N,/C2*%
X103460000Y-107480000D02*
X103460000Y-94860000D01*
X103460000Y-94860000D02*
X102570000Y-93970000D01*
X100870000Y-110070000D02*
X103460000Y-107480000D01*
%TO.N,CLOCK_BAR*%
X105040000Y-79730000D02*
X105470000Y-79300000D01*
X105040000Y-100700000D02*
X105040000Y-79730000D01*
X105930000Y-101590000D02*
X105040000Y-100700000D01*
%TD*%
M02*
