M48
; DRILL file {KiCad 7.0.5} date Wed Sep 13 13:06:07 2023
; FORMAT={-:-/ absolute / inch / decimal}
; #@! TF.CreationDate,2023-09-13T13:06:07-07:00
; #@! TF.GenerationSoftware,Kicad,Pcbnew,7.0.5
; #@! TF.FileFunction,Plated,1,2,PTH
FMAT,2
INCH
; #@! TA.AperFunction,Plated,PTH,ViaDrill
T1C0.0157
; #@! TA.AperFunction,Plated,PTH,ComponentDrill
T2C0.0315
; #@! TA.AperFunction,Plated,PTH,ComponentDrill
T3C0.0350
; #@! TA.AperFunction,Plated,PTH,ComponentDrill
T4C0.0354
; #@! TA.AperFunction,Plated,PTH,ComponentDrill
T5C0.0394
; #@! TA.AperFunction,Plated,PTH,ComponentDrill
T6C0.0400
; #@! TA.AperFunction,Plated,PTH,ComponentDrill
T7C0.0433
; #@! TA.AperFunction,Plated,PTH,ComponentDrill
T8C0.0450
; #@! TA.AperFunction,Plated,PTH,ComponentDrill
T9C0.0551
%
G90
G05
T1
X2.7323Y-1.9606
X2.748Y-1.626
X2.9213Y-2.6496
X2.9646Y-2.5551
X2.9764Y-2.0669
X3.1339Y-2.5591
T2
X2.8425Y-1.7953
X2.8425Y-1.874
X3.159Y-2.1496
X3.159Y-2.2283
X3.159Y-2.3071
T3
X2.4398Y-1.4362
X2.4409Y-1.9992
X2.4409Y-2.5377
X2.4409Y-3.0761
T4
X2.6821Y-3.2935
X2.686Y-2.2165
X2.6898Y-2.755
X2.7821Y-3.2935
X2.786Y-2.2165
X2.7898Y-2.755
X3.1462Y-2.6811
X3.1462Y-2.7717
X3.1462Y-2.8622
X3.1462Y-2.9528
X3.1462Y-3.0433
X3.1462Y-3.1339
X3.1462Y-3.2244
T5
X2.485Y-3.8287
X2.485Y-3.9287
X2.485Y-4.0287
X2.485Y-4.1287
X2.485Y-4.2287
X2.485Y-4.3287
X2.485Y-4.4287
X2.485Y-4.5287
X2.485Y-4.6287
X2.485Y-4.7287
X2.485Y-4.8287
X2.485Y-4.9287
X2.485Y-5.0287
X2.485Y-5.1287
X2.485Y-5.2287
X2.8559Y-1.4748
X2.8559Y-1.5748
X2.9559Y-1.4748
X2.9559Y-1.5748
X3.0559Y-1.4748
X3.0559Y-1.5748
X3.085Y-3.8287
X3.085Y-3.9287
X3.085Y-4.0287
X3.085Y-4.1287
X3.085Y-4.2287
X3.085Y-4.3287
X3.085Y-4.4287
X3.085Y-4.5287
X3.085Y-4.6287
X3.085Y-4.7287
X3.085Y-4.8287
X3.085Y-4.9287
X3.085Y-5.0287
X3.085Y-5.1287
X3.085Y-5.2287
X3.1559Y-1.4748
X3.1559Y-1.5748
X3.2559Y-1.4748
X3.2559Y-1.5748
T6
X2.6854Y-4.0768
X2.6854Y-5.0787
X2.7854Y-4.0768
X2.7854Y-5.0787
X2.8854Y-4.0768
X2.8854Y-5.0787
T7
X2.9724Y-2.1457
X2.9724Y-2.2457
X2.9724Y-2.3457
X3.059Y-1.7102
X3.059Y-1.9102
X3.159Y-1.7055
X3.159Y-1.9181
X3.259Y-1.7102
X3.259Y-1.9102
T8
X2.4398Y-1.5312
X2.4398Y-1.8682
X2.4409Y-2.0942
X2.4409Y-2.4312
X2.4409Y-2.6327
X2.4409Y-2.9697
X2.4409Y-3.1711
X2.4409Y-3.5081
T9
X3.159Y-2.0591
X3.159Y-2.3976
T0
M30
