%TF.GenerationSoftware,KiCad,Pcbnew,7.0.5*%
%TF.CreationDate,2023-09-13T13:06:11-07:00*%
%TF.ProjectId,16Bars,31364261-7273-42e6-9b69-6361645f7063,rev?*%
%TF.SameCoordinates,Original*%
%TF.FileFunction,Soldermask,Top*%
%TF.FilePolarity,Negative*%
%FSLAX46Y46*%
G04 Gerber Fmt 4.6, Leading zero omitted, Abs format (unit mm)*
G04 Created by KiCad (PCBNEW 7.0.5) date 2023-09-13 13:06:11*
%MOMM*%
%LPD*%
G01*
G04 APERTURE LIST*
G04 Aperture macros list*
%AMRoundRect*
0 Rectangle with rounded corners*
0 $1 Rounding radius*
0 $2 $3 $4 $5 $6 $7 $8 $9 X,Y pos of 4 corners*
0 Add a 4 corners polygon primitive as box body*
4,1,4,$2,$3,$4,$5,$6,$7,$8,$9,$2,$3,0*
0 Add four circle primitives for the rounded corners*
1,1,$1+$1,$2,$3*
1,1,$1+$1,$4,$5*
1,1,$1+$1,$6,$7*
1,1,$1+$1,$8,$9*
0 Add four rect primitives between the rounded corners*
20,1,$1+$1,$2,$3,$4,$5,0*
20,1,$1+$1,$4,$5,$6,$7,0*
20,1,$1+$1,$6,$7,$8,$9,0*
20,1,$1+$1,$8,$9,$2,$3,0*%
G04 Aperture macros list end*
%ADD10C,0.150000*%
%ADD11R,1.700000X1.700000*%
%ADD12O,1.700000X1.700000*%
%ADD13R,1.727200X2.032000*%
%ADD14O,1.727200X2.032000*%
%ADD15C,1.930400*%
%ADD16C,2.000000*%
%ADD17RoundRect,0.112500X-0.112500X0.187500X-0.112500X-0.187500X0.112500X-0.187500X0.112500X0.187500X0*%
%ADD18RoundRect,0.112500X0.112500X-0.187500X0.112500X0.187500X-0.112500X0.187500X-0.112500X-0.187500X0*%
%ADD19R,1.300000X1.300000*%
%ADD20C,1.300000*%
%ADD21C,2.100000*%
%ADD22C,1.400000*%
%ADD23R,2.000000X1.905000*%
%ADD24O,2.000000X1.905000*%
%ADD25R,1.800000X1.800000*%
%ADD26C,1.800000*%
%ADD27RoundRect,0.135000X0.135000X0.185000X-0.135000X0.185000X-0.135000X-0.185000X0.135000X-0.185000X0*%
%ADD28RoundRect,0.135000X-0.135000X-0.185000X0.135000X-0.185000X0.135000X0.185000X-0.135000X0.185000X0*%
%ADD29RoundRect,0.135000X0.185000X-0.135000X0.185000X0.135000X-0.185000X0.135000X-0.185000X-0.135000X0*%
%ADD30RoundRect,0.140000X-0.140000X-0.170000X0.140000X-0.170000X0.140000X0.170000X-0.140000X0.170000X0*%
%ADD31RoundRect,0.218750X-0.256250X0.218750X-0.256250X-0.218750X0.256250X-0.218750X0.256250X0.218750X0*%
%ADD32R,1.600000X1.600000*%
%ADD33C,1.600000*%
%ADD34O,1.600000X1.600000*%
G04 APERTURE END LIST*
D10*
X65300001Y-68600000D02*
G75*
G03*
X65300001Y-68600000I-1J0D01*
G01*
D11*
%TO.C,J2*%
X82700000Y-40000000D03*
D12*
X82700000Y-37460000D03*
X80160000Y-40000000D03*
X80160000Y-37460000D03*
X77620000Y-40000000D03*
X77620000Y-37460000D03*
X75080000Y-40000000D03*
X75080000Y-37460000D03*
X72540000Y-40000000D03*
X72540000Y-37460000D03*
%TD*%
D13*
%TO.C,J3*%
X68210000Y-129000000D03*
D14*
X70750000Y-129000000D03*
X73290000Y-129000000D03*
%TD*%
D13*
%TO.C,J7*%
X73290000Y-103550000D03*
D14*
X70750000Y-103550000D03*
X68210000Y-103550000D03*
%TD*%
D15*
%TO.C,J6*%
X62000000Y-89107000D03*
X62000000Y-78134200D03*
X62000000Y-80547200D03*
%TD*%
%TO.C,J5*%
X62000000Y-75429500D03*
X62000000Y-64456700D03*
X62000000Y-66869700D03*
%TD*%
%TO.C,J4*%
X62000000Y-61752000D03*
X62000000Y-50779200D03*
X62000000Y-53192200D03*
%TD*%
%TO.C,J1*%
X61970000Y-47452000D03*
X61970000Y-36479200D03*
X61970000Y-38892200D03*
%TD*%
D16*
%TO.C,SW1*%
X77697600Y-45980300D03*
X82777600Y-45980300D03*
X77697600Y-43440300D03*
X77697600Y-48520300D03*
X82777600Y-43440300D03*
X82777600Y-48520300D03*
X80237600Y-43320300D03*
X80237600Y-48720300D03*
%TD*%
D17*
%TO.C,D6*%
X67900000Y-40350000D03*
X67900000Y-42450000D03*
%TD*%
D18*
%TO.C,D5*%
X67900000Y-45950000D03*
X67900000Y-43850000D03*
%TD*%
D19*
%TO.C,SW3*%
X80237600Y-54600000D03*
D20*
X80237600Y-56600000D03*
X80237600Y-58600000D03*
D21*
X80237600Y-52300000D03*
X80237600Y-60900000D03*
%TD*%
D22*
%TO.C,S1*%
X79912600Y-70400000D03*
X79912600Y-72700000D03*
X79912600Y-75000000D03*
X79912600Y-77300000D03*
X79912600Y-79600000D03*
X79912600Y-68100000D03*
X79912600Y-81900000D03*
%TD*%
D23*
%TO.C,U1*%
X75500000Y-54500000D03*
D24*
X75500000Y-57040000D03*
X75500000Y-59580000D03*
%TD*%
D25*
%TO.C,D4*%
X68125000Y-83655000D03*
D26*
X70665000Y-83655000D03*
%TD*%
D25*
%TO.C,D3*%
X68320000Y-69977500D03*
D26*
X70860000Y-69977500D03*
%TD*%
D27*
%TO.C,R5*%
X67390000Y-39100000D03*
X68410000Y-39100000D03*
%TD*%
D25*
%TO.C,D1*%
X68225000Y-56300000D03*
D26*
X70765000Y-56300000D03*
%TD*%
D28*
%TO.C,R3*%
X67390000Y-80800000D03*
X68410000Y-80800000D03*
%TD*%
%TO.C,R2*%
X67590000Y-67100000D03*
X68610000Y-67100000D03*
%TD*%
D29*
%TO.C,R15*%
X76400000Y-51710000D03*
X76400000Y-50690000D03*
%TD*%
D30*
%TO.C,C11*%
X70380000Y-46000000D03*
X69420000Y-46000000D03*
%TD*%
D31*
%TO.C,PWR*%
X69800000Y-39787500D03*
X69800000Y-38212500D03*
%TD*%
D28*
%TO.C,R1*%
X67490000Y-53500000D03*
X68510000Y-53500000D03*
%TD*%
D27*
%TO.C,R12*%
X67390000Y-38000000D03*
X68410000Y-38000000D03*
%TD*%
D32*
%TO.C,C1*%
X72200000Y-45600000D03*
D33*
X72200000Y-47600000D03*
%TD*%
D32*
%TO.C,A1*%
X78360000Y-97250000D03*
D34*
X78360000Y-99790000D03*
X78360000Y-102330000D03*
X78360000Y-104870000D03*
X78360000Y-107410000D03*
X78360000Y-109950000D03*
X78360000Y-112490000D03*
X78360000Y-115030000D03*
X78360000Y-117570000D03*
X78360000Y-120110000D03*
X78360000Y-122650000D03*
X78360000Y-125190000D03*
X78360000Y-127730000D03*
X78360000Y-130270000D03*
X78360000Y-132810000D03*
X63120000Y-132810000D03*
X63120000Y-130270000D03*
X63120000Y-127730000D03*
X63120000Y-125190000D03*
X63120000Y-122650000D03*
X63120000Y-120110000D03*
X63120000Y-117570000D03*
X63120000Y-115030000D03*
X63120000Y-112490000D03*
X63120000Y-109950000D03*
X63120000Y-107410000D03*
X63120000Y-104870000D03*
X63120000Y-102330000D03*
X63120000Y-99790000D03*
X63120000Y-97250000D03*
%TD*%
M02*
