%TF.GenerationSoftware,KiCad,Pcbnew,7.0.5*%
%TF.CreationDate,2023-09-13T13:06:11-07:00*%
%TF.ProjectId,16Bars,31364261-7273-42e6-9b69-6361645f7063,rev?*%
%TF.SameCoordinates,Original*%
%TF.FileFunction,Soldermask,Bot*%
%TF.FilePolarity,Negative*%
%FSLAX46Y46*%
G04 Gerber Fmt 4.6, Leading zero omitted, Abs format (unit mm)*
G04 Created by KiCad (PCBNEW 7.0.5) date 2023-09-13 13:06:11*
%MOMM*%
%LPD*%
G01*
G04 APERTURE LIST*
%ADD10R,1.700000X1.700000*%
%ADD11O,1.700000X1.700000*%
%ADD12R,1.727200X2.032000*%
%ADD13O,1.727200X2.032000*%
%ADD14C,1.930400*%
%ADD15C,2.000000*%
%ADD16R,1.300000X1.300000*%
%ADD17C,1.300000*%
%ADD18C,2.100000*%
%ADD19C,1.400000*%
%ADD20R,2.000000X1.905000*%
%ADD21O,2.000000X1.905000*%
%ADD22R,1.800000X1.800000*%
%ADD23C,1.800000*%
%ADD24R,1.600000X1.600000*%
%ADD25C,1.600000*%
%ADD26O,1.600000X1.600000*%
G04 APERTURE END LIST*
D10*
%TO.C,J2*%
X82700000Y-40000000D03*
D11*
X82700000Y-37460000D03*
X80160000Y-40000000D03*
X80160000Y-37460000D03*
X77620000Y-40000000D03*
X77620000Y-37460000D03*
X75080000Y-40000000D03*
X75080000Y-37460000D03*
X72540000Y-40000000D03*
X72540000Y-37460000D03*
%TD*%
D12*
%TO.C,J3*%
X68210000Y-129000000D03*
D13*
X70750000Y-129000000D03*
X73290000Y-129000000D03*
%TD*%
D12*
%TO.C,J7*%
X73290000Y-103550000D03*
D13*
X70750000Y-103550000D03*
X68210000Y-103550000D03*
%TD*%
D14*
%TO.C,J6*%
X62000000Y-89107000D03*
X62000000Y-78134200D03*
X62000000Y-80547200D03*
%TD*%
%TO.C,J5*%
X62000000Y-75429500D03*
X62000000Y-64456700D03*
X62000000Y-66869700D03*
%TD*%
%TO.C,J4*%
X62000000Y-61752000D03*
X62000000Y-50779200D03*
X62000000Y-53192200D03*
%TD*%
%TO.C,J1*%
X61970000Y-47452000D03*
X61970000Y-36479200D03*
X61970000Y-38892200D03*
%TD*%
D15*
%TO.C,SW1*%
X77697600Y-45980300D03*
X82777600Y-45980300D03*
X77697600Y-43440300D03*
X77697600Y-48520300D03*
X82777600Y-43440300D03*
X82777600Y-48520300D03*
X80237600Y-43320300D03*
X80237600Y-48720300D03*
%TD*%
D16*
%TO.C,SW3*%
X80237600Y-54600000D03*
D17*
X80237600Y-56600000D03*
X80237600Y-58600000D03*
D18*
X80237600Y-52300000D03*
X80237600Y-60900000D03*
%TD*%
D19*
%TO.C,S1*%
X79912600Y-70400000D03*
X79912600Y-72700000D03*
X79912600Y-75000000D03*
X79912600Y-77300000D03*
X79912600Y-79600000D03*
X79912600Y-68100000D03*
X79912600Y-81900000D03*
%TD*%
D20*
%TO.C,U1*%
X75500000Y-54500000D03*
D21*
X75500000Y-57040000D03*
X75500000Y-59580000D03*
%TD*%
D22*
%TO.C,D4*%
X68125000Y-83655000D03*
D23*
X70665000Y-83655000D03*
%TD*%
D22*
%TO.C,D3*%
X68320000Y-69977500D03*
D23*
X70860000Y-69977500D03*
%TD*%
D22*
%TO.C,D1*%
X68225000Y-56300000D03*
D23*
X70765000Y-56300000D03*
%TD*%
D24*
%TO.C,C1*%
X72200000Y-45600000D03*
D25*
X72200000Y-47600000D03*
%TD*%
D24*
%TO.C,A1*%
X78360000Y-97250000D03*
D26*
X78360000Y-99790000D03*
X78360000Y-102330000D03*
X78360000Y-104870000D03*
X78360000Y-107410000D03*
X78360000Y-109950000D03*
X78360000Y-112490000D03*
X78360000Y-115030000D03*
X78360000Y-117570000D03*
X78360000Y-120110000D03*
X78360000Y-122650000D03*
X78360000Y-125190000D03*
X78360000Y-127730000D03*
X78360000Y-130270000D03*
X78360000Y-132810000D03*
X63120000Y-132810000D03*
X63120000Y-130270000D03*
X63120000Y-127730000D03*
X63120000Y-125190000D03*
X63120000Y-122650000D03*
X63120000Y-120110000D03*
X63120000Y-117570000D03*
X63120000Y-115030000D03*
X63120000Y-112490000D03*
X63120000Y-109950000D03*
X63120000Y-107410000D03*
X63120000Y-104870000D03*
X63120000Y-102330000D03*
X63120000Y-99790000D03*
X63120000Y-97250000D03*
%TD*%
M02*
