%TF.GenerationSoftware,KiCad,Pcbnew,7.0.5*%
%TF.CreationDate,2023-09-13T13:06:11-07:00*%
%TF.ProjectId,16Bars,31364261-7273-42e6-9b69-6361645f7063,rev?*%
%TF.SameCoordinates,Original*%
%TF.FileFunction,Legend,Top*%
%TF.FilePolarity,Positive*%
%FSLAX46Y46*%
G04 Gerber Fmt 4.6, Leading zero omitted, Abs format (unit mm)*
G04 Created by KiCad (PCBNEW 7.0.5) date 2023-09-13 13:06:11*
%MOMM*%
%LPD*%
G01*
G04 APERTURE LIST*
%ADD10C,0.275000*%
%ADD11C,0.200000*%
%ADD12C,0.160000*%
%ADD13C,0.152400*%
%ADD14C,0.150000*%
%ADD15C,0.120000*%
%ADD16C,0.127000*%
%ADD17C,0.254000*%
%ADD18C,0.446881*%
%ADD19C,0.100000*%
G04 APERTURE END LIST*
D10*
X83137500Y-54700000D02*
G75*
G03*
X83137500Y-54700000I-137500J0D01*
G01*
D11*
%TO.C,J3*%
X70959695Y-126308943D02*
X70578742Y-126575610D01*
X70959695Y-126766086D02*
X70159695Y-126766086D01*
X70159695Y-126766086D02*
X70159695Y-126461324D01*
X70159695Y-126461324D02*
X70197790Y-126385134D01*
X70197790Y-126385134D02*
X70235885Y-126347039D01*
X70235885Y-126347039D02*
X70312076Y-126308943D01*
X70312076Y-126308943D02*
X70426361Y-126308943D01*
X70426361Y-126308943D02*
X70502552Y-126347039D01*
X70502552Y-126347039D02*
X70540647Y-126385134D01*
X70540647Y-126385134D02*
X70578742Y-126461324D01*
X70578742Y-126461324D02*
X70578742Y-126766086D01*
X70921600Y-125661324D02*
X70959695Y-125737515D01*
X70959695Y-125737515D02*
X70959695Y-125889896D01*
X70959695Y-125889896D02*
X70921600Y-125966086D01*
X70921600Y-125966086D02*
X70845409Y-126004182D01*
X70845409Y-126004182D02*
X70540647Y-126004182D01*
X70540647Y-126004182D02*
X70464457Y-125966086D01*
X70464457Y-125966086D02*
X70426361Y-125889896D01*
X70426361Y-125889896D02*
X70426361Y-125737515D01*
X70426361Y-125737515D02*
X70464457Y-125661324D01*
X70464457Y-125661324D02*
X70540647Y-125623229D01*
X70540647Y-125623229D02*
X70616838Y-125623229D01*
X70616838Y-125623229D02*
X70693028Y-126004182D01*
X70921600Y-125318468D02*
X70959695Y-125242277D01*
X70959695Y-125242277D02*
X70959695Y-125089896D01*
X70959695Y-125089896D02*
X70921600Y-125013706D01*
X70921600Y-125013706D02*
X70845409Y-124975610D01*
X70845409Y-124975610D02*
X70807314Y-124975610D01*
X70807314Y-124975610D02*
X70731123Y-125013706D01*
X70731123Y-125013706D02*
X70693028Y-125089896D01*
X70693028Y-125089896D02*
X70693028Y-125204182D01*
X70693028Y-125204182D02*
X70654933Y-125280372D01*
X70654933Y-125280372D02*
X70578742Y-125318468D01*
X70578742Y-125318468D02*
X70540647Y-125318468D01*
X70540647Y-125318468D02*
X70464457Y-125280372D01*
X70464457Y-125280372D02*
X70426361Y-125204182D01*
X70426361Y-125204182D02*
X70426361Y-125089896D01*
X70426361Y-125089896D02*
X70464457Y-125013706D01*
X70921600Y-124327991D02*
X70959695Y-124404182D01*
X70959695Y-124404182D02*
X70959695Y-124556563D01*
X70959695Y-124556563D02*
X70921600Y-124632753D01*
X70921600Y-124632753D02*
X70845409Y-124670849D01*
X70845409Y-124670849D02*
X70540647Y-124670849D01*
X70540647Y-124670849D02*
X70464457Y-124632753D01*
X70464457Y-124632753D02*
X70426361Y-124556563D01*
X70426361Y-124556563D02*
X70426361Y-124404182D01*
X70426361Y-124404182D02*
X70464457Y-124327991D01*
X70464457Y-124327991D02*
X70540647Y-124289896D01*
X70540647Y-124289896D02*
X70616838Y-124289896D01*
X70616838Y-124289896D02*
X70693028Y-124670849D01*
X70426361Y-124061325D02*
X70426361Y-123756563D01*
X70159695Y-123947039D02*
X70845409Y-123947039D01*
X70845409Y-123947039D02*
X70921600Y-123908944D01*
X70921600Y-123908944D02*
X70959695Y-123832754D01*
X70959695Y-123832754D02*
X70959695Y-123756563D01*
X66314285Y-130852219D02*
X66980951Y-130852219D01*
X66980951Y-130852219D02*
X66552380Y-131852219D01*
X67314285Y-131804600D02*
X67457142Y-131852219D01*
X67457142Y-131852219D02*
X67695237Y-131852219D01*
X67695237Y-131852219D02*
X67790475Y-131804600D01*
X67790475Y-131804600D02*
X67838094Y-131756980D01*
X67838094Y-131756980D02*
X67885713Y-131661742D01*
X67885713Y-131661742D02*
X67885713Y-131566504D01*
X67885713Y-131566504D02*
X67838094Y-131471266D01*
X67838094Y-131471266D02*
X67790475Y-131423647D01*
X67790475Y-131423647D02*
X67695237Y-131376028D01*
X67695237Y-131376028D02*
X67504761Y-131328409D01*
X67504761Y-131328409D02*
X67409523Y-131280790D01*
X67409523Y-131280790D02*
X67361904Y-131233171D01*
X67361904Y-131233171D02*
X67314285Y-131137933D01*
X67314285Y-131137933D02*
X67314285Y-131042695D01*
X67314285Y-131042695D02*
X67361904Y-130947457D01*
X67361904Y-130947457D02*
X67409523Y-130899838D01*
X67409523Y-130899838D02*
X67504761Y-130852219D01*
X67504761Y-130852219D02*
X67742856Y-130852219D01*
X67742856Y-130852219D02*
X67885713Y-130899838D01*
X68695237Y-131804600D02*
X68599999Y-131852219D01*
X68599999Y-131852219D02*
X68409523Y-131852219D01*
X68409523Y-131852219D02*
X68314285Y-131804600D01*
X68314285Y-131804600D02*
X68266666Y-131709361D01*
X68266666Y-131709361D02*
X68266666Y-131328409D01*
X68266666Y-131328409D02*
X68314285Y-131233171D01*
X68314285Y-131233171D02*
X68409523Y-131185552D01*
X68409523Y-131185552D02*
X68599999Y-131185552D01*
X68599999Y-131185552D02*
X68695237Y-131233171D01*
X68695237Y-131233171D02*
X68742856Y-131328409D01*
X68742856Y-131328409D02*
X68742856Y-131423647D01*
X68742856Y-131423647D02*
X68266666Y-131518885D01*
X69599999Y-131185552D02*
X69599999Y-131995076D01*
X69599999Y-131995076D02*
X69552380Y-132090314D01*
X69552380Y-132090314D02*
X69504761Y-132137933D01*
X69504761Y-132137933D02*
X69409523Y-132185552D01*
X69409523Y-132185552D02*
X69266666Y-132185552D01*
X69266666Y-132185552D02*
X69171428Y-132137933D01*
X69599999Y-131804600D02*
X69504761Y-131852219D01*
X69504761Y-131852219D02*
X69314285Y-131852219D01*
X69314285Y-131852219D02*
X69219047Y-131804600D01*
X69219047Y-131804600D02*
X69171428Y-131756980D01*
X69171428Y-131756980D02*
X69123809Y-131661742D01*
X69123809Y-131661742D02*
X69123809Y-131376028D01*
X69123809Y-131376028D02*
X69171428Y-131280790D01*
X69171428Y-131280790D02*
X69219047Y-131233171D01*
X69219047Y-131233171D02*
X69314285Y-131185552D01*
X69314285Y-131185552D02*
X69504761Y-131185552D01*
X69504761Y-131185552D02*
X69599999Y-131233171D01*
X70076190Y-131852219D02*
X70076190Y-130852219D01*
X70076190Y-131328409D02*
X70647618Y-131328409D01*
X70647618Y-131852219D02*
X70647618Y-130852219D01*
X71504761Y-131804600D02*
X71409523Y-131852219D01*
X71409523Y-131852219D02*
X71219047Y-131852219D01*
X71219047Y-131852219D02*
X71123809Y-131804600D01*
X71123809Y-131804600D02*
X71076190Y-131709361D01*
X71076190Y-131709361D02*
X71076190Y-131328409D01*
X71076190Y-131328409D02*
X71123809Y-131233171D01*
X71123809Y-131233171D02*
X71219047Y-131185552D01*
X71219047Y-131185552D02*
X71409523Y-131185552D01*
X71409523Y-131185552D02*
X71504761Y-131233171D01*
X71504761Y-131233171D02*
X71552380Y-131328409D01*
X71552380Y-131328409D02*
X71552380Y-131423647D01*
X71552380Y-131423647D02*
X71076190Y-131518885D01*
X72409523Y-131852219D02*
X72409523Y-131328409D01*
X72409523Y-131328409D02*
X72361904Y-131233171D01*
X72361904Y-131233171D02*
X72266666Y-131185552D01*
X72266666Y-131185552D02*
X72076190Y-131185552D01*
X72076190Y-131185552D02*
X71980952Y-131233171D01*
X72409523Y-131804600D02*
X72314285Y-131852219D01*
X72314285Y-131852219D02*
X72076190Y-131852219D01*
X72076190Y-131852219D02*
X71980952Y-131804600D01*
X71980952Y-131804600D02*
X71933333Y-131709361D01*
X71933333Y-131709361D02*
X71933333Y-131614123D01*
X71933333Y-131614123D02*
X71980952Y-131518885D01*
X71980952Y-131518885D02*
X72076190Y-131471266D01*
X72076190Y-131471266D02*
X72314285Y-131471266D01*
X72314285Y-131471266D02*
X72409523Y-131423647D01*
X73314285Y-131852219D02*
X73314285Y-130852219D01*
X73314285Y-131804600D02*
X73219047Y-131852219D01*
X73219047Y-131852219D02*
X73028571Y-131852219D01*
X73028571Y-131852219D02*
X72933333Y-131804600D01*
X72933333Y-131804600D02*
X72885714Y-131756980D01*
X72885714Y-131756980D02*
X72838095Y-131661742D01*
X72838095Y-131661742D02*
X72838095Y-131376028D01*
X72838095Y-131376028D02*
X72885714Y-131280790D01*
X72885714Y-131280790D02*
X72933333Y-131233171D01*
X72933333Y-131233171D02*
X73028571Y-131185552D01*
X73028571Y-131185552D02*
X73219047Y-131185552D01*
X73219047Y-131185552D02*
X73314285Y-131233171D01*
X74171428Y-131804600D02*
X74076190Y-131852219D01*
X74076190Y-131852219D02*
X73885714Y-131852219D01*
X73885714Y-131852219D02*
X73790476Y-131804600D01*
X73790476Y-131804600D02*
X73742857Y-131709361D01*
X73742857Y-131709361D02*
X73742857Y-131328409D01*
X73742857Y-131328409D02*
X73790476Y-131233171D01*
X73790476Y-131233171D02*
X73885714Y-131185552D01*
X73885714Y-131185552D02*
X74076190Y-131185552D01*
X74076190Y-131185552D02*
X74171428Y-131233171D01*
X74171428Y-131233171D02*
X74219047Y-131328409D01*
X74219047Y-131328409D02*
X74219047Y-131423647D01*
X74219047Y-131423647D02*
X73742857Y-131518885D01*
X74647619Y-131852219D02*
X74647619Y-131185552D01*
X74647619Y-131376028D02*
X74695238Y-131280790D01*
X74695238Y-131280790D02*
X74742857Y-131233171D01*
X74742857Y-131233171D02*
X74838095Y-131185552D01*
X74838095Y-131185552D02*
X74933333Y-131185552D01*
X68154933Y-127144111D02*
X68154933Y-126534588D01*
X68459695Y-126839349D02*
X67850171Y-126839349D01*
X67659695Y-125772683D02*
X67659695Y-126153635D01*
X67659695Y-126153635D02*
X68040647Y-126191731D01*
X68040647Y-126191731D02*
X68002552Y-126153635D01*
X68002552Y-126153635D02*
X67964457Y-126077445D01*
X67964457Y-126077445D02*
X67964457Y-125886969D01*
X67964457Y-125886969D02*
X68002552Y-125810778D01*
X68002552Y-125810778D02*
X68040647Y-125772683D01*
X68040647Y-125772683D02*
X68116838Y-125734588D01*
X68116838Y-125734588D02*
X68307314Y-125734588D01*
X68307314Y-125734588D02*
X68383504Y-125772683D01*
X68383504Y-125772683D02*
X68421600Y-125810778D01*
X68421600Y-125810778D02*
X68459695Y-125886969D01*
X68459695Y-125886969D02*
X68459695Y-126077445D01*
X68459695Y-126077445D02*
X68421600Y-126153635D01*
X68421600Y-126153635D02*
X68383504Y-126191731D01*
X67926361Y-125467921D02*
X68459695Y-125277445D01*
X68459695Y-125277445D02*
X67926361Y-125086968D01*
D12*
X73685584Y-125999999D02*
X73723680Y-126038095D01*
X73723680Y-126038095D02*
X73761775Y-126152380D01*
X73761775Y-126152380D02*
X73761775Y-126228571D01*
X73761775Y-126228571D02*
X73723680Y-126342857D01*
X73723680Y-126342857D02*
X73647489Y-126419047D01*
X73647489Y-126419047D02*
X73571299Y-126457142D01*
X73571299Y-126457142D02*
X73418918Y-126495238D01*
X73418918Y-126495238D02*
X73304632Y-126495238D01*
X73304632Y-126495238D02*
X73152251Y-126457142D01*
X73152251Y-126457142D02*
X73076060Y-126419047D01*
X73076060Y-126419047D02*
X72999870Y-126342857D01*
X72999870Y-126342857D02*
X72961775Y-126228571D01*
X72961775Y-126228571D02*
X72961775Y-126152380D01*
X72961775Y-126152380D02*
X72999870Y-126038095D01*
X72999870Y-126038095D02*
X73037965Y-125999999D01*
X73761775Y-125542857D02*
X73723680Y-125619047D01*
X73723680Y-125619047D02*
X73647489Y-125657142D01*
X73647489Y-125657142D02*
X72961775Y-125657142D01*
X73761775Y-125123809D02*
X73723680Y-125199999D01*
X73723680Y-125199999D02*
X73685584Y-125238094D01*
X73685584Y-125238094D02*
X73609394Y-125276190D01*
X73609394Y-125276190D02*
X73380822Y-125276190D01*
X73380822Y-125276190D02*
X73304632Y-125238094D01*
X73304632Y-125238094D02*
X73266537Y-125199999D01*
X73266537Y-125199999D02*
X73228441Y-125123809D01*
X73228441Y-125123809D02*
X73228441Y-125009523D01*
X73228441Y-125009523D02*
X73266537Y-124933332D01*
X73266537Y-124933332D02*
X73304632Y-124895237D01*
X73304632Y-124895237D02*
X73380822Y-124857142D01*
X73380822Y-124857142D02*
X73609394Y-124857142D01*
X73609394Y-124857142D02*
X73685584Y-124895237D01*
X73685584Y-124895237D02*
X73723680Y-124933332D01*
X73723680Y-124933332D02*
X73761775Y-125009523D01*
X73761775Y-125009523D02*
X73761775Y-125123809D01*
X73723680Y-124171427D02*
X73761775Y-124247618D01*
X73761775Y-124247618D02*
X73761775Y-124399999D01*
X73761775Y-124399999D02*
X73723680Y-124476189D01*
X73723680Y-124476189D02*
X73685584Y-124514284D01*
X73685584Y-124514284D02*
X73609394Y-124552380D01*
X73609394Y-124552380D02*
X73380822Y-124552380D01*
X73380822Y-124552380D02*
X73304632Y-124514284D01*
X73304632Y-124514284D02*
X73266537Y-124476189D01*
X73266537Y-124476189D02*
X73228441Y-124399999D01*
X73228441Y-124399999D02*
X73228441Y-124247618D01*
X73228441Y-124247618D02*
X73266537Y-124171427D01*
X73761775Y-123828570D02*
X72961775Y-123828570D01*
X73457013Y-123752380D02*
X73761775Y-123523808D01*
X73228441Y-123523808D02*
X73533203Y-123828570D01*
X73342727Y-122914285D02*
X73380822Y-122799999D01*
X73380822Y-122799999D02*
X73418918Y-122761904D01*
X73418918Y-122761904D02*
X73495108Y-122723808D01*
X73495108Y-122723808D02*
X73609394Y-122723808D01*
X73609394Y-122723808D02*
X73685584Y-122761904D01*
X73685584Y-122761904D02*
X73723680Y-122799999D01*
X73723680Y-122799999D02*
X73761775Y-122876189D01*
X73761775Y-122876189D02*
X73761775Y-123180951D01*
X73761775Y-123180951D02*
X72961775Y-123180951D01*
X72961775Y-123180951D02*
X72961775Y-122914285D01*
X72961775Y-122914285D02*
X72999870Y-122838094D01*
X72999870Y-122838094D02*
X73037965Y-122799999D01*
X73037965Y-122799999D02*
X73114156Y-122761904D01*
X73114156Y-122761904D02*
X73190346Y-122761904D01*
X73190346Y-122761904D02*
X73266537Y-122799999D01*
X73266537Y-122799999D02*
X73304632Y-122838094D01*
X73304632Y-122838094D02*
X73342727Y-122914285D01*
X73342727Y-122914285D02*
X73342727Y-123180951D01*
X73761775Y-122038094D02*
X73342727Y-122038094D01*
X73342727Y-122038094D02*
X73266537Y-122076189D01*
X73266537Y-122076189D02*
X73228441Y-122152380D01*
X73228441Y-122152380D02*
X73228441Y-122304761D01*
X73228441Y-122304761D02*
X73266537Y-122380951D01*
X73723680Y-122038094D02*
X73761775Y-122114285D01*
X73761775Y-122114285D02*
X73761775Y-122304761D01*
X73761775Y-122304761D02*
X73723680Y-122380951D01*
X73723680Y-122380951D02*
X73647489Y-122419047D01*
X73647489Y-122419047D02*
X73571299Y-122419047D01*
X73571299Y-122419047D02*
X73495108Y-122380951D01*
X73495108Y-122380951D02*
X73457013Y-122304761D01*
X73457013Y-122304761D02*
X73457013Y-122114285D01*
X73457013Y-122114285D02*
X73418918Y-122038094D01*
X73761775Y-121657141D02*
X73228441Y-121657141D01*
X73380822Y-121657141D02*
X73304632Y-121619046D01*
X73304632Y-121619046D02*
X73266537Y-121580951D01*
X73266537Y-121580951D02*
X73228441Y-121504760D01*
X73228441Y-121504760D02*
X73228441Y-121428570D01*
D11*
%TO.C,J7*%
X67179217Y-105385530D02*
X67103027Y-105347435D01*
X67103027Y-105347435D02*
X66988741Y-105347435D01*
X66988741Y-105347435D02*
X66874455Y-105385530D01*
X66874455Y-105385530D02*
X66798265Y-105461720D01*
X66798265Y-105461720D02*
X66760170Y-105537911D01*
X66760170Y-105537911D02*
X66722074Y-105690292D01*
X66722074Y-105690292D02*
X66722074Y-105804578D01*
X66722074Y-105804578D02*
X66760170Y-105956959D01*
X66760170Y-105956959D02*
X66798265Y-106033149D01*
X66798265Y-106033149D02*
X66874455Y-106109340D01*
X66874455Y-106109340D02*
X66988741Y-106147435D01*
X66988741Y-106147435D02*
X67064932Y-106147435D01*
X67064932Y-106147435D02*
X67179217Y-106109340D01*
X67179217Y-106109340D02*
X67217313Y-106071244D01*
X67217313Y-106071244D02*
X67217313Y-105804578D01*
X67217313Y-105804578D02*
X67064932Y-105804578D01*
X67560170Y-106147435D02*
X67560170Y-105347435D01*
X67560170Y-105347435D02*
X68017313Y-106147435D01*
X68017313Y-106147435D02*
X68017313Y-105347435D01*
X68398265Y-106147435D02*
X68398265Y-105347435D01*
X68398265Y-105347435D02*
X68588741Y-105347435D01*
X68588741Y-105347435D02*
X68703027Y-105385530D01*
X68703027Y-105385530D02*
X68779217Y-105461720D01*
X68779217Y-105461720D02*
X68817312Y-105537911D01*
X68817312Y-105537911D02*
X68855408Y-105690292D01*
X68855408Y-105690292D02*
X68855408Y-105804578D01*
X68855408Y-105804578D02*
X68817312Y-105956959D01*
X68817312Y-105956959D02*
X68779217Y-106033149D01*
X68779217Y-106033149D02*
X68703027Y-106109340D01*
X68703027Y-106109340D02*
X68588741Y-106147435D01*
X68588741Y-106147435D02*
X68398265Y-106147435D01*
X70226836Y-105385530D02*
X70150646Y-105347435D01*
X70150646Y-105347435D02*
X70036360Y-105347435D01*
X70036360Y-105347435D02*
X69922074Y-105385530D01*
X69922074Y-105385530D02*
X69845884Y-105461720D01*
X69845884Y-105461720D02*
X69807789Y-105537911D01*
X69807789Y-105537911D02*
X69769693Y-105690292D01*
X69769693Y-105690292D02*
X69769693Y-105804578D01*
X69769693Y-105804578D02*
X69807789Y-105956959D01*
X69807789Y-105956959D02*
X69845884Y-106033149D01*
X69845884Y-106033149D02*
X69922074Y-106109340D01*
X69922074Y-106109340D02*
X70036360Y-106147435D01*
X70036360Y-106147435D02*
X70112551Y-106147435D01*
X70112551Y-106147435D02*
X70226836Y-106109340D01*
X70226836Y-106109340D02*
X70264932Y-106071244D01*
X70264932Y-106071244D02*
X70264932Y-105804578D01*
X70264932Y-105804578D02*
X70112551Y-105804578D01*
X70607789Y-106147435D02*
X70607789Y-105347435D01*
X70607789Y-105347435D02*
X71064932Y-106147435D01*
X71064932Y-106147435D02*
X71064932Y-105347435D01*
X71445884Y-106147435D02*
X71445884Y-105347435D01*
X71445884Y-105347435D02*
X71636360Y-105347435D01*
X71636360Y-105347435D02*
X71750646Y-105385530D01*
X71750646Y-105385530D02*
X71826836Y-105461720D01*
X71826836Y-105461720D02*
X71864931Y-105537911D01*
X71864931Y-105537911D02*
X71903027Y-105690292D01*
X71903027Y-105690292D02*
X71903027Y-105804578D01*
X71903027Y-105804578D02*
X71864931Y-105956959D01*
X71864931Y-105956959D02*
X71826836Y-106033149D01*
X71826836Y-106033149D02*
X71750646Y-106109340D01*
X71750646Y-106109340D02*
X71636360Y-106147435D01*
X71636360Y-106147435D02*
X71445884Y-106147435D01*
X73274455Y-105385530D02*
X73198265Y-105347435D01*
X73198265Y-105347435D02*
X73083979Y-105347435D01*
X73083979Y-105347435D02*
X72969693Y-105385530D01*
X72969693Y-105385530D02*
X72893503Y-105461720D01*
X72893503Y-105461720D02*
X72855408Y-105537911D01*
X72855408Y-105537911D02*
X72817312Y-105690292D01*
X72817312Y-105690292D02*
X72817312Y-105804578D01*
X72817312Y-105804578D02*
X72855408Y-105956959D01*
X72855408Y-105956959D02*
X72893503Y-106033149D01*
X72893503Y-106033149D02*
X72969693Y-106109340D01*
X72969693Y-106109340D02*
X73083979Y-106147435D01*
X73083979Y-106147435D02*
X73160170Y-106147435D01*
X73160170Y-106147435D02*
X73274455Y-106109340D01*
X73274455Y-106109340D02*
X73312551Y-106071244D01*
X73312551Y-106071244D02*
X73312551Y-105804578D01*
X73312551Y-105804578D02*
X73160170Y-105804578D01*
X73655408Y-106147435D02*
X73655408Y-105347435D01*
X73655408Y-105347435D02*
X74112551Y-106147435D01*
X74112551Y-106147435D02*
X74112551Y-105347435D01*
X74493503Y-106147435D02*
X74493503Y-105347435D01*
X74493503Y-105347435D02*
X74683979Y-105347435D01*
X74683979Y-105347435D02*
X74798265Y-105385530D01*
X74798265Y-105385530D02*
X74874455Y-105461720D01*
X74874455Y-105461720D02*
X74912550Y-105537911D01*
X74912550Y-105537911D02*
X74950646Y-105690292D01*
X74950646Y-105690292D02*
X74950646Y-105804578D01*
X74950646Y-105804578D02*
X74912550Y-105956959D01*
X74912550Y-105956959D02*
X74874455Y-106033149D01*
X74874455Y-106033149D02*
X74798265Y-106109340D01*
X74798265Y-106109340D02*
X74683979Y-106147435D01*
X74683979Y-106147435D02*
X74493503Y-106147435D01*
X66590476Y-100602219D02*
X67257142Y-100602219D01*
X67257142Y-100602219D02*
X66828571Y-101602219D01*
X67590476Y-101554600D02*
X67733333Y-101602219D01*
X67733333Y-101602219D02*
X67971428Y-101602219D01*
X67971428Y-101602219D02*
X68066666Y-101554600D01*
X68066666Y-101554600D02*
X68114285Y-101506980D01*
X68114285Y-101506980D02*
X68161904Y-101411742D01*
X68161904Y-101411742D02*
X68161904Y-101316504D01*
X68161904Y-101316504D02*
X68114285Y-101221266D01*
X68114285Y-101221266D02*
X68066666Y-101173647D01*
X68066666Y-101173647D02*
X67971428Y-101126028D01*
X67971428Y-101126028D02*
X67780952Y-101078409D01*
X67780952Y-101078409D02*
X67685714Y-101030790D01*
X67685714Y-101030790D02*
X67638095Y-100983171D01*
X67638095Y-100983171D02*
X67590476Y-100887933D01*
X67590476Y-100887933D02*
X67590476Y-100792695D01*
X67590476Y-100792695D02*
X67638095Y-100697457D01*
X67638095Y-100697457D02*
X67685714Y-100649838D01*
X67685714Y-100649838D02*
X67780952Y-100602219D01*
X67780952Y-100602219D02*
X68019047Y-100602219D01*
X68019047Y-100602219D02*
X68161904Y-100649838D01*
X68971428Y-101554600D02*
X68876190Y-101602219D01*
X68876190Y-101602219D02*
X68685714Y-101602219D01*
X68685714Y-101602219D02*
X68590476Y-101554600D01*
X68590476Y-101554600D02*
X68542857Y-101459361D01*
X68542857Y-101459361D02*
X68542857Y-101078409D01*
X68542857Y-101078409D02*
X68590476Y-100983171D01*
X68590476Y-100983171D02*
X68685714Y-100935552D01*
X68685714Y-100935552D02*
X68876190Y-100935552D01*
X68876190Y-100935552D02*
X68971428Y-100983171D01*
X68971428Y-100983171D02*
X69019047Y-101078409D01*
X69019047Y-101078409D02*
X69019047Y-101173647D01*
X69019047Y-101173647D02*
X68542857Y-101268885D01*
X69876190Y-100935552D02*
X69876190Y-101745076D01*
X69876190Y-101745076D02*
X69828571Y-101840314D01*
X69828571Y-101840314D02*
X69780952Y-101887933D01*
X69780952Y-101887933D02*
X69685714Y-101935552D01*
X69685714Y-101935552D02*
X69542857Y-101935552D01*
X69542857Y-101935552D02*
X69447619Y-101887933D01*
X69876190Y-101554600D02*
X69780952Y-101602219D01*
X69780952Y-101602219D02*
X69590476Y-101602219D01*
X69590476Y-101602219D02*
X69495238Y-101554600D01*
X69495238Y-101554600D02*
X69447619Y-101506980D01*
X69447619Y-101506980D02*
X69400000Y-101411742D01*
X69400000Y-101411742D02*
X69400000Y-101126028D01*
X69400000Y-101126028D02*
X69447619Y-101030790D01*
X69447619Y-101030790D02*
X69495238Y-100983171D01*
X69495238Y-100983171D02*
X69590476Y-100935552D01*
X69590476Y-100935552D02*
X69780952Y-100935552D01*
X69780952Y-100935552D02*
X69876190Y-100983171D01*
X70876190Y-100649838D02*
X70780952Y-100602219D01*
X70780952Y-100602219D02*
X70638095Y-100602219D01*
X70638095Y-100602219D02*
X70495238Y-100649838D01*
X70495238Y-100649838D02*
X70400000Y-100745076D01*
X70400000Y-100745076D02*
X70352381Y-100840314D01*
X70352381Y-100840314D02*
X70304762Y-101030790D01*
X70304762Y-101030790D02*
X70304762Y-101173647D01*
X70304762Y-101173647D02*
X70352381Y-101364123D01*
X70352381Y-101364123D02*
X70400000Y-101459361D01*
X70400000Y-101459361D02*
X70495238Y-101554600D01*
X70495238Y-101554600D02*
X70638095Y-101602219D01*
X70638095Y-101602219D02*
X70733333Y-101602219D01*
X70733333Y-101602219D02*
X70876190Y-101554600D01*
X70876190Y-101554600D02*
X70923809Y-101506980D01*
X70923809Y-101506980D02*
X70923809Y-101173647D01*
X70923809Y-101173647D02*
X70733333Y-101173647D01*
X71352381Y-101602219D02*
X71352381Y-100935552D01*
X71352381Y-101126028D02*
X71400000Y-101030790D01*
X71400000Y-101030790D02*
X71447619Y-100983171D01*
X71447619Y-100983171D02*
X71542857Y-100935552D01*
X71542857Y-100935552D02*
X71638095Y-100935552D01*
X72114286Y-101602219D02*
X72019048Y-101554600D01*
X72019048Y-101554600D02*
X71971429Y-101506980D01*
X71971429Y-101506980D02*
X71923810Y-101411742D01*
X71923810Y-101411742D02*
X71923810Y-101126028D01*
X71923810Y-101126028D02*
X71971429Y-101030790D01*
X71971429Y-101030790D02*
X72019048Y-100983171D01*
X72019048Y-100983171D02*
X72114286Y-100935552D01*
X72114286Y-100935552D02*
X72257143Y-100935552D01*
X72257143Y-100935552D02*
X72352381Y-100983171D01*
X72352381Y-100983171D02*
X72400000Y-101030790D01*
X72400000Y-101030790D02*
X72447619Y-101126028D01*
X72447619Y-101126028D02*
X72447619Y-101411742D01*
X72447619Y-101411742D02*
X72400000Y-101506980D01*
X72400000Y-101506980D02*
X72352381Y-101554600D01*
X72352381Y-101554600D02*
X72257143Y-101602219D01*
X72257143Y-101602219D02*
X72114286Y-101602219D01*
X73304762Y-100935552D02*
X73304762Y-101602219D01*
X72876191Y-100935552D02*
X72876191Y-101459361D01*
X72876191Y-101459361D02*
X72923810Y-101554600D01*
X72923810Y-101554600D02*
X73019048Y-101602219D01*
X73019048Y-101602219D02*
X73161905Y-101602219D01*
X73161905Y-101602219D02*
X73257143Y-101554600D01*
X73257143Y-101554600D02*
X73304762Y-101506980D01*
X73780953Y-100935552D02*
X73780953Y-101602219D01*
X73780953Y-101030790D02*
X73828572Y-100983171D01*
X73828572Y-100983171D02*
X73923810Y-100935552D01*
X73923810Y-100935552D02*
X74066667Y-100935552D01*
X74066667Y-100935552D02*
X74161905Y-100983171D01*
X74161905Y-100983171D02*
X74209524Y-101078409D01*
X74209524Y-101078409D02*
X74209524Y-101602219D01*
X75114286Y-101602219D02*
X75114286Y-100602219D01*
X75114286Y-101554600D02*
X75019048Y-101602219D01*
X75019048Y-101602219D02*
X74828572Y-101602219D01*
X74828572Y-101602219D02*
X74733334Y-101554600D01*
X74733334Y-101554600D02*
X74685715Y-101506980D01*
X74685715Y-101506980D02*
X74638096Y-101411742D01*
X74638096Y-101411742D02*
X74638096Y-101126028D01*
X74638096Y-101126028D02*
X74685715Y-101030790D01*
X74685715Y-101030790D02*
X74733334Y-100983171D01*
X74733334Y-100983171D02*
X74828572Y-100935552D01*
X74828572Y-100935552D02*
X75019048Y-100935552D01*
X75019048Y-100935552D02*
X75114286Y-100983171D01*
D13*
%TO.C,J6*%
X67337922Y-87367760D02*
X68199708Y-87367760D01*
X68199708Y-87367760D02*
X68372065Y-87425213D01*
X68372065Y-87425213D02*
X68486970Y-87540117D01*
X68486970Y-87540117D02*
X68544422Y-87712475D01*
X68544422Y-87712475D02*
X68544422Y-87827379D01*
X67337922Y-86276165D02*
X67337922Y-86505975D01*
X67337922Y-86505975D02*
X67395374Y-86620879D01*
X67395374Y-86620879D02*
X67452827Y-86678332D01*
X67452827Y-86678332D02*
X67625184Y-86793237D01*
X67625184Y-86793237D02*
X67854993Y-86850689D01*
X67854993Y-86850689D02*
X68314612Y-86850689D01*
X68314612Y-86850689D02*
X68429517Y-86793237D01*
X68429517Y-86793237D02*
X68486970Y-86735784D01*
X68486970Y-86735784D02*
X68544422Y-86620879D01*
X68544422Y-86620879D02*
X68544422Y-86391070D01*
X68544422Y-86391070D02*
X68486970Y-86276165D01*
X68486970Y-86276165D02*
X68429517Y-86218713D01*
X68429517Y-86218713D02*
X68314612Y-86161260D01*
X68314612Y-86161260D02*
X68027350Y-86161260D01*
X68027350Y-86161260D02*
X67912446Y-86218713D01*
X67912446Y-86218713D02*
X67854993Y-86276165D01*
X67854993Y-86276165D02*
X67797541Y-86391070D01*
X67797541Y-86391070D02*
X67797541Y-86620879D01*
X67797541Y-86620879D02*
X67854993Y-86735784D01*
X67854993Y-86735784D02*
X67912446Y-86793237D01*
X67912446Y-86793237D02*
X68027350Y-86850689D01*
%TO.C,J5*%
X67237922Y-75567760D02*
X68099708Y-75567760D01*
X68099708Y-75567760D02*
X68272065Y-75625213D01*
X68272065Y-75625213D02*
X68386970Y-75740117D01*
X68386970Y-75740117D02*
X68444422Y-75912475D01*
X68444422Y-75912475D02*
X68444422Y-76027379D01*
X67237922Y-74418713D02*
X67237922Y-74993237D01*
X67237922Y-74993237D02*
X67812446Y-75050689D01*
X67812446Y-75050689D02*
X67754993Y-74993237D01*
X67754993Y-74993237D02*
X67697541Y-74878332D01*
X67697541Y-74878332D02*
X67697541Y-74591070D01*
X67697541Y-74591070D02*
X67754993Y-74476165D01*
X67754993Y-74476165D02*
X67812446Y-74418713D01*
X67812446Y-74418713D02*
X67927350Y-74361260D01*
X67927350Y-74361260D02*
X68214612Y-74361260D01*
X68214612Y-74361260D02*
X68329517Y-74418713D01*
X68329517Y-74418713D02*
X68386970Y-74476165D01*
X68386970Y-74476165D02*
X68444422Y-74591070D01*
X68444422Y-74591070D02*
X68444422Y-74878332D01*
X68444422Y-74878332D02*
X68386970Y-74993237D01*
X68386970Y-74993237D02*
X68329517Y-75050689D01*
%TO.C,J4*%
X67137922Y-61867760D02*
X67999708Y-61867760D01*
X67999708Y-61867760D02*
X68172065Y-61925213D01*
X68172065Y-61925213D02*
X68286970Y-62040117D01*
X68286970Y-62040117D02*
X68344422Y-62212475D01*
X68344422Y-62212475D02*
X68344422Y-62327379D01*
X67540089Y-60776165D02*
X68344422Y-60776165D01*
X67080470Y-61063427D02*
X67942255Y-61350689D01*
X67942255Y-61350689D02*
X67942255Y-60603808D01*
%TO.C,J1*%
X67137922Y-49267760D02*
X67999708Y-49267760D01*
X67999708Y-49267760D02*
X68172065Y-49325213D01*
X68172065Y-49325213D02*
X68286970Y-49440117D01*
X68286970Y-49440117D02*
X68344422Y-49612475D01*
X68344422Y-49612475D02*
X68344422Y-49727379D01*
X68344422Y-48061260D02*
X68344422Y-48750689D01*
X68344422Y-48405975D02*
X67137922Y-48405975D01*
X67137922Y-48405975D02*
X67310279Y-48520879D01*
X67310279Y-48520879D02*
X67425184Y-48635784D01*
X67425184Y-48635784D02*
X67482636Y-48750689D01*
D14*
%TO.C,SW1*%
X73466667Y-48207200D02*
X73609524Y-48254819D01*
X73609524Y-48254819D02*
X73847619Y-48254819D01*
X73847619Y-48254819D02*
X73942857Y-48207200D01*
X73942857Y-48207200D02*
X73990476Y-48159580D01*
X73990476Y-48159580D02*
X74038095Y-48064342D01*
X74038095Y-48064342D02*
X74038095Y-47969104D01*
X74038095Y-47969104D02*
X73990476Y-47873866D01*
X73990476Y-47873866D02*
X73942857Y-47826247D01*
X73942857Y-47826247D02*
X73847619Y-47778628D01*
X73847619Y-47778628D02*
X73657143Y-47731009D01*
X73657143Y-47731009D02*
X73561905Y-47683390D01*
X73561905Y-47683390D02*
X73514286Y-47635771D01*
X73514286Y-47635771D02*
X73466667Y-47540533D01*
X73466667Y-47540533D02*
X73466667Y-47445295D01*
X73466667Y-47445295D02*
X73514286Y-47350057D01*
X73514286Y-47350057D02*
X73561905Y-47302438D01*
X73561905Y-47302438D02*
X73657143Y-47254819D01*
X73657143Y-47254819D02*
X73895238Y-47254819D01*
X73895238Y-47254819D02*
X74038095Y-47302438D01*
X74371429Y-47254819D02*
X74609524Y-48254819D01*
X74609524Y-48254819D02*
X74800000Y-47540533D01*
X74800000Y-47540533D02*
X74990476Y-48254819D01*
X74990476Y-48254819D02*
X75228572Y-47254819D01*
X76133333Y-48254819D02*
X75561905Y-48254819D01*
X75847619Y-48254819D02*
X75847619Y-47254819D01*
X75847619Y-47254819D02*
X75752381Y-47397676D01*
X75752381Y-47397676D02*
X75657143Y-47492914D01*
X75657143Y-47492914D02*
X75561905Y-47540533D01*
%TO.C,D6*%
X70204819Y-42138094D02*
X69204819Y-42138094D01*
X69204819Y-42138094D02*
X69204819Y-41899999D01*
X69204819Y-41899999D02*
X69252438Y-41757142D01*
X69252438Y-41757142D02*
X69347676Y-41661904D01*
X69347676Y-41661904D02*
X69442914Y-41614285D01*
X69442914Y-41614285D02*
X69633390Y-41566666D01*
X69633390Y-41566666D02*
X69776247Y-41566666D01*
X69776247Y-41566666D02*
X69966723Y-41614285D01*
X69966723Y-41614285D02*
X70061961Y-41661904D01*
X70061961Y-41661904D02*
X70157200Y-41757142D01*
X70157200Y-41757142D02*
X70204819Y-41899999D01*
X70204819Y-41899999D02*
X70204819Y-42138094D01*
X69204819Y-40709523D02*
X69204819Y-40899999D01*
X69204819Y-40899999D02*
X69252438Y-40995237D01*
X69252438Y-40995237D02*
X69300057Y-41042856D01*
X69300057Y-41042856D02*
X69442914Y-41138094D01*
X69442914Y-41138094D02*
X69633390Y-41185713D01*
X69633390Y-41185713D02*
X70014342Y-41185713D01*
X70014342Y-41185713D02*
X70109580Y-41138094D01*
X70109580Y-41138094D02*
X70157200Y-41090475D01*
X70157200Y-41090475D02*
X70204819Y-40995237D01*
X70204819Y-40995237D02*
X70204819Y-40804761D01*
X70204819Y-40804761D02*
X70157200Y-40709523D01*
X70157200Y-40709523D02*
X70109580Y-40661904D01*
X70109580Y-40661904D02*
X70014342Y-40614285D01*
X70014342Y-40614285D02*
X69776247Y-40614285D01*
X69776247Y-40614285D02*
X69681009Y-40661904D01*
X69681009Y-40661904D02*
X69633390Y-40709523D01*
X69633390Y-40709523D02*
X69585771Y-40804761D01*
X69585771Y-40804761D02*
X69585771Y-40995237D01*
X69585771Y-40995237D02*
X69633390Y-41090475D01*
X69633390Y-41090475D02*
X69681009Y-41138094D01*
X69681009Y-41138094D02*
X69776247Y-41185713D01*
%TO.C,D5*%
X67161905Y-47754819D02*
X67161905Y-46754819D01*
X67161905Y-46754819D02*
X67400000Y-46754819D01*
X67400000Y-46754819D02*
X67542857Y-46802438D01*
X67542857Y-46802438D02*
X67638095Y-46897676D01*
X67638095Y-46897676D02*
X67685714Y-46992914D01*
X67685714Y-46992914D02*
X67733333Y-47183390D01*
X67733333Y-47183390D02*
X67733333Y-47326247D01*
X67733333Y-47326247D02*
X67685714Y-47516723D01*
X67685714Y-47516723D02*
X67638095Y-47611961D01*
X67638095Y-47611961D02*
X67542857Y-47707200D01*
X67542857Y-47707200D02*
X67400000Y-47754819D01*
X67400000Y-47754819D02*
X67161905Y-47754819D01*
X68638095Y-46754819D02*
X68161905Y-46754819D01*
X68161905Y-46754819D02*
X68114286Y-47231009D01*
X68114286Y-47231009D02*
X68161905Y-47183390D01*
X68161905Y-47183390D02*
X68257143Y-47135771D01*
X68257143Y-47135771D02*
X68495238Y-47135771D01*
X68495238Y-47135771D02*
X68590476Y-47183390D01*
X68590476Y-47183390D02*
X68638095Y-47231009D01*
X68638095Y-47231009D02*
X68685714Y-47326247D01*
X68685714Y-47326247D02*
X68685714Y-47564342D01*
X68685714Y-47564342D02*
X68638095Y-47659580D01*
X68638095Y-47659580D02*
X68590476Y-47707200D01*
X68590476Y-47707200D02*
X68495238Y-47754819D01*
X68495238Y-47754819D02*
X68257143Y-47754819D01*
X68257143Y-47754819D02*
X68161905Y-47707200D01*
X68161905Y-47707200D02*
X68114286Y-47659580D01*
%TO.C,SW3*%
X83891000Y-58059999D02*
X83925285Y-57957142D01*
X83925285Y-57957142D02*
X83925285Y-57785713D01*
X83925285Y-57785713D02*
X83891000Y-57717142D01*
X83891000Y-57717142D02*
X83856714Y-57682856D01*
X83856714Y-57682856D02*
X83788142Y-57648570D01*
X83788142Y-57648570D02*
X83719571Y-57648570D01*
X83719571Y-57648570D02*
X83651000Y-57682856D01*
X83651000Y-57682856D02*
X83616714Y-57717142D01*
X83616714Y-57717142D02*
X83582428Y-57785713D01*
X83582428Y-57785713D02*
X83548142Y-57922856D01*
X83548142Y-57922856D02*
X83513857Y-57991427D01*
X83513857Y-57991427D02*
X83479571Y-58025713D01*
X83479571Y-58025713D02*
X83411000Y-58059999D01*
X83411000Y-58059999D02*
X83342428Y-58059999D01*
X83342428Y-58059999D02*
X83273857Y-58025713D01*
X83273857Y-58025713D02*
X83239571Y-57991427D01*
X83239571Y-57991427D02*
X83205285Y-57922856D01*
X83205285Y-57922856D02*
X83205285Y-57751427D01*
X83205285Y-57751427D02*
X83239571Y-57648570D01*
X83205285Y-57408570D02*
X83925285Y-57237142D01*
X83925285Y-57237142D02*
X83411000Y-57099999D01*
X83411000Y-57099999D02*
X83925285Y-56962856D01*
X83925285Y-56962856D02*
X83205285Y-56791428D01*
X83205285Y-56585713D02*
X83205285Y-56139999D01*
X83205285Y-56139999D02*
X83479571Y-56379999D01*
X83479571Y-56379999D02*
X83479571Y-56277142D01*
X83479571Y-56277142D02*
X83513857Y-56208571D01*
X83513857Y-56208571D02*
X83548142Y-56174285D01*
X83548142Y-56174285D02*
X83616714Y-56139999D01*
X83616714Y-56139999D02*
X83788142Y-56139999D01*
X83788142Y-56139999D02*
X83856714Y-56174285D01*
X83856714Y-56174285D02*
X83891000Y-56208571D01*
X83891000Y-56208571D02*
X83925285Y-56277142D01*
X83925285Y-56277142D02*
X83925285Y-56482856D01*
X83925285Y-56482856D02*
X83891000Y-56551428D01*
X83891000Y-56551428D02*
X83856714Y-56585713D01*
%TO.C,S1*%
X75891000Y-74948571D02*
X75925285Y-74845714D01*
X75925285Y-74845714D02*
X75925285Y-74674285D01*
X75925285Y-74674285D02*
X75891000Y-74605714D01*
X75891000Y-74605714D02*
X75856714Y-74571428D01*
X75856714Y-74571428D02*
X75788142Y-74537142D01*
X75788142Y-74537142D02*
X75719571Y-74537142D01*
X75719571Y-74537142D02*
X75651000Y-74571428D01*
X75651000Y-74571428D02*
X75616714Y-74605714D01*
X75616714Y-74605714D02*
X75582428Y-74674285D01*
X75582428Y-74674285D02*
X75548142Y-74811428D01*
X75548142Y-74811428D02*
X75513857Y-74879999D01*
X75513857Y-74879999D02*
X75479571Y-74914285D01*
X75479571Y-74914285D02*
X75411000Y-74948571D01*
X75411000Y-74948571D02*
X75342428Y-74948571D01*
X75342428Y-74948571D02*
X75273857Y-74914285D01*
X75273857Y-74914285D02*
X75239571Y-74879999D01*
X75239571Y-74879999D02*
X75205285Y-74811428D01*
X75205285Y-74811428D02*
X75205285Y-74639999D01*
X75205285Y-74639999D02*
X75239571Y-74537142D01*
X75925285Y-73851428D02*
X75925285Y-74262857D01*
X75925285Y-74057142D02*
X75205285Y-74057142D01*
X75205285Y-74057142D02*
X75308142Y-74125714D01*
X75308142Y-74125714D02*
X75376714Y-74194285D01*
X75376714Y-74194285D02*
X75411000Y-74262857D01*
%TO.C,D4*%
X70368571Y-81020285D02*
X70368571Y-80300285D01*
X70368571Y-80300285D02*
X70540000Y-80300285D01*
X70540000Y-80300285D02*
X70642857Y-80334571D01*
X70642857Y-80334571D02*
X70711428Y-80403142D01*
X70711428Y-80403142D02*
X70745714Y-80471714D01*
X70745714Y-80471714D02*
X70780000Y-80608857D01*
X70780000Y-80608857D02*
X70780000Y-80711714D01*
X70780000Y-80711714D02*
X70745714Y-80848857D01*
X70745714Y-80848857D02*
X70711428Y-80917428D01*
X70711428Y-80917428D02*
X70642857Y-80986000D01*
X70642857Y-80986000D02*
X70540000Y-81020285D01*
X70540000Y-81020285D02*
X70368571Y-81020285D01*
X71397143Y-80540285D02*
X71397143Y-81020285D01*
X71225714Y-80266000D02*
X71054285Y-80780285D01*
X71054285Y-80780285D02*
X71500000Y-80780285D01*
%TO.C,D3*%
X70663571Y-67447785D02*
X70663571Y-66727785D01*
X70663571Y-66727785D02*
X70835000Y-66727785D01*
X70835000Y-66727785D02*
X70937857Y-66762071D01*
X70937857Y-66762071D02*
X71006428Y-66830642D01*
X71006428Y-66830642D02*
X71040714Y-66899214D01*
X71040714Y-66899214D02*
X71075000Y-67036357D01*
X71075000Y-67036357D02*
X71075000Y-67139214D01*
X71075000Y-67139214D02*
X71040714Y-67276357D01*
X71040714Y-67276357D02*
X71006428Y-67344928D01*
X71006428Y-67344928D02*
X70937857Y-67413500D01*
X70937857Y-67413500D02*
X70835000Y-67447785D01*
X70835000Y-67447785D02*
X70663571Y-67447785D01*
X71315000Y-66727785D02*
X71760714Y-66727785D01*
X71760714Y-66727785D02*
X71520714Y-67002071D01*
X71520714Y-67002071D02*
X71623571Y-67002071D01*
X71623571Y-67002071D02*
X71692143Y-67036357D01*
X71692143Y-67036357D02*
X71726428Y-67070642D01*
X71726428Y-67070642D02*
X71760714Y-67139214D01*
X71760714Y-67139214D02*
X71760714Y-67310642D01*
X71760714Y-67310642D02*
X71726428Y-67379214D01*
X71726428Y-67379214D02*
X71692143Y-67413500D01*
X71692143Y-67413500D02*
X71623571Y-67447785D01*
X71623571Y-67447785D02*
X71417857Y-67447785D01*
X71417857Y-67447785D02*
X71349285Y-67413500D01*
X71349285Y-67413500D02*
X71315000Y-67379214D01*
%TO.C,R5*%
X67380000Y-37225285D02*
X67140000Y-36882428D01*
X66968571Y-37225285D02*
X66968571Y-36505285D01*
X66968571Y-36505285D02*
X67242857Y-36505285D01*
X67242857Y-36505285D02*
X67311428Y-36539571D01*
X67311428Y-36539571D02*
X67345714Y-36573857D01*
X67345714Y-36573857D02*
X67380000Y-36642428D01*
X67380000Y-36642428D02*
X67380000Y-36745285D01*
X67380000Y-36745285D02*
X67345714Y-36813857D01*
X67345714Y-36813857D02*
X67311428Y-36848142D01*
X67311428Y-36848142D02*
X67242857Y-36882428D01*
X67242857Y-36882428D02*
X66968571Y-36882428D01*
X68031428Y-36505285D02*
X67688571Y-36505285D01*
X67688571Y-36505285D02*
X67654285Y-36848142D01*
X67654285Y-36848142D02*
X67688571Y-36813857D01*
X67688571Y-36813857D02*
X67757143Y-36779571D01*
X67757143Y-36779571D02*
X67928571Y-36779571D01*
X67928571Y-36779571D02*
X67997143Y-36813857D01*
X67997143Y-36813857D02*
X68031428Y-36848142D01*
X68031428Y-36848142D02*
X68065714Y-36916714D01*
X68065714Y-36916714D02*
X68065714Y-37088142D01*
X68065714Y-37088142D02*
X68031428Y-37156714D01*
X68031428Y-37156714D02*
X67997143Y-37191000D01*
X67997143Y-37191000D02*
X67928571Y-37225285D01*
X67928571Y-37225285D02*
X67757143Y-37225285D01*
X67757143Y-37225285D02*
X67688571Y-37191000D01*
X67688571Y-37191000D02*
X67654285Y-37156714D01*
%TO.C,D1*%
X70768571Y-53825285D02*
X70768571Y-53105285D01*
X70768571Y-53105285D02*
X70940000Y-53105285D01*
X70940000Y-53105285D02*
X71042857Y-53139571D01*
X71042857Y-53139571D02*
X71111428Y-53208142D01*
X71111428Y-53208142D02*
X71145714Y-53276714D01*
X71145714Y-53276714D02*
X71180000Y-53413857D01*
X71180000Y-53413857D02*
X71180000Y-53516714D01*
X71180000Y-53516714D02*
X71145714Y-53653857D01*
X71145714Y-53653857D02*
X71111428Y-53722428D01*
X71111428Y-53722428D02*
X71042857Y-53791000D01*
X71042857Y-53791000D02*
X70940000Y-53825285D01*
X70940000Y-53825285D02*
X70768571Y-53825285D01*
X71865714Y-53825285D02*
X71454285Y-53825285D01*
X71660000Y-53825285D02*
X71660000Y-53105285D01*
X71660000Y-53105285D02*
X71591428Y-53208142D01*
X71591428Y-53208142D02*
X71522857Y-53276714D01*
X71522857Y-53276714D02*
X71454285Y-53311000D01*
%TO.C,R3*%
X67780000Y-80025285D02*
X67540000Y-79682428D01*
X67368571Y-80025285D02*
X67368571Y-79305285D01*
X67368571Y-79305285D02*
X67642857Y-79305285D01*
X67642857Y-79305285D02*
X67711428Y-79339571D01*
X67711428Y-79339571D02*
X67745714Y-79373857D01*
X67745714Y-79373857D02*
X67780000Y-79442428D01*
X67780000Y-79442428D02*
X67780000Y-79545285D01*
X67780000Y-79545285D02*
X67745714Y-79613857D01*
X67745714Y-79613857D02*
X67711428Y-79648142D01*
X67711428Y-79648142D02*
X67642857Y-79682428D01*
X67642857Y-79682428D02*
X67368571Y-79682428D01*
X68020000Y-79305285D02*
X68465714Y-79305285D01*
X68465714Y-79305285D02*
X68225714Y-79579571D01*
X68225714Y-79579571D02*
X68328571Y-79579571D01*
X68328571Y-79579571D02*
X68397143Y-79613857D01*
X68397143Y-79613857D02*
X68431428Y-79648142D01*
X68431428Y-79648142D02*
X68465714Y-79716714D01*
X68465714Y-79716714D02*
X68465714Y-79888142D01*
X68465714Y-79888142D02*
X68431428Y-79956714D01*
X68431428Y-79956714D02*
X68397143Y-79991000D01*
X68397143Y-79991000D02*
X68328571Y-80025285D01*
X68328571Y-80025285D02*
X68122857Y-80025285D01*
X68122857Y-80025285D02*
X68054285Y-79991000D01*
X68054285Y-79991000D02*
X68020000Y-79956714D01*
%TO.C,R2*%
X67980000Y-66255285D02*
X67740000Y-65912428D01*
X67568571Y-66255285D02*
X67568571Y-65535285D01*
X67568571Y-65535285D02*
X67842857Y-65535285D01*
X67842857Y-65535285D02*
X67911428Y-65569571D01*
X67911428Y-65569571D02*
X67945714Y-65603857D01*
X67945714Y-65603857D02*
X67980000Y-65672428D01*
X67980000Y-65672428D02*
X67980000Y-65775285D01*
X67980000Y-65775285D02*
X67945714Y-65843857D01*
X67945714Y-65843857D02*
X67911428Y-65878142D01*
X67911428Y-65878142D02*
X67842857Y-65912428D01*
X67842857Y-65912428D02*
X67568571Y-65912428D01*
X68254285Y-65603857D02*
X68288571Y-65569571D01*
X68288571Y-65569571D02*
X68357143Y-65535285D01*
X68357143Y-65535285D02*
X68528571Y-65535285D01*
X68528571Y-65535285D02*
X68597143Y-65569571D01*
X68597143Y-65569571D02*
X68631428Y-65603857D01*
X68631428Y-65603857D02*
X68665714Y-65672428D01*
X68665714Y-65672428D02*
X68665714Y-65741000D01*
X68665714Y-65741000D02*
X68631428Y-65843857D01*
X68631428Y-65843857D02*
X68220000Y-66255285D01*
X68220000Y-66255285D02*
X68665714Y-66255285D01*
%TO.C,R15*%
X75555285Y-51662856D02*
X75212428Y-51902856D01*
X75555285Y-52074285D02*
X74835285Y-52074285D01*
X74835285Y-52074285D02*
X74835285Y-51799999D01*
X74835285Y-51799999D02*
X74869571Y-51731428D01*
X74869571Y-51731428D02*
X74903857Y-51697142D01*
X74903857Y-51697142D02*
X74972428Y-51662856D01*
X74972428Y-51662856D02*
X75075285Y-51662856D01*
X75075285Y-51662856D02*
X75143857Y-51697142D01*
X75143857Y-51697142D02*
X75178142Y-51731428D01*
X75178142Y-51731428D02*
X75212428Y-51799999D01*
X75212428Y-51799999D02*
X75212428Y-52074285D01*
X75555285Y-50977142D02*
X75555285Y-51388571D01*
X75555285Y-51182856D02*
X74835285Y-51182856D01*
X74835285Y-51182856D02*
X74938142Y-51251428D01*
X74938142Y-51251428D02*
X75006714Y-51319999D01*
X75006714Y-51319999D02*
X75041000Y-51388571D01*
X74835285Y-50325714D02*
X74835285Y-50668571D01*
X74835285Y-50668571D02*
X75178142Y-50702857D01*
X75178142Y-50702857D02*
X75143857Y-50668571D01*
X75143857Y-50668571D02*
X75109571Y-50600000D01*
X75109571Y-50600000D02*
X75109571Y-50428571D01*
X75109571Y-50428571D02*
X75143857Y-50360000D01*
X75143857Y-50360000D02*
X75178142Y-50325714D01*
X75178142Y-50325714D02*
X75246714Y-50291428D01*
X75246714Y-50291428D02*
X75418142Y-50291428D01*
X75418142Y-50291428D02*
X75486714Y-50325714D01*
X75486714Y-50325714D02*
X75521000Y-50360000D01*
X75521000Y-50360000D02*
X75555285Y-50428571D01*
X75555285Y-50428571D02*
X75555285Y-50600000D01*
X75555285Y-50600000D02*
X75521000Y-50668571D01*
X75521000Y-50668571D02*
X75486714Y-50702857D01*
%TO.C,C11*%
X69437143Y-47456714D02*
X69402857Y-47491000D01*
X69402857Y-47491000D02*
X69300000Y-47525285D01*
X69300000Y-47525285D02*
X69231428Y-47525285D01*
X69231428Y-47525285D02*
X69128571Y-47491000D01*
X69128571Y-47491000D02*
X69060000Y-47422428D01*
X69060000Y-47422428D02*
X69025714Y-47353857D01*
X69025714Y-47353857D02*
X68991428Y-47216714D01*
X68991428Y-47216714D02*
X68991428Y-47113857D01*
X68991428Y-47113857D02*
X69025714Y-46976714D01*
X69025714Y-46976714D02*
X69060000Y-46908142D01*
X69060000Y-46908142D02*
X69128571Y-46839571D01*
X69128571Y-46839571D02*
X69231428Y-46805285D01*
X69231428Y-46805285D02*
X69300000Y-46805285D01*
X69300000Y-46805285D02*
X69402857Y-46839571D01*
X69402857Y-46839571D02*
X69437143Y-46873857D01*
X70122857Y-47525285D02*
X69711428Y-47525285D01*
X69917143Y-47525285D02*
X69917143Y-46805285D01*
X69917143Y-46805285D02*
X69848571Y-46908142D01*
X69848571Y-46908142D02*
X69780000Y-46976714D01*
X69780000Y-46976714D02*
X69711428Y-47011000D01*
X70808571Y-47525285D02*
X70397142Y-47525285D01*
X70602857Y-47525285D02*
X70602857Y-46805285D01*
X70602857Y-46805285D02*
X70534285Y-46908142D01*
X70534285Y-46908142D02*
X70465714Y-46976714D01*
X70465714Y-46976714D02*
X70397142Y-47011000D01*
%TO.C,PWR*%
X70225285Y-37359999D02*
X69505285Y-37359999D01*
X69505285Y-37359999D02*
X69505285Y-37085713D01*
X69505285Y-37085713D02*
X69539571Y-37017142D01*
X69539571Y-37017142D02*
X69573857Y-36982856D01*
X69573857Y-36982856D02*
X69642428Y-36948570D01*
X69642428Y-36948570D02*
X69745285Y-36948570D01*
X69745285Y-36948570D02*
X69813857Y-36982856D01*
X69813857Y-36982856D02*
X69848142Y-37017142D01*
X69848142Y-37017142D02*
X69882428Y-37085713D01*
X69882428Y-37085713D02*
X69882428Y-37359999D01*
X69505285Y-36708570D02*
X70225285Y-36537142D01*
X70225285Y-36537142D02*
X69711000Y-36399999D01*
X69711000Y-36399999D02*
X70225285Y-36262856D01*
X70225285Y-36262856D02*
X69505285Y-36091428D01*
X70225285Y-35405713D02*
X69882428Y-35645713D01*
X70225285Y-35817142D02*
X69505285Y-35817142D01*
X69505285Y-35817142D02*
X69505285Y-35542856D01*
X69505285Y-35542856D02*
X69539571Y-35474285D01*
X69539571Y-35474285D02*
X69573857Y-35439999D01*
X69573857Y-35439999D02*
X69642428Y-35405713D01*
X69642428Y-35405713D02*
X69745285Y-35405713D01*
X69745285Y-35405713D02*
X69813857Y-35439999D01*
X69813857Y-35439999D02*
X69848142Y-35474285D01*
X69848142Y-35474285D02*
X69882428Y-35542856D01*
X69882428Y-35542856D02*
X69882428Y-35817142D01*
%TO.C,R1*%
X69480000Y-53825285D02*
X69240000Y-53482428D01*
X69068571Y-53825285D02*
X69068571Y-53105285D01*
X69068571Y-53105285D02*
X69342857Y-53105285D01*
X69342857Y-53105285D02*
X69411428Y-53139571D01*
X69411428Y-53139571D02*
X69445714Y-53173857D01*
X69445714Y-53173857D02*
X69480000Y-53242428D01*
X69480000Y-53242428D02*
X69480000Y-53345285D01*
X69480000Y-53345285D02*
X69445714Y-53413857D01*
X69445714Y-53413857D02*
X69411428Y-53448142D01*
X69411428Y-53448142D02*
X69342857Y-53482428D01*
X69342857Y-53482428D02*
X69068571Y-53482428D01*
X70165714Y-53825285D02*
X69754285Y-53825285D01*
X69960000Y-53825285D02*
X69960000Y-53105285D01*
X69960000Y-53105285D02*
X69891428Y-53208142D01*
X69891428Y-53208142D02*
X69822857Y-53276714D01*
X69822857Y-53276714D02*
X69754285Y-53311000D01*
%TO.C,R12*%
X67337143Y-36225285D02*
X67097143Y-35882428D01*
X66925714Y-36225285D02*
X66925714Y-35505285D01*
X66925714Y-35505285D02*
X67200000Y-35505285D01*
X67200000Y-35505285D02*
X67268571Y-35539571D01*
X67268571Y-35539571D02*
X67302857Y-35573857D01*
X67302857Y-35573857D02*
X67337143Y-35642428D01*
X67337143Y-35642428D02*
X67337143Y-35745285D01*
X67337143Y-35745285D02*
X67302857Y-35813857D01*
X67302857Y-35813857D02*
X67268571Y-35848142D01*
X67268571Y-35848142D02*
X67200000Y-35882428D01*
X67200000Y-35882428D02*
X66925714Y-35882428D01*
X68022857Y-36225285D02*
X67611428Y-36225285D01*
X67817143Y-36225285D02*
X67817143Y-35505285D01*
X67817143Y-35505285D02*
X67748571Y-35608142D01*
X67748571Y-35608142D02*
X67680000Y-35676714D01*
X67680000Y-35676714D02*
X67611428Y-35711000D01*
X68297142Y-35573857D02*
X68331428Y-35539571D01*
X68331428Y-35539571D02*
X68400000Y-35505285D01*
X68400000Y-35505285D02*
X68571428Y-35505285D01*
X68571428Y-35505285D02*
X68640000Y-35539571D01*
X68640000Y-35539571D02*
X68674285Y-35573857D01*
X68674285Y-35573857D02*
X68708571Y-35642428D01*
X68708571Y-35642428D02*
X68708571Y-35711000D01*
X68708571Y-35711000D02*
X68674285Y-35813857D01*
X68674285Y-35813857D02*
X68262857Y-36225285D01*
X68262857Y-36225285D02*
X68708571Y-36225285D01*
%TO.C,J3*%
X66940000Y-130270000D02*
X74560000Y-130270000D01*
X74560000Y-130270000D02*
X74560000Y-127730000D01*
X74560000Y-127730000D02*
X66940000Y-127730000D01*
X66940000Y-127730000D02*
X66940000Y-130270000D01*
%TO.C,J7*%
X74560000Y-102280000D02*
X66940000Y-102280000D01*
X66940000Y-102280000D02*
X66940000Y-104820000D01*
X66940000Y-104820000D02*
X74560000Y-104820000D01*
X74560000Y-104820000D02*
X74560000Y-102280000D01*
D15*
%TO.C,J6*%
X62000000Y-85400000D02*
X62000000Y-82400000D01*
X63500000Y-83900000D02*
X60500000Y-83900000D01*
D16*
X63574800Y-83912700D02*
G75*
G03*
X63574800Y-83912700I-1574800J0D01*
G01*
X64286000Y-83912700D02*
G75*
G03*
X64286000Y-83912700I-2286000J0D01*
G01*
D17*
X66500000Y-90102200D02*
X57500000Y-90102200D01*
X57500000Y-79594200D01*
X66500000Y-79594200D01*
X66500000Y-90102200D01*
D15*
%TO.C,J5*%
X62000000Y-71722500D02*
X62000000Y-68722500D01*
X63500000Y-70222500D02*
X60500000Y-70222500D01*
D16*
X63574800Y-70235200D02*
G75*
G03*
X63574800Y-70235200I-1574800J0D01*
G01*
X64286000Y-70235200D02*
G75*
G03*
X64286000Y-70235200I-2286000J0D01*
G01*
D17*
X66500000Y-76424700D02*
X57500000Y-76424700D01*
X57500000Y-65916700D01*
X66500000Y-65916700D01*
X66500000Y-76424700D01*
D15*
%TO.C,J4*%
X62000000Y-58045000D02*
X62000000Y-55045000D01*
X63500000Y-56545000D02*
X60500000Y-56545000D01*
D16*
X63574800Y-56557700D02*
G75*
G03*
X63574800Y-56557700I-1574800J0D01*
G01*
X64286000Y-56557700D02*
G75*
G03*
X64286000Y-56557700I-2286000J0D01*
G01*
D17*
X66500000Y-62747200D02*
X57500000Y-62747200D01*
X57500000Y-52239200D01*
X66500000Y-52239200D01*
X66500000Y-62747200D01*
D15*
%TO.C,J1*%
X61970000Y-43745000D02*
X61970000Y-40745000D01*
X63470000Y-42245000D02*
X60470000Y-42245000D01*
D16*
X63544800Y-42257700D02*
G75*
G03*
X63544800Y-42257700I-1574800J0D01*
G01*
X64256000Y-42257700D02*
G75*
G03*
X64256000Y-42257700I-2286000J0D01*
G01*
D17*
X66470000Y-48447200D02*
X57470000Y-48447200D01*
X57470000Y-37939200D01*
X66470000Y-37939200D01*
X66470000Y-48447200D01*
D15*
%TO.C,SW1*%
X84047600Y-46610300D02*
X84047600Y-45110300D01*
X78434200Y-49848100D02*
X81736200Y-49848100D01*
X82614600Y-42151900D02*
X78114600Y-42151900D01*
X76503800Y-45096900D02*
X76503800Y-46596900D01*
D18*
X79343440Y-47003300D02*
G75*
G03*
X79343440Y-47003300I-223440J0D01*
G01*
X79267240Y-44742700D02*
G75*
G03*
X79267240Y-44742700I-223440J0D01*
G01*
D15*
%TO.C,D6*%
X68750000Y-39790000D02*
X67050000Y-39790000D01*
X67050000Y-39790000D02*
X67050000Y-42450000D01*
X68750000Y-39790000D02*
X68750000Y-42450000D01*
%TO.C,D5*%
X67050000Y-46510000D02*
X68750000Y-46510000D01*
X68750000Y-46510000D02*
X68750000Y-43850000D01*
X67050000Y-46510000D02*
X67050000Y-43850000D01*
D19*
%TO.C,SW3*%
X81737600Y-52100000D02*
X82337600Y-52100000D01*
X82337600Y-52100000D02*
X82337600Y-61100000D01*
X82337600Y-61100000D02*
X81737600Y-61100000D01*
X78737600Y-52100000D02*
X78137600Y-52100000D01*
X78137600Y-52100000D02*
X78137600Y-61100000D01*
X78137600Y-61100000D02*
X78737600Y-61100000D01*
%TO.C,S1*%
X82412600Y-64000000D02*
X82412600Y-86000000D01*
X82412600Y-86000000D02*
X77412600Y-86000000D01*
X77412600Y-86000000D02*
X77412600Y-64000000D01*
X77412600Y-64000000D02*
X82412600Y-64000000D01*
D11*
X83012600Y-70100000D02*
X83012600Y-70100000D01*
X83012600Y-70200000D02*
X83012600Y-70200000D01*
X83012600Y-70100000D02*
X83012600Y-70100000D01*
X83012600Y-70100000D02*
G75*
G03*
X83012600Y-70200000I0J-50000D01*
G01*
X83012600Y-70200000D02*
G75*
G03*
X83012600Y-70100000I0J50000D01*
G01*
X83012600Y-70100000D02*
G75*
G03*
X83012600Y-70200000I0J-50000D01*
G01*
D15*
%TO.C,D4*%
X67835000Y-82419000D02*
X67835000Y-82575000D01*
X67835000Y-84735000D02*
X67835000Y-84891000D01*
X71067334Y-82576392D02*
G75*
G03*
X67835001Y-82419485I-1672334J-1078608D01*
G01*
X70436129Y-82575164D02*
G75*
G03*
X68354040Y-82575001I-1041129J-1079836D01*
G01*
X68354040Y-84734999D02*
G75*
G03*
X70436129Y-84734836I1040960J1079999D01*
G01*
X67835001Y-84890515D02*
G75*
G03*
X71067334Y-84733608I1559999J1235515D01*
G01*
%TO.C,D3*%
X68030000Y-68741500D02*
X68030000Y-68897500D01*
X68030000Y-71057500D02*
X68030000Y-71213500D01*
X71262334Y-68898892D02*
G75*
G03*
X68030001Y-68741985I-1672334J-1078608D01*
G01*
X70631129Y-68897664D02*
G75*
G03*
X68549040Y-68897501I-1041129J-1079836D01*
G01*
X68549040Y-71057499D02*
G75*
G03*
X70631129Y-71057336I1040960J1079999D01*
G01*
X68030001Y-71213015D02*
G75*
G03*
X71262334Y-71056108I1559999J1235515D01*
G01*
%TO.C,R5*%
X68053641Y-38720000D02*
X67746359Y-38720000D01*
X68053641Y-39480000D02*
X67746359Y-39480000D01*
%TO.C,D1*%
X67935000Y-55064000D02*
X67935000Y-55220000D01*
X67935000Y-57380000D02*
X67935000Y-57536000D01*
X71167334Y-55221392D02*
G75*
G03*
X67935001Y-55064485I-1672334J-1078608D01*
G01*
X70536129Y-55220164D02*
G75*
G03*
X68454040Y-55220001I-1041129J-1079836D01*
G01*
X68454040Y-57379999D02*
G75*
G03*
X70536129Y-57379836I1040960J1079999D01*
G01*
X67935001Y-57535515D02*
G75*
G03*
X71167334Y-57378608I1559999J1235515D01*
G01*
%TO.C,R3*%
X67746359Y-80420000D02*
X68053641Y-80420000D01*
X67746359Y-81180000D02*
X68053641Y-81180000D01*
%TO.C,R2*%
X67946359Y-66720000D02*
X68253641Y-66720000D01*
X67946359Y-67480000D02*
X68253641Y-67480000D01*
%TO.C,R15*%
X76020000Y-51353641D02*
X76020000Y-51046359D01*
X76780000Y-51353641D02*
X76780000Y-51046359D01*
%TO.C,C11*%
X69792164Y-46360000D02*
X70007836Y-46360000D01*
X69792164Y-45640000D02*
X70007836Y-45640000D01*
%TO.C,PWR*%
X70535000Y-39800000D02*
X70535000Y-37515000D01*
X69065000Y-37515000D02*
X69065000Y-39800000D01*
X70535000Y-37515000D02*
X69065000Y-37515000D01*
%TO.C,R1*%
X67846359Y-53120000D02*
X68153641Y-53120000D01*
X67846359Y-53880000D02*
X68153641Y-53880000D01*
%TO.C,R12*%
X68053641Y-37620000D02*
X67746359Y-37620000D01*
X68053641Y-38380000D02*
X67746359Y-38380000D01*
%TD*%
M02*
