%TF.GenerationSoftware,KiCad,Pcbnew,7.0.5*%
%TF.CreationDate,2023-09-13T13:06:11-07:00*%
%TF.ProjectId,16Bars,31364261-7273-42e6-9b69-6361645f7063,rev?*%
%TF.SameCoordinates,Original*%
%TF.FileFunction,Copper,L1,Top*%
%TF.FilePolarity,Positive*%
%FSLAX46Y46*%
G04 Gerber Fmt 4.6, Leading zero omitted, Abs format (unit mm)*
G04 Created by KiCad (PCBNEW 7.0.5) date 2023-09-13 13:06:11*
%MOMM*%
%LPD*%
G01*
G04 APERTURE LIST*
G04 Aperture macros list*
%AMRoundRect*
0 Rectangle with rounded corners*
0 $1 Rounding radius*
0 $2 $3 $4 $5 $6 $7 $8 $9 X,Y pos of 4 corners*
0 Add a 4 corners polygon primitive as box body*
4,1,4,$2,$3,$4,$5,$6,$7,$8,$9,$2,$3,0*
0 Add four circle primitives for the rounded corners*
1,1,$1+$1,$2,$3*
1,1,$1+$1,$4,$5*
1,1,$1+$1,$6,$7*
1,1,$1+$1,$8,$9*
0 Add four rect primitives between the rounded corners*
20,1,$1+$1,$2,$3,$4,$5,0*
20,1,$1+$1,$4,$5,$6,$7,0*
20,1,$1+$1,$6,$7,$8,$9,0*
20,1,$1+$1,$8,$9,$2,$3,0*%
G04 Aperture macros list end*
%TA.AperFunction,ComponentPad*%
%ADD10R,1.700000X1.700000*%
%TD*%
%TA.AperFunction,ComponentPad*%
%ADD11O,1.700000X1.700000*%
%TD*%
%TA.AperFunction,ComponentPad*%
%ADD12R,1.727200X2.032000*%
%TD*%
%TA.AperFunction,ComponentPad*%
%ADD13O,1.727200X2.032000*%
%TD*%
%TA.AperFunction,ComponentPad*%
%ADD14C,1.930400*%
%TD*%
%TA.AperFunction,WasherPad*%
%ADD15C,2.000000*%
%TD*%
%TA.AperFunction,ComponentPad*%
%ADD16C,2.000000*%
%TD*%
%TA.AperFunction,SMDPad,CuDef*%
%ADD17RoundRect,0.112500X-0.112500X0.187500X-0.112500X-0.187500X0.112500X-0.187500X0.112500X0.187500X0*%
%TD*%
%TA.AperFunction,SMDPad,CuDef*%
%ADD18RoundRect,0.112500X0.112500X-0.187500X0.112500X0.187500X-0.112500X0.187500X-0.112500X-0.187500X0*%
%TD*%
%TA.AperFunction,ComponentPad*%
%ADD19R,1.300000X1.300000*%
%TD*%
%TA.AperFunction,ComponentPad*%
%ADD20C,1.300000*%
%TD*%
%TA.AperFunction,ComponentPad*%
%ADD21C,2.100000*%
%TD*%
%TA.AperFunction,ComponentPad*%
%ADD22C,1.400000*%
%TD*%
%TA.AperFunction,ComponentPad*%
%ADD23R,2.000000X1.905000*%
%TD*%
%TA.AperFunction,ComponentPad*%
%ADD24O,2.000000X1.905000*%
%TD*%
%TA.AperFunction,ComponentPad*%
%ADD25R,1.800000X1.800000*%
%TD*%
%TA.AperFunction,ComponentPad*%
%ADD26C,1.800000*%
%TD*%
%TA.AperFunction,SMDPad,CuDef*%
%ADD27RoundRect,0.135000X0.135000X0.185000X-0.135000X0.185000X-0.135000X-0.185000X0.135000X-0.185000X0*%
%TD*%
%TA.AperFunction,SMDPad,CuDef*%
%ADD28RoundRect,0.135000X-0.135000X-0.185000X0.135000X-0.185000X0.135000X0.185000X-0.135000X0.185000X0*%
%TD*%
%TA.AperFunction,SMDPad,CuDef*%
%ADD29RoundRect,0.135000X0.185000X-0.135000X0.185000X0.135000X-0.185000X0.135000X-0.185000X-0.135000X0*%
%TD*%
%TA.AperFunction,SMDPad,CuDef*%
%ADD30RoundRect,0.140000X-0.140000X-0.170000X0.140000X-0.170000X0.140000X0.170000X-0.140000X0.170000X0*%
%TD*%
%TA.AperFunction,SMDPad,CuDef*%
%ADD31RoundRect,0.218750X-0.256250X0.218750X-0.256250X-0.218750X0.256250X-0.218750X0.256250X0.218750X0*%
%TD*%
%TA.AperFunction,ComponentPad*%
%ADD32R,1.600000X1.600000*%
%TD*%
%TA.AperFunction,ComponentPad*%
%ADD33C,1.600000*%
%TD*%
%TA.AperFunction,ComponentPad*%
%ADD34O,1.600000X1.600000*%
%TD*%
%TA.AperFunction,ViaPad*%
%ADD35C,0.800000*%
%TD*%
%TA.AperFunction,Conductor*%
%ADD36C,0.250000*%
%TD*%
G04 APERTURE END LIST*
D10*
%TO.P,J2,1,Pin_1*%
%TO.N,+12V*%
X82700000Y-40000000D03*
D11*
%TO.P,J2,2,Pin_2*%
X82700000Y-37460000D03*
%TO.P,J2,3,Pin_3*%
%TO.N,GND*%
X80160000Y-40000000D03*
%TO.P,J2,4,Pin_4*%
X80160000Y-37460000D03*
%TO.P,J2,5,Pin_5*%
X77620000Y-40000000D03*
%TO.P,J2,6,Pin_6*%
X77620000Y-37460000D03*
%TO.P,J2,7,Pin_7*%
X75080000Y-40000000D03*
%TO.P,J2,8,Pin_8*%
X75080000Y-37460000D03*
%TO.P,J2,9,Pin_9*%
%TO.N,unconnected-(J2-Pin_9-Pad9)*%
X72540000Y-40000000D03*
%TO.P,J2,10,Pin_10*%
%TO.N,unconnected-(J2-Pin_10-Pad10)*%
X72540000Y-37460000D03*
%TD*%
D12*
%TO.P,J3,1,Pin_1*%
%TO.N,+5V*%
X68210000Y-129000000D03*
D13*
%TO.P,J3,2,Pin_2*%
%TO.N,RESET*%
X70750000Y-129000000D03*
%TO.P,J3,3,Pin_3*%
%TO.N,CLOCK_BAR*%
X73290000Y-129000000D03*
%TD*%
D12*
%TO.P,J7,1,Pin_1*%
%TO.N,GND*%
X73290000Y-103550000D03*
D13*
%TO.P,J7,2,Pin_2*%
X70750000Y-103550000D03*
%TO.P,J7,3,Pin_3*%
X68210000Y-103550000D03*
%TD*%
D14*
%TO.P,J6,1,SIG*%
%TO.N,/lastBar*%
X62000000Y-89107000D03*
%TO.P,J6,2,SHEILD*%
%TO.N,GND*%
X62000000Y-78134200D03*
%TO.P,J6,3,SW*%
X62000000Y-80547200D03*
%TD*%
%TO.P,J5,1,SIG*%
%TO.N,/middleBar*%
X62000000Y-75429500D03*
%TO.P,J5,2,SHEILD*%
%TO.N,GND*%
X62000000Y-64456700D03*
%TO.P,J5,3,SW*%
X62000000Y-66869700D03*
%TD*%
%TO.P,J4,1,SIG*%
%TO.N,/firstBar*%
X62000000Y-61752000D03*
%TO.P,J4,2,SHEILD*%
%TO.N,GND*%
X62000000Y-50779200D03*
%TO.P,J4,3,SW*%
X62000000Y-53192200D03*
%TD*%
%TO.P,J1,1,SIG*%
%TO.N,Net-(J1-SIG)*%
X61970000Y-47452000D03*
%TO.P,J1,2,SHEILD*%
%TO.N,GND*%
X61970000Y-36479200D03*
%TO.P,J1,3,SW*%
X61970000Y-38892200D03*
%TD*%
D15*
%TO.P,SW1,*%
%TO.N,*%
X77697600Y-45980300D03*
X82777600Y-45980300D03*
D16*
%TO.P,SW1,1,1*%
%TO.N,GND*%
X77697600Y-43440300D03*
%TO.P,SW1,2,2*%
%TO.N,unconnected-(SW1-Pad2)*%
X77697600Y-48520300D03*
%TO.P,SW1,3,3*%
%TO.N,unconnected-(SW1-Pad3)*%
X82777600Y-43440300D03*
%TO.P,SW1,4,4*%
%TO.N,/ResetButton*%
X82777600Y-48520300D03*
%TO.P,SW1,L1,L1*%
%TO.N,CLOCK_IN*%
X80237600Y-43320300D03*
%TO.P,SW1,L2,L2*%
%TO.N,Net-(R15-Pad2)*%
X80237600Y-48720300D03*
%TD*%
D17*
%TO.P,D6,1,K*%
%TO.N,CLOCK_IN*%
X67900000Y-40350000D03*
%TO.P,D6,2,A*%
%TO.N,GND*%
X67900000Y-42450000D03*
%TD*%
D18*
%TO.P,D5,1,K*%
%TO.N,+5V*%
X67900000Y-45950000D03*
%TO.P,D5,2,A*%
%TO.N,CLOCK_IN*%
X67900000Y-43850000D03*
%TD*%
D19*
%TO.P,SW3,1,N.C.*%
%TO.N,+5V*%
X80237600Y-54600000D03*
D20*
%TO.P,SW3,2,COM*%
%TO.N,/barsPerPhrase*%
X80237600Y-56600000D03*
%TO.P,SW3,3,N.O.*%
%TO.N,GND*%
X80237600Y-58600000D03*
D21*
%TO.P,SW3,4,4*%
X80237600Y-52300000D03*
%TO.P,SW3,5,5*%
X80237600Y-60900000D03*
%TD*%
D22*
%TO.P,S1,1,1*%
%TO.N,/barsPerBar-4*%
X79912600Y-70400000D03*
%TO.P,S1,2,2*%
%TO.N,/barsPerBar-7*%
X79912600Y-72700000D03*
%TO.P,S1,3,3*%
%TO.N,/barsPerBar-8*%
X79912600Y-75000000D03*
%TO.P,S1,4,4*%
%TO.N,/barsPerBar-12*%
X79912600Y-77300000D03*
%TO.P,S1,5,5*%
%TO.N,/barsPerBar-16*%
X79912600Y-79600000D03*
%TO.P,S1,C1,COM_1*%
%TO.N,+5V*%
X79912600Y-68100000D03*
%TO.P,S1,C2,COM_2*%
X79912600Y-81900000D03*
%TD*%
D23*
%TO.P,U1,1,VI*%
%TO.N,+12V*%
X75500000Y-54500000D03*
D24*
%TO.P,U1,2,GND*%
%TO.N,GND*%
X75500000Y-57040000D03*
%TO.P,U1,3,VO*%
%TO.N,+5V*%
X75500000Y-59580000D03*
%TD*%
D25*
%TO.P,D4,1,K*%
%TO.N,Net-(D4-K)*%
X68125000Y-83655000D03*
D26*
%TO.P,D4,2,A*%
%TO.N,/lastBarLED*%
X70665000Y-83655000D03*
%TD*%
D25*
%TO.P,D3,1,K*%
%TO.N,Net-(D3-K)*%
X68320000Y-69977500D03*
D26*
%TO.P,D3,2,A*%
%TO.N,/middleBarLED*%
X70860000Y-69977500D03*
%TD*%
D27*
%TO.P,R5,2*%
%TO.N,Net-(J1-SIG)*%
X67390000Y-39100000D03*
%TO.P,R5,1*%
%TO.N,CLOCK_IN*%
X68410000Y-39100000D03*
%TD*%
D25*
%TO.P,D1,1,K*%
%TO.N,Net-(D1-K)*%
X68225000Y-56300000D03*
D26*
%TO.P,D1,2,A*%
%TO.N,/firstBarLED*%
X70765000Y-56300000D03*
%TD*%
D28*
%TO.P,R3,1*%
%TO.N,GND*%
X67390000Y-80800000D03*
%TO.P,R3,2*%
%TO.N,Net-(D4-K)*%
X68410000Y-80800000D03*
%TD*%
%TO.P,R2,1*%
%TO.N,GND*%
X67590000Y-67100000D03*
%TO.P,R2,2*%
%TO.N,Net-(D3-K)*%
X68610000Y-67100000D03*
%TD*%
D29*
%TO.P,R15,1*%
%TO.N,GND*%
X76400000Y-51710000D03*
%TO.P,R15,2*%
%TO.N,Net-(R15-Pad2)*%
X76400000Y-50690000D03*
%TD*%
D30*
%TO.P,C11,2*%
%TO.N,GND*%
X70380000Y-46000000D03*
%TO.P,C11,1*%
%TO.N,CLOCK_IN*%
X69420000Y-46000000D03*
%TD*%
D31*
%TO.P,PWR,2,A*%
%TO.N,+5V*%
X69800000Y-39787500D03*
%TO.P,PWR,1,K*%
%TO.N,Net-(D2-K)*%
X69800000Y-38212500D03*
%TD*%
D28*
%TO.P,R1,1*%
%TO.N,GND*%
X67490000Y-53500000D03*
%TO.P,R1,2*%
%TO.N,Net-(D1-K)*%
X68510000Y-53500000D03*
%TD*%
D27*
%TO.P,R12,2*%
%TO.N,Net-(D2-K)*%
X67390000Y-38000000D03*
%TO.P,R12,1*%
%TO.N,GND*%
X68410000Y-38000000D03*
%TD*%
D32*
%TO.P,C1,1*%
%TO.N,+12V*%
X72200000Y-45600000D03*
D33*
%TO.P,C1,2*%
%TO.N,GND*%
X72200000Y-47600000D03*
%TD*%
D32*
%TO.P,A1,1,D1/TX*%
%TO.N,unconnected-(A1-D1{slash}TX-Pad1)*%
X78360000Y-97250000D03*
D34*
%TO.P,A1,2,D0/RX*%
%TO.N,unconnected-(A1-D0{slash}RX-Pad2)*%
X78360000Y-99790000D03*
%TO.P,A1,3,~{RESET}*%
%TO.N,unconnected-(A1-~{RESET}-Pad3)*%
X78360000Y-102330000D03*
%TO.P,A1,4,GND*%
%TO.N,GND*%
X78360000Y-104870000D03*
%TO.P,A1,5,D2*%
%TO.N,CLOCK_IN*%
X78360000Y-107410000D03*
%TO.P,A1,6,D3*%
%TO.N,/ResetButton*%
X78360000Y-109950000D03*
%TO.P,A1,7,D4*%
%TO.N,CLOCK_BAR*%
X78360000Y-112490000D03*
%TO.P,A1,8,D5*%
%TO.N,RESET*%
X78360000Y-115030000D03*
%TO.P,A1,9,D6*%
%TO.N,unconnected-(A1-D6-Pad9)*%
X78360000Y-117570000D03*
%TO.P,A1,10,D7*%
%TO.N,/barsPerBar-4*%
X78360000Y-120110000D03*
%TO.P,A1,11,D8*%
%TO.N,/barsPerBar-7*%
X78360000Y-122650000D03*
%TO.P,A1,12,D9*%
%TO.N,/barsPerBar-8*%
X78360000Y-125190000D03*
%TO.P,A1,13,D10*%
%TO.N,/barsPerBar-12*%
X78360000Y-127730000D03*
%TO.P,A1,14,D11*%
%TO.N,/barsPerBar-16*%
X78360000Y-130270000D03*
%TO.P,A1,15,D12*%
%TO.N,/firstBar*%
X78360000Y-132810000D03*
%TO.P,A1,16,D13*%
%TO.N,/middleBar*%
X63120000Y-132810000D03*
%TO.P,A1,17,3V3*%
%TO.N,unconnected-(A1-3V3-Pad17)*%
X63120000Y-130270000D03*
%TO.P,A1,18,AREF*%
%TO.N,unconnected-(A1-AREF-Pad18)*%
X63120000Y-127730000D03*
%TO.P,A1,19,A0*%
%TO.N,/lastBar*%
X63120000Y-125190000D03*
%TO.P,A1,20,A1*%
%TO.N,/firstBarLED*%
X63120000Y-122650000D03*
%TO.P,A1,21,A2*%
%TO.N,/middleBarLED*%
X63120000Y-120110000D03*
%TO.P,A1,22,A3*%
%TO.N,/lastBarLED*%
X63120000Y-117570000D03*
%TO.P,A1,23,A4*%
%TO.N,/barsPerPhrase*%
X63120000Y-115030000D03*
%TO.P,A1,24,A5*%
%TO.N,unconnected-(A1-A5-Pad24)*%
X63120000Y-112490000D03*
%TO.P,A1,25,A6*%
%TO.N,unconnected-(A1-A6-Pad25)*%
X63120000Y-109950000D03*
%TO.P,A1,26,A7*%
%TO.N,unconnected-(A1-A7-Pad26)*%
X63120000Y-107410000D03*
%TO.P,A1,27,+5V*%
%TO.N,unconnected-(A1-+5V-Pad27)*%
X63120000Y-104870000D03*
%TO.P,A1,28,~{RESET}*%
%TO.N,unconnected-(A1-~{RESET}-Pad28)*%
X63120000Y-102330000D03*
%TO.P,A1,29,GND*%
%TO.N,GND*%
X63120000Y-99790000D03*
%TO.P,A1,30,VIN*%
%TO.N,+5V*%
X63120000Y-97250000D03*
%TD*%
D35*
%TO.N,+5V*%
X74200000Y-67300000D03*
X69399311Y-49799311D03*
%TO.N,GND*%
X75300000Y-64900000D03*
X79600000Y-65000000D03*
%TO.N,+5V*%
X69800000Y-41300000D03*
%TO.N,GND*%
X75600000Y-52500000D03*
%TD*%
D36*
%TO.N,GND*%
X76825000Y-63375000D02*
X75300000Y-64900000D01*
X76825000Y-58365000D02*
X76825000Y-63375000D01*
X75500000Y-57040000D02*
X76825000Y-58365000D01*
%TO.N,+5V*%
X74283182Y-67300000D02*
X75083182Y-68100000D01*
X74200000Y-67300000D02*
X74283182Y-67300000D01*
X74200000Y-67216818D02*
X74200000Y-67300000D01*
X72841591Y-65858409D02*
X74200000Y-67216818D01*
X75083182Y-68100000D02*
X79912600Y-68100000D01*
X72841591Y-62658409D02*
X72841591Y-65858409D01*
X73100000Y-56902588D02*
X73100000Y-62400000D01*
X68939612Y-52742200D02*
X73100000Y-56902588D01*
X68939612Y-50259010D02*
X68939612Y-52742200D01*
X73100000Y-62400000D02*
X72841591Y-62658409D01*
X69399311Y-49799311D02*
X68939612Y-50259010D01*
X69399311Y-49799311D02*
X67900000Y-48300000D01*
X67900000Y-48300000D02*
X67900000Y-45950000D01*
%TO.N,CLOCK_IN*%
X68868718Y-46000000D02*
X68450000Y-45581282D01*
X69420000Y-46000000D02*
X68868718Y-46000000D01*
%TO.N,GND*%
X75400000Y-65000000D02*
X75300000Y-64900000D01*
X79600000Y-65000000D02*
X75400000Y-65000000D01*
%TO.N,+12V*%
X72200000Y-44300000D02*
X72200000Y-45600000D01*
X75050000Y-41450000D02*
X72200000Y-44300000D01*
X81250000Y-41450000D02*
X75050000Y-41450000D01*
X82700000Y-40000000D02*
X81250000Y-41450000D01*
%TO.N,GND*%
X71980000Y-47600000D02*
X70380000Y-46000000D01*
X72200000Y-47600000D02*
X71980000Y-47600000D01*
%TO.N,CLOCK_IN*%
X73710000Y-51910000D02*
X73710000Y-66010000D01*
X73000000Y-51200000D02*
X73710000Y-51910000D01*
X73000000Y-49400000D02*
X73000000Y-51200000D01*
X74556195Y-47843805D02*
X73000000Y-49400000D01*
X73350001Y-49049999D02*
X74556195Y-47843805D01*
X68450000Y-47450000D02*
X70049999Y-49049999D01*
X74556195Y-47843805D02*
X74556195Y-46956195D01*
X68450000Y-45581282D02*
X68450000Y-47450000D01*
X68193718Y-45325000D02*
X68450000Y-45581282D01*
X67900000Y-45325000D02*
X68193718Y-45325000D01*
X70049999Y-49049999D02*
X73350001Y-49049999D01*
X67900000Y-43850000D02*
X67900000Y-45325000D01*
%TO.N,+12V*%
X82700000Y-40000000D02*
X82700000Y-37460000D01*
%TO.N,+5V*%
X69800000Y-39787500D02*
X69800000Y-41300000D01*
%TO.N,GND*%
X75690000Y-51710000D02*
X75600000Y-51800000D01*
X75600000Y-51800000D02*
X75600000Y-52500000D01*
X76400000Y-51710000D02*
X75690000Y-51710000D01*
%TO.N,Net-(R15-Pad2)*%
X78267900Y-50690000D02*
X80237600Y-48720300D01*
X76400000Y-50690000D02*
X78267900Y-50690000D01*
%TO.N,GND*%
X68500000Y-40000000D02*
X68500000Y-41850000D01*
X68500000Y-41850000D02*
X67900000Y-42450000D01*
X69005000Y-38595000D02*
X69005000Y-39495000D01*
X69005000Y-39495000D02*
X68500000Y-40000000D01*
X68410000Y-38000000D02*
X69005000Y-38595000D01*
X70380000Y-44930000D02*
X70380000Y-46000000D01*
X67900000Y-42450000D02*
X70380000Y-44930000D01*
%TO.N,CLOCK_IN*%
X74556195Y-46956195D02*
X75800000Y-45712391D01*
X67900000Y-39610000D02*
X67900000Y-40350000D01*
X67200000Y-41050000D02*
X67200000Y-43150000D01*
X67200000Y-43150000D02*
X67900000Y-43850000D01*
X68410000Y-39100000D02*
X67900000Y-39610000D01*
X67900000Y-40350000D02*
X67200000Y-41050000D01*
%TO.N,Net-(D2-K)*%
X68942500Y-37355000D02*
X69800000Y-38212500D01*
X67815000Y-37624462D02*
X68084462Y-37355000D01*
X67815000Y-37938750D02*
X67815000Y-37624462D01*
X67300000Y-37938750D02*
X67815000Y-37938750D01*
X68084462Y-37355000D02*
X68942500Y-37355000D01*
%TO.N,Net-(J1-SIG)*%
X65350000Y-39700000D02*
X65950000Y-39100000D01*
X65350000Y-44072000D02*
X65350000Y-39700000D01*
X61970000Y-47452000D02*
X65350000Y-44072000D01*
X65950000Y-39100000D02*
X67390000Y-39100000D01*
%TO.N,+5V*%
X70740000Y-97250000D02*
X70400000Y-97250000D01*
X79912600Y-81900000D02*
X79912600Y-88077400D01*
X79912600Y-88077400D02*
X70740000Y-97250000D01*
X65250000Y-107000000D02*
X65250000Y-97250000D01*
X65250000Y-97250000D02*
X70400000Y-97250000D01*
X68210000Y-109960000D02*
X65250000Y-107000000D01*
X68210000Y-129000000D02*
X68210000Y-109960000D01*
X63120000Y-97250000D02*
X70400000Y-97250000D01*
%TO.N,GND*%
X67137200Y-80547200D02*
X62000000Y-80547200D01*
X67182200Y-53192200D02*
X62000000Y-53192200D01*
X67390000Y-80800000D02*
X67137200Y-80547200D01*
X67490000Y-53500000D02*
X67182200Y-53192200D01*
X67490000Y-67100000D02*
X67259700Y-66869700D01*
X67259700Y-66869700D02*
X62000000Y-66869700D01*
%TO.N,CLOCK_BAR*%
X79485000Y-113615000D02*
X78360000Y-112490000D01*
X78845000Y-116155000D02*
X79485000Y-115515000D01*
X73290000Y-121049009D02*
X78184009Y-116155000D01*
X78184009Y-116155000D02*
X78845000Y-116155000D01*
X73290000Y-129000000D02*
X73290000Y-121049009D01*
X79485000Y-115515000D02*
X79485000Y-113615000D01*
%TO.N,CLOCK_IN*%
X83600000Y-102170000D02*
X78360000Y-107410000D01*
X83600000Y-69400000D02*
X80200000Y-66000000D01*
X78817300Y-41900000D02*
X80237600Y-43320300D01*
X83600000Y-87300000D02*
X83600000Y-69400000D01*
X80200000Y-66000000D02*
X73700000Y-66000000D01*
X75800000Y-41900000D02*
X78817300Y-41900000D01*
X83600000Y-87300000D02*
X83600000Y-102170000D01*
X75800000Y-45712391D02*
X75800000Y-41900000D01*
%TO.N,Net-(D3-K)*%
X68510000Y-67100000D02*
X68225000Y-67385000D01*
X68225000Y-67385000D02*
X68225000Y-69977500D01*
%TO.N,RESET*%
X70750000Y-129000000D02*
X70750000Y-122640000D01*
X70750000Y-122640000D02*
X78360000Y-115030000D01*
%TO.N,+5V*%
X75200000Y-68100000D02*
X79912600Y-68100000D01*
X75200000Y-77187400D02*
X75200000Y-68100000D01*
X79912600Y-81900000D02*
X75200000Y-77187400D01*
%TO.N,Net-(D1-K)*%
X68225000Y-53785000D02*
X68225000Y-56300000D01*
X68510000Y-53500000D02*
X68225000Y-53785000D01*
%TO.N,Net-(D4-K)*%
X68125000Y-81085000D02*
X68410000Y-80800000D01*
X68125000Y-83655000D02*
X68125000Y-81085000D01*
%TD*%
M02*
