%TF.GenerationSoftware,KiCad,Pcbnew,7.0.5*%
%TF.CreationDate,2023-09-13T13:06:11-07:00*%
%TF.ProjectId,16Bars,31364261-7273-42e6-9b69-6361645f7063,rev?*%
%TF.SameCoordinates,Original*%
%TF.FileFunction,Profile,NP*%
%FSLAX46Y46*%
G04 Gerber Fmt 4.6, Leading zero omitted, Abs format (unit mm)*
G04 Created by KiCad (PCBNEW 7.0.5) date 2023-09-13 13:06:11*
%MOMM*%
%LPD*%
G01*
G04 APERTURE LIST*
%ADD10C,0.150000*%
%TA.AperFunction,Profile*%
%ADD11C,0.100000*%
%TD*%
G04 APERTURE END LIST*
D10*
X65933334Y-88104819D02*
X66552381Y-88104819D01*
X66552381Y-88104819D02*
X66219048Y-88485771D01*
X66219048Y-88485771D02*
X66361905Y-88485771D01*
X66361905Y-88485771D02*
X66457143Y-88533390D01*
X66457143Y-88533390D02*
X66504762Y-88581009D01*
X66504762Y-88581009D02*
X66552381Y-88676247D01*
X66552381Y-88676247D02*
X66552381Y-88914342D01*
X66552381Y-88914342D02*
X66504762Y-89009580D01*
X66504762Y-89009580D02*
X66457143Y-89057200D01*
X66457143Y-89057200D02*
X66361905Y-89104819D01*
X66361905Y-89104819D02*
X66076191Y-89104819D01*
X66076191Y-89104819D02*
X65980953Y-89057200D01*
X65980953Y-89057200D02*
X65933334Y-89009580D01*
X67171429Y-88104819D02*
X67266667Y-88104819D01*
X67266667Y-88104819D02*
X67361905Y-88152438D01*
X67361905Y-88152438D02*
X67409524Y-88200057D01*
X67409524Y-88200057D02*
X67457143Y-88295295D01*
X67457143Y-88295295D02*
X67504762Y-88485771D01*
X67504762Y-88485771D02*
X67504762Y-88723866D01*
X67504762Y-88723866D02*
X67457143Y-88914342D01*
X67457143Y-88914342D02*
X67409524Y-89009580D01*
X67409524Y-89009580D02*
X67361905Y-89057200D01*
X67361905Y-89057200D02*
X67266667Y-89104819D01*
X67266667Y-89104819D02*
X67171429Y-89104819D01*
X67171429Y-89104819D02*
X67076191Y-89057200D01*
X67076191Y-89057200D02*
X67028572Y-89009580D01*
X67028572Y-89009580D02*
X66980953Y-88914342D01*
X66980953Y-88914342D02*
X66933334Y-88723866D01*
X66933334Y-88723866D02*
X66933334Y-88485771D01*
X66933334Y-88485771D02*
X66980953Y-88295295D01*
X66980953Y-88295295D02*
X67028572Y-88200057D01*
X67028572Y-88200057D02*
X67076191Y-88152438D01*
X67076191Y-88152438D02*
X67171429Y-88104819D01*
X67933334Y-89009580D02*
X67980953Y-89057200D01*
X67980953Y-89057200D02*
X67933334Y-89104819D01*
X67933334Y-89104819D02*
X67885715Y-89057200D01*
X67885715Y-89057200D02*
X67933334Y-89009580D01*
X67933334Y-89009580D02*
X67933334Y-89104819D01*
X68361905Y-88200057D02*
X68409524Y-88152438D01*
X68409524Y-88152438D02*
X68504762Y-88104819D01*
X68504762Y-88104819D02*
X68742857Y-88104819D01*
X68742857Y-88104819D02*
X68838095Y-88152438D01*
X68838095Y-88152438D02*
X68885714Y-88200057D01*
X68885714Y-88200057D02*
X68933333Y-88295295D01*
X68933333Y-88295295D02*
X68933333Y-88390533D01*
X68933333Y-88390533D02*
X68885714Y-88533390D01*
X68885714Y-88533390D02*
X68314286Y-89104819D01*
X68314286Y-89104819D02*
X68933333Y-89104819D01*
X69552381Y-88104819D02*
X69647619Y-88104819D01*
X69647619Y-88104819D02*
X69742857Y-88152438D01*
X69742857Y-88152438D02*
X69790476Y-88200057D01*
X69790476Y-88200057D02*
X69838095Y-88295295D01*
X69838095Y-88295295D02*
X69885714Y-88485771D01*
X69885714Y-88485771D02*
X69885714Y-88723866D01*
X69885714Y-88723866D02*
X69838095Y-88914342D01*
X69838095Y-88914342D02*
X69790476Y-89009580D01*
X69790476Y-89009580D02*
X69742857Y-89057200D01*
X69742857Y-89057200D02*
X69647619Y-89104819D01*
X69647619Y-89104819D02*
X69552381Y-89104819D01*
X69552381Y-89104819D02*
X69457143Y-89057200D01*
X69457143Y-89057200D02*
X69409524Y-89009580D01*
X69409524Y-89009580D02*
X69361905Y-88914342D01*
X69361905Y-88914342D02*
X69314286Y-88723866D01*
X69314286Y-88723866D02*
X69314286Y-88485771D01*
X69314286Y-88485771D02*
X69361905Y-88295295D01*
X69361905Y-88295295D02*
X69409524Y-88200057D01*
X69409524Y-88200057D02*
X69457143Y-88152438D01*
X69457143Y-88152438D02*
X69552381Y-88104819D01*
X70504762Y-88104819D02*
X70600000Y-88104819D01*
X70600000Y-88104819D02*
X70695238Y-88152438D01*
X70695238Y-88152438D02*
X70742857Y-88200057D01*
X70742857Y-88200057D02*
X70790476Y-88295295D01*
X70790476Y-88295295D02*
X70838095Y-88485771D01*
X70838095Y-88485771D02*
X70838095Y-88723866D01*
X70838095Y-88723866D02*
X70790476Y-88914342D01*
X70790476Y-88914342D02*
X70742857Y-89009580D01*
X70742857Y-89009580D02*
X70695238Y-89057200D01*
X70695238Y-89057200D02*
X70600000Y-89104819D01*
X70600000Y-89104819D02*
X70504762Y-89104819D01*
X70504762Y-89104819D02*
X70409524Y-89057200D01*
X70409524Y-89057200D02*
X70361905Y-89009580D01*
X70361905Y-89009580D02*
X70314286Y-88914342D01*
X70314286Y-88914342D02*
X70266667Y-88723866D01*
X70266667Y-88723866D02*
X70266667Y-88485771D01*
X70266667Y-88485771D02*
X70314286Y-88295295D01*
X70314286Y-88295295D02*
X70361905Y-88200057D01*
X70361905Y-88200057D02*
X70409524Y-88152438D01*
X70409524Y-88152438D02*
X70504762Y-88104819D01*
X71457143Y-88104819D02*
X71552381Y-88104819D01*
X71552381Y-88104819D02*
X71647619Y-88152438D01*
X71647619Y-88152438D02*
X71695238Y-88200057D01*
X71695238Y-88200057D02*
X71742857Y-88295295D01*
X71742857Y-88295295D02*
X71790476Y-88485771D01*
X71790476Y-88485771D02*
X71790476Y-88723866D01*
X71790476Y-88723866D02*
X71742857Y-88914342D01*
X71742857Y-88914342D02*
X71695238Y-89009580D01*
X71695238Y-89009580D02*
X71647619Y-89057200D01*
X71647619Y-89057200D02*
X71552381Y-89104819D01*
X71552381Y-89104819D02*
X71457143Y-89104819D01*
X71457143Y-89104819D02*
X71361905Y-89057200D01*
X71361905Y-89057200D02*
X71314286Y-89009580D01*
X71314286Y-89009580D02*
X71266667Y-88914342D01*
X71266667Y-88914342D02*
X71219048Y-88723866D01*
X71219048Y-88723866D02*
X71219048Y-88485771D01*
X71219048Y-88485771D02*
X71266667Y-88295295D01*
X71266667Y-88295295D02*
X71314286Y-88200057D01*
X71314286Y-88200057D02*
X71361905Y-88152438D01*
X71361905Y-88152438D02*
X71457143Y-88104819D01*
X72980953Y-89104819D02*
X72980953Y-88438152D01*
X72980953Y-88533390D02*
X73028572Y-88485771D01*
X73028572Y-88485771D02*
X73123810Y-88438152D01*
X73123810Y-88438152D02*
X73266667Y-88438152D01*
X73266667Y-88438152D02*
X73361905Y-88485771D01*
X73361905Y-88485771D02*
X73409524Y-88581009D01*
X73409524Y-88581009D02*
X73409524Y-89104819D01*
X73409524Y-88581009D02*
X73457143Y-88485771D01*
X73457143Y-88485771D02*
X73552381Y-88438152D01*
X73552381Y-88438152D02*
X73695238Y-88438152D01*
X73695238Y-88438152D02*
X73790477Y-88485771D01*
X73790477Y-88485771D02*
X73838096Y-88581009D01*
X73838096Y-88581009D02*
X73838096Y-89104819D01*
X74314286Y-89104819D02*
X74314286Y-88438152D01*
X74314286Y-88533390D02*
X74361905Y-88485771D01*
X74361905Y-88485771D02*
X74457143Y-88438152D01*
X74457143Y-88438152D02*
X74600000Y-88438152D01*
X74600000Y-88438152D02*
X74695238Y-88485771D01*
X74695238Y-88485771D02*
X74742857Y-88581009D01*
X74742857Y-88581009D02*
X74742857Y-89104819D01*
X74742857Y-88581009D02*
X74790476Y-88485771D01*
X74790476Y-88485771D02*
X74885714Y-88438152D01*
X74885714Y-88438152D02*
X75028571Y-88438152D01*
X75028571Y-88438152D02*
X75123810Y-88485771D01*
X75123810Y-88485771D02*
X75171429Y-88581009D01*
X75171429Y-88581009D02*
X75171429Y-89104819D01*
D11*
X85700000Y-89800000D02*
X85700000Y-89800000D01*
X55500000Y-89213580D02*
X55500000Y-89800000D01*
X85700000Y-89800000D02*
X55500000Y-89800000D01*
X85700000Y-89800000D02*
X55500000Y-89800000D01*
X85700000Y-89800000D02*
X84573496Y-90386421D01*
X85700000Y-89800000D02*
X84573496Y-89213579D01*
X55500000Y-89800000D02*
X56626504Y-89213579D01*
X55500000Y-89800000D02*
X56626504Y-90386421D01*
X56500000Y-140000000D02*
X85000000Y-140000000D01*
X56500000Y-35000000D02*
X85000000Y-35000000D01*
X56500000Y-35000000D02*
X56500000Y-140000000D01*
X85000000Y-35000000D02*
X85000000Y-140000000D01*
M02*
