<?xml version="1.0" encoding="UTF-8" standalone="no"?>
<!DOCTYPE svg PUBLIC "-//W3C//DTD SVG 1.1//EN" "http://www.w3.org/Graphics/SVG/1.1/DTD/svg11.dtd">
<svg width="100%" height="100%" viewBox="0 0 35 10" version="1.1" xmlns="http://www.w3.org/2000/svg" xmlns:xlink="http://www.w3.org/1999/xlink" xml:space="preserve" xmlns:serif="http://www.serif.com/" style="fill-rule:evenodd;clip-rule:evenodd;stroke-linejoin:round;stroke-miterlimit:2;">
    <g transform="matrix(0.0169189,0,0,0.0169189,0,0)">
        <g transform="matrix(1,0,0,1,-153.69,-63.9883)">
            <path d="M1918.28,342.98C1911.81,337.12 1907.15,331.44 1904.3,325.95C1895.87,309.7 1916.61,290.29 1932.7,297.72C1937.16,299.78 1941.19,304.59 1945.01,308.58C1971.63,336.42 2019.27,340.64 2054.42,331.92C2070.3,327.98 2087.35,317.16 2093.61,301.45C2098.54,289.06 2098.11,274.21 2091.07,262.81C2082.53,248.98 2064.54,240.92 2049.17,237.59C2027.48,232.89 2004.45,231.14 1980.99,226.1C1947.13,218.83 1912.73,199.89 1907.55,161.74C1905.87,149.36 1905.87,136.59 1909.35,124.67C1918.69,92.7 1950.73,74.97 1981.01,68.3C2027.54,58.06 2081.81,65.53 2119.69,96.41C2123.8,99.76 2126.58,102.86 2128.04,105.7C2135.13,119.52 2120.59,139.73 2104.79,134.72C2102.85,134.11 2100.18,132.48 2096.78,129.85C2068.84,108.2 2036.09,97.72 2000.51,102.77C1993.2,103.8 1986.95,105.29 1981.75,107.24C1960.34,115.23 1944.81,136.54 1952.25,160C1958.41,179.43 1986.95,187.32 2004.25,190C2054.91,197.85 2132.12,202.01 2140.37,268.65C2150.07,346.92 2084.12,374.71 2019,374.65C1982.94,374.62 1945.51,367.65 1918.28,342.98Z" style="fill-rule:nonzero;"/>
        </g>
        <g transform="matrix(1,0,0,1,-153.69,-63.9883)">
            <path d="M313.42,115.83C307.42,116.16 300.02,116.33 294.79,113.94C278.76,106.62 280.16,80.48 297.09,74.89C299.34,74.15 303.03,73.78 308.16,73.77C316.28,73.76 324.4,73.75 332.52,73.74C343.87,73.73 352.64,75.37 356.83,86.29C357.74,88.67 358.21,92.08 358.24,96.52C358.59,148.08 358.62,199.64 358.33,251.2C358.3,256.17 357.88,259.82 357.06,262.16C350.6,280.56 322.2,280.85 315.52,262.401C314.51,259.63 314.01,254.93 314.01,248.3C314,204.36 313.99,160.39 314,116.38C314,116.06 313.73,115.81 313.42,115.83Z" style="fill-rule:nonzero;"/>
        </g>
        <g transform="matrix(1,0,0,1,-153.69,-63.9883)">
            <path d="M450.29,190.52C469.7,183.75 488.83,183.27 507.68,189.08C571.75,208.82 593.98,289.45 547.24,338.57C532.03,354.56 513.34,363.88 491.17,366.51C487.1,366.99 480.44,367.23 471.19,367.24C373.04,367.26 274.9,367.3 176.75,367.35C150.38,367.36 144.86,331.57 169.45,325.04C171.42,324.52 174.69,324.26 179.26,324.26C276.17,324.25 373.09,324.24 470,324.25C479.89,324.26 486.54,323.96 489.95,323.35C515.38,318.83 533.14,293.68 528.57,268.18C520.02,220.37 454.8,213.36 436.34,258.711C434.4,263.48 433.08,266.36 432.37,267.35C422.86,280.78 402.07,278.01 395.22,263.54C389.23,250.89 401.26,232.08 408.42,219.73C433.56,176.37 458.67,132.99 483.75,89.6C486.97,84.03 489.71,80.28 491.98,78.34C500.99,70.63 516.38,73.3 523.56,83.56C528.64,90.82 528.17,98.39 523.789,106.03C510.01,130.07 496.16,154.08 482.23,178.05C482.07,178.32 481.8,178.5 481.5,178.55C470.25,180.42 459.83,184.38 450.24,190.42C449.95,190.6 449.97,190.63 450.29,190.52Z" style="fill-rule:nonzero;"/>
        </g>
        <g transform="matrix(1,0,0,1,-153.69,-63.9883)">
            <path d="M844.42,162.76C844.36,162.58 844.1,162.58 844.04,162.76C823.51,220.09 802.97,277.4 782.44,334.69C779.69,342.36 777.3,350.98 773.12,356.53C762.37,370.8 738.8,369.87 728.62,356.35C726.57,353.63 724.28,348.82 721.75,341.92C693.26,264.271 664.76,186.63 636.25,109C634.63,104.59 632.51,99.48 632.43,95.07C632.06,75.69 659.74,68.55 672.66,79.34C677.61,83.48 679.18,89.18 681.25,95.5C704.37,166.23 727.46,236.89 750.52,307.5C750.62,307.82 751.08,307.83 751.18,307.51C774.87,237.1 798.56,166.72 822.26,96.37C824.3,90.32 826.23,86.14 828.06,83.85C837.96,71.39 858.29,75.14 863.52,90.24C888.68,162.81 913.84,235.4 939,308C939.05,308.15 939.27,308.15 939.32,307.99C961.88,236.76 984.45,165.51 1007.03,94.26C1009.08,87.8 1010.73,82.58 1016.41,78.41C1025.38,71.81 1039.13,73.69 1047.66,79.81C1056.77,86.36 1056.76,95.05 1053.27,104.76C1025.22,182.65 997.16,260.531 969.09,338.42C965.73,347.74 963.33,353.44 961.89,355.52C951.81,370.09 927.18,370.89 916.3,356.28C914.69,354.12 912.85,350.23 910.79,344.6C888.61,284.03 866.49,223.41 844.42,162.76Z" style="fill-rule:nonzero;"/>
        </g>
        <g transform="matrix(1,0,0,1,-153.69,-63.9883)">
            <path d="M1295.31,152.38C1295.25,217.07 1295.23,281.77 1295.26,346.5C1295.26,373.26 1250.77,374.01 1250.71,346.19C1250.56,262.961 1250.54,179.73 1250.66,96.5C1250.69,79.37 1267.14,71.48 1282.01,75C1288.4,76.52 1292.16,80.06 1296.55,85.61C1350.77,154.22 1404.97,222.83 1459.14,291.45C1459.24,291.58 1459.45,291.51 1459.45,291.34C1459.51,226.3 1459.52,161.27 1459.49,96.25C1459.48,67.19 1503.96,67.82 1504,94.81C1504.21,225.9 1504.28,309.38 1504.23,345.25C1504.21,365.23 1478.55,373.3 1464.26,362.4C1462.77,361.27 1460.79,359.15 1458.31,356.05C1404.08,288.15 1349.86,220.22 1295.63,152.27C1295.53,152.14 1295.31,152.21 1295.31,152.38Z" style="fill-rule:nonzero;"/>
        </g>
        <g transform="matrix(1,0,0,1,-153.69,-63.9883)">
            <path d="M1165.46,345.78C1165.46,357.46 1155.99,366.93 1144.31,366.93L1142.15,366.93C1130.47,366.93 1121,357.46 1121,345.78L1121,95.64C1121,83.96 1130.47,74.49 1142.15,74.49L1144.31,74.49C1155.99,74.49 1165.46,83.96 1165.46,95.64L1165.46,345.78Z" style="fill-rule:nonzero;"/>
        </g>
        <g transform="matrix(1,0,0,1,-153.69,-63.9883)">
            <path d="M1593.95,358.81C1588.99,352.6 1589.29,346.66 1589.29,337.25C1589.24,259.25 1589.23,181.25 1589.26,103.25C1589.27,91.38 1590.34,80.46 1602.91,75.94C1605.6,74.97 1609.88,74.49 1615.76,74.49C1646.42,74.5 1677.08,74.51 1707.75,74.5C1738.21,74.49 1768.04,83.33 1792.73,100.78C1845.81,138.3 1859.39,211.3 1841.84,270.52C1832.91,300.65 1815.91,324.48 1790.83,342.01C1765.08,360.02 1735.26,366.74 1704.19,366.89C1673.8,367.04 1643.4,367.05 1613,366.93C1604.91,366.9 1599.04,365.19 1593.95,358.81ZM1706.81,324.26C1774.77,323.99 1812.25,267.14 1803.54,203.23C1797.26,157.17 1767.1,123.03 1719.47,117.34C1714,116.69 1708.51,116.35 1702.99,116.33C1680.11,116.24 1657.19,116.23 1634.24,116.3C1633.97,116.3 1633.75,116.52 1633.75,116.79L1633.75,323.71C1633.75,323.98 1633.96,324.19 1634.23,324.19C1658.42,324.34 1682.62,324.36 1706.81,324.26Z" style="fill-rule:nonzero;"/>
        </g>
        <g transform="matrix(1,0,0,1,-13.7758,-69.3648)">
            <path d="M685.44,456.56C470.13,456.48 254.82,456.47 39.51,456.52C34.47,456.52 30.83,456.18 28.59,455.5C9.65,449.75 8.52,422.04 27.23,415.09C29.64,414.2 33.42,413.75 38.57,413.75L688.25,413.75C699.55,413.75 710.69,416.07 721.67,420.72C776.13,443.77 794.61,510.97 759.84,558.55C716.62,617.68 625.52,603.39 600.75,534.84C590.24,505.76 630.61,491.88 641.23,520.541C650.9,546.64 678.95,559.67 705.07,549.03C734.99,536.84 744,498.85 723.35,473.8C713.88,462.31 701.24,456.57 685.44,456.56Z" style="fill-rule:nonzero;"/>
        </g>
    </g>
</svg>
