<?xml version="1.0" encoding="UTF-8" standalone="no"?>
<!DOCTYPE svg PUBLIC "-//W3C//DTD SVG 1.1//EN" "http://www.w3.org/Graphics/SVG/1.1/DTD/svg11.dtd">
<svg width="100%" height="100%" viewBox="0 0 69 10" version="1.1" xmlns="http://www.w3.org/2000/svg" xmlns:xlink="http://www.w3.org/1999/xlink" xml:space="preserve" xmlns:serif="http://www.serif.com/" style="fill-rule:evenodd;clip-rule:evenodd;">
    <g transform="matrix(0.0315082,0,0,0.0315082,-0.387831,-2.21056)">
        <g>
            <path d="M426.06,317.05C425.75,297.77 429.09,283.42 435.5,264.79C439.23,253.96 440.64,241.92 442.86,230.68C444.29,223.4 447.7,216.22 449.91,209.07C455.45,191.097 460.943,173.103 466.39,155.09C469.41,145.09 470.72,134.78 472.49,124.47C473.01,121.45 473.863,118.427 475.05,115.4C478.543,106.527 481.743,97.55 484.65,88.47C485.29,86.463 484.783,84.51 483.13,82.61C480.24,79.3 477.68,78.27 473.36,80.2C462.533,85.013 451.983,90.373 441.71,96.28C440.623,96.907 439.183,97.417 437.39,97.81C435.07,98.323 432.893,99.267 430.86,100.64C426.05,103.9 428.79,112.19 435.4,110.17C435.702,110.082 436.027,110.137 436.28,110.32C437.86,111.49 439.62,112.11 440.59,113.78C442.73,117.52 439.92,126.02 438.15,130.85C435.103,139.143 432.37,147.537 429.95,156.03C427.77,163.68 428.32,172.49 427.92,180.44C427.52,188.1 426.92,199.26 417.73,200.32C415.74,200.55 411.17,200.92 409.81,199.71C407.45,197.62 404.13,194.04 401.38,193.1C396.38,191.4 391.87,195.07 386.91,194.12C378.43,192.5 369.877,191.737 361.25,191.83C352.51,191.93 343.09,200.75 338.47,207.07C329.08,219.9 314.6,229.86 310.5,244.5C309.13,249.41 305.63,254.92 304.68,260.74C302.52,274.053 300.333,287.357 298.12,300.65C297.14,306.49 298.55,309.73 301.47,314.54C306.923,323.513 312.197,331.19 317.29,337.57C319.76,340.66 325.47,341.82 329.18,342.54C333.78,343.43 338.78,341.66 343.27,340.53C348.76,339.16 354.12,338.89 359.67,338.28C367.197,337.447 373.797,334.677 379.47,329.97C393.82,318.06 390.87,340.66 391,346.28C391.007,346.608 391.135,346.922 391.36,347.16C392.64,348.56 393.85,349.17 395.86,348.7C401.62,347.34 407.26,344.61 413.01,343.92C417.16,343.43 421.56,343.54 425.18,341.33C434.67,335.54 439.64,329.7 439.38,317.99C439.38,317.975 439.379,317.96 439.378,317.944C439.34,317.177 438.672,316.578 437.899,316.617C437.886,316.618 437.873,316.619 437.86,316.62L426.61,317.55C426.597,317.551 426.583,317.552 426.57,317.552C426.293,317.552 426.065,317.327 426.06,317.05" style="fill:none;fill-rule:nonzero;stroke:rgb(128,128,128);stroke-width:2px;"/>
            <path d="M1774.05,317.07C1773.81,307.46 1774.22,298.16 1776.69,288.48C1778.94,279.647 1781.22,271.757 1783.53,264.81C1787.17,253.89 1788.63,242.02 1790.85,230.74C1792.3,223.33 1795.77,216.05 1797.99,208.76C1803.16,191.807 1808.37,174.863 1813.61,157.93C1817.39,145.7 1818.49,135.13 1820.71,123.54C1821.32,120.4 1822.3,117.13 1823.66,113.73C1826.9,105.67 1829.84,97.5 1832.48,89.22C1833.51,85.99 1833.06,84.87 1831,82.49C1827.57,78.54 1824.94,78.54 1820.15,80.71C1809.91,85.35 1799.91,90.463 1790.14,96.05C1788.99,96.703 1787.48,97.257 1785.59,97.71C1783.11,98.303 1780.79,99.337 1778.63,100.81C1774.09,103.91 1776.86,112.15 1783.4,110.17C1783.7,110.082 1784.03,110.137 1784.28,110.32C1785.86,111.49 1787.62,112.11 1788.59,113.78C1790.61,117.3 1788.28,124.86 1786.66,129.31C1783.43,138.177 1780.51,147.147 1777.89,156.22C1777.15,158.8 1776.72,161.547 1776.61,164.46C1776.36,170.91 1777,193.43 1770.85,198.04C1767.78,200.34 1764.3,201.143 1760.41,200.45C1754.04,199.31 1753.07,191.84 1745.25,192.8C1742.48,193.14 1740.05,193.667 1737.96,194.38C1737.65,194.487 1737.33,194.51 1737,194.45C1728.46,192.823 1719.84,191.927 1711.15,191.76C1699.94,191.54 1691.27,200.72 1685,208.93C1681.3,213.783 1677.31,218.397 1673.04,222.77C1667.72,228.22 1661.78,234.53 1659.32,241.84C1657.14,248.29 1653.72,254.41 1652.77,260.34C1650.6,273.78 1648.38,287.213 1646.1,300.64C1645.21,305.87 1646.28,309.4 1648.86,313.66C1653.73,321.7 1659.03,330.38 1665.21,337.46C1668.93,341.72 1678.27,343.46 1683.57,342.35C1688.75,341.27 1693.69,339.63 1698.92,339.23C1711.84,338.22 1719.51,336.82 1729.19,328.46C1731.48,326.48 1733.75,326.127 1735.98,327.4C1740.92,330.22 1738.89,341.61 1739,346.29C1739.01,346.612 1739.13,346.922 1739.35,347.16C1740.73,348.64 1742.05,349.17 1744.15,348.64C1749.86,347.21 1755.5,344.58 1761.25,343.89C1765.25,343.41 1769.54,343.53 1773.05,341.39C1782.46,335.66 1788.85,328.69 1787.08,316.74C1787.06,316.584 1786.92,316.472 1786.76,316.49L1774.65,317.61C1774.64,317.611 1774.64,317.611 1774.63,317.611C1774.33,317.629 1774.07,317.392 1774.05,317.085C1774.05,317.08 1774.05,317.075 1774.05,317.07" style="fill:none;fill-rule:nonzero;stroke:rgb(128,128,128);stroke-width:2px;"/>
            <path d="M817.3,111.76C809.76,123.37 801.89,134.66 794.04,146.06C789.1,153.24 805.79,154.4 808.89,154.28C816.04,154.01 819.92,143.06 825.66,138.3C827.82,136.51 838.88,127.78 838.52,125.26C837.947,121.22 837.44,117.18 837,113.14C835.63,100.65 822.26,104.15 817.3,111.76" style="fill:none;fill-rule:nonzero;stroke:rgb(128,128,128);stroke-width:2px;"/>
            <path d="M1907.97,105.41C1897.12,102.98 1893.45,111.8 1888.5,119.06C1882.19,128.34 1875.85,137.61 1869.5,146.87C1869.31,147.143 1869.22,147.466 1869.23,147.79C1869.43,153.75 1879.92,154.34 1884.21,154.29C1891.13,154.23 1893.89,147.2 1897.54,142.57C1898.98,140.73 1901.01,138.75 1903.62,136.63C1905.58,135.04 1914.87,127.6 1914.53,125.25C1913.93,121.223 1913.42,117.187 1912.99,113.14C1912.61,109.52 1911.58,106.22 1907.97,105.41" style="fill:none;fill-rule:nonzero;stroke:rgb(128,128,128);stroke-width:2px;"/>
            <path d="M2043.57,327C2042.22,336.88 2052.25,341.86 2060.06,343.47C2071.22,345.757 2082.49,346.967 2093.88,347.1C2096.2,347.127 2098.75,346.8 2101.53,346.12C2108.05,344.527 2114.65,343.457 2121.34,342.91C2128.74,342.31 2139.23,331.37 2142.74,325.67C2150.18,313.59 2163.43,292.54 2153.11,278.41C2150.81,275.263 2149.25,272.45 2148.43,269.97C2148.32,269.65 2148.15,269.377 2147.9,269.15C2146.08,267.5 2138.87,261.42 2138.92,258.02C2138.93,257.713 2138.78,257.424 2138.53,257.25C2125.19,248.05 2112.38,237.96 2098.67,229.77C2097.89,229.303 2097.45,228.607 2097.35,227.68C2096.16,216.73 2104.16,208.07 2112.32,201.32C2120.94,194.18 2130.13,194.08 2140.99,196.4C2149.85,198.293 2155.94,203.28 2159.25,211.36C2160.02,213.24 2161.94,215.03 2161.82,217.5C2161.64,221.29 2159.66,232.24 2163.56,234.08C2163.86,234.216 2164.19,234.241 2164.51,234.15C2167.72,233.23 2170.6,225.59 2171.68,222.69C2172.95,219.29 2174.1,216.64 2175.11,214.74C2180.68,204.28 2185.38,196.55 2171.07,190.93C2162.4,187.52 2156.68,180.95 2147.4,180.96C2145.03,180.96 2143.2,180.24 2140.99,179.7C2139.46,179.327 2137.84,179.297 2136.15,179.61C2129.5,180.84 2121.7,180.99 2115.5,183.6C2107.69,186.89 2094.78,190.44 2089.22,196.99C2086.42,200.29 2083.67,203.04 2081.73,206.8C2074.68,220.52 2067.16,243.13 2078.18,256.48C2079.79,258.43 2080.3,260 2081.11,262.24C2081.22,262.547 2081.42,262.818 2081.68,263.02C2084.61,265.28 2087.21,267.867 2089.47,270.78C2094.31,277.01 2103.58,279.44 2109.55,284.02C2115.54,288.61 2123.21,295.26 2125.39,302.42C2128.42,312.37 2123.83,320.86 2115.31,326.36C2106.58,332 2096.9,332.04 2087.05,332.81C2081.6,333.237 2077.58,333.13 2074.99,332.49C2068.99,331.02 2062.26,326.64 2059.66,320.73C2056.7,314.01 2061.99,307.37 2058.4,300.25C2058.36,300.169 2058.31,300.09 2058.26,300.014C2057.55,298.927 2056.06,298.622 2054.97,299.34C2054.89,299.389 2054.82,299.443 2054.75,299.5C2047.48,305.56 2044.79,318.09 2043.57,327" style="fill:none;fill-rule:nonzero;stroke:rgb(128,128,128);stroke-width:2px;"/>
            <path d="M113.76,255.37C101.62,246.77 90.11,237.75 77.15,230.38C73.02,228.03 75.99,218.92 77.79,215.68C83.93,204.65 95.04,194.66 108.45,195.13C120.89,195.57 133.15,199.22 137.53,212.27C137.637,212.583 137.807,212.86 138.04,213.1C142.98,218.03 135.68,231.18 141.54,234.08C141.836,234.222 142.171,234.25 142.48,234.16C146.94,232.86 150.54,219.53 152.8,215.32C155.15,210.95 158.77,205.34 158.59,200.85C158.23,192.4 150.81,192.64 144.95,188.89C139.41,185.34 132.38,181.16 126.66,181C122.71,180.89 118.8,178.91 115.34,179.46C107.79,180.68 99.31,181.09 92.23,184.03C79.88,189.17 67.31,192.74 60.38,205.61C52.84,219.63 44.87,243.16 56.48,256.85C57.95,258.58 58.32,260.21 59.13,262.21C59.257,262.523 59.45,262.78 59.71,262.98C62.577,265.253 65.133,267.817 67.38,270.67C71.98,276.51 79.94,279.01 85.8,282.77C90.71,285.92 99.29,293.49 101.95,298.9C105.143,305.413 105.16,311.58 102,317.4C93.93,332.27 76.28,331.57 62.19,333.09C51.17,334.28 35.45,327.22 36.94,313.75C37.47,308.97 38.72,304.9 36.42,300.27C36.392,300.214 36.362,300.159 36.33,300.106C35.67,299.012 34.222,298.657 33.123,299.32C33.071,299.351 33.02,299.385 32.97,299.42C25.43,304.83 22.26,319.82 21.43,328.47C20.42,339.15 35.61,343.39 43.59,344.68C54.26,346.42 69.19,348.71 79.71,346.1C86.19,344.493 92.76,343.43 99.42,342.91C106.57,342.34 117.17,331.42 120.54,325.99C127.75,314.37 134.53,303.82 134.67,289.09C134.74,280.99 128.76,277.23 126.69,270.49C126.59,270.177 126.427,269.9 126.2,269.66L117.39,260.52C117.169,260.293 117.063,259.977 117.1,259.66C117.38,256.86 115.6,256.67 113.76,255.37" style="fill:none;fill-rule:nonzero;stroke:rgb(128,128,128);stroke-width:2px;"/>
            <path d="M1491.73,289.9C1488.21,308.01 1495.88,327.25 1513.26,335.57C1513.55,335.707 1513.8,335.934 1513.96,336.22C1516.28,340.33 1521.4,347.19 1526.93,344.13C1527.22,343.968 1527.56,343.908 1527.89,343.96C1531.42,344.54 1534.84,345.547 1538.15,346.98C1538.42,347.097 1538.72,347.132 1539.01,347.08C1542.84,346.413 1546.64,345.567 1550.39,344.54C1553.48,343.69 1556.01,344.18 1559,344.74C1574.64,347.64 1602.17,319.18 1611.53,308.26C1617.17,301.69 1622.97,293.42 1625.77,284.99C1626.74,282.063 1627.68,279.707 1628.57,277.92C1634.58,265.86 1641.16,249.42 1640.73,235.81C1640.5,228.75 1639.88,220.35 1636.59,213.88C1635.41,211.56 1634.45,207.83 1631.79,205.53C1631.55,205.322 1631.38,205.041 1631.32,204.73L1628.8,192.2C1628.74,191.914 1628.57,191.666 1628.32,191.52C1622,187.693 1615.23,185.113 1608,183.78C1604.14,183.06 1601.04,181.48 1597.47,180.17C1597.16,180.053 1596.83,180.032 1596.51,180.11C1591.84,181.21 1585.7,183.35 1580.94,182.55C1569.66,180.64 1559.98,186.18 1550.14,190.79C1548.13,191.737 1546.23,193.003 1544.45,194.59C1536.41,201.763 1527.97,208.427 1519.12,214.58C1516.68,216.28 1514.13,221.68 1512.48,224.33C1510.34,227.76 1509.94,231.2 1509,235.04C1508.53,236.933 1507.74,238.783 1506.62,240.59C1500.35,250.703 1495.81,261.01 1493.01,271.51C1491.35,277.69 1492.95,283.65 1491.73,289.9" style="fill:none;fill-rule:nonzero;stroke:rgb(128,128,128);stroke-width:2px;"/>
            <path d="M1891.51,291.01C1888.46,308.82 1896.32,327.43 1913.26,335.57C1913.55,335.713 1913.8,335.939 1913.96,336.22C1916.28,340.32 1921.4,347.19 1926.93,344.13C1927.22,343.968 1927.56,343.908 1927.89,343.96C1931.42,344.54 1934.84,345.547 1938.15,346.98C1938.42,347.097 1938.72,347.132 1939.01,347.08C1942.84,346.413 1946.64,345.567 1950.39,344.54C1953.48,343.69 1956.01,344.18 1959,344.74C1974.64,347.64 2002.17,319.18 2011.53,308.26C2017.08,301.79 2022.93,293.51 2025.71,285.17C2026.69,282.21 2027.62,279.853 2028.49,278.1C2034.51,266.03 2041.13,249.59 2040.73,235.96C2040.52,228.86 2039.9,220.38 2036.59,213.88C2035.41,211.56 2034.45,207.83 2031.79,205.53C2031.55,205.322 2031.38,205.041 2031.32,204.73L2028.8,192.2C2028.74,191.914 2028.57,191.666 2028.32,191.52C2022,187.693 2015.23,185.113 2008,183.78C2004.14,183.06 2001.04,181.48 1997.47,180.17C1997.16,180.053 1996.83,180.032 1996.51,180.11C1991.84,181.21 1985.7,183.35 1980.94,182.55C1969.67,180.64 1959.98,186.17 1950.16,190.78C1948.13,191.733 1946.23,193.007 1944.44,194.6C1936.57,201.627 1928.32,208.193 1919.71,214.3C1916.46,216.6 1914.6,220.95 1912.51,224.27C1909.17,229.6 1909.95,235.33 1906.52,240.81C1900.13,251.037 1895.46,262.013 1892.53,273.74C1891.14,279.31 1892.53,285.05 1891.51,291.01" style="fill:none;fill-rule:nonzero;stroke:rgb(128,128,128);stroke-width:2px;"/>
            <path d="M900.52,206.17C896.36,208.13 894.69,205.1 892.57,202.22C892.381,201.959 892.276,201.645 892.27,201.32C892.197,195.24 893.09,189.32 894.95,183.56C894.957,183.539 894.962,183.518 894.965,183.496C894.997,183.285 894.854,183.085 894.648,183.054C894.625,183.051 894.603,183.049 894.58,183.05C877.46,183.37 859.6,195.62 847.52,207.63C847.297,207.853 847.174,208.16 847.18,208.48C847.253,211.193 848.543,213.013 851.05,213.94C855.27,215.5 856.22,217.82 856.27,222.33C856.35,229.283 855.8,236.18 854.62,243.02C853.81,247.72 854.7,252.34 852.94,256.8C850.793,262.26 848.233,267.537 845.26,272.63C845.097,272.904 845.02,273.224 845.04,273.55C845.89,287.36 829.27,329.72 813.9,333.08C813.585,333.151 813.307,333.336 813.12,333.6C808.71,339.86 809.27,348.05 819.12,346.94C829.28,345.8 839.82,342.4 848.68,349.61C848.919,349.805 849.238,349.875 849.54,349.8C852.967,348.94 856.43,348.363 859.93,348.07C861.823,347.917 863.387,347.47 864.62,346.73C868.31,344.53 876.05,339.21 871.29,334.23C868.883,331.703 866.337,329.307 863.65,327.04C863.403,326.838 863.26,326.533 863.26,326.21C863.24,320.26 862.95,314.54 864.05,308.68C865.77,299.513 867.743,290.4 869.97,281.34C870.87,277.71 869.79,275.04 868.16,271.95C868.126,271.884 868.108,271.811 868.108,271.737C868.108,271.503 868.287,271.304 868.52,271.28L868.8,271.25C869.159,271.211 869.486,271.039 869.71,270.77C874.463,265.077 877.817,259.407 879.77,253.76C881.79,247.9 882.99,239.4 885.69,233.34C888.88,226.16 894.02,216.38 901.99,213.97C910.88,211.29 936.73,204 944.79,208.95C954.17,214.71 949.16,241.71 946.06,250.65C944.98,253.77 944.223,256.587 943.79,259.1C940.25,279.75 935.89,300.8 925.53,319.25C924.723,320.69 923.61,321.943 922.19,323.01C916.31,327.44 910.09,331.94 905.61,337.84C897.89,348 929.75,346.56 933.09,346.49C934.6,346.45 936.09,346.91 937.66,346.98C937.989,346.993 938.309,346.89 938.56,346.69C940.69,344.98 947.01,348.02 949.52,348.87C949.82,348.972 950.15,348.943 950.43,348.79C952.423,347.723 954.28,347.557 956,348.29C963.12,351.33 968.78,339.89 969.43,334.6C969.431,334.59 969.432,334.581 969.432,334.571C969.444,334.335 969.265,334.132 969.035,334.12C969.023,334.12 969.012,334.12 969,334.12C962.31,334.27 956.49,329.66 957.97,322.59C961.84,304.11 964.52,288.6 972.25,268.97C973.59,265.57 973,260.56 974.53,256.44C978.14,246.72 979.93,240.12 979.92,231.24C979.92,227.2 988.79,219.62 992.18,216.88C992.424,216.68 992.75,216.613 993.05,216.7L994.11,217.01C994.441,217.105 994.796,217.034 995.06,216.82C1000.47,212.52 1014.25,205.82 1021.17,205.78C1034.66,205.72 1044.39,215.78 1050.79,226.46C1054.62,232.85 1047.56,245.91 1045.12,252.09C1043.27,256.78 1042.69,261.57 1041.77,266.5C1041.5,267.96 1041.01,269.17 1040.3,270.13C1040.11,270.39 1040,270.706 1040,271.03C1039.96,277.27 1034.89,282.46 1035.08,289.25C1035.27,296 1032.79,302.34 1028.76,307.68C1028.58,307.92 1028.46,308.19 1028.41,308.49L1026.41,320.14C1026.35,320.462 1026.18,320.753 1025.93,320.96C1022.12,324.147 1018.28,327.287 1014.39,330.38C1010.47,333.5 1006.31,332.76 1002.83,336.6C1002.61,336.846 1002.48,337.159 1002.45,337.49C1001.67,348.11 1016.14,347.58 1022.99,347.51C1027.55,347.47 1032.98,349.22 1038.37,348.77C1047.92,347.983 1057.45,346.997 1066.97,345.81C1067.35,345.76 1067.69,345.534 1067.88,345.2L1071.75,338.24C1071.8,338.154 1071.82,338.057 1071.82,337.959C1071.82,337.736 1071.69,337.532 1071.49,337.44C1067.16,335.4 1059.72,333.9 1059.31,328.18C1058.92,322.52 1059.3,316.177 1060.45,309.15C1062.5,296.663 1064.59,284.183 1066.71,271.71C1069.57,254.86 1076.39,238.26 1082.04,222.01C1084,216.37 1084.33,210.2 1083.02,203.5C1080.58,191.05 1071.94,189.24 1061.93,184.68C1057.02,182.44 1052.45,183.74 1048.04,183.81C1038.18,183.97 1030.91,186.26 1022.94,191.95C1014.09,198.27 999.82,203.4 992.08,213.36C991.905,213.58 991.59,213.636 991.35,213.49C987.28,211 984.92,208.74 982.51,204.19C979.11,197.83 975.25,192.16 968.76,188.73C968.447,188.57 968.197,188.343 968.01,188.05C965.81,184.577 962.72,182.257 958.74,181.09C958.417,180.993 958.07,181.015 957.76,181.15C949.15,184.87 940.8,189.03 932.14,192.47C921.467,196.703 910.927,201.27 900.52,206.17" style="fill:none;fill-rule:nonzero;stroke:rgb(128,128,128);stroke-width:2px;"/>
            <path d="M1395.5,213.45C1384.87,207.54 1384.32,194.78 1372.8,188.76C1372.49,188.593 1372.23,188.36 1372.04,188.06C1369.87,184.707 1366.89,182.407 1363.08,181.16C1362.73,181.049 1362.35,181.049 1362,181.16C1353.36,183.95 1344.76,189.06 1336.2,192.5C1324.08,197.37 1315.43,201.2 1305.12,205.85C1300.55,207.91 1299.18,206.01 1296.55,202.22C1296.37,201.96 1296.27,201.646 1296.27,201.32C1296.2,195.24 1297.1,189.32 1298.96,183.56C1298.98,183.518 1298.98,183.474 1298.98,183.43C1298.98,183.216 1298.81,183.04 1298.59,183.04C1298.59,183.04 1298.58,183.04 1298.58,183.04C1281.13,183.49 1263.53,195.77 1251.51,207.62C1251.28,207.843 1251.16,208.153 1251.17,208.47C1251.39,215.75 1260.22,212.29 1260.28,222.33C1260.36,234.04 1258.07,241.63 1257.99,251.38C1257.95,257.71 1252.43,267.12 1249.26,272.62C1249.1,272.9 1249.02,273.224 1249.05,273.55C1249.97,287.45 1233.24,329.52 1217.9,333.09C1217.59,333.161 1217.31,333.346 1217.12,333.61C1212.79,339.68 1213.09,347.86 1222.86,346.88C1233.1,345.84 1243.81,342.39 1252.68,349.61C1252.92,349.805 1253.24,349.875 1253.54,349.8C1256.96,348.94 1260.42,348.367 1263.91,348.08C1265.83,347.92 1267.41,347.47 1268.66,346.73C1272.35,344.53 1280.02,339.18 1275.29,334.23C1272.88,331.703 1270.33,329.307 1267.65,327.04C1267.41,326.836 1267.27,326.537 1267.26,326.22C1267.21,320.13 1266.97,314.39 1268.13,308.35C1269.86,299.303 1271.81,290.3 1273.98,281.34C1274.86,277.7 1273.79,275.04 1272.16,271.95C1272.13,271.884 1272.11,271.811 1272.11,271.737C1272.11,271.503 1272.29,271.304 1272.52,271.28L1272.83,271.25C1273.18,271.211 1273.51,271.035 1273.73,270.76C1276.66,267.193 1279.18,263.377 1281.29,259.31C1286.18,249.82 1286.3,238.63 1291.83,228.98C1295.9,221.85 1298.91,216.2 1306.18,213.96C1317.23,210.553 1328.49,208.28 1339.98,207.14C1344.73,206.673 1348.33,207.92 1350.8,210.88C1357.35,218.73 1353.17,241.55 1350.14,250.51C1348.99,253.897 1348.2,256.837 1347.75,259.33C1344.13,279.62 1340.06,301.11 1329.57,319.16C1326.48,324.5 1307.19,335.38 1308.34,341.28C1309.51,347.31 1332.72,346.58 1337.42,346.49C1338.79,346.46 1340.21,346.95 1341.66,346.98C1341.98,346.986 1342.3,346.881 1342.56,346.68C1344.71,344.98 1351,348.02 1353.52,348.87C1353.82,348.972 1354.15,348.943 1354.43,348.79C1356.42,347.717 1358.28,347.55 1360,348.29C1367.12,351.33 1372.78,339.89 1373.43,334.6C1373.43,334.59 1373.43,334.581 1373.43,334.571C1373.44,334.335 1373.27,334.132 1373.04,334.12C1373.02,334.12 1373.01,334.12 1373,334.12C1366.53,334.28 1360.38,329.72 1361.94,322.75C1363.71,314.8 1364.88,306.32 1366.79,298.91C1367.71,295.323 1368.65,291.743 1369.62,288.17C1371.41,281.54 1374.56,274.3 1376.61,267.15C1377.58,263.8 1377.01,260.56 1378.25,257.21C1382.04,246.94 1383.92,240.42 1383.92,231.24C1383.92,227.2 1392.76,219.64 1396.14,216.91C1396.38,216.715 1396.69,216.641 1396.99,216.71L1398.28,217.01C1398.59,217.085 1398.92,217.003 1399.16,216.79C1403.8,212.75 1419.68,205.27 1425.75,205.74C1439.7,206.82 1447.77,215.14 1454.76,226.48C1458.65,232.79 1451.54,245.96 1449.12,252.09C1447.26,256.83 1446.69,261.56 1445.83,266.51C1445.58,267.977 1445.01,269.28 1444.13,270.42C1443.94,270.662 1443.86,270.974 1443.91,271.28C1444.11,272.38 1444.12,273.25 1443.6,274.31C1441.55,278.52 1439.06,284.2 1439.07,288.91C1439.09,296.04 1437.05,301.99 1432.76,307.68C1432.58,307.92 1432.46,308.19 1432.41,308.49L1430.41,320.14C1430.35,320.462 1430.18,320.753 1429.93,320.96C1426.12,324.147 1422.28,327.287 1418.39,330.38C1414.46,333.51 1410.32,332.76 1406.78,336.63C1406.56,336.875 1406.44,337.188 1406.44,337.51C1406.4,347.2 1417.84,347.87 1424.91,347.69C1430.98,347.54 1436.57,349.28 1442.55,348.76C1451.94,347.947 1461.27,346.987 1470.56,345.88C1471.25,345.798 1471.86,345.387 1472.18,344.78L1475.7,338.23C1475.7,338.224 1475.71,338.218 1475.71,338.212C1475.86,337.914 1475.74,337.541 1475.43,337.387C1475.43,337.385 1475.42,337.382 1475.42,337.38C1470.3,335.01 1463.39,334.08 1463.25,326.99C1463.14,321.01 1463.56,315.067 1464.51,309.16C1467.78,289.01 1470.24,266.81 1476.8,248.31C1480.69,237.33 1483.61,228.96 1485.56,223.2C1489.84,210.55 1488.93,194.98 1475.19,188.54C1472.64,187.35 1469.8,186.54 1466.37,184.87C1461.25,182.38 1456.66,183.73 1452.01,183.81C1445.56,183.917 1439.37,185.217 1433.45,187.71C1430.2,189.08 1427.45,192 1424.75,193.5C1415.44,198.66 1402.51,204.9 1396.23,213.29C1396.06,213.519 1395.74,213.588 1395.5,213.45" style="fill:none;fill-rule:nonzero;stroke:rgb(128,128,128);stroke-width:2px;"/>
            <path d="M723.51,339.77C721.21,344.92 722.5,349.89 729.07,349.96C735.257,350.027 741.387,349.463 747.46,348.27C749.027,347.957 750.627,347.863 752.26,347.99C760.593,348.617 768.853,349.803 777.04,351.55C781.29,352.45 784.82,350.14 787.5,347.09C787.714,346.843 787.844,346.531 787.87,346.2C788.72,335.23 772.98,327.22 775.01,318.51C776.25,313.23 777.413,307.93 778.5,302.61C779.81,296.23 777.46,290.78 779.52,284.11C784.79,267.08 787.07,253.53 793.34,239.05C795.09,234.98 795.3,231.32 795.68,227.09C796.56,217.18 798.81,209.18 804.41,200.85C806.53,197.69 813.03,188.41 806.71,185.77C802.58,184.05 797.24,186.74 792.87,188.58C786.52,191.26 780.13,192.27 773.53,193.67C759.97,196.56 757.12,201.26 750.9,212.12C746.46,219.87 765.66,217.13 762.23,230.7C759.417,241.807 756.69,252.933 754.05,264.08C752.83,269.2 752.56,274.33 750.93,279.38C748.537,286.807 746.447,294.313 744.66,301.9C742.75,310.02 739.32,317.05 736.04,324.5C733.88,329.41 731.12,332.59 727.16,335.76C725.233,337.3 724.017,338.637 723.51,339.77" style="fill:none;fill-rule:nonzero;stroke:rgb(128,128,128);stroke-width:2px;"/>
            <path d="M1800.42,348.59C1804.82,351.4 1817.54,349.51 1822.71,348.57C1831.89,346.9 1844.3,349.65 1853.41,351.61C1857.38,352.47 1860.96,349.88 1863.5,347.14C1863.72,346.9 1863.86,346.591 1863.89,346.26C1864.92,335.36 1848.98,327.32 1851.02,318.51C1852.23,313.23 1853.4,307.927 1854.51,302.6C1855.8,296.42 1853.44,290.95 1855.4,284.58C1858.02,276.087 1860.41,267.527 1862.57,258.9C1863.52,255.12 1864.61,251.56 1865.86,248.22C1868.03,242.39 1870.79,236.79 1871.38,230.48C1872.45,219.04 1873.9,210.52 1880.41,200.85C1882.59,197.61 1889.31,187.97 1882.31,185.61C1878.24,184.24 1873.26,186.73 1868.87,188.58C1862.52,191.26 1856.14,192.28 1849.53,193.67C1835.64,196.6 1832.42,201.92 1826.23,213.38C1826.07,213.666 1826.01,213.995 1826.05,214.32C1826.93,221.34 1841.76,216.82 1838,231.66C1834.4,245.893 1831.74,256.677 1830.03,264.01C1828.83,269.14 1828.47,274.65 1826.78,279.86C1823.37,290.31 1821.6,301.66 1817.55,311.7C1813.31,322.22 1810.97,329.67 1803.5,335.52C1801.37,337.187 1800.04,338.637 1799.49,339.87C1798.41,342.31 1797.51,346.74 1800.42,348.59" style="fill:none;fill-rule:nonzero;stroke:rgb(128,128,128);stroke-width:2px;"/>
            <path d="M259.57,243.83L266.05,245.44C266.318,245.504 266.601,245.453 266.83,245.3C270.44,242.94 273.74,240.62 277.76,238.65C282.25,236.46 293.69,231.17 295.04,226.13C296.13,222.07 297.49,218.2 297.5,213.95C297.5,213.606 297.388,213.269 297.18,212.99L294.7,209.81C294.509,209.562 294.433,209.245 294.49,208.94C297.2,193.68 282.28,189.45 270.91,187.63C261.99,186.21 250.48,188.79 241.17,189.92C239.617,190.113 238.113,190.63 236.66,191.47C231.373,194.537 225.8,196.97 219.94,198.77C218.587,199.183 217.377,199.863 216.31,200.81C212.883,203.85 209.21,206.547 205.29,208.9C199.53,212.35 196.24,217.26 192.71,222.95C185.343,234.857 179.253,246.66 174.44,258.36C169.19,271.13 166.98,284.81 165.13,298.42C164.49,303.07 165.87,306.46 168.39,310.07C171.04,313.87 171.81,319.07 173.15,323.47C173.241,323.781 173.434,324.056 173.7,324.25C184.227,332.003 191.417,336.92 195.27,339C202.62,342.97 208.26,342.16 215.66,341.69C221.62,341.31 227.47,343.27 233.24,344.5C243.27,346.62 274.34,330.64 280.95,322.81C281.156,322.565 281.263,322.251 281.25,321.93C281,316.54 274.24,313.77 269.66,315.62C257.8,320.42 249.083,323.477 243.51,324.79C235.47,326.68 229.63,325.37 222.21,322.56C221.905,322.45 221.575,322.439 221.27,322.53C215.17,324.39 212.78,317.3 211.44,312.78C211.34,312.452 211.092,312.189 210.77,312.07L206.96,310.63C206.625,310.508 206.344,310.262 206.17,309.94C205.037,307.833 204.617,305.603 204.91,303.25C204.948,302.933 204.849,302.616 204.64,302.38C202.473,299.947 200.747,297.223 199.46,294.21C199.32,293.883 199.11,293.613 198.83,293.4L197.78,292.6C197.553,292.426 197.46,292.127 197.55,291.86C198.103,290.193 198.77,288.57 199.55,286.99C201.72,282.62 202.34,279.01 202.4,274.33C202.52,265.77 223.88,260.47 230.66,258.66C237.27,256.89 256.84,248.52 258.74,244.24C258.877,243.918 259.232,243.743 259.57,243.83" style="fill:none;fill-rule:nonzero;stroke:rgb(128,128,128);stroke-width:2px;"/>
            <path d="M549.36,243.99C551.54,244.09 553.62,244.6 555.6,245.52C555.892,245.658 556.238,245.639 556.52,245.47C559.79,243.56 562.75,241.14 566.1,239.51C570.07,237.58 582.91,231.46 584.55,227.57C585.95,224.243 586.973,219.78 587.62,214.18C587.658,213.867 587.572,213.553 587.38,213.31L584.69,209.87C584.511,209.635 584.439,209.337 584.49,209.05C587.24,194.05 573,189.69 561.7,187.76C552.35,186.16 540.15,188.74 530.37,190.12C528.883,190.333 527.43,190.87 526.01,191.73C521.063,194.737 515.8,197.037 510.22,198.63C508.853,199.017 507.643,199.673 506.59,200.6C503.063,203.7 499.3,206.46 495.3,208.88C489.54,212.35 486.22,217.26 482.7,222.95C475.747,234.19 469.927,245.287 465.24,256.24C459.46,269.75 457.1,284.04 455.1,298.5C454.47,303.1 455.87,306.47 458.36,310.05C461.01,313.86 461.81,318.93 463.02,323.36C463.111,323.677 463.3,323.955 463.56,324.15C467.693,327.183 474.007,331.55 482.5,337.25C490.58,342.68 496.08,342.24 505.56,341.67C515.31,341.09 523.06,347 532.83,343.62C545.883,339.093 558.033,332.827 569.28,324.82C574.59,321.03 568.02,315.5 564.05,315C562.47,314.8 560.503,315.18 558.15,316.14C549.95,319.493 541.58,322.353 533.04,324.72C525.59,326.78 519.78,325.44 512.22,322.57C511.915,322.453 511.581,322.439 511.27,322.53C505.1,324.36 502.74,317.21 501.48,312.8C501.398,312.523 501.196,312.298 500.93,312.19L496.89,310.55C496.561,310.421 496.291,310.176 496.13,309.86C495.03,307.78 494.623,305.583 494.91,303.27C494.948,302.946 494.846,302.622 494.63,302.38C492.51,300 490.83,297.337 489.59,294.39C489.443,294.043 489.227,293.75 488.94,293.51L487.71,292.49C487.446,292.273 487.359,291.902 487.5,291.59C490.56,284.97 492.42,281.46 492.41,272.67C492.41,272.345 492.511,272.027 492.7,271.76C499.69,261.89 518.78,260.6 529.41,255.54C536.92,251.97 546.95,247.99 548.65,244.41C548.778,244.144 549.058,243.978 549.36,243.99" style="fill:none;fill-rule:nonzero;stroke:rgb(128,128,128);stroke-width:2px;"/>
            <path d="M591.36,299.74C590.8,301.7 590.14,303.2 590.61,305.27C592.44,313.46 594.53,327.54 601.59,335.33C602.623,336.47 604.107,337.437 606.04,338.23C609.353,339.59 612.577,341.15 615.71,342.91C619.84,345.24 624.47,345.15 629,345.04C634.44,344.9 639.19,347.2 644.67,346.91C659.07,346.157 672.547,342.297 685.1,335.33C689.61,332.83 699.15,328.85 701.16,325.31C702.67,322.63 707.19,312.54 701,312.09C695.54,311.69 693,311.95 688.28,315.14C684.4,317.767 680.463,320.297 676.47,322.73C673.73,324.39 671.5,324.95 668.27,323.72C656.21,319.15 639.98,323.76 633.68,308.16C633.04,306.56 632.263,305.207 631.35,304.1C628.377,300.46 625.89,296.493 623.89,292.2C623.753,291.9 623.708,291.566 623.76,291.24C624.933,283.907 624.303,276.733 621.87,269.72C621.768,269.439 621.786,269.131 621.92,268.87C624.453,263.757 625.81,258.407 625.99,252.82C626.11,248.907 626.32,246.28 626.62,244.94C629.38,232.47 639.57,218.16 651.39,212.81C657.4,210.09 665.46,208.88 672.26,206.29C672.463,206.218 672.6,206.025 672.6,205.809C672.6,205.726 672.579,205.644 672.54,205.57L672.12,204.76C671.977,204.491 672.021,204.157 672.23,203.93C673.45,202.63 674.8,201.95 676.66,202.59C681.267,204.157 685.763,206.02 690.15,208.18C690.439,208.324 690.687,208.545 690.87,208.82C694.68,214.58 702.75,227.98 711.47,222.82C712.73,222.067 713.92,220.57 715.04,218.33C716.967,214.45 719.047,210.65 721.28,206.93C725.13,200.54 723.09,188.23 714.28,187.56C711.02,187.31 706.21,189.18 702.28,189.59C695.25,190.33 687.14,185.6 680.78,187.5C674.227,189.453 666.047,192.537 656.24,196.75C650.47,199.22 645.33,204.38 639.7,207.86C617.96,221.28 603.1,245.82 595.29,269.56C591.86,279.97 587.74,287.53 591.34,298.77C591.444,299.083 591.451,299.421 591.36,299.74" style="fill:none;fill-rule:nonzero;stroke:rgb(128,128,128);stroke-width:2px;"/>
            <path d="M340.19,313.06C347.33,318.24 357.52,325.44 366.25,323.73C370.76,322.85 384.39,320.43 388.21,316.62C391.643,313.2 394,309.077 395.28,304.25C400.47,284.73 406.45,265.81 412.42,246.6C415.95,235.24 416.3,229.85 414.48,218C413.38,210.88 410.21,208.01 403.91,205.48C400.14,203.96 395.16,200.82 391.04,201.78C383.853,203.46 376.563,204.337 369.17,204.41C365.35,204.45 361.8,206.99 358.36,208.44C354.393,210.107 351.57,211.507 349.89,212.64C335.92,222.06 330.27,239.51 329.24,255.64C328.58,265.88 330.43,278.86 331.63,290.21C331.87,292.53 332.57,294.71 333.19,296.94C333.497,298.027 333.697,299.657 333.79,301.83C333.983,306.37 336.117,310.113 340.19,313.06" style="fill:none;fill-rule:nonzero;stroke:rgb(128,128,128);stroke-width:2px;"/>
            <path d="M426.547,229.78C426.547,229.779 426.547,229.779 426.547,229.779C426.282,229.416 425.543,229.495 424.908,229.957C424.273,230.418 423.969,231.097 424.233,231.461C424.233,231.461 424.233,231.461 424.233,231.461C424.498,231.824 425.237,231.745 425.872,231.283C426.507,230.822 426.811,230.143 426.547,229.78" style="fill:none;fill-rule:nonzero;stroke:rgb(128,128,128);stroke-width:2px;"/>
            <path d="M1687.94,312.81C1695.1,318.12 1705.44,325.45 1714.25,323.73C1719.3,322.743 1725.07,321.25 1731.58,319.25C1737.9,317.31 1741.61,310.29 1743.2,304.23C1747.64,287.277 1752.98,269.433 1759.23,250.7C1760.24,247.687 1761.44,243.24 1762.84,237.36C1764.43,230.7 1763.42,224.83 1762.47,218C1761.46,210.79 1758.09,207.98 1751.62,205.36C1747.64,203.75 1743.56,200.95 1739,201.88C1731.51,203.427 1723.94,204.317 1716.28,204.55C1712.79,204.66 1708.65,207.59 1705.35,208.89C1687.92,215.72 1681.32,230.89 1678.12,247.96C1675.54,261.72 1678.22,276.38 1679.59,289.95C1679.83,292.38 1680.55,294.65 1681.21,296.98C1681.52,298.08 1681.71,299.677 1681.78,301.77C1681.93,306.203 1683.99,309.883 1687.94,312.81" style="fill:none;fill-rule:nonzero;stroke:rgb(128,128,128);stroke-width:2px;"/>
            <path d="M1774.59,229.75C1774.31,229.379 1773.56,229.462 1772.92,229.934C1772.92,229.934 1772.92,229.934 1772.92,229.934C1772.28,230.406 1771.98,231.1 1772.25,231.47C1772.25,231.47 1772.25,231.47 1772.25,231.471C1772.53,231.841 1773.28,231.758 1773.92,231.286C1773.92,231.286 1773.92,231.286 1773.92,231.286C1774.56,230.814 1774.86,230.12 1774.59,229.75C1774.59,229.75 1774.59,229.75 1774.59,229.75" style="fill:none;fill-rule:nonzero;stroke:rgb(128,128,128);stroke-width:2px;"/>
            <path d="M1554.74,324.05C1555.68,331.28 1568.9,328.13 1573.57,327.38C1574.86,327.173 1576.19,326.617 1577.56,325.71C1581.96,322.82 1585.39,320.85 1589.19,316.18C1596.18,307.59 1599.2,295.5 1603.73,284.76C1604.45,283.06 1604.82,281.353 1604.85,279.64C1604.96,272.007 1604.58,264.397 1603.73,256.81C1603.11,251.27 1603.91,245.48 1602.55,239.56C1602.2,238.02 1602.1,236.47 1602.26,234.91C1603.46,223.47 1596.2,216.67 1594.79,206.33C1594.11,201.32 1595.23,195.73 1587.49,198.2C1587.18,198.302 1586.85,198.277 1586.57,198.13C1577.75,193.69 1565.39,192.48 1557.27,199.02C1537.87,214.66 1519.46,238.85 1516,264.22C1515.25,269.73 1515.92,277.56 1514.88,284.32C1514.69,285.54 1515.15,286.83 1515.4,288.02C1515.46,288.34 1515.62,288.635 1515.85,288.87C1521.18,294.11 1530.25,303.57 1532.15,310.83C1534.58,320.13 1545.39,322.83 1554.18,323.52C1554.47,323.545 1554.7,323.766 1554.74,324.05" style="fill:none;fill-rule:nonzero;stroke:rgb(128,128,128);stroke-width:2px;"/>
            <path d="M1954.74,324.05C1955.68,331.28 1968.9,328.13 1973.57,327.38C1974.86,327.173 1976.19,326.617 1977.56,325.71C1981.96,322.82 1985.39,320.85 1989.19,316.18C1996.18,307.59 1999.2,295.5 2003.73,284.76C2004.45,283.06 2004.82,281.353 2004.85,279.64C2004.96,272.007 2004.58,264.397 2003.73,256.81C2003.11,251.27 2003.91,245.48 2002.55,239.56C2002.2,238.02 2002.1,236.47 2002.26,234.91C2003.46,223.47 1996.2,216.67 1994.79,206.33C1994.11,201.32 1995.23,195.73 1987.49,198.2C1987.18,198.302 1986.85,198.277 1986.57,198.13C1977.75,193.69 1965.39,192.48 1957.27,199.02C1937.87,214.66 1919.46,238.85 1916,264.22C1915.25,269.73 1915.92,277.56 1914.88,284.32C1914.69,285.54 1915.15,286.83 1915.4,288.02C1915.47,288.34 1915.62,288.635 1915.85,288.87C1921.18,294.11 1930.25,303.57 1932.15,310.83C1934.58,320.13 1945.39,322.83 1954.18,323.52C1954.47,323.545 1954.7,323.766 1954.74,324.05" style="fill:none;fill-rule:nonzero;stroke:rgb(128,128,128);stroke-width:2px;"/>
            <path d="M258.66,206.16C251.93,195.51 232.59,202.89 227.01,210.78C222.64,216.96 217.07,223.3 214.01,230.04C211.7,235.15 204.71,249.94 214.54,252.04C223.34,253.92 231.02,252.09 238.03,246.61C244.55,241.52 250.64,237.86 259.01,237.49C259.345,237.477 259.665,237.342 259.91,237.11C264.257,233.07 268.323,228.763 272.11,224.19C272.317,223.937 272.437,223.624 272.45,223.3L272.62,219.4C272.636,219.098 272.44,218.823 272.15,218.74L267.26,217.39C266.973,217.312 266.716,217.148 266.52,216.92C263.653,213.493 261.033,209.907 258.66,206.16" style="fill:none;fill-rule:nonzero;stroke:rgb(128,128,128);stroke-width:2px;"/>
            <path d="M518.74,208.73C514.94,213.67 511.233,218.683 507.62,223.77C503.91,228.99 498.41,240.64 499.57,246.94C501.15,255.51 516.5,252.87 522.01,250.49C523.59,249.803 525.73,248.387 528.43,246.24C534.45,241.44 541.1,237.76 549,237.49C549.335,237.484 549.656,237.352 549.9,237.12C554.253,233.073 558.323,228.763 562.11,224.19C562.317,223.937 562.437,223.624 562.45,223.3L562.62,219.4C562.636,219.098 562.44,218.823 562.15,218.74L557.26,217.39C556.968,217.312 556.708,217.144 556.52,216.91C550.46,209.68 547.21,198.48 535.19,201.2C529.39,202.52 522.17,204.26 518.74,208.73" style="fill:none;fill-rule:nonzero;stroke:rgb(128,128,128);stroke-width:2px;"/>
            <path d="M426.61,317.55L437.86,316.62C437.873,316.619 437.886,316.618 437.899,316.617C438.672,316.578 439.34,317.177 439.378,317.944C439.379,317.96 439.38,317.975 439.38,317.99C439.64,329.7 434.67,335.54 425.18,341.33C421.56,343.54 417.16,343.43 413.01,343.92C407.26,344.61 401.62,347.34 395.86,348.7C393.85,349.17 392.64,348.56 391.36,347.16C391.135,346.922 391.007,346.608 391,346.28C390.87,340.66 393.82,318.06 379.47,329.97C373.797,334.677 367.197,337.447 359.67,338.28C354.12,338.89 348.76,339.16 343.27,340.53C338.78,341.66 333.78,343.43 329.18,342.54C325.47,341.82 319.76,340.66 317.29,337.57C312.197,331.19 306.923,323.513 301.47,314.54C298.55,309.73 297.14,306.49 298.12,300.65C300.333,287.357 302.52,274.053 304.68,260.74C305.63,254.92 309.13,249.41 310.5,244.5C314.6,229.86 329.08,219.9 338.47,207.07C343.09,200.75 352.51,191.93 361.25,191.83C369.877,191.737 378.43,192.5 386.91,194.12C391.87,195.07 396.38,191.4 401.38,193.1C404.13,194.04 407.45,197.62 409.81,199.71C411.17,200.92 415.74,200.55 417.73,200.32C426.92,199.26 427.52,188.1 427.92,180.44C428.32,172.49 427.77,163.68 429.95,156.03C432.37,147.537 435.103,139.143 438.15,130.85C439.92,126.02 442.73,117.52 440.59,113.78C439.62,112.11 437.86,111.49 436.28,110.32C436.027,110.137 435.702,110.082 435.4,110.17C428.79,112.19 426.05,103.9 430.86,100.64C432.893,99.267 435.07,98.323 437.39,97.81C439.183,97.417 440.623,96.907 441.71,96.28C451.983,90.373 462.533,85.013 473.36,80.2C477.68,78.27 480.24,79.3 483.13,82.61C484.783,84.51 485.29,86.463 484.65,88.47C481.743,97.55 478.543,106.527 475.05,115.4C473.863,118.427 473.01,121.45 472.49,124.47C470.72,134.78 469.41,145.09 466.39,155.09C460.943,173.103 455.45,191.097 449.91,209.07C447.7,216.22 444.29,223.4 442.86,230.68C440.64,241.92 439.23,253.96 435.5,264.79C429.09,283.42 425.75,297.77 426.06,317.05C426.065,317.327 426.293,317.552 426.57,317.552C426.583,317.552 426.597,317.551 426.61,317.55ZM340.19,313.06C347.33,318.24 357.52,325.44 366.25,323.73C370.76,322.85 384.39,320.43 388.21,316.62C391.643,313.2 394,309.077 395.28,304.25C400.47,284.73 406.45,265.81 412.42,246.6C415.95,235.24 416.3,229.85 414.48,218C413.38,210.88 410.21,208.01 403.91,205.48C400.14,203.96 395.16,200.82 391.04,201.78C383.853,203.46 376.563,204.337 369.17,204.41C365.35,204.45 361.8,206.99 358.36,208.44C354.393,210.107 351.57,211.507 349.89,212.64C335.92,222.06 330.27,239.51 329.24,255.64C328.58,265.88 330.43,278.86 331.63,290.21C331.87,292.53 332.57,294.71 333.19,296.94C333.497,298.027 333.697,299.657 333.79,301.83C333.983,306.37 336.117,310.113 340.19,313.06ZM426.547,229.78C426.547,229.779 426.547,229.779 426.547,229.779C426.282,229.416 425.543,229.495 424.908,229.957C424.273,230.418 423.969,231.097 424.233,231.461C424.233,231.461 424.233,231.461 424.233,231.461C424.498,231.824 425.237,231.745 425.872,231.283C426.507,230.822 426.811,230.143 426.547,229.78Z" style="fill-rule:nonzero;"/>
            <path d="M1774.65,317.61L1786.76,316.49C1786.92,316.472 1787.06,316.584 1787.08,316.74C1788.85,328.69 1782.46,335.66 1773.05,341.39C1769.54,343.53 1765.25,343.41 1761.25,343.89C1755.5,344.58 1749.86,347.21 1744.15,348.64C1742.05,349.17 1740.73,348.64 1739.35,347.16C1739.13,346.922 1739.01,346.612 1739,346.29C1738.89,341.61 1740.92,330.22 1735.98,327.4C1733.75,326.127 1731.48,326.48 1729.19,328.46C1719.51,336.82 1711.84,338.22 1698.92,339.23C1693.69,339.63 1688.75,341.27 1683.57,342.35C1678.27,343.46 1668.93,341.72 1665.21,337.46C1659.03,330.38 1653.73,321.7 1648.86,313.66C1646.28,309.4 1645.21,305.87 1646.1,300.64C1648.38,287.213 1650.6,273.78 1652.77,260.34C1653.72,254.41 1657.14,248.29 1659.32,241.84C1661.78,234.53 1667.72,228.22 1673.04,222.77C1677.31,218.397 1681.3,213.783 1685,208.93C1691.27,200.72 1699.94,191.54 1711.15,191.76C1719.84,191.927 1728.46,192.823 1737,194.45C1737.33,194.51 1737.65,194.487 1737.96,194.38C1740.05,193.667 1742.48,193.14 1745.25,192.8C1753.07,191.84 1754.04,199.31 1760.41,200.45C1764.3,201.143 1767.78,200.34 1770.85,198.04C1777,193.43 1776.36,170.91 1776.61,164.46C1776.72,161.547 1777.15,158.8 1777.89,156.22C1780.51,147.147 1783.43,138.177 1786.66,129.31C1788.28,124.86 1790.61,117.3 1788.59,113.78C1787.62,112.11 1785.86,111.49 1784.28,110.32C1784.03,110.137 1783.7,110.082 1783.4,110.17C1776.86,112.15 1774.09,103.91 1778.63,100.81C1780.79,99.337 1783.11,98.303 1785.59,97.71C1787.48,97.257 1788.99,96.703 1790.14,96.05C1799.91,90.463 1809.91,85.35 1820.15,80.71C1824.94,78.54 1827.57,78.54 1831,82.49C1833.06,84.87 1833.51,85.99 1832.48,89.22C1829.84,97.5 1826.9,105.67 1823.66,113.73C1822.3,117.13 1821.32,120.4 1820.71,123.54C1818.49,135.13 1817.39,145.7 1813.61,157.93C1808.37,174.863 1803.16,191.807 1797.99,208.76C1795.77,216.05 1792.3,223.33 1790.85,230.74C1788.63,242.02 1787.17,253.89 1783.53,264.81C1781.22,271.757 1778.94,279.647 1776.69,288.48C1774.22,298.16 1773.81,307.46 1774.05,317.07C1774.05,317.075 1774.05,317.08 1774.05,317.085C1774.07,317.392 1774.33,317.629 1774.63,317.611C1774.64,317.611 1774.64,317.611 1774.65,317.61ZM1687.94,312.81C1695.1,318.12 1705.44,325.45 1714.25,323.73C1719.3,322.743 1725.07,321.25 1731.58,319.25C1737.9,317.31 1741.61,310.29 1743.2,304.23C1747.64,287.277 1752.98,269.433 1759.23,250.7C1760.24,247.687 1761.44,243.24 1762.84,237.36C1764.43,230.7 1763.42,224.83 1762.47,218C1761.46,210.79 1758.09,207.98 1751.62,205.36C1747.64,203.75 1743.56,200.95 1739,201.88C1731.51,203.427 1723.94,204.317 1716.28,204.55C1712.79,204.66 1708.65,207.59 1705.35,208.89C1687.92,215.72 1681.32,230.89 1678.12,247.96C1675.54,261.72 1678.22,276.38 1679.59,289.95C1679.83,292.38 1680.55,294.65 1681.21,296.98C1681.52,298.08 1681.71,299.677 1681.78,301.77C1681.93,306.203 1683.99,309.883 1687.94,312.81ZM1774.59,229.75C1774.31,229.379 1773.56,229.462 1772.92,229.934C1772.92,229.934 1772.92,229.934 1772.92,229.934C1772.28,230.406 1771.98,231.1 1772.25,231.47C1772.25,231.47 1772.25,231.47 1772.25,231.471C1772.53,231.841 1773.28,231.758 1773.92,231.286C1773.92,231.286 1773.92,231.286 1773.92,231.286C1774.56,230.814 1774.86,230.12 1774.59,229.75C1774.59,229.75 1774.59,229.75 1774.59,229.75Z" style="fill-rule:nonzero;"/>
            <path d="M817.3,111.76C822.26,104.15 835.63,100.65 837,113.14C837.44,117.18 837.947,121.22 838.52,125.26C838.88,127.78 827.82,136.51 825.66,138.3C819.92,143.06 816.04,154.01 808.89,154.28C805.79,154.4 789.1,153.24 794.04,146.06C801.89,134.66 809.76,123.37 817.3,111.76Z" style="fill-rule:nonzero;"/>
            <path d="M1888.5,119.06C1893.45,111.8 1897.12,102.98 1907.97,105.41C1911.58,106.22 1912.61,109.52 1912.99,113.14C1913.42,117.187 1913.93,121.223 1914.53,125.25C1914.87,127.6 1905.58,135.04 1903.62,136.63C1901.01,138.75 1898.98,140.73 1897.54,142.57C1893.89,147.2 1891.13,154.23 1884.21,154.29C1879.92,154.34 1869.43,153.75 1869.23,147.79C1869.22,147.466 1869.31,147.143 1869.5,146.87C1875.85,137.61 1882.19,128.34 1888.5,119.06Z" style="fill-rule:nonzero;"/>
            <path d="M2060.06,343.47C2052.25,341.86 2042.22,336.88 2043.57,327C2044.79,318.09 2047.48,305.56 2054.75,299.5C2054.82,299.443 2054.89,299.389 2054.97,299.34C2056.06,298.622 2057.55,298.927 2058.26,300.014C2058.31,300.09 2058.36,300.169 2058.4,300.25C2061.99,307.37 2056.7,314.01 2059.66,320.73C2062.26,326.64 2068.99,331.02 2074.99,332.49C2077.58,333.13 2081.6,333.237 2087.05,332.81C2096.9,332.04 2106.58,332 2115.31,326.36C2123.83,320.86 2128.42,312.37 2125.39,302.42C2123.21,295.26 2115.54,288.61 2109.55,284.02C2103.58,279.44 2094.31,277.01 2089.47,270.78C2087.21,267.867 2084.61,265.28 2081.68,263.02C2081.42,262.818 2081.22,262.547 2081.11,262.24C2080.3,260 2079.79,258.43 2078.18,256.48C2067.16,243.13 2074.68,220.52 2081.73,206.8C2083.67,203.04 2086.42,200.29 2089.22,196.99C2094.78,190.44 2107.69,186.89 2115.5,183.6C2121.7,180.99 2129.5,180.84 2136.15,179.61C2137.84,179.297 2139.46,179.327 2140.99,179.7C2143.2,180.24 2145.03,180.96 2147.4,180.96C2156.68,180.95 2162.4,187.52 2171.07,190.93C2185.38,196.55 2180.68,204.28 2175.11,214.74C2174.1,216.64 2172.95,219.29 2171.68,222.69C2170.6,225.59 2167.72,233.23 2164.51,234.15C2164.19,234.241 2163.86,234.216 2163.56,234.08C2159.66,232.24 2161.64,221.29 2161.82,217.5C2161.94,215.03 2160.02,213.24 2159.25,211.36C2155.94,203.28 2149.85,198.293 2140.99,196.4C2130.13,194.08 2120.94,194.18 2112.32,201.32C2104.16,208.07 2096.16,216.73 2097.35,227.68C2097.45,228.607 2097.89,229.303 2098.67,229.77C2112.38,237.96 2125.19,248.05 2138.53,257.25C2138.78,257.424 2138.93,257.713 2138.92,258.02C2138.87,261.42 2146.08,267.5 2147.9,269.15C2148.15,269.377 2148.32,269.65 2148.43,269.97C2149.25,272.45 2150.81,275.263 2153.11,278.41C2163.43,292.54 2150.18,313.59 2142.74,325.67C2139.23,331.37 2128.74,342.31 2121.34,342.91C2114.65,343.457 2108.05,344.527 2101.53,346.12C2098.75,346.8 2096.2,347.127 2093.88,347.1C2082.49,346.967 2071.22,345.757 2060.06,343.47Z" style="fill-rule:nonzero;"/>
            <path d="M113.76,255.37C115.6,256.67 117.38,256.86 117.1,259.66C117.063,259.977 117.169,260.293 117.39,260.52L126.2,269.66C126.427,269.9 126.59,270.177 126.69,270.49C128.76,277.23 134.74,280.99 134.67,289.09C134.53,303.82 127.75,314.37 120.54,325.99C117.17,331.42 106.57,342.34 99.42,342.91C92.76,343.43 86.19,344.493 79.71,346.1C69.19,348.71 54.26,346.42 43.59,344.68C35.61,343.39 20.42,339.15 21.43,328.47C22.26,319.82 25.43,304.83 32.97,299.42C33.02,299.385 33.071,299.351 33.123,299.32C34.222,298.657 35.67,299.012 36.33,300.106C36.362,300.159 36.392,300.214 36.42,300.27C38.72,304.9 37.47,308.97 36.94,313.75C35.45,327.22 51.17,334.28 62.19,333.09C76.28,331.57 93.93,332.27 102,317.4C105.16,311.58 105.143,305.413 101.95,298.9C99.29,293.49 90.71,285.92 85.8,282.77C79.94,279.01 71.98,276.51 67.38,270.67C65.133,267.817 62.577,265.253 59.71,262.98C59.45,262.78 59.257,262.523 59.13,262.21C58.32,260.21 57.95,258.58 56.48,256.85C44.87,243.16 52.84,219.63 60.38,205.61C67.31,192.74 79.88,189.17 92.23,184.03C99.31,181.09 107.79,180.68 115.34,179.46C118.8,178.91 122.71,180.89 126.66,181C132.38,181.16 139.41,185.34 144.95,188.89C150.81,192.64 158.23,192.4 158.59,200.85C158.77,205.34 155.15,210.95 152.8,215.32C150.54,219.53 146.94,232.86 142.48,234.16C142.171,234.25 141.836,234.222 141.54,234.08C135.68,231.18 142.98,218.03 138.04,213.1C137.807,212.86 137.637,212.583 137.53,212.27C133.15,199.22 120.89,195.57 108.45,195.13C95.04,194.66 83.93,204.65 77.79,215.68C75.99,218.92 73.02,228.03 77.15,230.38C90.11,237.75 101.62,246.77 113.76,255.37Z" style="fill-rule:nonzero;"/>
            <path d="M1513.26,335.57C1495.88,327.25 1488.21,308.01 1491.73,289.9C1492.95,283.65 1491.35,277.69 1493.01,271.51C1495.81,261.01 1500.35,250.703 1506.62,240.59C1507.74,238.783 1508.53,236.933 1509,235.04C1509.94,231.2 1510.34,227.76 1512.48,224.33C1514.13,221.68 1516.68,216.28 1519.12,214.58C1527.97,208.427 1536.41,201.763 1544.45,194.59C1546.23,193.003 1548.13,191.737 1550.14,190.79C1559.98,186.18 1569.66,180.64 1580.94,182.55C1585.7,183.35 1591.84,181.21 1596.51,180.11C1596.83,180.032 1597.16,180.053 1597.47,180.17C1601.04,181.48 1604.14,183.06 1608,183.78C1615.23,185.113 1622,187.693 1628.32,191.52C1628.57,191.666 1628.74,191.914 1628.8,192.2L1631.32,204.73C1631.38,205.041 1631.55,205.322 1631.79,205.53C1634.45,207.83 1635.41,211.56 1636.59,213.88C1639.88,220.35 1640.5,228.75 1640.73,235.81C1641.16,249.42 1634.58,265.86 1628.57,277.92C1627.68,279.707 1626.74,282.063 1625.77,284.99C1622.97,293.42 1617.17,301.69 1611.53,308.26C1602.17,319.18 1574.64,347.64 1559,344.74C1556.01,344.18 1553.48,343.69 1550.39,344.54C1546.64,345.567 1542.84,346.413 1539.01,347.08C1538.72,347.132 1538.42,347.097 1538.15,346.98C1534.84,345.547 1531.42,344.54 1527.89,343.96C1527.56,343.908 1527.22,343.968 1526.93,344.13C1521.4,347.19 1516.28,340.33 1513.96,336.22C1513.8,335.934 1513.55,335.707 1513.26,335.57ZM1554.74,324.05C1555.68,331.28 1568.9,328.13 1573.57,327.38C1574.86,327.173 1576.19,326.617 1577.56,325.71C1581.96,322.82 1585.39,320.85 1589.19,316.18C1596.18,307.59 1599.2,295.5 1603.73,284.76C1604.45,283.06 1604.82,281.353 1604.85,279.64C1604.96,272.007 1604.58,264.397 1603.73,256.81C1603.11,251.27 1603.91,245.48 1602.55,239.56C1602.2,238.02 1602.1,236.47 1602.26,234.91C1603.46,223.47 1596.2,216.67 1594.79,206.33C1594.11,201.32 1595.23,195.73 1587.49,198.2C1587.18,198.302 1586.85,198.277 1586.57,198.13C1577.75,193.69 1565.39,192.48 1557.27,199.02C1537.87,214.66 1519.46,238.85 1516,264.22C1515.25,269.73 1515.92,277.56 1514.88,284.32C1514.69,285.54 1515.15,286.83 1515.4,288.02C1515.46,288.34 1515.62,288.635 1515.85,288.87C1521.18,294.11 1530.25,303.57 1532.15,310.83C1534.58,320.13 1545.39,322.83 1554.18,323.52C1554.47,323.545 1554.7,323.766 1554.74,324.05Z" style="fill-rule:nonzero;"/>
            <path d="M1913.26,335.57C1896.32,327.43 1888.46,308.82 1891.51,291.01C1892.53,285.05 1891.14,279.31 1892.53,273.74C1895.46,262.013 1900.13,251.037 1906.52,240.81C1909.95,235.33 1909.17,229.6 1912.51,224.27C1914.6,220.95 1916.46,216.6 1919.71,214.3C1928.32,208.193 1936.57,201.627 1944.44,194.6C1946.23,193.007 1948.13,191.733 1950.16,190.78C1959.98,186.17 1969.67,180.64 1980.94,182.55C1985.7,183.35 1991.84,181.21 1996.51,180.11C1996.83,180.032 1997.16,180.053 1997.47,180.17C2001.04,181.48 2004.14,183.06 2008,183.78C2015.23,185.113 2022,187.693 2028.32,191.52C2028.57,191.666 2028.74,191.914 2028.8,192.2L2031.32,204.73C2031.38,205.041 2031.55,205.322 2031.79,205.53C2034.45,207.83 2035.41,211.56 2036.59,213.88C2039.9,220.38 2040.52,228.86 2040.73,235.96C2041.13,249.59 2034.51,266.03 2028.49,278.1C2027.62,279.853 2026.69,282.21 2025.71,285.17C2022.93,293.51 2017.08,301.79 2011.53,308.26C2002.17,319.18 1974.64,347.64 1959,344.74C1956.01,344.18 1953.48,343.69 1950.39,344.54C1946.64,345.567 1942.84,346.413 1939.01,347.08C1938.72,347.132 1938.42,347.097 1938.15,346.98C1934.84,345.547 1931.42,344.54 1927.89,343.96C1927.56,343.908 1927.22,343.968 1926.93,344.13C1921.4,347.19 1916.28,340.32 1913.96,336.22C1913.8,335.939 1913.55,335.713 1913.26,335.57ZM1954.74,324.05C1955.68,331.28 1968.9,328.13 1973.57,327.38C1974.86,327.173 1976.19,326.617 1977.56,325.71C1981.96,322.82 1985.39,320.85 1989.19,316.18C1996.18,307.59 1999.2,295.5 2003.73,284.76C2004.45,283.06 2004.82,281.353 2004.85,279.64C2004.96,272.007 2004.58,264.397 2003.73,256.81C2003.11,251.27 2003.91,245.48 2002.55,239.56C2002.2,238.02 2002.1,236.47 2002.26,234.91C2003.46,223.47 1996.2,216.67 1994.79,206.33C1994.11,201.32 1995.23,195.73 1987.49,198.2C1987.18,198.302 1986.85,198.277 1986.57,198.13C1977.75,193.69 1965.39,192.48 1957.27,199.02C1937.87,214.66 1919.46,238.85 1916,264.22C1915.25,269.73 1915.92,277.56 1914.88,284.32C1914.69,285.54 1915.15,286.83 1915.4,288.02C1915.47,288.34 1915.62,288.635 1915.85,288.87C1921.18,294.11 1930.25,303.57 1932.15,310.83C1934.58,320.13 1945.39,322.83 1954.18,323.52C1954.47,323.545 1954.7,323.766 1954.74,324.05Z" style="fill-rule:nonzero;"/>
            <path d="M892.57,202.22C894.69,205.1 896.36,208.13 900.52,206.17C910.927,201.27 921.467,196.703 932.14,192.47C940.8,189.03 949.15,184.87 957.76,181.15C958.07,181.015 958.417,180.993 958.74,181.09C962.72,182.257 965.81,184.577 968.01,188.05C968.197,188.343 968.447,188.57 968.76,188.73C975.25,192.16 979.11,197.83 982.51,204.19C984.92,208.74 987.28,211 991.35,213.49C991.59,213.636 991.905,213.58 992.08,213.36C999.82,203.4 1014.09,198.27 1022.94,191.95C1030.91,186.26 1038.18,183.97 1048.04,183.81C1052.45,183.74 1057.02,182.44 1061.93,184.68C1071.94,189.24 1080.58,191.05 1083.02,203.5C1084.33,210.2 1084,216.37 1082.04,222.01C1076.39,238.26 1069.57,254.86 1066.71,271.71C1064.59,284.183 1062.5,296.663 1060.45,309.15C1059.3,316.177 1058.92,322.52 1059.31,328.18C1059.72,333.9 1067.16,335.4 1071.49,337.44C1071.69,337.532 1071.82,337.736 1071.82,337.959C1071.82,338.057 1071.8,338.154 1071.75,338.24L1067.88,345.2C1067.69,345.534 1067.35,345.76 1066.97,345.81C1057.45,346.997 1047.92,347.983 1038.37,348.77C1032.98,349.22 1027.55,347.47 1022.99,347.51C1016.14,347.58 1001.67,348.11 1002.45,337.49C1002.48,337.159 1002.61,336.846 1002.83,336.6C1006.31,332.76 1010.47,333.5 1014.39,330.38C1018.28,327.287 1022.12,324.147 1025.93,320.96C1026.18,320.753 1026.35,320.462 1026.41,320.14L1028.41,308.49C1028.46,308.19 1028.58,307.92 1028.76,307.68C1032.79,302.34 1035.27,296 1035.08,289.25C1034.89,282.46 1039.96,277.27 1040,271.03C1040,270.706 1040.11,270.39 1040.3,270.13C1041.01,269.17 1041.5,267.96 1041.77,266.5C1042.69,261.57 1043.27,256.78 1045.12,252.09C1047.56,245.91 1054.62,232.85 1050.79,226.46C1044.39,215.78 1034.66,205.72 1021.17,205.78C1014.25,205.82 1000.47,212.52 995.06,216.82C994.796,217.034 994.441,217.105 994.11,217.01L993.05,216.7C992.75,216.613 992.424,216.68 992.18,216.88C988.79,219.62 979.92,227.2 979.92,231.24C979.93,240.12 978.14,246.72 974.53,256.44C973,260.56 973.59,265.57 972.25,268.97C964.52,288.6 961.84,304.11 957.97,322.59C956.49,329.66 962.31,334.27 969,334.12C969.012,334.12 969.023,334.12 969.035,334.12C969.265,334.132 969.444,334.335 969.432,334.571C969.432,334.581 969.431,334.59 969.43,334.6C968.78,339.89 963.12,351.33 956,348.29C954.28,347.557 952.423,347.723 950.43,348.79C950.15,348.943 949.82,348.972 949.52,348.87C947.01,348.02 940.69,344.98 938.56,346.69C938.309,346.89 937.989,346.993 937.66,346.98C936.09,346.91 934.6,346.45 933.09,346.49C929.75,346.56 897.89,348 905.61,337.84C910.09,331.94 916.31,327.44 922.19,323.01C923.61,321.943 924.723,320.69 925.53,319.25C935.89,300.8 940.25,279.75 943.79,259.1C944.223,256.587 944.98,253.77 946.06,250.65C949.16,241.71 954.17,214.71 944.79,208.95C936.73,204 910.88,211.29 901.99,213.97C894.02,216.38 888.88,226.16 885.69,233.34C882.99,239.4 881.79,247.9 879.77,253.76C877.817,259.407 874.463,265.077 869.71,270.77C869.486,271.039 869.159,271.211 868.8,271.25L868.52,271.28C868.287,271.304 868.108,271.503 868.108,271.737C868.108,271.811 868.126,271.884 868.16,271.95C869.79,275.04 870.87,277.71 869.97,281.34C867.743,290.4 865.77,299.513 864.05,308.68C862.95,314.54 863.24,320.26 863.26,326.21C863.26,326.533 863.403,326.838 863.65,327.04C866.337,329.307 868.883,331.703 871.29,334.23C876.05,339.21 868.31,344.53 864.62,346.73C863.387,347.47 861.823,347.917 859.93,348.07C856.43,348.363 852.967,348.94 849.54,349.8C849.238,349.875 848.919,349.805 848.68,349.61C839.82,342.4 829.28,345.8 819.12,346.94C809.27,348.05 808.71,339.86 813.12,333.6C813.307,333.336 813.585,333.151 813.9,333.08C829.27,329.72 845.89,287.36 845.04,273.55C845.02,273.224 845.097,272.904 845.26,272.63C848.233,267.537 850.793,262.26 852.94,256.8C854.7,252.34 853.81,247.72 854.62,243.02C855.8,236.18 856.35,229.283 856.27,222.33C856.22,217.82 855.27,215.5 851.05,213.94C848.543,213.013 847.253,211.193 847.18,208.48C847.174,208.16 847.297,207.853 847.52,207.63C859.6,195.62 877.46,183.37 894.58,183.05C894.603,183.049 894.625,183.051 894.648,183.054C894.854,183.085 894.997,183.285 894.965,183.496C894.962,183.518 894.957,183.539 894.95,183.56C893.09,189.32 892.197,195.24 892.27,201.32C892.276,201.645 892.381,201.959 892.57,202.22Z" style="fill-rule:nonzero;"/>
            <path d="M1396.23,213.29C1402.51,204.9 1415.44,198.66 1424.75,193.5C1427.45,192 1430.2,189.08 1433.45,187.71C1439.37,185.217 1445.56,183.917 1452.01,183.81C1456.66,183.73 1461.25,182.38 1466.37,184.87C1469.8,186.54 1472.64,187.35 1475.19,188.54C1488.93,194.98 1489.84,210.55 1485.56,223.2C1483.61,228.96 1480.69,237.33 1476.8,248.31C1470.24,266.81 1467.78,289.01 1464.51,309.16C1463.56,315.067 1463.14,321.01 1463.25,326.99C1463.39,334.08 1470.3,335.01 1475.42,337.38C1475.42,337.382 1475.43,337.385 1475.43,337.387C1475.74,337.541 1475.86,337.914 1475.71,338.212C1475.71,338.218 1475.7,338.224 1475.7,338.23L1472.18,344.78C1471.86,345.387 1471.25,345.798 1470.56,345.88C1461.27,346.987 1451.94,347.947 1442.55,348.76C1436.57,349.28 1430.98,347.54 1424.91,347.69C1417.84,347.87 1406.4,347.2 1406.44,337.51C1406.44,337.188 1406.56,336.875 1406.78,336.63C1410.32,332.76 1414.46,333.51 1418.39,330.38C1422.28,327.287 1426.12,324.147 1429.93,320.96C1430.18,320.753 1430.35,320.462 1430.41,320.14L1432.41,308.49C1432.46,308.19 1432.58,307.92 1432.76,307.68C1437.05,301.99 1439.09,296.04 1439.07,288.91C1439.06,284.2 1441.55,278.52 1443.6,274.31C1444.12,273.25 1444.11,272.38 1443.91,271.28C1443.86,270.974 1443.94,270.662 1444.13,270.42C1445.01,269.28 1445.58,267.977 1445.83,266.51C1446.69,261.56 1447.26,256.83 1449.12,252.09C1451.54,245.96 1458.65,232.79 1454.76,226.48C1447.77,215.14 1439.7,206.82 1425.75,205.74C1419.68,205.27 1403.8,212.75 1399.16,216.79C1398.92,217.003 1398.59,217.085 1398.28,217.01L1396.99,216.71C1396.69,216.641 1396.38,216.715 1396.14,216.91C1392.76,219.64 1383.92,227.2 1383.92,231.24C1383.92,240.42 1382.04,246.94 1378.25,257.21C1377.01,260.56 1377.58,263.8 1376.61,267.15C1374.56,274.3 1371.41,281.54 1369.62,288.17C1368.65,291.743 1367.71,295.323 1366.79,298.91C1364.88,306.32 1363.71,314.8 1361.94,322.75C1360.38,329.72 1366.53,334.28 1373,334.12C1373.01,334.12 1373.02,334.12 1373.04,334.12C1373.27,334.132 1373.44,334.335 1373.43,334.571C1373.43,334.581 1373.43,334.59 1373.43,334.6C1372.78,339.89 1367.12,351.33 1360,348.29C1358.28,347.55 1356.42,347.717 1354.43,348.79C1354.15,348.943 1353.82,348.972 1353.52,348.87C1351,348.02 1344.71,344.98 1342.56,346.68C1342.3,346.881 1341.98,346.986 1341.66,346.98C1340.21,346.95 1338.79,346.46 1337.42,346.49C1332.72,346.58 1309.51,347.31 1308.34,341.28C1307.19,335.38 1326.48,324.5 1329.57,319.16C1340.06,301.11 1344.13,279.62 1347.75,259.33C1348.2,256.837 1348.99,253.897 1350.14,250.51C1353.17,241.55 1357.35,218.73 1350.8,210.88C1348.33,207.92 1344.73,206.673 1339.98,207.14C1328.49,208.28 1317.23,210.553 1306.18,213.96C1298.91,216.2 1295.9,221.85 1291.83,228.98C1286.3,238.63 1286.18,249.82 1281.29,259.31C1279.18,263.377 1276.66,267.193 1273.73,270.76C1273.51,271.035 1273.18,271.211 1272.83,271.25L1272.52,271.28C1272.29,271.304 1272.11,271.503 1272.11,271.737C1272.11,271.811 1272.13,271.884 1272.16,271.95C1273.79,275.04 1274.86,277.7 1273.98,281.34C1271.81,290.3 1269.86,299.303 1268.13,308.35C1266.97,314.39 1267.21,320.13 1267.26,326.22C1267.27,326.537 1267.41,326.836 1267.65,327.04C1270.33,329.307 1272.88,331.703 1275.29,334.23C1280.02,339.18 1272.35,344.53 1268.66,346.73C1267.41,347.47 1265.83,347.92 1263.91,348.08C1260.42,348.367 1256.96,348.94 1253.54,349.8C1253.24,349.875 1252.92,349.805 1252.68,349.61C1243.81,342.39 1233.1,345.84 1222.86,346.88C1213.09,347.86 1212.79,339.68 1217.12,333.61C1217.31,333.346 1217.59,333.161 1217.9,333.09C1233.24,329.52 1249.97,287.45 1249.05,273.55C1249.02,273.224 1249.1,272.9 1249.26,272.62C1252.43,267.12 1257.95,257.71 1257.99,251.38C1258.07,241.63 1260.36,234.04 1260.28,222.33C1260.22,212.29 1251.39,215.75 1251.17,208.47C1251.16,208.153 1251.28,207.843 1251.51,207.62C1263.53,195.77 1281.13,183.49 1298.58,183.04C1298.58,183.04 1298.59,183.04 1298.59,183.04C1298.81,183.04 1298.98,183.216 1298.98,183.43C1298.98,183.474 1298.98,183.518 1298.96,183.56C1297.1,189.32 1296.2,195.24 1296.27,201.32C1296.27,201.646 1296.37,201.96 1296.55,202.22C1299.18,206.01 1300.55,207.91 1305.12,205.85C1315.43,201.2 1324.08,197.37 1336.2,192.5C1344.76,189.06 1353.36,183.95 1362,181.16C1362.35,181.049 1362.73,181.049 1363.08,181.16C1366.89,182.407 1369.87,184.707 1372.04,188.06C1372.23,188.36 1372.49,188.593 1372.8,188.76C1384.32,194.78 1384.87,207.54 1395.5,213.45C1395.74,213.588 1396.06,213.519 1396.23,213.29Z" style="fill-rule:nonzero;"/>
            <path d="M729.07,349.96C722.5,349.89 721.21,344.92 723.51,339.77C724.017,338.637 725.233,337.3 727.16,335.76C731.12,332.59 733.88,329.41 736.04,324.5C739.32,317.05 742.75,310.02 744.66,301.9C746.447,294.313 748.537,286.807 750.93,279.38C752.56,274.33 752.83,269.2 754.05,264.08C756.69,252.933 759.417,241.807 762.23,230.7C765.66,217.13 746.46,219.87 750.9,212.12C757.12,201.26 759.97,196.56 773.53,193.67C780.13,192.27 786.52,191.26 792.87,188.58C797.24,186.74 802.58,184.05 806.71,185.77C813.03,188.41 806.53,197.69 804.41,200.85C798.81,209.18 796.56,217.18 795.68,227.09C795.3,231.32 795.09,234.98 793.34,239.05C787.07,253.53 784.79,267.08 779.52,284.11C777.46,290.78 779.81,296.23 778.5,302.61C777.413,307.93 776.25,313.23 775.01,318.51C772.98,327.22 788.72,335.23 787.87,346.2C787.844,346.531 787.714,346.843 787.5,347.09C784.82,350.14 781.29,352.45 777.04,351.55C768.853,349.803 760.593,348.617 752.26,347.99C750.627,347.863 749.027,347.957 747.46,348.27C741.387,349.463 735.257,350.027 729.07,349.96Z" style="fill-rule:nonzero;"/>
            <path d="M1800.42,348.59C1797.51,346.74 1798.41,342.31 1799.49,339.87C1800.04,338.637 1801.37,337.187 1803.5,335.52C1810.97,329.67 1813.31,322.22 1817.55,311.7C1821.6,301.66 1823.37,290.31 1826.78,279.86C1828.47,274.65 1828.83,269.14 1830.03,264.01C1831.74,256.677 1834.4,245.893 1838,231.66C1841.76,216.82 1826.93,221.34 1826.05,214.32C1826.01,213.995 1826.07,213.666 1826.23,213.38C1832.42,201.92 1835.64,196.6 1849.53,193.67C1856.14,192.28 1862.52,191.26 1868.87,188.58C1873.26,186.73 1878.24,184.24 1882.31,185.61C1889.31,187.97 1882.59,197.61 1880.41,200.85C1873.9,210.52 1872.45,219.04 1871.38,230.48C1870.79,236.79 1868.03,242.39 1865.86,248.22C1864.61,251.56 1863.52,255.12 1862.57,258.9C1860.41,267.527 1858.02,276.087 1855.4,284.58C1853.44,290.95 1855.8,296.42 1854.51,302.6C1853.4,307.927 1852.23,313.23 1851.02,318.51C1848.98,327.32 1864.92,335.36 1863.89,346.26C1863.86,346.591 1863.72,346.9 1863.5,347.14C1860.96,349.88 1857.38,352.47 1853.41,351.61C1844.3,349.65 1831.89,346.9 1822.71,348.57C1817.54,349.51 1804.82,351.4 1800.42,348.59Z" style="fill-rule:nonzero;"/>
            <path d="M258.74,244.24C256.84,248.52 237.27,256.89 230.66,258.66C223.88,260.47 202.52,265.77 202.4,274.33C202.34,279.01 201.72,282.62 199.55,286.99C198.77,288.57 198.103,290.193 197.55,291.86C197.46,292.127 197.553,292.426 197.78,292.6L198.83,293.4C199.11,293.613 199.32,293.883 199.46,294.21C200.747,297.223 202.473,299.947 204.64,302.38C204.849,302.616 204.948,302.933 204.91,303.25C204.617,305.603 205.037,307.833 206.17,309.94C206.344,310.262 206.625,310.508 206.96,310.63L210.77,312.07C211.092,312.189 211.34,312.452 211.44,312.78C212.78,317.3 215.17,324.39 221.27,322.53C221.575,322.439 221.905,322.45 222.21,322.56C229.63,325.37 235.47,326.68 243.51,324.79C249.083,323.477 257.8,320.42 269.66,315.62C274.24,313.77 281,316.54 281.25,321.93C281.263,322.251 281.156,322.565 280.95,322.81C274.34,330.64 243.27,346.62 233.24,344.5C227.47,343.27 221.62,341.31 215.66,341.69C208.26,342.16 202.62,342.97 195.27,339C191.417,336.92 184.227,332.003 173.7,324.25C173.434,324.056 173.241,323.781 173.15,323.47C171.81,319.07 171.04,313.87 168.39,310.07C165.87,306.46 164.49,303.07 165.13,298.42C166.98,284.81 169.19,271.13 174.44,258.36C179.253,246.66 185.343,234.857 192.71,222.95C196.24,217.26 199.53,212.35 205.29,208.9C209.21,206.547 212.883,203.85 216.31,200.81C217.377,199.863 218.587,199.183 219.94,198.77C225.8,196.97 231.373,194.537 236.66,191.47C238.113,190.63 239.617,190.113 241.17,189.92C250.48,188.79 261.99,186.21 270.91,187.63C282.28,189.45 297.2,193.68 294.49,208.94C294.433,209.245 294.509,209.562 294.7,209.81L297.18,212.99C297.388,213.269 297.5,213.606 297.5,213.95C297.49,218.2 296.13,222.07 295.04,226.13C293.69,231.17 282.25,236.46 277.76,238.65C273.74,240.62 270.44,242.94 266.83,245.3C266.601,245.453 266.318,245.504 266.05,245.44L259.57,243.83C259.232,243.743 258.877,243.918 258.74,244.24ZM258.66,206.16C251.93,195.51 232.59,202.89 227.01,210.78C222.64,216.96 217.07,223.3 214.01,230.04C211.7,235.15 204.71,249.94 214.54,252.04C223.34,253.92 231.02,252.09 238.03,246.61C244.55,241.52 250.64,237.86 259.01,237.49C259.345,237.477 259.665,237.342 259.91,237.11C264.257,233.07 268.323,228.763 272.11,224.19C272.317,223.937 272.437,223.624 272.45,223.3L272.62,219.4C272.636,219.098 272.44,218.823 272.15,218.74L267.26,217.39C266.973,217.312 266.716,217.148 266.52,216.92C263.653,213.493 261.033,209.907 258.66,206.16Z" style="fill-rule:nonzero;"/>
            <path d="M548.65,244.41C546.95,247.99 536.92,251.97 529.41,255.54C518.78,260.6 499.69,261.89 492.7,271.76C492.511,272.027 492.41,272.345 492.41,272.67C492.42,281.46 490.56,284.97 487.5,291.59C487.359,291.902 487.446,292.273 487.71,292.49L488.94,293.51C489.227,293.75 489.443,294.043 489.59,294.39C490.83,297.337 492.51,300 494.63,302.38C494.846,302.622 494.948,302.946 494.91,303.27C494.623,305.583 495.03,307.78 496.13,309.86C496.291,310.176 496.561,310.421 496.89,310.55L500.93,312.19C501.196,312.298 501.398,312.523 501.48,312.8C502.74,317.21 505.1,324.36 511.27,322.53C511.581,322.439 511.915,322.453 512.22,322.57C519.78,325.44 525.59,326.78 533.04,324.72C541.58,322.353 549.95,319.493 558.15,316.14C560.503,315.18 562.47,314.8 564.05,315C568.02,315.5 574.59,321.03 569.28,324.82C558.033,332.827 545.883,339.093 532.83,343.62C523.06,347 515.31,341.09 505.56,341.67C496.08,342.24 490.58,342.68 482.5,337.25C474.007,331.55 467.693,327.183 463.56,324.15C463.3,323.955 463.111,323.677 463.02,323.36C461.81,318.93 461.01,313.86 458.36,310.05C455.87,306.47 454.47,303.1 455.1,298.5C457.1,284.04 459.46,269.75 465.24,256.24C469.927,245.287 475.747,234.19 482.7,222.95C486.22,217.26 489.54,212.35 495.3,208.88C499.3,206.46 503.063,203.7 506.59,200.6C507.643,199.673 508.853,199.017 510.22,198.63C515.8,197.037 521.063,194.737 526.01,191.73C527.43,190.87 528.883,190.333 530.37,190.12C540.15,188.74 552.35,186.16 561.7,187.76C573,189.69 587.24,194.05 584.49,209.05C584.439,209.337 584.511,209.635 584.69,209.87L587.38,213.31C587.572,213.553 587.658,213.867 587.62,214.18C586.973,219.78 585.95,224.243 584.55,227.57C582.91,231.46 570.07,237.58 566.1,239.51C562.75,241.14 559.79,243.56 556.52,245.47C556.238,245.639 555.892,245.658 555.6,245.52C553.62,244.6 551.54,244.09 549.36,243.99C549.058,243.978 548.778,244.144 548.65,244.41ZM518.74,208.73C514.94,213.67 511.233,218.683 507.62,223.77C503.91,228.99 498.41,240.64 499.57,246.94C501.15,255.51 516.5,252.87 522.01,250.49C523.59,249.803 525.73,248.387 528.43,246.24C534.45,241.44 541.1,237.76 549,237.49C549.335,237.484 549.656,237.352 549.9,237.12C554.253,233.073 558.323,228.763 562.11,224.19C562.317,223.937 562.437,223.624 562.45,223.3L562.62,219.4C562.636,219.098 562.44,218.823 562.15,218.74L557.26,217.39C556.968,217.312 556.708,217.144 556.52,216.91C550.46,209.68 547.21,198.48 535.19,201.2C529.39,202.52 522.17,204.26 518.74,208.73Z" style="fill-rule:nonzero;"/>
            <path d="M591.34,298.77C587.74,287.53 591.86,279.97 595.29,269.56C603.1,245.82 617.96,221.28 639.7,207.86C645.33,204.38 650.47,199.22 656.24,196.75C666.047,192.537 674.227,189.453 680.78,187.5C687.14,185.6 695.25,190.33 702.28,189.59C706.21,189.18 711.02,187.31 714.28,187.56C723.09,188.23 725.13,200.54 721.28,206.93C719.047,210.65 716.967,214.45 715.04,218.33C713.92,220.57 712.73,222.067 711.47,222.82C702.75,227.98 694.68,214.58 690.87,208.82C690.687,208.545 690.439,208.324 690.15,208.18C685.763,206.02 681.267,204.157 676.66,202.59C674.8,201.95 673.45,202.63 672.23,203.93C672.021,204.157 671.977,204.491 672.12,204.76L672.54,205.57C672.579,205.644 672.6,205.726 672.6,205.809C672.6,206.025 672.463,206.218 672.26,206.29C665.46,208.88 657.4,210.09 651.39,212.81C639.57,218.16 629.38,232.47 626.62,244.94C626.32,246.28 626.11,248.907 625.99,252.82C625.81,258.407 624.453,263.757 621.92,268.87C621.786,269.131 621.768,269.439 621.87,269.72C624.303,276.733 624.933,283.907 623.76,291.24C623.708,291.566 623.753,291.9 623.89,292.2C625.89,296.493 628.377,300.46 631.35,304.1C632.263,305.207 633.04,306.56 633.68,308.16C639.98,323.76 656.21,319.15 668.27,323.72C671.5,324.95 673.73,324.39 676.47,322.73C680.463,320.297 684.4,317.767 688.28,315.14C693,311.95 695.54,311.69 701,312.09C707.19,312.54 702.67,322.63 701.16,325.31C699.15,328.85 689.61,332.83 685.1,335.33C672.547,342.297 659.07,346.157 644.67,346.91C639.19,347.2 634.44,344.9 629,345.04C624.47,345.15 619.84,345.24 615.71,342.91C612.577,341.15 609.353,339.59 606.04,338.23C604.107,337.437 602.623,336.47 601.59,335.33C594.53,327.54 592.44,313.46 590.61,305.27C590.14,303.2 590.8,301.7 591.36,299.74C591.451,299.421 591.444,299.083 591.34,298.77Z" style="fill-rule:nonzero;"/>
            <g transform="matrix(0.809017,-0.587785,0.587785,0.809017,425.39,230.62)">
                <ellipse cx="0" cy="0" rx="1.43" ry="0.82" style="fill:white;"/>
            </g>
            <g transform="matrix(0.804894,-0.593419,0.593419,0.804894,1773.42,230.61)">
                <ellipse cx="0" cy="0" rx="1.45" ry="0.84" style="fill:white;"/>
            </g>
        </g>
    </g>
</svg>
