%TF.GenerationSoftware,KiCad,Pcbnew,(6.0.0)*%
%TF.CreationDate,2022-02-17T12:00:39-08:00*%
%TF.ProjectId,LedPracticePanel,4c656450-7261-4637-9469-636550616e65,0*%
%TF.SameCoordinates,Original*%
%TF.FileFunction,Legend,Bot*%
%TF.FilePolarity,Positive*%
%FSLAX46Y46*%
G04 Gerber Fmt 4.6, Leading zero omitted, Abs format (unit mm)*
G04 Created by KiCad (PCBNEW (6.0.0)) date 2022-02-17 12:00:39*
%MOMM*%
%LPD*%
G01*
G04 APERTURE LIST*
G04 APERTURE END LIST*
%TO.C,G\u002A\u002A\u002A*%
G36*
X35360954Y-36248388D02*
G01*
X35404093Y-36464072D01*
X35440520Y-36749291D01*
X35448976Y-36836323D01*
X35467016Y-37085630D01*
X35450741Y-37219844D01*
X35386625Y-37281480D01*
X35261138Y-37313055D01*
X35091154Y-37320868D01*
X34979763Y-37274499D01*
X34934626Y-37281326D01*
X34796284Y-37386292D01*
X34592164Y-37580490D01*
X34347621Y-37841189D01*
X34203399Y-37996173D01*
X33890686Y-38300619D01*
X33586479Y-38561501D01*
X33340114Y-38735051D01*
X33185801Y-38815999D01*
X32731108Y-38961000D01*
X32275841Y-38958349D01*
X31807426Y-38804581D01*
X31313289Y-38496232D01*
X30780856Y-38029835D01*
X30682056Y-37933754D01*
X30420123Y-37700577D01*
X30204551Y-37561888D01*
X29986603Y-37491763D01*
X29717540Y-37464280D01*
X29648455Y-37444786D01*
X29598710Y-37361680D01*
X29575255Y-37180030D01*
X29569373Y-36864558D01*
X29569416Y-36840998D01*
X29577563Y-36553381D01*
X29597071Y-36349402D01*
X29623994Y-36271891D01*
X29658673Y-36293374D01*
X29800877Y-36410529D01*
X30030195Y-36612415D01*
X30324503Y-36879414D01*
X30661677Y-37191911D01*
X30843228Y-37360246D01*
X31197847Y-37680448D01*
X31518563Y-37959401D01*
X31775944Y-38171779D01*
X31940556Y-38292261D01*
X32000395Y-38327399D01*
X32258013Y-38440267D01*
X32509751Y-38472298D01*
X32773619Y-38414461D01*
X33067628Y-38257724D01*
X33409790Y-37993057D01*
X33818115Y-37611427D01*
X34310615Y-37103804D01*
X34542880Y-36861357D01*
X34839016Y-36564964D01*
X35082035Y-36336734D01*
X35251543Y-36195594D01*
X35327147Y-36160467D01*
X35360954Y-36248388D01*
G37*
G36*
X26886027Y-27896041D02*
G01*
X27042801Y-27985284D01*
X27188746Y-28207391D01*
X27211000Y-28249010D01*
X27384527Y-28513806D01*
X27571467Y-28730150D01*
X27715998Y-28896954D01*
X27785475Y-29118299D01*
X27689773Y-29312291D01*
X27557287Y-29399586D01*
X27392194Y-29376194D01*
X27177446Y-29214339D01*
X26910252Y-28925738D01*
X26708851Y-28622441D01*
X26591793Y-28341104D01*
X26566170Y-28107832D01*
X26639075Y-27948727D01*
X26817599Y-27889891D01*
X26886027Y-27896041D01*
G37*
G36*
X37827768Y-27641385D02*
G01*
X37860287Y-27768864D01*
X37818497Y-28027872D01*
X37686925Y-28344367D01*
X37479061Y-28678239D01*
X37412343Y-28767419D01*
X37242667Y-28962492D01*
X37102931Y-29049844D01*
X36951957Y-29059239D01*
X36787803Y-29003226D01*
X36696101Y-28851547D01*
X36735659Y-28631160D01*
X36907944Y-28365209D01*
X36944620Y-28321058D01*
X37137896Y-28061542D01*
X37291269Y-27817732D01*
X37343649Y-27735911D01*
X37514310Y-27585850D01*
X37691478Y-27549150D01*
X37827768Y-27641385D01*
G37*
G36*
X51253313Y-21877315D02*
G01*
X51107735Y-22149016D01*
X51065778Y-22227322D01*
X50831042Y-22622767D01*
X50563365Y-23040666D01*
X50277008Y-23458034D01*
X49986230Y-23851885D01*
X49705292Y-24199234D01*
X49448455Y-24477097D01*
X49413085Y-24511518D01*
X49100068Y-24790438D01*
X48760123Y-25041498D01*
X48366136Y-25279791D01*
X47890991Y-25520411D01*
X47307574Y-25778453D01*
X46588769Y-26069011D01*
X46078872Y-26271881D01*
X45559065Y-26490860D01*
X45141383Y-26687787D01*
X44793539Y-26880924D01*
X44483244Y-27088534D01*
X44178210Y-27328879D01*
X43846150Y-27620219D01*
X43845353Y-27620941D01*
X43468778Y-27939485D01*
X43142593Y-28147039D01*
X42812798Y-28262529D01*
X42425390Y-28304880D01*
X41926368Y-28293017D01*
X41186784Y-28250848D01*
X41138619Y-28552057D01*
X41135589Y-28571004D01*
X41071398Y-28803032D01*
X40947667Y-29117760D01*
X40792412Y-29441540D01*
X40500429Y-29991921D01*
X40658797Y-30655406D01*
X40796846Y-31245102D01*
X40866907Y-31566069D01*
X40967896Y-32028723D01*
X41042024Y-32419439D01*
X41096865Y-32708500D01*
X41188733Y-33319304D01*
X41196700Y-33396211D01*
X41218319Y-33604891D01*
X41248477Y-33896001D01*
X41280510Y-34463409D01*
X41281078Y-34473463D01*
X41291513Y-35086558D01*
X41290560Y-35290581D01*
X41289338Y-35552244D01*
X41274635Y-35991568D01*
X41272250Y-36062843D01*
X41230422Y-36472961D01*
X41203530Y-36596726D01*
X41154572Y-36822043D01*
X41035418Y-37149535D01*
X40973446Y-37274153D01*
X40863678Y-37494885D01*
X40775005Y-37647725D01*
X40630071Y-37897537D01*
X40484110Y-38181929D01*
X40438254Y-38299842D01*
X40302990Y-38647655D01*
X40202200Y-38994545D01*
X40153419Y-39162436D01*
X39960350Y-39887732D01*
X39934534Y-39963914D01*
X39722575Y-40589407D01*
X39509660Y-41052640D01*
X39452779Y-41176393D01*
X39134839Y-41677924D01*
X38752633Y-42123238D01*
X38400763Y-42441441D01*
X38290040Y-42541570D01*
X38185229Y-42628888D01*
X37817232Y-42935468D01*
X37618361Y-43116396D01*
X37446747Y-43272526D01*
X37213101Y-43526658D01*
X37166474Y-43577373D01*
X36952781Y-43884039D01*
X36827256Y-44135840D01*
X36782035Y-44226552D01*
X36630603Y-44638939D01*
X36474852Y-45155229D01*
X36436780Y-45286407D01*
X36263844Y-45823863D01*
X36098091Y-46227457D01*
X35926477Y-46525262D01*
X35735957Y-46745350D01*
X35728200Y-46752504D01*
X35403778Y-46971488D01*
X34968812Y-47155909D01*
X34480040Y-47281544D01*
X34453035Y-47285706D01*
X34223314Y-47304919D01*
X33862945Y-47320257D01*
X33404237Y-47330922D01*
X32879498Y-47336113D01*
X32321040Y-47335028D01*
X32086771Y-47333062D01*
X31543370Y-47326669D01*
X31133961Y-47316929D01*
X30832581Y-47301361D01*
X30613269Y-47277482D01*
X30450062Y-47242812D01*
X30316997Y-47194870D01*
X30188111Y-47131173D01*
X30083940Y-47071939D01*
X29847229Y-46897620D01*
X29642462Y-46670419D01*
X29451195Y-46362536D01*
X29254986Y-45946169D01*
X29035392Y-45393517D01*
X29027522Y-45373558D01*
X29569373Y-45373558D01*
X29611706Y-45415891D01*
X29654040Y-45373558D01*
X29611706Y-45331225D01*
X29569373Y-45373558D01*
X29027522Y-45373558D01*
X28880393Y-45000411D01*
X28711339Y-44605671D01*
X28557935Y-44279540D01*
X28544365Y-44255021D01*
X29262989Y-44255021D01*
X29274793Y-44432047D01*
X29311723Y-44586899D01*
X29374073Y-44757599D01*
X29527040Y-45146949D01*
X29527040Y-43867148D01*
X29668711Y-43867148D01*
X29687852Y-44306788D01*
X29702239Y-44492211D01*
X29757987Y-45010563D01*
X29778561Y-45146949D01*
X29812745Y-45373558D01*
X29831003Y-45494593D01*
X29914836Y-45910601D01*
X30003037Y-46224889D01*
X30089158Y-46403758D01*
X30167765Y-46483168D01*
X30316330Y-46590399D01*
X30445238Y-46647676D01*
X30499614Y-46625370D01*
X30476570Y-46520630D01*
X30414970Y-46301111D01*
X30328485Y-46016412D01*
X30188452Y-45495351D01*
X30040487Y-44721212D01*
X29943419Y-43914467D01*
X29908380Y-43151058D01*
X29905989Y-42962056D01*
X29900656Y-42856465D01*
X30087610Y-42856465D01*
X30088822Y-43181518D01*
X30105582Y-43573681D01*
X30136057Y-44000379D01*
X30178413Y-44429031D01*
X30230815Y-44827062D01*
X30291430Y-45161891D01*
X30384938Y-45554496D01*
X30512720Y-46007137D01*
X30641414Y-46383037D01*
X30748642Y-46625370D01*
X30760539Y-46652257D01*
X30859614Y-46784859D01*
X30924609Y-46815801D01*
X31116261Y-46853928D01*
X31157241Y-46853312D01*
X31217549Y-46828421D01*
X31200586Y-46736986D01*
X31104862Y-46537725D01*
X30844236Y-45920280D01*
X30606525Y-45108842D01*
X30419368Y-44166029D01*
X30286795Y-43108725D01*
X30286256Y-43103022D01*
X30507209Y-43103022D01*
X30524343Y-43532058D01*
X30547902Y-43815942D01*
X30688743Y-44671625D01*
X30924684Y-45546985D01*
X31237219Y-46368391D01*
X31337337Y-46581727D01*
X31445918Y-46757530D01*
X31543265Y-46828421D01*
X31554724Y-46836766D01*
X31697602Y-46855225D01*
X31852113Y-46840439D01*
X31936429Y-46769100D01*
X31862099Y-46639325D01*
X31860291Y-46637432D01*
X31756578Y-46483855D01*
X31614085Y-46217236D01*
X31453244Y-45881953D01*
X31294486Y-45522382D01*
X31158242Y-45182903D01*
X31064944Y-44907891D01*
X31041103Y-44817622D01*
X30967036Y-44473536D01*
X30894027Y-44056660D01*
X30834916Y-43637891D01*
X30817947Y-43498655D01*
X30770405Y-43136451D01*
X30769649Y-43132131D01*
X30951945Y-43132131D01*
X30970466Y-43405058D01*
X30974067Y-43439194D01*
X31163512Y-44532682D01*
X31487666Y-45528193D01*
X31949006Y-46433389D01*
X32032302Y-46560417D01*
X32210826Y-46769100D01*
X32218735Y-46778345D01*
X32369033Y-46855225D01*
X32383804Y-46854997D01*
X32450326Y-46834818D01*
X32453433Y-46760295D01*
X32385652Y-46600888D01*
X32239506Y-46326058D01*
X32141088Y-46135568D01*
X31890586Y-45560609D01*
X31657485Y-44908145D01*
X31463873Y-44243714D01*
X31331836Y-43632854D01*
X31269673Y-43307567D01*
X31192749Y-43052517D01*
X31175865Y-43027640D01*
X31437333Y-43027640D01*
X31439727Y-43194763D01*
X31480529Y-43473902D01*
X31552066Y-43829154D01*
X31646666Y-44224615D01*
X31756655Y-44624384D01*
X31874360Y-44992558D01*
X31894388Y-45049030D01*
X32059802Y-45477159D01*
X32248862Y-45917736D01*
X32424484Y-46283725D01*
X32453342Y-46338276D01*
X32603523Y-46600740D01*
X32711142Y-46760295D01*
X32728089Y-46785421D01*
X32802504Y-46855225D01*
X32806237Y-46854907D01*
X32839044Y-46821757D01*
X33125373Y-46821757D01*
X33137003Y-46836083D01*
X33245468Y-46855225D01*
X33332149Y-46818405D01*
X33346818Y-46801718D01*
X33633373Y-46801718D01*
X33659474Y-46838048D01*
X33799164Y-46840296D01*
X34021732Y-46773027D01*
X34068662Y-46743885D01*
X34079028Y-46730007D01*
X34395373Y-46730007D01*
X34397545Y-46743024D01*
X34482765Y-46759523D01*
X34700279Y-46687912D01*
X34818941Y-46564314D01*
X34871089Y-46443797D01*
X35087435Y-46443797D01*
X35116347Y-46511552D01*
X35227579Y-46469720D01*
X35392775Y-46324688D01*
X35525069Y-46103233D01*
X35636294Y-45709642D01*
X35707182Y-45173659D01*
X35736215Y-44507294D01*
X35721874Y-43722558D01*
X35721627Y-43716895D01*
X35691120Y-43132049D01*
X35656449Y-42702108D01*
X35615602Y-42412776D01*
X35566568Y-42249760D01*
X35553245Y-42238290D01*
X35798466Y-42238290D01*
X35802382Y-42325558D01*
X35804305Y-42341844D01*
X35828413Y-42602219D01*
X35855849Y-42979372D01*
X35883380Y-43425273D01*
X35907776Y-43891891D01*
X35936812Y-44507294D01*
X35961706Y-45034891D01*
X36084304Y-44612151D01*
X36126788Y-44463145D01*
X36165689Y-44295938D01*
X36181255Y-44135840D01*
X36171037Y-43948319D01*
X36132586Y-43698843D01*
X36063454Y-43352877D01*
X35961192Y-42875891D01*
X35947279Y-42811877D01*
X35875513Y-42497389D01*
X35824376Y-42300880D01*
X35798466Y-42238290D01*
X35553245Y-42238290D01*
X35507332Y-42198764D01*
X35497031Y-42222464D01*
X35479273Y-42381305D01*
X35464480Y-42664853D01*
X35453964Y-43044073D01*
X35450501Y-43357233D01*
X35449034Y-43489931D01*
X35448651Y-43554685D01*
X35427434Y-44238936D01*
X35377890Y-44901382D01*
X35304408Y-45505227D01*
X35211376Y-46013675D01*
X35103182Y-46389928D01*
X35087435Y-46443797D01*
X34871089Y-46443797D01*
X34936248Y-46293210D01*
X35043210Y-45900658D01*
X35135273Y-45411034D01*
X35207885Y-44848710D01*
X35256491Y-44238062D01*
X35276538Y-43603464D01*
X35277319Y-43357233D01*
X35271537Y-42920020D01*
X35254136Y-42625304D01*
X35223631Y-42454722D01*
X35178540Y-42389909D01*
X35133717Y-42404942D01*
X35097869Y-42520907D01*
X35078509Y-42763568D01*
X35072706Y-43154078D01*
X35072525Y-43203467D01*
X35072503Y-43209533D01*
X35011381Y-44175007D01*
X34850651Y-45156043D01*
X34603874Y-46068343D01*
X34581557Y-46135055D01*
X34486939Y-46423713D01*
X34420469Y-46636020D01*
X34395373Y-46730007D01*
X34079028Y-46730007D01*
X34207047Y-46558617D01*
X34349725Y-46243074D01*
X34489685Y-45825638D01*
X34619919Y-45334691D01*
X34733415Y-44798618D01*
X34823163Y-44245801D01*
X34882152Y-43704623D01*
X34903373Y-43203467D01*
X34902838Y-43117077D01*
X34891846Y-42822080D01*
X34869576Y-42615798D01*
X34839873Y-42538521D01*
X34738273Y-42566708D01*
X34661868Y-42666281D01*
X34608599Y-42861674D01*
X34571903Y-43177380D01*
X34562216Y-43344531D01*
X34545216Y-43637891D01*
X34543031Y-43686165D01*
X34509962Y-44186666D01*
X34455459Y-44594392D01*
X34367109Y-44979819D01*
X34232499Y-45413422D01*
X34163806Y-45611232D01*
X34025942Y-45977447D01*
X33897070Y-46284723D01*
X33798056Y-46481749D01*
X33773942Y-46521342D01*
X33673938Y-46701012D01*
X33633373Y-46801718D01*
X33346818Y-46801718D01*
X33484537Y-46645057D01*
X33655589Y-46355288D01*
X33832359Y-45977626D01*
X34001904Y-45540602D01*
X34151278Y-45072745D01*
X34267538Y-44602584D01*
X34290251Y-44485498D01*
X34348498Y-44093075D01*
X34383944Y-43701653D01*
X34396180Y-43344531D01*
X34384798Y-43055011D01*
X34349387Y-42866390D01*
X34289540Y-42811971D01*
X34272813Y-42823991D01*
X34208712Y-42962358D01*
X34207787Y-42964354D01*
X34139547Y-43234003D01*
X34076388Y-43602193D01*
X34019159Y-43964873D01*
X33752067Y-45132682D01*
X33376519Y-46198104D01*
X33353214Y-46253013D01*
X33237561Y-46530279D01*
X33156151Y-46733425D01*
X33125373Y-46821757D01*
X32839044Y-46821757D01*
X32890001Y-46770268D01*
X33010214Y-46557383D01*
X33153320Y-46247556D01*
X33305764Y-45872091D01*
X33453990Y-45462292D01*
X33584443Y-45049463D01*
X33640868Y-44840191D01*
X33735408Y-44435528D01*
X33825052Y-43995575D01*
X33900541Y-43570170D01*
X33952623Y-43209152D01*
X33972040Y-42962358D01*
X33971244Y-42950328D01*
X33909508Y-42905273D01*
X33789007Y-42945187D01*
X33769123Y-42960558D01*
X33665861Y-43040383D01*
X33596188Y-43161175D01*
X33488825Y-43682860D01*
X33346032Y-44304538D01*
X33204009Y-44849285D01*
X33068289Y-45299102D01*
X32944408Y-45635989D01*
X32837901Y-45841948D01*
X32754303Y-45898979D01*
X32712937Y-45862981D01*
X32609252Y-45689692D01*
X32478126Y-45404294D01*
X32332186Y-45039177D01*
X32184063Y-44626733D01*
X32046386Y-44199353D01*
X31931784Y-43789428D01*
X31818407Y-43401327D01*
X31690422Y-43105769D01*
X31566280Y-42970705D01*
X31448612Y-43000430D01*
X31437333Y-43027640D01*
X31175865Y-43027640D01*
X31130335Y-42960558D01*
X31921195Y-42960558D01*
X31978724Y-43278058D01*
X32008624Y-43410579D01*
X32089056Y-43705270D01*
X32200127Y-44075639D01*
X32327225Y-44471644D01*
X32424788Y-44764306D01*
X32553260Y-45136998D01*
X32646721Y-45373804D01*
X32716175Y-45490450D01*
X32772626Y-45502663D01*
X32827077Y-45426169D01*
X32890532Y-45276693D01*
X32926367Y-45177284D01*
X33019855Y-44871015D01*
X33127833Y-44473296D01*
X33237457Y-44034556D01*
X33335887Y-43605223D01*
X33410280Y-43235725D01*
X33459806Y-42960558D01*
X31921195Y-42960558D01*
X31130335Y-42960558D01*
X31101380Y-42917897D01*
X30983336Y-42877188D01*
X30957667Y-42941513D01*
X30951945Y-43132131D01*
X30769649Y-43132131D01*
X30729924Y-42905033D01*
X30688226Y-42775507D01*
X30637033Y-42718980D01*
X30568065Y-42706558D01*
X30550819Y-42714129D01*
X30515888Y-42833136D01*
X30507209Y-43103022D01*
X30286256Y-43103022D01*
X30286167Y-43102083D01*
X30246875Y-42817283D01*
X30195747Y-42614492D01*
X30143679Y-42537225D01*
X30139167Y-42538006D01*
X30103780Y-42631102D01*
X30087610Y-42856465D01*
X29900656Y-42856465D01*
X29890572Y-42656802D01*
X29864039Y-42446328D01*
X29830112Y-42367891D01*
X29822270Y-42369281D01*
X29766215Y-42467914D01*
X29720464Y-42699286D01*
X29687385Y-43031128D01*
X29669345Y-43431171D01*
X29668711Y-43867148D01*
X29527040Y-43867148D01*
X29527040Y-43679807D01*
X29526603Y-43275464D01*
X29525066Y-42853379D01*
X29522621Y-42519982D01*
X29519474Y-42302155D01*
X29515832Y-42226778D01*
X29515067Y-42228913D01*
X29497798Y-42332581D01*
X29463634Y-42567836D01*
X29417137Y-42902543D01*
X29362866Y-43304570D01*
X29313586Y-43682354D01*
X29276018Y-44017798D01*
X29262989Y-44255021D01*
X28544365Y-44255021D01*
X28440597Y-44067532D01*
X28343568Y-43946903D01*
X28097613Y-43706746D01*
X28063227Y-43677845D01*
X28941196Y-43677845D01*
X28970411Y-43877167D01*
X28984484Y-43901015D01*
X29037868Y-43955314D01*
X29083126Y-43915822D01*
X29126079Y-43763825D01*
X29172544Y-43480604D01*
X29228338Y-43047446D01*
X29265677Y-42723187D01*
X29304899Y-42292311D01*
X29312138Y-42021527D01*
X29287405Y-41906916D01*
X29230706Y-41944558D01*
X29216570Y-41971502D01*
X29167724Y-42162386D01*
X29147336Y-42413603D01*
X29137634Y-42576323D01*
X29090787Y-42908378D01*
X29018438Y-43245545D01*
X28995653Y-43337361D01*
X28941196Y-43677845D01*
X28063227Y-43677845D01*
X27765109Y-43427280D01*
X27502019Y-43229889D01*
X28607361Y-43229889D01*
X28624453Y-43370546D01*
X28672937Y-43453347D01*
X28707312Y-43481714D01*
X28766201Y-43470696D01*
X28818238Y-43342769D01*
X28877135Y-43072347D01*
X28938075Y-42727472D01*
X29014540Y-42146822D01*
X29041692Y-41666404D01*
X29018833Y-41306589D01*
X28945264Y-41087746D01*
X28875846Y-40993490D01*
X28828301Y-40968651D01*
X28810017Y-41067111D01*
X28806774Y-41311886D01*
X28804547Y-41404042D01*
X28804448Y-41405448D01*
X28781722Y-41728656D01*
X28739520Y-42128385D01*
X28684526Y-42537225D01*
X28669050Y-42640959D01*
X28622086Y-42997864D01*
X28607361Y-43229889D01*
X27502019Y-43229889D01*
X27380740Y-43138896D01*
X27078710Y-42915940D01*
X27056225Y-42898031D01*
X28117658Y-42898031D01*
X28149341Y-43009878D01*
X28222530Y-43094638D01*
X28261506Y-43128164D01*
X28335674Y-43166478D01*
X28391857Y-43128246D01*
X28439788Y-42990596D01*
X28489202Y-42730657D01*
X28549832Y-42325558D01*
X28595425Y-41955467D01*
X28633115Y-41405448D01*
X28627201Y-40937847D01*
X28578540Y-40579954D01*
X28487991Y-40359058D01*
X28477659Y-40345800D01*
X28412467Y-40273084D01*
X28370572Y-40273215D01*
X28344895Y-40370297D01*
X28334307Y-40509928D01*
X28328354Y-40588433D01*
X28313867Y-40951725D01*
X28310380Y-41036826D01*
X28280217Y-41494809D01*
X28234336Y-41961396D01*
X28181192Y-42347622D01*
X28169168Y-42418749D01*
X28125071Y-42715516D01*
X28117658Y-42898031D01*
X27056225Y-42898031D01*
X26715776Y-42626872D01*
X26403589Y-42356094D01*
X26187285Y-42141332D01*
X26017586Y-41929464D01*
X25655191Y-41340029D01*
X25315433Y-40592165D01*
X25223259Y-40327970D01*
X25980036Y-40327970D01*
X26008584Y-40736076D01*
X26019757Y-40794159D01*
X26089456Y-41074325D01*
X26152778Y-41186770D01*
X26207891Y-41132847D01*
X26252962Y-40913907D01*
X26255994Y-40878961D01*
X26436706Y-40878961D01*
X26445896Y-41232027D01*
X26486245Y-41552941D01*
X26561014Y-41737876D01*
X26571560Y-41751651D01*
X26633087Y-41813198D01*
X26667709Y-41781058D01*
X26683370Y-41630024D01*
X26686677Y-41419874D01*
X26862268Y-41419874D01*
X26872361Y-41769071D01*
X26905547Y-42037492D01*
X26961640Y-42181625D01*
X26985935Y-42205067D01*
X27110831Y-42278140D01*
X27165208Y-42198774D01*
X27150152Y-41965725D01*
X27136209Y-41708557D01*
X27139333Y-41626244D01*
X27311770Y-41626244D01*
X27327732Y-42044249D01*
X27374899Y-42326388D01*
X27446558Y-42522771D01*
X27524583Y-42565163D01*
X27597681Y-42449201D01*
X27611187Y-42383024D01*
X27820379Y-42383024D01*
X27822258Y-42673576D01*
X27855384Y-42804436D01*
X27889039Y-42810153D01*
X27944465Y-42702441D01*
X27995916Y-42472077D01*
X28041566Y-42148475D01*
X28079590Y-41761046D01*
X28108164Y-41339204D01*
X28125461Y-40912360D01*
X28129656Y-40509928D01*
X28119860Y-40191770D01*
X29400040Y-40191770D01*
X29418512Y-40347662D01*
X29472824Y-40616273D01*
X29549331Y-40934654D01*
X29634196Y-41248848D01*
X29713586Y-41504899D01*
X29773663Y-41648849D01*
X29789751Y-41666404D01*
X29812923Y-41691689D01*
X29995482Y-41821453D01*
X30273843Y-41977317D01*
X30367160Y-42021527D01*
X30605298Y-42134348D01*
X31323089Y-42446099D01*
X32573594Y-42436811D01*
X33824098Y-42427524D01*
X34554236Y-42070646D01*
X34725475Y-41984516D01*
X34935962Y-41869880D01*
X36012721Y-41869880D01*
X36024194Y-42062660D01*
X36066578Y-42386471D01*
X36141330Y-42833558D01*
X36228376Y-43285776D01*
X36300158Y-43584443D01*
X36360555Y-43737564D01*
X36414040Y-43756458D01*
X36465089Y-43652440D01*
X36489155Y-43526658D01*
X36470307Y-43384863D01*
X36444399Y-43316610D01*
X36384135Y-43107153D01*
X36304818Y-42799235D01*
X36216756Y-42431606D01*
X36149219Y-42155288D01*
X36076689Y-41908438D01*
X36030705Y-41815887D01*
X36012721Y-41869880D01*
X34935962Y-41869880D01*
X35041575Y-41812361D01*
X35288983Y-41660435D01*
X35425123Y-41553996D01*
X35494457Y-41432748D01*
X35586389Y-41168229D01*
X35591184Y-41148714D01*
X36263559Y-41148714D01*
X36269774Y-41510181D01*
X36308951Y-41922157D01*
X36379670Y-42341189D01*
X36464787Y-42726621D01*
X36544132Y-43026222D01*
X36611713Y-43192871D01*
X36675263Y-43244882D01*
X36742515Y-43200570D01*
X36781885Y-43116396D01*
X36781153Y-42928200D01*
X36715728Y-42621627D01*
X36702810Y-42570053D01*
X36631149Y-42234406D01*
X36557393Y-41823344D01*
X36495632Y-41414161D01*
X36475195Y-41270763D01*
X36421357Y-40974955D01*
X36373689Y-40814296D01*
X36616741Y-40814296D01*
X36649032Y-41272822D01*
X36716184Y-41777067D01*
X36816423Y-42293231D01*
X36839018Y-42390559D01*
X36919804Y-42685911D01*
X36993209Y-42835768D01*
X37072434Y-42857894D01*
X37170676Y-42770058D01*
X37173051Y-42767008D01*
X37203483Y-42628888D01*
X37179675Y-42359448D01*
X37100423Y-41944558D01*
X37094509Y-41917166D01*
X37009623Y-41469293D01*
X36934898Y-40985498D01*
X36885904Y-40565852D01*
X36867310Y-40360401D01*
X36839143Y-40121036D01*
X36808305Y-40012241D01*
X36765340Y-40009653D01*
X36700793Y-40088911D01*
X36663834Y-40169600D01*
X36661932Y-40181421D01*
X36621084Y-40435288D01*
X36616741Y-40814296D01*
X36373689Y-40814296D01*
X36370556Y-40803736D01*
X36328593Y-40779161D01*
X36291728Y-40881205D01*
X36263559Y-41148714D01*
X35591184Y-41148714D01*
X35668468Y-40834166D01*
X35727437Y-40486562D01*
X35750040Y-40181421D01*
X35741213Y-40079854D01*
X35697786Y-40065588D01*
X35595066Y-40155148D01*
X35408362Y-40361550D01*
X35149129Y-40616976D01*
X34641176Y-40954058D01*
X34081364Y-41153299D01*
X33499868Y-41205693D01*
X32926862Y-41102233D01*
X32745838Y-41052869D01*
X32530992Y-41050767D01*
X32273395Y-41132471D01*
X32014965Y-41209356D01*
X31531032Y-41261403D01*
X31035855Y-41224739D01*
X30608071Y-41100857D01*
X30402952Y-40986059D01*
X30105779Y-40776980D01*
X29824904Y-40540797D01*
X29810103Y-40526981D01*
X29602948Y-40340359D01*
X29455932Y-40220136D01*
X29400040Y-40191770D01*
X28119860Y-40191770D01*
X28118923Y-40161320D01*
X28091437Y-39895948D01*
X28058141Y-39785558D01*
X28722706Y-39785558D01*
X28765040Y-39827891D01*
X28807373Y-39785558D01*
X28765040Y-39743225D01*
X28722706Y-39785558D01*
X28058141Y-39785558D01*
X28045373Y-39743225D01*
X28039349Y-39734586D01*
X27995895Y-39737282D01*
X27970646Y-39890938D01*
X27962003Y-40204408D01*
X27961192Y-40243699D01*
X27957717Y-40412090D01*
X27938114Y-40824791D01*
X27906355Y-41295308D01*
X27866537Y-41757004D01*
X27849677Y-41939502D01*
X27820379Y-42383024D01*
X27611187Y-42383024D01*
X27654556Y-42170521D01*
X27666744Y-42067781D01*
X27708242Y-41632841D01*
X27740440Y-41161007D01*
X27762399Y-40686539D01*
X27773181Y-40243699D01*
X27771849Y-39866749D01*
X27757465Y-39589949D01*
X27729090Y-39447562D01*
X27702508Y-39406193D01*
X27652673Y-39390666D01*
X27604063Y-39498015D01*
X27543029Y-39750458D01*
X27513869Y-39890467D01*
X27409439Y-40500336D01*
X27340540Y-41095267D01*
X27311770Y-41626244D01*
X27139333Y-41626244D01*
X27150598Y-41329425D01*
X27188859Y-40880163D01*
X27245964Y-40409117D01*
X27316889Y-39964634D01*
X27396607Y-39595058D01*
X27438521Y-39413626D01*
X27465509Y-39224080D01*
X27450730Y-39150558D01*
X27436360Y-39155283D01*
X27354776Y-39263584D01*
X27249350Y-39483927D01*
X27136482Y-39774947D01*
X27032569Y-40095279D01*
X26954010Y-40403559D01*
X26912108Y-40653209D01*
X26875455Y-41033416D01*
X26862268Y-41419874D01*
X26686677Y-41419874D01*
X26688014Y-41334892D01*
X26694681Y-41085273D01*
X26813117Y-40221956D01*
X27083170Y-39414209D01*
X27188589Y-39165598D01*
X27233018Y-39011408D01*
X27213952Y-38921196D01*
X27135640Y-38849213D01*
X27084588Y-38814746D01*
X26979113Y-38799631D01*
X26882668Y-38924229D01*
X26750325Y-39204242D01*
X26585821Y-39723679D01*
X26476417Y-40303238D01*
X26436706Y-40878961D01*
X26255994Y-40878961D01*
X26286160Y-40531301D01*
X26312206Y-40210721D01*
X26402383Y-39691369D01*
X26561518Y-39205249D01*
X26582184Y-39153494D01*
X26689953Y-38867406D01*
X26735830Y-38689674D01*
X26725795Y-38579661D01*
X26665832Y-38496731D01*
X26565181Y-38422148D01*
X26451740Y-38436307D01*
X26343695Y-38589388D01*
X26225360Y-38895595D01*
X26113384Y-39295953D01*
X26017351Y-39827716D01*
X25980036Y-40327970D01*
X25223259Y-40327970D01*
X25006492Y-39706656D01*
X25608796Y-39706656D01*
X25643404Y-39976058D01*
X25697205Y-40116297D01*
X25767361Y-40159041D01*
X25822015Y-40056432D01*
X25844040Y-39821653D01*
X25844262Y-39805216D01*
X25876407Y-39543037D01*
X25952420Y-39198673D01*
X26057077Y-38842119D01*
X26104197Y-38698664D01*
X26194602Y-38378076D01*
X26206891Y-38266344D01*
X27356261Y-38266344D01*
X27773380Y-38689674D01*
X28047374Y-38967747D01*
X28090542Y-39011408D01*
X28233223Y-39155717D01*
X28302538Y-39224080D01*
X28465186Y-39384494D01*
X28607809Y-39510304D01*
X28678865Y-39545023D01*
X28696125Y-39500526D01*
X28677362Y-39388687D01*
X28641421Y-39261016D01*
X28557114Y-39004362D01*
X28439885Y-38667501D01*
X28302383Y-38284740D01*
X28157259Y-37890385D01*
X28017160Y-37518742D01*
X27894738Y-37204117D01*
X27802641Y-36980817D01*
X27753518Y-36883147D01*
X27752925Y-36882588D01*
X27709793Y-36928266D01*
X27660421Y-37087401D01*
X27631624Y-37209476D01*
X27561586Y-37489566D01*
X27481078Y-37798284D01*
X27379441Y-38179418D01*
X27356261Y-38266344D01*
X26206891Y-38266344D01*
X26216451Y-38179418D01*
X26169651Y-38078189D01*
X26058820Y-38051044D01*
X27023413Y-38051044D01*
X27073422Y-38135982D01*
X27118439Y-38151063D01*
X27184485Y-38082602D01*
X27261763Y-37889483D01*
X27360499Y-37550864D01*
X27468577Y-37110107D01*
X27536125Y-36690718D01*
X27536782Y-36365667D01*
X27473065Y-36102558D01*
X27429758Y-36012894D01*
X27394716Y-36019975D01*
X27363222Y-36155002D01*
X27326367Y-36438367D01*
X27292314Y-36678279D01*
X27209949Y-37119170D01*
X27115181Y-37517110D01*
X27083911Y-37632847D01*
X27026051Y-37896057D01*
X27023413Y-38051044D01*
X26058820Y-38051044D01*
X26054112Y-38049891D01*
X26048647Y-38050109D01*
X25939875Y-38135789D01*
X25834190Y-38349684D01*
X25739915Y-38652756D01*
X25665376Y-39005967D01*
X25618895Y-39370279D01*
X25608796Y-39706656D01*
X25006492Y-39706656D01*
X25001639Y-39692745D01*
X24922403Y-39450941D01*
X24780081Y-39071843D01*
X24639644Y-38754508D01*
X24559600Y-38614720D01*
X25279429Y-38614720D01*
X25318247Y-38843863D01*
X25327111Y-38870970D01*
X25384831Y-39025536D01*
X25414249Y-39065891D01*
X25415515Y-39061431D01*
X25452516Y-38947916D01*
X25527886Y-38723312D01*
X25627120Y-38430891D01*
X25730168Y-38095491D01*
X25771078Y-37858178D01*
X25754088Y-37785760D01*
X26678922Y-37785760D01*
X26718191Y-37858178D01*
X26728105Y-37876462D01*
X26751326Y-37889169D01*
X26817162Y-37846180D01*
X26889866Y-37672113D01*
X26978090Y-37348708D01*
X27053890Y-37003992D01*
X27142810Y-36435325D01*
X27180808Y-35915783D01*
X27166491Y-35499657D01*
X28193963Y-35499657D01*
X28238748Y-35727784D01*
X28251698Y-35768397D01*
X28310588Y-35915783D01*
X28322540Y-35945696D01*
X28377079Y-36017476D01*
X28399279Y-36000702D01*
X28470741Y-35856897D01*
X28566980Y-35589871D01*
X28680311Y-35228678D01*
X28803047Y-34802374D01*
X28927501Y-34340011D01*
X29045987Y-33870645D01*
X29150819Y-33423329D01*
X29234310Y-33027117D01*
X29288773Y-32711064D01*
X29306523Y-32504225D01*
X29305396Y-32468613D01*
X29291552Y-32376963D01*
X29260904Y-32421986D01*
X29209650Y-32613781D01*
X29133987Y-32962444D01*
X29071158Y-33239092D01*
X28863598Y-33945892D01*
X28606176Y-34605262D01*
X28321455Y-35156284D01*
X28239577Y-35305638D01*
X28193963Y-35499657D01*
X27166491Y-35499657D01*
X27165889Y-35482154D01*
X27096060Y-35171225D01*
X27058361Y-35082297D01*
X27016123Y-35008185D01*
X26986368Y-35023660D01*
X26963451Y-35148585D01*
X26941726Y-35402819D01*
X26915547Y-35806225D01*
X26895863Y-36073609D01*
X26850879Y-36530968D01*
X26797163Y-36950017D01*
X26742479Y-37265312D01*
X26731087Y-37318428D01*
X26679630Y-37611905D01*
X26678922Y-37785760D01*
X25754088Y-37785760D01*
X25741567Y-37732391D01*
X25649086Y-37647739D01*
X25557712Y-37658906D01*
X25470500Y-37805374D01*
X25371589Y-38103030D01*
X25311299Y-38337180D01*
X25279429Y-38614720D01*
X24559600Y-38614720D01*
X24522394Y-38549745D01*
X24425184Y-38412291D01*
X24245972Y-38107675D01*
X24966962Y-38107675D01*
X24993505Y-38293504D01*
X25004794Y-38313298D01*
X25067086Y-38384206D01*
X25111023Y-38303891D01*
X25137904Y-38221736D01*
X25210826Y-38003851D01*
X25302830Y-37732238D01*
X25372947Y-37499203D01*
X26334839Y-37499203D01*
X26400232Y-37596761D01*
X26469191Y-37545145D01*
X26540013Y-37346186D01*
X26607203Y-37020919D01*
X26667115Y-36591129D01*
X26716100Y-36078597D01*
X26750509Y-35505107D01*
X26755367Y-35390437D01*
X26769131Y-34965249D01*
X26768605Y-34878570D01*
X28013114Y-34878570D01*
X28022359Y-34965249D01*
X28032528Y-35060597D01*
X28079484Y-35100533D01*
X28151328Y-35049126D01*
X28257702Y-34878332D01*
X28413152Y-34569381D01*
X28608989Y-34111408D01*
X28788668Y-33577785D01*
X28926588Y-33041285D01*
X29017245Y-32533387D01*
X29055132Y-32085568D01*
X29034747Y-31729305D01*
X28950584Y-31496076D01*
X28903946Y-31450500D01*
X28861862Y-31474993D01*
X28824004Y-31600641D01*
X28783901Y-31849943D01*
X28735081Y-32245396D01*
X28693610Y-32560465D01*
X28546456Y-33342098D01*
X28350994Y-34035820D01*
X28117595Y-34602049D01*
X28116618Y-34603970D01*
X28013114Y-34878570D01*
X26768605Y-34878570D01*
X26767308Y-34664811D01*
X26746904Y-34452967D01*
X26739576Y-34425139D01*
X27784670Y-34425139D01*
X27794491Y-34578558D01*
X27853630Y-34615004D01*
X27945650Y-34527189D01*
X28052614Y-34316628D01*
X28167321Y-34007661D01*
X28282572Y-33624626D01*
X28391166Y-33191863D01*
X28485904Y-32733710D01*
X28559586Y-32274508D01*
X28605011Y-31838595D01*
X28620294Y-31602251D01*
X28630502Y-31309474D01*
X28616806Y-31124246D01*
X28574800Y-31008116D01*
X28500081Y-30922631D01*
X28440638Y-30871239D01*
X28375373Y-30843043D01*
X28357394Y-30927574D01*
X28368454Y-31110051D01*
X28371043Y-31152757D01*
X28374435Y-31514490D01*
X28329654Y-32037912D01*
X28240564Y-32618313D01*
X28115775Y-33201153D01*
X27963895Y-33731891D01*
X27962324Y-33736600D01*
X27841938Y-34137870D01*
X27784670Y-34425139D01*
X26739576Y-34425139D01*
X26704927Y-34293562D01*
X26638386Y-34150441D01*
X26576171Y-34035842D01*
X27561631Y-34035842D01*
X27574541Y-34132223D01*
X27623070Y-34109188D01*
X27706675Y-33943558D01*
X27829465Y-33597635D01*
X27961441Y-33103328D01*
X28068932Y-32566782D01*
X28146300Y-32028630D01*
X28187907Y-31529509D01*
X28188117Y-31110051D01*
X28141291Y-30810891D01*
X28140435Y-30808225D01*
X28098619Y-30700760D01*
X28073014Y-30710174D01*
X28059014Y-30853947D01*
X28052011Y-31149558D01*
X28050653Y-31223803D01*
X27946972Y-32330089D01*
X27694136Y-33407097D01*
X27644831Y-33577544D01*
X27584880Y-33843222D01*
X27561631Y-34035842D01*
X26576171Y-34035842D01*
X26480106Y-33858891D01*
X26449524Y-34798617D01*
X26423621Y-35594558D01*
X26419613Y-35715845D01*
X26400991Y-36236692D01*
X26382305Y-36697500D01*
X26364810Y-37070965D01*
X26349764Y-37329781D01*
X26338421Y-37446641D01*
X26334839Y-37499203D01*
X25372947Y-37499203D01*
X25382160Y-37468583D01*
X25401409Y-37290626D01*
X25354231Y-37187549D01*
X25319771Y-37155130D01*
X25250958Y-37122789D01*
X25193198Y-37179666D01*
X25130044Y-37351003D01*
X25045047Y-37662045D01*
X25013678Y-37791802D01*
X24966962Y-38107675D01*
X24245972Y-38107675D01*
X24136125Y-37920963D01*
X23991883Y-37613419D01*
X24617783Y-37613419D01*
X24700170Y-37845702D01*
X24767122Y-37930745D01*
X24815547Y-37949577D01*
X24825347Y-37817966D01*
X24837958Y-37717895D01*
X24899401Y-37473049D01*
X24994230Y-37190998D01*
X25016741Y-37130005D01*
X25102430Y-36809366D01*
X25084144Y-36618590D01*
X25079657Y-36610900D01*
X25020707Y-36567533D01*
X24948477Y-36645453D01*
X24843500Y-36864558D01*
X24796681Y-36976956D01*
X24693145Y-37253005D01*
X24628409Y-37464702D01*
X24617783Y-37613419D01*
X23991883Y-37613419D01*
X23874893Y-37363979D01*
X23786356Y-37117459D01*
X24359776Y-37117459D01*
X24403560Y-37287891D01*
X24469341Y-37365048D01*
X24488077Y-37298478D01*
X24513073Y-37190839D01*
X24592855Y-36968582D01*
X24708211Y-36694430D01*
X24802194Y-36456719D01*
X24878628Y-36188522D01*
X24895834Y-36006510D01*
X24880476Y-35935587D01*
X24841969Y-35907942D01*
X24769788Y-36000346D01*
X24645095Y-36229558D01*
X24563133Y-36397745D01*
X24442704Y-36685191D01*
X24372955Y-36906891D01*
X24359776Y-37117459D01*
X23786356Y-37117459D01*
X23678733Y-36817798D01*
X23673507Y-36799648D01*
X23624655Y-36540558D01*
X24161332Y-36540558D01*
X24224250Y-36529285D01*
X24345525Y-36373205D01*
X24517676Y-36073651D01*
X24637709Y-35832579D01*
X24781023Y-35462629D01*
X24812392Y-35208063D01*
X24811602Y-35201520D01*
X24790587Y-35072581D01*
X24756254Y-35049927D01*
X24687398Y-35148413D01*
X24562814Y-35382891D01*
X24483748Y-35542111D01*
X24341609Y-35859004D01*
X24240592Y-36123040D01*
X24240492Y-36123347D01*
X24164253Y-36405689D01*
X24161332Y-36540558D01*
X23624655Y-36540558D01*
X23584157Y-36325771D01*
X23545924Y-35797192D01*
X24085103Y-35797192D01*
X24101319Y-35886910D01*
X24126651Y-35903619D01*
X24170676Y-35763891D01*
X24235108Y-35601739D01*
X24365204Y-35342360D01*
X24528314Y-35055133D01*
X24641350Y-34855533D01*
X24761745Y-34603052D01*
X24828116Y-34411981D01*
X24835749Y-34305179D01*
X24779932Y-34305506D01*
X24655956Y-34435824D01*
X24565700Y-34569534D01*
X24415473Y-34837177D01*
X24270657Y-35136710D01*
X24179489Y-35367701D01*
X24103507Y-35626920D01*
X24085103Y-35797192D01*
X23545924Y-35797192D01*
X23539503Y-35708419D01*
X23539060Y-34966433D01*
X23544351Y-34862799D01*
X24085619Y-34862799D01*
X24103518Y-34964526D01*
X24129573Y-34986698D01*
X24181228Y-34852031D01*
X24227545Y-34751989D01*
X24362692Y-34527790D01*
X24537950Y-34279798D01*
X24619958Y-34164388D01*
X24770260Y-33887346D01*
X24824995Y-33667659D01*
X24821950Y-33435558D01*
X24613444Y-33689558D01*
X24563044Y-33754839D01*
X24386502Y-34024423D01*
X24230789Y-34312466D01*
X24181817Y-34426557D01*
X24103367Y-34679347D01*
X24085619Y-34862799D01*
X23544351Y-34862799D01*
X23582342Y-34118654D01*
X23585552Y-34083978D01*
X24084624Y-34083978D01*
X24090079Y-34095109D01*
X24146146Y-34071298D01*
X24225216Y-33925745D01*
X24238098Y-33896713D01*
X24386481Y-33655643D01*
X24580192Y-33429664D01*
X24614921Y-33395380D01*
X24780123Y-33161418D01*
X24825347Y-32890551D01*
X24824865Y-32844408D01*
X24815219Y-32679448D01*
X24777377Y-32658019D01*
X24688734Y-32758225D01*
X24592733Y-32905763D01*
X24451705Y-33159728D01*
X24302987Y-33455570D01*
X24301580Y-33458522D01*
X24180028Y-33737057D01*
X24102105Y-33961669D01*
X24084624Y-34083978D01*
X23585552Y-34083978D01*
X23668864Y-33183924D01*
X23669410Y-33179686D01*
X24168238Y-33179686D01*
X24173311Y-33181996D01*
X24246089Y-33123259D01*
X24360211Y-32959539D01*
X24491338Y-32734951D01*
X24615132Y-32493613D01*
X24707257Y-32279641D01*
X24743373Y-32137150D01*
X24743373Y-32083664D01*
X25238218Y-32083664D01*
X25291114Y-32294420D01*
X25293220Y-32304050D01*
X25310721Y-32470429D01*
X25328081Y-32772747D01*
X25332703Y-32890551D01*
X25344108Y-33181274D01*
X25357611Y-33666279D01*
X25357636Y-33667659D01*
X25367399Y-34198033D01*
X25369112Y-34305179D01*
X25372459Y-34514496D01*
X25387175Y-35087795D01*
X25393037Y-35208063D01*
X25408729Y-35530028D01*
X25439173Y-35867337D01*
X25461454Y-36006510D01*
X25480562Y-36125865D01*
X25534947Y-36331754D01*
X25597417Y-36508380D01*
X25687082Y-36717689D01*
X25746810Y-36809366D01*
X25752365Y-36817893D01*
X25761351Y-36820416D01*
X25804389Y-36740714D01*
X25840488Y-36526810D01*
X25868585Y-36208086D01*
X25887617Y-35813924D01*
X25896520Y-35373708D01*
X25894230Y-34916820D01*
X25879684Y-34472642D01*
X25851817Y-34070558D01*
X25828865Y-33834869D01*
X25771980Y-33344322D01*
X25716079Y-33012225D01*
X25926827Y-33012225D01*
X25991267Y-33647225D01*
X26026968Y-34141167D01*
X26048264Y-34752948D01*
X26053419Y-35373708D01*
X26053740Y-35412376D01*
X26042902Y-36058290D01*
X26015261Y-36629531D01*
X26005018Y-36878931D01*
X26019560Y-37150517D01*
X26066138Y-37289856D01*
X26067269Y-37290626D01*
X26079666Y-37299062D01*
X26133606Y-37237835D01*
X26179577Y-37020373D01*
X26216731Y-36657198D01*
X26244221Y-36158833D01*
X26261198Y-35535798D01*
X26266815Y-34798617D01*
X26265054Y-34356492D01*
X26257175Y-33974961D01*
X26239784Y-33705771D01*
X26209483Y-33518319D01*
X26162869Y-33382004D01*
X26096542Y-33266225D01*
X25926827Y-33012225D01*
X25716079Y-33012225D01*
X25710441Y-32978734D01*
X25636448Y-32706397D01*
X25542202Y-32495602D01*
X25419904Y-32314641D01*
X25238218Y-32083664D01*
X24743373Y-32083664D01*
X24743373Y-31916213D01*
X24604287Y-32114787D01*
X24549621Y-32203637D01*
X24424634Y-32451863D01*
X24304318Y-32736769D01*
X24242925Y-32905244D01*
X24181749Y-33097031D01*
X24168238Y-33179686D01*
X23669410Y-33179686D01*
X23798141Y-32181084D01*
X23810181Y-32098633D01*
X24336736Y-32098633D01*
X24395516Y-32084310D01*
X24521434Y-31915353D01*
X24544373Y-31878308D01*
X24615167Y-31663095D01*
X24587889Y-31386186D01*
X24518141Y-31064891D01*
X24461424Y-31340058D01*
X24410384Y-31591869D01*
X24355646Y-31869225D01*
X24340324Y-31956995D01*
X24336736Y-32098633D01*
X23810181Y-32098633D01*
X24043139Y-30503276D01*
X23673590Y-29854800D01*
X23609882Y-29739966D01*
X23453624Y-29428639D01*
X23344849Y-29167314D01*
X23304040Y-29003191D01*
X23296462Y-28929183D01*
X23837147Y-28929183D01*
X23885457Y-29122000D01*
X24005029Y-29376523D01*
X24170343Y-29672482D01*
X24437211Y-30076600D01*
X24788249Y-30544730D01*
X25236549Y-31094171D01*
X25726987Y-31663095D01*
X25795201Y-31742225D01*
X25856392Y-31812152D01*
X25945078Y-31916213D01*
X26188041Y-32201296D01*
X26506553Y-32590104D01*
X26778354Y-32936909D01*
X26969870Y-33200043D01*
X27000483Y-33245063D01*
X27174042Y-33489750D01*
X27308904Y-33662808D01*
X27378050Y-33729210D01*
X27446176Y-33653809D01*
X27524499Y-33441309D01*
X27606944Y-33123279D01*
X27687638Y-32731300D01*
X27760705Y-32296954D01*
X27820271Y-31851821D01*
X27860461Y-31427483D01*
X27875400Y-31055521D01*
X27876040Y-30453484D01*
X27389206Y-30191822D01*
X27371438Y-30182257D01*
X26919841Y-29923478D01*
X26581314Y-29687675D01*
X26311729Y-29439919D01*
X26066956Y-29145284D01*
X25841222Y-28828185D01*
X25635834Y-28474379D01*
X25511608Y-28142967D01*
X25444390Y-27781016D01*
X25392464Y-27342579D01*
X25292600Y-27637402D01*
X25285941Y-27656994D01*
X25220498Y-27826894D01*
X25177638Y-27852055D01*
X25133968Y-27748925D01*
X25109412Y-27587118D01*
X25130131Y-27346758D01*
X25135318Y-27274676D01*
X25595681Y-27274676D01*
X25609016Y-27562132D01*
X25656922Y-27887381D01*
X25733915Y-28203580D01*
X25834512Y-28463881D01*
X25895518Y-28579394D01*
X25997899Y-28752924D01*
X26055311Y-28821225D01*
X26063733Y-28815593D01*
X26065726Y-28707074D01*
X26028348Y-28495017D01*
X25961050Y-28225036D01*
X25873283Y-27942746D01*
X25863807Y-27914300D01*
X25789742Y-27594867D01*
X25759373Y-27281583D01*
X25758404Y-27216798D01*
X25754605Y-27191391D01*
X25934657Y-27191391D01*
X25938734Y-27328630D01*
X25963836Y-27603681D01*
X26001869Y-27755331D01*
X26042687Y-27772664D01*
X26076143Y-27644767D01*
X26092089Y-27360725D01*
X26090158Y-27285668D01*
X26267373Y-27285668D01*
X26269528Y-27360725D01*
X26280413Y-27739809D01*
X26356057Y-28297869D01*
X26500283Y-28707074D01*
X26515277Y-28749616D01*
X26776379Y-29127592D01*
X27157665Y-29464337D01*
X27677442Y-29792391D01*
X27888000Y-29912858D01*
X28245024Y-30125845D01*
X28552294Y-30319400D01*
X28746696Y-30453484D01*
X28760274Y-30462849D01*
X29068038Y-30697592D01*
X29010235Y-30457908D01*
X28974569Y-30320348D01*
X28759477Y-29697789D01*
X28462916Y-29059754D01*
X28107464Y-28442617D01*
X27715701Y-27882750D01*
X27310207Y-27416529D01*
X26913560Y-27080325D01*
X26628150Y-26896840D01*
X26433071Y-26809258D01*
X26324466Y-26839609D01*
X26277509Y-26995783D01*
X26267373Y-27285668D01*
X26090158Y-27285668D01*
X26084803Y-27077520D01*
X26056943Y-26867512D01*
X26013373Y-26789225D01*
X25985650Y-26812063D01*
X25947160Y-26957017D01*
X25934657Y-27191391D01*
X25754605Y-27191391D01*
X25730805Y-27032241D01*
X25664045Y-27007480D01*
X25622399Y-27071859D01*
X25595681Y-27274676D01*
X25135318Y-27274676D01*
X25141723Y-27185667D01*
X25059427Y-27132711D01*
X24872006Y-27193098D01*
X24569449Y-27367191D01*
X24496814Y-27414602D01*
X24270379Y-27594663D01*
X24194420Y-27695187D01*
X24113624Y-27802113D01*
X23998245Y-28084038D01*
X23980232Y-28155075D01*
X23929159Y-28356496D01*
X23906708Y-28445038D01*
X23895935Y-28487523D01*
X23850131Y-28716846D01*
X23837147Y-28929183D01*
X23296462Y-28929183D01*
X23291383Y-28879579D01*
X23216424Y-28830874D01*
X23028873Y-28855798D01*
X22851533Y-28888987D01*
X22315552Y-28955927D01*
X21844019Y-28965594D01*
X21483706Y-28916159D01*
X21402157Y-28886802D01*
X21144043Y-28752345D01*
X20830073Y-28550252D01*
X20510040Y-28311449D01*
X20364007Y-28196095D01*
X19946351Y-27896998D01*
X19521064Y-27647526D01*
X19048275Y-27428446D01*
X18488113Y-27220524D01*
X17800706Y-27004526D01*
X16881973Y-26702619D01*
X16056928Y-26357183D01*
X15349122Y-25965974D01*
X14732111Y-25512005D01*
X14179451Y-24978291D01*
X13664698Y-24347846D01*
X13516241Y-24141470D01*
X13288443Y-23809431D01*
X13063839Y-23467155D01*
X12988926Y-23347959D01*
X13624619Y-23347959D01*
X13810422Y-23642902D01*
X14221692Y-24194751D01*
X14705519Y-24744844D01*
X14987947Y-25030636D01*
X15260032Y-25284829D01*
X15481168Y-25469487D01*
X15629716Y-25566627D01*
X15684040Y-25558261D01*
X15648538Y-25424687D01*
X15537069Y-25178061D01*
X15371684Y-24868048D01*
X15175042Y-24534694D01*
X14969804Y-24218045D01*
X14778629Y-23958147D01*
X14608948Y-23756379D01*
X14458925Y-23608692D01*
X14848011Y-23608692D01*
X14872575Y-23700810D01*
X14976669Y-23877461D01*
X15170457Y-24164757D01*
X15194230Y-24199639D01*
X15417738Y-24559135D01*
X15621764Y-24936215D01*
X15764775Y-25254711D01*
X15822542Y-25399126D01*
X15910038Y-25558261D01*
X15985911Y-25696255D01*
X16160007Y-25847179D01*
X16313518Y-25913774D01*
X16397049Y-25918313D01*
X16396101Y-25817456D01*
X16328859Y-25582725D01*
X16286938Y-25452580D01*
X16103042Y-24994276D01*
X15877168Y-24556682D01*
X15628607Y-24167722D01*
X15376650Y-23855321D01*
X15325368Y-23810153D01*
X15674281Y-23810153D01*
X15734345Y-23939273D01*
X15877929Y-24183507D01*
X15945294Y-24297377D01*
X16290709Y-24976002D01*
X16545789Y-25683310D01*
X16607374Y-25859197D01*
X16646047Y-25918313D01*
X16733079Y-26051349D01*
X16927762Y-26168300D01*
X17197818Y-26277539D01*
X17071693Y-25834882D01*
X16960440Y-25494326D01*
X16755665Y-25009575D01*
X16517393Y-24565734D01*
X16264791Y-24193509D01*
X16050584Y-23960165D01*
X16361373Y-23960165D01*
X16395100Y-24020856D01*
X16499633Y-24187386D01*
X16650313Y-24419177D01*
X16686547Y-24476901D01*
X16855891Y-24798454D01*
X17028913Y-25193884D01*
X17173268Y-25590733D01*
X17226430Y-25757062D01*
X17320555Y-26050709D01*
X17386911Y-26256559D01*
X17393818Y-26277539D01*
X17413669Y-26337842D01*
X17414165Y-26338872D01*
X17501699Y-26382306D01*
X17662131Y-26411107D01*
X17816383Y-26416547D01*
X17885373Y-26389899D01*
X17885087Y-26379694D01*
X17845017Y-26190140D01*
X17749240Y-25895827D01*
X17614982Y-25540263D01*
X17459464Y-25166956D01*
X17299909Y-24819414D01*
X17153541Y-24541146D01*
X17066863Y-24396907D01*
X16899439Y-24157635D01*
X16754991Y-24027770D01*
X16602279Y-23975243D01*
X16433929Y-23956342D01*
X16361373Y-23960165D01*
X16050584Y-23960165D01*
X16025728Y-23933089D01*
X17057551Y-23933089D01*
X17064377Y-24005496D01*
X17144199Y-24159700D01*
X17305614Y-24426460D01*
X17336116Y-24477964D01*
X17482922Y-24764823D01*
X17641733Y-25123454D01*
X17795375Y-25509028D01*
X17926678Y-25876713D01*
X18018468Y-26181680D01*
X18053574Y-26379099D01*
X18055286Y-26389899D01*
X18057897Y-26406369D01*
X18177176Y-26531817D01*
X18450789Y-26654266D01*
X18589234Y-26700865D01*
X18785359Y-26764336D01*
X18874122Y-26789225D01*
X18894729Y-26729365D01*
X18842325Y-26550794D01*
X18726569Y-26279540D01*
X18560996Y-25941885D01*
X18359138Y-25564114D01*
X18134530Y-25172513D01*
X17900704Y-24793364D01*
X17671196Y-24452953D01*
X17627111Y-24392252D01*
X17431650Y-24147357D01*
X17265749Y-23975436D01*
X17205368Y-23937884D01*
X17605153Y-23937884D01*
X17606010Y-24016391D01*
X17624762Y-24045355D01*
X17728627Y-24203787D01*
X17890170Y-24448935D01*
X18083314Y-24741202D01*
X18148770Y-24842557D01*
X18391094Y-25247158D01*
X18642160Y-25701932D01*
X18856995Y-26126362D01*
X18995192Y-26410966D01*
X19139728Y-26676545D01*
X19178496Y-26729365D01*
X19265513Y-26847923D01*
X19399648Y-26960184D01*
X19569232Y-27048411D01*
X19676306Y-27093470D01*
X19849157Y-27149643D01*
X19917373Y-27145111D01*
X19909947Y-27125359D01*
X19835458Y-26984708D01*
X19691114Y-26730001D01*
X19489506Y-26382998D01*
X19243229Y-25965459D01*
X18964873Y-25499145D01*
X18842811Y-25296069D01*
X18555175Y-24821868D01*
X18334883Y-24469561D01*
X18168557Y-24221291D01*
X18042818Y-24059202D01*
X17944286Y-23965438D01*
X17859584Y-23922140D01*
X17775333Y-23911453D01*
X17751105Y-23911584D01*
X17605153Y-23937884D01*
X17205368Y-23937884D01*
X17161429Y-23910558D01*
X17115124Y-23911719D01*
X17057551Y-23933089D01*
X16025728Y-23933089D01*
X16017025Y-23923608D01*
X15941298Y-23877288D01*
X18285531Y-23877288D01*
X18290564Y-23925558D01*
X18363842Y-24094036D01*
X18500249Y-24349893D01*
X18683192Y-24660455D01*
X18695199Y-24680038D01*
X18918850Y-25048492D01*
X19192030Y-25503710D01*
X19481285Y-25989721D01*
X19753163Y-26450558D01*
X19840169Y-26598053D01*
X20061908Y-26966599D01*
X20172864Y-27145111D01*
X20253282Y-27274491D01*
X20396233Y-27493040D01*
X20472699Y-27593558D01*
X20579318Y-27679605D01*
X20780276Y-27836701D01*
X21027514Y-28027072D01*
X21223631Y-28165421D01*
X21486212Y-28321093D01*
X21719110Y-28430656D01*
X21885704Y-28477506D01*
X21949373Y-28445038D01*
X21942258Y-28430061D01*
X21855279Y-28315537D01*
X21690211Y-28118901D01*
X21473440Y-27871925D01*
X21133223Y-27475289D01*
X20621474Y-26831903D01*
X20096395Y-26125158D01*
X19595268Y-25405680D01*
X19155373Y-24724094D01*
X18903702Y-24329698D01*
X18689491Y-24036983D01*
X18523740Y-23872461D01*
X18399905Y-23825891D01*
X18818532Y-23825891D01*
X19168164Y-24397391D01*
X19779497Y-25350606D01*
X20462609Y-26320118D01*
X21147944Y-27199631D01*
X21808951Y-27953391D01*
X21926250Y-28074910D01*
X22145223Y-28271990D01*
X22322091Y-28370827D01*
X22497877Y-28397891D01*
X22506520Y-28397870D01*
X22703954Y-28385291D01*
X22809213Y-28356496D01*
X22789271Y-28315937D01*
X22671333Y-28171658D01*
X22465608Y-27943703D01*
X22190871Y-27652713D01*
X21865895Y-27319330D01*
X21663795Y-27110621D01*
X21020228Y-26385974D01*
X20438296Y-25639340D01*
X19945478Y-24907705D01*
X19569254Y-24228058D01*
X19505539Y-24100009D01*
X19391369Y-23921480D01*
X19299089Y-23861677D01*
X19593988Y-23861677D01*
X19792299Y-24253026D01*
X20088764Y-24784523D01*
X20637296Y-25601587D01*
X21296297Y-26429575D01*
X22039556Y-27233725D01*
X22064145Y-27258422D01*
X22456713Y-27645678D01*
X22754355Y-27922067D01*
X22974433Y-28101842D01*
X23134307Y-28199254D01*
X23251339Y-28228558D01*
X23400554Y-28209372D01*
X23473373Y-28155075D01*
X23470049Y-28145173D01*
X23387186Y-28037945D01*
X23209771Y-27843217D01*
X22960264Y-27584984D01*
X22661123Y-27287242D01*
X21960705Y-26555382D01*
X21145061Y-25552028D01*
X20480562Y-24537474D01*
X20443242Y-24472981D01*
X20267961Y-24187861D01*
X20172947Y-24068028D01*
X20425373Y-24068028D01*
X20426402Y-24073822D01*
X20483510Y-24186283D01*
X20615237Y-24405698D01*
X20803753Y-24703176D01*
X21031228Y-25049822D01*
X21042652Y-25066862D01*
X21241029Y-25342869D01*
X21495597Y-25670132D01*
X21788273Y-26028334D01*
X22100977Y-26397154D01*
X22415627Y-26756273D01*
X22714142Y-27085372D01*
X22978441Y-27364133D01*
X23190443Y-27572235D01*
X23332066Y-27689359D01*
X23385230Y-27695187D01*
X23369603Y-27613744D01*
X23930013Y-27613744D01*
X24023691Y-27553038D01*
X24230511Y-27379839D01*
X24310104Y-27317655D01*
X24609633Y-27134849D01*
X24922495Y-26997640D01*
X25054272Y-26949310D01*
X25287272Y-26840078D01*
X25424557Y-26742251D01*
X25466536Y-26675327D01*
X25421557Y-26630720D01*
X25235983Y-26619891D01*
X25215259Y-26620296D01*
X24904588Y-26693881D01*
X24565171Y-26868320D01*
X24257004Y-27106013D01*
X24040086Y-27369360D01*
X24025641Y-27394573D01*
X23935366Y-27561182D01*
X23930013Y-27613744D01*
X23369603Y-27613744D01*
X23365760Y-27593713D01*
X23239720Y-27359638D01*
X23132172Y-27219857D01*
X23836454Y-27219857D01*
X23911791Y-27198464D01*
X24054866Y-27040230D01*
X24108092Y-26973729D01*
X24456433Y-26693200D01*
X24915834Y-26515593D01*
X25458807Y-26452417D01*
X25585242Y-26451045D01*
X25802392Y-26437515D01*
X25884645Y-26404291D01*
X25856548Y-26344725D01*
X25785282Y-26305460D01*
X25565120Y-26258267D01*
X25265738Y-26241540D01*
X24769483Y-26311045D01*
X24327107Y-26525688D01*
X23976244Y-26881094D01*
X23939353Y-26935475D01*
X23934048Y-26943295D01*
X23840119Y-27127202D01*
X23836454Y-27219857D01*
X23132172Y-27219857D01*
X23014963Y-27067520D01*
X22712440Y-26746891D01*
X22683840Y-26718737D01*
X22297802Y-26276201D01*
X21925917Y-25747317D01*
X21608516Y-25194875D01*
X21385930Y-24681667D01*
X21383579Y-24674811D01*
X21303163Y-24478553D01*
X21526040Y-24478553D01*
X21578342Y-24707292D01*
X21720662Y-25028774D01*
X21931961Y-25408050D01*
X22191195Y-25810169D01*
X22477324Y-26200183D01*
X22769306Y-26543142D01*
X23009747Y-26786280D01*
X23172852Y-26920969D01*
X23241847Y-26935475D01*
X23209695Y-26828494D01*
X23069362Y-26598725D01*
X22998786Y-26489253D01*
X22832131Y-26196773D01*
X22766500Y-26056610D01*
X22965373Y-26056610D01*
X22972600Y-26090791D01*
X23055431Y-26246117D01*
X23201066Y-26442943D01*
X23436758Y-26725264D01*
X23539732Y-26499261D01*
X23562820Y-26448257D01*
X23629759Y-26279462D01*
X23621247Y-26209926D01*
X23536873Y-26196036D01*
X23397089Y-26161193D01*
X23198206Y-26074057D01*
X23141087Y-26045393D01*
X23004313Y-26001840D01*
X22965373Y-26056610D01*
X22766500Y-26056610D01*
X22713096Y-25942558D01*
X22611555Y-25735097D01*
X22452551Y-25478716D01*
X22259027Y-25203737D01*
X22052480Y-24936681D01*
X21854410Y-24704070D01*
X21686314Y-24532426D01*
X21569692Y-24448271D01*
X21526040Y-24478126D01*
X21526040Y-24478553D01*
X21303163Y-24478553D01*
X21266183Y-24388302D01*
X21136812Y-24217067D01*
X20957259Y-24110167D01*
X20681715Y-24017402D01*
X20494334Y-24002441D01*
X20425373Y-24068028D01*
X20172947Y-24068028D01*
X20132732Y-24017309D01*
X20007327Y-23929917D01*
X19861514Y-23894274D01*
X19593988Y-23861677D01*
X19299089Y-23861677D01*
X19270621Y-23843228D01*
X19097081Y-23825891D01*
X18818532Y-23825891D01*
X18399905Y-23825891D01*
X18393427Y-23823455D01*
X18285531Y-23877288D01*
X15941298Y-23877288D01*
X15793262Y-23786738D01*
X15780326Y-23782997D01*
X15691639Y-23767582D01*
X15674281Y-23810153D01*
X15325368Y-23810153D01*
X15140588Y-23647403D01*
X14939711Y-23571891D01*
X14892814Y-23574995D01*
X14848011Y-23608692D01*
X14458925Y-23608692D01*
X14403547Y-23554176D01*
X14207055Y-23432115D01*
X13970044Y-23353215D01*
X13767825Y-23307280D01*
X13634666Y-23299188D01*
X13624619Y-23347959D01*
X12988926Y-23347959D01*
X12861075Y-23144531D01*
X12698794Y-22871445D01*
X12617330Y-22718503D01*
X13821373Y-22718503D01*
X13873958Y-22747045D01*
X14067036Y-22810366D01*
X14376763Y-22897904D01*
X14776483Y-23002191D01*
X15239540Y-23115761D01*
X16657706Y-23453553D01*
X17885373Y-23375436D01*
X18302099Y-23354691D01*
X19105535Y-23347123D01*
X19852810Y-23382005D01*
X20507468Y-23457081D01*
X21033052Y-23570097D01*
X21175649Y-23618845D01*
X21662516Y-23881093D01*
X22161712Y-24287760D01*
X22652992Y-24823189D01*
X22942970Y-25156483D01*
X23309412Y-25485002D01*
X23680255Y-25697259D01*
X24091145Y-25817912D01*
X24156362Y-25830989D01*
X24346872Y-25898465D01*
X24394475Y-26008096D01*
X24320714Y-26195298D01*
X24315082Y-26205857D01*
X24283938Y-26279462D01*
X24275921Y-26298409D01*
X24325772Y-26302599D01*
X24495134Y-26223327D01*
X24660167Y-26147312D01*
X24926066Y-26063316D01*
X25202024Y-26039651D01*
X25524070Y-26078739D01*
X25928234Y-26183005D01*
X26450545Y-26354871D01*
X26586010Y-26404291D01*
X26669855Y-26434879D01*
X26984924Y-26576972D01*
X27133998Y-26675327D01*
X27246242Y-26749383D01*
X27504128Y-26988225D01*
X27808906Y-27329605D01*
X27851700Y-27380004D01*
X28080539Y-27655869D01*
X28274566Y-27899472D01*
X28395600Y-28063082D01*
X28416725Y-28094643D01*
X28485958Y-28183295D01*
X28528722Y-28173537D01*
X28560836Y-28042163D01*
X28598116Y-27765966D01*
X28623456Y-27435006D01*
X28628814Y-26919743D01*
X28608763Y-26325244D01*
X28565917Y-25699432D01*
X28502894Y-25090229D01*
X28422309Y-24545558D01*
X28349659Y-24188148D01*
X28169945Y-23486375D01*
X27942035Y-22746082D01*
X27687882Y-22036244D01*
X27429438Y-21425840D01*
X27156373Y-20846122D01*
X26713101Y-21195900D01*
X26955072Y-21879683D01*
X27018281Y-22065349D01*
X27281729Y-23030942D01*
X27474548Y-24088008D01*
X27586036Y-25180558D01*
X27605230Y-25480305D01*
X27633030Y-25810498D01*
X27659766Y-25978365D01*
X27669120Y-26037092D01*
X27723823Y-26199254D01*
X27807463Y-26336155D01*
X27930365Y-26486964D01*
X28077741Y-26667130D01*
X28190916Y-26836299D01*
X28182936Y-26889059D01*
X28056059Y-26822595D01*
X27812540Y-26634089D01*
X27433703Y-26344541D01*
X26987776Y-26091644D01*
X26526056Y-25943065D01*
X25992206Y-25875319D01*
X25914499Y-25870183D01*
X25620252Y-25840597D01*
X25413872Y-25803472D01*
X25336040Y-25765609D01*
X25336083Y-25763806D01*
X25416124Y-25686235D01*
X25616904Y-25618129D01*
X25890911Y-25568207D01*
X26190630Y-25545187D01*
X26468547Y-25557790D01*
X26885682Y-25613125D01*
X26830200Y-24825341D01*
X26825178Y-24759882D01*
X26756581Y-24206040D01*
X26644787Y-23613009D01*
X26502389Y-23032881D01*
X26341980Y-22517751D01*
X26176151Y-22119709D01*
X25997182Y-21768899D01*
X25671933Y-22141229D01*
X25542514Y-22296269D01*
X25340937Y-22562748D01*
X25199401Y-22780753D01*
X25187351Y-22802689D01*
X25103502Y-22982599D01*
X25108224Y-23111874D01*
X25201962Y-23276637D01*
X25210736Y-23290342D01*
X25288306Y-23464344D01*
X25280422Y-23574654D01*
X25144273Y-23635594D01*
X24884542Y-23690599D01*
X24553857Y-23732361D01*
X24202351Y-23756123D01*
X23880159Y-23757125D01*
X23637413Y-23730609D01*
X23504528Y-23699258D01*
X23318825Y-23643148D01*
X23147973Y-23564446D01*
X22964557Y-23444230D01*
X22741160Y-23263581D01*
X22450369Y-23003579D01*
X22064765Y-22645305D01*
X21995269Y-22580841D01*
X21632449Y-22260119D01*
X21277169Y-21969086D01*
X20967041Y-21737545D01*
X20739675Y-21595298D01*
X20467474Y-21470712D01*
X19952468Y-21308335D01*
X19400354Y-21234345D01*
X18784032Y-21248301D01*
X18076405Y-21349759D01*
X17250373Y-21538277D01*
X17118137Y-21573502D01*
X16712472Y-21689728D01*
X16254029Y-21830255D01*
X15769645Y-21985846D01*
X15286155Y-22147266D01*
X14830396Y-22305277D01*
X14429202Y-22450643D01*
X14109410Y-22574127D01*
X13897855Y-22666493D01*
X13821373Y-22718503D01*
X12617330Y-22718503D01*
X12595643Y-22677787D01*
X12570265Y-22593444D01*
X12570994Y-22592859D01*
X12663420Y-22553043D01*
X12888392Y-22464831D01*
X13220887Y-22337788D01*
X13635881Y-22181480D01*
X14108352Y-22005472D01*
X14871842Y-21728466D01*
X15909282Y-21376922D01*
X16823288Y-21102693D01*
X17628908Y-20903299D01*
X18341188Y-20776259D01*
X18975177Y-20719090D01*
X19545923Y-20729313D01*
X20068472Y-20804445D01*
X20557873Y-20942006D01*
X20851468Y-21060783D01*
X21207776Y-21253488D01*
X21585735Y-21516659D01*
X22013836Y-21870522D01*
X22520570Y-22335303D01*
X22811002Y-22605120D01*
X23091501Y-22854540D01*
X23313926Y-23040540D01*
X23446640Y-23135777D01*
X23548407Y-23171759D01*
X23803091Y-23215963D01*
X24102807Y-23233225D01*
X24280590Y-23231123D01*
X24470349Y-23211808D01*
X24554800Y-23160037D01*
X24574040Y-23061172D01*
X24633940Y-22765700D01*
X24829979Y-22377919D01*
X25150350Y-21939869D01*
X25387558Y-21681117D01*
X26179594Y-21681117D01*
X26382201Y-22139671D01*
X26393273Y-22164978D01*
X26606009Y-22751478D01*
X26789511Y-23442224D01*
X26929710Y-24175795D01*
X27012531Y-24890773D01*
X27036793Y-25198518D01*
X27069837Y-25479645D01*
X27113606Y-25656500D01*
X27178174Y-25765889D01*
X27273617Y-25844620D01*
X27475528Y-25978365D01*
X27415625Y-25134961D01*
X27406969Y-25021285D01*
X27278960Y-23980719D01*
X27070138Y-22939827D01*
X26796442Y-21979827D01*
X26559466Y-21276763D01*
X26179594Y-21681117D01*
X25387558Y-21681117D01*
X25582666Y-21468289D01*
X26114537Y-20979917D01*
X26376573Y-20775858D01*
X27406511Y-20775858D01*
X27423306Y-20898239D01*
X27490811Y-21097876D01*
X27613499Y-21401258D01*
X27795841Y-21834873D01*
X28258720Y-23133815D01*
X28589927Y-24543558D01*
X28764697Y-25994262D01*
X28774094Y-26919743D01*
X28779646Y-27466558D01*
X28769057Y-27725491D01*
X28759083Y-28163591D01*
X28767116Y-28473066D01*
X28794417Y-28681055D01*
X28842245Y-28814699D01*
X28909195Y-28927822D01*
X28962672Y-28959586D01*
X29006242Y-28857032D01*
X29064417Y-28624735D01*
X29139524Y-28205894D01*
X29207760Y-27703445D01*
X29263504Y-27166094D01*
X29301136Y-26642549D01*
X29315033Y-26181518D01*
X29304647Y-25674410D01*
X29165600Y-24282431D01*
X28867093Y-22930060D01*
X28412424Y-21633916D01*
X28410686Y-21629790D01*
X28217422Y-21181724D01*
X28068197Y-20871936D01*
X27946954Y-20680599D01*
X27837638Y-20587886D01*
X27724192Y-20573968D01*
X27590559Y-20619018D01*
X27507162Y-20656913D01*
X27435954Y-20704246D01*
X27406511Y-20775858D01*
X26376573Y-20775858D01*
X26514318Y-20668590D01*
X26948565Y-20406499D01*
X28059940Y-20406499D01*
X28096912Y-20513472D01*
X28191346Y-20724661D01*
X28326463Y-21002047D01*
X28600364Y-21613713D01*
X28869794Y-22345341D01*
X29102296Y-23109198D01*
X29274592Y-23835717D01*
X29277846Y-23852395D01*
X29393312Y-24640995D01*
X29455912Y-25508379D01*
X29463799Y-26181518D01*
X29466433Y-26406367D01*
X29425663Y-27286781D01*
X29334389Y-28101442D01*
X29193399Y-28802172D01*
X29141973Y-29022043D01*
X29126323Y-29227717D01*
X29164433Y-29444310D01*
X29261575Y-29744687D01*
X29355823Y-29995520D01*
X29441078Y-30187212D01*
X29492490Y-30260558D01*
X29496194Y-30259582D01*
X29549808Y-30166860D01*
X29632067Y-29946572D01*
X29733126Y-29632144D01*
X29843139Y-29257003D01*
X29952259Y-28854574D01*
X30050641Y-28458284D01*
X30128439Y-28101558D01*
X30201823Y-27608562D01*
X30254347Y-26909822D01*
X30268466Y-26146903D01*
X30244749Y-25374658D01*
X30183765Y-24647941D01*
X30086083Y-24021606D01*
X29958079Y-23468096D01*
X29546864Y-22158223D01*
X29005213Y-20932322D01*
X28627368Y-20197753D01*
X28357537Y-20288725D01*
X28335627Y-20296151D01*
X28151303Y-20362147D01*
X28061106Y-20400783D01*
X28059940Y-20406499D01*
X26948565Y-20406499D01*
X27380935Y-20145541D01*
X27398461Y-20138012D01*
X28831639Y-20138012D01*
X28840533Y-20167865D01*
X28909090Y-20317878D01*
X29030812Y-20564684D01*
X29189670Y-20875272D01*
X29727684Y-22084038D01*
X30124298Y-23384444D01*
X30361737Y-24741636D01*
X30439269Y-26146903D01*
X30439673Y-26154225D01*
X30415528Y-27007773D01*
X30317838Y-27962865D01*
X30135284Y-28882527D01*
X29857365Y-29833115D01*
X29846246Y-29866540D01*
X29719779Y-30259219D01*
X29643845Y-30538786D01*
X29619383Y-30697592D01*
X29611587Y-30748204D01*
X29616151Y-30930438D01*
X29650682Y-31128449D01*
X29668973Y-31232006D01*
X29677479Y-31309474D01*
X29704702Y-31557391D01*
X29729453Y-31959579D01*
X29732262Y-32085568D01*
X29738706Y-32374621D01*
X29736851Y-32504225D01*
X29733974Y-32705159D01*
X29710188Y-33051545D01*
X29657856Y-33387373D01*
X29567670Y-33769376D01*
X29430323Y-34254287D01*
X29304895Y-34695650D01*
X29207317Y-35102415D01*
X29144733Y-35480554D01*
X29106507Y-35896044D01*
X29084326Y-36365667D01*
X29082002Y-36414861D01*
X29073787Y-36757866D01*
X29093967Y-37498647D01*
X29176803Y-38138011D01*
X29329307Y-38718142D01*
X29558491Y-39281221D01*
X29689550Y-39500526D01*
X29795233Y-39677368D01*
X29885576Y-39785558D01*
X30132171Y-40080866D01*
X30510462Y-40417007D01*
X30884100Y-40638681D01*
X31220919Y-40734464D01*
X31715290Y-40730783D01*
X32208446Y-40565947D01*
X32401612Y-40471701D01*
X32568359Y-40419394D01*
X32717037Y-40437493D01*
X32921295Y-40521394D01*
X33253561Y-40631860D01*
X33750300Y-40662604D01*
X34234068Y-40543452D01*
X34687103Y-40285531D01*
X35091644Y-39899968D01*
X35212093Y-39721199D01*
X37033451Y-39721199D01*
X37035358Y-40036092D01*
X37058916Y-40428293D01*
X37101877Y-40864216D01*
X37161992Y-41310277D01*
X37237013Y-41732891D01*
X37256560Y-41826100D01*
X37329130Y-42136394D01*
X37395101Y-42369626D01*
X37442216Y-42481102D01*
X37511243Y-42522978D01*
X37555298Y-42441441D01*
X37547642Y-42216164D01*
X37487544Y-41857253D01*
X37441207Y-41609671D01*
X37371511Y-41164710D01*
X37321776Y-40759225D01*
X37276777Y-40309391D01*
X37233608Y-39923891D01*
X37196720Y-39667488D01*
X37162218Y-39518816D01*
X37126208Y-39456508D01*
X37084795Y-39459197D01*
X37055443Y-39517197D01*
X37053895Y-39531558D01*
X37033451Y-39721199D01*
X35212093Y-39721199D01*
X35339868Y-39531558D01*
X36342706Y-39531558D01*
X36385040Y-39573891D01*
X36427373Y-39531558D01*
X36385040Y-39489225D01*
X36342706Y-39531558D01*
X35339868Y-39531558D01*
X35429927Y-39397894D01*
X35439596Y-39374793D01*
X37374992Y-39374793D01*
X37391478Y-39730933D01*
X37432514Y-40195638D01*
X37496742Y-40749487D01*
X37582801Y-41373058D01*
X37588604Y-41412112D01*
X37654630Y-41825350D01*
X37710674Y-42092646D01*
X37764339Y-42234791D01*
X37823223Y-42272572D01*
X37894929Y-42226780D01*
X37907494Y-42210623D01*
X37950617Y-42043043D01*
X37960627Y-41757898D01*
X37942296Y-41387033D01*
X37900396Y-40962295D01*
X37839700Y-40515529D01*
X37764978Y-40078582D01*
X37681004Y-39683298D01*
X37592549Y-39361525D01*
X37504385Y-39145107D01*
X37421284Y-39065891D01*
X37421110Y-39065892D01*
X37384416Y-39146639D01*
X37374992Y-39374793D01*
X35439596Y-39374793D01*
X35518514Y-39186252D01*
X36460709Y-39186252D01*
X36461014Y-39336188D01*
X36519656Y-39334284D01*
X36636852Y-39183286D01*
X36645334Y-39170555D01*
X36791559Y-38979977D01*
X36912499Y-38838369D01*
X37629800Y-38838369D01*
X37655475Y-38938891D01*
X37660359Y-38953871D01*
X37713178Y-39135415D01*
X37790128Y-39418606D01*
X37876350Y-39748953D01*
X37891480Y-39810286D01*
X37977153Y-40232487D01*
X38052134Y-40714781D01*
X38101662Y-41164434D01*
X38116432Y-41342717D01*
X38148308Y-41642697D01*
X38172086Y-41757898D01*
X38183111Y-41811309D01*
X38227976Y-41874896D01*
X38290040Y-41859799D01*
X38350033Y-41783907D01*
X38400574Y-41555937D01*
X38403937Y-41224434D01*
X38366200Y-40823448D01*
X38293442Y-40387027D01*
X38191742Y-39949221D01*
X38067177Y-39544078D01*
X37925828Y-39205648D01*
X37773772Y-38967979D01*
X37674040Y-38859693D01*
X37629800Y-38838369D01*
X36912499Y-38838369D01*
X37009048Y-38725321D01*
X37066923Y-38662174D01*
X37900710Y-38662174D01*
X37944153Y-38819031D01*
X38059764Y-39078916D01*
X38202224Y-39407148D01*
X38380165Y-39908800D01*
X38502312Y-40375894D01*
X38552479Y-40753425D01*
X38568223Y-40980040D01*
X38611432Y-41224098D01*
X38611566Y-41224434D01*
X38670504Y-41371832D01*
X38734933Y-41386776D01*
X38772273Y-41288329D01*
X38795084Y-41052640D01*
X38794721Y-40732332D01*
X38772899Y-40372761D01*
X38731335Y-40019284D01*
X38671745Y-39717257D01*
X38619395Y-39538135D01*
X38479000Y-39146396D01*
X38326030Y-38799374D01*
X38226617Y-38609764D01*
X38131616Y-38467943D01*
X38057649Y-38438242D01*
X37976658Y-38496321D01*
X37922757Y-38561516D01*
X37900710Y-38662174D01*
X37066923Y-38662174D01*
X37254026Y-38458026D01*
X37448016Y-38254234D01*
X38235077Y-38254234D01*
X38430934Y-38596563D01*
X38481602Y-38690033D01*
X38636306Y-39019942D01*
X38764076Y-39348656D01*
X38833148Y-39604312D01*
X38906430Y-39982806D01*
X38955535Y-40361217D01*
X38968742Y-40505162D01*
X38995964Y-40748175D01*
X39023324Y-40852487D01*
X39060092Y-40839505D01*
X39115540Y-40730634D01*
X39198084Y-40415505D01*
X39209968Y-39963914D01*
X39143782Y-39439666D01*
X39004536Y-38880637D01*
X38797242Y-38324701D01*
X38713141Y-38140023D01*
X38636516Y-38024621D01*
X38556851Y-38020739D01*
X38434150Y-38104073D01*
X38235077Y-38254234D01*
X37448016Y-38254234D01*
X37711763Y-37977161D01*
X37667969Y-37842684D01*
X38775916Y-37842684D01*
X38816954Y-37977161D01*
X38818614Y-37982599D01*
X38934552Y-38222336D01*
X39053561Y-38497601D01*
X39187351Y-38875390D01*
X39297023Y-39252655D01*
X39452182Y-39870225D01*
X39515888Y-39466968D01*
X39520037Y-39439371D01*
X39530049Y-38994545D01*
X39432509Y-38500142D01*
X39220818Y-37921595D01*
X39133725Y-37725328D01*
X39056838Y-37601256D01*
X38985607Y-37589232D01*
X38887755Y-37664322D01*
X38879959Y-37672299D01*
X38802203Y-37751857D01*
X38775916Y-37842684D01*
X37667969Y-37842684D01*
X37473910Y-37246798D01*
X37236058Y-36516435D01*
X36998579Y-37219663D01*
X36989868Y-37245562D01*
X36941968Y-37395400D01*
X36848912Y-37686496D01*
X36705771Y-38167150D01*
X36590156Y-38587981D01*
X36518526Y-38881734D01*
X36460709Y-39186252D01*
X35518514Y-39186252D01*
X35684191Y-38790434D01*
X35735508Y-38619486D01*
X35796713Y-38369050D01*
X35836889Y-38107992D01*
X35859850Y-37796660D01*
X35869409Y-37395400D01*
X35869377Y-36864558D01*
X35867302Y-36577188D01*
X35858948Y-36140301D01*
X35853617Y-36049309D01*
X37388041Y-36049309D01*
X37405689Y-36312336D01*
X37489470Y-36683181D01*
X37572773Y-36971489D01*
X37685932Y-37318262D01*
X37786701Y-37584225D01*
X37850434Y-37716632D01*
X37937015Y-37829682D01*
X37987624Y-37808078D01*
X37997940Y-37672299D01*
X37963641Y-37442826D01*
X37880406Y-37140138D01*
X37814373Y-36927301D01*
X37699328Y-36512521D01*
X37608943Y-36135426D01*
X37601530Y-36100387D01*
X37544598Y-35847391D01*
X37505018Y-35739072D01*
X37468582Y-35756027D01*
X37421081Y-35878848D01*
X37388041Y-36049309D01*
X35853617Y-36049309D01*
X35838074Y-35784033D01*
X35796876Y-35468515D01*
X35727551Y-35153877D01*
X35622295Y-34800250D01*
X35473304Y-34367767D01*
X35272775Y-33816558D01*
X35188362Y-33585133D01*
X35087198Y-33290499D01*
X35018975Y-33042916D01*
X34977093Y-32799107D01*
X34954951Y-32515796D01*
X34945948Y-32149705D01*
X34945180Y-31996225D01*
X35411339Y-31996225D01*
X35444108Y-32504225D01*
X35444421Y-32508956D01*
X35490426Y-32820372D01*
X35595624Y-33233080D01*
X35764951Y-33764085D01*
X36003345Y-34430391D01*
X36158686Y-34845492D01*
X36311509Y-35246541D01*
X36435585Y-35564199D01*
X36521057Y-35773269D01*
X36558072Y-35848558D01*
X36568816Y-35832088D01*
X36603186Y-35698382D01*
X36642473Y-35474176D01*
X36656674Y-35366470D01*
X36656317Y-35154073D01*
X36639900Y-35107378D01*
X37699566Y-35107378D01*
X37700437Y-35366470D01*
X37700821Y-35480506D01*
X37771808Y-35965049D01*
X37914309Y-36581623D01*
X37979297Y-36823709D01*
X38073056Y-37144496D01*
X38150933Y-37378054D01*
X38200697Y-37485768D01*
X38225360Y-37507979D01*
X38302697Y-37512553D01*
X38321521Y-37403764D01*
X39212763Y-37403764D01*
X39250678Y-37546585D01*
X39361192Y-37789978D01*
X39426105Y-37934348D01*
X39549734Y-38256193D01*
X39630345Y-38529459D01*
X39701023Y-38854225D01*
X39764370Y-38497962D01*
X39791656Y-38299842D01*
X39786631Y-38053138D01*
X39721067Y-37786152D01*
X39584134Y-37435003D01*
X39559853Y-37378570D01*
X39475074Y-37214511D01*
X39402755Y-37178693D01*
X39305710Y-37245856D01*
X39242359Y-37311627D01*
X39222508Y-37373426D01*
X39212763Y-37403764D01*
X38321521Y-37403764D01*
X38326770Y-37373426D01*
X38297333Y-37104594D01*
X38214140Y-36720049D01*
X38208942Y-36699289D01*
X38120065Y-36314381D01*
X38043748Y-35933732D01*
X37996013Y-35636891D01*
X37980637Y-35515278D01*
X37936122Y-35187122D01*
X37895764Y-34917225D01*
X37886331Y-34859597D01*
X37854380Y-34705802D01*
X37820868Y-34701595D01*
X37763226Y-34832558D01*
X37750161Y-34888958D01*
X37699566Y-35107378D01*
X36639900Y-35107378D01*
X36588527Y-34961261D01*
X36432700Y-34713300D01*
X36251709Y-34421141D01*
X35968534Y-33849240D01*
X35723690Y-33215980D01*
X35545075Y-32588153D01*
X35411339Y-31996225D01*
X34945180Y-31996225D01*
X34943484Y-31657558D01*
X34943296Y-31600219D01*
X35590195Y-31600219D01*
X35605273Y-31837377D01*
X35658061Y-32188516D01*
X35736521Y-32581975D01*
X36037690Y-33540643D01*
X36475848Y-34419334D01*
X36481907Y-34429297D01*
X36636642Y-34675482D01*
X36755971Y-34850567D01*
X36814503Y-34917225D01*
X36849060Y-34888958D01*
X36839428Y-34737773D01*
X36755823Y-34475686D01*
X36712171Y-34374747D01*
X38043999Y-34374747D01*
X38062062Y-34664508D01*
X38104892Y-35076485D01*
X38132780Y-35306794D01*
X38198828Y-35766132D01*
X38272434Y-36195634D01*
X38342231Y-36525891D01*
X38382744Y-36682127D01*
X38487215Y-37018671D01*
X38569891Y-37192220D01*
X38625424Y-37207006D01*
X38648464Y-37067264D01*
X38633662Y-36777228D01*
X38575669Y-36341131D01*
X38527970Y-35992359D01*
X38475681Y-35510724D01*
X38428942Y-34984488D01*
X38394071Y-34478464D01*
X38361091Y-33895439D01*
X38558560Y-33895439D01*
X38571869Y-34420350D01*
X38603437Y-34986903D01*
X38652581Y-35564795D01*
X38718617Y-36123725D01*
X38725328Y-36171794D01*
X38790474Y-36560651D01*
X38854591Y-36789522D01*
X38921102Y-36866846D01*
X38993430Y-36801058D01*
X38993586Y-36800026D01*
X39603879Y-36800026D01*
X39630604Y-37026186D01*
X39645931Y-37067264D01*
X39725196Y-37279703D01*
X39769645Y-37371193D01*
X39861955Y-37598145D01*
X39898706Y-37750185D01*
X39908807Y-37811750D01*
X39983373Y-37880558D01*
X40041586Y-37816705D01*
X40068459Y-37647725D01*
X40066496Y-37601790D01*
X40029425Y-37382786D01*
X39958627Y-37122470D01*
X39871550Y-36872534D01*
X39785643Y-36684667D01*
X39718353Y-36610558D01*
X39645500Y-36647949D01*
X39612568Y-36768277D01*
X39603879Y-36800026D01*
X38993586Y-36800026D01*
X38998395Y-36768277D01*
X38989528Y-36596285D01*
X38958142Y-36318319D01*
X38908474Y-35975558D01*
X38897103Y-35898528D01*
X38853116Y-35494367D01*
X38816179Y-34991308D01*
X38789884Y-34445980D01*
X38777820Y-33915010D01*
X38776723Y-33775021D01*
X38772713Y-33433767D01*
X39014080Y-33433767D01*
X39015106Y-34028225D01*
X39015654Y-34146654D01*
X39023051Y-34696441D01*
X39037352Y-35202578D01*
X39057179Y-35633645D01*
X39081157Y-35958222D01*
X39107906Y-36144891D01*
X39195306Y-36483558D01*
X39262713Y-36258789D01*
X39853695Y-36258789D01*
X39888589Y-36467914D01*
X39972240Y-36707918D01*
X40015924Y-36806896D01*
X40132221Y-37078844D01*
X40216747Y-37287891D01*
X40297022Y-37499558D01*
X40360201Y-37300768D01*
X40366764Y-37274153D01*
X40359677Y-37048548D01*
X40287751Y-36747343D01*
X40168856Y-36430680D01*
X40020861Y-36158699D01*
X40012354Y-36146532D01*
X39918498Y-36065113D01*
X39864638Y-36113527D01*
X39853695Y-36258789D01*
X39262713Y-36258789D01*
X39347653Y-35975558D01*
X39351825Y-35961581D01*
X39407099Y-35753257D01*
X39443698Y-35544243D01*
X39444104Y-35539154D01*
X39986066Y-35539154D01*
X40026484Y-35765008D01*
X40138770Y-36004821D01*
X40161615Y-36039281D01*
X40299900Y-36287990D01*
X40424011Y-36564030D01*
X40452125Y-36635565D01*
X40524120Y-36792418D01*
X40570234Y-36811840D01*
X40613191Y-36711550D01*
X40619035Y-36596726D01*
X40562659Y-36344722D01*
X40447600Y-36038165D01*
X40294176Y-35728598D01*
X40122711Y-35467558D01*
X40035409Y-35365259D01*
X39994452Y-35375901D01*
X39986066Y-35539154D01*
X39444104Y-35539154D01*
X39463091Y-35300885D01*
X39466750Y-34989531D01*
X39457118Y-34614415D01*
X39996912Y-34614415D01*
X40023780Y-34780983D01*
X40092699Y-34989531D01*
X40098072Y-35005788D01*
X40210788Y-35255610D01*
X40352928Y-35497233D01*
X40500132Y-35723233D01*
X40616224Y-35921611D01*
X40660706Y-36026399D01*
X40662133Y-36040823D01*
X40739463Y-36102558D01*
X40756156Y-36096301D01*
X40766138Y-35991568D01*
X40715599Y-35786566D01*
X40620169Y-35518846D01*
X40495481Y-35225956D01*
X40357168Y-34945447D01*
X40220861Y-34714867D01*
X40102192Y-34571768D01*
X40026468Y-34539300D01*
X39996912Y-34614415D01*
X39457118Y-34614415D01*
X39456145Y-34576529D01*
X39432746Y-34028225D01*
X39428865Y-33940259D01*
X39983373Y-33940259D01*
X40010995Y-34040931D01*
X40118583Y-34250147D01*
X40279605Y-34493753D01*
X40399036Y-34664898D01*
X40577546Y-34950314D01*
X40699625Y-35182430D01*
X40757271Y-35306348D01*
X40809711Y-35371501D01*
X40826726Y-35290581D01*
X40819406Y-35223920D01*
X40746484Y-34991480D01*
X40616840Y-34694251D01*
X40456978Y-34385197D01*
X40293401Y-34117284D01*
X40152614Y-33943474D01*
X40053528Y-33857861D01*
X39993853Y-33841298D01*
X39983373Y-33940259D01*
X39428865Y-33940259D01*
X39418633Y-33708303D01*
X39399462Y-33200523D01*
X39391360Y-32927558D01*
X39874314Y-32927558D01*
X39930495Y-33221564D01*
X39940661Y-33264885D01*
X40056076Y-33530061D01*
X40230593Y-33771897D01*
X40252173Y-33794979D01*
X40466980Y-34055782D01*
X40651958Y-34324558D01*
X40718967Y-34430352D01*
X40802888Y-34521355D01*
X40829723Y-34463409D01*
X40823156Y-34407890D01*
X40747140Y-34184511D01*
X40608035Y-33894249D01*
X40443578Y-33604891D01*
X40660706Y-33604891D01*
X40703040Y-33647225D01*
X40745373Y-33604891D01*
X40703040Y-33562558D01*
X40660706Y-33604891D01*
X40443578Y-33604891D01*
X40433654Y-33587430D01*
X40251806Y-33314379D01*
X40090306Y-33125422D01*
X39874314Y-32927558D01*
X39391360Y-32927558D01*
X39385794Y-32740009D01*
X39378764Y-32367373D01*
X39378835Y-32343909D01*
X39845697Y-32343909D01*
X39877376Y-32525205D01*
X39950151Y-32649849D01*
X40108794Y-32863336D01*
X40311657Y-33104524D01*
X40429145Y-33233938D01*
X40571487Y-33374390D01*
X40629968Y-33396211D01*
X40618349Y-33308558D01*
X40592983Y-33235402D01*
X40475883Y-32978705D01*
X40319445Y-32696136D01*
X40158884Y-32448257D01*
X40029409Y-32295631D01*
X40021005Y-32288880D01*
X39901565Y-32253066D01*
X39845697Y-32343909D01*
X39378835Y-32343909D01*
X39379507Y-32123225D01*
X39390646Y-31753129D01*
X39898706Y-31753129D01*
X39918103Y-31823549D01*
X40025324Y-32006159D01*
X40195040Y-32219040D01*
X40305916Y-32335829D01*
X40440622Y-32445198D01*
X40481701Y-32419439D01*
X40427443Y-32263542D01*
X40276137Y-31982496D01*
X40166991Y-31811317D01*
X40025541Y-31649740D01*
X39932315Y-31628036D01*
X39898706Y-31753129D01*
X39390646Y-31753129D01*
X39393522Y-31657558D01*
X39201614Y-31953891D01*
X39161429Y-32017984D01*
X39107317Y-32123322D01*
X39068035Y-32247459D01*
X39041325Y-32415484D01*
X39024934Y-32652485D01*
X39016604Y-32983550D01*
X39014080Y-33433767D01*
X38772713Y-33433767D01*
X38771433Y-33324815D01*
X38762740Y-33019318D01*
X38748191Y-32838900D01*
X38725330Y-32763933D01*
X38691702Y-32774786D01*
X38644851Y-32851831D01*
X38635020Y-32873587D01*
X38589453Y-33091755D01*
X38564194Y-33442474D01*
X38558560Y-33895439D01*
X38361091Y-33895439D01*
X38330288Y-33350891D01*
X38167425Y-33764151D01*
X38160144Y-33782704D01*
X38157728Y-33789565D01*
X38090867Y-33979449D01*
X38052876Y-34161595D01*
X38051961Y-34183574D01*
X38043999Y-34374747D01*
X36712171Y-34374747D01*
X36604164Y-34124996D01*
X36460892Y-33806937D01*
X36111413Y-32806049D01*
X35902090Y-31757684D01*
X35834311Y-31248609D01*
X36019322Y-31248609D01*
X36062348Y-31678738D01*
X36145653Y-32163646D01*
X36264579Y-32673368D01*
X36414468Y-33177939D01*
X36590660Y-33647395D01*
X36721436Y-33948302D01*
X36848035Y-34211080D01*
X36936695Y-34344575D01*
X36999253Y-34365443D01*
X37047544Y-34290339D01*
X37047942Y-34183574D01*
X36992206Y-33959654D01*
X36888456Y-33687315D01*
X36687546Y-33175574D01*
X36424076Y-32221964D01*
X36286223Y-31255538D01*
X36280544Y-31178714D01*
X36250531Y-30850893D01*
X36238434Y-30781603D01*
X36457429Y-30781603D01*
X36468207Y-31107225D01*
X36490096Y-31463227D01*
X36569561Y-32074931D01*
X36712523Y-32671779D01*
X36935192Y-33330973D01*
X37028400Y-33553608D01*
X37131500Y-33743532D01*
X37205331Y-33816558D01*
X37229141Y-33814726D01*
X37258000Y-33789565D01*
X37254602Y-33713272D01*
X37212431Y-33558886D01*
X37124969Y-33299449D01*
X36985700Y-32907999D01*
X36873743Y-32555253D01*
X36754863Y-32094404D01*
X36673569Y-31680333D01*
X36636407Y-31435618D01*
X36564941Y-30987634D01*
X36512696Y-30702110D01*
X36478287Y-30575176D01*
X36460326Y-30602963D01*
X36457429Y-30781603D01*
X36238434Y-30781603D01*
X36217766Y-30663212D01*
X36175847Y-30591038D01*
X36118372Y-30609738D01*
X36072747Y-30672544D01*
X36021236Y-30903223D01*
X36019322Y-31248609D01*
X35834311Y-31248609D01*
X35801220Y-31000069D01*
X35674754Y-31267105D01*
X35613757Y-31425735D01*
X35590195Y-31600219D01*
X34943296Y-31600219D01*
X34942734Y-31428215D01*
X34937849Y-30992201D01*
X34923984Y-30668062D01*
X34903392Y-30485812D01*
X35523739Y-30485812D01*
X35591011Y-30454186D01*
X35715281Y-30332859D01*
X35799167Y-30254716D01*
X35860428Y-30206504D01*
X36667262Y-30206504D01*
X36723036Y-30805031D01*
X36772475Y-31198329D01*
X36848916Y-31657178D01*
X36935661Y-32080891D01*
X36945677Y-32123556D01*
X37044162Y-32501287D01*
X37151713Y-32856924D01*
X37246777Y-33118576D01*
X37401040Y-33478928D01*
X37650555Y-33033910D01*
X37771194Y-32839464D01*
X37979632Y-32530515D01*
X38249374Y-32146619D01*
X38558866Y-31718419D01*
X38886557Y-31276558D01*
X38973811Y-31159720D01*
X40021115Y-31159720D01*
X40116694Y-31401322D01*
X40218591Y-31548982D01*
X40292192Y-31621821D01*
X40312741Y-31566069D01*
X40282949Y-31370167D01*
X40205527Y-31022558D01*
X40096189Y-30556891D01*
X40036364Y-30872155D01*
X40021115Y-31159720D01*
X38973811Y-31159720D01*
X39059363Y-31045160D01*
X39562570Y-30350534D01*
X39976002Y-29745370D01*
X40293832Y-29238811D01*
X40510229Y-28840001D01*
X40619368Y-28558083D01*
X40620770Y-28552057D01*
X40619729Y-28305256D01*
X40539867Y-28018576D01*
X40516323Y-27959983D01*
X40448812Y-27756558D01*
X41592040Y-27756558D01*
X41594455Y-27762774D01*
X41691786Y-27792947D01*
X41887354Y-27805225D01*
X41954646Y-27801406D01*
X42550519Y-27801406D01*
X42750103Y-27756699D01*
X43071124Y-27581748D01*
X43416764Y-27300065D01*
X43759177Y-26938624D01*
X44069961Y-26525143D01*
X44315719Y-26525143D01*
X44352943Y-26506394D01*
X44503734Y-26424676D01*
X44724706Y-26302214D01*
X44753843Y-26285827D01*
X44922429Y-26179817D01*
X45048935Y-26061589D01*
X45158189Y-25894356D01*
X45165567Y-25878377D01*
X45415334Y-25878377D01*
X45466675Y-25918325D01*
X45614292Y-25886072D01*
X45888873Y-25786815D01*
X46077877Y-25704797D01*
X46212508Y-25594436D01*
X46248706Y-25449390D01*
X46259964Y-25329221D01*
X46437510Y-25329221D01*
X46443827Y-25474347D01*
X46514451Y-25509403D01*
X46582882Y-25502431D01*
X46790410Y-25444707D01*
X46903295Y-25307449D01*
X46949173Y-25113272D01*
X47130145Y-25113272D01*
X47139832Y-25227658D01*
X47236439Y-25238688D01*
X47455206Y-25166818D01*
X47481513Y-25156772D01*
X47643994Y-25041474D01*
X47688040Y-24842946D01*
X47692052Y-24778391D01*
X47859159Y-24778391D01*
X47868190Y-24856557D01*
X47923201Y-24926558D01*
X47988683Y-24911800D01*
X48152462Y-24812862D01*
X48300772Y-24670556D01*
X48365373Y-24543933D01*
X48386068Y-24432620D01*
X48595443Y-24432620D01*
X48609463Y-24503225D01*
X48716847Y-24447482D01*
X48898976Y-24282141D01*
X49131083Y-24033157D01*
X49392772Y-23726729D01*
X49663650Y-23389057D01*
X49923322Y-23046340D01*
X50151393Y-22724778D01*
X50327468Y-22450570D01*
X50431153Y-22249916D01*
X50442054Y-22149016D01*
X50432883Y-22144948D01*
X50312701Y-22158099D01*
X50110945Y-22213956D01*
X49894760Y-22321929D01*
X49790102Y-22412325D01*
X49570808Y-22601734D01*
X49250147Y-23005084D01*
X48952123Y-23506455D01*
X48696086Y-24080323D01*
X48637644Y-24250759D01*
X48595443Y-24432620D01*
X48386068Y-24432620D01*
X48403378Y-24339517D01*
X48513612Y-24027073D01*
X48676065Y-23660187D01*
X48870588Y-23284148D01*
X49077036Y-22944242D01*
X49433725Y-22412325D01*
X49142789Y-22501616D01*
X49034222Y-22544808D01*
X48801872Y-22719807D01*
X48772973Y-22756863D01*
X48562331Y-23026959D01*
X48483981Y-23154181D01*
X48312963Y-23481755D01*
X48145325Y-23856898D01*
X48000714Y-24230676D01*
X47898776Y-24554152D01*
X47859159Y-24778391D01*
X47692052Y-24778391D01*
X47692802Y-24766319D01*
X47751783Y-24469207D01*
X47863004Y-24095306D01*
X48007335Y-23698839D01*
X48165645Y-23334031D01*
X48318804Y-23055106D01*
X48432417Y-22869471D01*
X48467696Y-22756863D01*
X48408908Y-22725225D01*
X48268364Y-22772968D01*
X48062945Y-22958057D01*
X48047346Y-22979225D01*
X47843744Y-23255513D01*
X47626842Y-23636387D01*
X47428319Y-24071734D01*
X47264257Y-24532607D01*
X47150736Y-24990058D01*
X47130145Y-25113272D01*
X46949173Y-25113272D01*
X46965105Y-25045838D01*
X46988921Y-24909301D01*
X47125921Y-24381392D01*
X47324751Y-23831505D01*
X47554808Y-23347759D01*
X47760786Y-22979225D01*
X47558649Y-22979225D01*
X47456818Y-22997192D01*
X47396507Y-23042725D01*
X47303141Y-23113213D01*
X47132150Y-23362067D01*
X47087720Y-23441408D01*
X46899746Y-23839307D01*
X46714331Y-24313455D01*
X46557965Y-24791659D01*
X46457138Y-25201725D01*
X46437510Y-25329221D01*
X46259964Y-25329221D01*
X46272085Y-25199841D01*
X46375788Y-24755569D01*
X46552042Y-24225988D01*
X46789505Y-23644055D01*
X47076838Y-23042725D01*
X47076414Y-23011790D01*
X46981443Y-22979225D01*
X46931894Y-23008044D01*
X46895349Y-23029300D01*
X46740759Y-23207756D01*
X46546138Y-23488291D01*
X46327629Y-23842259D01*
X46101375Y-24241019D01*
X45883519Y-24655927D01*
X45690205Y-25058338D01*
X45537576Y-25419610D01*
X45441775Y-25711100D01*
X45429584Y-25761031D01*
X45415334Y-25878377D01*
X45165567Y-25878377D01*
X45275020Y-25641331D01*
X45424257Y-25265727D01*
X45484244Y-25116239D01*
X45696320Y-24638778D01*
X45937049Y-24151468D01*
X46165091Y-23739476D01*
X46277497Y-23551407D01*
X46437013Y-23280225D01*
X46546624Y-23088160D01*
X46587373Y-23008044D01*
X46540051Y-22989558D01*
X46385444Y-22979225D01*
X46321734Y-22981030D01*
X46251396Y-22997498D01*
X46226588Y-23014181D01*
X46179892Y-23045583D01*
X46096256Y-23142244D01*
X45989516Y-23304439D01*
X45848703Y-23549126D01*
X45662849Y-23893264D01*
X45420985Y-24353811D01*
X45112140Y-24947725D01*
X45024940Y-25115885D01*
X44791873Y-25567951D01*
X44593482Y-25956568D01*
X44440703Y-26260078D01*
X44344470Y-26456823D01*
X44315719Y-26525143D01*
X44069961Y-26525143D01*
X44070519Y-26524400D01*
X44322945Y-26084368D01*
X44371548Y-25984637D01*
X44548425Y-25631904D01*
X44773209Y-25193643D01*
X45022052Y-24716103D01*
X45271105Y-24245537D01*
X45412039Y-23980777D01*
X45609750Y-23606078D01*
X45767616Y-23302808D01*
X45872193Y-23096873D01*
X45910040Y-23014181D01*
X45868420Y-22992771D01*
X45719540Y-22980761D01*
X45687668Y-22983383D01*
X45582993Y-23032606D01*
X45503738Y-23120096D01*
X45465022Y-23162835D01*
X45314878Y-23398475D01*
X45113680Y-23763928D01*
X45094338Y-23800259D01*
X44146000Y-25430464D01*
X43103897Y-26937391D01*
X43056031Y-27001332D01*
X42829088Y-27315459D01*
X42658646Y-27569973D01*
X42560519Y-27740185D01*
X42550519Y-27801406D01*
X41954646Y-27801406D01*
X42002098Y-27798713D01*
X42133926Y-27757060D01*
X42271405Y-27654658D01*
X42446176Y-27466345D01*
X42689875Y-27166959D01*
X42839311Y-26974114D01*
X43140584Y-26566965D01*
X43456313Y-26122149D01*
X43738540Y-25706459D01*
X43750942Y-25687589D01*
X43967011Y-25349504D01*
X44206401Y-24960692D01*
X44453045Y-24548968D01*
X44690876Y-24142143D01*
X44903825Y-23768030D01*
X45075825Y-23454443D01*
X45190808Y-23229194D01*
X45232706Y-23120096D01*
X45168942Y-23081887D01*
X44999873Y-23065120D01*
X44956821Y-23066845D01*
X44858077Y-23093457D01*
X44851459Y-23099001D01*
X44764069Y-23172213D01*
X44655857Y-23328507D01*
X44514503Y-23587734D01*
X44321067Y-23975287D01*
X43864960Y-24812749D01*
X43107356Y-25939501D01*
X42205039Y-27032299D01*
X42002789Y-27257938D01*
X41790270Y-27502331D01*
X41645516Y-27677798D01*
X41592040Y-27756558D01*
X40448812Y-27756558D01*
X40438223Y-27724650D01*
X40410105Y-27575521D01*
X40914706Y-27575521D01*
X40949755Y-27609012D01*
X41089536Y-27661861D01*
X41103284Y-27664033D01*
X41259032Y-27608005D01*
X41492794Y-27438413D01*
X41784734Y-27175329D01*
X42115017Y-26838822D01*
X42463808Y-26448965D01*
X42811272Y-26025828D01*
X43137574Y-25589482D01*
X43231856Y-25451553D01*
X43426181Y-25147529D01*
X43643079Y-24789705D01*
X43866702Y-24406404D01*
X44081203Y-24025947D01*
X44270737Y-23676656D01*
X44419455Y-23386853D01*
X44511512Y-23184861D01*
X44531059Y-23099001D01*
X44530882Y-23098864D01*
X44442888Y-23100178D01*
X44259040Y-23123866D01*
X44249701Y-23125383D01*
X44111448Y-23168849D01*
X43994584Y-23268397D01*
X43988525Y-23277646D01*
X43870647Y-23457591D01*
X43711178Y-23769997D01*
X43533583Y-24113255D01*
X43122394Y-24804918D01*
X42637996Y-25519865D01*
X42118211Y-26203750D01*
X41600861Y-26802229D01*
X41336743Y-27087401D01*
X41117429Y-27330299D01*
X40969175Y-27501543D01*
X40914706Y-27575521D01*
X40410105Y-27575521D01*
X40406706Y-27557493D01*
X40385243Y-27471723D01*
X40251741Y-27276994D01*
X40032511Y-27065954D01*
X40023487Y-27059452D01*
X41016401Y-27059452D01*
X41018818Y-27127891D01*
X41086656Y-27086080D01*
X41245407Y-26932196D01*
X41466537Y-26689599D01*
X41728400Y-26384222D01*
X42009349Y-26041997D01*
X42287741Y-25688857D01*
X42541928Y-25350733D01*
X42750265Y-25053558D01*
X42813632Y-24957086D01*
X43041767Y-24592412D01*
X43258675Y-24221946D01*
X43448488Y-23875462D01*
X43595339Y-23582734D01*
X43683360Y-23373537D01*
X43696684Y-23277646D01*
X43669406Y-23268849D01*
X43519969Y-23291128D01*
X43299716Y-23364364D01*
X43151265Y-23429700D01*
X43005185Y-23535553D01*
X42908436Y-23698891D01*
X42907401Y-23700639D01*
X42816014Y-23978125D01*
X42764686Y-24143098D01*
X42432755Y-24931803D01*
X41973236Y-25703835D01*
X41415503Y-26408225D01*
X41302175Y-26540468D01*
X41178387Y-26710121D01*
X41137153Y-26766633D01*
X41047046Y-26937391D01*
X41029356Y-27007853D01*
X41016401Y-27059452D01*
X40023487Y-27059452D01*
X39770123Y-26876903D01*
X39507143Y-26748138D01*
X39429998Y-26722408D01*
X39242008Y-26668496D01*
X39155504Y-26658061D01*
X39164056Y-26739813D01*
X39219458Y-26911188D01*
X39256571Y-27055155D01*
X39259284Y-27065680D01*
X39227325Y-27282764D01*
X39189868Y-27342081D01*
X39134641Y-27354214D01*
X39071151Y-27218358D01*
X39044185Y-27151860D01*
X39006307Y-27113210D01*
X38976322Y-27204604D01*
X38943328Y-27445400D01*
X38935706Y-27503821D01*
X38762383Y-28134503D01*
X38433167Y-28731381D01*
X37959749Y-29277466D01*
X37353816Y-29755769D01*
X36667262Y-30206504D01*
X35860428Y-30206504D01*
X36013999Y-30085645D01*
X36306684Y-29873963D01*
X36639040Y-29647977D01*
X37012730Y-29399367D01*
X37314037Y-29189069D01*
X37523455Y-29023879D01*
X37667929Y-28879998D01*
X37774403Y-28733632D01*
X37869823Y-28560981D01*
X37925189Y-28430678D01*
X37986689Y-28206108D01*
X38390392Y-28206108D01*
X38405853Y-28317763D01*
X38468645Y-28280493D01*
X38577684Y-28087162D01*
X38602133Y-28033118D01*
X38701703Y-27725383D01*
X38764428Y-27383096D01*
X38786429Y-27055155D01*
X38763822Y-26790454D01*
X38692727Y-26637890D01*
X38642898Y-26599974D01*
X38592491Y-26603657D01*
X38607853Y-26746206D01*
X38609620Y-26757017D01*
X38609004Y-26801462D01*
X38606891Y-26954006D01*
X38568239Y-27249476D01*
X38501255Y-27583784D01*
X38423345Y-27952666D01*
X38390392Y-28206108D01*
X37986689Y-28206108D01*
X38008941Y-28124852D01*
X38067529Y-27765701D01*
X38099732Y-27389810D01*
X38104330Y-27033765D01*
X38080100Y-26734151D01*
X38045683Y-26603149D01*
X38246548Y-26603149D01*
X38260855Y-26895058D01*
X38276150Y-27033765D01*
X38288682Y-27147419D01*
X38317979Y-27360796D01*
X38338764Y-27454043D01*
X38345009Y-27459222D01*
X38381530Y-27405434D01*
X38412165Y-27243097D01*
X38431889Y-27024382D01*
X38435674Y-26801462D01*
X38418494Y-26626510D01*
X38366875Y-26445053D01*
X38308838Y-26362338D01*
X38265635Y-26420306D01*
X38246548Y-26603149D01*
X38045683Y-26603149D01*
X38025822Y-26527554D01*
X37940274Y-26450558D01*
X37781873Y-26506820D01*
X37549440Y-26658901D01*
X37285285Y-26874138D01*
X37029454Y-27119846D01*
X36821992Y-27363338D01*
X36772811Y-27431587D01*
X36358605Y-28109224D01*
X35994895Y-28886607D01*
X35710950Y-29702126D01*
X35660047Y-29882833D01*
X35581006Y-30183518D01*
X35532582Y-30397018D01*
X35523739Y-30485812D01*
X34903392Y-30485812D01*
X34895447Y-30415491D01*
X34846551Y-30194182D01*
X34771604Y-29963830D01*
X34664919Y-29684128D01*
X34421612Y-29006956D01*
X34059267Y-27640925D01*
X33860681Y-26263675D01*
X33841101Y-25490337D01*
X33976710Y-25490337D01*
X34074651Y-26774927D01*
X34331901Y-28069969D01*
X34750433Y-29392725D01*
X34804784Y-29535616D01*
X34920996Y-29820221D01*
X35013012Y-30017457D01*
X35064595Y-30091225D01*
X35106097Y-30029984D01*
X35175024Y-29844567D01*
X35252296Y-29578332D01*
X35264140Y-29532597D01*
X35326220Y-29257949D01*
X35342060Y-29043316D01*
X35310035Y-28814883D01*
X35228520Y-28498832D01*
X35202509Y-28403703D01*
X34981368Y-27402511D01*
X34853327Y-26368467D01*
X34810854Y-25242856D01*
X34810824Y-25202935D01*
X34812604Y-25156392D01*
X34965343Y-25156392D01*
X35031195Y-26518185D01*
X35253465Y-27845990D01*
X35295101Y-28020706D01*
X35377399Y-28336981D01*
X35447347Y-28569646D01*
X35493150Y-28677768D01*
X35500416Y-28685072D01*
X35581542Y-28689221D01*
X35646066Y-28565333D01*
X35686510Y-28351332D01*
X35695400Y-28085145D01*
X35665258Y-27804697D01*
X35650395Y-27723842D01*
X35532576Y-26716557D01*
X35517505Y-25815558D01*
X35722204Y-25815558D01*
X35725620Y-26146872D01*
X35737451Y-26639343D01*
X35755725Y-27076399D01*
X35778718Y-27420070D01*
X35804706Y-27632384D01*
X35880529Y-28009877D01*
X36359903Y-27325758D01*
X36668230Y-26913987D01*
X37049503Y-26488309D01*
X37350700Y-26236742D01*
X38837702Y-26236742D01*
X38876533Y-26316119D01*
X38930445Y-26359859D01*
X39126843Y-26453577D01*
X39387486Y-26534452D01*
X39500290Y-26565995D01*
X39818394Y-26691052D01*
X40077075Y-26838224D01*
X40232600Y-26950817D01*
X40358327Y-27027929D01*
X40385023Y-27007853D01*
X40332793Y-26895058D01*
X40254585Y-26770925D01*
X39941767Y-26468508D01*
X39534764Y-26268714D01*
X39078494Y-26196558D01*
X38918154Y-26202521D01*
X38837702Y-26236742D01*
X37350700Y-26236742D01*
X37396610Y-26198397D01*
X37697373Y-26055817D01*
X37715512Y-26051170D01*
X37910087Y-25977321D01*
X38355043Y-25977321D01*
X38387121Y-26003072D01*
X38547233Y-26015021D01*
X38856028Y-26020348D01*
X39189771Y-26035683D01*
X39497153Y-26070470D01*
X39702695Y-26116932D01*
X39793803Y-26160848D01*
X40025034Y-26315746D01*
X40258540Y-26515115D01*
X40357218Y-26606441D01*
X40514988Y-26720727D01*
X40570204Y-26710121D01*
X40516299Y-26586151D01*
X40389466Y-26417271D01*
X41107198Y-26417271D01*
X41114065Y-26422285D01*
X41206762Y-26382337D01*
X41357231Y-26220969D01*
X41549145Y-25964596D01*
X41766176Y-25639634D01*
X41991995Y-25272500D01*
X42210275Y-24889609D01*
X42404688Y-24517377D01*
X42558907Y-24182222D01*
X42656603Y-23910558D01*
X42715211Y-23698891D01*
X42524583Y-23868225D01*
X42517732Y-23874383D01*
X42353094Y-24049735D01*
X42154770Y-24297230D01*
X41951132Y-24576385D01*
X41770550Y-24846714D01*
X41641396Y-25067731D01*
X41592040Y-25198953D01*
X41556025Y-25333398D01*
X41529711Y-25398453D01*
X41461495Y-25567101D01*
X41328932Y-25849371D01*
X41321416Y-25864462D01*
X41198407Y-26128736D01*
X41121547Y-26326974D01*
X41107198Y-26417271D01*
X40389466Y-26417271D01*
X40346709Y-26360339D01*
X40230529Y-26237939D01*
X39842363Y-25970121D01*
X39393577Y-25816206D01*
X38931061Y-25787964D01*
X38501706Y-25897167D01*
X38430350Y-25930591D01*
X38355043Y-25977321D01*
X37910087Y-25977321D01*
X37941588Y-25965365D01*
X38186337Y-25838793D01*
X38502087Y-25707460D01*
X38937196Y-25629482D01*
X39381918Y-25631989D01*
X39760326Y-25720680D01*
X40087061Y-25857198D01*
X40008922Y-25737943D01*
X40676007Y-25737943D01*
X40685409Y-25793513D01*
X40759873Y-25934313D01*
X40845758Y-26048311D01*
X40933352Y-26111891D01*
X40990413Y-26056605D01*
X41093747Y-25900761D01*
X41207797Y-25700922D01*
X41300062Y-25514386D01*
X41338040Y-25398453D01*
X41324082Y-25396732D01*
X41211480Y-25441864D01*
X41030165Y-25532119D01*
X40833790Y-25639983D01*
X40676007Y-25737943D01*
X40008922Y-25737943D01*
X39951491Y-25650293D01*
X39895591Y-25562636D01*
X39863057Y-25470632D01*
X39914153Y-25402039D01*
X40074556Y-25331219D01*
X40369942Y-25232541D01*
X40529219Y-25171301D01*
X40908524Y-24939282D01*
X41278283Y-24579138D01*
X41659619Y-24071858D01*
X41955222Y-23686837D01*
X42459842Y-23229533D01*
X43061547Y-22896715D01*
X43781183Y-22674656D01*
X43977896Y-22641598D01*
X44354043Y-22599057D01*
X44828318Y-22560132D01*
X45360418Y-22528016D01*
X45910040Y-22505904D01*
X47476373Y-22459788D01*
X48898292Y-22026472D01*
X49285337Y-21905191D01*
X49687973Y-21770078D01*
X49990304Y-21657754D01*
X50171473Y-21576065D01*
X50210626Y-21532856D01*
X50090808Y-21484388D01*
X49824174Y-21397692D01*
X49451563Y-21286965D01*
X49004611Y-21160782D01*
X48514953Y-21027718D01*
X48014228Y-20896348D01*
X47534072Y-20775247D01*
X47106121Y-20672988D01*
X46762012Y-20598148D01*
X46160181Y-20496903D01*
X45599612Y-20451391D01*
X44984012Y-20455052D01*
X44933507Y-20457027D01*
X44434266Y-20490943D01*
X44017283Y-20558566D01*
X43651151Y-20676265D01*
X43304465Y-20860405D01*
X42945818Y-21127352D01*
X42543803Y-21493473D01*
X42067013Y-21975134D01*
X42043043Y-22000013D01*
X41617744Y-22432570D01*
X41274196Y-22754231D01*
X40984218Y-22980880D01*
X40719630Y-23128403D01*
X40452251Y-23212686D01*
X40153900Y-23249614D01*
X39796396Y-23255072D01*
X39520724Y-23248735D01*
X39158610Y-23223291D01*
X38937326Y-23175413D01*
X38839117Y-23100197D01*
X38846224Y-22992742D01*
X38914279Y-22815330D01*
X38949921Y-22601885D01*
X38899071Y-22402109D01*
X38748150Y-22174199D01*
X38483578Y-21876351D01*
X37983732Y-21344560D01*
X37966547Y-21396908D01*
X37798482Y-21908869D01*
X37664293Y-22373049D01*
X37503369Y-23126080D01*
X37397084Y-23892357D01*
X37358706Y-24590953D01*
X37358706Y-25249167D01*
X37858310Y-25203865D01*
X38045288Y-25191768D01*
X38388386Y-25193109D01*
X38683239Y-25221959D01*
X38889638Y-25273306D01*
X38967373Y-25342136D01*
X38899015Y-25381210D01*
X38703886Y-25422657D01*
X38426424Y-25454797D01*
X38413212Y-25455888D01*
X37730899Y-25596614D01*
X37099335Y-25890533D01*
X36550733Y-26322741D01*
X36350561Y-26514427D01*
X36196008Y-26646114D01*
X36125255Y-26684662D01*
X36141611Y-26624703D01*
X36231606Y-26459805D01*
X36376458Y-26232677D01*
X36659441Y-25812472D01*
X36694548Y-24571579D01*
X36869183Y-24571579D01*
X36875726Y-24831571D01*
X36888563Y-25176135D01*
X36906889Y-25390885D01*
X36935344Y-25501118D01*
X36978569Y-25532133D01*
X37041206Y-25509227D01*
X37050128Y-25503993D01*
X37120673Y-25430798D01*
X37163383Y-25294131D01*
X37184696Y-25058776D01*
X37191050Y-24689517D01*
X37219522Y-23926086D01*
X37345385Y-22980558D01*
X37583206Y-22029345D01*
X37599027Y-21976954D01*
X37698151Y-21626626D01*
X37744867Y-21396908D01*
X37743793Y-21253353D01*
X37699548Y-21161511D01*
X37624471Y-21091065D01*
X37489221Y-21031891D01*
X37482127Y-21032675D01*
X37398736Y-21128805D01*
X37300859Y-21372194D01*
X37194022Y-21743857D01*
X37083753Y-22224808D01*
X36975581Y-22796061D01*
X36927142Y-23139517D01*
X36875613Y-23827614D01*
X36869183Y-24571579D01*
X36694548Y-24571579D01*
X36702514Y-24290015D01*
X36721075Y-23730229D01*
X36745629Y-23260335D01*
X36780124Y-22876357D01*
X36829604Y-22535341D01*
X36899115Y-22194333D01*
X36993699Y-21810381D01*
X37241810Y-20853204D01*
X37028530Y-20697840D01*
X36815249Y-20542476D01*
X36814822Y-20543430D01*
X36662312Y-20884073D01*
X36599507Y-21033868D01*
X36444717Y-21461574D01*
X36279131Y-21983216D01*
X36117313Y-22549041D01*
X35973824Y-23109295D01*
X35863227Y-23614225D01*
X35796738Y-24032862D01*
X35751275Y-24521376D01*
X35727235Y-25103048D01*
X35722204Y-25815558D01*
X35517505Y-25815558D01*
X35514255Y-25621262D01*
X35591098Y-24479829D01*
X35758770Y-23334135D01*
X36012936Y-22226052D01*
X36349261Y-21197455D01*
X36398542Y-21064981D01*
X36495334Y-20765837D01*
X36546633Y-20543430D01*
X36542361Y-20437436D01*
X36439334Y-20377247D01*
X36245711Y-20311255D01*
X36145265Y-20293570D01*
X36059166Y-20317403D01*
X35980276Y-20414861D01*
X35886635Y-20614349D01*
X35756279Y-20944274D01*
X35687286Y-21127961D01*
X35295289Y-22435192D01*
X35054008Y-23786698D01*
X34965343Y-25156392D01*
X34812604Y-25156392D01*
X34856241Y-24015074D01*
X34997272Y-22923594D01*
X35242431Y-21881014D01*
X35600229Y-20839853D01*
X35643043Y-20729409D01*
X35746229Y-20442391D01*
X35809299Y-20233632D01*
X35819939Y-20142235D01*
X35717683Y-20099300D01*
X35525782Y-20051473D01*
X35440236Y-20036692D01*
X35332739Y-20044549D01*
X35244352Y-20118797D01*
X35146373Y-20289146D01*
X35010106Y-20585305D01*
X34760509Y-21203611D01*
X34483852Y-22039250D01*
X34255922Y-22897694D01*
X34100113Y-23698891D01*
X34036107Y-24198940D01*
X33976710Y-25490337D01*
X33841101Y-25490337D01*
X33825807Y-24886248D01*
X33954597Y-23519684D01*
X34247002Y-22175023D01*
X34702976Y-20863307D01*
X34768758Y-20703421D01*
X34891642Y-20393242D01*
X34979514Y-20155409D01*
X35016647Y-20031621D01*
X34989973Y-19986697D01*
X34828712Y-19879153D01*
X34539143Y-19736597D01*
X34141373Y-19569640D01*
X33252373Y-19218929D01*
X32052910Y-19230785D01*
X30853448Y-19242640D01*
X29851577Y-19683930D01*
X29785121Y-19713213D01*
X29417682Y-19875522D01*
X29116579Y-20009200D01*
X28911377Y-20101084D01*
X28831639Y-20138012D01*
X27398461Y-20138012D01*
X28388234Y-19712809D01*
X28458250Y-19687205D01*
X28865330Y-19528363D01*
X29320834Y-19338360D01*
X29738706Y-19152876D01*
X30280663Y-18938030D01*
X30900754Y-18779070D01*
X31594679Y-18690333D01*
X32405706Y-18663887D01*
X32670021Y-18668115D01*
X32949457Y-18688090D01*
X33220192Y-18733144D01*
X33523744Y-18812637D01*
X33901632Y-18935925D01*
X34395373Y-19112369D01*
X34523931Y-19158789D01*
X35003517Y-19326614D01*
X35503836Y-19495257D01*
X35935327Y-19634360D01*
X36321065Y-19766657D01*
X37004720Y-20075536D01*
X37112669Y-20142235D01*
X37663923Y-20482843D01*
X38346693Y-21016091D01*
X38791848Y-21421323D01*
X39169475Y-21836719D01*
X39398371Y-22192292D01*
X39475373Y-22483928D01*
X39480634Y-22602297D01*
X39525501Y-22686692D01*
X39653244Y-22719617D01*
X39907078Y-22725225D01*
X40041675Y-22719913D01*
X40357583Y-22674721D01*
X40605578Y-22598432D01*
X40653875Y-22569966D01*
X40843172Y-22421215D01*
X41106592Y-22183114D01*
X41416018Y-21881742D01*
X41743330Y-21543180D01*
X41795058Y-21488142D01*
X42159365Y-21109996D01*
X42451637Y-20830814D01*
X42704749Y-20623331D01*
X42951577Y-20460283D01*
X43224996Y-20314406D01*
X43446710Y-20213135D01*
X43998874Y-20027117D01*
X44595187Y-19922102D01*
X45256566Y-19898079D01*
X46003927Y-19955037D01*
X46858188Y-20092963D01*
X47840266Y-20311846D01*
X47855276Y-20315550D01*
X48311189Y-20432768D01*
X48853430Y-20579236D01*
X49440290Y-20743000D01*
X50030060Y-20912108D01*
X50581034Y-21074605D01*
X51051503Y-21218541D01*
X51399758Y-21331960D01*
X51429735Y-21405559D01*
X51396032Y-21532856D01*
X51379385Y-21595733D01*
X51253313Y-21877315D01*
G37*
%TD*%
M02*
