%TF.GenerationSoftware,KiCad,Pcbnew,(6.0.0)*%
%TF.CreationDate,2022-02-17T12:00:39-08:00*%
%TF.ProjectId,LedPracticePanel,4c656450-7261-4637-9469-636550616e65,0*%
%TF.SameCoordinates,Original*%
%TF.FileFunction,Copper,L1,Top*%
%TF.FilePolarity,Positive*%
%FSLAX46Y46*%
G04 Gerber Fmt 4.6, Leading zero omitted, Abs format (unit mm)*
G04 Created by KiCad (PCBNEW (6.0.0)) date 2022-02-17 12:00:39*
%MOMM*%
%LPD*%
G01*
G04 APERTURE LIST*
%TA.AperFunction,ComponentPad*%
%ADD10O,7.000000X5.500000*%
%TD*%
G04 APERTURE END LIST*
%TO.C,G\u002A\u002A\u002A*%
G36*
X38236298Y-27152169D02*
G01*
X38309203Y-27311274D01*
X38283580Y-27544546D01*
X38166522Y-27825883D01*
X37965121Y-28129180D01*
X37697927Y-28417781D01*
X37483179Y-28579636D01*
X37318086Y-28603028D01*
X37185600Y-28515733D01*
X37089898Y-28321741D01*
X37159375Y-28100396D01*
X37303906Y-27933592D01*
X37490846Y-27717248D01*
X37664373Y-27452452D01*
X37686627Y-27410833D01*
X37832572Y-27188726D01*
X37989346Y-27099483D01*
X38057774Y-27093333D01*
X38236298Y-27152169D01*
G37*
G36*
X27361063Y-26789292D02*
G01*
X27531724Y-26939353D01*
X27584104Y-27021174D01*
X27737477Y-27264984D01*
X27930753Y-27524500D01*
X27967429Y-27568651D01*
X28139714Y-27834602D01*
X28179272Y-28054989D01*
X28087570Y-28206668D01*
X27923416Y-28262681D01*
X27772442Y-28253286D01*
X27632706Y-28165934D01*
X27463030Y-27970861D01*
X27396312Y-27881681D01*
X27188448Y-27547809D01*
X27056876Y-27231314D01*
X27015086Y-26972306D01*
X27047605Y-26844827D01*
X27183895Y-26752592D01*
X27361063Y-26789292D01*
G37*
G36*
X27708899Y-42780815D02*
G01*
X27662272Y-42730100D01*
X28386218Y-42730100D01*
X28410284Y-42855882D01*
X28461333Y-42959900D01*
X28514818Y-42941006D01*
X28575215Y-42787885D01*
X28646997Y-42489218D01*
X28734043Y-42037000D01*
X28808795Y-41589913D01*
X28851179Y-41266102D01*
X28862652Y-41073322D01*
X28844668Y-41019329D01*
X28798684Y-41111880D01*
X28726154Y-41358730D01*
X28658617Y-41635048D01*
X28570555Y-42002677D01*
X28491238Y-42310595D01*
X28430974Y-42520052D01*
X28405066Y-42588305D01*
X28386218Y-42730100D01*
X27662272Y-42730100D01*
X27428626Y-42475968D01*
X27257012Y-42319838D01*
X28093488Y-42319838D01*
X28132858Y-42404012D01*
X28200110Y-42448324D01*
X28263660Y-42396313D01*
X28331241Y-42229664D01*
X28410586Y-41930063D01*
X28495703Y-41544631D01*
X28566422Y-41125599D01*
X28605599Y-40713623D01*
X28611814Y-40352156D01*
X28583645Y-40084647D01*
X28546780Y-39982603D01*
X28504817Y-40007178D01*
X28454016Y-40178397D01*
X28400178Y-40474205D01*
X28379741Y-40617603D01*
X28317980Y-41026786D01*
X28244224Y-41437848D01*
X28172563Y-41773495D01*
X28159645Y-41825069D01*
X28094220Y-42131642D01*
X28093488Y-42319838D01*
X27257012Y-42319838D01*
X27058141Y-42138910D01*
X26690144Y-41832330D01*
X27671890Y-41832330D01*
X27702322Y-41970450D01*
X27704697Y-41973500D01*
X27802939Y-42061336D01*
X27882164Y-42039210D01*
X27955569Y-41889353D01*
X28036355Y-41594001D01*
X28058950Y-41496673D01*
X28159189Y-40980509D01*
X28226341Y-40476264D01*
X28258632Y-40017738D01*
X28254289Y-39638730D01*
X28213441Y-39384863D01*
X29125333Y-39384863D01*
X29147936Y-39690004D01*
X29206905Y-40037608D01*
X29288984Y-40371671D01*
X29380916Y-40636190D01*
X29450250Y-40757438D01*
X29586390Y-40863877D01*
X29833798Y-41015803D01*
X30149898Y-41187958D01*
X30321137Y-41274088D01*
X31051275Y-41630966D01*
X32301779Y-41640253D01*
X33552284Y-41649541D01*
X34270075Y-41337790D01*
X34508213Y-41224969D01*
X35563235Y-41224969D01*
X35570474Y-41495753D01*
X35609696Y-41926629D01*
X35647035Y-42250888D01*
X35702829Y-42684046D01*
X35749294Y-42967267D01*
X35792247Y-43119264D01*
X35837505Y-43158756D01*
X35890889Y-43104457D01*
X35904962Y-43080609D01*
X35934177Y-42881287D01*
X35879720Y-42540803D01*
X35856935Y-42448987D01*
X35784586Y-42111820D01*
X35737739Y-41779765D01*
X35728037Y-41617045D01*
X35707649Y-41365828D01*
X35658803Y-41174944D01*
X35644667Y-41148000D01*
X35587968Y-41110358D01*
X35563235Y-41224969D01*
X34508213Y-41224969D01*
X34601530Y-41180759D01*
X34879891Y-41024895D01*
X35062450Y-40895131D01*
X35085622Y-40869846D01*
X35833681Y-40869846D01*
X35860833Y-41350264D01*
X35937298Y-41930914D01*
X35998238Y-42275789D01*
X36057135Y-42546211D01*
X36109172Y-42674138D01*
X36168061Y-42685156D01*
X36202436Y-42656789D01*
X36250920Y-42573988D01*
X36268012Y-42433331D01*
X36253287Y-42201306D01*
X36206323Y-41844401D01*
X36190847Y-41740667D01*
X36135853Y-41331827D01*
X36093651Y-40932098D01*
X36070925Y-40608890D01*
X36242258Y-40608890D01*
X36279948Y-41158909D01*
X36325541Y-41529000D01*
X36386171Y-41934099D01*
X36435585Y-42194038D01*
X36483516Y-42331688D01*
X36539699Y-42369920D01*
X36613867Y-42331606D01*
X36652843Y-42298080D01*
X36726032Y-42213320D01*
X36757715Y-42101473D01*
X36750302Y-41918958D01*
X36706205Y-41622191D01*
X36694181Y-41551064D01*
X36641037Y-41164838D01*
X36595156Y-40698251D01*
X36564993Y-40240268D01*
X36561506Y-40155167D01*
X36547019Y-39791875D01*
X36541066Y-39713370D01*
X36745717Y-39713370D01*
X36749912Y-40115802D01*
X36767209Y-40542646D01*
X36795783Y-40964488D01*
X36833807Y-41351917D01*
X36879457Y-41675519D01*
X36930908Y-41905883D01*
X36986334Y-42013595D01*
X37019989Y-42007878D01*
X37053115Y-41877018D01*
X37054994Y-41586466D01*
X37025696Y-41142944D01*
X37008836Y-40960446D01*
X36969018Y-40498750D01*
X36937259Y-40028233D01*
X36917656Y-39615532D01*
X36914181Y-39447141D01*
X37102192Y-39447141D01*
X37112974Y-39889981D01*
X37134933Y-40364449D01*
X37167131Y-40836283D01*
X37208629Y-41271223D01*
X37220817Y-41373963D01*
X37277692Y-41652643D01*
X37350790Y-41768605D01*
X37428815Y-41726213D01*
X37500474Y-41529830D01*
X37547641Y-41247691D01*
X37563603Y-40829686D01*
X37534833Y-40298709D01*
X37465934Y-39703778D01*
X37361504Y-39093909D01*
X37332344Y-38953900D01*
X37271310Y-38701457D01*
X37222700Y-38594108D01*
X37172865Y-38609635D01*
X37146283Y-38651004D01*
X37117908Y-38793391D01*
X37103524Y-39070191D01*
X37102192Y-39447141D01*
X36914181Y-39447141D01*
X36913370Y-39407850D01*
X36904727Y-39094380D01*
X36879478Y-38940724D01*
X36836024Y-38938028D01*
X36830000Y-38946667D01*
X36783936Y-39099390D01*
X36756450Y-39364762D01*
X36745717Y-39713370D01*
X36541066Y-39713370D01*
X36530478Y-39573739D01*
X36504801Y-39476657D01*
X36462906Y-39476526D01*
X36397714Y-39549242D01*
X36387382Y-39562500D01*
X36296833Y-39783396D01*
X36248172Y-40141289D01*
X36242258Y-40608890D01*
X36070925Y-40608890D01*
X36070826Y-40607484D01*
X36068599Y-40515328D01*
X36065356Y-40270553D01*
X36047072Y-40172093D01*
X35999527Y-40196932D01*
X35930109Y-40291188D01*
X35856540Y-40510031D01*
X35833681Y-40869846D01*
X35085622Y-40869846D01*
X35101710Y-40852291D01*
X35161787Y-40708341D01*
X35241177Y-40452290D01*
X35326042Y-40138096D01*
X35402549Y-39819715D01*
X35456861Y-39551104D01*
X35475333Y-39395212D01*
X35419441Y-39423578D01*
X35272425Y-39543801D01*
X35065270Y-39730423D01*
X35050469Y-39744239D01*
X34769594Y-39980422D01*
X34472421Y-40189501D01*
X34267302Y-40304299D01*
X33839518Y-40428181D01*
X33344341Y-40464845D01*
X32860408Y-40412798D01*
X32601978Y-40335913D01*
X32344381Y-40254209D01*
X32129535Y-40256311D01*
X31948511Y-40305675D01*
X31375505Y-40409135D01*
X30794009Y-40356741D01*
X30234197Y-40157500D01*
X29726244Y-39820418D01*
X29467011Y-39564992D01*
X29280307Y-39358590D01*
X29177587Y-39269030D01*
X29134160Y-39283296D01*
X29125333Y-39384863D01*
X28213441Y-39384863D01*
X28211539Y-39373042D01*
X28174580Y-39292353D01*
X28110033Y-39213095D01*
X28067068Y-39215683D01*
X28036230Y-39324478D01*
X28008063Y-39563843D01*
X27989469Y-39769294D01*
X27940475Y-40188940D01*
X27865750Y-40672735D01*
X27780864Y-41120608D01*
X27774950Y-41148000D01*
X27695698Y-41562890D01*
X27671890Y-41832330D01*
X26690144Y-41832330D01*
X26585333Y-41745012D01*
X26474610Y-41644883D01*
X27320075Y-41644883D01*
X27364130Y-41726420D01*
X27433157Y-41684544D01*
X27480272Y-41573068D01*
X27546243Y-41339836D01*
X27618813Y-41029542D01*
X27638360Y-40936333D01*
X27713381Y-40513719D01*
X27773496Y-40067658D01*
X27816457Y-39631735D01*
X27840015Y-39239534D01*
X27841922Y-38924641D01*
X27821478Y-38735000D01*
X28448000Y-38735000D01*
X28490333Y-38777333D01*
X28532667Y-38735000D01*
X28490333Y-38692667D01*
X28448000Y-38735000D01*
X27821478Y-38735000D01*
X27819930Y-38720639D01*
X27790578Y-38662639D01*
X27749165Y-38659950D01*
X27713155Y-38722258D01*
X27678653Y-38870930D01*
X27641765Y-39127333D01*
X27598596Y-39512833D01*
X27553597Y-39962667D01*
X27503862Y-40368152D01*
X27434166Y-40813113D01*
X27387829Y-41060695D01*
X27327731Y-41419606D01*
X27320075Y-41644883D01*
X26474610Y-41644883D01*
X26122740Y-41326680D01*
X25740534Y-40881366D01*
X25422594Y-40379835D01*
X25365713Y-40256082D01*
X26080289Y-40256082D01*
X26103100Y-40491771D01*
X26140440Y-40590218D01*
X26204869Y-40575274D01*
X26263807Y-40427876D01*
X26471436Y-40427876D01*
X26474799Y-40759379D01*
X26525340Y-40987349D01*
X26585333Y-41063241D01*
X26647397Y-41078338D01*
X26692262Y-41014751D01*
X26703287Y-40961340D01*
X26914746Y-40961340D01*
X26924756Y-41246485D01*
X26967879Y-41414065D01*
X26980444Y-41430222D01*
X27052150Y-41476014D01*
X27111034Y-41438233D01*
X27164699Y-41296088D01*
X27220743Y-41028792D01*
X27286769Y-40615554D01*
X27292572Y-40576500D01*
X27378631Y-39952929D01*
X27442859Y-39399080D01*
X27483895Y-38934375D01*
X27500381Y-38578235D01*
X27490957Y-38350081D01*
X27454263Y-38269334D01*
X27454089Y-38269333D01*
X27370988Y-38348549D01*
X27282824Y-38564967D01*
X27194369Y-38886740D01*
X27110395Y-39282024D01*
X27035673Y-39718971D01*
X26974977Y-40165737D01*
X26933077Y-40590475D01*
X26914746Y-40961340D01*
X26703287Y-40961340D01*
X26727065Y-40846139D01*
X26758941Y-40546159D01*
X26773711Y-40367876D01*
X26823239Y-39918223D01*
X26898220Y-39435929D01*
X26983893Y-39013728D01*
X26999023Y-38952395D01*
X27085245Y-38622048D01*
X27162195Y-38338857D01*
X27215014Y-38157313D01*
X27219898Y-38142333D01*
X27245573Y-38041811D01*
X27201333Y-38063135D01*
X27101601Y-38171421D01*
X26949545Y-38409090D01*
X26808196Y-38747520D01*
X26683631Y-39152663D01*
X26581931Y-39590469D01*
X26509173Y-40026890D01*
X26471436Y-40427876D01*
X26263807Y-40427876D01*
X26263941Y-40427540D01*
X26307150Y-40183482D01*
X26322894Y-39956867D01*
X26373061Y-39579336D01*
X26495208Y-39112242D01*
X26673149Y-38610590D01*
X26815609Y-38282358D01*
X26931220Y-38022473D01*
X26974663Y-37865616D01*
X26952616Y-37764958D01*
X26898715Y-37699763D01*
X26817724Y-37641684D01*
X26743757Y-37671385D01*
X26648756Y-37813206D01*
X26549343Y-38002816D01*
X26396373Y-38349838D01*
X26255978Y-38741577D01*
X26203628Y-38920699D01*
X26144038Y-39222726D01*
X26102474Y-39576203D01*
X26080652Y-39935774D01*
X26080289Y-40256082D01*
X25365713Y-40256082D01*
X25152798Y-39792849D01*
X24940839Y-39167356D01*
X25665405Y-39167356D01*
X25677289Y-39618947D01*
X25759833Y-39934076D01*
X25815281Y-40042947D01*
X25852049Y-40055929D01*
X25879409Y-39951617D01*
X25906631Y-39708604D01*
X25919838Y-39564659D01*
X25968943Y-39186248D01*
X26042225Y-38807754D01*
X26111297Y-38552098D01*
X26239067Y-38223384D01*
X26393771Y-37893475D01*
X26444439Y-37800005D01*
X26640296Y-37457676D01*
X26441223Y-37307515D01*
X26318522Y-37224181D01*
X26238857Y-37228063D01*
X26162232Y-37343465D01*
X26078131Y-37528143D01*
X25870837Y-38084079D01*
X25731591Y-38643108D01*
X25665405Y-39167356D01*
X24940839Y-39167356D01*
X24915023Y-39091174D01*
X24721954Y-38365878D01*
X24673173Y-38197987D01*
X25345324Y-38197987D01*
X25355336Y-38642813D01*
X25359485Y-38670410D01*
X25423191Y-39073667D01*
X25578350Y-38456097D01*
X25688022Y-38078832D01*
X25821812Y-37701043D01*
X25940821Y-37425778D01*
X26056759Y-37186041D01*
X26058419Y-37180603D01*
X27163610Y-37180603D01*
X27621347Y-37661468D01*
X27866325Y-37928763D01*
X28083814Y-38183419D01*
X28230039Y-38373997D01*
X28238521Y-38386728D01*
X28355717Y-38537726D01*
X28414359Y-38539630D01*
X28414664Y-38389694D01*
X28356847Y-38085176D01*
X28285217Y-37791423D01*
X28169602Y-37370592D01*
X28026461Y-36889938D01*
X27933405Y-36598842D01*
X29005964Y-36598842D01*
X29015523Y-37000102D01*
X29038484Y-37311434D01*
X29078660Y-37572492D01*
X29139865Y-37822928D01*
X29191182Y-37993876D01*
X29445446Y-38601336D01*
X29783729Y-39103410D01*
X30188270Y-39488973D01*
X30641305Y-39746894D01*
X31125073Y-39866046D01*
X31621812Y-39835302D01*
X31954078Y-39724836D01*
X32158336Y-39640935D01*
X32307014Y-39622836D01*
X32473761Y-39675143D01*
X32666927Y-39769389D01*
X33160083Y-39934225D01*
X33654454Y-39937906D01*
X33991273Y-39842123D01*
X34364911Y-39620449D01*
X34743202Y-39284308D01*
X34989797Y-38989000D01*
X36068000Y-38989000D01*
X36110333Y-39031333D01*
X36152667Y-38989000D01*
X36110333Y-38946667D01*
X36068000Y-38989000D01*
X34989797Y-38989000D01*
X35080140Y-38880810D01*
X35185823Y-38703968D01*
X36179248Y-38703968D01*
X36196508Y-38748465D01*
X36267564Y-38713746D01*
X36410187Y-38587936D01*
X36572835Y-38427522D01*
X37409864Y-38427522D01*
X37436852Y-38617068D01*
X37478766Y-38798500D01*
X37558484Y-39168076D01*
X37629409Y-39612559D01*
X37686514Y-40083605D01*
X37724775Y-40532867D01*
X37739164Y-40911999D01*
X37725221Y-41169167D01*
X37710165Y-41402216D01*
X37764542Y-41481582D01*
X37889438Y-41408509D01*
X37913733Y-41385067D01*
X37969826Y-41240934D01*
X38003012Y-40972513D01*
X38013105Y-40623316D01*
X37999918Y-40236858D01*
X37963265Y-39856651D01*
X37921363Y-39607001D01*
X37842804Y-39298721D01*
X37738891Y-38978389D01*
X37626023Y-38687369D01*
X37520597Y-38467026D01*
X37439013Y-38358725D01*
X37424643Y-38354000D01*
X37409864Y-38427522D01*
X36572835Y-38427522D01*
X36642150Y-38359159D01*
X36784831Y-38214850D01*
X37642355Y-38214850D01*
X37686784Y-38369040D01*
X37792203Y-38617651D01*
X38062256Y-39425398D01*
X38180692Y-40288715D01*
X38187359Y-40538334D01*
X38192003Y-40833466D01*
X38207664Y-40984500D01*
X38242286Y-41016640D01*
X38303813Y-40955093D01*
X38314359Y-40941318D01*
X38389128Y-40756383D01*
X38429477Y-40435469D01*
X38438667Y-40082403D01*
X38398956Y-39506680D01*
X38289552Y-38927121D01*
X38125048Y-38407684D01*
X37992705Y-38127671D01*
X37896260Y-38003073D01*
X37790785Y-38018188D01*
X37739733Y-38052655D01*
X37661421Y-38124638D01*
X37642355Y-38214850D01*
X36784831Y-38214850D01*
X36827999Y-38171189D01*
X37101993Y-37893116D01*
X38139543Y-37893116D01*
X38185420Y-38070848D01*
X38293189Y-38356936D01*
X38313855Y-38408691D01*
X38472990Y-38894811D01*
X38563167Y-39414163D01*
X38589213Y-39734743D01*
X38622411Y-40117349D01*
X38667482Y-40336289D01*
X38722595Y-40390212D01*
X38785917Y-40277767D01*
X38855616Y-39997601D01*
X38866789Y-39939518D01*
X38895337Y-39531412D01*
X38858022Y-39031158D01*
X38761989Y-38499395D01*
X38650013Y-38099037D01*
X38531678Y-37792830D01*
X38423633Y-37639749D01*
X38310192Y-37625590D01*
X38209541Y-37700173D01*
X38149578Y-37783103D01*
X38139543Y-37893116D01*
X37101993Y-37893116D01*
X37519112Y-37469786D01*
X37495932Y-37382860D01*
X38658922Y-37382860D01*
X38680771Y-37581518D01*
X38771176Y-37902106D01*
X38818296Y-38045561D01*
X38922953Y-38402115D01*
X38998966Y-38746479D01*
X39031111Y-39008658D01*
X39031333Y-39025095D01*
X39053358Y-39259874D01*
X39108012Y-39362483D01*
X39178168Y-39319739D01*
X39231969Y-39179500D01*
X39266577Y-38910098D01*
X39256478Y-38573721D01*
X39209997Y-38209409D01*
X39135458Y-37856198D01*
X39041183Y-37553126D01*
X38935498Y-37339231D01*
X38826726Y-37253551D01*
X38821261Y-37253333D01*
X38705722Y-37281631D01*
X38658922Y-37382860D01*
X37495932Y-37382860D01*
X37394295Y-37001726D01*
X37313787Y-36693008D01*
X37243749Y-36412918D01*
X37214952Y-36290843D01*
X37165580Y-36131708D01*
X37122448Y-36086030D01*
X37121855Y-36086589D01*
X37072732Y-36184259D01*
X36980635Y-36407559D01*
X36858213Y-36722184D01*
X36718114Y-37093827D01*
X36572990Y-37488182D01*
X36435488Y-37870943D01*
X36318259Y-38207804D01*
X36233952Y-38464458D01*
X36198011Y-38592129D01*
X36179248Y-38703968D01*
X35185823Y-38703968D01*
X35316882Y-38484663D01*
X35546066Y-37921584D01*
X35698570Y-37341453D01*
X35781406Y-36702089D01*
X35801586Y-35961308D01*
X35793371Y-35618303D01*
X35791047Y-35569109D01*
X37338591Y-35569109D01*
X37339248Y-35894160D01*
X37406796Y-36313549D01*
X37514874Y-36754306D01*
X37613610Y-37092925D01*
X37690888Y-37286044D01*
X37756934Y-37354505D01*
X37801951Y-37339424D01*
X37851960Y-37254486D01*
X37849322Y-37099499D01*
X37791462Y-36836289D01*
X37760192Y-36720552D01*
X37665424Y-36322612D01*
X37583059Y-35881721D01*
X37549006Y-35641809D01*
X37512151Y-35358444D01*
X37480657Y-35223417D01*
X37445615Y-35216336D01*
X37402308Y-35306000D01*
X37338591Y-35569109D01*
X35791047Y-35569109D01*
X35768866Y-35099486D01*
X35730640Y-34683996D01*
X35668056Y-34305857D01*
X35570478Y-33899092D01*
X35445050Y-33457729D01*
X35307703Y-32972818D01*
X35217517Y-32590815D01*
X35165185Y-32254987D01*
X35141399Y-31908601D01*
X35138522Y-31707667D01*
X35568850Y-31707667D01*
X35586600Y-31914506D01*
X35641063Y-32230559D01*
X35724554Y-32626771D01*
X35829386Y-33074087D01*
X35947872Y-33543453D01*
X36072326Y-34005816D01*
X36195062Y-34432120D01*
X36308393Y-34793313D01*
X36404632Y-35060339D01*
X36476094Y-35204144D01*
X36498294Y-35220918D01*
X36552833Y-35149138D01*
X36564785Y-35119225D01*
X37694565Y-35119225D01*
X37732563Y-35638767D01*
X37821483Y-36207434D01*
X37897283Y-36552150D01*
X37985507Y-36875555D01*
X38058211Y-37049622D01*
X38124047Y-37092611D01*
X38147268Y-37079904D01*
X38157182Y-37061620D01*
X39104295Y-37061620D01*
X39145205Y-37298933D01*
X39248253Y-37634333D01*
X39347487Y-37926754D01*
X39422857Y-38151358D01*
X39459858Y-38264873D01*
X39461124Y-38269333D01*
X39490542Y-38228978D01*
X39548262Y-38074412D01*
X39557126Y-38047305D01*
X39595944Y-37818162D01*
X39564074Y-37540622D01*
X39503784Y-37306472D01*
X39404873Y-37008816D01*
X39317661Y-36862348D01*
X39226287Y-36851181D01*
X39133806Y-36935833D01*
X39104295Y-37061620D01*
X38157182Y-37061620D01*
X38196451Y-36989202D01*
X38195743Y-36815347D01*
X38144286Y-36521870D01*
X38132894Y-36468754D01*
X38078210Y-36153459D01*
X38024494Y-35734410D01*
X37979510Y-35277051D01*
X37959826Y-35009667D01*
X37933647Y-34606261D01*
X37911922Y-34352027D01*
X37889005Y-34227102D01*
X37859250Y-34211627D01*
X37817012Y-34285739D01*
X37779313Y-34374667D01*
X37709484Y-34685596D01*
X37694565Y-35119225D01*
X36564785Y-35119225D01*
X36623675Y-34971839D01*
X36636625Y-34931226D01*
X36681410Y-34703099D01*
X36635796Y-34509080D01*
X36553918Y-34359726D01*
X36269197Y-33808704D01*
X36011775Y-33149334D01*
X35804215Y-32442534D01*
X35741386Y-32165886D01*
X35665723Y-31817223D01*
X35614469Y-31625428D01*
X35583821Y-31580405D01*
X35569977Y-31672055D01*
X35568850Y-31707667D01*
X35138522Y-31707667D01*
X35136667Y-31578063D01*
X35143111Y-31289010D01*
X35820241Y-31289010D01*
X35858128Y-31736829D01*
X35948785Y-32244727D01*
X36086705Y-32781227D01*
X36266384Y-33314850D01*
X36462221Y-33772823D01*
X36617671Y-34081774D01*
X36724045Y-34252568D01*
X36795889Y-34303975D01*
X36842845Y-34264039D01*
X36853014Y-34168691D01*
X38106242Y-34168691D01*
X38120006Y-34593879D01*
X38124864Y-34708549D01*
X38159273Y-35282039D01*
X38208258Y-35794571D01*
X38268170Y-36224361D01*
X38335360Y-36549628D01*
X38406182Y-36748587D01*
X38475141Y-36800203D01*
X38540534Y-36702645D01*
X38536952Y-36650083D01*
X38525609Y-36533223D01*
X38510563Y-36274407D01*
X38493068Y-35900942D01*
X38474382Y-35440134D01*
X38455760Y-34919287D01*
X38451752Y-34798000D01*
X38425849Y-34002059D01*
X38608558Y-34002059D01*
X38614175Y-34739240D01*
X38631152Y-35362275D01*
X38658642Y-35860640D01*
X38695796Y-36223815D01*
X38741767Y-36441277D01*
X38795707Y-36502504D01*
X38808104Y-36494068D01*
X39473964Y-36494068D01*
X39493213Y-36672025D01*
X39572543Y-36935680D01*
X39664547Y-37207293D01*
X39737469Y-37425178D01*
X39764350Y-37507333D01*
X39808287Y-37587648D01*
X39870579Y-37516740D01*
X39881868Y-37496946D01*
X39908411Y-37311117D01*
X39861695Y-36995244D01*
X39830326Y-36865487D01*
X39745329Y-36554445D01*
X39682175Y-36383108D01*
X39624415Y-36326231D01*
X39555602Y-36358572D01*
X39521142Y-36390991D01*
X39473964Y-36494068D01*
X38808104Y-36494068D01*
X38809235Y-36493298D01*
X38855813Y-36353959D01*
X38870355Y-36082373D01*
X38860112Y-35832973D01*
X38832471Y-35261732D01*
X38821633Y-34615818D01*
X38821954Y-34577150D01*
X38978853Y-34577150D01*
X38987756Y-35017366D01*
X39006788Y-35411528D01*
X39034885Y-35730252D01*
X39070984Y-35944156D01*
X39114022Y-36023858D01*
X39123008Y-36021335D01*
X39128563Y-36012808D01*
X39772943Y-36012808D01*
X39858632Y-36333447D01*
X39881143Y-36394440D01*
X39975972Y-36676491D01*
X40037415Y-36921337D01*
X40050026Y-37021408D01*
X40059826Y-37153019D01*
X40108251Y-37134187D01*
X40175203Y-37049144D01*
X40257590Y-36816861D01*
X40246964Y-36668144D01*
X40182228Y-36456447D01*
X40078692Y-36180398D01*
X40031873Y-36068000D01*
X39926896Y-35848895D01*
X39854666Y-35770975D01*
X39795716Y-35814342D01*
X39791229Y-35822032D01*
X39772943Y-36012808D01*
X39128563Y-36012808D01*
X39188291Y-35921131D01*
X39277956Y-35711822D01*
X39340426Y-35535196D01*
X39394811Y-35329307D01*
X39413919Y-35209952D01*
X39979539Y-35209952D01*
X39996745Y-35391964D01*
X40073179Y-35660161D01*
X40167162Y-35897872D01*
X40282518Y-36172024D01*
X40362300Y-36394281D01*
X40387296Y-36501920D01*
X40406032Y-36568490D01*
X40471813Y-36491333D01*
X40515597Y-36320901D01*
X40502418Y-36110333D01*
X40432669Y-35888633D01*
X40312240Y-35601187D01*
X40230278Y-35433000D01*
X40105585Y-35203788D01*
X40033404Y-35111384D01*
X39994897Y-35139029D01*
X39979539Y-35209952D01*
X39413919Y-35209952D01*
X39436200Y-35070779D01*
X39466644Y-34733470D01*
X39482336Y-34411505D01*
X40062981Y-34411505D01*
X40094350Y-34666071D01*
X40237664Y-35036021D01*
X40357697Y-35277093D01*
X40529848Y-35576647D01*
X40651123Y-35732727D01*
X40714041Y-35744000D01*
X40711120Y-35609131D01*
X40634881Y-35326789D01*
X40634781Y-35326482D01*
X40533764Y-35062446D01*
X40391625Y-34745553D01*
X40312559Y-34586333D01*
X40187975Y-34351855D01*
X40119119Y-34253369D01*
X40084786Y-34276023D01*
X40063771Y-34404962D01*
X40062981Y-34411505D01*
X39482336Y-34411505D01*
X39488198Y-34291237D01*
X39502914Y-33717938D01*
X39506261Y-33508621D01*
X40039624Y-33508621D01*
X40047257Y-33615423D01*
X40113628Y-33806494D01*
X40234023Y-34058975D01*
X40347059Y-34258575D01*
X40510169Y-34545802D01*
X40640265Y-34805181D01*
X40704697Y-34967333D01*
X40748722Y-35107061D01*
X40774054Y-35090352D01*
X40790270Y-35000634D01*
X40771866Y-34830362D01*
X40695884Y-34571143D01*
X40604716Y-34340152D01*
X40459900Y-34040619D01*
X40309673Y-33772976D01*
X40219417Y-33639266D01*
X40095441Y-33508948D01*
X40039624Y-33508621D01*
X39506261Y-33508621D01*
X39507974Y-33401475D01*
X39517737Y-32871101D01*
X40050378Y-32871101D01*
X40105113Y-33090788D01*
X40255415Y-33367830D01*
X40337423Y-33483240D01*
X40512681Y-33731232D01*
X40647828Y-33955431D01*
X40694145Y-34055473D01*
X40745800Y-34190140D01*
X40771855Y-34167968D01*
X40789754Y-34066241D01*
X40772006Y-33882789D01*
X40693556Y-33629999D01*
X40644584Y-33515908D01*
X40488871Y-33227865D01*
X40312329Y-32958281D01*
X40261929Y-32893000D01*
X40053423Y-32639000D01*
X40050378Y-32871101D01*
X39517737Y-32871101D01*
X39517762Y-32869721D01*
X39531265Y-32384716D01*
X39542670Y-32093993D01*
X40050026Y-32093993D01*
X40095250Y-32364860D01*
X40260452Y-32598822D01*
X40295181Y-32633106D01*
X40488892Y-32859085D01*
X40637275Y-33100155D01*
X40650157Y-33129187D01*
X40729227Y-33274740D01*
X40785294Y-33298551D01*
X40790749Y-33287420D01*
X40773268Y-33165111D01*
X40695345Y-32940499D01*
X40573793Y-32661964D01*
X40572386Y-32659012D01*
X40423668Y-32363170D01*
X40282640Y-32109205D01*
X40186639Y-31961667D01*
X40097996Y-31861461D01*
X40060154Y-31882890D01*
X40050508Y-32047850D01*
X40050026Y-32093993D01*
X39542670Y-32093993D01*
X39547292Y-31976189D01*
X39564652Y-31673871D01*
X39582153Y-31507492D01*
X39584259Y-31497862D01*
X39623731Y-31340592D01*
X40132000Y-31340592D01*
X40168116Y-31483083D01*
X40260241Y-31697055D01*
X40384035Y-31938393D01*
X40515162Y-32162981D01*
X40629284Y-32326701D01*
X40702062Y-32385438D01*
X40707135Y-32383128D01*
X40693624Y-32300473D01*
X40632448Y-32108686D01*
X40571055Y-31940211D01*
X40450739Y-31655305D01*
X40325752Y-31407079D01*
X40271086Y-31318229D01*
X40132000Y-31119655D01*
X40132000Y-31340592D01*
X39623731Y-31340592D01*
X39637155Y-31287106D01*
X39455469Y-31518083D01*
X39333171Y-31699044D01*
X39238925Y-31909839D01*
X39164932Y-32182176D01*
X39103393Y-32547764D01*
X39046508Y-33038311D01*
X39023556Y-33274000D01*
X38995689Y-33676084D01*
X38981143Y-34120262D01*
X38978853Y-34577150D01*
X38821954Y-34577150D01*
X38827109Y-33956390D01*
X38848405Y-33344609D01*
X38884106Y-32850667D01*
X38948546Y-32215667D01*
X38778831Y-32469667D01*
X38712504Y-32585446D01*
X38665890Y-32721761D01*
X38635589Y-32909213D01*
X38618198Y-33178403D01*
X38610319Y-33559934D01*
X38608558Y-34002059D01*
X38425849Y-34002059D01*
X38395267Y-33062333D01*
X38236987Y-33353883D01*
X38170446Y-33497004D01*
X38128469Y-33656409D01*
X38108065Y-33868253D01*
X38106242Y-34168691D01*
X36853014Y-34168691D01*
X36862259Y-34082012D01*
X36758755Y-33807412D01*
X36757778Y-33805491D01*
X36524379Y-33239262D01*
X36328917Y-32545540D01*
X36181763Y-31763907D01*
X36140292Y-31448838D01*
X36091472Y-31053385D01*
X36051369Y-30804083D01*
X36013511Y-30678435D01*
X35971427Y-30653942D01*
X35924789Y-30699518D01*
X35840626Y-30932747D01*
X35820241Y-31289010D01*
X35143111Y-31289010D01*
X35145920Y-31163021D01*
X35170671Y-30760833D01*
X35197894Y-30512916D01*
X36244871Y-30512916D01*
X36255079Y-30805693D01*
X36270362Y-31042037D01*
X36315787Y-31477950D01*
X36389469Y-31937152D01*
X36484207Y-32395305D01*
X36592801Y-32828068D01*
X36708052Y-33211103D01*
X36822759Y-33520070D01*
X36929723Y-33730631D01*
X37021743Y-33818446D01*
X37080882Y-33782000D01*
X37090703Y-33628581D01*
X37033435Y-33341312D01*
X36913049Y-32940042D01*
X36911478Y-32935333D01*
X36759598Y-32404595D01*
X36634809Y-31821755D01*
X36545719Y-31241354D01*
X36500938Y-30717932D01*
X36504330Y-30356199D01*
X36506919Y-30313493D01*
X36687256Y-30313493D01*
X36687466Y-30732951D01*
X36729073Y-31232072D01*
X36806441Y-31770224D01*
X36913932Y-32306770D01*
X37045908Y-32801077D01*
X37168698Y-33147000D01*
X37252303Y-33312630D01*
X37300832Y-33335665D01*
X37313742Y-33239284D01*
X37290493Y-33046664D01*
X37230542Y-32780986D01*
X37181237Y-32610539D01*
X36928401Y-31533531D01*
X36824720Y-30427245D01*
X36823362Y-30353000D01*
X36816359Y-30057389D01*
X36802359Y-29913616D01*
X36776754Y-29904202D01*
X36734938Y-30011667D01*
X36734082Y-30014333D01*
X36687256Y-30313493D01*
X36506919Y-30313493D01*
X36517979Y-30131016D01*
X36500000Y-30046485D01*
X36434735Y-30074681D01*
X36375292Y-30126073D01*
X36300573Y-30211558D01*
X36258567Y-30327688D01*
X36244871Y-30512916D01*
X35197894Y-30512916D01*
X35206400Y-30435448D01*
X35224691Y-30331891D01*
X35259222Y-30133880D01*
X35263786Y-29951646D01*
X35255990Y-29901034D01*
X35807335Y-29901034D01*
X36115099Y-29666291D01*
X36128677Y-29656926D01*
X36999333Y-29656926D01*
X36999973Y-30258963D01*
X37014912Y-30630925D01*
X37055102Y-31055263D01*
X37114668Y-31500396D01*
X37187735Y-31934742D01*
X37268429Y-32326721D01*
X37350874Y-32644751D01*
X37429197Y-32857251D01*
X37497323Y-32932652D01*
X37566469Y-32866250D01*
X37701331Y-32693192D01*
X37874890Y-32448505D01*
X37905503Y-32403485D01*
X38097019Y-32140351D01*
X38368820Y-31793546D01*
X38687332Y-31404738D01*
X38930295Y-31119655D01*
X39018981Y-31015594D01*
X39080172Y-30945667D01*
X39148386Y-30866537D01*
X40260206Y-30866537D01*
X40331000Y-31081750D01*
X40353939Y-31118795D01*
X40479857Y-31287752D01*
X40538637Y-31302075D01*
X40535049Y-31160437D01*
X40519727Y-31072667D01*
X40464989Y-30795311D01*
X40413949Y-30543500D01*
X40357232Y-30268333D01*
X40287484Y-30589628D01*
X40260206Y-30866537D01*
X39148386Y-30866537D01*
X39638824Y-30297613D01*
X40087124Y-29748172D01*
X40438162Y-29280042D01*
X40705030Y-28875924D01*
X40870344Y-28579965D01*
X40989916Y-28325442D01*
X41038226Y-28132625D01*
X41025242Y-27920288D01*
X40979438Y-27690965D01*
X40968665Y-27648480D01*
X42926000Y-27648480D01*
X42989669Y-27680948D01*
X43156263Y-27634098D01*
X43389161Y-27524535D01*
X43651742Y-27368863D01*
X43847859Y-27230514D01*
X44095097Y-27040143D01*
X44296055Y-26883047D01*
X44402674Y-26797000D01*
X44479140Y-26696482D01*
X44622091Y-26477933D01*
X44702509Y-26348553D01*
X44958000Y-26348553D01*
X45026216Y-26353085D01*
X45199067Y-26296912D01*
X45306141Y-26251853D01*
X45475725Y-26163626D01*
X45609860Y-26051365D01*
X45696877Y-25932807D01*
X45980644Y-25932807D01*
X46001251Y-25992667D01*
X46090014Y-25967778D01*
X46286139Y-25904307D01*
X46424584Y-25857708D01*
X46698197Y-25735259D01*
X46817476Y-25609811D01*
X46820087Y-25593341D01*
X46990000Y-25593341D01*
X47058990Y-25619989D01*
X47213242Y-25614549D01*
X47373674Y-25585748D01*
X47461208Y-25542314D01*
X47461704Y-25541284D01*
X47481555Y-25480981D01*
X47677555Y-25480981D01*
X47947611Y-25371742D01*
X48142294Y-25254791D01*
X48229326Y-25121755D01*
X48478324Y-25121755D01*
X48561855Y-25117216D01*
X48715366Y-25050621D01*
X48889462Y-24899697D01*
X48965335Y-24761703D01*
X49191333Y-24761703D01*
X49245657Y-24770069D01*
X49394205Y-24672929D01*
X49615341Y-24488271D01*
X49887426Y-24234078D01*
X50169854Y-23948286D01*
X50653681Y-23398193D01*
X51064951Y-22846344D01*
X51250754Y-22551401D01*
X51240707Y-22502630D01*
X51107548Y-22510722D01*
X50905329Y-22556657D01*
X50668318Y-22635557D01*
X50471826Y-22757618D01*
X50266425Y-22959821D01*
X50096744Y-23161589D01*
X49905569Y-23421487D01*
X49700331Y-23738136D01*
X49503689Y-24071490D01*
X49338304Y-24381503D01*
X49226835Y-24628129D01*
X49191333Y-24761703D01*
X48965335Y-24761703D01*
X49052831Y-24602568D01*
X49110598Y-24458153D01*
X49253609Y-24139657D01*
X49457635Y-23762577D01*
X49681143Y-23403081D01*
X49704916Y-23368199D01*
X49898704Y-23080903D01*
X50002798Y-22904252D01*
X50027362Y-22812134D01*
X49982559Y-22778437D01*
X49935662Y-22775333D01*
X49734785Y-22850845D01*
X49498723Y-23058763D01*
X49246766Y-23371164D01*
X48998205Y-23760124D01*
X48772331Y-24197718D01*
X48588435Y-24656022D01*
X48546514Y-24786167D01*
X48479272Y-25020898D01*
X48478324Y-25121755D01*
X48229326Y-25121755D01*
X48267999Y-25062639D01*
X48329584Y-24886752D01*
X48584664Y-24179444D01*
X48930079Y-23500819D01*
X48997444Y-23386949D01*
X49141028Y-23142715D01*
X49201092Y-23013595D01*
X49183734Y-22971024D01*
X49095047Y-22986439D01*
X49082111Y-22990180D01*
X48858348Y-23127050D01*
X48610582Y-23396951D01*
X48357980Y-23769176D01*
X48119708Y-24213017D01*
X47914933Y-24697768D01*
X47803680Y-25038324D01*
X47677555Y-25480981D01*
X47481555Y-25480981D01*
X47488462Y-25460001D01*
X47554818Y-25254151D01*
X47648943Y-24960504D01*
X47702105Y-24794175D01*
X47846460Y-24397326D01*
X48019482Y-24001896D01*
X48188826Y-23680343D01*
X48225060Y-23622619D01*
X48375740Y-23390828D01*
X48480273Y-23224298D01*
X48514000Y-23163607D01*
X48441444Y-23159784D01*
X48273094Y-23178685D01*
X48120382Y-23231212D01*
X47975934Y-23361077D01*
X47808510Y-23600349D01*
X47721832Y-23744588D01*
X47575464Y-24022856D01*
X47415909Y-24370398D01*
X47260391Y-24743705D01*
X47126133Y-25099269D01*
X47030356Y-25393582D01*
X46990286Y-25583136D01*
X46990000Y-25593341D01*
X46820087Y-25593341D01*
X46821799Y-25582541D01*
X46856905Y-25385122D01*
X46948695Y-25080155D01*
X47079998Y-24712470D01*
X47233640Y-24326896D01*
X47392451Y-23968265D01*
X47539257Y-23681406D01*
X47569759Y-23629902D01*
X47731174Y-23363142D01*
X47810996Y-23208938D01*
X47817822Y-23136531D01*
X47760249Y-23115161D01*
X47713944Y-23114000D01*
X47609624Y-23178878D01*
X47443723Y-23350799D01*
X47248262Y-23595694D01*
X47204177Y-23656395D01*
X46974669Y-23996806D01*
X46740843Y-24375955D01*
X46516235Y-24767556D01*
X46314377Y-25145327D01*
X46148804Y-25482982D01*
X46033048Y-25754236D01*
X45980644Y-25932807D01*
X45696877Y-25932807D01*
X45735645Y-25879987D01*
X45880181Y-25614408D01*
X46018378Y-25329804D01*
X46233213Y-24905374D01*
X46484279Y-24450600D01*
X46726603Y-24045999D01*
X46792059Y-23944644D01*
X46985203Y-23652377D01*
X47146746Y-23407229D01*
X47250611Y-23248797D01*
X47269363Y-23219833D01*
X47270220Y-23141326D01*
X47124268Y-23115026D01*
X47100040Y-23114895D01*
X47015789Y-23125582D01*
X46931087Y-23168880D01*
X46832555Y-23262644D01*
X46706816Y-23424733D01*
X46540490Y-23673003D01*
X46320198Y-24025310D01*
X46032562Y-24499511D01*
X45910500Y-24702587D01*
X45632144Y-25168901D01*
X45385867Y-25586440D01*
X45184259Y-25933443D01*
X45039915Y-26188150D01*
X44965426Y-26328801D01*
X44958000Y-26348553D01*
X44702509Y-26348553D01*
X44813465Y-26170041D01*
X45035204Y-25801495D01*
X45122210Y-25654000D01*
X45394088Y-25193163D01*
X45683343Y-24707152D01*
X45956523Y-24251934D01*
X46180174Y-23883480D01*
X46192181Y-23863897D01*
X46375124Y-23553335D01*
X46511531Y-23297478D01*
X46584809Y-23129000D01*
X46589842Y-23080730D01*
X46481946Y-23026897D01*
X46351633Y-23075903D01*
X46185882Y-23240425D01*
X45971671Y-23533140D01*
X45720000Y-23927536D01*
X45280105Y-24609122D01*
X44778978Y-25328600D01*
X44253899Y-26035345D01*
X43742150Y-26678731D01*
X43401933Y-27075367D01*
X43185162Y-27322343D01*
X43020094Y-27518979D01*
X42933115Y-27633503D01*
X42926000Y-27648480D01*
X40968665Y-27648480D01*
X40946214Y-27559938D01*
X42066160Y-27559938D01*
X42171419Y-27588733D01*
X42368853Y-27601312D01*
X42377496Y-27601333D01*
X42553282Y-27574269D01*
X42730150Y-27475432D01*
X42949123Y-27278352D01*
X43066422Y-27156833D01*
X43727429Y-26403073D01*
X44412764Y-25523560D01*
X45095876Y-24554048D01*
X45707209Y-23600833D01*
X46056841Y-23029333D01*
X45778292Y-23029333D01*
X45604752Y-23046670D01*
X45484004Y-23124922D01*
X45369834Y-23303451D01*
X45306119Y-23431500D01*
X44929895Y-24111147D01*
X44437077Y-24842782D01*
X43855145Y-25589416D01*
X43211578Y-26314063D01*
X43009478Y-26522772D01*
X42684502Y-26856155D01*
X42409765Y-27147145D01*
X42204040Y-27375100D01*
X42086102Y-27519379D01*
X42066160Y-27559938D01*
X40946214Y-27559938D01*
X40895141Y-27358517D01*
X41402000Y-27358517D01*
X41474819Y-27412814D01*
X41624034Y-27432000D01*
X41741066Y-27402696D01*
X41900940Y-27305284D01*
X42121018Y-27125509D01*
X42418660Y-26849120D01*
X42811228Y-26461864D01*
X42835817Y-26437167D01*
X43579076Y-25633017D01*
X44238077Y-24805029D01*
X44786609Y-23987965D01*
X45083074Y-23456468D01*
X45281385Y-23065119D01*
X45013859Y-23097716D01*
X44868046Y-23133359D01*
X44742641Y-23220751D01*
X44607412Y-23391303D01*
X44432131Y-23676423D01*
X44394811Y-23740916D01*
X43730312Y-24755470D01*
X42914668Y-25758824D01*
X42214250Y-26490684D01*
X41915109Y-26788426D01*
X41665602Y-27046659D01*
X41488187Y-27241387D01*
X41405324Y-27348615D01*
X41402000Y-27358517D01*
X40895141Y-27358517D01*
X40877128Y-27287480D01*
X40761749Y-27005555D01*
X40680953Y-26898629D01*
X41490143Y-26898629D01*
X41543307Y-26892801D01*
X41684930Y-26775677D01*
X41896932Y-26567575D01*
X42161231Y-26288814D01*
X42459746Y-25959715D01*
X42774396Y-25600596D01*
X43087100Y-25231776D01*
X43379776Y-24873574D01*
X43634344Y-24546311D01*
X43832721Y-24270304D01*
X43844145Y-24253264D01*
X44071620Y-23906618D01*
X44260136Y-23609140D01*
X44391863Y-23389725D01*
X44448971Y-23277264D01*
X44450000Y-23271470D01*
X44381039Y-23205883D01*
X44193658Y-23220844D01*
X43918114Y-23313609D01*
X43738561Y-23420509D01*
X43609190Y-23591744D01*
X43491794Y-23878253D01*
X43489443Y-23885109D01*
X43266857Y-24398317D01*
X42949456Y-24950759D01*
X42577571Y-25479643D01*
X42191533Y-25922179D01*
X42162933Y-25950333D01*
X41860410Y-26270962D01*
X41635653Y-26563080D01*
X41509613Y-26797155D01*
X41490143Y-26898629D01*
X40680953Y-26898629D01*
X40604994Y-26798105D01*
X40378559Y-26618044D01*
X40305924Y-26570633D01*
X40003367Y-26396540D01*
X39815946Y-26336153D01*
X39733650Y-26389109D01*
X39745242Y-26550200D01*
X39765961Y-26790560D01*
X39741405Y-26952367D01*
X39697735Y-27055497D01*
X39654875Y-27030336D01*
X39589432Y-26860436D01*
X39582773Y-26840844D01*
X39482909Y-26546021D01*
X39430983Y-26984458D01*
X39363765Y-27346409D01*
X39239539Y-27677821D01*
X39034151Y-28031627D01*
X38808417Y-28348726D01*
X38563644Y-28643361D01*
X38294059Y-28891117D01*
X37955532Y-29126920D01*
X37503935Y-29385699D01*
X37486167Y-29395264D01*
X36999333Y-29656926D01*
X36128677Y-29656926D01*
X36323079Y-29522842D01*
X36630349Y-29329287D01*
X36987373Y-29116300D01*
X37197931Y-28995833D01*
X37717708Y-28667779D01*
X38098994Y-28331034D01*
X38360096Y-27953058D01*
X38375090Y-27910516D01*
X38809647Y-27910516D01*
X38811640Y-28019035D01*
X38820062Y-28024667D01*
X38877474Y-27956366D01*
X38979855Y-27782836D01*
X39040861Y-27667323D01*
X39141458Y-27407022D01*
X39218451Y-27090823D01*
X39266357Y-26765574D01*
X39279692Y-26478118D01*
X39252974Y-26275301D01*
X39211328Y-26210922D01*
X39144568Y-26235683D01*
X39116969Y-26420240D01*
X39116000Y-26485025D01*
X39085631Y-26798309D01*
X39011566Y-27117742D01*
X39002090Y-27146188D01*
X38914323Y-27428478D01*
X38847025Y-27698459D01*
X38809647Y-27910516D01*
X38375090Y-27910516D01*
X38519316Y-27501311D01*
X38594960Y-26943251D01*
X38605845Y-26564167D01*
X38783284Y-26564167D01*
X38799230Y-26848209D01*
X38832686Y-26976106D01*
X38873504Y-26958773D01*
X38911537Y-26807123D01*
X38936639Y-26532072D01*
X38940716Y-26394833D01*
X38928213Y-26160459D01*
X38889723Y-26015505D01*
X38862000Y-25992667D01*
X38818430Y-26070954D01*
X38790570Y-26280962D01*
X38783284Y-26564167D01*
X38605845Y-26564167D01*
X38608000Y-26489110D01*
X38597864Y-26199225D01*
X38550907Y-26043051D01*
X38442302Y-26012700D01*
X38247223Y-26100282D01*
X37961813Y-26283767D01*
X37565166Y-26619971D01*
X37159672Y-27086192D01*
X36767909Y-27646059D01*
X36412457Y-28263196D01*
X36115896Y-28901231D01*
X35900804Y-29523790D01*
X35865138Y-29661350D01*
X35807335Y-29901034D01*
X35255990Y-29901034D01*
X35231528Y-29742228D01*
X35155594Y-29462661D01*
X35029127Y-29069982D01*
X35018008Y-29036557D01*
X34740089Y-28085969D01*
X34557535Y-27166307D01*
X34459845Y-26211215D01*
X34435700Y-25357667D01*
X34436104Y-25350345D01*
X34606907Y-25350345D01*
X34621026Y-26113264D01*
X34673550Y-26812004D01*
X34746934Y-27305000D01*
X34824732Y-27661726D01*
X34923114Y-28058016D01*
X35032234Y-28460445D01*
X35142247Y-28835586D01*
X35243306Y-29150014D01*
X35325565Y-29370302D01*
X35379179Y-29463024D01*
X35382883Y-29464000D01*
X35434295Y-29390654D01*
X35519550Y-29198962D01*
X35613798Y-28948129D01*
X35710940Y-28647752D01*
X35749050Y-28431159D01*
X35733400Y-28225485D01*
X35681974Y-28005614D01*
X35540984Y-27304884D01*
X35449710Y-26490223D01*
X35408940Y-25609809D01*
X35411574Y-25384960D01*
X35560340Y-25384960D01*
X35574237Y-25845991D01*
X35611869Y-26369536D01*
X35667613Y-26906887D01*
X35735849Y-27409336D01*
X35810956Y-27828177D01*
X35869131Y-28060474D01*
X35912701Y-28163028D01*
X35966178Y-28131264D01*
X36033128Y-28018141D01*
X36080956Y-27884497D01*
X36108257Y-27676508D01*
X36116290Y-27367033D01*
X36106316Y-26928933D01*
X36095727Y-26670000D01*
X36101279Y-26123185D01*
X36246559Y-26123185D01*
X36251917Y-26638448D01*
X36277257Y-26969408D01*
X36314537Y-27245605D01*
X36346651Y-27376979D01*
X36389415Y-27386737D01*
X36458648Y-27298085D01*
X36479773Y-27266524D01*
X36600807Y-27102914D01*
X36794834Y-26859311D01*
X37023673Y-26583446D01*
X37066467Y-26533047D01*
X37371245Y-26191667D01*
X37629131Y-25952825D01*
X37741375Y-25878769D01*
X39408837Y-25878769D01*
X39450816Y-25945693D01*
X39588101Y-26043520D01*
X39821101Y-26152752D01*
X39952878Y-26201082D01*
X40265740Y-26338291D01*
X40565269Y-26521097D01*
X40644862Y-26583281D01*
X40851682Y-26756480D01*
X40945360Y-26817186D01*
X40940007Y-26764624D01*
X40849732Y-26598015D01*
X40835287Y-26572802D01*
X40618369Y-26309455D01*
X40310202Y-26071762D01*
X39970785Y-25897323D01*
X39660114Y-25823738D01*
X39639390Y-25823333D01*
X39453816Y-25834162D01*
X39408837Y-25878769D01*
X37741375Y-25878769D01*
X37890449Y-25780414D01*
X38205518Y-25638321D01*
X38289363Y-25607733D01*
X38990728Y-25607733D01*
X39072981Y-25640957D01*
X39290131Y-25654487D01*
X39416566Y-25655859D01*
X39959539Y-25719035D01*
X40418940Y-25896642D01*
X40767281Y-26177171D01*
X40820507Y-26243672D01*
X40963582Y-26401906D01*
X41038919Y-26423299D01*
X41035254Y-26330644D01*
X40941325Y-26146737D01*
X40936020Y-26138917D01*
X41633526Y-26138917D01*
X41702521Y-26124411D01*
X41865626Y-25989722D01*
X42106067Y-25746584D01*
X42398049Y-25403625D01*
X42684178Y-25013611D01*
X42943412Y-24611492D01*
X43154711Y-24232216D01*
X43297031Y-23910734D01*
X43349333Y-23681995D01*
X43349333Y-23681568D01*
X43305681Y-23651713D01*
X43189059Y-23735868D01*
X43020963Y-23907512D01*
X42822893Y-24140123D01*
X42616346Y-24407179D01*
X42422822Y-24682158D01*
X42263818Y-24938539D01*
X42162277Y-25146000D01*
X42043242Y-25400215D01*
X41876587Y-25692695D01*
X41806011Y-25802167D01*
X41665678Y-26031936D01*
X41633526Y-26138917D01*
X40936020Y-26138917D01*
X40899129Y-26084536D01*
X40548266Y-25729130D01*
X40105890Y-25514487D01*
X39609635Y-25444982D01*
X39310253Y-25461709D01*
X39090091Y-25508902D01*
X39018825Y-25548167D01*
X38990728Y-25607733D01*
X38289363Y-25607733D01*
X38424828Y-25558313D01*
X38947139Y-25386447D01*
X39351303Y-25282181D01*
X39673349Y-25243093D01*
X39949307Y-25266758D01*
X40215206Y-25350754D01*
X40380239Y-25426769D01*
X40549601Y-25506041D01*
X40599452Y-25501851D01*
X40591435Y-25482904D01*
X41245614Y-25482904D01*
X41312553Y-25651699D01*
X41335641Y-25702703D01*
X41438615Y-25928706D01*
X41674307Y-25646385D01*
X41819942Y-25449559D01*
X41902773Y-25294233D01*
X41910000Y-25260052D01*
X41871060Y-25205282D01*
X41734286Y-25248835D01*
X41677167Y-25277499D01*
X41478284Y-25364635D01*
X41338500Y-25399478D01*
X41254126Y-25413368D01*
X41245614Y-25482904D01*
X40591435Y-25482904D01*
X40560291Y-25409299D01*
X40554659Y-25398740D01*
X40480898Y-25211538D01*
X40528501Y-25101907D01*
X40719011Y-25034431D01*
X40784228Y-25021354D01*
X41195118Y-24900701D01*
X41565961Y-24688444D01*
X41932403Y-24359925D01*
X42222381Y-24026631D01*
X42713661Y-23491202D01*
X43212857Y-23084535D01*
X43699724Y-22822287D01*
X43842321Y-22773539D01*
X44367905Y-22660523D01*
X45022563Y-22585447D01*
X45769838Y-22550565D01*
X46573274Y-22558133D01*
X46990000Y-22578878D01*
X48217667Y-22656995D01*
X49635833Y-22319203D01*
X50098890Y-22205633D01*
X50498610Y-22101346D01*
X50808337Y-22013808D01*
X51001415Y-21950487D01*
X51054000Y-21921945D01*
X50977518Y-21869935D01*
X50765963Y-21777569D01*
X50446171Y-21654085D01*
X50044977Y-21508719D01*
X49589218Y-21350708D01*
X49105728Y-21189288D01*
X48621344Y-21033697D01*
X48162901Y-20893170D01*
X47757236Y-20776944D01*
X47625000Y-20741719D01*
X46798968Y-20553201D01*
X46091341Y-20451743D01*
X45475019Y-20437787D01*
X44922905Y-20511777D01*
X44407899Y-20674154D01*
X44135698Y-20798740D01*
X43908332Y-20940987D01*
X43598204Y-21172528D01*
X43242924Y-21463561D01*
X42880104Y-21784283D01*
X42810608Y-21848747D01*
X42425004Y-22207021D01*
X42134213Y-22467023D01*
X41910816Y-22647672D01*
X41727400Y-22767888D01*
X41556548Y-22846590D01*
X41370845Y-22902700D01*
X41237960Y-22934051D01*
X40995214Y-22960567D01*
X40673022Y-22959565D01*
X40321516Y-22935803D01*
X39990831Y-22894041D01*
X39731100Y-22839036D01*
X39594951Y-22778096D01*
X39587067Y-22667786D01*
X39664637Y-22493784D01*
X39673411Y-22480079D01*
X39767149Y-22315316D01*
X39771871Y-22186041D01*
X39688022Y-22006131D01*
X39675972Y-21984195D01*
X39534436Y-21766190D01*
X39332859Y-21499711D01*
X39203440Y-21344671D01*
X38878191Y-20972341D01*
X38699222Y-21323151D01*
X38533393Y-21721193D01*
X38372984Y-22236323D01*
X38230586Y-22816451D01*
X38118792Y-23409482D01*
X38050195Y-23963324D01*
X38045173Y-24028783D01*
X37989691Y-24816567D01*
X38406826Y-24761232D01*
X38684743Y-24748629D01*
X38984462Y-24771649D01*
X39258469Y-24821571D01*
X39459249Y-24889677D01*
X39539290Y-24967248D01*
X39539333Y-24969051D01*
X39461501Y-25006914D01*
X39255121Y-25044039D01*
X38960874Y-25073625D01*
X38883167Y-25078761D01*
X38349317Y-25146507D01*
X37887597Y-25295086D01*
X37441670Y-25547983D01*
X37062833Y-25837531D01*
X36819314Y-26026037D01*
X36692437Y-26092501D01*
X36684457Y-26039741D01*
X36797632Y-25870572D01*
X36945008Y-25690406D01*
X37067910Y-25539597D01*
X37151550Y-25402696D01*
X37206253Y-25240534D01*
X37215607Y-25181807D01*
X37399845Y-25181807D01*
X37601756Y-25048062D01*
X37697199Y-24969331D01*
X37761767Y-24859942D01*
X37805536Y-24683087D01*
X37838580Y-24401960D01*
X37862842Y-24094215D01*
X37945663Y-23379237D01*
X38085862Y-22645666D01*
X38269364Y-21954920D01*
X38482100Y-21368420D01*
X38493172Y-21343113D01*
X38695779Y-20884559D01*
X38315907Y-20480205D01*
X38078931Y-21183269D01*
X37805235Y-22143269D01*
X37596413Y-23184161D01*
X37468404Y-24224727D01*
X37459748Y-24338403D01*
X37399845Y-25181807D01*
X37215607Y-25181807D01*
X37242343Y-25013940D01*
X37270143Y-24683747D01*
X37289337Y-24384000D01*
X37400825Y-23291450D01*
X37593644Y-22234384D01*
X37857092Y-21268791D01*
X37920301Y-21083125D01*
X38162272Y-20399342D01*
X37719000Y-20049564D01*
X37445935Y-20629282D01*
X37187491Y-21239686D01*
X36933338Y-21949524D01*
X36705428Y-22689817D01*
X36525714Y-23391590D01*
X36453064Y-23749000D01*
X36372479Y-24293671D01*
X36309456Y-24902874D01*
X36266610Y-25528686D01*
X36246559Y-26123185D01*
X36101279Y-26123185D01*
X36110676Y-25197704D01*
X36285446Y-23747000D01*
X36616653Y-22337257D01*
X37079532Y-21038315D01*
X37261874Y-20604700D01*
X37384562Y-20301318D01*
X37452067Y-20101681D01*
X37468862Y-19979300D01*
X37439419Y-19907688D01*
X37368211Y-19860355D01*
X37284814Y-19822460D01*
X37151181Y-19777410D01*
X37037735Y-19791328D01*
X36928419Y-19884041D01*
X36807176Y-20075378D01*
X36657951Y-20385166D01*
X36464687Y-20833232D01*
X36462949Y-20837358D01*
X36008280Y-22133502D01*
X35709773Y-23485873D01*
X35570726Y-24877852D01*
X35560340Y-25384960D01*
X35411574Y-25384960D01*
X35419461Y-24711821D01*
X35482061Y-23844437D01*
X35597527Y-23055837D01*
X35600781Y-23039159D01*
X35773077Y-22312640D01*
X36005579Y-21548783D01*
X36275009Y-20817155D01*
X36548910Y-20205489D01*
X36684027Y-19928103D01*
X36778461Y-19716914D01*
X36815433Y-19609941D01*
X36814267Y-19604225D01*
X36724070Y-19565589D01*
X36539746Y-19499593D01*
X36517836Y-19492167D01*
X36248005Y-19401195D01*
X35870160Y-20135764D01*
X35328509Y-21361665D01*
X34917294Y-22671538D01*
X34789290Y-23225048D01*
X34691608Y-23851383D01*
X34630624Y-24578100D01*
X34606907Y-25350345D01*
X34436104Y-25350345D01*
X34513636Y-23945078D01*
X34751075Y-22587886D01*
X35147689Y-21287480D01*
X35685703Y-20078714D01*
X35844561Y-19768126D01*
X35966283Y-19521320D01*
X36034840Y-19371307D01*
X36043734Y-19341454D01*
X35963996Y-19304526D01*
X35758794Y-19212642D01*
X35457691Y-19078964D01*
X35090252Y-18916655D01*
X35023796Y-18887372D01*
X34021925Y-18446082D01*
X32822463Y-18434227D01*
X31623000Y-18422371D01*
X30734000Y-18773082D01*
X30336230Y-18940039D01*
X30046661Y-19082595D01*
X29885400Y-19190139D01*
X29858726Y-19235063D01*
X29895859Y-19358851D01*
X29983731Y-19596684D01*
X30106615Y-19906863D01*
X30172397Y-20066749D01*
X30628371Y-21378465D01*
X30920776Y-22723126D01*
X31049566Y-24089690D01*
X31014692Y-25467117D01*
X30816106Y-26844367D01*
X30453761Y-28210398D01*
X30210454Y-28887570D01*
X30103769Y-29167272D01*
X30028822Y-29397624D01*
X29979926Y-29618933D01*
X29951389Y-29871504D01*
X29937524Y-30195643D01*
X29932639Y-30631657D01*
X29931889Y-30861000D01*
X29929425Y-31353147D01*
X29920422Y-31719238D01*
X29898280Y-32002549D01*
X29856398Y-32246358D01*
X29788175Y-32493941D01*
X29687011Y-32788575D01*
X29602598Y-33020000D01*
X29402069Y-33571209D01*
X29253078Y-34003692D01*
X29147822Y-34357319D01*
X29078497Y-34671957D01*
X29037299Y-34987475D01*
X29016425Y-35343743D01*
X29008071Y-35780630D01*
X29005996Y-36068000D01*
X29005964Y-36598842D01*
X27933405Y-36598842D01*
X27885505Y-36449004D01*
X27876794Y-36423105D01*
X27639315Y-35719877D01*
X27401463Y-36450240D01*
X27163610Y-37180603D01*
X26058419Y-37180603D01*
X26099457Y-37046126D01*
X26073170Y-36955299D01*
X25995414Y-36875741D01*
X26877433Y-36875741D01*
X26887749Y-37011520D01*
X26938358Y-37033124D01*
X27024939Y-36920074D01*
X27088672Y-36787667D01*
X27189441Y-36521704D01*
X27302600Y-36174931D01*
X27385903Y-35886623D01*
X27469684Y-35515778D01*
X27487332Y-35252751D01*
X27454292Y-35082290D01*
X27406791Y-34959469D01*
X27370355Y-34942514D01*
X27330775Y-35050833D01*
X27273843Y-35303829D01*
X27266430Y-35338868D01*
X27176045Y-35715963D01*
X27061000Y-36130743D01*
X26994967Y-36343580D01*
X26911732Y-36646268D01*
X26877433Y-36875741D01*
X25995414Y-36875741D01*
X25987618Y-36867764D01*
X25889766Y-36792674D01*
X25818535Y-36804698D01*
X25741648Y-36928770D01*
X25654555Y-37125037D01*
X25442864Y-37703584D01*
X25345324Y-38197987D01*
X24673173Y-38197987D01*
X24572383Y-37851097D01*
X24437119Y-37503284D01*
X25083717Y-37503284D01*
X25111003Y-37701404D01*
X25174350Y-38057667D01*
X25245028Y-37732901D01*
X25325639Y-37459635D01*
X25449268Y-37137790D01*
X25514181Y-36993420D01*
X25624695Y-36750027D01*
X25662610Y-36607206D01*
X25652865Y-36576868D01*
X26548603Y-36576868D01*
X26572676Y-36715995D01*
X26650013Y-36711421D01*
X26674676Y-36689210D01*
X26724440Y-36581496D01*
X26802317Y-36347938D01*
X26896076Y-36027151D01*
X26961064Y-35785065D01*
X27103565Y-35168491D01*
X27174552Y-34683948D01*
X27174936Y-34569912D01*
X28218699Y-34569912D01*
X28232900Y-34677618D01*
X28272187Y-34901824D01*
X28306557Y-35035530D01*
X28317301Y-35052000D01*
X28354316Y-34976711D01*
X28439788Y-34767641D01*
X28563864Y-34449983D01*
X28716687Y-34048934D01*
X28872028Y-33633833D01*
X29110422Y-32967527D01*
X29279749Y-32436522D01*
X29384947Y-32023814D01*
X29430952Y-31712398D01*
X29431265Y-31707667D01*
X29464034Y-31199667D01*
X29330298Y-31791595D01*
X29151683Y-32419422D01*
X28906839Y-33052682D01*
X28623664Y-33624583D01*
X28442673Y-33916742D01*
X28286846Y-34164703D01*
X28219056Y-34357515D01*
X28218699Y-34569912D01*
X27174936Y-34569912D01*
X27175807Y-34310820D01*
X27125212Y-34092400D01*
X28026313Y-34092400D01*
X28060870Y-34120667D01*
X28119402Y-34054009D01*
X28238731Y-33878924D01*
X28393466Y-33632739D01*
X28399525Y-33622776D01*
X28837683Y-32744085D01*
X29138852Y-31785417D01*
X29217312Y-31391958D01*
X29270100Y-31040819D01*
X29285178Y-30803661D01*
X29261616Y-30629177D01*
X29200619Y-30470547D01*
X29074153Y-30203511D01*
X28973283Y-30961126D01*
X28763960Y-32009491D01*
X28414481Y-33010379D01*
X28271209Y-33328438D01*
X28119550Y-33679128D01*
X28035945Y-33941215D01*
X28026313Y-34092400D01*
X27125212Y-34092400D01*
X27112147Y-34036000D01*
X27054505Y-33905037D01*
X27020993Y-33909244D01*
X26989042Y-34063039D01*
X26979609Y-34120667D01*
X26939251Y-34390564D01*
X26894736Y-34718720D01*
X26879360Y-34840333D01*
X26831625Y-35137174D01*
X26755308Y-35517823D01*
X26666431Y-35902731D01*
X26661233Y-35923491D01*
X26578040Y-36308036D01*
X26548603Y-36576868D01*
X25652865Y-36576868D01*
X25633014Y-36515069D01*
X25569663Y-36449298D01*
X25472618Y-36382135D01*
X25400299Y-36417953D01*
X25315520Y-36582012D01*
X25291239Y-36638445D01*
X25154306Y-36989594D01*
X25088742Y-37256580D01*
X25083717Y-37503284D01*
X24437119Y-37503284D01*
X24391263Y-37385371D01*
X24245302Y-37100979D01*
X24100368Y-36851167D01*
X24806914Y-36851167D01*
X24833787Y-37020147D01*
X24892000Y-37084000D01*
X24966566Y-37015192D01*
X24976667Y-36953627D01*
X25013418Y-36801587D01*
X25105728Y-36574635D01*
X25150177Y-36483145D01*
X25229442Y-36270706D01*
X26226909Y-36270706D01*
X26249949Y-36410448D01*
X26305482Y-36395662D01*
X26388158Y-36222113D01*
X26492629Y-35885569D01*
X26533142Y-35729333D01*
X26602939Y-35399076D01*
X26676545Y-34969574D01*
X26742593Y-34510236D01*
X26770481Y-34279927D01*
X26813311Y-33867950D01*
X26831374Y-33578189D01*
X26823412Y-33387016D01*
X27827431Y-33387016D01*
X27827829Y-33493781D01*
X27876120Y-33568885D01*
X27938678Y-33548017D01*
X28027338Y-33414522D01*
X28153937Y-33151744D01*
X28284713Y-32850837D01*
X28460905Y-32381381D01*
X28610794Y-31876810D01*
X28729720Y-31367088D01*
X28813025Y-30882180D01*
X28856051Y-30452051D01*
X28854137Y-30106665D01*
X28802626Y-29875986D01*
X28757001Y-29813180D01*
X28699526Y-29794480D01*
X28657607Y-29866654D01*
X28624842Y-30054335D01*
X28594829Y-30382156D01*
X28589150Y-30458980D01*
X28451297Y-31425406D01*
X28187827Y-32379016D01*
X27986917Y-32890757D01*
X27883167Y-33163096D01*
X27827431Y-33387016D01*
X26823412Y-33387016D01*
X26822497Y-33365037D01*
X26784506Y-33182891D01*
X26717645Y-32993007D01*
X27617373Y-32993007D01*
X27646232Y-33018168D01*
X27670042Y-33020000D01*
X27743873Y-32946974D01*
X27846973Y-32757050D01*
X27940181Y-32534415D01*
X28162850Y-31875221D01*
X28305812Y-31278373D01*
X28385277Y-30666669D01*
X28407166Y-30310667D01*
X28417944Y-29985045D01*
X28415047Y-29806405D01*
X28397086Y-29778618D01*
X28362677Y-29905552D01*
X28310432Y-30191076D01*
X28238966Y-30639060D01*
X28201804Y-30883775D01*
X28120510Y-31297846D01*
X28001630Y-31758695D01*
X27889673Y-32111441D01*
X27750404Y-32502891D01*
X27662942Y-32762328D01*
X27620771Y-32916714D01*
X27617373Y-32993007D01*
X26717645Y-32993007D01*
X26715229Y-32986146D01*
X26707948Y-32967593D01*
X26545085Y-32554333D01*
X26481302Y-33681906D01*
X26446431Y-34187930D01*
X26399692Y-34714166D01*
X26347403Y-35195801D01*
X26299704Y-35544573D01*
X26241711Y-35980670D01*
X26226909Y-36270706D01*
X25229442Y-36270706D01*
X25244769Y-36229628D01*
X25271494Y-36003468D01*
X25262805Y-35971719D01*
X25876978Y-35971719D01*
X25881943Y-36004500D01*
X25954271Y-36070288D01*
X26020782Y-35992964D01*
X26084899Y-35764093D01*
X26150045Y-35375236D01*
X26156756Y-35327167D01*
X26222792Y-34768237D01*
X26271936Y-34190345D01*
X26303504Y-33623792D01*
X26316813Y-33098881D01*
X26311179Y-32645916D01*
X26285920Y-32295197D01*
X26240353Y-32077029D01*
X26230522Y-32055273D01*
X26183671Y-31978228D01*
X26150043Y-31967375D01*
X26127182Y-32042342D01*
X26112633Y-32222760D01*
X26103940Y-32528257D01*
X26098650Y-32978463D01*
X26097553Y-33118452D01*
X26085489Y-33649422D01*
X26059194Y-34194750D01*
X26022257Y-34697809D01*
X25978270Y-35101970D01*
X25966899Y-35179000D01*
X25917231Y-35521761D01*
X25885845Y-35799727D01*
X25876978Y-35971719D01*
X25262805Y-35971719D01*
X25229873Y-35851391D01*
X25157020Y-35814000D01*
X25089730Y-35888109D01*
X25003823Y-36075976D01*
X24916746Y-36325912D01*
X24845948Y-36586228D01*
X24808877Y-36805232D01*
X24806914Y-36851167D01*
X24100368Y-36851167D01*
X24011695Y-36698327D01*
X23901927Y-36477595D01*
X24508609Y-36477595D01*
X24515172Y-36504210D01*
X24578351Y-36703000D01*
X24658626Y-36491333D01*
X24743152Y-36282286D01*
X24859449Y-36010338D01*
X24903133Y-35911360D01*
X24986784Y-35671356D01*
X25021678Y-35462231D01*
X25010735Y-35316969D01*
X24956875Y-35268555D01*
X24863019Y-35349974D01*
X24854512Y-35362141D01*
X24706517Y-35634122D01*
X24587622Y-35950785D01*
X24515696Y-36251990D01*
X24508609Y-36477595D01*
X23901927Y-36477595D01*
X23839955Y-36352977D01*
X23720801Y-36025485D01*
X23671843Y-35800168D01*
X24256338Y-35800168D01*
X24262182Y-35914992D01*
X24305139Y-36015282D01*
X24351253Y-35995860D01*
X24423248Y-35839007D01*
X24451362Y-35767472D01*
X24575473Y-35491432D01*
X24713758Y-35242723D01*
X24736603Y-35208263D01*
X24848889Y-34968450D01*
X24889307Y-34742596D01*
X24880921Y-34579343D01*
X24839964Y-34568701D01*
X24752662Y-34671000D01*
X24581197Y-34932040D01*
X24427773Y-35241607D01*
X24312714Y-35548164D01*
X24256338Y-35800168D01*
X23671843Y-35800168D01*
X23644951Y-35676403D01*
X23603123Y-35266285D01*
X23600738Y-35195010D01*
X24109235Y-35195010D01*
X24119217Y-35299743D01*
X24135910Y-35306000D01*
X24213240Y-35244265D01*
X24214667Y-35229841D01*
X24259149Y-35125053D01*
X24375241Y-34926675D01*
X24522445Y-34700675D01*
X24664585Y-34459052D01*
X24777301Y-34209230D01*
X24782674Y-34192973D01*
X25408623Y-34192973D01*
X25412282Y-34504327D01*
X25431675Y-34747685D01*
X25468274Y-34956699D01*
X25523548Y-35165023D01*
X25527720Y-35179000D01*
X25680067Y-35687000D01*
X25767467Y-35348333D01*
X25794216Y-35161664D01*
X25818194Y-34837087D01*
X25838021Y-34406020D01*
X25852322Y-33899883D01*
X25859719Y-33350096D01*
X25860267Y-33231667D01*
X25861293Y-32637209D01*
X25858769Y-32186992D01*
X25850439Y-31855927D01*
X25834048Y-31618926D01*
X25807338Y-31450901D01*
X25768056Y-31326764D01*
X25713944Y-31221426D01*
X25673759Y-31157333D01*
X25481851Y-30861000D01*
X25495866Y-31326667D01*
X25496609Y-31570815D01*
X25489579Y-31943451D01*
X25475911Y-32403965D01*
X25456740Y-32911745D01*
X25442627Y-33231667D01*
X25419228Y-33779971D01*
X25408623Y-34192973D01*
X24782674Y-34192973D01*
X24851593Y-33984425D01*
X24878461Y-33817857D01*
X24848905Y-33742742D01*
X24773181Y-33775210D01*
X24654512Y-33918309D01*
X24518205Y-34148889D01*
X24379892Y-34429398D01*
X24255204Y-34722288D01*
X24159774Y-34990008D01*
X24109235Y-35195010D01*
X23600738Y-35195010D01*
X23586035Y-34755686D01*
X23584813Y-34494023D01*
X24048647Y-34494023D01*
X24065662Y-34574943D01*
X24118102Y-34509790D01*
X24175748Y-34385872D01*
X24297827Y-34153756D01*
X24476337Y-33868340D01*
X24595768Y-33697195D01*
X24756790Y-33453589D01*
X24864378Y-33244373D01*
X24892000Y-33143701D01*
X24881520Y-33044740D01*
X24821845Y-33061303D01*
X24722759Y-33146916D01*
X24581972Y-33320726D01*
X24418395Y-33588639D01*
X24258533Y-33897693D01*
X24128889Y-34194922D01*
X24055967Y-34427362D01*
X24048647Y-34494023D01*
X23584813Y-34494023D01*
X23583860Y-34290000D01*
X23594295Y-33676905D01*
X23594863Y-33666851D01*
X24045650Y-33666851D01*
X24072485Y-33724797D01*
X24156406Y-33633794D01*
X24223415Y-33528000D01*
X24408393Y-33259224D01*
X24623200Y-32998421D01*
X24644780Y-32975339D01*
X24819297Y-32733503D01*
X24934712Y-32468327D01*
X24944878Y-32425006D01*
X25001059Y-32131000D01*
X24785067Y-32328864D01*
X24623567Y-32517821D01*
X24441719Y-32790872D01*
X24267338Y-33097691D01*
X24128233Y-33387953D01*
X24052217Y-33611332D01*
X24045650Y-33666851D01*
X23594863Y-33666851D01*
X23626896Y-33099443D01*
X23657054Y-32808333D01*
X24130000Y-32808333D01*
X24172333Y-32850667D01*
X24214667Y-32808333D01*
X24172333Y-32766000D01*
X24130000Y-32808333D01*
X23657054Y-32808333D01*
X23678673Y-32599653D01*
X24245405Y-32599653D01*
X24303886Y-32577832D01*
X24446228Y-32437380D01*
X24563716Y-32307966D01*
X24766579Y-32066778D01*
X24925222Y-31853291D01*
X24997997Y-31728647D01*
X25029676Y-31547351D01*
X24973808Y-31456508D01*
X24854368Y-31492322D01*
X24845964Y-31499073D01*
X24716489Y-31651699D01*
X24555928Y-31899578D01*
X24399490Y-32182147D01*
X24282390Y-32438844D01*
X24257024Y-32512000D01*
X24245405Y-32599653D01*
X23678673Y-32599653D01*
X23686640Y-32522746D01*
X23778508Y-31911942D01*
X23833349Y-31622881D01*
X24393672Y-31622881D01*
X24434751Y-31648640D01*
X24569457Y-31539271D01*
X24680333Y-31422482D01*
X24850049Y-31209601D01*
X24957270Y-31026991D01*
X24976667Y-30956571D01*
X24943058Y-30831478D01*
X24849832Y-30853182D01*
X24708382Y-31014759D01*
X24599236Y-31185938D01*
X24447930Y-31466984D01*
X24393672Y-31622881D01*
X23833349Y-31622881D01*
X23907477Y-31232165D01*
X24008466Y-30769511D01*
X24562632Y-30769511D01*
X24583181Y-30825263D01*
X24656782Y-30752424D01*
X24758679Y-30604764D01*
X24854258Y-30363162D01*
X24839009Y-30075597D01*
X24779184Y-29760333D01*
X24669846Y-30226000D01*
X24592424Y-30573609D01*
X24562632Y-30769511D01*
X24008466Y-30769511D01*
X24078527Y-30448544D01*
X24216576Y-29858848D01*
X24374944Y-29195363D01*
X24082961Y-28644982D01*
X23927706Y-28321202D01*
X23803975Y-28006474D01*
X23739784Y-27774446D01*
X23736754Y-27755499D01*
X24254603Y-27755499D01*
X24256005Y-27761525D01*
X24365144Y-28043443D01*
X24581541Y-28442253D01*
X24899371Y-28948812D01*
X25312803Y-29553976D01*
X25816010Y-30248602D01*
X25988816Y-30480000D01*
X26316507Y-30921861D01*
X26625999Y-31350061D01*
X26895741Y-31733957D01*
X27104179Y-32042906D01*
X27224818Y-32237352D01*
X27474333Y-32682370D01*
X27628596Y-32322018D01*
X27723660Y-32060366D01*
X27831211Y-31704729D01*
X27929696Y-31326998D01*
X27939712Y-31284333D01*
X28026457Y-30860620D01*
X28102898Y-30401771D01*
X28152337Y-30008473D01*
X28208111Y-29409946D01*
X27521557Y-28959211D01*
X26915624Y-28480908D01*
X26442206Y-27934823D01*
X26112990Y-27337945D01*
X25939667Y-26707263D01*
X25932045Y-26648842D01*
X25899051Y-26408046D01*
X25869066Y-26316652D01*
X25831188Y-26355302D01*
X25804222Y-26421800D01*
X25740732Y-26557656D01*
X25685505Y-26545523D01*
X25648048Y-26486206D01*
X25616089Y-26269122D01*
X25618802Y-26258597D01*
X26088944Y-26258597D01*
X26110945Y-26586538D01*
X26173670Y-26928825D01*
X26273240Y-27236560D01*
X26297689Y-27290604D01*
X26406728Y-27483935D01*
X26469520Y-27521205D01*
X26484981Y-27409550D01*
X26452028Y-27156108D01*
X26374118Y-26787226D01*
X26307134Y-26452918D01*
X26268482Y-26157448D01*
X26266369Y-26004904D01*
X26439699Y-26004904D01*
X26443484Y-26227824D01*
X26463208Y-26446539D01*
X26493843Y-26608876D01*
X26530364Y-26662664D01*
X26536609Y-26657485D01*
X26557394Y-26564238D01*
X26586691Y-26350861D01*
X26599223Y-26237207D01*
X26771043Y-26237207D01*
X26775641Y-26593252D01*
X26807844Y-26969143D01*
X26866432Y-27328294D01*
X26950184Y-27634120D01*
X27005550Y-27764423D01*
X27100970Y-27937074D01*
X27207444Y-28083440D01*
X27351918Y-28227321D01*
X27561336Y-28392511D01*
X27862643Y-28602809D01*
X28236333Y-28851419D01*
X28568689Y-29077405D01*
X28861374Y-29289087D01*
X29076206Y-29458158D01*
X29160092Y-29536301D01*
X29284362Y-29657628D01*
X29351634Y-29689254D01*
X29342791Y-29600460D01*
X29294367Y-29386960D01*
X29215326Y-29086275D01*
X29164423Y-28905568D01*
X28880478Y-28090049D01*
X28516768Y-27312666D01*
X28102562Y-26635029D01*
X28053381Y-26566780D01*
X27845919Y-26323288D01*
X27590088Y-26077580D01*
X27325933Y-25862343D01*
X27093500Y-25710262D01*
X26935099Y-25654000D01*
X26849551Y-25730996D01*
X26795273Y-25937593D01*
X26771043Y-26237207D01*
X26599223Y-26237207D01*
X26614518Y-26098500D01*
X26628825Y-25806591D01*
X26609738Y-25623748D01*
X26566535Y-25565780D01*
X26508498Y-25648495D01*
X26456879Y-25829952D01*
X26439699Y-26004904D01*
X26266369Y-26004904D01*
X26265753Y-25960459D01*
X26267520Y-25949648D01*
X26282882Y-25807099D01*
X26232475Y-25803416D01*
X26182646Y-25841332D01*
X26111551Y-25993896D01*
X26088944Y-26258597D01*
X25618802Y-26258597D01*
X25655915Y-26114630D01*
X25711317Y-25943255D01*
X25719869Y-25861503D01*
X25633365Y-25871938D01*
X25445375Y-25925850D01*
X25368230Y-25951580D01*
X25105250Y-26080345D01*
X24842862Y-26269396D01*
X24623632Y-26480436D01*
X24490130Y-26675165D01*
X24468667Y-26760935D01*
X24437150Y-26928092D01*
X24359050Y-27163425D01*
X24335506Y-27222018D01*
X24255644Y-27508698D01*
X24254603Y-27755499D01*
X23736754Y-27755499D01*
X23688589Y-27454290D01*
X22949005Y-27496459D01*
X22449983Y-27508322D01*
X22062575Y-27465971D01*
X21732780Y-27350481D01*
X21406595Y-27142927D01*
X21030020Y-26824383D01*
X21029223Y-26823661D01*
X20697163Y-26532321D01*
X20392129Y-26291976D01*
X20081834Y-26084366D01*
X19733990Y-25891229D01*
X19316308Y-25694302D01*
X18796501Y-25475323D01*
X18286604Y-25272453D01*
X17567799Y-24981895D01*
X16984382Y-24723853D01*
X16509237Y-24483233D01*
X16115250Y-24244940D01*
X15775305Y-23993880D01*
X15462288Y-23714960D01*
X15426918Y-23680539D01*
X15170081Y-23402676D01*
X14889143Y-23055327D01*
X14598365Y-22661476D01*
X14312008Y-22244108D01*
X14044331Y-21826209D01*
X13809595Y-21430764D01*
X13767638Y-21352458D01*
X14433319Y-21352458D01*
X14444220Y-21453358D01*
X14547905Y-21654012D01*
X14723980Y-21928220D01*
X14952051Y-22249782D01*
X15211723Y-22592499D01*
X15482601Y-22930171D01*
X15744290Y-23236599D01*
X15976397Y-23485583D01*
X16158526Y-23650924D01*
X16265910Y-23706667D01*
X16279930Y-23636062D01*
X16237729Y-23454201D01*
X16179287Y-23283765D01*
X15923250Y-22709897D01*
X15625226Y-22208526D01*
X15304565Y-21805176D01*
X15085271Y-21615767D01*
X15441648Y-21615767D01*
X15798337Y-22147684D01*
X16004785Y-22487590D01*
X16199308Y-22863629D01*
X16361761Y-23230515D01*
X16471995Y-23542959D01*
X16510000Y-23747375D01*
X16574601Y-23873998D01*
X16722911Y-24016304D01*
X16886690Y-24115242D01*
X16952172Y-24130000D01*
X17007183Y-24059999D01*
X17016214Y-23981833D01*
X16976597Y-23757594D01*
X16874659Y-23434118D01*
X16730048Y-23060340D01*
X16562410Y-22685197D01*
X16391392Y-22357623D01*
X16313042Y-22230401D01*
X16102400Y-21960305D01*
X16407677Y-21960305D01*
X16442956Y-22072913D01*
X16556569Y-22258548D01*
X16709728Y-22537473D01*
X16868038Y-22902281D01*
X17012369Y-23298748D01*
X17123590Y-23672649D01*
X17182571Y-23969761D01*
X17187333Y-24046388D01*
X17231379Y-24244916D01*
X17393860Y-24360214D01*
X17420167Y-24370260D01*
X17638934Y-24442130D01*
X17735541Y-24431100D01*
X17745228Y-24316714D01*
X17724637Y-24193500D01*
X17611116Y-23736049D01*
X17447054Y-23275176D01*
X17248531Y-22839829D01*
X17031629Y-22458955D01*
X16828027Y-22182667D01*
X17114587Y-22182667D01*
X17320565Y-22551201D01*
X17550622Y-23034947D01*
X17749452Y-23584834D01*
X17886452Y-24112743D01*
X17910268Y-24249280D01*
X17972078Y-24510891D01*
X18084963Y-24648149D01*
X18292491Y-24705873D01*
X18360922Y-24712845D01*
X18431546Y-24677789D01*
X18437863Y-24532663D01*
X18418235Y-24405167D01*
X18317408Y-23995101D01*
X18161042Y-23516897D01*
X17975627Y-23042749D01*
X17787653Y-22644850D01*
X17743223Y-22565509D01*
X17572232Y-22316655D01*
X17478866Y-22246167D01*
X17798535Y-22246167D01*
X18085868Y-22847497D01*
X18323331Y-23429430D01*
X18499585Y-23959011D01*
X18603288Y-24403283D01*
X18626667Y-24652832D01*
X18662865Y-24797878D01*
X18797496Y-24908239D01*
X18986500Y-24990257D01*
X19261081Y-25089514D01*
X19408698Y-25121767D01*
X19460039Y-25081819D01*
X19445789Y-24964473D01*
X19433598Y-24914542D01*
X19337797Y-24623052D01*
X19185168Y-24261780D01*
X18991854Y-23859369D01*
X18773998Y-23444461D01*
X18547744Y-23045701D01*
X18329235Y-22691733D01*
X18134614Y-22411198D01*
X17980024Y-22232742D01*
X17943479Y-22211486D01*
X18288000Y-22211486D01*
X18328749Y-22291602D01*
X18438360Y-22483667D01*
X18597876Y-22754849D01*
X18710282Y-22942918D01*
X18938324Y-23354910D01*
X19179053Y-23842220D01*
X19391129Y-24319681D01*
X19451116Y-24469169D01*
X19600353Y-24844773D01*
X19717184Y-25097798D01*
X19826438Y-25265031D01*
X19952944Y-25383259D01*
X20121530Y-25489269D01*
X20150667Y-25505656D01*
X20371639Y-25628118D01*
X20522430Y-25709836D01*
X20559654Y-25728585D01*
X20530903Y-25660265D01*
X20434670Y-25463520D01*
X20281891Y-25160010D01*
X20083500Y-24771393D01*
X19850433Y-24319327D01*
X19763233Y-24151167D01*
X19454388Y-23557253D01*
X19212524Y-23096706D01*
X19026670Y-22752568D01*
X18885857Y-22507881D01*
X18779117Y-22345686D01*
X18695481Y-22249025D01*
X18648785Y-22217623D01*
X18965333Y-22217623D01*
X19003180Y-22300315D01*
X19107757Y-22506250D01*
X19265623Y-22809520D01*
X19463334Y-23184219D01*
X19604268Y-23448979D01*
X19853321Y-23919545D01*
X20102164Y-24397085D01*
X20326948Y-24835346D01*
X20503825Y-25188079D01*
X20552428Y-25287810D01*
X20804854Y-25727842D01*
X21116196Y-26142066D01*
X21458609Y-26503507D01*
X21804249Y-26785190D01*
X22125270Y-26960141D01*
X22324854Y-27004848D01*
X22314854Y-26943627D01*
X22216727Y-26773415D01*
X22046285Y-26518901D01*
X21819342Y-26204774D01*
X21771476Y-26140833D01*
X20729373Y-24633906D01*
X19781035Y-23003701D01*
X19761693Y-22967370D01*
X19560495Y-22601917D01*
X19410351Y-22366277D01*
X19371635Y-22323538D01*
X19642667Y-22323538D01*
X19684565Y-22432636D01*
X19799548Y-22657885D01*
X19971548Y-22971472D01*
X20184497Y-23345585D01*
X20422328Y-23752410D01*
X20668972Y-24164134D01*
X20908362Y-24552946D01*
X21124431Y-24891031D01*
X21136833Y-24909901D01*
X21419060Y-25325591D01*
X21734789Y-25770407D01*
X22036062Y-26177556D01*
X22185498Y-26370401D01*
X22429197Y-26669787D01*
X22603968Y-26858100D01*
X22741447Y-26960502D01*
X22873275Y-27002155D01*
X22988019Y-27008667D01*
X23183587Y-26996389D01*
X23280918Y-26966216D01*
X23283333Y-26960000D01*
X23229857Y-26881240D01*
X23085103Y-26705773D01*
X22872584Y-26461380D01*
X22670334Y-26235741D01*
X21768017Y-25142943D01*
X21010413Y-24016191D01*
X20554306Y-23178729D01*
X20360870Y-22791176D01*
X20219516Y-22531949D01*
X20111304Y-22375655D01*
X20023914Y-22302443D01*
X20344314Y-22302443D01*
X20363861Y-22388303D01*
X20455918Y-22590295D01*
X20604636Y-22880098D01*
X20794170Y-23229389D01*
X21008671Y-23609846D01*
X21232294Y-23993147D01*
X21449192Y-24350971D01*
X21643517Y-24654995D01*
X21737799Y-24792924D01*
X22064101Y-25229270D01*
X22411565Y-25652407D01*
X22760356Y-26042264D01*
X23090639Y-26378771D01*
X23382579Y-26641855D01*
X23616341Y-26811447D01*
X23772089Y-26867475D01*
X23785837Y-26865303D01*
X23925618Y-26812454D01*
X23960667Y-26778963D01*
X23906198Y-26704985D01*
X23757944Y-26533741D01*
X23538630Y-26290843D01*
X23274512Y-26005671D01*
X22757162Y-25407192D01*
X22237377Y-24723307D01*
X21752979Y-24008360D01*
X21341790Y-23316697D01*
X21164195Y-22973439D01*
X21004726Y-22661033D01*
X20886848Y-22481088D01*
X21178689Y-22481088D01*
X21192013Y-22576979D01*
X21280034Y-22786176D01*
X21426885Y-23078904D01*
X21616698Y-23425388D01*
X21833606Y-23795854D01*
X22061741Y-24160528D01*
X22125108Y-24257000D01*
X22333445Y-24554175D01*
X22587632Y-24892299D01*
X22866024Y-25245439D01*
X23146973Y-25587664D01*
X23408836Y-25893041D01*
X23629966Y-26135638D01*
X23788717Y-26289522D01*
X23856555Y-26331333D01*
X23858972Y-26262894D01*
X23846017Y-26211295D01*
X24490350Y-26211295D01*
X24517046Y-26231371D01*
X24642773Y-26154259D01*
X24798298Y-26041666D01*
X25056979Y-25894494D01*
X25375083Y-25769437D01*
X25487887Y-25737894D01*
X25748530Y-25657019D01*
X25944928Y-25563301D01*
X25998840Y-25519561D01*
X26037671Y-25440184D01*
X25957219Y-25405963D01*
X25796879Y-25400000D01*
X25340609Y-25472156D01*
X24933606Y-25671950D01*
X24620788Y-25974367D01*
X24542580Y-26098500D01*
X24490350Y-26211295D01*
X23846017Y-26211295D01*
X23828327Y-26140833D01*
X23738220Y-25970075D01*
X23696986Y-25913563D01*
X24305169Y-25913563D01*
X24360385Y-25924169D01*
X24518155Y-25809883D01*
X24616833Y-25718557D01*
X24850339Y-25519188D01*
X25081570Y-25364290D01*
X25172678Y-25320374D01*
X25378220Y-25273912D01*
X25685602Y-25239125D01*
X26019345Y-25223790D01*
X26328140Y-25218463D01*
X26488252Y-25206514D01*
X26520330Y-25180763D01*
X26445023Y-25134033D01*
X26373667Y-25100609D01*
X25944312Y-24991406D01*
X25481796Y-25019648D01*
X25033010Y-25173563D01*
X24644844Y-25441381D01*
X24528664Y-25563781D01*
X24359074Y-25789593D01*
X24305169Y-25913563D01*
X23696986Y-25913563D01*
X23573198Y-25743910D01*
X23459870Y-25611667D01*
X22902137Y-24907277D01*
X22442618Y-24135245D01*
X22110687Y-23346540D01*
X22059359Y-23181567D01*
X21967972Y-22904081D01*
X21966937Y-22902333D01*
X22160162Y-22902333D01*
X22218770Y-23114000D01*
X22316466Y-23385664D01*
X22470685Y-23720819D01*
X22665098Y-24093051D01*
X22883378Y-24475942D01*
X23109197Y-24843076D01*
X23326228Y-25168038D01*
X23518142Y-25424411D01*
X23668611Y-25585779D01*
X23761308Y-25625727D01*
X23768175Y-25620713D01*
X23753826Y-25530416D01*
X23676966Y-25332178D01*
X23553957Y-25067904D01*
X23546441Y-25052813D01*
X23413878Y-24770543D01*
X23345662Y-24601895D01*
X23537333Y-24601895D01*
X23575311Y-24717828D01*
X23667576Y-24904364D01*
X23781626Y-25104203D01*
X23884960Y-25260047D01*
X23942021Y-25315333D01*
X24029615Y-25251753D01*
X24115500Y-25137755D01*
X24189964Y-24996955D01*
X24199366Y-24941385D01*
X24041583Y-24843425D01*
X23845208Y-24735561D01*
X23663893Y-24645306D01*
X23551291Y-24600174D01*
X23537333Y-24601895D01*
X23345662Y-24601895D01*
X23319348Y-24536840D01*
X23283333Y-24402395D01*
X23233977Y-24271173D01*
X23104823Y-24050156D01*
X22924241Y-23779827D01*
X22720603Y-23500672D01*
X22522279Y-23253177D01*
X22357641Y-23077825D01*
X22350790Y-23071667D01*
X22160162Y-22902333D01*
X21966937Y-22902333D01*
X21870188Y-22738995D01*
X21724108Y-22633142D01*
X21575657Y-22567806D01*
X21355404Y-22494570D01*
X21205967Y-22472291D01*
X21178689Y-22481088D01*
X20886848Y-22481088D01*
X20880789Y-22471839D01*
X20763925Y-22372291D01*
X20625672Y-22328825D01*
X20616333Y-22327308D01*
X20432485Y-22303620D01*
X20344491Y-22302306D01*
X20344314Y-22302443D01*
X20023914Y-22302443D01*
X20017296Y-22296899D01*
X19918552Y-22270287D01*
X19875500Y-22268562D01*
X19706431Y-22285329D01*
X19642667Y-22323538D01*
X19371635Y-22323538D01*
X19292380Y-22236048D01*
X19187705Y-22186825D01*
X19155833Y-22184203D01*
X19006953Y-22196213D01*
X18965333Y-22217623D01*
X18648785Y-22217623D01*
X18623977Y-22200940D01*
X18553639Y-22184472D01*
X18489929Y-22182667D01*
X18335322Y-22193000D01*
X18288000Y-22211486D01*
X17943479Y-22211486D01*
X17893930Y-22182667D01*
X17798959Y-22215232D01*
X17798535Y-22246167D01*
X17478866Y-22246167D01*
X17418555Y-22200634D01*
X17316724Y-22182667D01*
X17114587Y-22182667D01*
X16828027Y-22182667D01*
X16812428Y-22161499D01*
X16607009Y-21976410D01*
X16466465Y-21928667D01*
X16407677Y-21960305D01*
X16102400Y-21960305D01*
X16073501Y-21923249D01*
X15841151Y-21748250D01*
X15732584Y-21705058D01*
X15441648Y-21615767D01*
X15085271Y-21615767D01*
X14980613Y-21525371D01*
X14764428Y-21417398D01*
X14562672Y-21361541D01*
X14442490Y-21348390D01*
X14433319Y-21352458D01*
X13767638Y-21352458D01*
X13622060Y-21080757D01*
X13495988Y-20799175D01*
X13479341Y-20736298D01*
X14664747Y-20736298D01*
X14703900Y-20779507D01*
X14885069Y-20861196D01*
X15187400Y-20973520D01*
X15590036Y-21108633D01*
X15977081Y-21229914D01*
X17399000Y-21663230D01*
X18965333Y-21709346D01*
X19514955Y-21731458D01*
X20047055Y-21763574D01*
X20521330Y-21802499D01*
X20897477Y-21845040D01*
X21094190Y-21878098D01*
X21813826Y-22100157D01*
X22415531Y-22432975D01*
X22920151Y-22890279D01*
X23215754Y-23275300D01*
X23597090Y-23782580D01*
X23966849Y-24142724D01*
X24346154Y-24374743D01*
X24505431Y-24435983D01*
X24800817Y-24534661D01*
X24961220Y-24605481D01*
X25012316Y-24674074D01*
X24979782Y-24766078D01*
X24923882Y-24853735D01*
X24788312Y-25060640D01*
X25115047Y-24924122D01*
X25493455Y-24835431D01*
X25938177Y-24832924D01*
X26373286Y-24910902D01*
X26689036Y-25042235D01*
X26933785Y-25168807D01*
X27159861Y-25254612D01*
X27178000Y-25259259D01*
X27478763Y-25401839D01*
X27825870Y-25691751D01*
X28207143Y-26117429D01*
X28515470Y-26529200D01*
X28994844Y-27213319D01*
X29070667Y-26835826D01*
X29096655Y-26623512D01*
X29119648Y-26279841D01*
X29137922Y-25842785D01*
X29149753Y-25350314D01*
X29153169Y-25019000D01*
X29148138Y-24306490D01*
X29124098Y-23724818D01*
X29078635Y-23236304D01*
X29012146Y-22817667D01*
X28901549Y-22312737D01*
X28758060Y-21752483D01*
X28596242Y-21186658D01*
X28430656Y-20665016D01*
X28275866Y-20237310D01*
X28213061Y-20087515D01*
X28060551Y-19746872D01*
X28328740Y-19746872D01*
X28380039Y-19969279D01*
X28476831Y-20268423D01*
X28526112Y-20400897D01*
X28862437Y-21429494D01*
X29116603Y-22537577D01*
X29284275Y-23683271D01*
X29361118Y-24824704D01*
X29342797Y-25919999D01*
X29224978Y-26927284D01*
X29210115Y-27008139D01*
X29179973Y-27288587D01*
X29188863Y-27554774D01*
X29229307Y-27768775D01*
X29293831Y-27892663D01*
X29374957Y-27888514D01*
X29382223Y-27881210D01*
X29428026Y-27773088D01*
X29497974Y-27540423D01*
X29580272Y-27224148D01*
X29621908Y-27049432D01*
X29844178Y-25721627D01*
X29910030Y-24359834D01*
X29821365Y-22990140D01*
X29580084Y-21638634D01*
X29188087Y-20331403D01*
X29119094Y-20147716D01*
X28988738Y-19817791D01*
X28895097Y-19618303D01*
X28816207Y-19520845D01*
X28730108Y-19497012D01*
X28629662Y-19514697D01*
X28436039Y-19580689D01*
X28333012Y-19640878D01*
X28328740Y-19746872D01*
X28060551Y-19746872D01*
X28060124Y-19745918D01*
X27846843Y-19901282D01*
X27633563Y-20056646D01*
X27881674Y-21013823D01*
X27976258Y-21397775D01*
X28045769Y-21738783D01*
X28095249Y-22079799D01*
X28129744Y-22463777D01*
X28154298Y-22933671D01*
X28172859Y-23493457D01*
X28215932Y-25015914D01*
X28498915Y-25436119D01*
X28643767Y-25663247D01*
X28733762Y-25828145D01*
X28750118Y-25888104D01*
X28679365Y-25849556D01*
X28524812Y-25717869D01*
X28324640Y-25526183D01*
X27776038Y-25093975D01*
X27144474Y-24800056D01*
X26462161Y-24659330D01*
X26448949Y-24658239D01*
X26171487Y-24626099D01*
X25976358Y-24584652D01*
X25908000Y-24545578D01*
X25985735Y-24476748D01*
X26192134Y-24425401D01*
X26486987Y-24396551D01*
X26830085Y-24395210D01*
X27017063Y-24407307D01*
X27516667Y-24452609D01*
X27516667Y-23794395D01*
X27478289Y-23095799D01*
X27372004Y-22329522D01*
X27211080Y-21576491D01*
X27076891Y-21112311D01*
X26908826Y-20600350D01*
X27130506Y-20600350D01*
X27177222Y-20830068D01*
X27276346Y-21180396D01*
X27292167Y-21232787D01*
X27529988Y-22184000D01*
X27655851Y-23129528D01*
X27684323Y-23892959D01*
X27690677Y-24262218D01*
X27711990Y-24497573D01*
X27754700Y-24634240D01*
X27825245Y-24707435D01*
X27834167Y-24712669D01*
X27896804Y-24735575D01*
X27940029Y-24704560D01*
X27968484Y-24594327D01*
X27986810Y-24379577D01*
X27999647Y-24035013D01*
X28006190Y-23775021D01*
X27999760Y-23031056D01*
X27948231Y-22342959D01*
X27899792Y-21999503D01*
X27791620Y-21428250D01*
X27681351Y-20947299D01*
X27574514Y-20575636D01*
X27476637Y-20332247D01*
X27393246Y-20236117D01*
X27386152Y-20235333D01*
X27250902Y-20294507D01*
X27175825Y-20364953D01*
X27131580Y-20456795D01*
X27130506Y-20600350D01*
X26908826Y-20600350D01*
X26891641Y-20548002D01*
X26391795Y-21079793D01*
X26127223Y-21377641D01*
X25976302Y-21605551D01*
X25925452Y-21805327D01*
X25961094Y-22018772D01*
X26029149Y-22196184D01*
X26036256Y-22303639D01*
X25938047Y-22378855D01*
X25716763Y-22426733D01*
X25354649Y-22452177D01*
X25078977Y-22458514D01*
X24721473Y-22453056D01*
X24423122Y-22416128D01*
X24155743Y-22331845D01*
X23891155Y-22184322D01*
X23601177Y-21957673D01*
X23257629Y-21636012D01*
X22832330Y-21203455D01*
X22808360Y-21178576D01*
X22331570Y-20696915D01*
X21929555Y-20330794D01*
X21570908Y-20063847D01*
X21224222Y-19879707D01*
X20858090Y-19762008D01*
X20441107Y-19694385D01*
X19941866Y-19660469D01*
X19891361Y-19658494D01*
X19275761Y-19654833D01*
X18715192Y-19700345D01*
X18113361Y-19801590D01*
X17769252Y-19876430D01*
X17341301Y-19978689D01*
X16861145Y-20099790D01*
X16360420Y-20231160D01*
X15870762Y-20364224D01*
X15423810Y-20490407D01*
X15051199Y-20601134D01*
X14784565Y-20687830D01*
X14664747Y-20736298D01*
X13479341Y-20736298D01*
X13445638Y-20609001D01*
X13475615Y-20535402D01*
X13823870Y-20421983D01*
X14294339Y-20278047D01*
X14845313Y-20115550D01*
X15435083Y-19946442D01*
X16021943Y-19782678D01*
X16564184Y-19636210D01*
X17020097Y-19518992D01*
X17035107Y-19515288D01*
X18017185Y-19296405D01*
X18871446Y-19158479D01*
X19618807Y-19101521D01*
X20280186Y-19125544D01*
X20876499Y-19230559D01*
X21428663Y-19416577D01*
X21650377Y-19517848D01*
X21923796Y-19663725D01*
X22170624Y-19826773D01*
X22423736Y-20034256D01*
X22716008Y-20313438D01*
X23080315Y-20691584D01*
X23132043Y-20746622D01*
X23459355Y-21085184D01*
X23768781Y-21386556D01*
X24032201Y-21624657D01*
X24221498Y-21773408D01*
X24269795Y-21801874D01*
X24517790Y-21878163D01*
X24833698Y-21923355D01*
X24968295Y-21928667D01*
X25222129Y-21923059D01*
X25349872Y-21890134D01*
X25394739Y-21805739D01*
X25400000Y-21687370D01*
X25477002Y-21395734D01*
X25705898Y-21040161D01*
X26083525Y-20624765D01*
X26528680Y-20219533D01*
X27211450Y-19686285D01*
X27762704Y-19345677D01*
X29055434Y-19345677D01*
X29066074Y-19437074D01*
X29129144Y-19645833D01*
X29232330Y-19932851D01*
X29275144Y-20043295D01*
X29632942Y-21084456D01*
X29878101Y-22127036D01*
X30019132Y-23218516D01*
X30064549Y-24406377D01*
X30064519Y-24446298D01*
X30022046Y-25571909D01*
X29894005Y-26605953D01*
X29672864Y-27607145D01*
X29646853Y-27702274D01*
X29565338Y-28018325D01*
X29533313Y-28246758D01*
X29549153Y-28461391D01*
X29611233Y-28736039D01*
X29623077Y-28781774D01*
X29700349Y-29048009D01*
X29769276Y-29233426D01*
X29810778Y-29294667D01*
X29862361Y-29220899D01*
X29954377Y-29023663D01*
X30070589Y-28739058D01*
X30124940Y-28596167D01*
X30543472Y-27273411D01*
X30800722Y-25978369D01*
X30898663Y-24693779D01*
X30839266Y-23402382D01*
X30775260Y-22902333D01*
X30619451Y-22101136D01*
X30391521Y-21242692D01*
X30114864Y-20407053D01*
X29865267Y-19788747D01*
X29729000Y-19492588D01*
X29631021Y-19322239D01*
X29542634Y-19247991D01*
X29435137Y-19240134D01*
X29349591Y-19254915D01*
X29157690Y-19302742D01*
X29055434Y-19345677D01*
X27762704Y-19345677D01*
X27870653Y-19278978D01*
X28554308Y-18970099D01*
X28940046Y-18837802D01*
X29371537Y-18698699D01*
X29871856Y-18530056D01*
X30351442Y-18362231D01*
X30480000Y-18315811D01*
X30973741Y-18139367D01*
X31351629Y-18016079D01*
X31655181Y-17936586D01*
X31925916Y-17891532D01*
X32205352Y-17871557D01*
X32469667Y-17867329D01*
X33280694Y-17893775D01*
X33974619Y-17982512D01*
X34594710Y-18141472D01*
X35136667Y-18356318D01*
X35554539Y-18541802D01*
X36010043Y-18731805D01*
X36417123Y-18890647D01*
X36487139Y-18916251D01*
X37494438Y-19348983D01*
X38361055Y-19872032D01*
X38760836Y-20183359D01*
X39292707Y-20671731D01*
X39725023Y-21143311D01*
X40045394Y-21581361D01*
X40241433Y-21969142D01*
X40301333Y-22264614D01*
X40320573Y-22363479D01*
X40405024Y-22415250D01*
X40594783Y-22434565D01*
X40772566Y-22436667D01*
X41072282Y-22419405D01*
X41326966Y-22375201D01*
X41428733Y-22339219D01*
X41561447Y-22243982D01*
X41783872Y-22057982D01*
X42064371Y-21808562D01*
X42354803Y-21538745D01*
X42861537Y-21073964D01*
X43289638Y-20720101D01*
X43667597Y-20456930D01*
X44023905Y-20264225D01*
X44317500Y-20145448D01*
X44806901Y-20007887D01*
X45329450Y-19932755D01*
X45900196Y-19922532D01*
X46534185Y-19979701D01*
X47246465Y-20106741D01*
X48052085Y-20306135D01*
X48966091Y-20580364D01*
X50003531Y-20931908D01*
X50767021Y-21208914D01*
X51239492Y-21384922D01*
X51654486Y-21541230D01*
X51986981Y-21668273D01*
X52211953Y-21756485D01*
X52304379Y-21796301D01*
X52305108Y-21796886D01*
X52279730Y-21881229D01*
X52176579Y-22074887D01*
X52014298Y-22347973D01*
X51811534Y-22670597D01*
X51586930Y-23012873D01*
X51359132Y-23344912D01*
X51210675Y-23551288D01*
X50695922Y-24181733D01*
X50143262Y-24715447D01*
X49526251Y-25169416D01*
X48818445Y-25560625D01*
X47993400Y-25906061D01*
X47074667Y-26207968D01*
X46387260Y-26423966D01*
X45827098Y-26631888D01*
X45354309Y-26850968D01*
X44929022Y-27100440D01*
X44511366Y-27399537D01*
X44365333Y-27514891D01*
X44045300Y-27753694D01*
X43731330Y-27955787D01*
X43473216Y-28090244D01*
X43391667Y-28119601D01*
X43031354Y-28169036D01*
X42559821Y-28159369D01*
X42023840Y-28092429D01*
X41846500Y-28059240D01*
X41658949Y-28034316D01*
X41583990Y-28083021D01*
X41571333Y-28206633D01*
X41530524Y-28370756D01*
X41421749Y-28632081D01*
X41265491Y-28943408D01*
X41201783Y-29058242D01*
X40832234Y-29706718D01*
X41077232Y-31384526D01*
X41206509Y-32387366D01*
X41293031Y-33322096D01*
X41336313Y-34169875D01*
X41335870Y-34911861D01*
X41291216Y-35529213D01*
X41201866Y-36003090D01*
X41196640Y-36021240D01*
X41000480Y-36567421D01*
X40739248Y-37124405D01*
X40450189Y-37615733D01*
X40352979Y-37753187D01*
X40235729Y-37957950D01*
X40095292Y-38275285D01*
X39952970Y-38654383D01*
X39873734Y-38896187D01*
X39559940Y-39795607D01*
X39220182Y-40543471D01*
X38857787Y-41132906D01*
X38688088Y-41344774D01*
X38471784Y-41559536D01*
X38159597Y-41830314D01*
X37796663Y-42119382D01*
X37494633Y-42342338D01*
X37110264Y-42630722D01*
X36777760Y-42910188D01*
X36531805Y-43150345D01*
X36434776Y-43270974D01*
X36317438Y-43482982D01*
X36164034Y-43809113D01*
X35994980Y-44203853D01*
X35839981Y-44596959D01*
X35620387Y-45149611D01*
X35424178Y-45565978D01*
X35232911Y-45873861D01*
X35028144Y-46101062D01*
X34791433Y-46275381D01*
X34687262Y-46334615D01*
X34558376Y-46398312D01*
X34425311Y-46446254D01*
X34262104Y-46480924D01*
X34042792Y-46504803D01*
X33741412Y-46520371D01*
X33332003Y-46530111D01*
X32788602Y-46536504D01*
X32554333Y-46538470D01*
X31995875Y-46539555D01*
X31471136Y-46534364D01*
X31012428Y-46523699D01*
X30652059Y-46508361D01*
X30422338Y-46489148D01*
X30395333Y-46484986D01*
X29906561Y-46359351D01*
X29471595Y-46174930D01*
X29147173Y-45955946D01*
X29139416Y-45948792D01*
X28948896Y-45728704D01*
X28777282Y-45430899D01*
X28611529Y-45027305D01*
X28438593Y-44489849D01*
X28400521Y-44358671D01*
X28244770Y-43842381D01*
X28093338Y-43429994D01*
X28048117Y-43339282D01*
X28694118Y-43339282D01*
X28709684Y-43499380D01*
X28748585Y-43666587D01*
X28791069Y-43815593D01*
X28913667Y-44238333D01*
X28938561Y-43710736D01*
X29139158Y-43710736D01*
X29168191Y-44377101D01*
X29239079Y-44913084D01*
X29350304Y-45306675D01*
X29482598Y-45528130D01*
X29647794Y-45673162D01*
X29759026Y-45714994D01*
X29787938Y-45647239D01*
X29772191Y-45593370D01*
X29663997Y-45217117D01*
X29570965Y-44708669D01*
X29497483Y-44104824D01*
X29447939Y-43442378D01*
X29426722Y-42758127D01*
X29426339Y-42693373D01*
X29424872Y-42560675D01*
X29598054Y-42560675D01*
X29598835Y-42806906D01*
X29618882Y-43441504D01*
X29667488Y-44052152D01*
X29740100Y-44614476D01*
X29832163Y-45104100D01*
X29939125Y-45496652D01*
X30056432Y-45767756D01*
X30175094Y-45891354D01*
X30392608Y-45962965D01*
X30477828Y-45946466D01*
X30480000Y-45933449D01*
X30454904Y-45839462D01*
X30388434Y-45627155D01*
X30293816Y-45338497D01*
X30271499Y-45271785D01*
X30024722Y-44359485D01*
X29863992Y-43378449D01*
X29802870Y-42412975D01*
X29802848Y-42406909D01*
X29972000Y-42406909D01*
X29993221Y-42908065D01*
X30052210Y-43449243D01*
X30141958Y-44002060D01*
X30255454Y-44538133D01*
X30385688Y-45029080D01*
X30525648Y-45446516D01*
X30668326Y-45762059D01*
X30806711Y-45947327D01*
X30853641Y-45976469D01*
X31076209Y-46043738D01*
X31215899Y-46041490D01*
X31242000Y-46005160D01*
X31201435Y-45904454D01*
X31101431Y-45724784D01*
X31077317Y-45685191D01*
X30978303Y-45488165D01*
X30849431Y-45180889D01*
X30711567Y-44814674D01*
X30642874Y-44616864D01*
X30508264Y-44183261D01*
X30419914Y-43797834D01*
X30365411Y-43390108D01*
X30332342Y-42889607D01*
X30330157Y-42841333D01*
X30313157Y-42547973D01*
X30479193Y-42547973D01*
X30491429Y-42905095D01*
X30526875Y-43296517D01*
X30585122Y-43688940D01*
X30607835Y-43806026D01*
X30724095Y-44276187D01*
X30873469Y-44744044D01*
X31043014Y-45181068D01*
X31219784Y-45558730D01*
X31390836Y-45848499D01*
X31543224Y-46021847D01*
X31629905Y-46058667D01*
X31738370Y-46039525D01*
X31750000Y-46025199D01*
X31719222Y-45936867D01*
X31637812Y-45733721D01*
X31522159Y-45456455D01*
X31498854Y-45401546D01*
X31123306Y-44336124D01*
X30856214Y-43168315D01*
X30798985Y-42805635D01*
X30735826Y-42437445D01*
X30667586Y-42167796D01*
X30666661Y-42165800D01*
X30903333Y-42165800D01*
X30922750Y-42412594D01*
X30974832Y-42773612D01*
X31050321Y-43199017D01*
X31139965Y-43638970D01*
X31234505Y-44043633D01*
X31290930Y-44252905D01*
X31421383Y-44665734D01*
X31569609Y-45075533D01*
X31722053Y-45450998D01*
X31865159Y-45760825D01*
X31985372Y-45973710D01*
X32069136Y-46058349D01*
X32072869Y-46058667D01*
X32147284Y-45988863D01*
X32164231Y-45963737D01*
X32421940Y-45963737D01*
X32425047Y-46038260D01*
X32491569Y-46058439D01*
X32506340Y-46058667D01*
X32656638Y-45981787D01*
X32664547Y-45972542D01*
X32938944Y-45972542D01*
X33023260Y-46043881D01*
X33177771Y-46058667D01*
X33320649Y-46040208D01*
X33332108Y-46031863D01*
X33657824Y-46031863D01*
X33718132Y-46056754D01*
X33759112Y-46057370D01*
X33950764Y-46019243D01*
X34015759Y-45988301D01*
X34114834Y-45855699D01*
X34126731Y-45828812D01*
X34375759Y-45828812D01*
X34430135Y-45851118D01*
X34559043Y-45793841D01*
X34707608Y-45686610D01*
X34786215Y-45607200D01*
X34872336Y-45428331D01*
X34960537Y-45114043D01*
X35044370Y-44698035D01*
X35062628Y-44577000D01*
X35221333Y-44577000D01*
X35263667Y-44619333D01*
X35306000Y-44577000D01*
X35263667Y-44534667D01*
X35221333Y-44577000D01*
X35062628Y-44577000D01*
X35096812Y-44350391D01*
X35348333Y-44350391D01*
X35501300Y-43961041D01*
X35563650Y-43790341D01*
X35600580Y-43635489D01*
X35612384Y-43458463D01*
X35599355Y-43221240D01*
X35561787Y-42885796D01*
X35512507Y-42508012D01*
X35458236Y-42105985D01*
X35411739Y-41771278D01*
X35377575Y-41536023D01*
X35360306Y-41432355D01*
X35359541Y-41430220D01*
X35355899Y-41505597D01*
X35352752Y-41723424D01*
X35350307Y-42056821D01*
X35348770Y-42478906D01*
X35348333Y-42883249D01*
X35348333Y-44350391D01*
X35096812Y-44350391D01*
X35117386Y-44214005D01*
X35173134Y-43695653D01*
X35187521Y-43510230D01*
X35206662Y-43070590D01*
X35206028Y-42634613D01*
X35187988Y-42234570D01*
X35154909Y-41902728D01*
X35109158Y-41671356D01*
X35053103Y-41572723D01*
X35045261Y-41571333D01*
X35011334Y-41649770D01*
X34984801Y-41860244D01*
X34969384Y-42165498D01*
X34966993Y-42354500D01*
X34931954Y-43117909D01*
X34834886Y-43924654D01*
X34686921Y-44698793D01*
X34546888Y-45219854D01*
X34460403Y-45504553D01*
X34398803Y-45724072D01*
X34375759Y-45828812D01*
X34126731Y-45828812D01*
X34233959Y-45586479D01*
X34362653Y-45210579D01*
X34490435Y-44757938D01*
X34583943Y-44365333D01*
X34644558Y-44030504D01*
X34696960Y-43632473D01*
X34739316Y-43203821D01*
X34769791Y-42777123D01*
X34786551Y-42384960D01*
X34787763Y-42059907D01*
X34771593Y-41834544D01*
X34736206Y-41741448D01*
X34731694Y-41740667D01*
X34679626Y-41817934D01*
X34628498Y-42020725D01*
X34589206Y-42305525D01*
X34588578Y-42312167D01*
X34456005Y-43369471D01*
X34268848Y-44312284D01*
X34031137Y-45123722D01*
X33770511Y-45741167D01*
X33674787Y-45940428D01*
X33657824Y-46031863D01*
X33332108Y-46031863D01*
X33429455Y-45960972D01*
X33538036Y-45785169D01*
X33638154Y-45571833D01*
X33950689Y-44750427D01*
X34186630Y-43875067D01*
X34327471Y-43019384D01*
X34351030Y-42735500D01*
X34368164Y-42306464D01*
X34359485Y-42036578D01*
X34324554Y-41917571D01*
X34307308Y-41910000D01*
X34238340Y-41922422D01*
X34187147Y-41978949D01*
X34145449Y-42108475D01*
X34104968Y-42339893D01*
X34057426Y-42702097D01*
X34040457Y-42841333D01*
X33981346Y-43260102D01*
X33908337Y-43676978D01*
X33834270Y-44021064D01*
X33810429Y-44111333D01*
X33717131Y-44386345D01*
X33580887Y-44725824D01*
X33422129Y-45085395D01*
X33261288Y-45420678D01*
X33118795Y-45687297D01*
X33015082Y-45840874D01*
X33013274Y-45842767D01*
X32938944Y-45972542D01*
X32664547Y-45972542D01*
X32843071Y-45763859D01*
X32926367Y-45636831D01*
X33387707Y-44731635D01*
X33711861Y-43736124D01*
X33901306Y-42642636D01*
X33904907Y-42608500D01*
X33923428Y-42335573D01*
X33917706Y-42144955D01*
X33892037Y-42080630D01*
X33773993Y-42121339D01*
X33682624Y-42255959D01*
X33605700Y-42511009D01*
X33543537Y-42836296D01*
X33411500Y-43447156D01*
X33217888Y-44111587D01*
X32984787Y-44764051D01*
X32734285Y-45339010D01*
X32635867Y-45529500D01*
X32489721Y-45804330D01*
X32421940Y-45963737D01*
X32164231Y-45963737D01*
X32271850Y-45804182D01*
X32422031Y-45541718D01*
X32450889Y-45487167D01*
X32626511Y-45121178D01*
X32815571Y-44680601D01*
X32980985Y-44252472D01*
X33001013Y-44196000D01*
X33118718Y-43827826D01*
X33228707Y-43428057D01*
X33323307Y-43032596D01*
X33394844Y-42677344D01*
X33435646Y-42398205D01*
X33438040Y-42231082D01*
X33426761Y-42203872D01*
X33309093Y-42174147D01*
X33184951Y-42309211D01*
X33056966Y-42604769D01*
X32943589Y-42992870D01*
X32828987Y-43402795D01*
X32691310Y-43830175D01*
X32543187Y-44242619D01*
X32397247Y-44607736D01*
X32266121Y-44893134D01*
X32162436Y-45066423D01*
X32121070Y-45102421D01*
X32037472Y-45045390D01*
X31930965Y-44839431D01*
X31807084Y-44502544D01*
X31671364Y-44052727D01*
X31529341Y-43507980D01*
X31386548Y-42886302D01*
X31279185Y-42364617D01*
X31209512Y-42243825D01*
X31106250Y-42164000D01*
X31415567Y-42164000D01*
X31465093Y-42439167D01*
X31539486Y-42808665D01*
X31637916Y-43237998D01*
X31747540Y-43676738D01*
X31855518Y-44074457D01*
X31949006Y-44380726D01*
X31984841Y-44480135D01*
X32048296Y-44629611D01*
X32102747Y-44706105D01*
X32159198Y-44693892D01*
X32228652Y-44577246D01*
X32322113Y-44340440D01*
X32450585Y-43967748D01*
X32548148Y-43675086D01*
X32675246Y-43279081D01*
X32786317Y-42908712D01*
X32866749Y-42614021D01*
X32896649Y-42481500D01*
X32954178Y-42164000D01*
X31415567Y-42164000D01*
X31106250Y-42164000D01*
X31086366Y-42148629D01*
X30965865Y-42108715D01*
X30904129Y-42153770D01*
X30903333Y-42165800D01*
X30666661Y-42165800D01*
X30602560Y-42027433D01*
X30585833Y-42015413D01*
X30525986Y-42069832D01*
X30490575Y-42258453D01*
X30479193Y-42547973D01*
X30313157Y-42547973D01*
X30303470Y-42380822D01*
X30266774Y-42065116D01*
X30213505Y-41869723D01*
X30137100Y-41770150D01*
X30035500Y-41741963D01*
X30005797Y-41819240D01*
X29983527Y-42025522D01*
X29972535Y-42320519D01*
X29972000Y-42406909D01*
X29802848Y-42406909D01*
X29802667Y-42357520D01*
X29796864Y-41967010D01*
X29777504Y-41724349D01*
X29741656Y-41608384D01*
X29696833Y-41593351D01*
X29651742Y-41658164D01*
X29621237Y-41828746D01*
X29603836Y-42123462D01*
X29598054Y-42560675D01*
X29424872Y-42560675D01*
X29421409Y-42247515D01*
X29410893Y-41868295D01*
X29396100Y-41584747D01*
X29378342Y-41425906D01*
X29368041Y-41402206D01*
X29308805Y-41453202D01*
X29259771Y-41616218D01*
X29218924Y-41905550D01*
X29184253Y-42335491D01*
X29153746Y-42920337D01*
X29153499Y-42926000D01*
X29139158Y-43710736D01*
X28938561Y-43710736D01*
X28967597Y-43095333D01*
X28991993Y-42628715D01*
X29019524Y-42182814D01*
X29046960Y-41805661D01*
X29071068Y-41545286D01*
X29072991Y-41529000D01*
X29076907Y-41441732D01*
X29050997Y-41504322D01*
X28999860Y-41700831D01*
X28928094Y-42015319D01*
X28914181Y-42079333D01*
X28811919Y-42556319D01*
X28742787Y-42902285D01*
X28704336Y-43151761D01*
X28694118Y-43339282D01*
X28048117Y-43339282D01*
X27922592Y-43087481D01*
X27708899Y-42780815D01*
G37*
G36*
X29623830Y-35399036D02*
G01*
X29793338Y-35540176D01*
X30036357Y-35768406D01*
X30332493Y-36064799D01*
X30564758Y-36307246D01*
X31057258Y-36814869D01*
X31465583Y-37196499D01*
X31807745Y-37461166D01*
X32101754Y-37617903D01*
X32365622Y-37675740D01*
X32617360Y-37643709D01*
X32874978Y-37530841D01*
X32934817Y-37495703D01*
X33099429Y-37375221D01*
X33356810Y-37162843D01*
X33677526Y-36883890D01*
X34032145Y-36563688D01*
X34213696Y-36395353D01*
X34550870Y-36082856D01*
X34845178Y-35815857D01*
X35074496Y-35613971D01*
X35216700Y-35496816D01*
X35251379Y-35475333D01*
X35278302Y-35552844D01*
X35297810Y-35756823D01*
X35305957Y-36044440D01*
X35306000Y-36068000D01*
X35300118Y-36383472D01*
X35276663Y-36565122D01*
X35226918Y-36648228D01*
X35157833Y-36667722D01*
X34888770Y-36695205D01*
X34670822Y-36765330D01*
X34455250Y-36904019D01*
X34193317Y-37137196D01*
X34094517Y-37233277D01*
X33562084Y-37699674D01*
X33067947Y-38008023D01*
X32599532Y-38161791D01*
X32144265Y-38164442D01*
X31689572Y-38019441D01*
X31535259Y-37938493D01*
X31288894Y-37764943D01*
X30984687Y-37504061D01*
X30671974Y-37199615D01*
X30527752Y-37044631D01*
X30283209Y-36783932D01*
X30079089Y-36589734D01*
X29940747Y-36484768D01*
X29895610Y-36477941D01*
X29784219Y-36524310D01*
X29614235Y-36516497D01*
X29488748Y-36484922D01*
X29424632Y-36423286D01*
X29408357Y-36289072D01*
X29426397Y-36039765D01*
X29434853Y-35952733D01*
X29471280Y-35667514D01*
X29514419Y-35451830D01*
X29548226Y-35363909D01*
X29623830Y-35399036D01*
G37*
%TD*%
D10*
%TO.P,H2,1,1*%
%TO.N,GND*%
X44800000Y-15200000D03*
%TD*%
%TO.P,H3,1,1*%
%TO.N,GND*%
X19400000Y-15200000D03*
%TD*%
%TO.P,H4,1,1*%
%TO.N,GND*%
X19400000Y-48600000D03*
%TD*%
%TO.P,H1,1,1*%
%TO.N,GND*%
X44800000Y-48600000D03*
%TD*%
M02*
