%TF.GenerationSoftware,KiCad,Pcbnew,(6.0.10)*%
%TF.CreationDate,2023-01-09T12:49:41-08:00*%
%TF.ProjectId,16Bars,31364261-7273-42e6-9b69-6361645f7063,rev?*%
%TF.SameCoordinates,Original*%
%TF.FileFunction,Soldermask,Top*%
%TF.FilePolarity,Negative*%
%FSLAX46Y46*%
G04 Gerber Fmt 4.6, Leading zero omitted, Abs format (unit mm)*
G04 Created by KiCad (PCBNEW (6.0.10)) date 2023-01-09 12:49:41*
%MOMM*%
%LPD*%
G01*
G04 APERTURE LIST*
%ADD10R,1.270000X1.270000*%
%ADD11C,1.270000*%
%ADD12C,2.000000*%
%ADD13C,2.130000*%
%ADD14R,1.930000X1.830000*%
%ADD15C,3.200000*%
%ADD16C,1.130000*%
%ADD17R,1.130000X1.130000*%
%ADD18O,1.700000X1.700000*%
%ADD19R,1.700000X1.700000*%
%ADD20C,1.600000*%
G04 APERTURE END LIST*
D10*
%TO.C,DS-ONES1*%
X72720000Y-136120000D03*
D11*
X73990000Y-133580000D03*
X75260000Y-136120000D03*
X76530000Y-133580000D03*
X77800000Y-136120000D03*
X77800000Y-128500000D03*
X76530000Y-131040000D03*
X75260000Y-128500000D03*
X73990000Y-131040000D03*
X72720000Y-128500000D03*
%TD*%
D10*
%TO.C,DS-TENS1*%
X63720000Y-136120000D03*
D11*
X64990000Y-133580000D03*
X66260000Y-136120000D03*
X67530000Y-133580000D03*
X68800000Y-136120000D03*
X68800000Y-128500000D03*
X67530000Y-131040000D03*
X66260000Y-128500000D03*
X64990000Y-131040000D03*
X63720000Y-128500000D03*
%TD*%
D12*
%TO.C,SW1*%
X81472400Y-48771600D03*
X76392400Y-48771600D03*
X76392400Y-46231600D03*
X76392400Y-51311600D03*
X81472400Y-46231600D03*
X81472400Y-51311600D03*
X78932400Y-46111600D03*
X78932400Y-51511600D03*
%TD*%
D13*
%TO.C,J1*%
X62000000Y-40320000D03*
X62000000Y-48620000D03*
D14*
X62000000Y-37220000D03*
%TD*%
D15*
%TO.C,REF\u002A\u002A*%
X70500000Y-121000000D03*
%TD*%
D16*
%TO.C,IC3*%
X61110000Y-91470000D03*
X63650000Y-91470000D03*
X66190000Y-91470000D03*
X68730000Y-91470000D03*
X71270000Y-91470000D03*
X73810000Y-91470000D03*
X76350000Y-91470000D03*
X78890000Y-91470000D03*
X78890000Y-83530000D03*
X76350000Y-83530000D03*
X73810000Y-83530000D03*
X71270000Y-83530000D03*
X68730000Y-83530000D03*
X66190000Y-83530000D03*
X63650000Y-83530000D03*
D17*
X61110000Y-83530000D03*
%TD*%
%TO.C,IC1*%
X81500000Y-97460000D03*
D16*
X81500000Y-100000000D03*
X81500000Y-102540000D03*
X81500000Y-105080000D03*
X81500000Y-107620000D03*
X81500000Y-110160000D03*
X81500000Y-112700000D03*
X81500000Y-115240000D03*
X73560000Y-115240000D03*
X73560000Y-112700000D03*
X73560000Y-110160000D03*
X73560000Y-107620000D03*
X73560000Y-105080000D03*
X73560000Y-102540000D03*
X73560000Y-100000000D03*
X73560000Y-97460000D03*
%TD*%
D18*
%TO.C,J2*%
X70859600Y-38735000D03*
X70859600Y-41275000D03*
X73399600Y-38735000D03*
X73399600Y-41275000D03*
X75939600Y-38735000D03*
X75939600Y-41275000D03*
X78479600Y-38735000D03*
X78479600Y-41275000D03*
X81019600Y-38735000D03*
D19*
X81019600Y-41275000D03*
%TD*%
D16*
%TO.C,IC2*%
X59560000Y-97460000D03*
X59560000Y-100000000D03*
X59560000Y-102540000D03*
X59560000Y-105080000D03*
X59560000Y-107620000D03*
X59560000Y-110160000D03*
X59560000Y-112700000D03*
X59560000Y-115240000D03*
X67500000Y-115240000D03*
X67500000Y-112700000D03*
X67500000Y-110160000D03*
X67500000Y-107620000D03*
X67500000Y-105080000D03*
X67500000Y-102540000D03*
X67500000Y-100000000D03*
D17*
X67500000Y-97460000D03*
%TD*%
D20*
%TO.C,C1*%
X72000000Y-48000000D03*
X72000000Y-46000000D03*
%TD*%
M02*
