%TF.GenerationSoftware,KiCad,Pcbnew,(6.0.10)*%
%TF.CreationDate,2023-01-09T12:33:07-08:00*%
%TF.ProjectId,16Bars,31364261-7273-42e6-9b69-6361645f7063,rev?*%
%TF.SameCoordinates,Original*%
%TF.FileFunction,Soldermask,Bot*%
%TF.FilePolarity,Negative*%
%FSLAX46Y46*%
G04 Gerber Fmt 4.6, Leading zero omitted, Abs format (unit mm)*
G04 Created by KiCad (PCBNEW (6.0.10)) date 2023-01-09 12:33:07*
%MOMM*%
%LPD*%
G01*
G04 APERTURE LIST*
G04 Aperture macros list*
%AMRoundRect*
0 Rectangle with rounded corners*
0 $1 Rounding radius*
0 $2 $3 $4 $5 $6 $7 $8 $9 X,Y pos of 4 corners*
0 Add a 4 corners polygon primitive as box body*
4,1,4,$2,$3,$4,$5,$6,$7,$8,$9,$2,$3,0*
0 Add four circle primitives for the rounded corners*
1,1,$1+$1,$2,$3*
1,1,$1+$1,$4,$5*
1,1,$1+$1,$6,$7*
1,1,$1+$1,$8,$9*
0 Add four rect primitives between the rounded corners*
20,1,$1+$1,$2,$3,$4,$5,0*
20,1,$1+$1,$4,$5,$6,$7,0*
20,1,$1+$1,$6,$7,$8,$9,0*
20,1,$1+$1,$8,$9,$2,$3,0*%
%AMFreePoly0*
4,1,9,3.862500,-0.866500,0.737500,-0.866500,0.737500,-0.450000,-0.737500,-0.450000,-0.737500,0.450000,0.737500,0.450000,0.737500,0.866500,3.862500,0.866500,3.862500,-0.866500,3.862500,-0.866500,$1*%
G04 Aperture macros list end*
%ADD10RoundRect,0.218750X0.218750X0.256250X-0.218750X0.256250X-0.218750X-0.256250X0.218750X-0.256250X0*%
%ADD11RoundRect,0.135000X0.135000X0.185000X-0.135000X0.185000X-0.135000X-0.185000X0.135000X-0.185000X0*%
%ADD12R,0.900000X1.300000*%
%ADD13FreePoly0,270.000000*%
%ADD14FreePoly0,90.000000*%
%ADD15R,1.270000X1.270000*%
%ADD16C,1.270000*%
%ADD17C,2.000000*%
%ADD18C,2.130000*%
%ADD19R,1.930000X1.830000*%
%ADD20C,3.200000*%
%ADD21C,1.130000*%
%ADD22R,1.130000X1.130000*%
%ADD23R,0.600000X0.450000*%
%ADD24RoundRect,0.135000X-0.135000X-0.185000X0.135000X-0.185000X0.135000X0.185000X-0.135000X0.185000X0*%
%ADD25RoundRect,0.140000X0.140000X0.170000X-0.140000X0.170000X-0.140000X-0.170000X0.140000X-0.170000X0*%
%ADD26RoundRect,0.140000X-0.140000X-0.170000X0.140000X-0.170000X0.140000X0.170000X-0.140000X0.170000X0*%
%ADD27O,1.700000X1.700000*%
%ADD28R,1.700000X1.700000*%
%ADD29C,1.600000*%
G04 APERTURE END LIST*
D10*
%TO.C,D2*%
X72923500Y-51816000D03*
X71348500Y-51816000D03*
%TD*%
D11*
%TO.C,R18*%
X82298000Y-91440000D03*
X81278000Y-91440000D03*
%TD*%
D12*
%TO.C,Q1*%
X73440000Y-56580000D03*
D13*
X74940000Y-56667500D03*
D12*
X76440000Y-56580000D03*
%TD*%
%TO.C,Q2*%
X63720000Y-56580000D03*
D13*
X65220000Y-56667500D03*
D12*
X66720000Y-56580000D03*
%TD*%
%TO.C,Q3*%
X76176000Y-68198000D03*
D14*
X74676000Y-68110500D03*
D12*
X73176000Y-68198000D03*
%TD*%
%TO.C,Q4*%
X73176000Y-71248000D03*
D13*
X74676000Y-71335500D03*
D12*
X76176000Y-71248000D03*
%TD*%
%TO.C,Q5*%
X66778000Y-68452000D03*
D14*
X65278000Y-68364500D03*
D12*
X63778000Y-68452000D03*
%TD*%
%TO.C,Q6*%
X63640000Y-71080000D03*
D13*
X65140000Y-71167500D03*
D12*
X66640000Y-71080000D03*
%TD*%
D11*
%TO.C,R17*%
X59180000Y-67310000D03*
X60200000Y-67310000D03*
%TD*%
D15*
%TO.C,DS-ONES1*%
X72720000Y-136120000D03*
D16*
X73990000Y-133580000D03*
X75260000Y-136120000D03*
X76530000Y-133580000D03*
X77800000Y-136120000D03*
X77800000Y-128500000D03*
X76530000Y-131040000D03*
X75260000Y-128500000D03*
X73990000Y-131040000D03*
X72720000Y-128500000D03*
%TD*%
D15*
%TO.C,DS-TENS1*%
X63720000Y-136120000D03*
D16*
X64990000Y-133580000D03*
X66260000Y-136120000D03*
X67530000Y-133580000D03*
X68800000Y-136120000D03*
X68800000Y-128500000D03*
X67530000Y-131040000D03*
X66260000Y-128500000D03*
X64990000Y-131040000D03*
X63720000Y-128500000D03*
%TD*%
D11*
%TO.C,R16*%
X80770000Y-56896000D03*
X81790000Y-56896000D03*
%TD*%
D17*
%TO.C,SW1*%
X81472400Y-48771600D03*
X76392400Y-48771600D03*
X76392400Y-46231600D03*
X76392400Y-51311600D03*
X81472400Y-46231600D03*
X81472400Y-51311600D03*
X78932400Y-46111600D03*
X78932400Y-51511600D03*
%TD*%
D18*
%TO.C,J1*%
X62000000Y-40320000D03*
X62000000Y-48620000D03*
D19*
X62000000Y-37220000D03*
%TD*%
D20*
%TO.C,REF\u002A\u002A*%
X70500000Y-121000000D03*
%TD*%
D21*
%TO.C,IC3*%
X61110000Y-91470000D03*
X63650000Y-91470000D03*
X66190000Y-91470000D03*
X68730000Y-91470000D03*
X71270000Y-91470000D03*
X73810000Y-91470000D03*
X76350000Y-91470000D03*
X78890000Y-91470000D03*
X78890000Y-83530000D03*
X76350000Y-83530000D03*
X73810000Y-83530000D03*
X71270000Y-83530000D03*
X68730000Y-83530000D03*
X66190000Y-83530000D03*
X63650000Y-83530000D03*
D22*
X61110000Y-83530000D03*
%TD*%
D23*
%TO.C,D1*%
X61050000Y-52650000D03*
X58950000Y-52650000D03*
%TD*%
D24*
%TO.C,R9*%
X76010000Y-81000000D03*
X74990000Y-81000000D03*
%TD*%
D25*
%TO.C,C3*%
X59120000Y-94000000D03*
X60080000Y-94000000D03*
%TD*%
D11*
%TO.C,R2*%
X69990000Y-106190000D03*
X71010000Y-106190000D03*
%TD*%
D22*
%TO.C,IC1*%
X81500000Y-97460000D03*
D21*
X81500000Y-100000000D03*
X81500000Y-102540000D03*
X81500000Y-105080000D03*
X81500000Y-107620000D03*
X81500000Y-110160000D03*
X81500000Y-112700000D03*
X81500000Y-115240000D03*
X73560000Y-115240000D03*
X73560000Y-112700000D03*
X73560000Y-110160000D03*
X73560000Y-107620000D03*
X73560000Y-105080000D03*
X73560000Y-102540000D03*
X73560000Y-100000000D03*
X73560000Y-97460000D03*
%TD*%
D25*
%TO.C,C4*%
X73000000Y-95000000D03*
X73960000Y-95000000D03*
%TD*%
D11*
%TO.C,R13*%
X60850000Y-64000000D03*
X61870000Y-64000000D03*
%TD*%
%TO.C,R6*%
X77722000Y-94500000D03*
X78742000Y-94500000D03*
%TD*%
%TO.C,R5*%
X63990000Y-52500000D03*
X65010000Y-52500000D03*
%TD*%
D24*
%TO.C,R15*%
X80012000Y-54610000D03*
X78992000Y-54610000D03*
%TD*%
D26*
%TO.C,C2*%
X63480000Y-94000000D03*
X62520000Y-94000000D03*
%TD*%
D24*
%TO.C,R12*%
X73154000Y-53594000D03*
X72134000Y-53594000D03*
%TD*%
%TO.C,R3*%
X70910000Y-101500000D03*
X69890000Y-101500000D03*
%TD*%
D27*
%TO.C,J2*%
X70859600Y-38735000D03*
X70859600Y-41275000D03*
X73399600Y-38735000D03*
X73399600Y-41275000D03*
X75939600Y-38735000D03*
X75939600Y-41275000D03*
X78479600Y-38735000D03*
X78479600Y-41275000D03*
X81019600Y-38735000D03*
D28*
X81019600Y-41275000D03*
%TD*%
D11*
%TO.C,R11*%
X70200000Y-110500000D03*
X71220000Y-110500000D03*
%TD*%
%TO.C,R10*%
X79210000Y-68000000D03*
X80230000Y-68000000D03*
%TD*%
D21*
%TO.C,IC2*%
X59560000Y-97460000D03*
X59560000Y-100000000D03*
X59560000Y-102540000D03*
X59560000Y-105080000D03*
X59560000Y-107620000D03*
X59560000Y-110160000D03*
X59560000Y-112700000D03*
X59560000Y-115240000D03*
X67500000Y-115240000D03*
X67500000Y-112700000D03*
X67500000Y-110160000D03*
X67500000Y-107620000D03*
X67500000Y-105080000D03*
X67500000Y-102540000D03*
X67500000Y-100000000D03*
D22*
X67500000Y-97460000D03*
%TD*%
D29*
%TO.C,C1*%
X72000000Y-48000000D03*
X72000000Y-46000000D03*
%TD*%
D11*
%TO.C,R7*%
X60850000Y-57500000D03*
X61870000Y-57500000D03*
%TD*%
%TO.C,R8*%
X79210000Y-61500000D03*
X80230000Y-61500000D03*
%TD*%
%TO.C,R1*%
X80008000Y-94500000D03*
X81028000Y-94500000D03*
%TD*%
%TO.C,R4*%
X69790000Y-98600000D03*
X70810000Y-98600000D03*
%TD*%
D24*
%TO.C,R14*%
X61724000Y-71770000D03*
X60704000Y-71770000D03*
%TD*%
M02*
