M48
; DRILL file {KiCad (6.0.10)} date Mon Jan  9 12:49:39 2023
; FORMAT={-:-/ absolute / inch / decimal}
; #@! TF.CreationDate,2023-01-09T12:49:39-08:00
; #@! TF.GenerationSoftware,Kicad,Pcbnew,(6.0.10)
; #@! TF.FileFunction,Plated,1,2,PTH
FMAT,2
INCH
; #@! TA.AperFunction,Plated,PTH,ViaDrill
T1C0.0157
; #@! TA.AperFunction,Plated,PTH,ComponentDrill
T2C0.0287
; #@! TA.AperFunction,Plated,PTH,ComponentDrill
T3C0.0300
; #@! TA.AperFunction,Plated,PTH,ComponentDrill
T4C0.0315
; #@! TA.AperFunction,Plated,PTH,ComponentDrill
T5C0.0394
; #@! TA.AperFunction,Plated,PTH,ComponentDrill
T6C0.0433
; #@! TA.AperFunction,Plated,PTH,ComponentDrill
T7C0.0480
; #@! TA.AperFunction,Plated,PTH,ComponentDrill
T8C0.0559
; #@! TA.AperFunction,Plated,PTH,ComponentDrill
T9C0.0563
%
G90
G05
T1
X2.31Y-2.77
X2.41Y-3.49
X2.46Y-2.64
X2.59Y-4.76
X2.73Y-2.04
X2.75Y-2.39
X2.75Y-2.77
X2.78Y-4.08
X2.81Y-2.27
X3.05Y-3.83
X3.07Y-2.76
X3.1Y-3.67
X3.11Y-2.3
X3.11Y-2.53
X3.2Y-3.45
X3.21Y-2.13
X3.24Y-3.67
T2
X2.3449Y-3.837
X2.3449Y-3.937
X2.3449Y-4.037
X2.3449Y-4.137
X2.3449Y-4.237
X2.3449Y-4.337
X2.3449Y-4.437
X2.3449Y-4.537
X2.4059Y-3.2886
X2.4059Y-3.6012
X2.5059Y-3.2886
X2.5059Y-3.6012
X2.6059Y-3.2886
X2.6059Y-3.6012
X2.6575Y-3.837
X2.6575Y-3.937
X2.6575Y-4.037
X2.6575Y-4.137
X2.6575Y-4.237
X2.6575Y-4.337
X2.6575Y-4.437
X2.6575Y-4.537
X2.7059Y-3.2886
X2.7059Y-3.6012
X2.8059Y-3.2886
X2.8059Y-3.6012
X2.8961Y-3.837
X2.8961Y-3.937
X2.8961Y-4.037
X2.8961Y-4.137
X2.8961Y-4.237
X2.8961Y-4.337
X2.8961Y-4.437
X2.8961Y-4.537
X2.9059Y-3.2886
X2.9059Y-3.6012
X3.0059Y-3.2886
X3.0059Y-3.6012
X3.1059Y-3.2886
X3.1059Y-3.6012
X3.2087Y-3.837
X3.2087Y-3.937
X3.2087Y-4.037
X3.2087Y-4.137
X3.2087Y-4.237
X3.2087Y-4.337
X3.2087Y-4.437
X3.2087Y-4.537
T3
X2.5087Y-5.0591
X2.5087Y-5.3591
X2.5587Y-5.1591
X2.5587Y-5.2591
X2.6087Y-5.0591
X2.6087Y-5.3591
X2.6587Y-5.1591
X2.6587Y-5.2591
X2.7087Y-5.0591
X2.7087Y-5.3591
X2.863Y-5.0591
X2.863Y-5.3591
X2.913Y-5.1591
X2.913Y-5.2591
X2.963Y-5.0591
X2.963Y-5.3591
X3.013Y-5.1591
X3.013Y-5.2591
X3.063Y-5.0591
X3.063Y-5.3591
T4
X2.8346Y-1.811
X2.8346Y-1.8898
T5
X2.7897Y-1.525
X2.7897Y-1.625
X2.8897Y-1.525
X2.8897Y-1.625
X2.9897Y-1.525
X2.9897Y-1.625
X3.0897Y-1.525
X3.0897Y-1.625
X3.1897Y-1.525
X3.1897Y-1.625
T6
X3.0076Y-1.8201
X3.0076Y-2.0201
X3.1076Y-1.8154
X3.1076Y-2.028
X3.2076Y-1.8201
X3.2076Y-2.0201
T7
X2.4409Y-1.4654
T8
X2.4409Y-1.5874
T9
X2.4409Y-1.9142
T0
M30
