%TF.GenerationSoftware,KiCad,Pcbnew,(6.0.10)*%
%TF.CreationDate,2023-01-09T12:33:07-08:00*%
%TF.ProjectId,16Bars,31364261-7273-42e6-9b69-6361645f7063,rev?*%
%TF.SameCoordinates,Original*%
%TF.FileFunction,Copper,L1,Top*%
%TF.FilePolarity,Positive*%
%FSLAX46Y46*%
G04 Gerber Fmt 4.6, Leading zero omitted, Abs format (unit mm)*
G04 Created by KiCad (PCBNEW (6.0.10)) date 2023-01-09 12:33:07*
%MOMM*%
%LPD*%
G01*
G04 APERTURE LIST*
%TA.AperFunction,ComponentPad*%
%ADD10R,1.270000X1.270000*%
%TD*%
%TA.AperFunction,ComponentPad*%
%ADD11C,1.270000*%
%TD*%
%TA.AperFunction,WasherPad*%
%ADD12C,2.000000*%
%TD*%
%TA.AperFunction,ComponentPad*%
%ADD13C,2.000000*%
%TD*%
%TA.AperFunction,ComponentPad*%
%ADD14C,2.130000*%
%TD*%
%TA.AperFunction,ComponentPad*%
%ADD15R,1.930000X1.830000*%
%TD*%
%TA.AperFunction,ComponentPad*%
%ADD16C,1.130000*%
%TD*%
%TA.AperFunction,ComponentPad*%
%ADD17R,1.130000X1.130000*%
%TD*%
%TA.AperFunction,ComponentPad*%
%ADD18O,1.700000X1.700000*%
%TD*%
%TA.AperFunction,ComponentPad*%
%ADD19R,1.700000X1.700000*%
%TD*%
%TA.AperFunction,ComponentPad*%
%ADD20C,1.600000*%
%TD*%
%TA.AperFunction,ViaPad*%
%ADD21C,0.800000*%
%TD*%
%TA.AperFunction,Conductor*%
%ADD22C,0.250000*%
%TD*%
G04 APERTURE END LIST*
D10*
%TO.P,DS-ONES1,1,E*%
%TO.N,/E1*%
X72720000Y-136120000D03*
D11*
%TO.P,DS-ONES1,2,D*%
%TO.N,/D1*%
X73990000Y-133580000D03*
%TO.P,DS-ONES1,3,A(C)_1*%
%TO.N,GND*%
X75260000Y-136120000D03*
%TO.P,DS-ONES1,4,C*%
%TO.N,/C1*%
X76530000Y-133580000D03*
%TO.P,DS-ONES1,5,DP*%
%TO.N,GND*%
X77800000Y-136120000D03*
%TO.P,DS-ONES1,6,B*%
%TO.N,/B1*%
X77800000Y-128500000D03*
%TO.P,DS-ONES1,7,A*%
%TO.N,/A1*%
X76530000Y-131040000D03*
%TO.P,DS-ONES1,8,A(C)_2*%
%TO.N,GND*%
X75260000Y-128500000D03*
%TO.P,DS-ONES1,9,G*%
%TO.N,/G1*%
X73990000Y-131040000D03*
%TO.P,DS-ONES1,10,F*%
%TO.N,/F1*%
X72720000Y-128500000D03*
%TD*%
D10*
%TO.P,DS-TENS1,1,E*%
%TO.N,/E2*%
X63720000Y-136120000D03*
D11*
%TO.P,DS-TENS1,2,D*%
%TO.N,/D2*%
X64990000Y-133580000D03*
%TO.P,DS-TENS1,3,A(C)_1*%
%TO.N,GND*%
X66260000Y-136120000D03*
%TO.P,DS-TENS1,4,C*%
%TO.N,/C2*%
X67530000Y-133580000D03*
%TO.P,DS-TENS1,5,DP*%
%TO.N,GND*%
X68800000Y-136120000D03*
%TO.P,DS-TENS1,6,B*%
%TO.N,/B2*%
X68800000Y-128500000D03*
%TO.P,DS-TENS1,7,A*%
%TO.N,/A2*%
X67530000Y-131040000D03*
%TO.P,DS-TENS1,8,A(C)_2*%
%TO.N,GND*%
X66260000Y-128500000D03*
%TO.P,DS-TENS1,9,G*%
%TO.N,/G2*%
X64990000Y-131040000D03*
%TO.P,DS-TENS1,10,F*%
%TO.N,/F2*%
X63720000Y-128500000D03*
%TD*%
D12*
%TO.P,SW1,*%
%TO.N,*%
X81472400Y-48771600D03*
X76392400Y-48771600D03*
D13*
%TO.P,SW1,1,1*%
%TO.N,unconnected-(SW1-Pad1)*%
X76392400Y-46231600D03*
%TO.P,SW1,2,2*%
%TO.N,Net-(R16-Pad2)*%
X76392400Y-51311600D03*
%TO.P,SW1,3,3*%
%TO.N,unconnected-(SW1-Pad3)*%
X81472400Y-46231600D03*
%TO.P,SW1,4,4*%
%TO.N,/16_BARS_RESET*%
X81472400Y-51311600D03*
%TO.P,SW1,L1,L1*%
%TO.N,Net-(Q2-Pad1)*%
X78932400Y-46111600D03*
%TO.P,SW1,L2,L2*%
%TO.N,Net-(R15-Pad2)*%
X78932400Y-51511600D03*
%TD*%
D14*
%TO.P,J1,TN*%
%TO.N,N/C*%
X62000000Y-40320000D03*
%TO.P,J1,T*%
%TO.N,Net-(D1-Pad2)*%
X62000000Y-48620000D03*
D15*
%TO.P,J1,S*%
%TO.N,GND*%
X62000000Y-37220000D03*
%TD*%
D16*
%TO.P,IC3,16,VDD*%
%TO.N,+12V*%
X61110000Y-91470000D03*
%TO.P,IC3,15,CLOCK*%
%TO.N,CLOCK_IN*%
X63650000Y-91470000D03*
%TO.P,IC3,14,Q3*%
%TO.N,GND*%
X66190000Y-91470000D03*
%TO.P,IC3,13,P3*%
X68730000Y-91470000D03*
%TO.P,IC3,12,P2*%
X71270000Y-91470000D03*
%TO.P,IC3,11,Q2*%
X73810000Y-91470000D03*
%TO.P,IC3,10,UP/DOWN*%
%TO.N,Net-(IC3-Pad10)*%
X76350000Y-91470000D03*
%TO.P,IC3,9,RESET*%
%TO.N,/16_BARS_RESET*%
X78890000Y-91470000D03*
%TO.P,IC3,8,VSS*%
%TO.N,GND*%
X78890000Y-83530000D03*
%TO.P,IC3,7,~{CARRYOUT}*%
%TO.N,unconnected-(IC3-Pad7)*%
X76350000Y-83530000D03*
%TO.P,IC3,6,Q1*%
%TO.N,GND*%
X73810000Y-83530000D03*
%TO.P,IC3,5,~{CARRYIN}*%
%TO.N,Net-(IC3-Pad5)*%
X71270000Y-83530000D03*
%TO.P,IC3,4,P1*%
%TO.N,GND*%
X68730000Y-83530000D03*
%TO.P,IC3,3,P4*%
X66190000Y-83530000D03*
%TO.P,IC3,2,Q4*%
%TO.N,CLOCK_BAR*%
X63650000Y-83530000D03*
D17*
%TO.P,IC3,1,PRESETENABLE*%
%TO.N,GND*%
X61110000Y-83530000D03*
%TD*%
%TO.P,IC1,1,CLOCK*%
%TO.N,CLOCK_BAR*%
X81500000Y-97460000D03*
D16*
%TO.P,IC1,2,CLOCKINHIBIT*%
%TO.N,Net-(IC1-Pad2)*%
X81500000Y-100000000D03*
%TO.P,IC1,3,RIPPLEBLANKINGIN*%
%TO.N,unconnected-(IC1-Pad3)*%
X81500000Y-102540000D03*
%TO.P,IC1,4,RIPPLEBLANKINGOUT*%
%TO.N,unconnected-(IC1-Pad4)*%
X81500000Y-105080000D03*
%TO.P,IC1,5,CARRYOUT*%
%TO.N,CARRY_1*%
X81500000Y-107620000D03*
%TO.P,IC1,6,F*%
%TO.N,/F1*%
X81500000Y-110160000D03*
%TO.P,IC1,7,G*%
%TO.N,/G1*%
X81500000Y-112700000D03*
%TO.P,IC1,8,VSS*%
%TO.N,GND*%
X81500000Y-115240000D03*
%TO.P,IC1,9,D*%
%TO.N,/D1*%
X73560000Y-115240000D03*
%TO.P,IC1,10,A*%
%TO.N,/A1*%
X73560000Y-112700000D03*
%TO.P,IC1,11,E*%
%TO.N,/E1*%
X73560000Y-110160000D03*
%TO.P,IC1,12,B*%
%TO.N,/B1*%
X73560000Y-107620000D03*
%TO.P,IC1,13,C*%
%TO.N,/C1*%
X73560000Y-105080000D03*
%TO.P,IC1,14,LAMPTEST*%
%TO.N,GND*%
X73560000Y-102540000D03*
%TO.P,IC1,15,RESET*%
%TO.N,/16_BARS_RESET*%
X73560000Y-100000000D03*
%TO.P,IC1,16,VDD*%
%TO.N,+12V*%
X73560000Y-97460000D03*
%TD*%
D18*
%TO.P,J2,10,Pin_10*%
%TO.N,unconnected-(J2-Pad10)*%
X70859600Y-38735000D03*
%TO.P,J2,9,Pin_9*%
%TO.N,unconnected-(J2-Pad9)*%
X70859600Y-41275000D03*
%TO.P,J2,8,Pin_8*%
%TO.N,GND*%
X73399600Y-38735000D03*
%TO.P,J2,7,Pin_7*%
X73399600Y-41275000D03*
%TO.P,J2,6,Pin_6*%
X75939600Y-38735000D03*
%TO.P,J2,5,Pin_5*%
X75939600Y-41275000D03*
%TO.P,J2,4,Pin_4*%
X78479600Y-38735000D03*
%TO.P,J2,3,Pin_3*%
X78479600Y-41275000D03*
%TO.P,J2,2,Pin_2*%
%TO.N,+12V*%
X81019600Y-38735000D03*
D19*
%TO.P,J2,1,Pin_1*%
X81019600Y-41275000D03*
%TD*%
D16*
%TO.P,IC2,16,VDD*%
%TO.N,+12V*%
X59560000Y-97460000D03*
%TO.P,IC2,15,RESET*%
%TO.N,/16_BARS_RESET*%
X59560000Y-100000000D03*
%TO.P,IC2,14,LAMPTEST*%
%TO.N,unconnected-(IC2-Pad14)*%
X59560000Y-102540000D03*
%TO.P,IC2,13,C*%
%TO.N,/C2*%
X59560000Y-105080000D03*
%TO.P,IC2,12,B*%
%TO.N,/B2*%
X59560000Y-107620000D03*
%TO.P,IC2,11,E*%
%TO.N,/E2*%
X59560000Y-110160000D03*
%TO.P,IC2,10,A*%
%TO.N,/A2*%
X59560000Y-112700000D03*
%TO.P,IC2,9,D*%
%TO.N,/D2*%
X59560000Y-115240000D03*
%TO.P,IC2,8,VSS*%
%TO.N,GND*%
X67500000Y-115240000D03*
%TO.P,IC2,7,G*%
%TO.N,/G2*%
X67500000Y-112700000D03*
%TO.P,IC2,6,F*%
%TO.N,/F2*%
X67500000Y-110160000D03*
%TO.P,IC2,5,CARRYOUT*%
%TO.N,unconnected-(IC2-Pad5)*%
X67500000Y-107620000D03*
%TO.P,IC2,4,RIPPLEBLANKINGOUT*%
%TO.N,unconnected-(IC2-Pad4)*%
X67500000Y-105080000D03*
%TO.P,IC2,3,RIPPLEBLANKINGIN*%
%TO.N,unconnected-(IC2-Pad3)*%
X67500000Y-102540000D03*
%TO.P,IC2,2,CLOCKINHIBIT*%
%TO.N,Net-(IC2-Pad2)*%
X67500000Y-100000000D03*
D17*
%TO.P,IC2,1,CLOCK*%
%TO.N,CARRY_1*%
X67500000Y-97460000D03*
%TD*%
D20*
%TO.P,C1,2*%
%TO.N,GND*%
X72000000Y-48000000D03*
%TO.P,C1,1*%
%TO.N,+12V*%
X72000000Y-46000000D03*
%TD*%
D21*
%TO.N,GND*%
X78994000Y-64262000D03*
%TO.N,+12V*%
X69342000Y-51816000D03*
X69850000Y-60706000D03*
X82296000Y-93218000D03*
%TO.N,GND*%
X77978000Y-70104000D03*
%TO.N,/16_BARS_RESET*%
X62484000Y-67056000D03*
%TO.N,GND*%
X78994000Y-58420000D03*
X58674000Y-70358000D03*
X69850000Y-70358000D03*
%TO.N,CLOCK_IN*%
X71374000Y-57658000D03*
%TO.N,GND*%
X70612000Y-103632000D03*
%TO.N,Net-(R16-Pad2)*%
X81534000Y-54102000D03*
%TO.N,GND*%
X77470000Y-97282000D03*
X78740000Y-93218000D03*
X61214000Y-88646000D03*
X81280000Y-87630000D03*
X65786000Y-120904000D03*
%TD*%
D22*
%TO.N,GND*%
X77978000Y-65278000D02*
X78994000Y-64262000D01*
X77978000Y-70104000D02*
X77978000Y-65278000D01*
%TO.N,/16_BARS_RESET*%
X82472400Y-52311600D02*
X82472400Y-56056400D01*
X82472400Y-56056400D02*
X82472400Y-87887600D01*
X82296000Y-55880000D02*
X82472400Y-56056400D01*
X68580000Y-60960000D02*
X68580000Y-55880000D01*
X68580000Y-55880000D02*
X82296000Y-55880000D01*
X62484000Y-67056000D02*
X68580000Y-60960000D01*
%TO.N,GND*%
X78994000Y-64262000D02*
X78994000Y-58420000D01*
X58674000Y-70358000D02*
X69850000Y-70358000D01*
%TO.N,/16_BARS_RESET*%
X60450000Y-100890000D02*
X59560000Y-100000000D01*
X71830000Y-100890000D02*
X60450000Y-100890000D01*
X72136000Y-100584000D02*
X71830000Y-100890000D01*
X69850000Y-102870000D02*
X72720000Y-100000000D01*
X69850000Y-105411349D02*
X69850000Y-102870000D01*
X70864651Y-106426000D02*
X69850000Y-105411349D01*
X78575349Y-106426000D02*
X70864651Y-106426000D01*
X80481000Y-104520349D02*
X78575349Y-106426000D01*
X72720000Y-100000000D02*
X73560000Y-100000000D01*
X80481000Y-89879000D02*
X80481000Y-104520349D01*
X80481000Y-89879000D02*
X78890000Y-91470000D01*
X82472400Y-87887600D02*
X80481000Y-89879000D01*
X81472400Y-51311600D02*
X82472400Y-52311600D01*
%TO.N,CLOCK_IN*%
X63650000Y-87351349D02*
X63650000Y-91470000D01*
X71374000Y-79627349D02*
X63650000Y-87351349D01*
X71374000Y-57658000D02*
X71374000Y-79627349D01*
%TO.N,GND*%
X71186651Y-103632000D02*
X77470000Y-97348651D01*
X77470000Y-97348651D02*
X77470000Y-97282000D01*
X70612000Y-103632000D02*
X71186651Y-103632000D01*
%TO.N,Net-(R16-Pad2)*%
X79182800Y-54102000D02*
X76392400Y-51311600D01*
X81534000Y-54102000D02*
X79182800Y-54102000D01*
%TO.N,GND*%
X76104000Y-92360000D02*
X76042000Y-92360000D01*
X76200000Y-96012000D02*
X76200000Y-92456000D01*
X67080000Y-92360000D02*
X76042000Y-92360000D01*
X77470000Y-97282000D02*
X76200000Y-96012000D01*
X76042000Y-92360000D02*
X76718651Y-92360000D01*
X76200000Y-92456000D02*
X76104000Y-92360000D01*
X77576651Y-93218000D02*
X76718651Y-92360000D01*
X78740000Y-93218000D02*
X77576651Y-93218000D01*
X65300000Y-92360000D02*
X66190000Y-91470000D01*
X63281349Y-92360000D02*
X65300000Y-92360000D01*
X61214000Y-90292651D02*
X63281349Y-92360000D01*
X61214000Y-88646000D02*
X61214000Y-90292651D01*
X81280000Y-87798651D02*
X81280000Y-87630000D01*
X76718651Y-92360000D02*
X81280000Y-87798651D01*
X66190000Y-91470000D02*
X67080000Y-92360000D01*
X75260000Y-128500000D02*
X75260000Y-121480000D01*
X75260000Y-121480000D02*
X81500000Y-115240000D01*
X74300000Y-127540000D02*
X75260000Y-128500000D01*
X72422000Y-127540000D02*
X74300000Y-127540000D01*
X65786000Y-120904000D02*
X72422000Y-127540000D01*
%TD*%
%TA.AperFunction,Conductor*%
%TO.N,+12V*%
G36*
X84433621Y-35528502D02*
G01*
X84480114Y-35582158D01*
X84491500Y-35634500D01*
X84491500Y-139365500D01*
X84471498Y-139433621D01*
X84417842Y-139480114D01*
X84365500Y-139491500D01*
X57134500Y-139491500D01*
X57066379Y-139471498D01*
X57019886Y-139417842D01*
X57008500Y-139365500D01*
X57008500Y-136803134D01*
X62576500Y-136803134D01*
X62583255Y-136865316D01*
X62634385Y-137001705D01*
X62721739Y-137118261D01*
X62838295Y-137205615D01*
X62974684Y-137256745D01*
X63036866Y-137263500D01*
X64403134Y-137263500D01*
X64465316Y-137256745D01*
X64601705Y-137205615D01*
X64718261Y-137118261D01*
X64805615Y-137001705D01*
X64856745Y-136865316D01*
X64863500Y-136803134D01*
X64863500Y-136147536D01*
X64877650Y-136099344D01*
X64877141Y-136098300D01*
X65101567Y-136098300D01*
X65110396Y-136112038D01*
X65115230Y-136139295D01*
X65125740Y-136299649D01*
X65177471Y-136503343D01*
X65179890Y-136508590D01*
X65263038Y-136688953D01*
X65263041Y-136688958D01*
X65265457Y-136694199D01*
X65386751Y-136865825D01*
X65537289Y-137012474D01*
X65542085Y-137015679D01*
X65542088Y-137015681D01*
X65612499Y-137062728D01*
X65712031Y-137129233D01*
X65717339Y-137131514D01*
X65717340Y-137131514D01*
X65899822Y-137209914D01*
X65899825Y-137209915D01*
X65905125Y-137212192D01*
X65910754Y-137213466D01*
X65910755Y-137213466D01*
X66104467Y-137257299D01*
X66104473Y-137257300D01*
X66110104Y-137258574D01*
X66115875Y-137258801D01*
X66115877Y-137258801D01*
X66179433Y-137261298D01*
X66320103Y-137266825D01*
X66528088Y-137236669D01*
X66533552Y-137234814D01*
X66533557Y-137234813D01*
X66721624Y-137170973D01*
X66721629Y-137170971D01*
X66727096Y-137169115D01*
X66910460Y-137066426D01*
X67072041Y-136932041D01*
X67206426Y-136770460D01*
X67309115Y-136587096D01*
X67310971Y-136581629D01*
X67310973Y-136581624D01*
X67374813Y-136393557D01*
X67374814Y-136393552D01*
X67376669Y-136388088D01*
X67406825Y-136180103D01*
X67406868Y-136178466D01*
X67427816Y-136124564D01*
X67426184Y-136121214D01*
X67632868Y-136121214D01*
X67655730Y-136164477D01*
X67657985Y-136181334D01*
X67665740Y-136299649D01*
X67717471Y-136503343D01*
X67719890Y-136508590D01*
X67803038Y-136688953D01*
X67803041Y-136688958D01*
X67805457Y-136694199D01*
X67926751Y-136865825D01*
X68077289Y-137012474D01*
X68082085Y-137015679D01*
X68082088Y-137015681D01*
X68152499Y-137062728D01*
X68252031Y-137129233D01*
X68257339Y-137131514D01*
X68257340Y-137131514D01*
X68439822Y-137209914D01*
X68439825Y-137209915D01*
X68445125Y-137212192D01*
X68450754Y-137213466D01*
X68450755Y-137213466D01*
X68644467Y-137257299D01*
X68644473Y-137257300D01*
X68650104Y-137258574D01*
X68655875Y-137258801D01*
X68655877Y-137258801D01*
X68719433Y-137261298D01*
X68860103Y-137266825D01*
X69068088Y-137236669D01*
X69073552Y-137234814D01*
X69073557Y-137234813D01*
X69261624Y-137170973D01*
X69261629Y-137170971D01*
X69267096Y-137169115D01*
X69450460Y-137066426D01*
X69612041Y-136932041D01*
X69719251Y-136803134D01*
X71576500Y-136803134D01*
X71583255Y-136865316D01*
X71634385Y-137001705D01*
X71721739Y-137118261D01*
X71838295Y-137205615D01*
X71974684Y-137256745D01*
X72036866Y-137263500D01*
X73403134Y-137263500D01*
X73465316Y-137256745D01*
X73601705Y-137205615D01*
X73718261Y-137118261D01*
X73805615Y-137001705D01*
X73856745Y-136865316D01*
X73863500Y-136803134D01*
X73863500Y-136147536D01*
X73877650Y-136099344D01*
X73877141Y-136098300D01*
X74101567Y-136098300D01*
X74110396Y-136112038D01*
X74115230Y-136139295D01*
X74125740Y-136299649D01*
X74177471Y-136503343D01*
X74179890Y-136508590D01*
X74263038Y-136688953D01*
X74263041Y-136688958D01*
X74265457Y-136694199D01*
X74386751Y-136865825D01*
X74537289Y-137012474D01*
X74542085Y-137015679D01*
X74542088Y-137015681D01*
X74612499Y-137062728D01*
X74712031Y-137129233D01*
X74717339Y-137131514D01*
X74717340Y-137131514D01*
X74899822Y-137209914D01*
X74899825Y-137209915D01*
X74905125Y-137212192D01*
X74910754Y-137213466D01*
X74910755Y-137213466D01*
X75104467Y-137257299D01*
X75104473Y-137257300D01*
X75110104Y-137258574D01*
X75115875Y-137258801D01*
X75115877Y-137258801D01*
X75179433Y-137261298D01*
X75320103Y-137266825D01*
X75528088Y-137236669D01*
X75533552Y-137234814D01*
X75533557Y-137234813D01*
X75721624Y-137170973D01*
X75721629Y-137170971D01*
X75727096Y-137169115D01*
X75910460Y-137066426D01*
X76072041Y-136932041D01*
X76206426Y-136770460D01*
X76309115Y-136587096D01*
X76310971Y-136581629D01*
X76310973Y-136581624D01*
X76374813Y-136393557D01*
X76374814Y-136393552D01*
X76376669Y-136388088D01*
X76406825Y-136180103D01*
X76406868Y-136178466D01*
X76427816Y-136124564D01*
X76426184Y-136121214D01*
X76632868Y-136121214D01*
X76655730Y-136164477D01*
X76657985Y-136181334D01*
X76665740Y-136299649D01*
X76717471Y-136503343D01*
X76719890Y-136508590D01*
X76803038Y-136688953D01*
X76803041Y-136688958D01*
X76805457Y-136694199D01*
X76926751Y-136865825D01*
X77077289Y-137012474D01*
X77082085Y-137015679D01*
X77082088Y-137015681D01*
X77152499Y-137062728D01*
X77252031Y-137129233D01*
X77257339Y-137131514D01*
X77257340Y-137131514D01*
X77439822Y-137209914D01*
X77439825Y-137209915D01*
X77445125Y-137212192D01*
X77450754Y-137213466D01*
X77450755Y-137213466D01*
X77644467Y-137257299D01*
X77644473Y-137257300D01*
X77650104Y-137258574D01*
X77655875Y-137258801D01*
X77655877Y-137258801D01*
X77719433Y-137261298D01*
X77860103Y-137266825D01*
X78068088Y-137236669D01*
X78073552Y-137234814D01*
X78073557Y-137234813D01*
X78261624Y-137170973D01*
X78261629Y-137170971D01*
X78267096Y-137169115D01*
X78450460Y-137066426D01*
X78612041Y-136932041D01*
X78746426Y-136770460D01*
X78849115Y-136587096D01*
X78850971Y-136581629D01*
X78850973Y-136581624D01*
X78914813Y-136393557D01*
X78914814Y-136393552D01*
X78916669Y-136388088D01*
X78946825Y-136180103D01*
X78948399Y-136120000D01*
X78929169Y-135910721D01*
X78872123Y-135708451D01*
X78779171Y-135519963D01*
X78653427Y-135351571D01*
X78539981Y-135246703D01*
X78503341Y-135212833D01*
X78503338Y-135212831D01*
X78499101Y-135208914D01*
X78321362Y-135096769D01*
X78126163Y-135018892D01*
X78120506Y-135017767D01*
X78120500Y-135017765D01*
X77925707Y-134979019D01*
X77925705Y-134979019D01*
X77920040Y-134977892D01*
X77914265Y-134977816D01*
X77914261Y-134977816D01*
X77809001Y-134976438D01*
X77709898Y-134975141D01*
X77704201Y-134976120D01*
X77704200Y-134976120D01*
X77508469Y-135009753D01*
X77502772Y-135010732D01*
X77305601Y-135083472D01*
X77124988Y-135190926D01*
X76966981Y-135329494D01*
X76836872Y-135494537D01*
X76834181Y-135499653D01*
X76834179Y-135499655D01*
X76820769Y-135525144D01*
X76739018Y-135680527D01*
X76676696Y-135881234D01*
X76676017Y-135886969D01*
X76676017Y-135886970D01*
X76654212Y-136071206D01*
X76632868Y-136121214D01*
X76426184Y-136121214D01*
X76404855Y-136077440D01*
X76403614Y-136067926D01*
X76402233Y-136052891D01*
X76389169Y-135910721D01*
X76332123Y-135708451D01*
X76239171Y-135519963D01*
X76113427Y-135351571D01*
X75999981Y-135246703D01*
X75963341Y-135212833D01*
X75963338Y-135212831D01*
X75959101Y-135208914D01*
X75781362Y-135096769D01*
X75586163Y-135018892D01*
X75580506Y-135017767D01*
X75580500Y-135017765D01*
X75385707Y-134979019D01*
X75385705Y-134979019D01*
X75380040Y-134977892D01*
X75374265Y-134977816D01*
X75374261Y-134977816D01*
X75269001Y-134976438D01*
X75169898Y-134975141D01*
X75164201Y-134976120D01*
X75164200Y-134976120D01*
X74968469Y-135009753D01*
X74962772Y-135010732D01*
X74765601Y-135083472D01*
X74584988Y-135190926D01*
X74426981Y-135329494D01*
X74296872Y-135494537D01*
X74294181Y-135499653D01*
X74294179Y-135499655D01*
X74280769Y-135525144D01*
X74199018Y-135680527D01*
X74136696Y-135881234D01*
X74136017Y-135886969D01*
X74136017Y-135886970D01*
X74114627Y-136067700D01*
X74101567Y-136098300D01*
X73877141Y-136098300D01*
X73865270Y-136073934D01*
X73863500Y-136052891D01*
X73863500Y-135436866D01*
X73856745Y-135374684D01*
X73805615Y-135238295D01*
X73718261Y-135121739D01*
X73601705Y-135034385D01*
X73465316Y-134983255D01*
X73403134Y-134976500D01*
X72036866Y-134976500D01*
X71974684Y-134983255D01*
X71838295Y-135034385D01*
X71721739Y-135121739D01*
X71634385Y-135238295D01*
X71583255Y-135374684D01*
X71576500Y-135436866D01*
X71576500Y-136803134D01*
X69719251Y-136803134D01*
X69746426Y-136770460D01*
X69849115Y-136587096D01*
X69850971Y-136581629D01*
X69850973Y-136581624D01*
X69914813Y-136393557D01*
X69914814Y-136393552D01*
X69916669Y-136388088D01*
X69946825Y-136180103D01*
X69948399Y-136120000D01*
X69929169Y-135910721D01*
X69872123Y-135708451D01*
X69779171Y-135519963D01*
X69653427Y-135351571D01*
X69539981Y-135246703D01*
X69503341Y-135212833D01*
X69503338Y-135212831D01*
X69499101Y-135208914D01*
X69321362Y-135096769D01*
X69126163Y-135018892D01*
X69120506Y-135017767D01*
X69120500Y-135017765D01*
X68925707Y-134979019D01*
X68925705Y-134979019D01*
X68920040Y-134977892D01*
X68914265Y-134977816D01*
X68914261Y-134977816D01*
X68809001Y-134976438D01*
X68709898Y-134975141D01*
X68704201Y-134976120D01*
X68704200Y-134976120D01*
X68508469Y-135009753D01*
X68502772Y-135010732D01*
X68305601Y-135083472D01*
X68124988Y-135190926D01*
X67966981Y-135329494D01*
X67836872Y-135494537D01*
X67834181Y-135499653D01*
X67834179Y-135499655D01*
X67820769Y-135525144D01*
X67739018Y-135680527D01*
X67676696Y-135881234D01*
X67676017Y-135886969D01*
X67676017Y-135886970D01*
X67654212Y-136071206D01*
X67632868Y-136121214D01*
X67426184Y-136121214D01*
X67404855Y-136077440D01*
X67403614Y-136067926D01*
X67402233Y-136052891D01*
X67389169Y-135910721D01*
X67332123Y-135708451D01*
X67239171Y-135519963D01*
X67113427Y-135351571D01*
X66999981Y-135246703D01*
X66963341Y-135212833D01*
X66963338Y-135212831D01*
X66959101Y-135208914D01*
X66781362Y-135096769D01*
X66586163Y-135018892D01*
X66580506Y-135017767D01*
X66580500Y-135017765D01*
X66385707Y-134979019D01*
X66385705Y-134979019D01*
X66380040Y-134977892D01*
X66374265Y-134977816D01*
X66374261Y-134977816D01*
X66269001Y-134976438D01*
X66169898Y-134975141D01*
X66164201Y-134976120D01*
X66164200Y-134976120D01*
X65968469Y-135009753D01*
X65962772Y-135010732D01*
X65765601Y-135083472D01*
X65584988Y-135190926D01*
X65426981Y-135329494D01*
X65296872Y-135494537D01*
X65294181Y-135499653D01*
X65294179Y-135499655D01*
X65280769Y-135525144D01*
X65199018Y-135680527D01*
X65136696Y-135881234D01*
X65136017Y-135886969D01*
X65136017Y-135886970D01*
X65114627Y-136067700D01*
X65101567Y-136098300D01*
X64877141Y-136098300D01*
X64865270Y-136073934D01*
X64863500Y-136052891D01*
X64863500Y-135436866D01*
X64856745Y-135374684D01*
X64805615Y-135238295D01*
X64718261Y-135121739D01*
X64601705Y-135034385D01*
X64465316Y-134983255D01*
X64403134Y-134976500D01*
X63036866Y-134976500D01*
X62974684Y-134983255D01*
X62838295Y-135034385D01*
X62721739Y-135121739D01*
X62634385Y-135238295D01*
X62583255Y-135374684D01*
X62576500Y-135436866D01*
X62576500Y-136803134D01*
X57008500Y-136803134D01*
X57008500Y-133549938D01*
X63841995Y-133549938D01*
X63855740Y-133759649D01*
X63907471Y-133963343D01*
X63909890Y-133968590D01*
X63993038Y-134148953D01*
X63993041Y-134148958D01*
X63995457Y-134154199D01*
X64116751Y-134325825D01*
X64267289Y-134472474D01*
X64272085Y-134475679D01*
X64272088Y-134475681D01*
X64342499Y-134522728D01*
X64442031Y-134589233D01*
X64447339Y-134591514D01*
X64447340Y-134591514D01*
X64629822Y-134669914D01*
X64629825Y-134669915D01*
X64635125Y-134672192D01*
X64640754Y-134673466D01*
X64640755Y-134673466D01*
X64834467Y-134717299D01*
X64834473Y-134717300D01*
X64840104Y-134718574D01*
X64845875Y-134718801D01*
X64845877Y-134718801D01*
X64909433Y-134721298D01*
X65050103Y-134726825D01*
X65258088Y-134696669D01*
X65263552Y-134694814D01*
X65263557Y-134694813D01*
X65451624Y-134630973D01*
X65451629Y-134630971D01*
X65457096Y-134629115D01*
X65640460Y-134526426D01*
X65802041Y-134392041D01*
X65936426Y-134230460D01*
X66039115Y-134047096D01*
X66040971Y-134041629D01*
X66040973Y-134041624D01*
X66104813Y-133853557D01*
X66104814Y-133853552D01*
X66106669Y-133848088D01*
X66136825Y-133640103D01*
X66136868Y-133638466D01*
X66157816Y-133584564D01*
X66156184Y-133581214D01*
X66362868Y-133581214D01*
X66385730Y-133624477D01*
X66387985Y-133641334D01*
X66395740Y-133759649D01*
X66447471Y-133963343D01*
X66449890Y-133968590D01*
X66533038Y-134148953D01*
X66533041Y-134148958D01*
X66535457Y-134154199D01*
X66656751Y-134325825D01*
X66807289Y-134472474D01*
X66812085Y-134475679D01*
X66812088Y-134475681D01*
X66882499Y-134522728D01*
X66982031Y-134589233D01*
X66987339Y-134591514D01*
X66987340Y-134591514D01*
X67169822Y-134669914D01*
X67169825Y-134669915D01*
X67175125Y-134672192D01*
X67180754Y-134673466D01*
X67180755Y-134673466D01*
X67374467Y-134717299D01*
X67374473Y-134717300D01*
X67380104Y-134718574D01*
X67385875Y-134718801D01*
X67385877Y-134718801D01*
X67449433Y-134721298D01*
X67590103Y-134726825D01*
X67798088Y-134696669D01*
X67803552Y-134694814D01*
X67803557Y-134694813D01*
X67991624Y-134630973D01*
X67991629Y-134630971D01*
X67997096Y-134629115D01*
X68180460Y-134526426D01*
X68342041Y-134392041D01*
X68476426Y-134230460D01*
X68579115Y-134047096D01*
X68580971Y-134041629D01*
X68580973Y-134041624D01*
X68644813Y-133853557D01*
X68644814Y-133853552D01*
X68646669Y-133848088D01*
X68676825Y-133640103D01*
X68678399Y-133580000D01*
X68675637Y-133549938D01*
X72841995Y-133549938D01*
X72855740Y-133759649D01*
X72907471Y-133963343D01*
X72909890Y-133968590D01*
X72993038Y-134148953D01*
X72993041Y-134148958D01*
X72995457Y-134154199D01*
X73116751Y-134325825D01*
X73267289Y-134472474D01*
X73272085Y-134475679D01*
X73272088Y-134475681D01*
X73342499Y-134522728D01*
X73442031Y-134589233D01*
X73447339Y-134591514D01*
X73447340Y-134591514D01*
X73629822Y-134669914D01*
X73629825Y-134669915D01*
X73635125Y-134672192D01*
X73640754Y-134673466D01*
X73640755Y-134673466D01*
X73834467Y-134717299D01*
X73834473Y-134717300D01*
X73840104Y-134718574D01*
X73845875Y-134718801D01*
X73845877Y-134718801D01*
X73909433Y-134721298D01*
X74050103Y-134726825D01*
X74258088Y-134696669D01*
X74263552Y-134694814D01*
X74263557Y-134694813D01*
X74451624Y-134630973D01*
X74451629Y-134630971D01*
X74457096Y-134629115D01*
X74640460Y-134526426D01*
X74802041Y-134392041D01*
X74936426Y-134230460D01*
X75039115Y-134047096D01*
X75040971Y-134041629D01*
X75040973Y-134041624D01*
X75104813Y-133853557D01*
X75104814Y-133853552D01*
X75106669Y-133848088D01*
X75136825Y-133640103D01*
X75136868Y-133638466D01*
X75157816Y-133584564D01*
X75156184Y-133581214D01*
X75362868Y-133581214D01*
X75385730Y-133624477D01*
X75387985Y-133641334D01*
X75395740Y-133759649D01*
X75447471Y-133963343D01*
X75449890Y-133968590D01*
X75533038Y-134148953D01*
X75533041Y-134148958D01*
X75535457Y-134154199D01*
X75656751Y-134325825D01*
X75807289Y-134472474D01*
X75812085Y-134475679D01*
X75812088Y-134475681D01*
X75882499Y-134522728D01*
X75982031Y-134589233D01*
X75987339Y-134591514D01*
X75987340Y-134591514D01*
X76169822Y-134669914D01*
X76169825Y-134669915D01*
X76175125Y-134672192D01*
X76180754Y-134673466D01*
X76180755Y-134673466D01*
X76374467Y-134717299D01*
X76374473Y-134717300D01*
X76380104Y-134718574D01*
X76385875Y-134718801D01*
X76385877Y-134718801D01*
X76449433Y-134721298D01*
X76590103Y-134726825D01*
X76798088Y-134696669D01*
X76803552Y-134694814D01*
X76803557Y-134694813D01*
X76991624Y-134630973D01*
X76991629Y-134630971D01*
X76997096Y-134629115D01*
X77180460Y-134526426D01*
X77342041Y-134392041D01*
X77476426Y-134230460D01*
X77579115Y-134047096D01*
X77580971Y-134041629D01*
X77580973Y-134041624D01*
X77644813Y-133853557D01*
X77644814Y-133853552D01*
X77646669Y-133848088D01*
X77676825Y-133640103D01*
X77678399Y-133580000D01*
X77659169Y-133370721D01*
X77602123Y-133168451D01*
X77509171Y-132979963D01*
X77383427Y-132811571D01*
X77229101Y-132668914D01*
X77051362Y-132556769D01*
X76856163Y-132478892D01*
X76850506Y-132477767D01*
X76850500Y-132477765D01*
X76655707Y-132439019D01*
X76655705Y-132439019D01*
X76650040Y-132437892D01*
X76644265Y-132437816D01*
X76644261Y-132437816D01*
X76609466Y-132437361D01*
X76607720Y-132437338D01*
X76565049Y-132424200D01*
X76551146Y-132432382D01*
X76518775Y-132436174D01*
X76439898Y-132435141D01*
X76434201Y-132436120D01*
X76434200Y-132436120D01*
X76238469Y-132469753D01*
X76232772Y-132470732D01*
X76035601Y-132543472D01*
X75854988Y-132650926D01*
X75696981Y-132789494D01*
X75566872Y-132954537D01*
X75564181Y-132959653D01*
X75564179Y-132959655D01*
X75550769Y-132985144D01*
X75469018Y-133140527D01*
X75406696Y-133341234D01*
X75406017Y-133346969D01*
X75406017Y-133346970D01*
X75384212Y-133531206D01*
X75362868Y-133581214D01*
X75156184Y-133581214D01*
X75134855Y-133537440D01*
X75133614Y-133527926D01*
X75119698Y-133376478D01*
X75119169Y-133370721D01*
X75062123Y-133168451D01*
X74969171Y-132979963D01*
X74843427Y-132811571D01*
X74689101Y-132668914D01*
X74511362Y-132556769D01*
X74316163Y-132478892D01*
X74310506Y-132477767D01*
X74310500Y-132477765D01*
X74115707Y-132439019D01*
X74115705Y-132439019D01*
X74110040Y-132437892D01*
X74104265Y-132437816D01*
X74104261Y-132437816D01*
X74069466Y-132437361D01*
X74067720Y-132437338D01*
X74025049Y-132424200D01*
X74011146Y-132432382D01*
X73978775Y-132436174D01*
X73899898Y-132435141D01*
X73894201Y-132436120D01*
X73894200Y-132436120D01*
X73698469Y-132469753D01*
X73692772Y-132470732D01*
X73495601Y-132543472D01*
X73314988Y-132650926D01*
X73156981Y-132789494D01*
X73026872Y-132954537D01*
X73024181Y-132959653D01*
X73024179Y-132959655D01*
X73010769Y-132985144D01*
X72929018Y-133140527D01*
X72866696Y-133341234D01*
X72841995Y-133549938D01*
X68675637Y-133549938D01*
X68659169Y-133370721D01*
X68602123Y-133168451D01*
X68509171Y-132979963D01*
X68383427Y-132811571D01*
X68229101Y-132668914D01*
X68051362Y-132556769D01*
X67856163Y-132478892D01*
X67850506Y-132477767D01*
X67850500Y-132477765D01*
X67655707Y-132439019D01*
X67655705Y-132439019D01*
X67650040Y-132437892D01*
X67644265Y-132437816D01*
X67644261Y-132437816D01*
X67609466Y-132437361D01*
X67607720Y-132437338D01*
X67565049Y-132424200D01*
X67551146Y-132432382D01*
X67518775Y-132436174D01*
X67439898Y-132435141D01*
X67434201Y-132436120D01*
X67434200Y-132436120D01*
X67238469Y-132469753D01*
X67232772Y-132470732D01*
X67035601Y-132543472D01*
X66854988Y-132650926D01*
X66696981Y-132789494D01*
X66566872Y-132954537D01*
X66564181Y-132959653D01*
X66564179Y-132959655D01*
X66550769Y-132985144D01*
X66469018Y-133140527D01*
X66406696Y-133341234D01*
X66406017Y-133346969D01*
X66406017Y-133346970D01*
X66384212Y-133531206D01*
X66362868Y-133581214D01*
X66156184Y-133581214D01*
X66134855Y-133537440D01*
X66133614Y-133527926D01*
X66119698Y-133376478D01*
X66119169Y-133370721D01*
X66062123Y-133168451D01*
X65969171Y-132979963D01*
X65843427Y-132811571D01*
X65689101Y-132668914D01*
X65511362Y-132556769D01*
X65316163Y-132478892D01*
X65310506Y-132477767D01*
X65310500Y-132477765D01*
X65115707Y-132439019D01*
X65115705Y-132439019D01*
X65110040Y-132437892D01*
X65104265Y-132437816D01*
X65104261Y-132437816D01*
X65069466Y-132437361D01*
X65067720Y-132437338D01*
X65025049Y-132424200D01*
X65011146Y-132432382D01*
X64978775Y-132436174D01*
X64899898Y-132435141D01*
X64894201Y-132436120D01*
X64894200Y-132436120D01*
X64698469Y-132469753D01*
X64692772Y-132470732D01*
X64495601Y-132543472D01*
X64314988Y-132650926D01*
X64156981Y-132789494D01*
X64026872Y-132954537D01*
X64024181Y-132959653D01*
X64024179Y-132959655D01*
X64010769Y-132985144D01*
X63929018Y-133140527D01*
X63866696Y-133341234D01*
X63841995Y-133549938D01*
X57008500Y-133549938D01*
X57008500Y-131009938D01*
X63841995Y-131009938D01*
X63855740Y-131219649D01*
X63907471Y-131423343D01*
X63909890Y-131428590D01*
X63993038Y-131608953D01*
X63993041Y-131608958D01*
X63995457Y-131614199D01*
X64116751Y-131785825D01*
X64267289Y-131932474D01*
X64272085Y-131935679D01*
X64272088Y-131935681D01*
X64342499Y-131982728D01*
X64442031Y-132049233D01*
X64447339Y-132051514D01*
X64447340Y-132051514D01*
X64629822Y-132129914D01*
X64629825Y-132129915D01*
X64635125Y-132132192D01*
X64640754Y-132133466D01*
X64640755Y-132133466D01*
X64834467Y-132177299D01*
X64834473Y-132177300D01*
X64840104Y-132178574D01*
X64845875Y-132178801D01*
X64845877Y-132178801D01*
X64985369Y-132184282D01*
X65023852Y-132197243D01*
X65035456Y-132189999D01*
X65051289Y-132186653D01*
X65258088Y-132156669D01*
X65263552Y-132154814D01*
X65263557Y-132154813D01*
X65451624Y-132090973D01*
X65451629Y-132090971D01*
X65457096Y-132089115D01*
X65640460Y-131986426D01*
X65802041Y-131852041D01*
X65936426Y-131690460D01*
X66039115Y-131507096D01*
X66040971Y-131501629D01*
X66040973Y-131501624D01*
X66104813Y-131313557D01*
X66104814Y-131313552D01*
X66106669Y-131308088D01*
X66136825Y-131100103D01*
X66136868Y-131098466D01*
X66157816Y-131044564D01*
X66156184Y-131041214D01*
X66362868Y-131041214D01*
X66385730Y-131084477D01*
X66387985Y-131101334D01*
X66395740Y-131219649D01*
X66447471Y-131423343D01*
X66449890Y-131428590D01*
X66533038Y-131608953D01*
X66533041Y-131608958D01*
X66535457Y-131614199D01*
X66656751Y-131785825D01*
X66807289Y-131932474D01*
X66812085Y-131935679D01*
X66812088Y-131935681D01*
X66882499Y-131982728D01*
X66982031Y-132049233D01*
X66987339Y-132051514D01*
X66987340Y-132051514D01*
X67169822Y-132129914D01*
X67169825Y-132129915D01*
X67175125Y-132132192D01*
X67180754Y-132133466D01*
X67180755Y-132133466D01*
X67374467Y-132177299D01*
X67374473Y-132177300D01*
X67380104Y-132178574D01*
X67385875Y-132178801D01*
X67385877Y-132178801D01*
X67525369Y-132184282D01*
X67563852Y-132197243D01*
X67575456Y-132189999D01*
X67591289Y-132186653D01*
X67798088Y-132156669D01*
X67803552Y-132154814D01*
X67803557Y-132154813D01*
X67991624Y-132090973D01*
X67991629Y-132090971D01*
X67997096Y-132089115D01*
X68180460Y-131986426D01*
X68342041Y-131852041D01*
X68476426Y-131690460D01*
X68579115Y-131507096D01*
X68580971Y-131501629D01*
X68580973Y-131501624D01*
X68644813Y-131313557D01*
X68644814Y-131313552D01*
X68646669Y-131308088D01*
X68676825Y-131100103D01*
X68678399Y-131040000D01*
X68675637Y-131009938D01*
X72841995Y-131009938D01*
X72855740Y-131219649D01*
X72907471Y-131423343D01*
X72909890Y-131428590D01*
X72993038Y-131608953D01*
X72993041Y-131608958D01*
X72995457Y-131614199D01*
X73116751Y-131785825D01*
X73267289Y-131932474D01*
X73272085Y-131935679D01*
X73272088Y-131935681D01*
X73342499Y-131982728D01*
X73442031Y-132049233D01*
X73447339Y-132051514D01*
X73447340Y-132051514D01*
X73629822Y-132129914D01*
X73629825Y-132129915D01*
X73635125Y-132132192D01*
X73640754Y-132133466D01*
X73640755Y-132133466D01*
X73834467Y-132177299D01*
X73834473Y-132177300D01*
X73840104Y-132178574D01*
X73845875Y-132178801D01*
X73845877Y-132178801D01*
X73985369Y-132184282D01*
X74023852Y-132197243D01*
X74035456Y-132189999D01*
X74051289Y-132186653D01*
X74258088Y-132156669D01*
X74263552Y-132154814D01*
X74263557Y-132154813D01*
X74451624Y-132090973D01*
X74451629Y-132090971D01*
X74457096Y-132089115D01*
X74640460Y-131986426D01*
X74802041Y-131852041D01*
X74936426Y-131690460D01*
X75039115Y-131507096D01*
X75040971Y-131501629D01*
X75040973Y-131501624D01*
X75104813Y-131313557D01*
X75104814Y-131313552D01*
X75106669Y-131308088D01*
X75136825Y-131100103D01*
X75136868Y-131098466D01*
X75157816Y-131044564D01*
X75156184Y-131041214D01*
X75362868Y-131041214D01*
X75385730Y-131084477D01*
X75387985Y-131101334D01*
X75395740Y-131219649D01*
X75447471Y-131423343D01*
X75449890Y-131428590D01*
X75533038Y-131608953D01*
X75533041Y-131608958D01*
X75535457Y-131614199D01*
X75656751Y-131785825D01*
X75807289Y-131932474D01*
X75812085Y-131935679D01*
X75812088Y-131935681D01*
X75882499Y-131982728D01*
X75982031Y-132049233D01*
X75987339Y-132051514D01*
X75987340Y-132051514D01*
X76169822Y-132129914D01*
X76169825Y-132129915D01*
X76175125Y-132132192D01*
X76180754Y-132133466D01*
X76180755Y-132133466D01*
X76374467Y-132177299D01*
X76374473Y-132177300D01*
X76380104Y-132178574D01*
X76385875Y-132178801D01*
X76385877Y-132178801D01*
X76525369Y-132184282D01*
X76563852Y-132197243D01*
X76575456Y-132189999D01*
X76591289Y-132186653D01*
X76798088Y-132156669D01*
X76803552Y-132154814D01*
X76803557Y-132154813D01*
X76991624Y-132090973D01*
X76991629Y-132090971D01*
X76997096Y-132089115D01*
X77180460Y-131986426D01*
X77342041Y-131852041D01*
X77476426Y-131690460D01*
X77579115Y-131507096D01*
X77580971Y-131501629D01*
X77580973Y-131501624D01*
X77644813Y-131313557D01*
X77644814Y-131313552D01*
X77646669Y-131308088D01*
X77676825Y-131100103D01*
X77678399Y-131040000D01*
X77659169Y-130830721D01*
X77602123Y-130628451D01*
X77509171Y-130439963D01*
X77383427Y-130271571D01*
X77229101Y-130128914D01*
X77051362Y-130016769D01*
X76856163Y-129938892D01*
X76850506Y-129937767D01*
X76850500Y-129937765D01*
X76655707Y-129899019D01*
X76655705Y-129899019D01*
X76650040Y-129897892D01*
X76644265Y-129897816D01*
X76644261Y-129897816D01*
X76539001Y-129896438D01*
X76439898Y-129895141D01*
X76434201Y-129896120D01*
X76434200Y-129896120D01*
X76238469Y-129929753D01*
X76232772Y-129930732D01*
X76035601Y-130003472D01*
X75854988Y-130110926D01*
X75696981Y-130249494D01*
X75566872Y-130414537D01*
X75564181Y-130419653D01*
X75564179Y-130419655D01*
X75550769Y-130445144D01*
X75469018Y-130600527D01*
X75406696Y-130801234D01*
X75406017Y-130806969D01*
X75406017Y-130806970D01*
X75384212Y-130991206D01*
X75362868Y-131041214D01*
X75156184Y-131041214D01*
X75134855Y-130997440D01*
X75133614Y-130987926D01*
X75119698Y-130836478D01*
X75119169Y-130830721D01*
X75062123Y-130628451D01*
X74969171Y-130439963D01*
X74843427Y-130271571D01*
X74689101Y-130128914D01*
X74511362Y-130016769D01*
X74316163Y-129938892D01*
X74310506Y-129937767D01*
X74310500Y-129937765D01*
X74115707Y-129899019D01*
X74115705Y-129899019D01*
X74110040Y-129897892D01*
X74104265Y-129897816D01*
X74104261Y-129897816D01*
X73999001Y-129896438D01*
X73899898Y-129895141D01*
X73894201Y-129896120D01*
X73894200Y-129896120D01*
X73698469Y-129929753D01*
X73692772Y-129930732D01*
X73495601Y-130003472D01*
X73314988Y-130110926D01*
X73156981Y-130249494D01*
X73026872Y-130414537D01*
X73024181Y-130419653D01*
X73024179Y-130419655D01*
X73010769Y-130445144D01*
X72929018Y-130600527D01*
X72866696Y-130801234D01*
X72841995Y-131009938D01*
X68675637Y-131009938D01*
X68659169Y-130830721D01*
X68602123Y-130628451D01*
X68509171Y-130439963D01*
X68383427Y-130271571D01*
X68229101Y-130128914D01*
X68051362Y-130016769D01*
X67856163Y-129938892D01*
X67850506Y-129937767D01*
X67850500Y-129937765D01*
X67655707Y-129899019D01*
X67655705Y-129899019D01*
X67650040Y-129897892D01*
X67644265Y-129897816D01*
X67644261Y-129897816D01*
X67539001Y-129896438D01*
X67439898Y-129895141D01*
X67434201Y-129896120D01*
X67434200Y-129896120D01*
X67238469Y-129929753D01*
X67232772Y-129930732D01*
X67035601Y-130003472D01*
X66854988Y-130110926D01*
X66696981Y-130249494D01*
X66566872Y-130414537D01*
X66564181Y-130419653D01*
X66564179Y-130419655D01*
X66550769Y-130445144D01*
X66469018Y-130600527D01*
X66406696Y-130801234D01*
X66406017Y-130806969D01*
X66406017Y-130806970D01*
X66384212Y-130991206D01*
X66362868Y-131041214D01*
X66156184Y-131041214D01*
X66134855Y-130997440D01*
X66133614Y-130987926D01*
X66119698Y-130836478D01*
X66119169Y-130830721D01*
X66062123Y-130628451D01*
X65969171Y-130439963D01*
X65843427Y-130271571D01*
X65689101Y-130128914D01*
X65511362Y-130016769D01*
X65316163Y-129938892D01*
X65310506Y-129937767D01*
X65310500Y-129937765D01*
X65115707Y-129899019D01*
X65115705Y-129899019D01*
X65110040Y-129897892D01*
X65104265Y-129897816D01*
X65104261Y-129897816D01*
X64999001Y-129896438D01*
X64899898Y-129895141D01*
X64894201Y-129896120D01*
X64894200Y-129896120D01*
X64698469Y-129929753D01*
X64692772Y-129930732D01*
X64495601Y-130003472D01*
X64314988Y-130110926D01*
X64156981Y-130249494D01*
X64026872Y-130414537D01*
X64024181Y-130419653D01*
X64024179Y-130419655D01*
X64010769Y-130445144D01*
X63929018Y-130600527D01*
X63866696Y-130801234D01*
X63841995Y-131009938D01*
X57008500Y-131009938D01*
X57008500Y-128469938D01*
X62571995Y-128469938D01*
X62585740Y-128679649D01*
X62637471Y-128883343D01*
X62639890Y-128888590D01*
X62723038Y-129068953D01*
X62723041Y-129068958D01*
X62725457Y-129074199D01*
X62846751Y-129245825D01*
X62997289Y-129392474D01*
X63002085Y-129395679D01*
X63002088Y-129395681D01*
X63072499Y-129442728D01*
X63172031Y-129509233D01*
X63177339Y-129511514D01*
X63177340Y-129511514D01*
X63359822Y-129589914D01*
X63359825Y-129589915D01*
X63365125Y-129592192D01*
X63370754Y-129593466D01*
X63370755Y-129593466D01*
X63564467Y-129637299D01*
X63564473Y-129637300D01*
X63570104Y-129638574D01*
X63575875Y-129638801D01*
X63575877Y-129638801D01*
X63639433Y-129641298D01*
X63780103Y-129646825D01*
X63988088Y-129616669D01*
X63993552Y-129614814D01*
X63993557Y-129614813D01*
X64181624Y-129550973D01*
X64181629Y-129550971D01*
X64187096Y-129549115D01*
X64370460Y-129446426D01*
X64532041Y-129312041D01*
X64666426Y-129150460D01*
X64769115Y-128967096D01*
X64770971Y-128961629D01*
X64770973Y-128961624D01*
X64834813Y-128773557D01*
X64834814Y-128773552D01*
X64836669Y-128768088D01*
X64866825Y-128560103D01*
X64866868Y-128558466D01*
X64887816Y-128504564D01*
X64886184Y-128501214D01*
X65092868Y-128501214D01*
X65115730Y-128544477D01*
X65117985Y-128561334D01*
X65125740Y-128679649D01*
X65177471Y-128883343D01*
X65179890Y-128888590D01*
X65263038Y-129068953D01*
X65263041Y-129068958D01*
X65265457Y-129074199D01*
X65386751Y-129245825D01*
X65537289Y-129392474D01*
X65542085Y-129395679D01*
X65542088Y-129395681D01*
X65612499Y-129442728D01*
X65712031Y-129509233D01*
X65717339Y-129511514D01*
X65717340Y-129511514D01*
X65899822Y-129589914D01*
X65899825Y-129589915D01*
X65905125Y-129592192D01*
X65910754Y-129593466D01*
X65910755Y-129593466D01*
X66104467Y-129637299D01*
X66104473Y-129637300D01*
X66110104Y-129638574D01*
X66115875Y-129638801D01*
X66115877Y-129638801D01*
X66179433Y-129641298D01*
X66320103Y-129646825D01*
X66528088Y-129616669D01*
X66533552Y-129614814D01*
X66533557Y-129614813D01*
X66721624Y-129550973D01*
X66721629Y-129550971D01*
X66727096Y-129549115D01*
X66910460Y-129446426D01*
X67072041Y-129312041D01*
X67206426Y-129150460D01*
X67309115Y-128967096D01*
X67310971Y-128961629D01*
X67310973Y-128961624D01*
X67374813Y-128773557D01*
X67374814Y-128773552D01*
X67376669Y-128768088D01*
X67406825Y-128560103D01*
X67406868Y-128558466D01*
X67427816Y-128504564D01*
X67426184Y-128501214D01*
X67632868Y-128501214D01*
X67655730Y-128544477D01*
X67657985Y-128561334D01*
X67665740Y-128679649D01*
X67717471Y-128883343D01*
X67719890Y-128888590D01*
X67803038Y-129068953D01*
X67803041Y-129068958D01*
X67805457Y-129074199D01*
X67926751Y-129245825D01*
X68077289Y-129392474D01*
X68082085Y-129395679D01*
X68082088Y-129395681D01*
X68152499Y-129442728D01*
X68252031Y-129509233D01*
X68257339Y-129511514D01*
X68257340Y-129511514D01*
X68439822Y-129589914D01*
X68439825Y-129589915D01*
X68445125Y-129592192D01*
X68450754Y-129593466D01*
X68450755Y-129593466D01*
X68644467Y-129637299D01*
X68644473Y-129637300D01*
X68650104Y-129638574D01*
X68655875Y-129638801D01*
X68655877Y-129638801D01*
X68719433Y-129641298D01*
X68860103Y-129646825D01*
X69068088Y-129616669D01*
X69073552Y-129614814D01*
X69073557Y-129614813D01*
X69261624Y-129550973D01*
X69261629Y-129550971D01*
X69267096Y-129549115D01*
X69450460Y-129446426D01*
X69612041Y-129312041D01*
X69746426Y-129150460D01*
X69849115Y-128967096D01*
X69850971Y-128961629D01*
X69850973Y-128961624D01*
X69914813Y-128773557D01*
X69914814Y-128773552D01*
X69916669Y-128768088D01*
X69946825Y-128560103D01*
X69948399Y-128500000D01*
X69929169Y-128290721D01*
X69872123Y-128088451D01*
X69779171Y-127899963D01*
X69759820Y-127874048D01*
X69656880Y-127736195D01*
X69656879Y-127736194D01*
X69653427Y-127731571D01*
X69499101Y-127588914D01*
X69321362Y-127476769D01*
X69126163Y-127398892D01*
X69120506Y-127397767D01*
X69120500Y-127397765D01*
X68925707Y-127359019D01*
X68925705Y-127359019D01*
X68920040Y-127357892D01*
X68914265Y-127357816D01*
X68914261Y-127357816D01*
X68809001Y-127356438D01*
X68709898Y-127355141D01*
X68704201Y-127356120D01*
X68704200Y-127356120D01*
X68508469Y-127389753D01*
X68502772Y-127390732D01*
X68305601Y-127463472D01*
X68124988Y-127570926D01*
X67966981Y-127709494D01*
X67836872Y-127874537D01*
X67834181Y-127879653D01*
X67834179Y-127879655D01*
X67820769Y-127905144D01*
X67739018Y-128060527D01*
X67676696Y-128261234D01*
X67676017Y-128266969D01*
X67676017Y-128266970D01*
X67654212Y-128451206D01*
X67632868Y-128501214D01*
X67426184Y-128501214D01*
X67404855Y-128457440D01*
X67403614Y-128447926D01*
X67389698Y-128296478D01*
X67389169Y-128290721D01*
X67332123Y-128088451D01*
X67239171Y-127899963D01*
X67219820Y-127874048D01*
X67116880Y-127736195D01*
X67116879Y-127736194D01*
X67113427Y-127731571D01*
X66959101Y-127588914D01*
X66781362Y-127476769D01*
X66586163Y-127398892D01*
X66580506Y-127397767D01*
X66580500Y-127397765D01*
X66385707Y-127359019D01*
X66385705Y-127359019D01*
X66380040Y-127357892D01*
X66374265Y-127357816D01*
X66374261Y-127357816D01*
X66269001Y-127356438D01*
X66169898Y-127355141D01*
X66164201Y-127356120D01*
X66164200Y-127356120D01*
X65968469Y-127389753D01*
X65962772Y-127390732D01*
X65765601Y-127463472D01*
X65584988Y-127570926D01*
X65426981Y-127709494D01*
X65296872Y-127874537D01*
X65294181Y-127879653D01*
X65294179Y-127879655D01*
X65280769Y-127905144D01*
X65199018Y-128060527D01*
X65136696Y-128261234D01*
X65136017Y-128266969D01*
X65136017Y-128266970D01*
X65114212Y-128451206D01*
X65092868Y-128501214D01*
X64886184Y-128501214D01*
X64864855Y-128457440D01*
X64863614Y-128447926D01*
X64849698Y-128296478D01*
X64849169Y-128290721D01*
X64792123Y-128088451D01*
X64699171Y-127899963D01*
X64679820Y-127874048D01*
X64576880Y-127736195D01*
X64576879Y-127736194D01*
X64573427Y-127731571D01*
X64419101Y-127588914D01*
X64241362Y-127476769D01*
X64046163Y-127398892D01*
X64040506Y-127397767D01*
X64040500Y-127397765D01*
X63845707Y-127359019D01*
X63845705Y-127359019D01*
X63840040Y-127357892D01*
X63834265Y-127357816D01*
X63834261Y-127357816D01*
X63729001Y-127356438D01*
X63629898Y-127355141D01*
X63624201Y-127356120D01*
X63624200Y-127356120D01*
X63428469Y-127389753D01*
X63422772Y-127390732D01*
X63225601Y-127463472D01*
X63044988Y-127570926D01*
X62886981Y-127709494D01*
X62756872Y-127874537D01*
X62754181Y-127879653D01*
X62754179Y-127879655D01*
X62740769Y-127905144D01*
X62659018Y-128060527D01*
X62596696Y-128261234D01*
X62596017Y-128266969D01*
X62596017Y-128266970D01*
X62588310Y-128332086D01*
X62571995Y-128469938D01*
X57008500Y-128469938D01*
X57008500Y-120904000D01*
X64872496Y-120904000D01*
X64873186Y-120910565D01*
X64889746Y-121068120D01*
X64892458Y-121093928D01*
X64951473Y-121275556D01*
X64954776Y-121281278D01*
X64954777Y-121281279D01*
X64966657Y-121301855D01*
X65046960Y-121440944D01*
X65051378Y-121445851D01*
X65051379Y-121445852D01*
X65064067Y-121459943D01*
X65174747Y-121582866D01*
X65329248Y-121695118D01*
X65335276Y-121697802D01*
X65335278Y-121697803D01*
X65497681Y-121770109D01*
X65503712Y-121772794D01*
X65597113Y-121792647D01*
X65684056Y-121811128D01*
X65684061Y-121811128D01*
X65690513Y-121812500D01*
X65746406Y-121812500D01*
X65814527Y-121832502D01*
X65835501Y-121849405D01*
X71727017Y-127740921D01*
X71761043Y-127803233D01*
X71755978Y-127874048D01*
X71749436Y-127888670D01*
X71659018Y-128060527D01*
X71596696Y-128261234D01*
X71596017Y-128266969D01*
X71596017Y-128266970D01*
X71588310Y-128332086D01*
X71571995Y-128469938D01*
X71585740Y-128679649D01*
X71637471Y-128883343D01*
X71639890Y-128888590D01*
X71723038Y-129068953D01*
X71723041Y-129068958D01*
X71725457Y-129074199D01*
X71846751Y-129245825D01*
X71997289Y-129392474D01*
X72002085Y-129395679D01*
X72002088Y-129395681D01*
X72072499Y-129442728D01*
X72172031Y-129509233D01*
X72177339Y-129511514D01*
X72177340Y-129511514D01*
X72359822Y-129589914D01*
X72359825Y-129589915D01*
X72365125Y-129592192D01*
X72370754Y-129593466D01*
X72370755Y-129593466D01*
X72564467Y-129637299D01*
X72564473Y-129637300D01*
X72570104Y-129638574D01*
X72575875Y-129638801D01*
X72575877Y-129638801D01*
X72639433Y-129641298D01*
X72780103Y-129646825D01*
X72988088Y-129616669D01*
X72993552Y-129614814D01*
X72993557Y-129614813D01*
X73181624Y-129550973D01*
X73181629Y-129550971D01*
X73187096Y-129549115D01*
X73370460Y-129446426D01*
X73532041Y-129312041D01*
X73666426Y-129150460D01*
X73769115Y-128967096D01*
X73770971Y-128961629D01*
X73770973Y-128961624D01*
X73834813Y-128773557D01*
X73834814Y-128773552D01*
X73836669Y-128768088D01*
X73866825Y-128560103D01*
X73866868Y-128558466D01*
X73887816Y-128504563D01*
X73864855Y-128457440D01*
X73863614Y-128447926D01*
X73851035Y-128311029D01*
X73864720Y-128241364D01*
X73913896Y-128190157D01*
X73976506Y-128173500D01*
X73985406Y-128173500D01*
X74053527Y-128193502D01*
X74074501Y-128210405D01*
X74092278Y-128228182D01*
X74126304Y-128290494D01*
X74128310Y-128332086D01*
X74114212Y-128451206D01*
X74092868Y-128501214D01*
X74115730Y-128544477D01*
X74117985Y-128561334D01*
X74125740Y-128679649D01*
X74177471Y-128883343D01*
X74179890Y-128888590D01*
X74263038Y-129068953D01*
X74263041Y-129068958D01*
X74265457Y-129074199D01*
X74386751Y-129245825D01*
X74537289Y-129392474D01*
X74542085Y-129395679D01*
X74542088Y-129395681D01*
X74612499Y-129442728D01*
X74712031Y-129509233D01*
X74717339Y-129511514D01*
X74717340Y-129511514D01*
X74899822Y-129589914D01*
X74899825Y-129589915D01*
X74905125Y-129592192D01*
X74910754Y-129593466D01*
X74910755Y-129593466D01*
X75104467Y-129637299D01*
X75104473Y-129637300D01*
X75110104Y-129638574D01*
X75115875Y-129638801D01*
X75115877Y-129638801D01*
X75179433Y-129641298D01*
X75320103Y-129646825D01*
X75528088Y-129616669D01*
X75533552Y-129614814D01*
X75533557Y-129614813D01*
X75721624Y-129550973D01*
X75721629Y-129550971D01*
X75727096Y-129549115D01*
X75910460Y-129446426D01*
X76072041Y-129312041D01*
X76206426Y-129150460D01*
X76309115Y-128967096D01*
X76310971Y-128961629D01*
X76310973Y-128961624D01*
X76374813Y-128773557D01*
X76374814Y-128773552D01*
X76376669Y-128768088D01*
X76406825Y-128560103D01*
X76406868Y-128558466D01*
X76427816Y-128504564D01*
X76426184Y-128501214D01*
X76632868Y-128501214D01*
X76655730Y-128544477D01*
X76657985Y-128561334D01*
X76665740Y-128679649D01*
X76717471Y-128883343D01*
X76719890Y-128888590D01*
X76803038Y-129068953D01*
X76803041Y-129068958D01*
X76805457Y-129074199D01*
X76926751Y-129245825D01*
X77077289Y-129392474D01*
X77082085Y-129395679D01*
X77082088Y-129395681D01*
X77152499Y-129442728D01*
X77252031Y-129509233D01*
X77257339Y-129511514D01*
X77257340Y-129511514D01*
X77439822Y-129589914D01*
X77439825Y-129589915D01*
X77445125Y-129592192D01*
X77450754Y-129593466D01*
X77450755Y-129593466D01*
X77644467Y-129637299D01*
X77644473Y-129637300D01*
X77650104Y-129638574D01*
X77655875Y-129638801D01*
X77655877Y-129638801D01*
X77719433Y-129641298D01*
X77860103Y-129646825D01*
X78068088Y-129616669D01*
X78073552Y-129614814D01*
X78073557Y-129614813D01*
X78261624Y-129550973D01*
X78261629Y-129550971D01*
X78267096Y-129549115D01*
X78450460Y-129446426D01*
X78612041Y-129312041D01*
X78746426Y-129150460D01*
X78849115Y-128967096D01*
X78850971Y-128961629D01*
X78850973Y-128961624D01*
X78914813Y-128773557D01*
X78914814Y-128773552D01*
X78916669Y-128768088D01*
X78946825Y-128560103D01*
X78948399Y-128500000D01*
X78929169Y-128290721D01*
X78872123Y-128088451D01*
X78779171Y-127899963D01*
X78759820Y-127874048D01*
X78656880Y-127736195D01*
X78656879Y-127736194D01*
X78653427Y-127731571D01*
X78499101Y-127588914D01*
X78321362Y-127476769D01*
X78126163Y-127398892D01*
X78120506Y-127397767D01*
X78120500Y-127397765D01*
X77925707Y-127359019D01*
X77925705Y-127359019D01*
X77920040Y-127357892D01*
X77914265Y-127357816D01*
X77914261Y-127357816D01*
X77809001Y-127356438D01*
X77709898Y-127355141D01*
X77704201Y-127356120D01*
X77704200Y-127356120D01*
X77508469Y-127389753D01*
X77502772Y-127390732D01*
X77305601Y-127463472D01*
X77124988Y-127570926D01*
X76966981Y-127709494D01*
X76836872Y-127874537D01*
X76834181Y-127879653D01*
X76834179Y-127879655D01*
X76820769Y-127905144D01*
X76739018Y-128060527D01*
X76676696Y-128261234D01*
X76676017Y-128266969D01*
X76676017Y-128266970D01*
X76654212Y-128451206D01*
X76632868Y-128501214D01*
X76426184Y-128501214D01*
X76404855Y-128457440D01*
X76403614Y-128447926D01*
X76389698Y-128296478D01*
X76389169Y-128290721D01*
X76332123Y-128088451D01*
X76239171Y-127899963D01*
X76219820Y-127874048D01*
X76116880Y-127736195D01*
X76116879Y-127736194D01*
X76113427Y-127731571D01*
X75959101Y-127588914D01*
X75952267Y-127584602D01*
X75951544Y-127583781D01*
X75949634Y-127582316D01*
X75949922Y-127581941D01*
X75905327Y-127531337D01*
X75893500Y-127478039D01*
X75893500Y-121794594D01*
X75913502Y-121726473D01*
X75930405Y-121705499D01*
X81289276Y-116346628D01*
X81351588Y-116312602D01*
X81383314Y-116309820D01*
X81556423Y-116316622D01*
X81671789Y-116299894D01*
X81745955Y-116289141D01*
X81745959Y-116289140D01*
X81751677Y-116288311D01*
X81757149Y-116286453D01*
X81757151Y-116286453D01*
X81933038Y-116226747D01*
X81933040Y-116226746D01*
X81938502Y-116224892D01*
X82110642Y-116128490D01*
X82262331Y-116002331D01*
X82388490Y-115850642D01*
X82484892Y-115678502D01*
X82548311Y-115491677D01*
X82576622Y-115296423D01*
X82578099Y-115240000D01*
X82560046Y-115043532D01*
X82550684Y-115010334D01*
X82508060Y-114859203D01*
X82508059Y-114859201D01*
X82506492Y-114853644D01*
X82496286Y-114832947D01*
X82421786Y-114681876D01*
X82419231Y-114676695D01*
X82401407Y-114652825D01*
X82304637Y-114523235D01*
X82304636Y-114523234D01*
X82301184Y-114518611D01*
X82278764Y-114497886D01*
X82160546Y-114388607D01*
X82160544Y-114388605D01*
X82156305Y-114384687D01*
X81989447Y-114279407D01*
X81806197Y-114206297D01*
X81800529Y-114205170D01*
X81800527Y-114205169D01*
X81618360Y-114168934D01*
X81618356Y-114168934D01*
X81612692Y-114167807D01*
X81606917Y-114167731D01*
X81606913Y-114167731D01*
X81508267Y-114166440D01*
X81415413Y-114165224D01*
X81409716Y-114166203D01*
X81409715Y-114166203D01*
X81393822Y-114168934D01*
X81220967Y-114198636D01*
X81035866Y-114266924D01*
X81030905Y-114269876D01*
X81030904Y-114269876D01*
X80871277Y-114364844D01*
X80871274Y-114364846D01*
X80866309Y-114367800D01*
X80861969Y-114371606D01*
X80861965Y-114371609D01*
X80850566Y-114381606D01*
X80717975Y-114497886D01*
X80595830Y-114652825D01*
X80593141Y-114657936D01*
X80593139Y-114657939D01*
X80583271Y-114676695D01*
X80503966Y-114827429D01*
X80445460Y-115015851D01*
X80422270Y-115211779D01*
X80422648Y-115217545D01*
X80431457Y-115351938D01*
X80415954Y-115421221D01*
X80394822Y-115449274D01*
X74867747Y-120976348D01*
X74859461Y-120983888D01*
X74852982Y-120988000D01*
X74847557Y-120993777D01*
X74806357Y-121037651D01*
X74803602Y-121040493D01*
X74783865Y-121060230D01*
X74781385Y-121063427D01*
X74773682Y-121072447D01*
X74743414Y-121104679D01*
X74739595Y-121111625D01*
X74739593Y-121111628D01*
X74733652Y-121122434D01*
X74722801Y-121138953D01*
X74710386Y-121154959D01*
X74707241Y-121162228D01*
X74707238Y-121162232D01*
X74692826Y-121195537D01*
X74687609Y-121206187D01*
X74666305Y-121244940D01*
X74664334Y-121252615D01*
X74664334Y-121252616D01*
X74661267Y-121264562D01*
X74654863Y-121283266D01*
X74646819Y-121301855D01*
X74645580Y-121309678D01*
X74645577Y-121309688D01*
X74639901Y-121345524D01*
X74637495Y-121357144D01*
X74626500Y-121399970D01*
X74626500Y-121420224D01*
X74624949Y-121439934D01*
X74621780Y-121459943D01*
X74622526Y-121467835D01*
X74625941Y-121503961D01*
X74626500Y-121515819D01*
X74626500Y-126803138D01*
X74606498Y-126871259D01*
X74552842Y-126917752D01*
X74482568Y-126927856D01*
X74478519Y-126926981D01*
X74478145Y-126926819D01*
X74476744Y-126926597D01*
X74476725Y-126926593D01*
X74434476Y-126919901D01*
X74422856Y-126917495D01*
X74387711Y-126908472D01*
X74387710Y-126908472D01*
X74380030Y-126906500D01*
X74359776Y-126906500D01*
X74340065Y-126904949D01*
X74327886Y-126903020D01*
X74320057Y-126901780D01*
X74312165Y-126902526D01*
X74276039Y-126905941D01*
X74264181Y-126906500D01*
X72736595Y-126906500D01*
X72668474Y-126886498D01*
X72647500Y-126869595D01*
X66910608Y-121132703D01*
X68390743Y-121132703D01*
X68391302Y-121136947D01*
X68391302Y-121136951D01*
X68399015Y-121195537D01*
X68428268Y-121417734D01*
X68429401Y-121421874D01*
X68429401Y-121421876D01*
X68435326Y-121443534D01*
X68504129Y-121695036D01*
X68505813Y-121698984D01*
X68562764Y-121832502D01*
X68616923Y-121959476D01*
X68764561Y-122206161D01*
X68944313Y-122430528D01*
X69152851Y-122628423D01*
X69386317Y-122796186D01*
X69390112Y-122798195D01*
X69390113Y-122798196D01*
X69411869Y-122809715D01*
X69640392Y-122930712D01*
X69910373Y-123029511D01*
X70191264Y-123090755D01*
X70219841Y-123093004D01*
X70414282Y-123108307D01*
X70414291Y-123108307D01*
X70416739Y-123108500D01*
X70572271Y-123108500D01*
X70574407Y-123108354D01*
X70574418Y-123108354D01*
X70782548Y-123094165D01*
X70782554Y-123094164D01*
X70786825Y-123093873D01*
X70791020Y-123093004D01*
X70791022Y-123093004D01*
X70927583Y-123064724D01*
X71068342Y-123035574D01*
X71339343Y-122939607D01*
X71594812Y-122807750D01*
X71598313Y-122805289D01*
X71598317Y-122805287D01*
X71712418Y-122725095D01*
X71830023Y-122642441D01*
X72040622Y-122446740D01*
X72222713Y-122224268D01*
X72372927Y-121979142D01*
X72488483Y-121715898D01*
X72567244Y-121439406D01*
X72607751Y-121154784D01*
X72607845Y-121136951D01*
X72609235Y-120871583D01*
X72609235Y-120871576D01*
X72609257Y-120867297D01*
X72571732Y-120582266D01*
X72495871Y-120304964D01*
X72383077Y-120040524D01*
X72235439Y-119793839D01*
X72055687Y-119569472D01*
X71847149Y-119371577D01*
X71613683Y-119203814D01*
X71591843Y-119192250D01*
X71568654Y-119179972D01*
X71359608Y-119069288D01*
X71089627Y-118970489D01*
X70808736Y-118909245D01*
X70777685Y-118906801D01*
X70585718Y-118891693D01*
X70585709Y-118891693D01*
X70583261Y-118891500D01*
X70427729Y-118891500D01*
X70425593Y-118891646D01*
X70425582Y-118891646D01*
X70217452Y-118905835D01*
X70217446Y-118905836D01*
X70213175Y-118906127D01*
X70208980Y-118906996D01*
X70208978Y-118906996D01*
X70072417Y-118935276D01*
X69931658Y-118964426D01*
X69660657Y-119060393D01*
X69405188Y-119192250D01*
X69401687Y-119194711D01*
X69401683Y-119194713D01*
X69391594Y-119201804D01*
X69169977Y-119357559D01*
X68959378Y-119553260D01*
X68777287Y-119775732D01*
X68627073Y-120020858D01*
X68511517Y-120284102D01*
X68432756Y-120560594D01*
X68392249Y-120845216D01*
X68392227Y-120849505D01*
X68392226Y-120849512D01*
X68390765Y-121128417D01*
X68390743Y-121132703D01*
X66910608Y-121132703D01*
X66733122Y-120955217D01*
X66699096Y-120892905D01*
X66696907Y-120879292D01*
X66680232Y-120720635D01*
X66680232Y-120720633D01*
X66679542Y-120714072D01*
X66620527Y-120532444D01*
X66525040Y-120367056D01*
X66465578Y-120301016D01*
X66401675Y-120230045D01*
X66401674Y-120230044D01*
X66397253Y-120225134D01*
X66242752Y-120112882D01*
X66236724Y-120110198D01*
X66236722Y-120110197D01*
X66074319Y-120037891D01*
X66074318Y-120037891D01*
X66068288Y-120035206D01*
X65974888Y-120015353D01*
X65887944Y-119996872D01*
X65887939Y-119996872D01*
X65881487Y-119995500D01*
X65690513Y-119995500D01*
X65684061Y-119996872D01*
X65684056Y-119996872D01*
X65597112Y-120015353D01*
X65503712Y-120035206D01*
X65497682Y-120037891D01*
X65497681Y-120037891D01*
X65335278Y-120110197D01*
X65335276Y-120110198D01*
X65329248Y-120112882D01*
X65174747Y-120225134D01*
X65170326Y-120230044D01*
X65170325Y-120230045D01*
X65106423Y-120301016D01*
X65046960Y-120367056D01*
X64951473Y-120532444D01*
X64892458Y-120714072D01*
X64872496Y-120904000D01*
X57008500Y-120904000D01*
X57008500Y-115211779D01*
X58482270Y-115211779D01*
X58495174Y-115408652D01*
X58543739Y-115599877D01*
X58626339Y-115779049D01*
X58740207Y-115940169D01*
X58881530Y-116077840D01*
X58886326Y-116081045D01*
X58886329Y-116081047D01*
X58951809Y-116124799D01*
X59045576Y-116187452D01*
X59050879Y-116189730D01*
X59050882Y-116189732D01*
X59221542Y-116263053D01*
X59226849Y-116265333D01*
X59320185Y-116286453D01*
X59413644Y-116307601D01*
X59413647Y-116307601D01*
X59419280Y-116308876D01*
X59425051Y-116309103D01*
X59425053Y-116309103D01*
X59484054Y-116311421D01*
X59616423Y-116316622D01*
X59731789Y-116299894D01*
X59805955Y-116289141D01*
X59805959Y-116289140D01*
X59811677Y-116288311D01*
X59817149Y-116286453D01*
X59817151Y-116286453D01*
X59993038Y-116226747D01*
X59993040Y-116226746D01*
X59998502Y-116224892D01*
X60170642Y-116128490D01*
X60322331Y-116002331D01*
X60448490Y-115850642D01*
X60544892Y-115678502D01*
X60608311Y-115491677D01*
X60636622Y-115296423D01*
X60638099Y-115240000D01*
X60635506Y-115211779D01*
X66422270Y-115211779D01*
X66435174Y-115408652D01*
X66483739Y-115599877D01*
X66566339Y-115779049D01*
X66680207Y-115940169D01*
X66821530Y-116077840D01*
X66826326Y-116081045D01*
X66826329Y-116081047D01*
X66891809Y-116124799D01*
X66985576Y-116187452D01*
X66990879Y-116189730D01*
X66990882Y-116189732D01*
X67161542Y-116263053D01*
X67166849Y-116265333D01*
X67260185Y-116286453D01*
X67353644Y-116307601D01*
X67353647Y-116307601D01*
X67359280Y-116308876D01*
X67365051Y-116309103D01*
X67365053Y-116309103D01*
X67424054Y-116311421D01*
X67556423Y-116316622D01*
X67671789Y-116299894D01*
X67745955Y-116289141D01*
X67745959Y-116289140D01*
X67751677Y-116288311D01*
X67757149Y-116286453D01*
X67757151Y-116286453D01*
X67933038Y-116226747D01*
X67933040Y-116226746D01*
X67938502Y-116224892D01*
X68110642Y-116128490D01*
X68262331Y-116002331D01*
X68388490Y-115850642D01*
X68484892Y-115678502D01*
X68548311Y-115491677D01*
X68576622Y-115296423D01*
X68578099Y-115240000D01*
X68575506Y-115211779D01*
X72482270Y-115211779D01*
X72495174Y-115408652D01*
X72543739Y-115599877D01*
X72626339Y-115779049D01*
X72740207Y-115940169D01*
X72881530Y-116077840D01*
X72886326Y-116081045D01*
X72886329Y-116081047D01*
X72951809Y-116124799D01*
X73045576Y-116187452D01*
X73050879Y-116189730D01*
X73050882Y-116189732D01*
X73221542Y-116263053D01*
X73226849Y-116265333D01*
X73320185Y-116286453D01*
X73413644Y-116307601D01*
X73413647Y-116307601D01*
X73419280Y-116308876D01*
X73425051Y-116309103D01*
X73425053Y-116309103D01*
X73484054Y-116311421D01*
X73616423Y-116316622D01*
X73731789Y-116299894D01*
X73805955Y-116289141D01*
X73805959Y-116289140D01*
X73811677Y-116288311D01*
X73817149Y-116286453D01*
X73817151Y-116286453D01*
X73993038Y-116226747D01*
X73993040Y-116226746D01*
X73998502Y-116224892D01*
X74170642Y-116128490D01*
X74322331Y-116002331D01*
X74448490Y-115850642D01*
X74544892Y-115678502D01*
X74608311Y-115491677D01*
X74636622Y-115296423D01*
X74638099Y-115240000D01*
X74620046Y-115043532D01*
X74610684Y-115010334D01*
X74568060Y-114859203D01*
X74568059Y-114859201D01*
X74566492Y-114853644D01*
X74556286Y-114832947D01*
X74481786Y-114681876D01*
X74479231Y-114676695D01*
X74461407Y-114652825D01*
X74364637Y-114523235D01*
X74364636Y-114523234D01*
X74361184Y-114518611D01*
X74338764Y-114497886D01*
X74220546Y-114388607D01*
X74220544Y-114388605D01*
X74216305Y-114384687D01*
X74049447Y-114279407D01*
X73866197Y-114206297D01*
X73860529Y-114205170D01*
X73860527Y-114205169D01*
X73678360Y-114168934D01*
X73678356Y-114168934D01*
X73672692Y-114167807D01*
X73666917Y-114167731D01*
X73666913Y-114167731D01*
X73568267Y-114166440D01*
X73475413Y-114165224D01*
X73469716Y-114166203D01*
X73469715Y-114166203D01*
X73453822Y-114168934D01*
X73280967Y-114198636D01*
X73095866Y-114266924D01*
X73090905Y-114269876D01*
X73090904Y-114269876D01*
X72931277Y-114364844D01*
X72931274Y-114364846D01*
X72926309Y-114367800D01*
X72921969Y-114371606D01*
X72921965Y-114371609D01*
X72910566Y-114381606D01*
X72777975Y-114497886D01*
X72655830Y-114652825D01*
X72653141Y-114657936D01*
X72653139Y-114657939D01*
X72643271Y-114676695D01*
X72563966Y-114827429D01*
X72505460Y-115015851D01*
X72482270Y-115211779D01*
X68575506Y-115211779D01*
X68560046Y-115043532D01*
X68550684Y-115010334D01*
X68508060Y-114859203D01*
X68508059Y-114859201D01*
X68506492Y-114853644D01*
X68496286Y-114832947D01*
X68421786Y-114681876D01*
X68419231Y-114676695D01*
X68401407Y-114652825D01*
X68304637Y-114523235D01*
X68304636Y-114523234D01*
X68301184Y-114518611D01*
X68278764Y-114497886D01*
X68160546Y-114388607D01*
X68160544Y-114388605D01*
X68156305Y-114384687D01*
X67989447Y-114279407D01*
X67806197Y-114206297D01*
X67800529Y-114205170D01*
X67800527Y-114205169D01*
X67618360Y-114168934D01*
X67618356Y-114168934D01*
X67612692Y-114167807D01*
X67606917Y-114167731D01*
X67606913Y-114167731D01*
X67508267Y-114166440D01*
X67415413Y-114165224D01*
X67409716Y-114166203D01*
X67409715Y-114166203D01*
X67393822Y-114168934D01*
X67220967Y-114198636D01*
X67035866Y-114266924D01*
X67030905Y-114269876D01*
X67030904Y-114269876D01*
X66871277Y-114364844D01*
X66871274Y-114364846D01*
X66866309Y-114367800D01*
X66861969Y-114371606D01*
X66861965Y-114371609D01*
X66850566Y-114381606D01*
X66717975Y-114497886D01*
X66595830Y-114652825D01*
X66593141Y-114657936D01*
X66593139Y-114657939D01*
X66583271Y-114676695D01*
X66503966Y-114827429D01*
X66445460Y-115015851D01*
X66422270Y-115211779D01*
X60635506Y-115211779D01*
X60620046Y-115043532D01*
X60610684Y-115010334D01*
X60568060Y-114859203D01*
X60568059Y-114859201D01*
X60566492Y-114853644D01*
X60556286Y-114832947D01*
X60481786Y-114681876D01*
X60479231Y-114676695D01*
X60461407Y-114652825D01*
X60364637Y-114523235D01*
X60364636Y-114523234D01*
X60361184Y-114518611D01*
X60338764Y-114497886D01*
X60220546Y-114388607D01*
X60220544Y-114388605D01*
X60216305Y-114384687D01*
X60049447Y-114279407D01*
X59866197Y-114206297D01*
X59860529Y-114205170D01*
X59860527Y-114205169D01*
X59678360Y-114168934D01*
X59678356Y-114168934D01*
X59672692Y-114167807D01*
X59666917Y-114167731D01*
X59666913Y-114167731D01*
X59568267Y-114166440D01*
X59475413Y-114165224D01*
X59469716Y-114166203D01*
X59469715Y-114166203D01*
X59453822Y-114168934D01*
X59280967Y-114198636D01*
X59095866Y-114266924D01*
X59090905Y-114269876D01*
X59090904Y-114269876D01*
X58931277Y-114364844D01*
X58931274Y-114364846D01*
X58926309Y-114367800D01*
X58921969Y-114371606D01*
X58921965Y-114371609D01*
X58910566Y-114381606D01*
X58777975Y-114497886D01*
X58655830Y-114652825D01*
X58653141Y-114657936D01*
X58653139Y-114657939D01*
X58643271Y-114676695D01*
X58563966Y-114827429D01*
X58505460Y-115015851D01*
X58482270Y-115211779D01*
X57008500Y-115211779D01*
X57008500Y-112671779D01*
X58482270Y-112671779D01*
X58495174Y-112868652D01*
X58543739Y-113059877D01*
X58626339Y-113239049D01*
X58740207Y-113400169D01*
X58881530Y-113537840D01*
X58886326Y-113541045D01*
X58886329Y-113541047D01*
X58951809Y-113584799D01*
X59045576Y-113647452D01*
X59050879Y-113649730D01*
X59050882Y-113649732D01*
X59221542Y-113723053D01*
X59226849Y-113725333D01*
X59320185Y-113746453D01*
X59413644Y-113767601D01*
X59413647Y-113767601D01*
X59419280Y-113768876D01*
X59425051Y-113769103D01*
X59425053Y-113769103D01*
X59484054Y-113771421D01*
X59616423Y-113776622D01*
X59731789Y-113759894D01*
X59805955Y-113749141D01*
X59805959Y-113749140D01*
X59811677Y-113748311D01*
X59817149Y-113746453D01*
X59817151Y-113746453D01*
X59993038Y-113686747D01*
X59993040Y-113686746D01*
X59998502Y-113684892D01*
X60170642Y-113588490D01*
X60322331Y-113462331D01*
X60448490Y-113310642D01*
X60544892Y-113138502D01*
X60608311Y-112951677D01*
X60636622Y-112756423D01*
X60638099Y-112700000D01*
X60635506Y-112671779D01*
X66422270Y-112671779D01*
X66435174Y-112868652D01*
X66483739Y-113059877D01*
X66566339Y-113239049D01*
X66680207Y-113400169D01*
X66821530Y-113537840D01*
X66826326Y-113541045D01*
X66826329Y-113541047D01*
X66891809Y-113584799D01*
X66985576Y-113647452D01*
X66990879Y-113649730D01*
X66990882Y-113649732D01*
X67161542Y-113723053D01*
X67166849Y-113725333D01*
X67260185Y-113746453D01*
X67353644Y-113767601D01*
X67353647Y-113767601D01*
X67359280Y-113768876D01*
X67365051Y-113769103D01*
X67365053Y-113769103D01*
X67424054Y-113771421D01*
X67556423Y-113776622D01*
X67671789Y-113759894D01*
X67745955Y-113749141D01*
X67745959Y-113749140D01*
X67751677Y-113748311D01*
X67757149Y-113746453D01*
X67757151Y-113746453D01*
X67933038Y-113686747D01*
X67933040Y-113686746D01*
X67938502Y-113684892D01*
X68110642Y-113588490D01*
X68262331Y-113462331D01*
X68388490Y-113310642D01*
X68484892Y-113138502D01*
X68548311Y-112951677D01*
X68576622Y-112756423D01*
X68578099Y-112700000D01*
X68575506Y-112671779D01*
X72482270Y-112671779D01*
X72495174Y-112868652D01*
X72543739Y-113059877D01*
X72626339Y-113239049D01*
X72740207Y-113400169D01*
X72881530Y-113537840D01*
X72886326Y-113541045D01*
X72886329Y-113541047D01*
X72951809Y-113584799D01*
X73045576Y-113647452D01*
X73050879Y-113649730D01*
X73050882Y-113649732D01*
X73221542Y-113723053D01*
X73226849Y-113725333D01*
X73320185Y-113746453D01*
X73413644Y-113767601D01*
X73413647Y-113767601D01*
X73419280Y-113768876D01*
X73425051Y-113769103D01*
X73425053Y-113769103D01*
X73484054Y-113771421D01*
X73616423Y-113776622D01*
X73731789Y-113759894D01*
X73805955Y-113749141D01*
X73805959Y-113749140D01*
X73811677Y-113748311D01*
X73817149Y-113746453D01*
X73817151Y-113746453D01*
X73993038Y-113686747D01*
X73993040Y-113686746D01*
X73998502Y-113684892D01*
X74170642Y-113588490D01*
X74322331Y-113462331D01*
X74448490Y-113310642D01*
X74544892Y-113138502D01*
X74608311Y-112951677D01*
X74636622Y-112756423D01*
X74638099Y-112700000D01*
X74635506Y-112671779D01*
X80422270Y-112671779D01*
X80435174Y-112868652D01*
X80483739Y-113059877D01*
X80566339Y-113239049D01*
X80680207Y-113400169D01*
X80821530Y-113537840D01*
X80826326Y-113541045D01*
X80826329Y-113541047D01*
X80891809Y-113584799D01*
X80985576Y-113647452D01*
X80990879Y-113649730D01*
X80990882Y-113649732D01*
X81161542Y-113723053D01*
X81166849Y-113725333D01*
X81260185Y-113746453D01*
X81353644Y-113767601D01*
X81353647Y-113767601D01*
X81359280Y-113768876D01*
X81365051Y-113769103D01*
X81365053Y-113769103D01*
X81424054Y-113771421D01*
X81556423Y-113776622D01*
X81671789Y-113759894D01*
X81745955Y-113749141D01*
X81745959Y-113749140D01*
X81751677Y-113748311D01*
X81757149Y-113746453D01*
X81757151Y-113746453D01*
X81933038Y-113686747D01*
X81933040Y-113686746D01*
X81938502Y-113684892D01*
X82110642Y-113588490D01*
X82262331Y-113462331D01*
X82388490Y-113310642D01*
X82484892Y-113138502D01*
X82548311Y-112951677D01*
X82576622Y-112756423D01*
X82578099Y-112700000D01*
X82560046Y-112503532D01*
X82550684Y-112470334D01*
X82508060Y-112319203D01*
X82508059Y-112319201D01*
X82506492Y-112313644D01*
X82496286Y-112292947D01*
X82421786Y-112141876D01*
X82419231Y-112136695D01*
X82401407Y-112112825D01*
X82304637Y-111983235D01*
X82304636Y-111983234D01*
X82301184Y-111978611D01*
X82278764Y-111957886D01*
X82160546Y-111848607D01*
X82160544Y-111848605D01*
X82156305Y-111844687D01*
X81989447Y-111739407D01*
X81806197Y-111666297D01*
X81800529Y-111665170D01*
X81800527Y-111665169D01*
X81618360Y-111628934D01*
X81618356Y-111628934D01*
X81612692Y-111627807D01*
X81606917Y-111627731D01*
X81606913Y-111627731D01*
X81508267Y-111626440D01*
X81415413Y-111625224D01*
X81409716Y-111626203D01*
X81409715Y-111626203D01*
X81393822Y-111628934D01*
X81220967Y-111658636D01*
X81035866Y-111726924D01*
X81030905Y-111729876D01*
X81030904Y-111729876D01*
X80871277Y-111824844D01*
X80871274Y-111824846D01*
X80866309Y-111827800D01*
X80861969Y-111831606D01*
X80861965Y-111831609D01*
X80850566Y-111841606D01*
X80717975Y-111957886D01*
X80595830Y-112112825D01*
X80593141Y-112117936D01*
X80593139Y-112117939D01*
X80583271Y-112136695D01*
X80503966Y-112287429D01*
X80445460Y-112475851D01*
X80422270Y-112671779D01*
X74635506Y-112671779D01*
X74620046Y-112503532D01*
X74610684Y-112470334D01*
X74568060Y-112319203D01*
X74568059Y-112319201D01*
X74566492Y-112313644D01*
X74556286Y-112292947D01*
X74481786Y-112141876D01*
X74479231Y-112136695D01*
X74461407Y-112112825D01*
X74364637Y-111983235D01*
X74364636Y-111983234D01*
X74361184Y-111978611D01*
X74338764Y-111957886D01*
X74220546Y-111848607D01*
X74220544Y-111848605D01*
X74216305Y-111844687D01*
X74049447Y-111739407D01*
X73866197Y-111666297D01*
X73860529Y-111665170D01*
X73860527Y-111665169D01*
X73678360Y-111628934D01*
X73678356Y-111628934D01*
X73672692Y-111627807D01*
X73666917Y-111627731D01*
X73666913Y-111627731D01*
X73568267Y-111626440D01*
X73475413Y-111625224D01*
X73469716Y-111626203D01*
X73469715Y-111626203D01*
X73453822Y-111628934D01*
X73280967Y-111658636D01*
X73095866Y-111726924D01*
X73090905Y-111729876D01*
X73090904Y-111729876D01*
X72931277Y-111824844D01*
X72931274Y-111824846D01*
X72926309Y-111827800D01*
X72921969Y-111831606D01*
X72921965Y-111831609D01*
X72910566Y-111841606D01*
X72777975Y-111957886D01*
X72655830Y-112112825D01*
X72653141Y-112117936D01*
X72653139Y-112117939D01*
X72643271Y-112136695D01*
X72563966Y-112287429D01*
X72505460Y-112475851D01*
X72482270Y-112671779D01*
X68575506Y-112671779D01*
X68560046Y-112503532D01*
X68550684Y-112470334D01*
X68508060Y-112319203D01*
X68508059Y-112319201D01*
X68506492Y-112313644D01*
X68496286Y-112292947D01*
X68421786Y-112141876D01*
X68419231Y-112136695D01*
X68401407Y-112112825D01*
X68304637Y-111983235D01*
X68304636Y-111983234D01*
X68301184Y-111978611D01*
X68278764Y-111957886D01*
X68160546Y-111848607D01*
X68160544Y-111848605D01*
X68156305Y-111844687D01*
X67989447Y-111739407D01*
X67806197Y-111666297D01*
X67800529Y-111665170D01*
X67800527Y-111665169D01*
X67618360Y-111628934D01*
X67618356Y-111628934D01*
X67612692Y-111627807D01*
X67606917Y-111627731D01*
X67606913Y-111627731D01*
X67508267Y-111626440D01*
X67415413Y-111625224D01*
X67409716Y-111626203D01*
X67409715Y-111626203D01*
X67393822Y-111628934D01*
X67220967Y-111658636D01*
X67035866Y-111726924D01*
X67030905Y-111729876D01*
X67030904Y-111729876D01*
X66871277Y-111824844D01*
X66871274Y-111824846D01*
X66866309Y-111827800D01*
X66861969Y-111831606D01*
X66861965Y-111831609D01*
X66850566Y-111841606D01*
X66717975Y-111957886D01*
X66595830Y-112112825D01*
X66593141Y-112117936D01*
X66593139Y-112117939D01*
X66583271Y-112136695D01*
X66503966Y-112287429D01*
X66445460Y-112475851D01*
X66422270Y-112671779D01*
X60635506Y-112671779D01*
X60620046Y-112503532D01*
X60610684Y-112470334D01*
X60568060Y-112319203D01*
X60568059Y-112319201D01*
X60566492Y-112313644D01*
X60556286Y-112292947D01*
X60481786Y-112141876D01*
X60479231Y-112136695D01*
X60461407Y-112112825D01*
X60364637Y-111983235D01*
X60364636Y-111983234D01*
X60361184Y-111978611D01*
X60338764Y-111957886D01*
X60220546Y-111848607D01*
X60220544Y-111848605D01*
X60216305Y-111844687D01*
X60049447Y-111739407D01*
X59866197Y-111666297D01*
X59860529Y-111665170D01*
X59860527Y-111665169D01*
X59678360Y-111628934D01*
X59678356Y-111628934D01*
X59672692Y-111627807D01*
X59666917Y-111627731D01*
X59666913Y-111627731D01*
X59568267Y-111626440D01*
X59475413Y-111625224D01*
X59469716Y-111626203D01*
X59469715Y-111626203D01*
X59453822Y-111628934D01*
X59280967Y-111658636D01*
X59095866Y-111726924D01*
X59090905Y-111729876D01*
X59090904Y-111729876D01*
X58931277Y-111824844D01*
X58931274Y-111824846D01*
X58926309Y-111827800D01*
X58921969Y-111831606D01*
X58921965Y-111831609D01*
X58910566Y-111841606D01*
X58777975Y-111957886D01*
X58655830Y-112112825D01*
X58653141Y-112117936D01*
X58653139Y-112117939D01*
X58643271Y-112136695D01*
X58563966Y-112287429D01*
X58505460Y-112475851D01*
X58482270Y-112671779D01*
X57008500Y-112671779D01*
X57008500Y-110131779D01*
X58482270Y-110131779D01*
X58495174Y-110328652D01*
X58543739Y-110519877D01*
X58626339Y-110699049D01*
X58740207Y-110860169D01*
X58881530Y-110997840D01*
X58886326Y-111001045D01*
X58886329Y-111001047D01*
X58951809Y-111044799D01*
X59045576Y-111107452D01*
X59050879Y-111109730D01*
X59050882Y-111109732D01*
X59221542Y-111183053D01*
X59226849Y-111185333D01*
X59320185Y-111206453D01*
X59413644Y-111227601D01*
X59413647Y-111227601D01*
X59419280Y-111228876D01*
X59425051Y-111229103D01*
X59425053Y-111229103D01*
X59484054Y-111231421D01*
X59616423Y-111236622D01*
X59731789Y-111219894D01*
X59805955Y-111209141D01*
X59805959Y-111209140D01*
X59811677Y-111208311D01*
X59817149Y-111206453D01*
X59817151Y-111206453D01*
X59993038Y-111146747D01*
X59993040Y-111146746D01*
X59998502Y-111144892D01*
X60170642Y-111048490D01*
X60322331Y-110922331D01*
X60448490Y-110770642D01*
X60544892Y-110598502D01*
X60608311Y-110411677D01*
X60636622Y-110216423D01*
X60638099Y-110160000D01*
X60635506Y-110131779D01*
X66422270Y-110131779D01*
X66435174Y-110328652D01*
X66483739Y-110519877D01*
X66566339Y-110699049D01*
X66680207Y-110860169D01*
X66821530Y-110997840D01*
X66826326Y-111001045D01*
X66826329Y-111001047D01*
X66891809Y-111044799D01*
X66985576Y-111107452D01*
X66990879Y-111109730D01*
X66990882Y-111109732D01*
X67161542Y-111183053D01*
X67166849Y-111185333D01*
X67260185Y-111206453D01*
X67353644Y-111227601D01*
X67353647Y-111227601D01*
X67359280Y-111228876D01*
X67365051Y-111229103D01*
X67365053Y-111229103D01*
X67424054Y-111231421D01*
X67556423Y-111236622D01*
X67671789Y-111219894D01*
X67745955Y-111209141D01*
X67745959Y-111209140D01*
X67751677Y-111208311D01*
X67757149Y-111206453D01*
X67757151Y-111206453D01*
X67933038Y-111146747D01*
X67933040Y-111146746D01*
X67938502Y-111144892D01*
X68110642Y-111048490D01*
X68262331Y-110922331D01*
X68388490Y-110770642D01*
X68484892Y-110598502D01*
X68548311Y-110411677D01*
X68576622Y-110216423D01*
X68578099Y-110160000D01*
X68575506Y-110131779D01*
X72482270Y-110131779D01*
X72495174Y-110328652D01*
X72543739Y-110519877D01*
X72626339Y-110699049D01*
X72740207Y-110860169D01*
X72881530Y-110997840D01*
X72886326Y-111001045D01*
X72886329Y-111001047D01*
X72951809Y-111044799D01*
X73045576Y-111107452D01*
X73050879Y-111109730D01*
X73050882Y-111109732D01*
X73221542Y-111183053D01*
X73226849Y-111185333D01*
X73320185Y-111206453D01*
X73413644Y-111227601D01*
X73413647Y-111227601D01*
X73419280Y-111228876D01*
X73425051Y-111229103D01*
X73425053Y-111229103D01*
X73484054Y-111231421D01*
X73616423Y-111236622D01*
X73731789Y-111219894D01*
X73805955Y-111209141D01*
X73805959Y-111209140D01*
X73811677Y-111208311D01*
X73817149Y-111206453D01*
X73817151Y-111206453D01*
X73993038Y-111146747D01*
X73993040Y-111146746D01*
X73998502Y-111144892D01*
X74170642Y-111048490D01*
X74322331Y-110922331D01*
X74448490Y-110770642D01*
X74544892Y-110598502D01*
X74608311Y-110411677D01*
X74636622Y-110216423D01*
X74638099Y-110160000D01*
X74635506Y-110131779D01*
X80422270Y-110131779D01*
X80435174Y-110328652D01*
X80483739Y-110519877D01*
X80566339Y-110699049D01*
X80680207Y-110860169D01*
X80821530Y-110997840D01*
X80826326Y-111001045D01*
X80826329Y-111001047D01*
X80891809Y-111044799D01*
X80985576Y-111107452D01*
X80990879Y-111109730D01*
X80990882Y-111109732D01*
X81161542Y-111183053D01*
X81166849Y-111185333D01*
X81260185Y-111206453D01*
X81353644Y-111227601D01*
X81353647Y-111227601D01*
X81359280Y-111228876D01*
X81365051Y-111229103D01*
X81365053Y-111229103D01*
X81424054Y-111231421D01*
X81556423Y-111236622D01*
X81671789Y-111219894D01*
X81745955Y-111209141D01*
X81745959Y-111209140D01*
X81751677Y-111208311D01*
X81757149Y-111206453D01*
X81757151Y-111206453D01*
X81933038Y-111146747D01*
X81933040Y-111146746D01*
X81938502Y-111144892D01*
X82110642Y-111048490D01*
X82262331Y-110922331D01*
X82388490Y-110770642D01*
X82484892Y-110598502D01*
X82548311Y-110411677D01*
X82576622Y-110216423D01*
X82578099Y-110160000D01*
X82560046Y-109963532D01*
X82550684Y-109930334D01*
X82508060Y-109779203D01*
X82508059Y-109779201D01*
X82506492Y-109773644D01*
X82496286Y-109752947D01*
X82421786Y-109601876D01*
X82419231Y-109596695D01*
X82401407Y-109572825D01*
X82304637Y-109443235D01*
X82304636Y-109443234D01*
X82301184Y-109438611D01*
X82278764Y-109417886D01*
X82160546Y-109308607D01*
X82160544Y-109308605D01*
X82156305Y-109304687D01*
X81989447Y-109199407D01*
X81806197Y-109126297D01*
X81800529Y-109125170D01*
X81800527Y-109125169D01*
X81618360Y-109088934D01*
X81618356Y-109088934D01*
X81612692Y-109087807D01*
X81606917Y-109087731D01*
X81606913Y-109087731D01*
X81508267Y-109086440D01*
X81415413Y-109085224D01*
X81409716Y-109086203D01*
X81409715Y-109086203D01*
X81393822Y-109088934D01*
X81220967Y-109118636D01*
X81035866Y-109186924D01*
X81030905Y-109189876D01*
X81030904Y-109189876D01*
X80871277Y-109284844D01*
X80871274Y-109284846D01*
X80866309Y-109287800D01*
X80861969Y-109291606D01*
X80861965Y-109291609D01*
X80850566Y-109301606D01*
X80717975Y-109417886D01*
X80595830Y-109572825D01*
X80593141Y-109577936D01*
X80593139Y-109577939D01*
X80583271Y-109596695D01*
X80503966Y-109747429D01*
X80445460Y-109935851D01*
X80422270Y-110131779D01*
X74635506Y-110131779D01*
X74620046Y-109963532D01*
X74610684Y-109930334D01*
X74568060Y-109779203D01*
X74568059Y-109779201D01*
X74566492Y-109773644D01*
X74556286Y-109752947D01*
X74481786Y-109601876D01*
X74479231Y-109596695D01*
X74461407Y-109572825D01*
X74364637Y-109443235D01*
X74364636Y-109443234D01*
X74361184Y-109438611D01*
X74338764Y-109417886D01*
X74220546Y-109308607D01*
X74220544Y-109308605D01*
X74216305Y-109304687D01*
X74049447Y-109199407D01*
X73866197Y-109126297D01*
X73860529Y-109125170D01*
X73860527Y-109125169D01*
X73678360Y-109088934D01*
X73678356Y-109088934D01*
X73672692Y-109087807D01*
X73666917Y-109087731D01*
X73666913Y-109087731D01*
X73568267Y-109086440D01*
X73475413Y-109085224D01*
X73469716Y-109086203D01*
X73469715Y-109086203D01*
X73453822Y-109088934D01*
X73280967Y-109118636D01*
X73095866Y-109186924D01*
X73090905Y-109189876D01*
X73090904Y-109189876D01*
X72931277Y-109284844D01*
X72931274Y-109284846D01*
X72926309Y-109287800D01*
X72921969Y-109291606D01*
X72921965Y-109291609D01*
X72910566Y-109301606D01*
X72777975Y-109417886D01*
X72655830Y-109572825D01*
X72653141Y-109577936D01*
X72653139Y-109577939D01*
X72643271Y-109596695D01*
X72563966Y-109747429D01*
X72505460Y-109935851D01*
X72482270Y-110131779D01*
X68575506Y-110131779D01*
X68560046Y-109963532D01*
X68550684Y-109930334D01*
X68508060Y-109779203D01*
X68508059Y-109779201D01*
X68506492Y-109773644D01*
X68496286Y-109752947D01*
X68421786Y-109601876D01*
X68419231Y-109596695D01*
X68401407Y-109572825D01*
X68304637Y-109443235D01*
X68304636Y-109443234D01*
X68301184Y-109438611D01*
X68278764Y-109417886D01*
X68160546Y-109308607D01*
X68160544Y-109308605D01*
X68156305Y-109304687D01*
X67989447Y-109199407D01*
X67806197Y-109126297D01*
X67800529Y-109125170D01*
X67800527Y-109125169D01*
X67618360Y-109088934D01*
X67618356Y-109088934D01*
X67612692Y-109087807D01*
X67606917Y-109087731D01*
X67606913Y-109087731D01*
X67508267Y-109086440D01*
X67415413Y-109085224D01*
X67409716Y-109086203D01*
X67409715Y-109086203D01*
X67393822Y-109088934D01*
X67220967Y-109118636D01*
X67035866Y-109186924D01*
X67030905Y-109189876D01*
X67030904Y-109189876D01*
X66871277Y-109284844D01*
X66871274Y-109284846D01*
X66866309Y-109287800D01*
X66861969Y-109291606D01*
X66861965Y-109291609D01*
X66850566Y-109301606D01*
X66717975Y-109417886D01*
X66595830Y-109572825D01*
X66593141Y-109577936D01*
X66593139Y-109577939D01*
X66583271Y-109596695D01*
X66503966Y-109747429D01*
X66445460Y-109935851D01*
X66422270Y-110131779D01*
X60635506Y-110131779D01*
X60620046Y-109963532D01*
X60610684Y-109930334D01*
X60568060Y-109779203D01*
X60568059Y-109779201D01*
X60566492Y-109773644D01*
X60556286Y-109752947D01*
X60481786Y-109601876D01*
X60479231Y-109596695D01*
X60461407Y-109572825D01*
X60364637Y-109443235D01*
X60364636Y-109443234D01*
X60361184Y-109438611D01*
X60338764Y-109417886D01*
X60220546Y-109308607D01*
X60220544Y-109308605D01*
X60216305Y-109304687D01*
X60049447Y-109199407D01*
X59866197Y-109126297D01*
X59860529Y-109125170D01*
X59860527Y-109125169D01*
X59678360Y-109088934D01*
X59678356Y-109088934D01*
X59672692Y-109087807D01*
X59666917Y-109087731D01*
X59666913Y-109087731D01*
X59568267Y-109086440D01*
X59475413Y-109085224D01*
X59469716Y-109086203D01*
X59469715Y-109086203D01*
X59453822Y-109088934D01*
X59280967Y-109118636D01*
X59095866Y-109186924D01*
X59090905Y-109189876D01*
X59090904Y-109189876D01*
X58931277Y-109284844D01*
X58931274Y-109284846D01*
X58926309Y-109287800D01*
X58921969Y-109291606D01*
X58921965Y-109291609D01*
X58910566Y-109301606D01*
X58777975Y-109417886D01*
X58655830Y-109572825D01*
X58653141Y-109577936D01*
X58653139Y-109577939D01*
X58643271Y-109596695D01*
X58563966Y-109747429D01*
X58505460Y-109935851D01*
X58482270Y-110131779D01*
X57008500Y-110131779D01*
X57008500Y-107591779D01*
X58482270Y-107591779D01*
X58495174Y-107788652D01*
X58543739Y-107979877D01*
X58626339Y-108159049D01*
X58740207Y-108320169D01*
X58881530Y-108457840D01*
X58886326Y-108461045D01*
X58886329Y-108461047D01*
X58951809Y-108504799D01*
X59045576Y-108567452D01*
X59050879Y-108569730D01*
X59050882Y-108569732D01*
X59221542Y-108643053D01*
X59226849Y-108645333D01*
X59320185Y-108666453D01*
X59413644Y-108687601D01*
X59413647Y-108687601D01*
X59419280Y-108688876D01*
X59425051Y-108689103D01*
X59425053Y-108689103D01*
X59484054Y-108691421D01*
X59616423Y-108696622D01*
X59731789Y-108679894D01*
X59805955Y-108669141D01*
X59805959Y-108669140D01*
X59811677Y-108668311D01*
X59817149Y-108666453D01*
X59817151Y-108666453D01*
X59993038Y-108606747D01*
X59993040Y-108606746D01*
X59998502Y-108604892D01*
X60170642Y-108508490D01*
X60322331Y-108382331D01*
X60448490Y-108230642D01*
X60544892Y-108058502D01*
X60608311Y-107871677D01*
X60636622Y-107676423D01*
X60638099Y-107620000D01*
X60635506Y-107591779D01*
X66422270Y-107591779D01*
X66435174Y-107788652D01*
X66483739Y-107979877D01*
X66566339Y-108159049D01*
X66680207Y-108320169D01*
X66821530Y-108457840D01*
X66826326Y-108461045D01*
X66826329Y-108461047D01*
X66891809Y-108504799D01*
X66985576Y-108567452D01*
X66990879Y-108569730D01*
X66990882Y-108569732D01*
X67161542Y-108643053D01*
X67166849Y-108645333D01*
X67260185Y-108666453D01*
X67353644Y-108687601D01*
X67353647Y-108687601D01*
X67359280Y-108688876D01*
X67365051Y-108689103D01*
X67365053Y-108689103D01*
X67424054Y-108691421D01*
X67556423Y-108696622D01*
X67671789Y-108679894D01*
X67745955Y-108669141D01*
X67745959Y-108669140D01*
X67751677Y-108668311D01*
X67757149Y-108666453D01*
X67757151Y-108666453D01*
X67933038Y-108606747D01*
X67933040Y-108606746D01*
X67938502Y-108604892D01*
X68110642Y-108508490D01*
X68262331Y-108382331D01*
X68388490Y-108230642D01*
X68484892Y-108058502D01*
X68548311Y-107871677D01*
X68576622Y-107676423D01*
X68578099Y-107620000D01*
X68560046Y-107423532D01*
X68550684Y-107390334D01*
X68508060Y-107239203D01*
X68508059Y-107239201D01*
X68506492Y-107233644D01*
X68496286Y-107212947D01*
X68421786Y-107061876D01*
X68419231Y-107056695D01*
X68410848Y-107045468D01*
X68304637Y-106903235D01*
X68304636Y-106903234D01*
X68301184Y-106898611D01*
X68283661Y-106882413D01*
X68160546Y-106768607D01*
X68160544Y-106768605D01*
X68156305Y-106764687D01*
X67989447Y-106659407D01*
X67806197Y-106586297D01*
X67800529Y-106585170D01*
X67800527Y-106585169D01*
X67618360Y-106548934D01*
X67618356Y-106548934D01*
X67612692Y-106547807D01*
X67606917Y-106547731D01*
X67606913Y-106547731D01*
X67508267Y-106546440D01*
X67415413Y-106545224D01*
X67409716Y-106546203D01*
X67409715Y-106546203D01*
X67393822Y-106548934D01*
X67220967Y-106578636D01*
X67035866Y-106646924D01*
X67030905Y-106649876D01*
X67030904Y-106649876D01*
X66871277Y-106744844D01*
X66871274Y-106744846D01*
X66866309Y-106747800D01*
X66861969Y-106751606D01*
X66861965Y-106751609D01*
X66850566Y-106761606D01*
X66717975Y-106877886D01*
X66595830Y-107032825D01*
X66593141Y-107037936D01*
X66593139Y-107037939D01*
X66579312Y-107064220D01*
X66503966Y-107207429D01*
X66445460Y-107395851D01*
X66422270Y-107591779D01*
X60635506Y-107591779D01*
X60620046Y-107423532D01*
X60610684Y-107390334D01*
X60568060Y-107239203D01*
X60568059Y-107239201D01*
X60566492Y-107233644D01*
X60556286Y-107212947D01*
X60481786Y-107061876D01*
X60479231Y-107056695D01*
X60470848Y-107045468D01*
X60364637Y-106903235D01*
X60364636Y-106903234D01*
X60361184Y-106898611D01*
X60343661Y-106882413D01*
X60220546Y-106768607D01*
X60220544Y-106768605D01*
X60216305Y-106764687D01*
X60049447Y-106659407D01*
X59866197Y-106586297D01*
X59860529Y-106585170D01*
X59860527Y-106585169D01*
X59678360Y-106548934D01*
X59678356Y-106548934D01*
X59672692Y-106547807D01*
X59666917Y-106547731D01*
X59666913Y-106547731D01*
X59568267Y-106546440D01*
X59475413Y-106545224D01*
X59469716Y-106546203D01*
X59469715Y-106546203D01*
X59453822Y-106548934D01*
X59280967Y-106578636D01*
X59095866Y-106646924D01*
X59090905Y-106649876D01*
X59090904Y-106649876D01*
X58931277Y-106744844D01*
X58931274Y-106744846D01*
X58926309Y-106747800D01*
X58921969Y-106751606D01*
X58921965Y-106751609D01*
X58910566Y-106761606D01*
X58777975Y-106877886D01*
X58655830Y-107032825D01*
X58653141Y-107037936D01*
X58653139Y-107037939D01*
X58639312Y-107064220D01*
X58563966Y-107207429D01*
X58505460Y-107395851D01*
X58482270Y-107591779D01*
X57008500Y-107591779D01*
X57008500Y-105051779D01*
X58482270Y-105051779D01*
X58495174Y-105248652D01*
X58543739Y-105439877D01*
X58626339Y-105619049D01*
X58740207Y-105780169D01*
X58744341Y-105784196D01*
X58843124Y-105880426D01*
X58881530Y-105917840D01*
X58886326Y-105921045D01*
X58886329Y-105921047D01*
X58951809Y-105964799D01*
X59045576Y-106027452D01*
X59050879Y-106029730D01*
X59050882Y-106029732D01*
X59221542Y-106103053D01*
X59226849Y-106105333D01*
X59320185Y-106126453D01*
X59413644Y-106147601D01*
X59413647Y-106147601D01*
X59419280Y-106148876D01*
X59425051Y-106149103D01*
X59425053Y-106149103D01*
X59484054Y-106151421D01*
X59616423Y-106156622D01*
X59731789Y-106139894D01*
X59805955Y-106129141D01*
X59805959Y-106129140D01*
X59811677Y-106128311D01*
X59817149Y-106126453D01*
X59817151Y-106126453D01*
X59993038Y-106066747D01*
X59993040Y-106066746D01*
X59998502Y-106064892D01*
X60170642Y-105968490D01*
X60322331Y-105842331D01*
X60425036Y-105718842D01*
X60444799Y-105695080D01*
X60448490Y-105690642D01*
X60452218Y-105683986D01*
X60478207Y-105637578D01*
X60544892Y-105518502D01*
X60562359Y-105467048D01*
X60606453Y-105337151D01*
X60606453Y-105337149D01*
X60608311Y-105331677D01*
X60636622Y-105136423D01*
X60638099Y-105080000D01*
X60635506Y-105051779D01*
X66422270Y-105051779D01*
X66435174Y-105248652D01*
X66483739Y-105439877D01*
X66566339Y-105619049D01*
X66680207Y-105780169D01*
X66684341Y-105784196D01*
X66783124Y-105880426D01*
X66821530Y-105917840D01*
X66826326Y-105921045D01*
X66826329Y-105921047D01*
X66891809Y-105964799D01*
X66985576Y-106027452D01*
X66990879Y-106029730D01*
X66990882Y-106029732D01*
X67161542Y-106103053D01*
X67166849Y-106105333D01*
X67260185Y-106126453D01*
X67353644Y-106147601D01*
X67353647Y-106147601D01*
X67359280Y-106148876D01*
X67365051Y-106149103D01*
X67365053Y-106149103D01*
X67424054Y-106151421D01*
X67556423Y-106156622D01*
X67671789Y-106139894D01*
X67745955Y-106129141D01*
X67745959Y-106129140D01*
X67751677Y-106128311D01*
X67757149Y-106126453D01*
X67757151Y-106126453D01*
X67933038Y-106066747D01*
X67933040Y-106066746D01*
X67938502Y-106064892D01*
X68110642Y-105968490D01*
X68262331Y-105842331D01*
X68365036Y-105718842D01*
X68384799Y-105695080D01*
X68388490Y-105690642D01*
X68392218Y-105683986D01*
X68418207Y-105637578D01*
X68484892Y-105518502D01*
X68502359Y-105467048D01*
X68546453Y-105337151D01*
X68546453Y-105337149D01*
X68548311Y-105331677D01*
X68576622Y-105136423D01*
X68578099Y-105080000D01*
X68560046Y-104883532D01*
X68550684Y-104850334D01*
X68508060Y-104699203D01*
X68508059Y-104699201D01*
X68506492Y-104693644D01*
X68496286Y-104672947D01*
X68421786Y-104521876D01*
X68419231Y-104516695D01*
X68401407Y-104492825D01*
X68304637Y-104363235D01*
X68304636Y-104363234D01*
X68301184Y-104358611D01*
X68278764Y-104337886D01*
X68160546Y-104228607D01*
X68160544Y-104228605D01*
X68156305Y-104224687D01*
X67989447Y-104119407D01*
X67806197Y-104046297D01*
X67800529Y-104045170D01*
X67800527Y-104045169D01*
X67618360Y-104008934D01*
X67618356Y-104008934D01*
X67612692Y-104007807D01*
X67606917Y-104007731D01*
X67606913Y-104007731D01*
X67508267Y-104006440D01*
X67415413Y-104005224D01*
X67409716Y-104006203D01*
X67409715Y-104006203D01*
X67261838Y-104031613D01*
X67220967Y-104038636D01*
X67035866Y-104106924D01*
X67030905Y-104109876D01*
X67030904Y-104109876D01*
X66871277Y-104204844D01*
X66871274Y-104204846D01*
X66866309Y-104207800D01*
X66861969Y-104211606D01*
X66861965Y-104211609D01*
X66803004Y-104263317D01*
X66717975Y-104337886D01*
X66595830Y-104492825D01*
X66593141Y-104497936D01*
X66593139Y-104497939D01*
X66571469Y-104539128D01*
X66503966Y-104667429D01*
X66445460Y-104855851D01*
X66422270Y-105051779D01*
X60635506Y-105051779D01*
X60620046Y-104883532D01*
X60610684Y-104850334D01*
X60568060Y-104699203D01*
X60568059Y-104699201D01*
X60566492Y-104693644D01*
X60556286Y-104672947D01*
X60481786Y-104521876D01*
X60479231Y-104516695D01*
X60461407Y-104492825D01*
X60364637Y-104363235D01*
X60364636Y-104363234D01*
X60361184Y-104358611D01*
X60338764Y-104337886D01*
X60220546Y-104228607D01*
X60220544Y-104228605D01*
X60216305Y-104224687D01*
X60049447Y-104119407D01*
X59866197Y-104046297D01*
X59860529Y-104045170D01*
X59860527Y-104045169D01*
X59678360Y-104008934D01*
X59678356Y-104008934D01*
X59672692Y-104007807D01*
X59666917Y-104007731D01*
X59666913Y-104007731D01*
X59568267Y-104006440D01*
X59475413Y-104005224D01*
X59469716Y-104006203D01*
X59469715Y-104006203D01*
X59321838Y-104031613D01*
X59280967Y-104038636D01*
X59095866Y-104106924D01*
X59090905Y-104109876D01*
X59090904Y-104109876D01*
X58931277Y-104204844D01*
X58931274Y-104204846D01*
X58926309Y-104207800D01*
X58921969Y-104211606D01*
X58921965Y-104211609D01*
X58863004Y-104263317D01*
X58777975Y-104337886D01*
X58655830Y-104492825D01*
X58653141Y-104497936D01*
X58653139Y-104497939D01*
X58631469Y-104539128D01*
X58563966Y-104667429D01*
X58505460Y-104855851D01*
X58482270Y-105051779D01*
X57008500Y-105051779D01*
X57008500Y-98376059D01*
X59008302Y-98376059D01*
X59018184Y-98388548D01*
X59041009Y-98403799D01*
X59051123Y-98409291D01*
X59221697Y-98482576D01*
X59232640Y-98486131D01*
X59413708Y-98527103D01*
X59425118Y-98528605D01*
X59610629Y-98535893D01*
X59622111Y-98535291D01*
X59805846Y-98508652D01*
X59817029Y-98505967D01*
X59992826Y-98446292D01*
X60003339Y-98441611D01*
X60102313Y-98386182D01*
X60112178Y-98376104D01*
X60109222Y-98368432D01*
X59813924Y-98073134D01*
X66426500Y-98073134D01*
X66433255Y-98135316D01*
X66484385Y-98271705D01*
X66571739Y-98388261D01*
X66688295Y-98475615D01*
X66824684Y-98526745D01*
X66886866Y-98533500D01*
X68113134Y-98533500D01*
X68175316Y-98526745D01*
X68311705Y-98475615D01*
X68428261Y-98388261D01*
X68437406Y-98376059D01*
X73008302Y-98376059D01*
X73018184Y-98388548D01*
X73041009Y-98403799D01*
X73051123Y-98409291D01*
X73221697Y-98482576D01*
X73232640Y-98486131D01*
X73413708Y-98527103D01*
X73425118Y-98528605D01*
X73610629Y-98535893D01*
X73622111Y-98535291D01*
X73805846Y-98508652D01*
X73817029Y-98505967D01*
X73992826Y-98446292D01*
X74003339Y-98441611D01*
X74102313Y-98386182D01*
X74112178Y-98376104D01*
X74109222Y-98368432D01*
X73572812Y-97832022D01*
X73558868Y-97824408D01*
X73557035Y-97824539D01*
X73550420Y-97828790D01*
X73014498Y-98364712D01*
X73008302Y-98376059D01*
X68437406Y-98376059D01*
X68515615Y-98271705D01*
X68566745Y-98135316D01*
X68573500Y-98073134D01*
X68573500Y-97437558D01*
X72483150Y-97437558D01*
X72495292Y-97622805D01*
X72497093Y-97634175D01*
X72542789Y-97814107D01*
X72546631Y-97824956D01*
X72624358Y-97993557D01*
X72630105Y-98003511D01*
X72630902Y-98004640D01*
X72641490Y-98013027D01*
X72654791Y-98005999D01*
X73187978Y-97472812D01*
X73194356Y-97461132D01*
X73924408Y-97461132D01*
X73924539Y-97462965D01*
X73928790Y-97469580D01*
X74464518Y-98005308D01*
X74476898Y-98012068D01*
X74483478Y-98007142D01*
X74541611Y-97903339D01*
X74546292Y-97892826D01*
X74605967Y-97717029D01*
X74608652Y-97705846D01*
X74635587Y-97520071D01*
X74636217Y-97512689D01*
X74637500Y-97463704D01*
X74637257Y-97456305D01*
X74620082Y-97269378D01*
X74617985Y-97258064D01*
X74567591Y-97079383D01*
X74563469Y-97068644D01*
X74487954Y-96915515D01*
X74478407Y-96905138D01*
X74471974Y-96907236D01*
X73932022Y-97447188D01*
X73924408Y-97461132D01*
X73194356Y-97461132D01*
X73195592Y-97458868D01*
X73195461Y-97457035D01*
X73191210Y-97450420D01*
X72654459Y-96913669D01*
X72642079Y-96906909D01*
X72636113Y-96911375D01*
X72567122Y-97042505D01*
X72562718Y-97053136D01*
X72507664Y-97230438D01*
X72505272Y-97241692D01*
X72483451Y-97426057D01*
X72483150Y-97437558D01*
X68573500Y-97437558D01*
X68573500Y-96846866D01*
X68566745Y-96784684D01*
X68515615Y-96648295D01*
X68437608Y-96544211D01*
X73008323Y-96544211D01*
X73011810Y-96552600D01*
X73547188Y-97087978D01*
X73561132Y-97095592D01*
X73562965Y-97095461D01*
X73569580Y-97091210D01*
X74104905Y-96555885D01*
X74111665Y-96543505D01*
X74105635Y-96535450D01*
X74054102Y-96502935D01*
X74043855Y-96497714D01*
X73871423Y-96428921D01*
X73860386Y-96425652D01*
X73678306Y-96389433D01*
X73666861Y-96388230D01*
X73481235Y-96385801D01*
X73469755Y-96386704D01*
X73286794Y-96418142D01*
X73275674Y-96421122D01*
X73101498Y-96485379D01*
X73091124Y-96490327D01*
X73017921Y-96533878D01*
X73008323Y-96544211D01*
X68437608Y-96544211D01*
X68428261Y-96531739D01*
X68311705Y-96444385D01*
X68175316Y-96393255D01*
X68113134Y-96386500D01*
X66886866Y-96386500D01*
X66824684Y-96393255D01*
X66688295Y-96444385D01*
X66571739Y-96531739D01*
X66484385Y-96648295D01*
X66433255Y-96784684D01*
X66426500Y-96846866D01*
X66426500Y-98073134D01*
X59813924Y-98073134D01*
X59572812Y-97832022D01*
X59558868Y-97824408D01*
X59557035Y-97824539D01*
X59550420Y-97828790D01*
X59014498Y-98364712D01*
X59008302Y-98376059D01*
X57008500Y-98376059D01*
X57008500Y-97437558D01*
X58483150Y-97437558D01*
X58495292Y-97622805D01*
X58497093Y-97634175D01*
X58542789Y-97814107D01*
X58546631Y-97824956D01*
X58624358Y-97993557D01*
X58630105Y-98003511D01*
X58630902Y-98004640D01*
X58641490Y-98013027D01*
X58654791Y-98005999D01*
X59187978Y-97472812D01*
X59194356Y-97461132D01*
X59924408Y-97461132D01*
X59924539Y-97462965D01*
X59928790Y-97469580D01*
X60464518Y-98005308D01*
X60476898Y-98012068D01*
X60483478Y-98007142D01*
X60541611Y-97903339D01*
X60546292Y-97892826D01*
X60605967Y-97717029D01*
X60608652Y-97705846D01*
X60635587Y-97520071D01*
X60636217Y-97512689D01*
X60637500Y-97463704D01*
X60637257Y-97456305D01*
X60620082Y-97269378D01*
X60617985Y-97258064D01*
X60567591Y-97079383D01*
X60563469Y-97068644D01*
X60487954Y-96915515D01*
X60478407Y-96905138D01*
X60471974Y-96907236D01*
X59932022Y-97447188D01*
X59924408Y-97461132D01*
X59194356Y-97461132D01*
X59195592Y-97458868D01*
X59195461Y-97457035D01*
X59191210Y-97450420D01*
X58654459Y-96913669D01*
X58642079Y-96906909D01*
X58636113Y-96911375D01*
X58567122Y-97042505D01*
X58562718Y-97053136D01*
X58507664Y-97230438D01*
X58505272Y-97241692D01*
X58483451Y-97426057D01*
X58483150Y-97437558D01*
X57008500Y-97437558D01*
X57008500Y-96544211D01*
X59008323Y-96544211D01*
X59011810Y-96552600D01*
X59547188Y-97087978D01*
X59561132Y-97095592D01*
X59562965Y-97095461D01*
X59569580Y-97091210D01*
X60104905Y-96555885D01*
X60111665Y-96543505D01*
X60105635Y-96535450D01*
X60054102Y-96502935D01*
X60043855Y-96497714D01*
X59871423Y-96428921D01*
X59860386Y-96425652D01*
X59678306Y-96389433D01*
X59666861Y-96388230D01*
X59481235Y-96385801D01*
X59469755Y-96386704D01*
X59286794Y-96418142D01*
X59275674Y-96421122D01*
X59101498Y-96485379D01*
X59091124Y-96490327D01*
X59017921Y-96533878D01*
X59008323Y-96544211D01*
X57008500Y-96544211D01*
X57008500Y-92386059D01*
X60558302Y-92386059D01*
X60568184Y-92398548D01*
X60591009Y-92413799D01*
X60601123Y-92419291D01*
X60771697Y-92492576D01*
X60782640Y-92496131D01*
X60963708Y-92537103D01*
X60975118Y-92538605D01*
X61160629Y-92545893D01*
X61172111Y-92545291D01*
X61355846Y-92518652D01*
X61367029Y-92515967D01*
X61542826Y-92456292D01*
X61553339Y-92451611D01*
X61652313Y-92396182D01*
X61662178Y-92386104D01*
X61659222Y-92378432D01*
X61122812Y-91842022D01*
X61108868Y-91834408D01*
X61107035Y-91834539D01*
X61100420Y-91838790D01*
X60564498Y-92374712D01*
X60558302Y-92386059D01*
X57008500Y-92386059D01*
X57008500Y-91447558D01*
X60033150Y-91447558D01*
X60045292Y-91632805D01*
X60047093Y-91644175D01*
X60092789Y-91824107D01*
X60096631Y-91834956D01*
X60174358Y-92003557D01*
X60180105Y-92013511D01*
X60180902Y-92014640D01*
X60191490Y-92023027D01*
X60204791Y-92015999D01*
X60737978Y-91482812D01*
X60745592Y-91468868D01*
X60745461Y-91467035D01*
X60741210Y-91460420D01*
X60204459Y-90923669D01*
X60192079Y-90916909D01*
X60186113Y-90921375D01*
X60117122Y-91052505D01*
X60112717Y-91063139D01*
X60057664Y-91240438D01*
X60055272Y-91251692D01*
X60033451Y-91436057D01*
X60033150Y-91447558D01*
X57008500Y-91447558D01*
X57008500Y-84143134D01*
X60036500Y-84143134D01*
X60043255Y-84205316D01*
X60094385Y-84341705D01*
X60181739Y-84458261D01*
X60298295Y-84545615D01*
X60434684Y-84596745D01*
X60496866Y-84603500D01*
X61723134Y-84603500D01*
X61785316Y-84596745D01*
X61921705Y-84545615D01*
X62038261Y-84458261D01*
X62125615Y-84341705D01*
X62176745Y-84205316D01*
X62183500Y-84143134D01*
X62183500Y-83501779D01*
X62572270Y-83501779D01*
X62585174Y-83698652D01*
X62633739Y-83889877D01*
X62716339Y-84069049D01*
X62830207Y-84230169D01*
X62971530Y-84367840D01*
X62976324Y-84371043D01*
X62976329Y-84371047D01*
X63041809Y-84414799D01*
X63135576Y-84477452D01*
X63140879Y-84479730D01*
X63140882Y-84479732D01*
X63281693Y-84540229D01*
X63316849Y-84555333D01*
X63410185Y-84576453D01*
X63503644Y-84597601D01*
X63503647Y-84597601D01*
X63509280Y-84598876D01*
X63515051Y-84599103D01*
X63515053Y-84599103D01*
X63574054Y-84601421D01*
X63706423Y-84606622D01*
X63821789Y-84589894D01*
X63895955Y-84579141D01*
X63895959Y-84579140D01*
X63901677Y-84578311D01*
X63907149Y-84576453D01*
X63907151Y-84576453D01*
X64083038Y-84516747D01*
X64083040Y-84516746D01*
X64088502Y-84514892D01*
X64260642Y-84418490D01*
X64412331Y-84292331D01*
X64538490Y-84140642D01*
X64634892Y-83968502D01*
X64698311Y-83781677D01*
X64726622Y-83586423D01*
X64728099Y-83530000D01*
X64710046Y-83333532D01*
X64700684Y-83300334D01*
X64658060Y-83149203D01*
X64658059Y-83149201D01*
X64656492Y-83143644D01*
X64646286Y-83122947D01*
X64571786Y-82971876D01*
X64569231Y-82966695D01*
X64551407Y-82942825D01*
X64454637Y-82813235D01*
X64454636Y-82813234D01*
X64451184Y-82808611D01*
X64428764Y-82787886D01*
X64310546Y-82678607D01*
X64310544Y-82678605D01*
X64306305Y-82674687D01*
X64139447Y-82569407D01*
X63956197Y-82496297D01*
X63950529Y-82495170D01*
X63950527Y-82495169D01*
X63768360Y-82458934D01*
X63768356Y-82458934D01*
X63762692Y-82457807D01*
X63756917Y-82457731D01*
X63756913Y-82457731D01*
X63658267Y-82456440D01*
X63565413Y-82455224D01*
X63559716Y-82456203D01*
X63559715Y-82456203D01*
X63376664Y-82487657D01*
X63370967Y-82488636D01*
X63185866Y-82556924D01*
X63180905Y-82559876D01*
X63180904Y-82559876D01*
X63021277Y-82654844D01*
X63021274Y-82654846D01*
X63016309Y-82657800D01*
X63011969Y-82661606D01*
X63011965Y-82661609D01*
X62872316Y-82784079D01*
X62867975Y-82787886D01*
X62745830Y-82942825D01*
X62743141Y-82947936D01*
X62743139Y-82947939D01*
X62733271Y-82966695D01*
X62653966Y-83117429D01*
X62595460Y-83305851D01*
X62572270Y-83501779D01*
X62183500Y-83501779D01*
X62183500Y-82916866D01*
X62176745Y-82854684D01*
X62125615Y-82718295D01*
X62038261Y-82601739D01*
X61921705Y-82514385D01*
X61785316Y-82463255D01*
X61723134Y-82456500D01*
X60496866Y-82456500D01*
X60434684Y-82463255D01*
X60298295Y-82514385D01*
X60181739Y-82601739D01*
X60094385Y-82718295D01*
X60043255Y-82854684D01*
X60036500Y-82916866D01*
X60036500Y-84143134D01*
X57008500Y-84143134D01*
X57008500Y-70358000D01*
X57760496Y-70358000D01*
X57780458Y-70547928D01*
X57839473Y-70729556D01*
X57934960Y-70894944D01*
X58062747Y-71036866D01*
X58217248Y-71149118D01*
X58223276Y-71151802D01*
X58223278Y-71151803D01*
X58385681Y-71224109D01*
X58391712Y-71226794D01*
X58485113Y-71246647D01*
X58572056Y-71265128D01*
X58572061Y-71265128D01*
X58578513Y-71266500D01*
X58769487Y-71266500D01*
X58775939Y-71265128D01*
X58775944Y-71265128D01*
X58862887Y-71246647D01*
X58956288Y-71226794D01*
X58962319Y-71224109D01*
X59124722Y-71151803D01*
X59124724Y-71151802D01*
X59130752Y-71149118D01*
X59285253Y-71036866D01*
X59289668Y-71031963D01*
X59294580Y-71027540D01*
X59295705Y-71028789D01*
X59349014Y-70995949D01*
X59382200Y-70991500D01*
X69141800Y-70991500D01*
X69209921Y-71011502D01*
X69229147Y-71027843D01*
X69229420Y-71027540D01*
X69234332Y-71031963D01*
X69238747Y-71036866D01*
X69393248Y-71149118D01*
X69399276Y-71151802D01*
X69399278Y-71151803D01*
X69561681Y-71224109D01*
X69567712Y-71226794D01*
X69661113Y-71246647D01*
X69748056Y-71265128D01*
X69748061Y-71265128D01*
X69754513Y-71266500D01*
X69945487Y-71266500D01*
X69951939Y-71265128D01*
X69951944Y-71265128D01*
X70038887Y-71246647D01*
X70132288Y-71226794D01*
X70138319Y-71224109D01*
X70300722Y-71151803D01*
X70300724Y-71151802D01*
X70306752Y-71149118D01*
X70461253Y-71036866D01*
X70520864Y-70970661D01*
X70581310Y-70933421D01*
X70652293Y-70934773D01*
X70711278Y-70974286D01*
X70739536Y-71039417D01*
X70740500Y-71054971D01*
X70740500Y-79312755D01*
X70720498Y-79380876D01*
X70703595Y-79401850D01*
X67224795Y-82880649D01*
X67162483Y-82914675D01*
X67091667Y-82909610D01*
X67034742Y-82866942D01*
X66994641Y-82813239D01*
X66994635Y-82813232D01*
X66991184Y-82808611D01*
X66968764Y-82787886D01*
X66850546Y-82678607D01*
X66850544Y-82678605D01*
X66846305Y-82674687D01*
X66679447Y-82569407D01*
X66496197Y-82496297D01*
X66490529Y-82495170D01*
X66490527Y-82495169D01*
X66308360Y-82458934D01*
X66308356Y-82458934D01*
X66302692Y-82457807D01*
X66296917Y-82457731D01*
X66296913Y-82457731D01*
X66198267Y-82456440D01*
X66105413Y-82455224D01*
X66099716Y-82456203D01*
X66099715Y-82456203D01*
X65916664Y-82487657D01*
X65910967Y-82488636D01*
X65725866Y-82556924D01*
X65720905Y-82559876D01*
X65720904Y-82559876D01*
X65561277Y-82654844D01*
X65561274Y-82654846D01*
X65556309Y-82657800D01*
X65551969Y-82661606D01*
X65551965Y-82661609D01*
X65412316Y-82784079D01*
X65407975Y-82787886D01*
X65285830Y-82942825D01*
X65283141Y-82947936D01*
X65283139Y-82947939D01*
X65273271Y-82966695D01*
X65193966Y-83117429D01*
X65135460Y-83305851D01*
X65112270Y-83501779D01*
X65125174Y-83698652D01*
X65173739Y-83889877D01*
X65256339Y-84069049D01*
X65370207Y-84230169D01*
X65511530Y-84367840D01*
X65519398Y-84373097D01*
X65520521Y-84374441D01*
X65520821Y-84374684D01*
X65520773Y-84374743D01*
X65564924Y-84427574D01*
X65573771Y-84498017D01*
X65538489Y-84566956D01*
X63257747Y-86847697D01*
X63249461Y-86855237D01*
X63242982Y-86859349D01*
X63237557Y-86865126D01*
X63196357Y-86909000D01*
X63193602Y-86911842D01*
X63173865Y-86931579D01*
X63171385Y-86934776D01*
X63163682Y-86943796D01*
X63133414Y-86976028D01*
X63129595Y-86982974D01*
X63129593Y-86982977D01*
X63123652Y-86993783D01*
X63112801Y-87010302D01*
X63100386Y-87026308D01*
X63097241Y-87033577D01*
X63097238Y-87033581D01*
X63082826Y-87066886D01*
X63077609Y-87077536D01*
X63056305Y-87116289D01*
X63054334Y-87123964D01*
X63054334Y-87123965D01*
X63051267Y-87135911D01*
X63044863Y-87154615D01*
X63036819Y-87173204D01*
X63035580Y-87181027D01*
X63035577Y-87181037D01*
X63029901Y-87216873D01*
X63027495Y-87228493D01*
X63018472Y-87263638D01*
X63016500Y-87271319D01*
X63016500Y-87291573D01*
X63014949Y-87311283D01*
X63011780Y-87331292D01*
X63012526Y-87339184D01*
X63015941Y-87375310D01*
X63016500Y-87387168D01*
X63016500Y-90540542D01*
X62996498Y-90608663D01*
X62973578Y-90635274D01*
X62872316Y-90724079D01*
X62867975Y-90727886D01*
X62864399Y-90732422D01*
X62813445Y-90797057D01*
X62755564Y-90838170D01*
X62684644Y-90841464D01*
X62625399Y-90808146D01*
X62268702Y-90451448D01*
X61884404Y-90067150D01*
X61850379Y-90004838D01*
X61847500Y-89978055D01*
X61847500Y-89348524D01*
X61867502Y-89280403D01*
X61879858Y-89264221D01*
X61953040Y-89182944D01*
X62048527Y-89017556D01*
X62107542Y-88835928D01*
X62127504Y-88646000D01*
X62107542Y-88456072D01*
X62048527Y-88274444D01*
X61953040Y-88109056D01*
X61947622Y-88103038D01*
X61829675Y-87972045D01*
X61829674Y-87972044D01*
X61825253Y-87967134D01*
X61670752Y-87854882D01*
X61664724Y-87852198D01*
X61664722Y-87852197D01*
X61502319Y-87779891D01*
X61502318Y-87779891D01*
X61496288Y-87777206D01*
X61402887Y-87757353D01*
X61315944Y-87738872D01*
X61315939Y-87738872D01*
X61309487Y-87737500D01*
X61118513Y-87737500D01*
X61112061Y-87738872D01*
X61112056Y-87738872D01*
X61025113Y-87757353D01*
X60931712Y-87777206D01*
X60925682Y-87779891D01*
X60925681Y-87779891D01*
X60763278Y-87852197D01*
X60763276Y-87852198D01*
X60757248Y-87854882D01*
X60602747Y-87967134D01*
X60598326Y-87972044D01*
X60598325Y-87972045D01*
X60480379Y-88103038D01*
X60474960Y-88109056D01*
X60379473Y-88274444D01*
X60320458Y-88456072D01*
X60300496Y-88646000D01*
X60320458Y-88835928D01*
X60379473Y-89017556D01*
X60474960Y-89182944D01*
X60548137Y-89264215D01*
X60578853Y-89328221D01*
X60580500Y-89348524D01*
X60580500Y-90213884D01*
X60579973Y-90225067D01*
X60578298Y-90232560D01*
X60578547Y-90240486D01*
X60578547Y-90240487D01*
X60580438Y-90300637D01*
X60580500Y-90304596D01*
X60580500Y-90332507D01*
X60580997Y-90336441D01*
X60580997Y-90336442D01*
X60581005Y-90336507D01*
X60581938Y-90348344D01*
X60583327Y-90392540D01*
X60588978Y-90411990D01*
X60592987Y-90431349D01*
X60593883Y-90438439D01*
X60595121Y-90448241D01*
X60583815Y-90518331D01*
X60562436Y-90549783D01*
X60558323Y-90554211D01*
X60561810Y-90562600D01*
X62014518Y-92015308D01*
X62056414Y-92038186D01*
X62085122Y-92059678D01*
X62777697Y-92752253D01*
X62785237Y-92760539D01*
X62789349Y-92767018D01*
X62795126Y-92772443D01*
X62839000Y-92813643D01*
X62841842Y-92816398D01*
X62861579Y-92836135D01*
X62864776Y-92838615D01*
X62873796Y-92846318D01*
X62906028Y-92876586D01*
X62912974Y-92880405D01*
X62912977Y-92880407D01*
X62923783Y-92886348D01*
X62940302Y-92897199D01*
X62956308Y-92909614D01*
X62963577Y-92912759D01*
X62963581Y-92912762D01*
X62996886Y-92927174D01*
X63007536Y-92932391D01*
X63046289Y-92953695D01*
X63053964Y-92955666D01*
X63053965Y-92955666D01*
X63065911Y-92958733D01*
X63084616Y-92965137D01*
X63103204Y-92973181D01*
X63111027Y-92974420D01*
X63111037Y-92974423D01*
X63146873Y-92980099D01*
X63158493Y-92982505D01*
X63190308Y-92990673D01*
X63201319Y-92993500D01*
X63221573Y-92993500D01*
X63241283Y-92995051D01*
X63261292Y-92998220D01*
X63269184Y-92997474D01*
X63287929Y-92995702D01*
X63305311Y-92994059D01*
X63317168Y-92993500D01*
X65221233Y-92993500D01*
X65232416Y-92994027D01*
X65239909Y-92995702D01*
X65247835Y-92995453D01*
X65247836Y-92995453D01*
X65307986Y-92993562D01*
X65311945Y-92993500D01*
X65339856Y-92993500D01*
X65343791Y-92993003D01*
X65343856Y-92992995D01*
X65355693Y-92992062D01*
X65387951Y-92991048D01*
X65391970Y-92990922D01*
X65399889Y-92990673D01*
X65419343Y-92985021D01*
X65438700Y-92981013D01*
X65450930Y-92979468D01*
X65450931Y-92979468D01*
X65458797Y-92978474D01*
X65466168Y-92975555D01*
X65466170Y-92975555D01*
X65499912Y-92962196D01*
X65511142Y-92958351D01*
X65545983Y-92948229D01*
X65545984Y-92948229D01*
X65553593Y-92946018D01*
X65560412Y-92941985D01*
X65560417Y-92941983D01*
X65571028Y-92935707D01*
X65588776Y-92927012D01*
X65607617Y-92919552D01*
X65643387Y-92893564D01*
X65653307Y-92887048D01*
X65684535Y-92868580D01*
X65684538Y-92868578D01*
X65691362Y-92864542D01*
X65705683Y-92850221D01*
X65720717Y-92837380D01*
X65730694Y-92830131D01*
X65737107Y-92825472D01*
X65742158Y-92819367D01*
X65742163Y-92819362D01*
X65765299Y-92791396D01*
X65773287Y-92782618D01*
X65979276Y-92576629D01*
X66041588Y-92542603D01*
X66073318Y-92539821D01*
X66171028Y-92543660D01*
X66246423Y-92546622D01*
X66275846Y-92542356D01*
X66292467Y-92539946D01*
X66362753Y-92549966D01*
X66399642Y-92575547D01*
X66576348Y-92752253D01*
X66583888Y-92760539D01*
X66588000Y-92767018D01*
X66593777Y-92772443D01*
X66637651Y-92813643D01*
X66640493Y-92816398D01*
X66660230Y-92836135D01*
X66663427Y-92838615D01*
X66672447Y-92846318D01*
X66704679Y-92876586D01*
X66711625Y-92880405D01*
X66711628Y-92880407D01*
X66722434Y-92886348D01*
X66738953Y-92897199D01*
X66754959Y-92909614D01*
X66762228Y-92912759D01*
X66762232Y-92912762D01*
X66795537Y-92927174D01*
X66806187Y-92932391D01*
X66844940Y-92953695D01*
X66852615Y-92955666D01*
X66852616Y-92955666D01*
X66864562Y-92958733D01*
X66883267Y-92965137D01*
X66901855Y-92973181D01*
X66909678Y-92974420D01*
X66909688Y-92974423D01*
X66945524Y-92980099D01*
X66957144Y-92982505D01*
X66988959Y-92990673D01*
X66999970Y-92993500D01*
X67020224Y-92993500D01*
X67039934Y-92995051D01*
X67059943Y-92998220D01*
X67067835Y-92997474D01*
X67086580Y-92995702D01*
X67103962Y-92994059D01*
X67115819Y-92993500D01*
X75440500Y-92993500D01*
X75508621Y-93013502D01*
X75555114Y-93067158D01*
X75566500Y-93119500D01*
X75566500Y-95933233D01*
X75565973Y-95944416D01*
X75564298Y-95951909D01*
X75564547Y-95959835D01*
X75564547Y-95959836D01*
X75566438Y-96019986D01*
X75566500Y-96023945D01*
X75566500Y-96051856D01*
X75566997Y-96055790D01*
X75566997Y-96055791D01*
X75567005Y-96055856D01*
X75567938Y-96067693D01*
X75569327Y-96111889D01*
X75574978Y-96131339D01*
X75578987Y-96150700D01*
X75581526Y-96170797D01*
X75584445Y-96178168D01*
X75584445Y-96178170D01*
X75597804Y-96211912D01*
X75601649Y-96223142D01*
X75613982Y-96265593D01*
X75618015Y-96272412D01*
X75618017Y-96272417D01*
X75624293Y-96283028D01*
X75632988Y-96300776D01*
X75640448Y-96319617D01*
X75645110Y-96326033D01*
X75645110Y-96326034D01*
X75666436Y-96355387D01*
X75672952Y-96365307D01*
X75689481Y-96393255D01*
X75695458Y-96403362D01*
X75709779Y-96417683D01*
X75722619Y-96432716D01*
X75734528Y-96449107D01*
X75740634Y-96454158D01*
X75768605Y-96477298D01*
X75777384Y-96485288D01*
X76518326Y-97226230D01*
X76552352Y-97288542D01*
X76547287Y-97359357D01*
X76518326Y-97404420D01*
X74585092Y-99337654D01*
X74522780Y-99371680D01*
X74451965Y-99366615D01*
X74395039Y-99323948D01*
X74364637Y-99283235D01*
X74364636Y-99283234D01*
X74361184Y-99278611D01*
X74338764Y-99257886D01*
X74220546Y-99148607D01*
X74220544Y-99148605D01*
X74216305Y-99144687D01*
X74049447Y-99039407D01*
X73866197Y-98966297D01*
X73860529Y-98965170D01*
X73860527Y-98965169D01*
X73678360Y-98928934D01*
X73678356Y-98928934D01*
X73672692Y-98927807D01*
X73666917Y-98927731D01*
X73666913Y-98927731D01*
X73568267Y-98926440D01*
X73475413Y-98925224D01*
X73469716Y-98926203D01*
X73469715Y-98926203D01*
X73321838Y-98951613D01*
X73280967Y-98958636D01*
X73095866Y-99026924D01*
X73090905Y-99029876D01*
X73090904Y-99029876D01*
X72931277Y-99124844D01*
X72931274Y-99124846D01*
X72926309Y-99127800D01*
X72921969Y-99131606D01*
X72921965Y-99131609D01*
X72910566Y-99141606D01*
X72777975Y-99257886D01*
X72774400Y-99262421D01*
X72774398Y-99262423D01*
X72728233Y-99320982D01*
X72670352Y-99362094D01*
X72633245Y-99368913D01*
X72630429Y-99369002D01*
X72620111Y-99369326D01*
X72612497Y-99371538D01*
X72612492Y-99371539D01*
X72600659Y-99374977D01*
X72581296Y-99378988D01*
X72561203Y-99381526D01*
X72553836Y-99384443D01*
X72553831Y-99384444D01*
X72520092Y-99397802D01*
X72508865Y-99401646D01*
X72466407Y-99413982D01*
X72459581Y-99418019D01*
X72448972Y-99424293D01*
X72431224Y-99432988D01*
X72412383Y-99440448D01*
X72405967Y-99445110D01*
X72405966Y-99445110D01*
X72376613Y-99466436D01*
X72366693Y-99472952D01*
X72335465Y-99491420D01*
X72335462Y-99491422D01*
X72328638Y-99495458D01*
X72314317Y-99509779D01*
X72299284Y-99522619D01*
X72282893Y-99534528D01*
X72277842Y-99540634D01*
X72254702Y-99568605D01*
X72246712Y-99577384D01*
X71744639Y-100079457D01*
X71744637Y-100079458D01*
X71604500Y-100219595D01*
X71542188Y-100253621D01*
X71515405Y-100256500D01*
X68693199Y-100256500D01*
X68625078Y-100236498D01*
X68578585Y-100182842D01*
X68568503Y-100112420D01*
X68576089Y-100060096D01*
X68576622Y-100056423D01*
X68578099Y-100000000D01*
X68560046Y-99803532D01*
X68550684Y-99770334D01*
X68508060Y-99619203D01*
X68508059Y-99619201D01*
X68506492Y-99613644D01*
X68496286Y-99592947D01*
X68421786Y-99441876D01*
X68419231Y-99436695D01*
X68402271Y-99413982D01*
X68304637Y-99283235D01*
X68304636Y-99283234D01*
X68301184Y-99278611D01*
X68278764Y-99257886D01*
X68160546Y-99148607D01*
X68160544Y-99148605D01*
X68156305Y-99144687D01*
X67989447Y-99039407D01*
X67806197Y-98966297D01*
X67800529Y-98965170D01*
X67800527Y-98965169D01*
X67618360Y-98928934D01*
X67618356Y-98928934D01*
X67612692Y-98927807D01*
X67606917Y-98927731D01*
X67606913Y-98927731D01*
X67508267Y-98926440D01*
X67415413Y-98925224D01*
X67409716Y-98926203D01*
X67409715Y-98926203D01*
X67261838Y-98951613D01*
X67220967Y-98958636D01*
X67035866Y-99026924D01*
X67030905Y-99029876D01*
X67030904Y-99029876D01*
X66871277Y-99124844D01*
X66871274Y-99124846D01*
X66866309Y-99127800D01*
X66861969Y-99131606D01*
X66861965Y-99131609D01*
X66850566Y-99141606D01*
X66717975Y-99257886D01*
X66595830Y-99412825D01*
X66593141Y-99417936D01*
X66593139Y-99417939D01*
X66554479Y-99491420D01*
X66503966Y-99587429D01*
X66445460Y-99775851D01*
X66422270Y-99971779D01*
X66422648Y-99977545D01*
X66432133Y-100122259D01*
X66416629Y-100191542D01*
X66366129Y-100241445D01*
X66306403Y-100256500D01*
X60764594Y-100256500D01*
X60696473Y-100236498D01*
X60675499Y-100219595D01*
X60665547Y-100209643D01*
X60631521Y-100147331D01*
X60629946Y-100102468D01*
X60636089Y-100060096D01*
X60636622Y-100056423D01*
X60638099Y-100000000D01*
X60620046Y-99803532D01*
X60610684Y-99770334D01*
X60568060Y-99619203D01*
X60568059Y-99619201D01*
X60566492Y-99613644D01*
X60556286Y-99592947D01*
X60481786Y-99441876D01*
X60479231Y-99436695D01*
X60462271Y-99413982D01*
X60364637Y-99283235D01*
X60364636Y-99283234D01*
X60361184Y-99278611D01*
X60338764Y-99257886D01*
X60220546Y-99148607D01*
X60220544Y-99148605D01*
X60216305Y-99144687D01*
X60049447Y-99039407D01*
X59866197Y-98966297D01*
X59860529Y-98965170D01*
X59860527Y-98965169D01*
X59678360Y-98928934D01*
X59678356Y-98928934D01*
X59672692Y-98927807D01*
X59666917Y-98927731D01*
X59666913Y-98927731D01*
X59568267Y-98926440D01*
X59475413Y-98925224D01*
X59469716Y-98926203D01*
X59469715Y-98926203D01*
X59321838Y-98951613D01*
X59280967Y-98958636D01*
X59095866Y-99026924D01*
X59090905Y-99029876D01*
X59090904Y-99029876D01*
X58931277Y-99124844D01*
X58931274Y-99124846D01*
X58926309Y-99127800D01*
X58921969Y-99131606D01*
X58921965Y-99131609D01*
X58910566Y-99141606D01*
X58777975Y-99257886D01*
X58655830Y-99412825D01*
X58653141Y-99417936D01*
X58653139Y-99417939D01*
X58614479Y-99491420D01*
X58563966Y-99587429D01*
X58505460Y-99775851D01*
X58482270Y-99971779D01*
X58495174Y-100168652D01*
X58543739Y-100359877D01*
X58626339Y-100539049D01*
X58740207Y-100700169D01*
X58881530Y-100837840D01*
X58886326Y-100841045D01*
X58886329Y-100841047D01*
X58951809Y-100884799D01*
X59045576Y-100947452D01*
X59050879Y-100949730D01*
X59050882Y-100949732D01*
X59221542Y-101023053D01*
X59226849Y-101025333D01*
X59320185Y-101046453D01*
X59413644Y-101067601D01*
X59413647Y-101067601D01*
X59419280Y-101068876D01*
X59425051Y-101069103D01*
X59425053Y-101069103D01*
X59484054Y-101071421D01*
X59616423Y-101076622D01*
X59645846Y-101072356D01*
X59662467Y-101069946D01*
X59732753Y-101079966D01*
X59769642Y-101105547D01*
X59946348Y-101282253D01*
X59953886Y-101290536D01*
X59958000Y-101297018D01*
X59959922Y-101298823D01*
X59987003Y-101361897D01*
X59975298Y-101431922D01*
X59927592Y-101484502D01*
X59859032Y-101502943D01*
X59837332Y-101500555D01*
X59756625Y-101484502D01*
X59678360Y-101468934D01*
X59678356Y-101468934D01*
X59672692Y-101467807D01*
X59666917Y-101467731D01*
X59666913Y-101467731D01*
X59568267Y-101466440D01*
X59475413Y-101465224D01*
X59469716Y-101466203D01*
X59469715Y-101466203D01*
X59321838Y-101491613D01*
X59280967Y-101498636D01*
X59095866Y-101566924D01*
X59090905Y-101569876D01*
X59090904Y-101569876D01*
X58931277Y-101664844D01*
X58931274Y-101664846D01*
X58926309Y-101667800D01*
X58921969Y-101671606D01*
X58921965Y-101671609D01*
X58782323Y-101794073D01*
X58777975Y-101797886D01*
X58655830Y-101952825D01*
X58653141Y-101957936D01*
X58653139Y-101957939D01*
X58643271Y-101976695D01*
X58563966Y-102127429D01*
X58505460Y-102315851D01*
X58482270Y-102511779D01*
X58495174Y-102708652D01*
X58543739Y-102899877D01*
X58626339Y-103079049D01*
X58740207Y-103240169D01*
X58881530Y-103377840D01*
X58886326Y-103381045D01*
X58886329Y-103381047D01*
X58951809Y-103424799D01*
X59045576Y-103487452D01*
X59050879Y-103489730D01*
X59050882Y-103489732D01*
X59221542Y-103563053D01*
X59226849Y-103565333D01*
X59320185Y-103586453D01*
X59413644Y-103607601D01*
X59413647Y-103607601D01*
X59419280Y-103608876D01*
X59425051Y-103609103D01*
X59425053Y-103609103D01*
X59484054Y-103611421D01*
X59616423Y-103616622D01*
X59754717Y-103596570D01*
X59805955Y-103589141D01*
X59805959Y-103589140D01*
X59811677Y-103588311D01*
X59817149Y-103586453D01*
X59817151Y-103586453D01*
X59993038Y-103526747D01*
X59993040Y-103526746D01*
X59998502Y-103524892D01*
X60170642Y-103428490D01*
X60322331Y-103302331D01*
X60439734Y-103161170D01*
X60444799Y-103155080D01*
X60448490Y-103150642D01*
X60544892Y-102978502D01*
X60571583Y-102899875D01*
X60606453Y-102797151D01*
X60606453Y-102797149D01*
X60608311Y-102791677D01*
X60609673Y-102782289D01*
X60625480Y-102673266D01*
X60636622Y-102596423D01*
X60638099Y-102540000D01*
X60622877Y-102374337D01*
X60620575Y-102349286D01*
X60620574Y-102349283D01*
X60620046Y-102343532D01*
X60610684Y-102310334D01*
X60568060Y-102159203D01*
X60568059Y-102159201D01*
X60566492Y-102153644D01*
X60556286Y-102132947D01*
X60481786Y-101981876D01*
X60479231Y-101976695D01*
X60461407Y-101952825D01*
X60364637Y-101823235D01*
X60364636Y-101823234D01*
X60361184Y-101818611D01*
X60356946Y-101814694D01*
X60356942Y-101814689D01*
X60277367Y-101741130D01*
X60240922Y-101680202D01*
X60243203Y-101609242D01*
X60283485Y-101550780D01*
X60348980Y-101523377D01*
X60369970Y-101523535D01*
X60369970Y-101523500D01*
X60390224Y-101523500D01*
X60409934Y-101525051D01*
X60429943Y-101528220D01*
X60437835Y-101527474D01*
X60463467Y-101525051D01*
X60473962Y-101524059D01*
X60485819Y-101523500D01*
X66696077Y-101523500D01*
X66764198Y-101543502D01*
X66810691Y-101597158D01*
X66820795Y-101667432D01*
X66791301Y-101732012D01*
X66779155Y-101744231D01*
X66722322Y-101794073D01*
X66722318Y-101794078D01*
X66717975Y-101797886D01*
X66595830Y-101952825D01*
X66593141Y-101957936D01*
X66593139Y-101957939D01*
X66583271Y-101976695D01*
X66503966Y-102127429D01*
X66445460Y-102315851D01*
X66422270Y-102511779D01*
X66435174Y-102708652D01*
X66483739Y-102899877D01*
X66566339Y-103079049D01*
X66680207Y-103240169D01*
X66821530Y-103377840D01*
X66826326Y-103381045D01*
X66826329Y-103381047D01*
X66891809Y-103424799D01*
X66985576Y-103487452D01*
X66990879Y-103489730D01*
X66990882Y-103489732D01*
X67161542Y-103563053D01*
X67166849Y-103565333D01*
X67260185Y-103586453D01*
X67353644Y-103607601D01*
X67353647Y-103607601D01*
X67359280Y-103608876D01*
X67365051Y-103609103D01*
X67365053Y-103609103D01*
X67424054Y-103611421D01*
X67556423Y-103616622D01*
X67694717Y-103596570D01*
X67745955Y-103589141D01*
X67745959Y-103589140D01*
X67751677Y-103588311D01*
X67757149Y-103586453D01*
X67757151Y-103586453D01*
X67933038Y-103526747D01*
X67933040Y-103526746D01*
X67938502Y-103524892D01*
X68110642Y-103428490D01*
X68262331Y-103302331D01*
X68379734Y-103161170D01*
X68384799Y-103155080D01*
X68388490Y-103150642D01*
X68484892Y-102978502D01*
X68511583Y-102899875D01*
X68546453Y-102797151D01*
X68546453Y-102797149D01*
X68548311Y-102791677D01*
X68549673Y-102782289D01*
X68565480Y-102673266D01*
X68576622Y-102596423D01*
X68578099Y-102540000D01*
X68562877Y-102374337D01*
X68560575Y-102349286D01*
X68560574Y-102349283D01*
X68560046Y-102343532D01*
X68550684Y-102310334D01*
X68508060Y-102159203D01*
X68508059Y-102159201D01*
X68506492Y-102153644D01*
X68496286Y-102132947D01*
X68421786Y-101981876D01*
X68419231Y-101976695D01*
X68401407Y-101952825D01*
X68304637Y-101823235D01*
X68304636Y-101823234D01*
X68301184Y-101818611D01*
X68296948Y-101814695D01*
X68296943Y-101814689D01*
X68218334Y-101742025D01*
X68181888Y-101681097D01*
X68184168Y-101610137D01*
X68224451Y-101551674D01*
X68289946Y-101524271D01*
X68303862Y-101523500D01*
X69996405Y-101523500D01*
X70064526Y-101543502D01*
X70111019Y-101597158D01*
X70121123Y-101667432D01*
X70091629Y-101732012D01*
X70085500Y-101738595D01*
X69457747Y-102366348D01*
X69449461Y-102373888D01*
X69442982Y-102378000D01*
X69437557Y-102383777D01*
X69396357Y-102427651D01*
X69393602Y-102430493D01*
X69373865Y-102450230D01*
X69371385Y-102453427D01*
X69363682Y-102462447D01*
X69333414Y-102494679D01*
X69329595Y-102501625D01*
X69329593Y-102501628D01*
X69323652Y-102512434D01*
X69312801Y-102528953D01*
X69300386Y-102544959D01*
X69297241Y-102552228D01*
X69297238Y-102552232D01*
X69282826Y-102585537D01*
X69277609Y-102596187D01*
X69256305Y-102634940D01*
X69254334Y-102642615D01*
X69254334Y-102642616D01*
X69251267Y-102654562D01*
X69244863Y-102673266D01*
X69236819Y-102691855D01*
X69235580Y-102699678D01*
X69235577Y-102699688D01*
X69229901Y-102735524D01*
X69227495Y-102747144D01*
X69218472Y-102782289D01*
X69216500Y-102789970D01*
X69216500Y-102810224D01*
X69214949Y-102829934D01*
X69211780Y-102849943D01*
X69212526Y-102857835D01*
X69215941Y-102893961D01*
X69216500Y-102905819D01*
X69216500Y-105332582D01*
X69215973Y-105343765D01*
X69214298Y-105351258D01*
X69214547Y-105359184D01*
X69214547Y-105359185D01*
X69216438Y-105419335D01*
X69216500Y-105423294D01*
X69216500Y-105451205D01*
X69216997Y-105455139D01*
X69216997Y-105455140D01*
X69217005Y-105455205D01*
X69217938Y-105467042D01*
X69219327Y-105511238D01*
X69222900Y-105523535D01*
X69224978Y-105530688D01*
X69228987Y-105550049D01*
X69231526Y-105570146D01*
X69234445Y-105577517D01*
X69234445Y-105577519D01*
X69247804Y-105611261D01*
X69251649Y-105622491D01*
X69263982Y-105664942D01*
X69268015Y-105671761D01*
X69268017Y-105671766D01*
X69274293Y-105682377D01*
X69282988Y-105700125D01*
X69290448Y-105718966D01*
X69295110Y-105725382D01*
X69295110Y-105725383D01*
X69316436Y-105754736D01*
X69322952Y-105764656D01*
X69332127Y-105780169D01*
X69345458Y-105802711D01*
X69359779Y-105817032D01*
X69372619Y-105832065D01*
X69384528Y-105848456D01*
X69390634Y-105853507D01*
X69418605Y-105876647D01*
X69427384Y-105884637D01*
X70360994Y-106818247D01*
X70368538Y-106826537D01*
X70372651Y-106833018D01*
X70378428Y-106838443D01*
X70422318Y-106879658D01*
X70425160Y-106882413D01*
X70444881Y-106902134D01*
X70448076Y-106904612D01*
X70457098Y-106912318D01*
X70489330Y-106942586D01*
X70496279Y-106946406D01*
X70507083Y-106952346D01*
X70523607Y-106963199D01*
X70539610Y-106975613D01*
X70580194Y-106993176D01*
X70590824Y-106998383D01*
X70629591Y-107019695D01*
X70637268Y-107021666D01*
X70637273Y-107021668D01*
X70649209Y-107024732D01*
X70667917Y-107031137D01*
X70686506Y-107039181D01*
X70694334Y-107040421D01*
X70694341Y-107040423D01*
X70730175Y-107046099D01*
X70741795Y-107048505D01*
X70774580Y-107056922D01*
X70784621Y-107059500D01*
X70804875Y-107059500D01*
X70824585Y-107061051D01*
X70844594Y-107064220D01*
X70852486Y-107063474D01*
X70871231Y-107061702D01*
X70888613Y-107060059D01*
X70900470Y-107059500D01*
X72438840Y-107059500D01*
X72506961Y-107079502D01*
X72553454Y-107133158D01*
X72563558Y-107203432D01*
X72559173Y-107222864D01*
X72507173Y-107390334D01*
X72505460Y-107395851D01*
X72482270Y-107591779D01*
X72495174Y-107788652D01*
X72543739Y-107979877D01*
X72626339Y-108159049D01*
X72740207Y-108320169D01*
X72881530Y-108457840D01*
X72886326Y-108461045D01*
X72886329Y-108461047D01*
X72951809Y-108504799D01*
X73045576Y-108567452D01*
X73050879Y-108569730D01*
X73050882Y-108569732D01*
X73221542Y-108643053D01*
X73226849Y-108645333D01*
X73320185Y-108666453D01*
X73413644Y-108687601D01*
X73413647Y-108687601D01*
X73419280Y-108688876D01*
X73425051Y-108689103D01*
X73425053Y-108689103D01*
X73484054Y-108691421D01*
X73616423Y-108696622D01*
X73731789Y-108679894D01*
X73805955Y-108669141D01*
X73805959Y-108669140D01*
X73811677Y-108668311D01*
X73817149Y-108666453D01*
X73817151Y-108666453D01*
X73993038Y-108606747D01*
X73993040Y-108606746D01*
X73998502Y-108604892D01*
X74170642Y-108508490D01*
X74322331Y-108382331D01*
X74448490Y-108230642D01*
X74544892Y-108058502D01*
X74608311Y-107871677D01*
X74636622Y-107676423D01*
X74638099Y-107620000D01*
X74635506Y-107591779D01*
X80422270Y-107591779D01*
X80435174Y-107788652D01*
X80483739Y-107979877D01*
X80566339Y-108159049D01*
X80680207Y-108320169D01*
X80821530Y-108457840D01*
X80826326Y-108461045D01*
X80826329Y-108461047D01*
X80891809Y-108504799D01*
X80985576Y-108567452D01*
X80990879Y-108569730D01*
X80990882Y-108569732D01*
X81161542Y-108643053D01*
X81166849Y-108645333D01*
X81260185Y-108666453D01*
X81353644Y-108687601D01*
X81353647Y-108687601D01*
X81359280Y-108688876D01*
X81365051Y-108689103D01*
X81365053Y-108689103D01*
X81424054Y-108691421D01*
X81556423Y-108696622D01*
X81671789Y-108679894D01*
X81745955Y-108669141D01*
X81745959Y-108669140D01*
X81751677Y-108668311D01*
X81757149Y-108666453D01*
X81757151Y-108666453D01*
X81933038Y-108606747D01*
X81933040Y-108606746D01*
X81938502Y-108604892D01*
X82110642Y-108508490D01*
X82262331Y-108382331D01*
X82388490Y-108230642D01*
X82484892Y-108058502D01*
X82548311Y-107871677D01*
X82576622Y-107676423D01*
X82578099Y-107620000D01*
X82560046Y-107423532D01*
X82550684Y-107390334D01*
X82508060Y-107239203D01*
X82508059Y-107239201D01*
X82506492Y-107233644D01*
X82496286Y-107212947D01*
X82421786Y-107061876D01*
X82419231Y-107056695D01*
X82410848Y-107045468D01*
X82304637Y-106903235D01*
X82304636Y-106903234D01*
X82301184Y-106898611D01*
X82283661Y-106882413D01*
X82160546Y-106768607D01*
X82160544Y-106768605D01*
X82156305Y-106764687D01*
X81989447Y-106659407D01*
X81806197Y-106586297D01*
X81800529Y-106585170D01*
X81800527Y-106585169D01*
X81618360Y-106548934D01*
X81618356Y-106548934D01*
X81612692Y-106547807D01*
X81606917Y-106547731D01*
X81606913Y-106547731D01*
X81508267Y-106546440D01*
X81415413Y-106545224D01*
X81409716Y-106546203D01*
X81409715Y-106546203D01*
X81393822Y-106548934D01*
X81220967Y-106578636D01*
X81035866Y-106646924D01*
X81030905Y-106649876D01*
X81030904Y-106649876D01*
X80871277Y-106744844D01*
X80871274Y-106744846D01*
X80866309Y-106747800D01*
X80861969Y-106751606D01*
X80861965Y-106751609D01*
X80850566Y-106761606D01*
X80717975Y-106877886D01*
X80595830Y-107032825D01*
X80593141Y-107037936D01*
X80593139Y-107037939D01*
X80579312Y-107064220D01*
X80503966Y-107207429D01*
X80445460Y-107395851D01*
X80422270Y-107591779D01*
X74635506Y-107591779D01*
X74620046Y-107423532D01*
X74566492Y-107233644D01*
X74564731Y-107230072D01*
X74559039Y-107159891D01*
X74592468Y-107097258D01*
X74654454Y-107062640D01*
X74682409Y-107059500D01*
X78496582Y-107059500D01*
X78507765Y-107060027D01*
X78515258Y-107061702D01*
X78523184Y-107061453D01*
X78523185Y-107061453D01*
X78583335Y-107059562D01*
X78587294Y-107059500D01*
X78615205Y-107059500D01*
X78619140Y-107059003D01*
X78619205Y-107058995D01*
X78631042Y-107058062D01*
X78663300Y-107057048D01*
X78667319Y-107056922D01*
X78675238Y-107056673D01*
X78694692Y-107051021D01*
X78714049Y-107047013D01*
X78726279Y-107045468D01*
X78726280Y-107045468D01*
X78734146Y-107044474D01*
X78741517Y-107041555D01*
X78741519Y-107041555D01*
X78775261Y-107028196D01*
X78786491Y-107024351D01*
X78821332Y-107014229D01*
X78821333Y-107014229D01*
X78828942Y-107012018D01*
X78835761Y-107007985D01*
X78835766Y-107007983D01*
X78846377Y-107001707D01*
X78864125Y-106993012D01*
X78882966Y-106985552D01*
X78903336Y-106970753D01*
X78918736Y-106959564D01*
X78928656Y-106953048D01*
X78959884Y-106934580D01*
X78959887Y-106934578D01*
X78966711Y-106930542D01*
X78981032Y-106916221D01*
X78996066Y-106903380D01*
X78997781Y-106902134D01*
X79012456Y-106891472D01*
X79040647Y-106857395D01*
X79048637Y-106848616D01*
X80347587Y-105549666D01*
X80409899Y-105515640D01*
X80480714Y-105520705D01*
X80537550Y-105563252D01*
X80551107Y-105586008D01*
X80566339Y-105619049D01*
X80680207Y-105780169D01*
X80684341Y-105784196D01*
X80783124Y-105880426D01*
X80821530Y-105917840D01*
X80826326Y-105921045D01*
X80826329Y-105921047D01*
X80891809Y-105964799D01*
X80985576Y-106027452D01*
X80990879Y-106029730D01*
X80990882Y-106029732D01*
X81161542Y-106103053D01*
X81166849Y-106105333D01*
X81260185Y-106126453D01*
X81353644Y-106147601D01*
X81353647Y-106147601D01*
X81359280Y-106148876D01*
X81365051Y-106149103D01*
X81365053Y-106149103D01*
X81424054Y-106151421D01*
X81556423Y-106156622D01*
X81671789Y-106139894D01*
X81745955Y-106129141D01*
X81745959Y-106129140D01*
X81751677Y-106128311D01*
X81757149Y-106126453D01*
X81757151Y-106126453D01*
X81933038Y-106066747D01*
X81933040Y-106066746D01*
X81938502Y-106064892D01*
X82110642Y-105968490D01*
X82262331Y-105842331D01*
X82365036Y-105718842D01*
X82384799Y-105695080D01*
X82388490Y-105690642D01*
X82392218Y-105683986D01*
X82418207Y-105637578D01*
X82484892Y-105518502D01*
X82502359Y-105467048D01*
X82546453Y-105337151D01*
X82546453Y-105337149D01*
X82548311Y-105331677D01*
X82576622Y-105136423D01*
X82578099Y-105080000D01*
X82560046Y-104883532D01*
X82550684Y-104850334D01*
X82508060Y-104699203D01*
X82508059Y-104699201D01*
X82506492Y-104693644D01*
X82496286Y-104672947D01*
X82421786Y-104521876D01*
X82419231Y-104516695D01*
X82401407Y-104492825D01*
X82304637Y-104363235D01*
X82304636Y-104363234D01*
X82301184Y-104358611D01*
X82278764Y-104337886D01*
X82160546Y-104228607D01*
X82160544Y-104228605D01*
X82156305Y-104224687D01*
X81989447Y-104119407D01*
X81806197Y-104046297D01*
X81800529Y-104045170D01*
X81800527Y-104045169D01*
X81618360Y-104008934D01*
X81618356Y-104008934D01*
X81612692Y-104007807D01*
X81606917Y-104007731D01*
X81606913Y-104007731D01*
X81508267Y-104006440D01*
X81415413Y-104005224D01*
X81409716Y-104006203D01*
X81409715Y-104006203D01*
X81261838Y-104031613D01*
X81191314Y-104023436D01*
X81136406Y-103978429D01*
X81114500Y-103907433D01*
X81114500Y-103711184D01*
X81134502Y-103643063D01*
X81188158Y-103596570D01*
X81258432Y-103586466D01*
X81268308Y-103588291D01*
X81353644Y-103607601D01*
X81353647Y-103607601D01*
X81359280Y-103608876D01*
X81365051Y-103609103D01*
X81365053Y-103609103D01*
X81424054Y-103611421D01*
X81556423Y-103616622D01*
X81694717Y-103596570D01*
X81745955Y-103589141D01*
X81745959Y-103589140D01*
X81751677Y-103588311D01*
X81757149Y-103586453D01*
X81757151Y-103586453D01*
X81933038Y-103526747D01*
X81933040Y-103526746D01*
X81938502Y-103524892D01*
X82110642Y-103428490D01*
X82262331Y-103302331D01*
X82379734Y-103161170D01*
X82384799Y-103155080D01*
X82388490Y-103150642D01*
X82484892Y-102978502D01*
X82511583Y-102899875D01*
X82546453Y-102797151D01*
X82546453Y-102797149D01*
X82548311Y-102791677D01*
X82549673Y-102782289D01*
X82565480Y-102673266D01*
X82576622Y-102596423D01*
X82578099Y-102540000D01*
X82562877Y-102374337D01*
X82560575Y-102349286D01*
X82560574Y-102349283D01*
X82560046Y-102343532D01*
X82550684Y-102310334D01*
X82508060Y-102159203D01*
X82508059Y-102159201D01*
X82506492Y-102153644D01*
X82496286Y-102132947D01*
X82421786Y-101981876D01*
X82419231Y-101976695D01*
X82401407Y-101952825D01*
X82304637Y-101823235D01*
X82304636Y-101823234D01*
X82301184Y-101818611D01*
X82296948Y-101814695D01*
X82160546Y-101688607D01*
X82160544Y-101688605D01*
X82156305Y-101684687D01*
X81989447Y-101579407D01*
X81806197Y-101506297D01*
X81800529Y-101505170D01*
X81800527Y-101505169D01*
X81618360Y-101468934D01*
X81618356Y-101468934D01*
X81612692Y-101467807D01*
X81606917Y-101467731D01*
X81606913Y-101467731D01*
X81508267Y-101466440D01*
X81415413Y-101465224D01*
X81409716Y-101466203D01*
X81409715Y-101466203D01*
X81261838Y-101491613D01*
X81191314Y-101483436D01*
X81136406Y-101438429D01*
X81114500Y-101367433D01*
X81114500Y-101171184D01*
X81134502Y-101103063D01*
X81188158Y-101056570D01*
X81258432Y-101046466D01*
X81268308Y-101048291D01*
X81353644Y-101067601D01*
X81353647Y-101067601D01*
X81359280Y-101068876D01*
X81365051Y-101069103D01*
X81365053Y-101069103D01*
X81424054Y-101071421D01*
X81556423Y-101076622D01*
X81694717Y-101056570D01*
X81745955Y-101049141D01*
X81745959Y-101049140D01*
X81751677Y-101048311D01*
X81757149Y-101046453D01*
X81757151Y-101046453D01*
X81933038Y-100986747D01*
X81933040Y-100986746D01*
X81938502Y-100984892D01*
X82110642Y-100888490D01*
X82262331Y-100762331D01*
X82388490Y-100610642D01*
X82484892Y-100438502D01*
X82548311Y-100251677D01*
X82576622Y-100056423D01*
X82578099Y-100000000D01*
X82560046Y-99803532D01*
X82550684Y-99770334D01*
X82508060Y-99619203D01*
X82508059Y-99619201D01*
X82506492Y-99613644D01*
X82496286Y-99592947D01*
X82421786Y-99441876D01*
X82419231Y-99436695D01*
X82402271Y-99413982D01*
X82304637Y-99283235D01*
X82304636Y-99283234D01*
X82301184Y-99278611D01*
X82278764Y-99257886D01*
X82160546Y-99148607D01*
X82160544Y-99148605D01*
X82156305Y-99144687D01*
X81989447Y-99039407D01*
X81806197Y-98966297D01*
X81800529Y-98965170D01*
X81800527Y-98965169D01*
X81618360Y-98928934D01*
X81618356Y-98928934D01*
X81612692Y-98927807D01*
X81606917Y-98927731D01*
X81606913Y-98927731D01*
X81508267Y-98926440D01*
X81415413Y-98925224D01*
X81409716Y-98926203D01*
X81409715Y-98926203D01*
X81261838Y-98951613D01*
X81191314Y-98943436D01*
X81136406Y-98898429D01*
X81114500Y-98827433D01*
X81114500Y-98659500D01*
X81134502Y-98591379D01*
X81188158Y-98544886D01*
X81240500Y-98533500D01*
X82113134Y-98533500D01*
X82175316Y-98526745D01*
X82311705Y-98475615D01*
X82428261Y-98388261D01*
X82515615Y-98271705D01*
X82566745Y-98135316D01*
X82573500Y-98073134D01*
X82573500Y-96846866D01*
X82566745Y-96784684D01*
X82515615Y-96648295D01*
X82428261Y-96531739D01*
X82311705Y-96444385D01*
X82175316Y-96393255D01*
X82113134Y-96386500D01*
X81240500Y-96386500D01*
X81172379Y-96366498D01*
X81125886Y-96312842D01*
X81114500Y-96260500D01*
X81114500Y-90193594D01*
X81134502Y-90125473D01*
X81151405Y-90104499D01*
X82864653Y-88391252D01*
X82872939Y-88383712D01*
X82879418Y-88379600D01*
X82926044Y-88329948D01*
X82928798Y-88327107D01*
X82948535Y-88307370D01*
X82951015Y-88304173D01*
X82958720Y-88295151D01*
X82983559Y-88268700D01*
X82988986Y-88262921D01*
X82992805Y-88255975D01*
X82992807Y-88255972D01*
X82998748Y-88245166D01*
X83009599Y-88228647D01*
X83017158Y-88218901D01*
X83022014Y-88212641D01*
X83025159Y-88205372D01*
X83025162Y-88205368D01*
X83039574Y-88172063D01*
X83044791Y-88161413D01*
X83066095Y-88122660D01*
X83071133Y-88103037D01*
X83077537Y-88084334D01*
X83082433Y-88073020D01*
X83082433Y-88073019D01*
X83085581Y-88065745D01*
X83086820Y-88057922D01*
X83086823Y-88057912D01*
X83092499Y-88022076D01*
X83094905Y-88010456D01*
X83103928Y-87975311D01*
X83103928Y-87975310D01*
X83105900Y-87967630D01*
X83105900Y-87947376D01*
X83107451Y-87927665D01*
X83109380Y-87915486D01*
X83110620Y-87907657D01*
X83106459Y-87863638D01*
X83105900Y-87851781D01*
X83105900Y-56135167D01*
X83106427Y-56123984D01*
X83108102Y-56116491D01*
X83105962Y-56048414D01*
X83105900Y-56044455D01*
X83105900Y-52390368D01*
X83106427Y-52379185D01*
X83108102Y-52371692D01*
X83106551Y-52322326D01*
X83105962Y-52303602D01*
X83105900Y-52299644D01*
X83105900Y-52271744D01*
X83105396Y-52267753D01*
X83104463Y-52255911D01*
X83103323Y-52219636D01*
X83103074Y-52211711D01*
X83099967Y-52201016D01*
X83097421Y-52192252D01*
X83093412Y-52172893D01*
X83093246Y-52171583D01*
X83090874Y-52152803D01*
X83087958Y-52145437D01*
X83087956Y-52145431D01*
X83074600Y-52111698D01*
X83070755Y-52100468D01*
X83060630Y-52065617D01*
X83060630Y-52065616D01*
X83058419Y-52058007D01*
X83048105Y-52040566D01*
X83039408Y-52022813D01*
X83034872Y-52011358D01*
X83031952Y-52003983D01*
X83005963Y-51968212D01*
X82999447Y-51958292D01*
X82980978Y-51927063D01*
X82976942Y-51920238D01*
X82962621Y-51905917D01*
X82949780Y-51890883D01*
X82937872Y-51874493D01*
X82939709Y-51873158D01*
X82912862Y-51820084D01*
X82914246Y-51767777D01*
X82965780Y-51553124D01*
X82965781Y-51553118D01*
X82966935Y-51548311D01*
X82985565Y-51311600D01*
X82966935Y-51074889D01*
X82911505Y-50844006D01*
X82820640Y-50624637D01*
X82806223Y-50601110D01*
X82699159Y-50426398D01*
X82699155Y-50426392D01*
X82696576Y-50422184D01*
X82542369Y-50241631D01*
X82538613Y-50238423D01*
X82538608Y-50238418D01*
X82420344Y-50137411D01*
X82381534Y-50077961D01*
X82381028Y-50006966D01*
X82420344Y-49945789D01*
X82538608Y-49844782D01*
X82538613Y-49844777D01*
X82542369Y-49841569D01*
X82696576Y-49661016D01*
X82699155Y-49656808D01*
X82699159Y-49656802D01*
X82818054Y-49462783D01*
X82820640Y-49458563D01*
X82873069Y-49331989D01*
X82909611Y-49243767D01*
X82909612Y-49243765D01*
X82911505Y-49239194D01*
X82966935Y-49008311D01*
X82985565Y-48771600D01*
X82966935Y-48534889D01*
X82947570Y-48454225D01*
X82912660Y-48308818D01*
X82911505Y-48304006D01*
X82877789Y-48222607D01*
X82822535Y-48089211D01*
X82822533Y-48089207D01*
X82820640Y-48084637D01*
X82712403Y-47908011D01*
X82699159Y-47886398D01*
X82699155Y-47886392D01*
X82696576Y-47882184D01*
X82542369Y-47701631D01*
X82538613Y-47698423D01*
X82538608Y-47698418D01*
X82420344Y-47597411D01*
X82381534Y-47537961D01*
X82381028Y-47466966D01*
X82420344Y-47405789D01*
X82538608Y-47304782D01*
X82538613Y-47304777D01*
X82542369Y-47301569D01*
X82696576Y-47121016D01*
X82699155Y-47116808D01*
X82699159Y-47116802D01*
X82818054Y-46922783D01*
X82820640Y-46918563D01*
X82843872Y-46862477D01*
X82909611Y-46703767D01*
X82909612Y-46703765D01*
X82911505Y-46699194D01*
X82966935Y-46468311D01*
X82985565Y-46231600D01*
X82966935Y-45994889D01*
X82965087Y-45987188D01*
X82912660Y-45768818D01*
X82911505Y-45764006D01*
X82858315Y-45635592D01*
X82822535Y-45549211D01*
X82822533Y-45549207D01*
X82820640Y-45544637D01*
X82818054Y-45540417D01*
X82699159Y-45346398D01*
X82699155Y-45346392D01*
X82696576Y-45342184D01*
X82542369Y-45161631D01*
X82361816Y-45007424D01*
X82357608Y-45004845D01*
X82357602Y-45004841D01*
X82163583Y-44885946D01*
X82159363Y-44883360D01*
X82154793Y-44881467D01*
X82154789Y-44881465D01*
X81944567Y-44794389D01*
X81944565Y-44794388D01*
X81939994Y-44792495D01*
X81840089Y-44768510D01*
X81713924Y-44738220D01*
X81713918Y-44738219D01*
X81709111Y-44737065D01*
X81472400Y-44718435D01*
X81235689Y-44737065D01*
X81230882Y-44738219D01*
X81230876Y-44738220D01*
X81104711Y-44768510D01*
X81004806Y-44792495D01*
X81000235Y-44794388D01*
X81000233Y-44794389D01*
X80790011Y-44881465D01*
X80790007Y-44881467D01*
X80785437Y-44883360D01*
X80781217Y-44885946D01*
X80587198Y-45004841D01*
X80587192Y-45004845D01*
X80582984Y-45007424D01*
X80402431Y-45161631D01*
X80399223Y-45165387D01*
X80349354Y-45223776D01*
X80289903Y-45262585D01*
X80218909Y-45263091D01*
X80158910Y-45225135D01*
X80156661Y-45222322D01*
X80156576Y-45222184D01*
X80002369Y-45041631D01*
X79821816Y-44887424D01*
X79817608Y-44884845D01*
X79817602Y-44884841D01*
X79623583Y-44765946D01*
X79619363Y-44763360D01*
X79614793Y-44761467D01*
X79614789Y-44761465D01*
X79404567Y-44674389D01*
X79404565Y-44674388D01*
X79399994Y-44672495D01*
X79319791Y-44653240D01*
X79173924Y-44618220D01*
X79173918Y-44618219D01*
X79169111Y-44617065D01*
X78932400Y-44598435D01*
X78695689Y-44617065D01*
X78690882Y-44618219D01*
X78690876Y-44618220D01*
X78545009Y-44653240D01*
X78464806Y-44672495D01*
X78460235Y-44674388D01*
X78460233Y-44674389D01*
X78250011Y-44761465D01*
X78250007Y-44761467D01*
X78245437Y-44763360D01*
X78241217Y-44765946D01*
X78047198Y-44884841D01*
X78047192Y-44884845D01*
X78042984Y-44887424D01*
X77862431Y-45041631D01*
X77708224Y-45222184D01*
X77706774Y-45220946D01*
X77657002Y-45259348D01*
X77586268Y-45265442D01*
X77523467Y-45232327D01*
X77515446Y-45223776D01*
X77465577Y-45165387D01*
X77462369Y-45161631D01*
X77281816Y-45007424D01*
X77277608Y-45004845D01*
X77277602Y-45004841D01*
X77083583Y-44885946D01*
X77079363Y-44883360D01*
X77074793Y-44881467D01*
X77074789Y-44881465D01*
X76864567Y-44794389D01*
X76864565Y-44794388D01*
X76859994Y-44792495D01*
X76760089Y-44768510D01*
X76633924Y-44738220D01*
X76633918Y-44738219D01*
X76629111Y-44737065D01*
X76392400Y-44718435D01*
X76155689Y-44737065D01*
X76150882Y-44738219D01*
X76150876Y-44738220D01*
X76024711Y-44768510D01*
X75924806Y-44792495D01*
X75920235Y-44794388D01*
X75920233Y-44794389D01*
X75710011Y-44881465D01*
X75710007Y-44881467D01*
X75705437Y-44883360D01*
X75701217Y-44885946D01*
X75507198Y-45004841D01*
X75507192Y-45004845D01*
X75502984Y-45007424D01*
X75322431Y-45161631D01*
X75168224Y-45342184D01*
X75165645Y-45346392D01*
X75165641Y-45346398D01*
X75046746Y-45540417D01*
X75044160Y-45544637D01*
X75042267Y-45549207D01*
X75042265Y-45549211D01*
X75006485Y-45635592D01*
X74953295Y-45764006D01*
X74952140Y-45768818D01*
X74899714Y-45987188D01*
X74897865Y-45994889D01*
X74879235Y-46231600D01*
X74897865Y-46468311D01*
X74953295Y-46699194D01*
X74955188Y-46703765D01*
X74955189Y-46703767D01*
X75020929Y-46862477D01*
X75044160Y-46918563D01*
X75046746Y-46922783D01*
X75165641Y-47116802D01*
X75165645Y-47116808D01*
X75168224Y-47121016D01*
X75322431Y-47301569D01*
X75326187Y-47304777D01*
X75326192Y-47304782D01*
X75444456Y-47405789D01*
X75483266Y-47465239D01*
X75483772Y-47536234D01*
X75444456Y-47597411D01*
X75326192Y-47698418D01*
X75326187Y-47698423D01*
X75322431Y-47701631D01*
X75168224Y-47882184D01*
X75165645Y-47886392D01*
X75165641Y-47886398D01*
X75152397Y-47908011D01*
X75044160Y-48084637D01*
X75042267Y-48089207D01*
X75042265Y-48089211D01*
X74987011Y-48222607D01*
X74953295Y-48304006D01*
X74952140Y-48308818D01*
X74917231Y-48454225D01*
X74897865Y-48534889D01*
X74879235Y-48771600D01*
X74897865Y-49008311D01*
X74953295Y-49239194D01*
X74955188Y-49243765D01*
X74955189Y-49243767D01*
X74991732Y-49331989D01*
X75044160Y-49458563D01*
X75046746Y-49462783D01*
X75165641Y-49656802D01*
X75165645Y-49656808D01*
X75168224Y-49661016D01*
X75322431Y-49841569D01*
X75326187Y-49844777D01*
X75326192Y-49844782D01*
X75444456Y-49945789D01*
X75483266Y-50005239D01*
X75483772Y-50076234D01*
X75444456Y-50137411D01*
X75326192Y-50238418D01*
X75326187Y-50238423D01*
X75322431Y-50241631D01*
X75168224Y-50422184D01*
X75165645Y-50426392D01*
X75165641Y-50426398D01*
X75058577Y-50601110D01*
X75044160Y-50624637D01*
X74953295Y-50844006D01*
X74897865Y-51074889D01*
X74879235Y-51311600D01*
X74897865Y-51548311D01*
X74953295Y-51779194D01*
X74955188Y-51783765D01*
X74955189Y-51783767D01*
X75009394Y-51914629D01*
X75044160Y-51998563D01*
X75046746Y-52002783D01*
X75165641Y-52196802D01*
X75165645Y-52196808D01*
X75168224Y-52201016D01*
X75322431Y-52381569D01*
X75502984Y-52535776D01*
X75507192Y-52538355D01*
X75507198Y-52538359D01*
X75701217Y-52657254D01*
X75705437Y-52659840D01*
X75710007Y-52661733D01*
X75710011Y-52661735D01*
X75920233Y-52748811D01*
X75924806Y-52750705D01*
X76005009Y-52769960D01*
X76150876Y-52804980D01*
X76150882Y-52804981D01*
X76155689Y-52806135D01*
X76392400Y-52824765D01*
X76629111Y-52806135D01*
X76633918Y-52804981D01*
X76633924Y-52804980D01*
X76852351Y-52752540D01*
X76923259Y-52756087D01*
X76970860Y-52785964D01*
X78679143Y-54494247D01*
X78686687Y-54502537D01*
X78690800Y-54509018D01*
X78696577Y-54514443D01*
X78740467Y-54555658D01*
X78743309Y-54558413D01*
X78763031Y-54578135D01*
X78766155Y-54580558D01*
X78766159Y-54580562D01*
X78766224Y-54580612D01*
X78775245Y-54588317D01*
X78807479Y-54618586D01*
X78814427Y-54622405D01*
X78814429Y-54622407D01*
X78825232Y-54628346D01*
X78841759Y-54639202D01*
X78851498Y-54646757D01*
X78851500Y-54646758D01*
X78857760Y-54651614D01*
X78898340Y-54669174D01*
X78908988Y-54674391D01*
X78947740Y-54695695D01*
X78955416Y-54697666D01*
X78955419Y-54697667D01*
X78967362Y-54700733D01*
X78986067Y-54707137D01*
X79004655Y-54715181D01*
X79012478Y-54716420D01*
X79012488Y-54716423D01*
X79048324Y-54722099D01*
X79059944Y-54724505D01*
X79095089Y-54733528D01*
X79102770Y-54735500D01*
X79123024Y-54735500D01*
X79142734Y-54737051D01*
X79162743Y-54740220D01*
X79170635Y-54739474D01*
X79206761Y-54736059D01*
X79218619Y-54735500D01*
X80825800Y-54735500D01*
X80893921Y-54755502D01*
X80913147Y-54771843D01*
X80913420Y-54771540D01*
X80918332Y-54775963D01*
X80922747Y-54780866D01*
X81077248Y-54893118D01*
X81083276Y-54895802D01*
X81083278Y-54895803D01*
X81229101Y-54960727D01*
X81251712Y-54970794D01*
X81370628Y-54996071D01*
X81376191Y-54997253D01*
X81438664Y-55030982D01*
X81472986Y-55093131D01*
X81468258Y-55163970D01*
X81425982Y-55221008D01*
X81359581Y-55246135D01*
X81349994Y-55246500D01*
X68651793Y-55246500D01*
X68628184Y-55244268D01*
X68627881Y-55244210D01*
X68627877Y-55244210D01*
X68620094Y-55242725D01*
X68565893Y-55246135D01*
X68564049Y-55246251D01*
X68556138Y-55246500D01*
X68540144Y-55246500D01*
X68524270Y-55248506D01*
X68516410Y-55249248D01*
X68488951Y-55250976D01*
X68468263Y-55252277D01*
X68468262Y-55252277D01*
X68460350Y-55252775D01*
X68452809Y-55255225D01*
X68452513Y-55255321D01*
X68429369Y-55260494D01*
X68429065Y-55260532D01*
X68429060Y-55260533D01*
X68421203Y-55261526D01*
X68413838Y-55264442D01*
X68413834Y-55264443D01*
X68368989Y-55282199D01*
X68361570Y-55284871D01*
X68308125Y-55302236D01*
X68301429Y-55306486D01*
X68301428Y-55306486D01*
X68301169Y-55306650D01*
X68280042Y-55317415D01*
X68279754Y-55317529D01*
X68279749Y-55317532D01*
X68272383Y-55320448D01*
X68265975Y-55325104D01*
X68265969Y-55325107D01*
X68226948Y-55353458D01*
X68220411Y-55357901D01*
X68172982Y-55388000D01*
X68167556Y-55393778D01*
X68167555Y-55393779D01*
X68167341Y-55394007D01*
X68149554Y-55409688D01*
X68149309Y-55409866D01*
X68149307Y-55409868D01*
X68142893Y-55414528D01*
X68137839Y-55420637D01*
X68137838Y-55420638D01*
X68107097Y-55457796D01*
X68101866Y-55463730D01*
X68068842Y-55498898D01*
X68068840Y-55498901D01*
X68063414Y-55504679D01*
X68059445Y-55511899D01*
X68046119Y-55531506D01*
X68045920Y-55531746D01*
X68045916Y-55531753D01*
X68040867Y-55537856D01*
X68037493Y-55545027D01*
X68016953Y-55588676D01*
X68013371Y-55595708D01*
X67986305Y-55644940D01*
X67984335Y-55652615D01*
X67984332Y-55652621D01*
X67984256Y-55652919D01*
X67976224Y-55675228D01*
X67976094Y-55675503D01*
X67976091Y-55675511D01*
X67972717Y-55682682D01*
X67971231Y-55690474D01*
X67962195Y-55737843D01*
X67960471Y-55745558D01*
X67946500Y-55799970D01*
X67946500Y-55808207D01*
X67944268Y-55831816D01*
X67942725Y-55839906D01*
X67943223Y-55847817D01*
X67946251Y-55895951D01*
X67946500Y-55903862D01*
X67946500Y-60645406D01*
X67926498Y-60713527D01*
X67909595Y-60734501D01*
X62533500Y-66110595D01*
X62471188Y-66144621D01*
X62444405Y-66147500D01*
X62388513Y-66147500D01*
X62382061Y-66148872D01*
X62382056Y-66148872D01*
X62295113Y-66167353D01*
X62201712Y-66187206D01*
X62195682Y-66189891D01*
X62195681Y-66189891D01*
X62033278Y-66262197D01*
X62033276Y-66262198D01*
X62027248Y-66264882D01*
X61872747Y-66377134D01*
X61744960Y-66519056D01*
X61649473Y-66684444D01*
X61590458Y-66866072D01*
X61570496Y-67056000D01*
X61590458Y-67245928D01*
X61649473Y-67427556D01*
X61744960Y-67592944D01*
X61872747Y-67734866D01*
X62027248Y-67847118D01*
X62033276Y-67849802D01*
X62033278Y-67849803D01*
X62195681Y-67922109D01*
X62201712Y-67924794D01*
X62295112Y-67944647D01*
X62382056Y-67963128D01*
X62382061Y-67963128D01*
X62388513Y-67964500D01*
X62579487Y-67964500D01*
X62585939Y-67963128D01*
X62585944Y-67963128D01*
X62672888Y-67944647D01*
X62766288Y-67924794D01*
X62772319Y-67922109D01*
X62934722Y-67849803D01*
X62934724Y-67849802D01*
X62940752Y-67847118D01*
X63095253Y-67734866D01*
X63223040Y-67592944D01*
X63318527Y-67427556D01*
X63377542Y-67245928D01*
X63394907Y-67080706D01*
X63421920Y-67015050D01*
X63431122Y-67004782D01*
X66198613Y-64237292D01*
X68972253Y-61463652D01*
X68980539Y-61456112D01*
X68987018Y-61452000D01*
X69033644Y-61402348D01*
X69036398Y-61399507D01*
X69056135Y-61379770D01*
X69058615Y-61376573D01*
X69066320Y-61367551D01*
X69091159Y-61341100D01*
X69096586Y-61335321D01*
X69100405Y-61328375D01*
X69100407Y-61328372D01*
X69106348Y-61317566D01*
X69117199Y-61301047D01*
X69124758Y-61291301D01*
X69129614Y-61285041D01*
X69132759Y-61277772D01*
X69132762Y-61277768D01*
X69147174Y-61244463D01*
X69152391Y-61233813D01*
X69173695Y-61195060D01*
X69178733Y-61175437D01*
X69185137Y-61156734D01*
X69190033Y-61145420D01*
X69190033Y-61145419D01*
X69193181Y-61138145D01*
X69194420Y-61130322D01*
X69194423Y-61130312D01*
X69200099Y-61094476D01*
X69202505Y-61082856D01*
X69211528Y-61047711D01*
X69211528Y-61047710D01*
X69213500Y-61040030D01*
X69213500Y-61019776D01*
X69215051Y-61000065D01*
X69216980Y-60987886D01*
X69218220Y-60980057D01*
X69214059Y-60936038D01*
X69213500Y-60924181D01*
X69213500Y-56639500D01*
X69233502Y-56571379D01*
X69287158Y-56524886D01*
X69339500Y-56513500D01*
X71189994Y-56513500D01*
X71258115Y-56533502D01*
X71304608Y-56587158D01*
X71314712Y-56657432D01*
X71285218Y-56722012D01*
X71225492Y-56760396D01*
X71216190Y-56762747D01*
X71091712Y-56789206D01*
X71085682Y-56791891D01*
X71085681Y-56791891D01*
X70923278Y-56864197D01*
X70923276Y-56864198D01*
X70917248Y-56866882D01*
X70762747Y-56979134D01*
X70634960Y-57121056D01*
X70539473Y-57286444D01*
X70480458Y-57468072D01*
X70479768Y-57474633D01*
X70479768Y-57474635D01*
X70471720Y-57551206D01*
X70460496Y-57658000D01*
X70461186Y-57664565D01*
X70468826Y-57737251D01*
X70480458Y-57847928D01*
X70539473Y-58029556D01*
X70634960Y-58194944D01*
X70708137Y-58276215D01*
X70738853Y-58340221D01*
X70740500Y-58360524D01*
X70740500Y-69661029D01*
X70720498Y-69729150D01*
X70666842Y-69775643D01*
X70596568Y-69785747D01*
X70531988Y-69756253D01*
X70520864Y-69745339D01*
X70514913Y-69738729D01*
X70461253Y-69679134D01*
X70306752Y-69566882D01*
X70300724Y-69564198D01*
X70300722Y-69564197D01*
X70138319Y-69491891D01*
X70138318Y-69491891D01*
X70132288Y-69489206D01*
X70038888Y-69469353D01*
X69951944Y-69450872D01*
X69951939Y-69450872D01*
X69945487Y-69449500D01*
X69754513Y-69449500D01*
X69748061Y-69450872D01*
X69748056Y-69450872D01*
X69661112Y-69469353D01*
X69567712Y-69489206D01*
X69561682Y-69491891D01*
X69561681Y-69491891D01*
X69399278Y-69564197D01*
X69399276Y-69564198D01*
X69393248Y-69566882D01*
X69238747Y-69679134D01*
X69234332Y-69684037D01*
X69229420Y-69688460D01*
X69228295Y-69687211D01*
X69174986Y-69720051D01*
X69141800Y-69724500D01*
X59382200Y-69724500D01*
X59314079Y-69704498D01*
X59294853Y-69688157D01*
X59294580Y-69688460D01*
X59289668Y-69684037D01*
X59285253Y-69679134D01*
X59130752Y-69566882D01*
X59124724Y-69564198D01*
X59124722Y-69564197D01*
X58962319Y-69491891D01*
X58962318Y-69491891D01*
X58956288Y-69489206D01*
X58862888Y-69469353D01*
X58775944Y-69450872D01*
X58775939Y-69450872D01*
X58769487Y-69449500D01*
X58578513Y-69449500D01*
X58572061Y-69450872D01*
X58572056Y-69450872D01*
X58485112Y-69469353D01*
X58391712Y-69489206D01*
X58385682Y-69491891D01*
X58385681Y-69491891D01*
X58223278Y-69564197D01*
X58223276Y-69564198D01*
X58217248Y-69566882D01*
X58062747Y-69679134D01*
X58058326Y-69684044D01*
X58058325Y-69684045D01*
X58014747Y-69732444D01*
X57934960Y-69821056D01*
X57839473Y-69986444D01*
X57780458Y-70168072D01*
X57760496Y-70358000D01*
X57008500Y-70358000D01*
X57008500Y-48620000D01*
X60421634Y-48620000D01*
X60441066Y-48866911D01*
X60442220Y-48871718D01*
X60442221Y-48871724D01*
X60473571Y-49002301D01*
X60498885Y-49107742D01*
X60500778Y-49112313D01*
X60500779Y-49112315D01*
X60583914Y-49313019D01*
X60593666Y-49336563D01*
X60723075Y-49547740D01*
X60883927Y-49736073D01*
X61072260Y-49896925D01*
X61283437Y-50026334D01*
X61288007Y-50028227D01*
X61288011Y-50028229D01*
X61507685Y-50119221D01*
X61512258Y-50121115D01*
X61580135Y-50137411D01*
X61748276Y-50177779D01*
X61748282Y-50177780D01*
X61753089Y-50178934D01*
X62000000Y-50198366D01*
X62246911Y-50178934D01*
X62251718Y-50177780D01*
X62251724Y-50177779D01*
X62419865Y-50137411D01*
X62487742Y-50121115D01*
X62492315Y-50119221D01*
X62711989Y-50028229D01*
X62711993Y-50028227D01*
X62716563Y-50026334D01*
X62927740Y-49896925D01*
X63116073Y-49736073D01*
X63276925Y-49547740D01*
X63406334Y-49336563D01*
X63416087Y-49313019D01*
X63499221Y-49112315D01*
X63499222Y-49112313D01*
X63501115Y-49107742D01*
X63526429Y-49002301D01*
X63557779Y-48871724D01*
X63557780Y-48871718D01*
X63558934Y-48866911D01*
X63578366Y-48620000D01*
X63558934Y-48373089D01*
X63557780Y-48368282D01*
X63557779Y-48368276D01*
X63502270Y-48137070D01*
X63501115Y-48132258D01*
X63499221Y-48127685D01*
X63446332Y-48000000D01*
X70686502Y-48000000D01*
X70706457Y-48228087D01*
X70707881Y-48233400D01*
X70707881Y-48233402D01*
X70746633Y-48378023D01*
X70765716Y-48449243D01*
X70768039Y-48454224D01*
X70768039Y-48454225D01*
X70860151Y-48651762D01*
X70860154Y-48651767D01*
X70862477Y-48656749D01*
X70993802Y-48844300D01*
X71155700Y-49006198D01*
X71160208Y-49009355D01*
X71160211Y-49009357D01*
X71165591Y-49013124D01*
X71343251Y-49137523D01*
X71348233Y-49139846D01*
X71348238Y-49139849D01*
X71545775Y-49231961D01*
X71550757Y-49234284D01*
X71556065Y-49235706D01*
X71556067Y-49235707D01*
X71766598Y-49292119D01*
X71766600Y-49292119D01*
X71771913Y-49293543D01*
X72000000Y-49313498D01*
X72228087Y-49293543D01*
X72233400Y-49292119D01*
X72233402Y-49292119D01*
X72443933Y-49235707D01*
X72443935Y-49235706D01*
X72449243Y-49234284D01*
X72454225Y-49231961D01*
X72651762Y-49139849D01*
X72651767Y-49139846D01*
X72656749Y-49137523D01*
X72834409Y-49013124D01*
X72839789Y-49009357D01*
X72839792Y-49009355D01*
X72844300Y-49006198D01*
X73006198Y-48844300D01*
X73137523Y-48656749D01*
X73139846Y-48651767D01*
X73139849Y-48651762D01*
X73231961Y-48454225D01*
X73231961Y-48454224D01*
X73234284Y-48449243D01*
X73253368Y-48378023D01*
X73292119Y-48233402D01*
X73292119Y-48233400D01*
X73293543Y-48228087D01*
X73313498Y-48000000D01*
X73293543Y-47771913D01*
X73234284Y-47550757D01*
X73227512Y-47536234D01*
X73139849Y-47348238D01*
X73139846Y-47348233D01*
X73137523Y-47343251D01*
X73046786Y-47213666D01*
X73009357Y-47160211D01*
X73009355Y-47160208D01*
X73006198Y-47155700D01*
X72844300Y-46993802D01*
X72839792Y-46990645D01*
X72839789Y-46990643D01*
X72736848Y-46918563D01*
X72656749Y-46862477D01*
X72651767Y-46860154D01*
X72651762Y-46860151D01*
X72454225Y-46768039D01*
X72454224Y-46768039D01*
X72449243Y-46765716D01*
X72443935Y-46764294D01*
X72443933Y-46764293D01*
X72423473Y-46758811D01*
X72366989Y-46726199D01*
X72012812Y-46372022D01*
X71998868Y-46364408D01*
X71997035Y-46364539D01*
X71990420Y-46368790D01*
X71633011Y-46726199D01*
X71576527Y-46758811D01*
X71556067Y-46764293D01*
X71556065Y-46764294D01*
X71550757Y-46765716D01*
X71545776Y-46768039D01*
X71545775Y-46768039D01*
X71348238Y-46860151D01*
X71348233Y-46860154D01*
X71343251Y-46862477D01*
X71263152Y-46918563D01*
X71160211Y-46990643D01*
X71160208Y-46990645D01*
X71155700Y-46993802D01*
X70993802Y-47155700D01*
X70990645Y-47160208D01*
X70990643Y-47160211D01*
X70953214Y-47213666D01*
X70862477Y-47343251D01*
X70860154Y-47348233D01*
X70860151Y-47348238D01*
X70772488Y-47536234D01*
X70765716Y-47550757D01*
X70706457Y-47771913D01*
X70686502Y-48000000D01*
X63446332Y-48000000D01*
X63408229Y-47908011D01*
X63408227Y-47908007D01*
X63406334Y-47903437D01*
X63276925Y-47692260D01*
X63116073Y-47503927D01*
X62927740Y-47343075D01*
X62716563Y-47213666D01*
X62711993Y-47211773D01*
X62711989Y-47211771D01*
X62492315Y-47120779D01*
X62492313Y-47120778D01*
X62487742Y-47118885D01*
X62341821Y-47083852D01*
X62251724Y-47062221D01*
X62251718Y-47062220D01*
X62246911Y-47061066D01*
X62000000Y-47041634D01*
X61753089Y-47061066D01*
X61748282Y-47062220D01*
X61748276Y-47062221D01*
X61658179Y-47083852D01*
X61512258Y-47118885D01*
X61507687Y-47120778D01*
X61507685Y-47120779D01*
X61288011Y-47211771D01*
X61288007Y-47211773D01*
X61283437Y-47213666D01*
X61072260Y-47343075D01*
X60883927Y-47503927D01*
X60723075Y-47692260D01*
X60593666Y-47903437D01*
X60591773Y-47908007D01*
X60591771Y-47908011D01*
X60500779Y-48127685D01*
X60498885Y-48132258D01*
X60497730Y-48137070D01*
X60442221Y-48368276D01*
X60442220Y-48368282D01*
X60441066Y-48373089D01*
X60421634Y-48620000D01*
X57008500Y-48620000D01*
X57008500Y-46005475D01*
X70687483Y-46005475D01*
X70706472Y-46222519D01*
X70708375Y-46233312D01*
X70764764Y-46443761D01*
X70768510Y-46454053D01*
X70860586Y-46651511D01*
X70866069Y-46661006D01*
X70902509Y-46713048D01*
X70912988Y-46721424D01*
X70926434Y-46714356D01*
X71627978Y-46012812D01*
X71634356Y-46001132D01*
X72364408Y-46001132D01*
X72364539Y-46002965D01*
X72368790Y-46009580D01*
X73074287Y-46715077D01*
X73086062Y-46721507D01*
X73098077Y-46712211D01*
X73133931Y-46661006D01*
X73139414Y-46651511D01*
X73231490Y-46454053D01*
X73235236Y-46443761D01*
X73291625Y-46233312D01*
X73293528Y-46222519D01*
X73312517Y-46005475D01*
X73312517Y-45994525D01*
X73293528Y-45777481D01*
X73291625Y-45766688D01*
X73235236Y-45556239D01*
X73231490Y-45545947D01*
X73139414Y-45348489D01*
X73133931Y-45338994D01*
X73097491Y-45286952D01*
X73087012Y-45278576D01*
X73073566Y-45285644D01*
X72372022Y-45987188D01*
X72364408Y-46001132D01*
X71634356Y-46001132D01*
X71635592Y-45998868D01*
X71635461Y-45997035D01*
X71631210Y-45990420D01*
X70925713Y-45284923D01*
X70913938Y-45278493D01*
X70901923Y-45287789D01*
X70866069Y-45338994D01*
X70860586Y-45348489D01*
X70768510Y-45545947D01*
X70764764Y-45556239D01*
X70708375Y-45766688D01*
X70706472Y-45777481D01*
X70687483Y-45994525D01*
X70687483Y-46005475D01*
X57008500Y-46005475D01*
X57008500Y-44912988D01*
X71278576Y-44912988D01*
X71285644Y-44926434D01*
X71987188Y-45627978D01*
X72001132Y-45635592D01*
X72002965Y-45635461D01*
X72009580Y-45631210D01*
X72715077Y-44925713D01*
X72721507Y-44913938D01*
X72712211Y-44901923D01*
X72661006Y-44866069D01*
X72651511Y-44860586D01*
X72454053Y-44768510D01*
X72443761Y-44764764D01*
X72233312Y-44708375D01*
X72222519Y-44706472D01*
X72005475Y-44687483D01*
X71994525Y-44687483D01*
X71777481Y-44706472D01*
X71766688Y-44708375D01*
X71556239Y-44764764D01*
X71545947Y-44768510D01*
X71348489Y-44860586D01*
X71338994Y-44866069D01*
X71286952Y-44902509D01*
X71278576Y-44912988D01*
X57008500Y-44912988D01*
X57008500Y-40320000D01*
X60421634Y-40320000D01*
X60441066Y-40566911D01*
X60442220Y-40571718D01*
X60442221Y-40571724D01*
X60455682Y-40627792D01*
X60498885Y-40807742D01*
X60500778Y-40812313D01*
X60500779Y-40812315D01*
X60587220Y-41021000D01*
X60593666Y-41036563D01*
X60723075Y-41247740D01*
X60883927Y-41436073D01*
X61072260Y-41596925D01*
X61283437Y-41726334D01*
X61288007Y-41728227D01*
X61288011Y-41728229D01*
X61507685Y-41819221D01*
X61512258Y-41821115D01*
X61597170Y-41841501D01*
X61748276Y-41877779D01*
X61748282Y-41877780D01*
X61753089Y-41878934D01*
X62000000Y-41898366D01*
X62246911Y-41878934D01*
X62251718Y-41877780D01*
X62251724Y-41877779D01*
X62402830Y-41841501D01*
X62487742Y-41821115D01*
X62492315Y-41819221D01*
X62711989Y-41728229D01*
X62711993Y-41728227D01*
X62716563Y-41726334D01*
X62927740Y-41596925D01*
X63116073Y-41436073D01*
X63276925Y-41247740D01*
X63280629Y-41241695D01*
X69496851Y-41241695D01*
X69497148Y-41246848D01*
X69497148Y-41246851D01*
X69509412Y-41459547D01*
X69509710Y-41464715D01*
X69510847Y-41469761D01*
X69510848Y-41469767D01*
X69525206Y-41533475D01*
X69558822Y-41682639D01*
X69575515Y-41723748D01*
X69638529Y-41878934D01*
X69642866Y-41889616D01*
X69694542Y-41973944D01*
X69756891Y-42075688D01*
X69759587Y-42080088D01*
X69905850Y-42248938D01*
X70077726Y-42391632D01*
X70270600Y-42504338D01*
X70479292Y-42584030D01*
X70484360Y-42585061D01*
X70484363Y-42585062D01*
X70591617Y-42606883D01*
X70698197Y-42628567D01*
X70703372Y-42628757D01*
X70703374Y-42628757D01*
X70916273Y-42636564D01*
X70916277Y-42636564D01*
X70921437Y-42636753D01*
X70926557Y-42636097D01*
X70926559Y-42636097D01*
X71137888Y-42609025D01*
X71137889Y-42609025D01*
X71143016Y-42608368D01*
X71147966Y-42606883D01*
X71352029Y-42545661D01*
X71352034Y-42545659D01*
X71356984Y-42544174D01*
X71557594Y-42445896D01*
X71739460Y-42316173D01*
X71897696Y-42158489D01*
X71957194Y-42075689D01*
X72028053Y-41977077D01*
X72029376Y-41978028D01*
X72076245Y-41934857D01*
X72146180Y-41922625D01*
X72211626Y-41950144D01*
X72239475Y-41981994D01*
X72299587Y-42080088D01*
X72445850Y-42248938D01*
X72617726Y-42391632D01*
X72810600Y-42504338D01*
X73019292Y-42584030D01*
X73024360Y-42585061D01*
X73024363Y-42585062D01*
X73131617Y-42606883D01*
X73238197Y-42628567D01*
X73243372Y-42628757D01*
X73243374Y-42628757D01*
X73456273Y-42636564D01*
X73456277Y-42636564D01*
X73461437Y-42636753D01*
X73466557Y-42636097D01*
X73466559Y-42636097D01*
X73677888Y-42609025D01*
X73677889Y-42609025D01*
X73683016Y-42608368D01*
X73687966Y-42606883D01*
X73892029Y-42545661D01*
X73892034Y-42545659D01*
X73896984Y-42544174D01*
X74097594Y-42445896D01*
X74279460Y-42316173D01*
X74437696Y-42158489D01*
X74497194Y-42075689D01*
X74568053Y-41977077D01*
X74569376Y-41978028D01*
X74616245Y-41934857D01*
X74686180Y-41922625D01*
X74751626Y-41950144D01*
X74779475Y-41981994D01*
X74839587Y-42080088D01*
X74985850Y-42248938D01*
X75157726Y-42391632D01*
X75350600Y-42504338D01*
X75559292Y-42584030D01*
X75564360Y-42585061D01*
X75564363Y-42585062D01*
X75671617Y-42606883D01*
X75778197Y-42628567D01*
X75783372Y-42628757D01*
X75783374Y-42628757D01*
X75996273Y-42636564D01*
X75996277Y-42636564D01*
X76001437Y-42636753D01*
X76006557Y-42636097D01*
X76006559Y-42636097D01*
X76217888Y-42609025D01*
X76217889Y-42609025D01*
X76223016Y-42608368D01*
X76227966Y-42606883D01*
X76432029Y-42545661D01*
X76432034Y-42545659D01*
X76436984Y-42544174D01*
X76637594Y-42445896D01*
X76819460Y-42316173D01*
X76977696Y-42158489D01*
X77037194Y-42075689D01*
X77108053Y-41977077D01*
X77109376Y-41978028D01*
X77156245Y-41934857D01*
X77226180Y-41922625D01*
X77291626Y-41950144D01*
X77319475Y-41981994D01*
X77379587Y-42080088D01*
X77525850Y-42248938D01*
X77697726Y-42391632D01*
X77890600Y-42504338D01*
X78099292Y-42584030D01*
X78104360Y-42585061D01*
X78104363Y-42585062D01*
X78211617Y-42606883D01*
X78318197Y-42628567D01*
X78323372Y-42628757D01*
X78323374Y-42628757D01*
X78536273Y-42636564D01*
X78536277Y-42636564D01*
X78541437Y-42636753D01*
X78546557Y-42636097D01*
X78546559Y-42636097D01*
X78757888Y-42609025D01*
X78757889Y-42609025D01*
X78763016Y-42608368D01*
X78767966Y-42606883D01*
X78972029Y-42545661D01*
X78972034Y-42545659D01*
X78976984Y-42544174D01*
X79177594Y-42445896D01*
X79359460Y-42316173D01*
X79426931Y-42248938D01*
X79468079Y-42207933D01*
X79530451Y-42174017D01*
X79601258Y-42179205D01*
X79658019Y-42221851D01*
X79675001Y-42252954D01*
X79716276Y-42363054D01*
X79724814Y-42378649D01*
X79801315Y-42480724D01*
X79813876Y-42493285D01*
X79915951Y-42569786D01*
X79931546Y-42578324D01*
X80051994Y-42623478D01*
X80067249Y-42627105D01*
X80118114Y-42632631D01*
X80124928Y-42633000D01*
X80747485Y-42633000D01*
X80762724Y-42628525D01*
X80763929Y-42627135D01*
X80765600Y-42619452D01*
X80765600Y-42614884D01*
X81273600Y-42614884D01*
X81278075Y-42630123D01*
X81279465Y-42631328D01*
X81287148Y-42632999D01*
X81914269Y-42632999D01*
X81921090Y-42632629D01*
X81971952Y-42627105D01*
X81987204Y-42623479D01*
X82107654Y-42578324D01*
X82123249Y-42569786D01*
X82225324Y-42493285D01*
X82237885Y-42480724D01*
X82314386Y-42378649D01*
X82322924Y-42363054D01*
X82368078Y-42242606D01*
X82371705Y-42227351D01*
X82377231Y-42176486D01*
X82377600Y-42169672D01*
X82377600Y-41547115D01*
X82373125Y-41531876D01*
X82371735Y-41530671D01*
X82364052Y-41529000D01*
X81291715Y-41529000D01*
X81276476Y-41533475D01*
X81275271Y-41534865D01*
X81273600Y-41542548D01*
X81273600Y-42614884D01*
X80765600Y-42614884D01*
X80765600Y-41002885D01*
X81273600Y-41002885D01*
X81278075Y-41018124D01*
X81279465Y-41019329D01*
X81287148Y-41021000D01*
X82359484Y-41021000D01*
X82374723Y-41016525D01*
X82375928Y-41015135D01*
X82377599Y-41007452D01*
X82377599Y-40380331D01*
X82377229Y-40373510D01*
X82371705Y-40322648D01*
X82368079Y-40307396D01*
X82322924Y-40186946D01*
X82314386Y-40171351D01*
X82237885Y-40069276D01*
X82225324Y-40056715D01*
X82123249Y-39980214D01*
X82107654Y-39971676D01*
X81996897Y-39930155D01*
X81940133Y-39887513D01*
X81915433Y-39820952D01*
X81930640Y-39751603D01*
X81952187Y-39722922D01*
X82053657Y-39621805D01*
X82060330Y-39613965D01*
X82184603Y-39441020D01*
X82189913Y-39432183D01*
X82284270Y-39241267D01*
X82288069Y-39231672D01*
X82349977Y-39027910D01*
X82352155Y-39017837D01*
X82353586Y-39006962D01*
X82351375Y-38992778D01*
X82338217Y-38989000D01*
X81291715Y-38989000D01*
X81276476Y-38993475D01*
X81275271Y-38994865D01*
X81273600Y-39002548D01*
X81273600Y-41002885D01*
X80765600Y-41002885D01*
X80765600Y-38462885D01*
X81273600Y-38462885D01*
X81278075Y-38478124D01*
X81279465Y-38479329D01*
X81287148Y-38481000D01*
X82337944Y-38481000D01*
X82351475Y-38477027D01*
X82352780Y-38467947D01*
X82310814Y-38300875D01*
X82307494Y-38291124D01*
X82222572Y-38095814D01*
X82217705Y-38086739D01*
X82102026Y-37907926D01*
X82095736Y-37899757D01*
X81952406Y-37742240D01*
X81944873Y-37735215D01*
X81777739Y-37603222D01*
X81769152Y-37597517D01*
X81582717Y-37494599D01*
X81573305Y-37490369D01*
X81372559Y-37419280D01*
X81362588Y-37416646D01*
X81291437Y-37403972D01*
X81278140Y-37405432D01*
X81273600Y-37419989D01*
X81273600Y-38462885D01*
X80765600Y-38462885D01*
X80765600Y-37418102D01*
X80761682Y-37404758D01*
X80747406Y-37402771D01*
X80708924Y-37408660D01*
X80698888Y-37411051D01*
X80496468Y-37477212D01*
X80486959Y-37481209D01*
X80298063Y-37579542D01*
X80289338Y-37585036D01*
X80119033Y-37712905D01*
X80111326Y-37719748D01*
X79964190Y-37873717D01*
X79957709Y-37881722D01*
X79853098Y-38035074D01*
X79798187Y-38080076D01*
X79727662Y-38088247D01*
X79663915Y-38056993D01*
X79643218Y-38032509D01*
X79562422Y-37907617D01*
X79562420Y-37907614D01*
X79559614Y-37903277D01*
X79409270Y-37738051D01*
X79405219Y-37734852D01*
X79405215Y-37734848D01*
X79238014Y-37602800D01*
X79238010Y-37602798D01*
X79233959Y-37599598D01*
X79197628Y-37579542D01*
X79181736Y-37570769D01*
X79038389Y-37491638D01*
X79033520Y-37489914D01*
X79033516Y-37489912D01*
X78832687Y-37418795D01*
X78832683Y-37418794D01*
X78827812Y-37417069D01*
X78822719Y-37416162D01*
X78822716Y-37416161D01*
X78612973Y-37378800D01*
X78612967Y-37378799D01*
X78607884Y-37377894D01*
X78534052Y-37376992D01*
X78389681Y-37375228D01*
X78389679Y-37375228D01*
X78384511Y-37375165D01*
X78163691Y-37408955D01*
X77951356Y-37478357D01*
X77753207Y-37581507D01*
X77749074Y-37584610D01*
X77749071Y-37584612D01*
X77724847Y-37602800D01*
X77574565Y-37715635D01*
X77420229Y-37877138D01*
X77312801Y-38034621D01*
X77257893Y-38079621D01*
X77187368Y-38087792D01*
X77123621Y-38056538D01*
X77102924Y-38032054D01*
X77022422Y-37907617D01*
X77022420Y-37907614D01*
X77019614Y-37903277D01*
X76869270Y-37738051D01*
X76865219Y-37734852D01*
X76865215Y-37734848D01*
X76698014Y-37602800D01*
X76698010Y-37602798D01*
X76693959Y-37599598D01*
X76657628Y-37579542D01*
X76641736Y-37570769D01*
X76498389Y-37491638D01*
X76493520Y-37489914D01*
X76493516Y-37489912D01*
X76292687Y-37418795D01*
X76292683Y-37418794D01*
X76287812Y-37417069D01*
X76282719Y-37416162D01*
X76282716Y-37416161D01*
X76072973Y-37378800D01*
X76072967Y-37378799D01*
X76067884Y-37377894D01*
X75994052Y-37376992D01*
X75849681Y-37375228D01*
X75849679Y-37375228D01*
X75844511Y-37375165D01*
X75623691Y-37408955D01*
X75411356Y-37478357D01*
X75213207Y-37581507D01*
X75209074Y-37584610D01*
X75209071Y-37584612D01*
X75184847Y-37602800D01*
X75034565Y-37715635D01*
X74880229Y-37877138D01*
X74772801Y-38034621D01*
X74717893Y-38079621D01*
X74647368Y-38087792D01*
X74583621Y-38056538D01*
X74562924Y-38032054D01*
X74482422Y-37907617D01*
X74482420Y-37907614D01*
X74479614Y-37903277D01*
X74329270Y-37738051D01*
X74325219Y-37734852D01*
X74325215Y-37734848D01*
X74158014Y-37602800D01*
X74158010Y-37602798D01*
X74153959Y-37599598D01*
X74117628Y-37579542D01*
X74101736Y-37570769D01*
X73958389Y-37491638D01*
X73953520Y-37489914D01*
X73953516Y-37489912D01*
X73752687Y-37418795D01*
X73752683Y-37418794D01*
X73747812Y-37417069D01*
X73742719Y-37416162D01*
X73742716Y-37416161D01*
X73532973Y-37378800D01*
X73532967Y-37378799D01*
X73527884Y-37377894D01*
X73454052Y-37376992D01*
X73309681Y-37375228D01*
X73309679Y-37375228D01*
X73304511Y-37375165D01*
X73083691Y-37408955D01*
X72871356Y-37478357D01*
X72673207Y-37581507D01*
X72669074Y-37584610D01*
X72669071Y-37584612D01*
X72644847Y-37602800D01*
X72494565Y-37715635D01*
X72340229Y-37877138D01*
X72232801Y-38034621D01*
X72177893Y-38079621D01*
X72107368Y-38087792D01*
X72043621Y-38056538D01*
X72022924Y-38032054D01*
X71942422Y-37907617D01*
X71942420Y-37907614D01*
X71939614Y-37903277D01*
X71789270Y-37738051D01*
X71785219Y-37734852D01*
X71785215Y-37734848D01*
X71618014Y-37602800D01*
X71618010Y-37602798D01*
X71613959Y-37599598D01*
X71577628Y-37579542D01*
X71561736Y-37570769D01*
X71418389Y-37491638D01*
X71413520Y-37489914D01*
X71413516Y-37489912D01*
X71212687Y-37418795D01*
X71212683Y-37418794D01*
X71207812Y-37417069D01*
X71202719Y-37416162D01*
X71202716Y-37416161D01*
X70992973Y-37378800D01*
X70992967Y-37378799D01*
X70987884Y-37377894D01*
X70914052Y-37376992D01*
X70769681Y-37375228D01*
X70769679Y-37375228D01*
X70764511Y-37375165D01*
X70543691Y-37408955D01*
X70331356Y-37478357D01*
X70133207Y-37581507D01*
X70129074Y-37584610D01*
X70129071Y-37584612D01*
X70104847Y-37602800D01*
X69954565Y-37715635D01*
X69800229Y-37877138D01*
X69674343Y-38061680D01*
X69580288Y-38264305D01*
X69520589Y-38479570D01*
X69496851Y-38701695D01*
X69497148Y-38706848D01*
X69497148Y-38706851D01*
X69508964Y-38911771D01*
X69509710Y-38924715D01*
X69510847Y-38929761D01*
X69510848Y-38929767D01*
X69524197Y-38989000D01*
X69558822Y-39142639D01*
X69642866Y-39349616D01*
X69693463Y-39432183D01*
X69756891Y-39535688D01*
X69759587Y-39540088D01*
X69905850Y-39708938D01*
X70077726Y-39851632D01*
X70139129Y-39887513D01*
X70151045Y-39894476D01*
X70199769Y-39946114D01*
X70212840Y-40015897D01*
X70186109Y-40081669D01*
X70145655Y-40115027D01*
X70133207Y-40121507D01*
X70129074Y-40124610D01*
X70129071Y-40124612D01*
X70046050Y-40186946D01*
X69954565Y-40255635D01*
X69800229Y-40417138D01*
X69674343Y-40601680D01*
X69580288Y-40804305D01*
X69520589Y-41019570D01*
X69496851Y-41241695D01*
X63280629Y-41241695D01*
X63406334Y-41036563D01*
X63412781Y-41021000D01*
X63499221Y-40812315D01*
X63499222Y-40812313D01*
X63501115Y-40807742D01*
X63544318Y-40627792D01*
X63557779Y-40571724D01*
X63557780Y-40571718D01*
X63558934Y-40566911D01*
X63578366Y-40320000D01*
X63558934Y-40073089D01*
X63557780Y-40068282D01*
X63557779Y-40068276D01*
X63504973Y-39848327D01*
X63501115Y-39832258D01*
X63477505Y-39775258D01*
X63408229Y-39608011D01*
X63408227Y-39608007D01*
X63406334Y-39603437D01*
X63276925Y-39392260D01*
X63116073Y-39203927D01*
X62927740Y-39043075D01*
X62716563Y-38913666D01*
X62711993Y-38911773D01*
X62711989Y-38911771D01*
X62649552Y-38885909D01*
X62594271Y-38841360D01*
X62571850Y-38773997D01*
X62589408Y-38705206D01*
X62641370Y-38656828D01*
X62697770Y-38643500D01*
X63013134Y-38643500D01*
X63075316Y-38636745D01*
X63211705Y-38585615D01*
X63328261Y-38498261D01*
X63415615Y-38381705D01*
X63466745Y-38245316D01*
X63473500Y-38183134D01*
X63473500Y-36256866D01*
X63466745Y-36194684D01*
X63415615Y-36058295D01*
X63328261Y-35941739D01*
X63211705Y-35854385D01*
X63075316Y-35803255D01*
X63013134Y-35796500D01*
X60986866Y-35796500D01*
X60924684Y-35803255D01*
X60788295Y-35854385D01*
X60671739Y-35941739D01*
X60584385Y-36058295D01*
X60533255Y-36194684D01*
X60526500Y-36256866D01*
X60526500Y-38183134D01*
X60533255Y-38245316D01*
X60584385Y-38381705D01*
X60671739Y-38498261D01*
X60788295Y-38585615D01*
X60924684Y-38636745D01*
X60986866Y-38643500D01*
X61302230Y-38643500D01*
X61370351Y-38663502D01*
X61416844Y-38717158D01*
X61426948Y-38787432D01*
X61397454Y-38852012D01*
X61350448Y-38885909D01*
X61288011Y-38911771D01*
X61288007Y-38911773D01*
X61283437Y-38913666D01*
X61072260Y-39043075D01*
X60883927Y-39203927D01*
X60723075Y-39392260D01*
X60593666Y-39603437D01*
X60591773Y-39608007D01*
X60591771Y-39608011D01*
X60522495Y-39775258D01*
X60498885Y-39832258D01*
X60495027Y-39848327D01*
X60442221Y-40068276D01*
X60442220Y-40068282D01*
X60441066Y-40073089D01*
X60421634Y-40320000D01*
X57008500Y-40320000D01*
X57008500Y-35634500D01*
X57028502Y-35566379D01*
X57082158Y-35519886D01*
X57134500Y-35508500D01*
X84365500Y-35508500D01*
X84433621Y-35528502D01*
G37*
%TD.AperFunction*%
%TD*%
M02*
