%TF.GenerationSoftware,KiCad,Pcbnew,(6.0.0)*%
%TF.CreationDate,2022-02-15T15:19:29-08:00*%
%TF.ProjectId,LEDShieldPractice,4c454453-6869-4656-9c64-507261637469,rev?*%
%TF.SameCoordinates,Original*%
%TF.FileFunction,Copper,L1,Top*%
%TF.FilePolarity,Positive*%
%FSLAX46Y46*%
G04 Gerber Fmt 4.6, Leading zero omitted, Abs format (unit mm)*
G04 Created by KiCad (PCBNEW (6.0.0)) date 2022-02-15 15:19:29*
%MOMM*%
%LPD*%
G01*
G04 APERTURE LIST*
%TA.AperFunction,ComponentPad*%
%ADD10C,1.400000*%
%TD*%
%TA.AperFunction,ComponentPad*%
%ADD11O,1.400000X1.400000*%
%TD*%
%TA.AperFunction,ComponentPad*%
%ADD12O,1.500000X1.050000*%
%TD*%
%TA.AperFunction,ComponentPad*%
%ADD13R,1.500000X1.050000*%
%TD*%
%TA.AperFunction,ComponentPad*%
%ADD14C,2.130000*%
%TD*%
%TA.AperFunction,ComponentPad*%
%ADD15R,1.930000X1.830000*%
%TD*%
%TA.AperFunction,ComponentPad*%
%ADD16R,1.700000X1.700000*%
%TD*%
%TA.AperFunction,ComponentPad*%
%ADD17O,1.700000X1.700000*%
%TD*%
%TA.AperFunction,ComponentPad*%
%ADD18R,1.800000X1.800000*%
%TD*%
%TA.AperFunction,ComponentPad*%
%ADD19C,1.800000*%
%TD*%
%TA.AperFunction,ComponentPad*%
%ADD20O,1.800000X1.800000*%
%TD*%
%TA.AperFunction,ComponentPad*%
%ADD21R,1.600000X1.600000*%
%TD*%
%TA.AperFunction,ComponentPad*%
%ADD22C,1.600000*%
%TD*%
%TA.AperFunction,Conductor*%
%ADD23C,0.250000*%
%TD*%
G04 APERTURE END LIST*
D10*
%TO.P,R4,1*%
%TO.N,+12V*%
X33000000Y-45500000D03*
D11*
%TO.P,R4,2*%
%TO.N,CLOCK*%
X33000000Y-40420000D03*
%TD*%
D10*
%TO.P,R3,1*%
%TO.N,Net-(Q1-Pad2)*%
X42500000Y-48460000D03*
D11*
%TO.P,R3,2*%
%TO.N,Net-(D1-Pad1)*%
X42500000Y-53540000D03*
%TD*%
D10*
%TO.P,R2,1*%
%TO.N,Net-(D2-Pad1)*%
X48460000Y-50000000D03*
D11*
%TO.P,R2,2*%
%TO.N,GND*%
X53540000Y-50000000D03*
%TD*%
D10*
%TO.P,R1,1*%
%TO.N,Net-(DPWR1-Pad1)*%
X37960000Y-35500000D03*
D11*
%TO.P,R1,2*%
%TO.N,GND*%
X43040000Y-35500000D03*
%TD*%
D12*
%TO.P,Q1,2,B*%
%TO.N,Net-(Q1-Pad2)*%
X39500000Y-42730000D03*
%TO.P,Q1,3,C*%
%TO.N,CLOCK*%
X39500000Y-41460000D03*
D13*
%TO.P,Q1,1,E*%
%TO.N,GND*%
X39500000Y-44000000D03*
%TD*%
D14*
%TO.P,J2,TN*%
%TO.N,N/C*%
X34964759Y-52320000D03*
D15*
%TO.P,J2,S*%
%TO.N,GND*%
X34964759Y-49220000D03*
D14*
%TO.P,J2,T*%
%TO.N,Net-(D1-Pad2)*%
X34964759Y-60620000D03*
%TD*%
D16*
%TO.P,J1,1,Pin_1*%
%TO.N,+12V*%
X42575000Y-29775000D03*
D17*
%TO.P,J1,2,Pin_2*%
X42575000Y-27235000D03*
%TO.P,J1,3,Pin_3*%
%TO.N,GND*%
X40035000Y-29775000D03*
%TO.P,J1,4,Pin_4*%
X40035000Y-27235000D03*
%TO.P,J1,5,Pin_5*%
X37495000Y-29775000D03*
%TO.P,J1,6,Pin_6*%
X37495000Y-27235000D03*
%TO.P,J1,7,Pin_7*%
X34955000Y-29775000D03*
%TO.P,J1,8,Pin_8*%
X34955000Y-27235000D03*
%TO.P,J1,9,Pin_9*%
%TO.N,/-12V*%
X32415000Y-29775000D03*
%TO.P,J1,10,Pin_10*%
X32415000Y-27235000D03*
%TD*%
D18*
%TO.P,DPWR1,1,K*%
%TO.N,Net-(DPWR1-Pad1)*%
X34500000Y-35500000D03*
D19*
%TO.P,DPWR1,2,A*%
%TO.N,+12V*%
X31960000Y-35500000D03*
%TD*%
D18*
%TO.P,D2,1,K*%
%TO.N,Net-(D2-Pad1)*%
X51225000Y-54500000D03*
D19*
%TO.P,D2,2,A*%
%TO.N,CLOCK*%
X53765000Y-54500000D03*
%TD*%
D18*
%TO.P,D1,1,K*%
%TO.N,Net-(D1-Pad1)*%
X42500000Y-55690000D03*
D20*
%TO.P,D1,2,A*%
%TO.N,Net-(D1-Pad2)*%
X42500000Y-63310000D03*
%TD*%
D21*
%TO.P,C1,1*%
%TO.N,+12V*%
X49817621Y-29000000D03*
D22*
%TO.P,C1,2*%
%TO.N,GND*%
X52317621Y-29000000D03*
%TD*%
D23*
%TO.N,/-12V*%
X32415000Y-27235000D02*
X32415000Y-29775000D01*
%TO.N,CLOCK*%
X51000000Y-51500000D02*
X50500000Y-52000000D01*
X51000000Y-39500000D02*
X51000000Y-51500000D01*
X33420000Y-39500000D02*
X51000000Y-39500000D01*
X51265000Y-52000000D02*
X53765000Y-54500000D01*
X32500000Y-40420000D02*
X33420000Y-39500000D01*
X50500000Y-52000000D02*
X51265000Y-52000000D01*
X33540000Y-41460000D02*
X32500000Y-40420000D01*
X39500000Y-41460000D02*
X33540000Y-41460000D01*
%TO.N,Net-(Q1-Pad2)*%
X41770000Y-42730000D02*
X39500000Y-42730000D01*
X42000000Y-42500000D02*
X41770000Y-42730000D01*
X42500000Y-43000000D02*
X42000000Y-42500000D01*
X42500000Y-48460000D02*
X42500000Y-43000000D01*
%TO.N,Net-(D2-Pad1)*%
X48960000Y-52235000D02*
X51225000Y-54500000D01*
X48960000Y-50000000D02*
X48960000Y-52235000D01*
%TO.N,Net-(D1-Pad1)*%
X42500000Y-55690000D02*
X42500000Y-53540000D01*
%TO.N,Net-(D1-Pad2)*%
X39810000Y-60620000D02*
X42500000Y-63310000D01*
X34964759Y-60620000D02*
X39810000Y-60620000D01*
%TO.N,Net-(DPWR1-Pad1)*%
X37960000Y-35500000D02*
X34500000Y-35500000D01*
%TD*%
%TA.AperFunction,Conductor*%
%TO.N,+12V*%
G36*
X54434121Y-25528002D02*
G01*
X54480614Y-25581658D01*
X54492000Y-25634000D01*
X54492000Y-48949248D01*
X54471998Y-49017369D01*
X54418342Y-49063862D01*
X54348068Y-49073966D01*
X54293730Y-49052461D01*
X54229302Y-49007349D01*
X54146558Y-48949411D01*
X54141580Y-48947090D01*
X54141577Y-48947088D01*
X53959892Y-48862367D01*
X53959891Y-48862366D01*
X53954910Y-48860044D01*
X53949602Y-48858622D01*
X53949600Y-48858621D01*
X53755970Y-48806738D01*
X53755968Y-48806738D01*
X53750655Y-48805314D01*
X53540000Y-48786884D01*
X53329345Y-48805314D01*
X53324032Y-48806738D01*
X53324030Y-48806738D01*
X53130400Y-48858621D01*
X53130398Y-48858622D01*
X53125090Y-48860044D01*
X53120109Y-48862366D01*
X53120108Y-48862367D01*
X52938423Y-48947088D01*
X52938420Y-48947090D01*
X52933442Y-48949411D01*
X52760224Y-49070699D01*
X52610699Y-49220224D01*
X52489411Y-49393442D01*
X52487090Y-49398420D01*
X52487088Y-49398423D01*
X52434784Y-49510589D01*
X52400044Y-49585090D01*
X52398622Y-49590398D01*
X52398621Y-49590400D01*
X52395679Y-49601379D01*
X52345314Y-49789345D01*
X52326884Y-50000000D01*
X52345314Y-50210655D01*
X52346738Y-50215968D01*
X52346738Y-50215970D01*
X52398621Y-50409598D01*
X52400044Y-50414910D01*
X52402366Y-50419891D01*
X52402367Y-50419892D01*
X52477134Y-50580229D01*
X52489411Y-50606558D01*
X52610699Y-50779776D01*
X52760224Y-50929301D01*
X52933442Y-51050589D01*
X52938420Y-51052910D01*
X52938423Y-51052912D01*
X53120108Y-51137633D01*
X53125090Y-51139956D01*
X53130398Y-51141378D01*
X53130400Y-51141379D01*
X53324030Y-51193262D01*
X53324032Y-51193262D01*
X53329345Y-51194686D01*
X53540000Y-51213116D01*
X53750655Y-51194686D01*
X53755968Y-51193262D01*
X53755970Y-51193262D01*
X53949600Y-51141379D01*
X53949602Y-51141378D01*
X53954910Y-51139956D01*
X53959892Y-51137633D01*
X54141577Y-51052912D01*
X54141580Y-51052910D01*
X54146558Y-51050589D01*
X54229302Y-50992651D01*
X54293730Y-50947539D01*
X54361004Y-50924851D01*
X54429864Y-50942136D01*
X54478448Y-50993906D01*
X54492000Y-51050752D01*
X54492000Y-53084874D01*
X54471998Y-53152995D01*
X54418342Y-53199488D01*
X54348068Y-53209592D01*
X54323943Y-53203648D01*
X54180905Y-53152995D01*
X54130903Y-53135288D01*
X54130899Y-53135287D01*
X54126028Y-53133562D01*
X54120935Y-53132655D01*
X54120932Y-53132654D01*
X53903095Y-53093851D01*
X53903089Y-53093850D01*
X53898006Y-53092945D01*
X53825096Y-53092054D01*
X53671581Y-53090179D01*
X53671579Y-53090179D01*
X53666411Y-53090116D01*
X53551219Y-53107743D01*
X53442573Y-53124368D01*
X53442571Y-53124369D01*
X53437464Y-53125150D01*
X53432549Y-53126757D01*
X53432547Y-53126757D01*
X53396889Y-53138412D01*
X53325925Y-53140565D01*
X53268647Y-53107743D01*
X52534605Y-52373700D01*
X51768652Y-51607747D01*
X51761112Y-51599461D01*
X51757000Y-51592982D01*
X51707348Y-51546356D01*
X51704507Y-51543602D01*
X51684770Y-51523865D01*
X51681638Y-51521436D01*
X51678669Y-51518818D01*
X51679417Y-51517970D01*
X51640711Y-51464383D01*
X51633500Y-51422370D01*
X51633500Y-39571793D01*
X51635732Y-39548184D01*
X51635790Y-39547881D01*
X51635790Y-39547877D01*
X51637275Y-39540094D01*
X51633749Y-39484049D01*
X51633500Y-39476138D01*
X51633500Y-39460144D01*
X51631494Y-39444270D01*
X51630751Y-39436402D01*
X51627723Y-39388263D01*
X51627723Y-39388262D01*
X51627225Y-39380350D01*
X51624679Y-39372513D01*
X51619506Y-39349369D01*
X51619468Y-39349065D01*
X51619467Y-39349060D01*
X51618474Y-39341203D01*
X51615558Y-39333838D01*
X51615557Y-39333834D01*
X51597801Y-39288989D01*
X51595129Y-39281570D01*
X51577764Y-39228125D01*
X51573514Y-39221428D01*
X51573350Y-39221169D01*
X51562585Y-39200042D01*
X51562471Y-39199754D01*
X51562468Y-39199749D01*
X51559552Y-39192383D01*
X51554896Y-39185975D01*
X51554893Y-39185969D01*
X51526542Y-39146948D01*
X51522092Y-39140401D01*
X51492000Y-39092982D01*
X51485993Y-39087341D01*
X51470312Y-39069554D01*
X51470134Y-39069309D01*
X51470132Y-39069307D01*
X51465472Y-39062893D01*
X51438570Y-39040637D01*
X51422204Y-39027097D01*
X51416270Y-39021866D01*
X51381102Y-38988842D01*
X51381099Y-38988840D01*
X51375321Y-38983414D01*
X51368097Y-38979442D01*
X51348494Y-38966119D01*
X51348254Y-38965920D01*
X51348247Y-38965916D01*
X51342144Y-38960867D01*
X51291324Y-38936953D01*
X51284292Y-38933371D01*
X51235060Y-38906305D01*
X51227385Y-38904335D01*
X51227379Y-38904332D01*
X51227081Y-38904256D01*
X51204772Y-38896224D01*
X51204497Y-38896094D01*
X51204489Y-38896091D01*
X51197318Y-38892717D01*
X51142151Y-38882194D01*
X51134442Y-38880471D01*
X51099659Y-38871540D01*
X51087707Y-38868471D01*
X51087706Y-38868471D01*
X51080030Y-38866500D01*
X51071793Y-38866500D01*
X51048184Y-38864268D01*
X51047881Y-38864210D01*
X51047877Y-38864210D01*
X51040094Y-38862725D01*
X50984049Y-38866251D01*
X50976138Y-38866500D01*
X33498763Y-38866500D01*
X33487579Y-38865973D01*
X33480091Y-38864299D01*
X33472168Y-38864548D01*
X33412033Y-38866438D01*
X33408075Y-38866500D01*
X33380144Y-38866500D01*
X33376229Y-38866995D01*
X33376225Y-38866995D01*
X33376167Y-38867003D01*
X33376138Y-38867006D01*
X33364296Y-38867939D01*
X33320110Y-38869327D01*
X33302744Y-38874372D01*
X33300658Y-38874978D01*
X33281306Y-38878986D01*
X33269068Y-38880532D01*
X33269066Y-38880533D01*
X33261203Y-38881526D01*
X33220086Y-38897806D01*
X33208885Y-38901641D01*
X33166406Y-38913982D01*
X33159587Y-38918015D01*
X33159582Y-38918017D01*
X33148971Y-38924293D01*
X33131221Y-38932990D01*
X33112383Y-38940448D01*
X33105967Y-38945109D01*
X33105966Y-38945110D01*
X33076625Y-38966428D01*
X33066701Y-38972947D01*
X33035460Y-38991422D01*
X33035455Y-38991426D01*
X33028637Y-38995458D01*
X33014313Y-39009782D01*
X32999281Y-39022621D01*
X32982893Y-39034528D01*
X32954712Y-39068593D01*
X32946722Y-39077373D01*
X32826109Y-39197986D01*
X32769625Y-39230598D01*
X32739410Y-39238694D01*
X32590400Y-39278621D01*
X32590398Y-39278622D01*
X32585090Y-39280044D01*
X32580109Y-39282366D01*
X32580108Y-39282367D01*
X32398423Y-39367088D01*
X32398420Y-39367090D01*
X32393442Y-39369411D01*
X32220224Y-39490699D01*
X32070699Y-39640224D01*
X31949411Y-39813442D01*
X31860044Y-40005090D01*
X31858622Y-40010398D01*
X31858621Y-40010400D01*
X31820277Y-40153502D01*
X31805314Y-40209345D01*
X31786884Y-40420000D01*
X31805314Y-40630655D01*
X31806737Y-40635967D01*
X31806738Y-40635970D01*
X31857791Y-40826500D01*
X31860044Y-40834910D01*
X31949411Y-41026558D01*
X32070699Y-41199776D01*
X32220224Y-41349301D01*
X32393442Y-41470589D01*
X32398420Y-41472910D01*
X32398423Y-41472912D01*
X32580108Y-41557633D01*
X32585090Y-41559956D01*
X32590398Y-41561378D01*
X32590400Y-41561379D01*
X32769625Y-41609402D01*
X32826109Y-41642014D01*
X33036348Y-41852253D01*
X33043888Y-41860539D01*
X33048000Y-41867018D01*
X33053777Y-41872443D01*
X33097651Y-41913643D01*
X33100493Y-41916398D01*
X33120230Y-41936135D01*
X33123427Y-41938615D01*
X33132447Y-41946318D01*
X33164679Y-41976586D01*
X33171625Y-41980405D01*
X33171628Y-41980407D01*
X33182434Y-41986348D01*
X33198953Y-41997199D01*
X33214959Y-42009614D01*
X33222228Y-42012759D01*
X33222232Y-42012762D01*
X33255537Y-42027174D01*
X33266187Y-42032391D01*
X33304940Y-42053695D01*
X33312615Y-42055666D01*
X33312616Y-42055666D01*
X33324562Y-42058733D01*
X33343266Y-42065137D01*
X33345552Y-42066126D01*
X33361855Y-42073181D01*
X33369678Y-42074420D01*
X33369688Y-42074423D01*
X33405524Y-42080099D01*
X33417144Y-42082505D01*
X33452289Y-42091528D01*
X33459970Y-42093500D01*
X33480224Y-42093500D01*
X33499934Y-42095051D01*
X33519943Y-42098220D01*
X33527835Y-42097474D01*
X33553467Y-42095051D01*
X33563962Y-42094059D01*
X33575819Y-42093500D01*
X38232835Y-42093500D01*
X38300956Y-42113502D01*
X38347449Y-42167158D01*
X38357553Y-42237432D01*
X38343671Y-42279429D01*
X38317644Y-42327565D01*
X38257710Y-42521180D01*
X38257066Y-42527305D01*
X38257066Y-42527306D01*
X38251603Y-42579283D01*
X38236524Y-42722750D01*
X38237083Y-42728890D01*
X38252666Y-42900111D01*
X38254894Y-42924596D01*
X38256632Y-42930502D01*
X38256633Y-42930506D01*
X38292440Y-43052165D01*
X38310788Y-43114507D01*
X38312119Y-43119029D01*
X38311260Y-43119282D01*
X38317714Y-43184662D01*
X38304548Y-43221406D01*
X38299385Y-43228295D01*
X38248255Y-43364684D01*
X38241500Y-43426866D01*
X38241500Y-44573134D01*
X38248255Y-44635316D01*
X38299385Y-44771705D01*
X38386739Y-44888261D01*
X38503295Y-44975615D01*
X38639684Y-45026745D01*
X38701866Y-45033500D01*
X40298134Y-45033500D01*
X40360316Y-45026745D01*
X40496705Y-44975615D01*
X40613261Y-44888261D01*
X40700615Y-44771705D01*
X40751745Y-44635316D01*
X40758500Y-44573134D01*
X40758500Y-43489500D01*
X40778502Y-43421379D01*
X40832158Y-43374886D01*
X40884500Y-43363500D01*
X41691233Y-43363500D01*
X41702416Y-43364027D01*
X41709909Y-43365702D01*
X41717835Y-43365453D01*
X41717836Y-43365453D01*
X41736542Y-43364865D01*
X41805257Y-43382717D01*
X41853413Y-43434886D01*
X41866500Y-43490803D01*
X41866500Y-47362685D01*
X41846498Y-47430806D01*
X41812770Y-47465898D01*
X41720224Y-47530699D01*
X41570699Y-47680224D01*
X41449411Y-47853442D01*
X41447090Y-47858420D01*
X41447088Y-47858423D01*
X41408237Y-47941739D01*
X41360044Y-48045090D01*
X41305314Y-48249345D01*
X41286884Y-48460000D01*
X41305314Y-48670655D01*
X41306738Y-48675968D01*
X41306738Y-48675970D01*
X41356061Y-48860044D01*
X41360044Y-48874910D01*
X41362366Y-48879891D01*
X41362367Y-48879892D01*
X41426474Y-49017369D01*
X41449411Y-49066558D01*
X41570699Y-49239776D01*
X41720224Y-49389301D01*
X41893442Y-49510589D01*
X41898420Y-49512910D01*
X41898423Y-49512912D01*
X42064597Y-49590400D01*
X42085090Y-49599956D01*
X42090398Y-49601378D01*
X42090400Y-49601379D01*
X42284030Y-49653262D01*
X42284032Y-49653262D01*
X42289345Y-49654686D01*
X42500000Y-49673116D01*
X42710655Y-49654686D01*
X42715968Y-49653262D01*
X42715970Y-49653262D01*
X42909600Y-49601379D01*
X42909602Y-49601378D01*
X42914910Y-49599956D01*
X42935403Y-49590400D01*
X43101577Y-49512912D01*
X43101580Y-49512910D01*
X43106558Y-49510589D01*
X43279776Y-49389301D01*
X43429301Y-49239776D01*
X43550589Y-49066558D01*
X43573527Y-49017369D01*
X43637633Y-48879892D01*
X43637634Y-48879891D01*
X43639956Y-48874910D01*
X43643940Y-48860044D01*
X43693262Y-48675970D01*
X43693262Y-48675968D01*
X43694686Y-48670655D01*
X43713116Y-48460000D01*
X43694686Y-48249345D01*
X43639956Y-48045090D01*
X43591763Y-47941739D01*
X43552912Y-47858423D01*
X43552910Y-47858420D01*
X43550589Y-47853442D01*
X43429301Y-47680224D01*
X43279776Y-47530699D01*
X43187230Y-47465898D01*
X43142901Y-47410441D01*
X43133500Y-47362685D01*
X43133500Y-43078768D01*
X43134027Y-43067585D01*
X43135702Y-43060092D01*
X43133562Y-42992001D01*
X43133500Y-42988044D01*
X43133500Y-42960144D01*
X43132996Y-42956153D01*
X43132063Y-42944311D01*
X43131444Y-42924596D01*
X43130674Y-42900111D01*
X43128462Y-42892497D01*
X43128461Y-42892492D01*
X43125023Y-42880659D01*
X43121012Y-42861295D01*
X43119467Y-42849064D01*
X43118474Y-42841203D01*
X43115557Y-42833836D01*
X43115556Y-42833831D01*
X43102198Y-42800092D01*
X43098354Y-42788865D01*
X43088230Y-42754022D01*
X43086018Y-42746407D01*
X43075707Y-42728972D01*
X43067012Y-42711224D01*
X43059552Y-42692383D01*
X43033564Y-42656613D01*
X43027048Y-42646693D01*
X43008580Y-42615465D01*
X43008578Y-42615462D01*
X43004542Y-42608638D01*
X42990221Y-42594317D01*
X42977380Y-42579283D01*
X42970132Y-42569307D01*
X42965472Y-42562893D01*
X42931407Y-42534712D01*
X42922626Y-42526722D01*
X42498717Y-42102812D01*
X42483603Y-42084542D01*
X42483433Y-42084292D01*
X42483430Y-42084288D01*
X42478972Y-42077729D01*
X42460223Y-42061199D01*
X42436845Y-42040589D01*
X42431075Y-42035170D01*
X42419770Y-42023865D01*
X42413823Y-42019252D01*
X42407126Y-42014057D01*
X42401028Y-42009012D01*
X42364856Y-41977122D01*
X42364855Y-41977122D01*
X42358910Y-41971880D01*
X42351845Y-41968280D01*
X42351571Y-41968140D01*
X42331550Y-41955434D01*
X42331310Y-41955248D01*
X42331306Y-41955246D01*
X42325041Y-41950386D01*
X42273489Y-41928077D01*
X42266358Y-41924722D01*
X42216296Y-41899215D01*
X42208251Y-41897417D01*
X42185706Y-41890091D01*
X42178145Y-41886819D01*
X42122675Y-41878033D01*
X42114899Y-41876549D01*
X42081475Y-41869078D01*
X42060091Y-41864298D01*
X42052168Y-41864547D01*
X42052167Y-41864547D01*
X42052106Y-41864549D01*
X42051856Y-41864557D01*
X42028185Y-41863067D01*
X42027889Y-41863020D01*
X42027886Y-41863020D01*
X42020057Y-41861780D01*
X42012165Y-41862526D01*
X42012164Y-41862526D01*
X41964143Y-41867065D01*
X41956246Y-41867562D01*
X41922611Y-41868620D01*
X41900110Y-41869327D01*
X41892201Y-41871625D01*
X41868907Y-41876068D01*
X41868598Y-41876097D01*
X41868597Y-41876097D01*
X41860708Y-41876843D01*
X41807852Y-41895872D01*
X41800342Y-41898312D01*
X41754019Y-41911770D01*
X41754016Y-41911771D01*
X41746407Y-41913982D01*
X41739587Y-41918016D01*
X41739579Y-41918019D01*
X41739312Y-41918177D01*
X41717868Y-41928267D01*
X41717577Y-41928372D01*
X41717569Y-41928376D01*
X41710111Y-41931061D01*
X41663635Y-41962646D01*
X41657004Y-41966855D01*
X41608638Y-41995458D01*
X41603037Y-42001059D01*
X41603034Y-42001061D01*
X41602807Y-42001288D01*
X41584550Y-42016391D01*
X41584291Y-42016567D01*
X41584285Y-42016572D01*
X41577729Y-42021028D01*
X41572485Y-42026976D01*
X41548813Y-42053826D01*
X41488760Y-42091696D01*
X41454300Y-42096500D01*
X40767165Y-42096500D01*
X40699044Y-42076498D01*
X40652551Y-42022842D01*
X40642447Y-41952568D01*
X40656329Y-41910571D01*
X40667469Y-41889968D01*
X40682356Y-41862435D01*
X40742290Y-41668820D01*
X40745108Y-41642014D01*
X40762832Y-41473378D01*
X40762832Y-41473377D01*
X40763476Y-41467250D01*
X40753029Y-41352460D01*
X40745665Y-41271543D01*
X40745664Y-41271540D01*
X40745106Y-41265404D01*
X40687881Y-41070971D01*
X40593981Y-40891355D01*
X40466981Y-40733399D01*
X40311719Y-40603119D01*
X40306327Y-40600155D01*
X40306323Y-40600152D01*
X40139506Y-40508444D01*
X40134109Y-40505477D01*
X39940916Y-40444193D01*
X39934799Y-40443507D01*
X39934795Y-40443506D01*
X39860652Y-40435190D01*
X39783183Y-40426500D01*
X39223996Y-40426500D01*
X39073287Y-40441277D01*
X38879258Y-40499858D01*
X38700302Y-40595010D01*
X38543237Y-40723110D01*
X38539310Y-40727857D01*
X38539308Y-40727859D01*
X38495500Y-40780815D01*
X38436667Y-40820553D01*
X38398415Y-40826500D01*
X34306416Y-40826500D01*
X34238295Y-40806498D01*
X34191802Y-40752842D01*
X34181698Y-40682568D01*
X34184709Y-40667888D01*
X34194686Y-40630655D01*
X34213116Y-40420000D01*
X34200035Y-40270482D01*
X34214024Y-40200877D01*
X34263424Y-40149884D01*
X34325556Y-40133500D01*
X50240500Y-40133500D01*
X50308621Y-40153502D01*
X50355114Y-40207158D01*
X50366500Y-40259500D01*
X50366500Y-51185405D01*
X50346498Y-51253526D01*
X50329596Y-51274500D01*
X50211835Y-51392260D01*
X50094310Y-51509785D01*
X50079276Y-51522625D01*
X50062893Y-51534528D01*
X50034712Y-51568593D01*
X50026722Y-51577373D01*
X50023865Y-51580230D01*
X50006741Y-51602306D01*
X50004275Y-51605384D01*
X49960867Y-51657856D01*
X49957599Y-51664800D01*
X49957257Y-51665287D01*
X49955372Y-51668362D01*
X49955091Y-51668893D01*
X49950386Y-51674959D01*
X49947236Y-51682239D01*
X49923343Y-51737452D01*
X49921714Y-51741060D01*
X49892717Y-51802682D01*
X49891279Y-51810220D01*
X49891072Y-51810768D01*
X49890002Y-51814245D01*
X49889864Y-51814819D01*
X49886819Y-51821855D01*
X49885580Y-51829676D01*
X49885580Y-51829677D01*
X49876164Y-51889126D01*
X49875483Y-51893025D01*
X49862725Y-51959906D01*
X49860189Y-51959422D01*
X49840259Y-52014291D01*
X49783791Y-52057324D01*
X49713022Y-52062997D01*
X49649651Y-52028746D01*
X49630405Y-52009500D01*
X49596379Y-51947188D01*
X49593500Y-51920405D01*
X49593500Y-50453464D01*
X49600282Y-50414997D01*
X49599956Y-50414910D01*
X49600955Y-50411181D01*
X49654686Y-50210655D01*
X49673116Y-50000000D01*
X49654686Y-49789345D01*
X49604321Y-49601379D01*
X49601379Y-49590400D01*
X49601378Y-49590398D01*
X49599956Y-49585090D01*
X49565216Y-49510589D01*
X49512912Y-49398423D01*
X49512910Y-49398420D01*
X49510589Y-49393442D01*
X49389301Y-49220224D01*
X49239776Y-49070699D01*
X49066558Y-48949411D01*
X49061580Y-48947090D01*
X49061577Y-48947088D01*
X48879892Y-48862367D01*
X48879891Y-48862366D01*
X48874910Y-48860044D01*
X48869602Y-48858622D01*
X48869600Y-48858621D01*
X48675970Y-48806738D01*
X48675968Y-48806738D01*
X48670655Y-48805314D01*
X48460000Y-48786884D01*
X48249345Y-48805314D01*
X48244032Y-48806738D01*
X48244030Y-48806738D01*
X48050400Y-48858621D01*
X48050398Y-48858622D01*
X48045090Y-48860044D01*
X48040109Y-48862366D01*
X48040108Y-48862367D01*
X47858423Y-48947088D01*
X47858420Y-48947090D01*
X47853442Y-48949411D01*
X47680224Y-49070699D01*
X47530699Y-49220224D01*
X47409411Y-49393442D01*
X47407090Y-49398420D01*
X47407088Y-49398423D01*
X47354784Y-49510589D01*
X47320044Y-49585090D01*
X47318622Y-49590398D01*
X47318621Y-49590400D01*
X47315679Y-49601379D01*
X47265314Y-49789345D01*
X47246884Y-50000000D01*
X47265314Y-50210655D01*
X47266738Y-50215968D01*
X47266738Y-50215970D01*
X47318621Y-50409598D01*
X47320044Y-50414910D01*
X47322366Y-50419891D01*
X47322367Y-50419892D01*
X47397134Y-50580229D01*
X47409411Y-50606558D01*
X47530699Y-50779776D01*
X47680224Y-50929301D01*
X47853442Y-51050589D01*
X47858420Y-51052910D01*
X47858423Y-51052912D01*
X48040108Y-51137633D01*
X48045090Y-51139956D01*
X48050398Y-51141378D01*
X48050400Y-51141379D01*
X48233111Y-51190336D01*
X48293734Y-51227288D01*
X48324755Y-51291148D01*
X48326500Y-51312043D01*
X48326500Y-52156233D01*
X48325973Y-52167416D01*
X48324298Y-52174909D01*
X48324547Y-52182835D01*
X48324547Y-52182836D01*
X48326438Y-52242986D01*
X48326500Y-52246945D01*
X48326500Y-52274856D01*
X48326997Y-52278790D01*
X48326997Y-52278791D01*
X48327005Y-52278856D01*
X48327938Y-52290693D01*
X48329327Y-52334889D01*
X48334441Y-52352492D01*
X48334978Y-52354339D01*
X48338987Y-52373700D01*
X48341526Y-52393797D01*
X48344445Y-52401168D01*
X48344445Y-52401170D01*
X48357804Y-52434912D01*
X48361649Y-52446142D01*
X48373982Y-52488593D01*
X48378015Y-52495412D01*
X48378017Y-52495417D01*
X48384293Y-52506028D01*
X48392988Y-52523776D01*
X48400448Y-52542617D01*
X48405110Y-52549033D01*
X48405110Y-52549034D01*
X48426436Y-52578387D01*
X48432952Y-52588307D01*
X48446195Y-52610699D01*
X48455458Y-52626362D01*
X48469779Y-52640683D01*
X48482619Y-52655716D01*
X48494528Y-52672107D01*
X48500634Y-52677158D01*
X48528605Y-52700298D01*
X48537384Y-52708288D01*
X49779595Y-53950499D01*
X49813621Y-54012811D01*
X49816500Y-54039594D01*
X49816500Y-55448134D01*
X49823255Y-55510316D01*
X49874385Y-55646705D01*
X49961739Y-55763261D01*
X50078295Y-55850615D01*
X50214684Y-55901745D01*
X50276866Y-55908500D01*
X52173134Y-55908500D01*
X52235316Y-55901745D01*
X52371705Y-55850615D01*
X52488261Y-55763261D01*
X52575615Y-55646705D01*
X52600180Y-55581178D01*
X52642822Y-55524414D01*
X52709383Y-55499714D01*
X52778732Y-55514921D01*
X52798647Y-55528464D01*
X52930942Y-55638297D01*
X52954349Y-55657730D01*
X53154322Y-55774584D01*
X53370694Y-55857209D01*
X53375760Y-55858240D01*
X53375761Y-55858240D01*
X53428846Y-55869040D01*
X53597656Y-55903385D01*
X53727089Y-55908131D01*
X53823949Y-55911683D01*
X53823953Y-55911683D01*
X53829113Y-55911872D01*
X53834233Y-55911216D01*
X53834235Y-55911216D01*
X53908166Y-55901745D01*
X54058847Y-55882442D01*
X54063795Y-55880957D01*
X54063802Y-55880956D01*
X54275747Y-55817369D01*
X54280690Y-55815886D01*
X54310568Y-55801249D01*
X54380542Y-55789243D01*
X54445899Y-55816973D01*
X54485889Y-55875636D01*
X54492000Y-55914401D01*
X54492000Y-64366000D01*
X54471998Y-64434121D01*
X54418342Y-64480614D01*
X54366000Y-64492000D01*
X43614322Y-64492000D01*
X43546201Y-64471998D01*
X43499708Y-64418342D01*
X43489604Y-64348068D01*
X43519098Y-64283488D01*
X43525382Y-64276750D01*
X43572636Y-64229660D01*
X43572640Y-64229655D01*
X43576303Y-64226005D01*
X43711458Y-64037917D01*
X43758641Y-63942450D01*
X43811784Y-63834922D01*
X43811785Y-63834920D01*
X43814078Y-63830280D01*
X43881408Y-63608671D01*
X43911640Y-63379041D01*
X43913327Y-63310000D01*
X43907032Y-63233434D01*
X43894773Y-63084318D01*
X43894772Y-63084312D01*
X43894349Y-63079167D01*
X43866137Y-62966850D01*
X43839184Y-62859544D01*
X43839183Y-62859540D01*
X43837925Y-62854533D01*
X43745570Y-62642131D01*
X43619764Y-62447665D01*
X43463887Y-62276358D01*
X43459836Y-62273159D01*
X43459832Y-62273155D01*
X43286177Y-62136011D01*
X43286172Y-62136008D01*
X43282123Y-62132810D01*
X43277607Y-62130317D01*
X43277604Y-62130315D01*
X43083879Y-62023373D01*
X43083875Y-62023371D01*
X43079355Y-62020876D01*
X43074486Y-62019152D01*
X43074482Y-62019150D01*
X42865903Y-61945288D01*
X42865899Y-61945287D01*
X42861028Y-61943562D01*
X42855935Y-61942655D01*
X42855932Y-61942654D01*
X42638095Y-61903851D01*
X42638089Y-61903850D01*
X42633006Y-61902945D01*
X42560096Y-61902054D01*
X42406581Y-61900179D01*
X42406579Y-61900179D01*
X42401411Y-61900116D01*
X42172464Y-61935150D01*
X42131885Y-61948413D01*
X42060922Y-61950563D01*
X42003647Y-61917742D01*
X40313652Y-60227747D01*
X40306112Y-60219461D01*
X40302000Y-60212982D01*
X40252348Y-60166356D01*
X40249507Y-60163602D01*
X40229770Y-60143865D01*
X40226573Y-60141385D01*
X40217551Y-60133680D01*
X40191100Y-60108841D01*
X40185321Y-60103414D01*
X40178375Y-60099595D01*
X40178372Y-60099593D01*
X40167566Y-60093652D01*
X40151047Y-60082801D01*
X40150583Y-60082441D01*
X40135041Y-60070386D01*
X40127772Y-60067241D01*
X40127768Y-60067238D01*
X40094463Y-60052826D01*
X40083813Y-60047609D01*
X40045060Y-60026305D01*
X40025437Y-60021267D01*
X40006734Y-60014863D01*
X39995420Y-60009967D01*
X39995419Y-60009967D01*
X39988145Y-60006819D01*
X39980322Y-60005580D01*
X39980312Y-60005577D01*
X39944476Y-59999901D01*
X39932856Y-59997495D01*
X39897711Y-59988472D01*
X39897710Y-59988472D01*
X39890030Y-59986500D01*
X39869776Y-59986500D01*
X39850065Y-59984949D01*
X39837886Y-59983020D01*
X39830057Y-59981780D01*
X39822165Y-59982526D01*
X39786039Y-59985941D01*
X39774181Y-59986500D01*
X36489689Y-59986500D01*
X36421568Y-59966498D01*
X36376036Y-59912011D01*
X36375234Y-59912420D01*
X36373447Y-59908912D01*
X36373277Y-59908709D01*
X36372990Y-59908015D01*
X36372986Y-59908007D01*
X36371093Y-59903437D01*
X36241684Y-59692260D01*
X36080832Y-59503927D01*
X35892499Y-59343075D01*
X35681322Y-59213666D01*
X35676752Y-59211773D01*
X35676748Y-59211771D01*
X35457074Y-59120779D01*
X35457072Y-59120778D01*
X35452501Y-59118885D01*
X35367589Y-59098499D01*
X35216483Y-59062221D01*
X35216477Y-59062220D01*
X35211670Y-59061066D01*
X34964759Y-59041634D01*
X34717848Y-59061066D01*
X34713041Y-59062220D01*
X34713035Y-59062221D01*
X34561929Y-59098499D01*
X34477017Y-59118885D01*
X34472446Y-59120778D01*
X34472444Y-59120779D01*
X34252770Y-59211771D01*
X34252766Y-59211773D01*
X34248196Y-59213666D01*
X34037019Y-59343075D01*
X33848686Y-59503927D01*
X33687834Y-59692260D01*
X33558425Y-59903437D01*
X33556532Y-59908007D01*
X33556530Y-59908011D01*
X33465538Y-60127685D01*
X33463644Y-60132258D01*
X33445566Y-60207557D01*
X33406980Y-60368276D01*
X33406979Y-60368282D01*
X33405825Y-60373089D01*
X33386393Y-60620000D01*
X33405825Y-60866911D01*
X33406979Y-60871718D01*
X33406980Y-60871724D01*
X33443258Y-61022830D01*
X33463644Y-61107742D01*
X33465537Y-61112313D01*
X33465538Y-61112315D01*
X33556529Y-61331985D01*
X33558425Y-61336563D01*
X33687834Y-61547740D01*
X33848686Y-61736073D01*
X34037019Y-61896925D01*
X34248196Y-62026334D01*
X34252766Y-62028227D01*
X34252770Y-62028229D01*
X34472444Y-62119221D01*
X34477017Y-62121115D01*
X34525730Y-62132810D01*
X34713035Y-62177779D01*
X34713041Y-62177780D01*
X34717848Y-62178934D01*
X34964759Y-62198366D01*
X35211670Y-62178934D01*
X35216477Y-62177780D01*
X35216483Y-62177779D01*
X35403788Y-62132810D01*
X35452501Y-62121115D01*
X35457074Y-62119221D01*
X35676748Y-62028229D01*
X35676752Y-62028227D01*
X35681322Y-62026334D01*
X35892499Y-61896925D01*
X36080832Y-61736073D01*
X36241684Y-61547740D01*
X36371093Y-61336563D01*
X36372988Y-61331989D01*
X36372990Y-61331985D01*
X36373277Y-61331291D01*
X36373457Y-61331067D01*
X36375234Y-61327580D01*
X36375966Y-61327953D01*
X36417821Y-61276006D01*
X36489689Y-61253500D01*
X39495406Y-61253500D01*
X39563527Y-61273502D01*
X39584501Y-61290405D01*
X41109154Y-62815058D01*
X41143180Y-62877370D01*
X41141476Y-62937825D01*
X41111707Y-63045169D01*
X41087095Y-63275469D01*
X41087392Y-63280622D01*
X41087392Y-63280625D01*
X41093067Y-63379041D01*
X41100427Y-63506697D01*
X41101564Y-63511743D01*
X41101565Y-63511749D01*
X41133741Y-63654523D01*
X41151346Y-63732642D01*
X41153288Y-63737424D01*
X41153289Y-63737428D01*
X41236540Y-63942450D01*
X41238484Y-63947237D01*
X41359501Y-64144719D01*
X41362882Y-64148622D01*
X41479719Y-64283503D01*
X41509201Y-64348088D01*
X41499086Y-64418361D01*
X41452585Y-64472009D01*
X41384481Y-64492000D01*
X30634000Y-64492000D01*
X30565879Y-64471998D01*
X30519386Y-64418342D01*
X30508000Y-64366000D01*
X30508000Y-56638134D01*
X41091500Y-56638134D01*
X41098255Y-56700316D01*
X41149385Y-56836705D01*
X41236739Y-56953261D01*
X41353295Y-57040615D01*
X41489684Y-57091745D01*
X41551866Y-57098500D01*
X43448134Y-57098500D01*
X43510316Y-57091745D01*
X43646705Y-57040615D01*
X43763261Y-56953261D01*
X43850615Y-56836705D01*
X43901745Y-56700316D01*
X43908500Y-56638134D01*
X43908500Y-54741866D01*
X43901745Y-54679684D01*
X43850615Y-54543295D01*
X43763261Y-54426739D01*
X43646705Y-54339385D01*
X43635997Y-54335371D01*
X43614957Y-54327483D01*
X43558192Y-54284841D01*
X43533493Y-54218279D01*
X43549794Y-54147693D01*
X43550589Y-54146558D01*
X43639956Y-53954910D01*
X43694686Y-53750655D01*
X43713116Y-53540000D01*
X43694686Y-53329345D01*
X43639956Y-53125090D01*
X43624143Y-53091179D01*
X43552912Y-52938423D01*
X43552910Y-52938420D01*
X43550589Y-52933442D01*
X43429301Y-52760224D01*
X43279776Y-52610699D01*
X43106558Y-52489411D01*
X43101580Y-52487090D01*
X43101577Y-52487088D01*
X42919892Y-52402367D01*
X42919891Y-52402366D01*
X42914910Y-52400044D01*
X42909602Y-52398622D01*
X42909600Y-52398621D01*
X42715970Y-52346738D01*
X42715968Y-52346738D01*
X42710655Y-52345314D01*
X42500000Y-52326884D01*
X42289345Y-52345314D01*
X42284032Y-52346738D01*
X42284030Y-52346738D01*
X42090400Y-52398621D01*
X42090398Y-52398622D01*
X42085090Y-52400044D01*
X42080109Y-52402366D01*
X42080108Y-52402367D01*
X41898423Y-52487088D01*
X41898420Y-52487090D01*
X41893442Y-52489411D01*
X41720224Y-52610699D01*
X41570699Y-52760224D01*
X41449411Y-52933442D01*
X41447090Y-52938420D01*
X41447088Y-52938423D01*
X41375857Y-53091179D01*
X41360044Y-53125090D01*
X41305314Y-53329345D01*
X41286884Y-53540000D01*
X41305314Y-53750655D01*
X41360044Y-53954910D01*
X41449411Y-54146558D01*
X41450227Y-54147724D01*
X41466671Y-54215489D01*
X41443454Y-54282582D01*
X41385043Y-54327483D01*
X41364003Y-54335371D01*
X41353295Y-54339385D01*
X41236739Y-54426739D01*
X41149385Y-54543295D01*
X41098255Y-54679684D01*
X41091500Y-54741866D01*
X41091500Y-56638134D01*
X30508000Y-56638134D01*
X30508000Y-52320000D01*
X33386393Y-52320000D01*
X33405825Y-52566911D01*
X33406979Y-52571718D01*
X33406980Y-52571724D01*
X33432293Y-52677158D01*
X33463644Y-52807742D01*
X33465537Y-52812313D01*
X33465538Y-52812315D01*
X33517896Y-52938717D01*
X33558425Y-53036563D01*
X33687834Y-53247740D01*
X33848686Y-53436073D01*
X34037019Y-53596925D01*
X34248196Y-53726334D01*
X34252766Y-53728227D01*
X34252770Y-53728229D01*
X34319743Y-53755970D01*
X34477017Y-53821115D01*
X34561929Y-53841501D01*
X34713035Y-53877779D01*
X34713041Y-53877780D01*
X34717848Y-53878934D01*
X34964759Y-53898366D01*
X35211670Y-53878934D01*
X35216477Y-53877780D01*
X35216483Y-53877779D01*
X35367589Y-53841501D01*
X35452501Y-53821115D01*
X35609775Y-53755970D01*
X35676748Y-53728229D01*
X35676752Y-53728227D01*
X35681322Y-53726334D01*
X35892499Y-53596925D01*
X36080832Y-53436073D01*
X36241684Y-53247740D01*
X36371093Y-53036563D01*
X36411623Y-52938717D01*
X36463980Y-52812315D01*
X36463981Y-52812313D01*
X36465874Y-52807742D01*
X36497225Y-52677158D01*
X36522538Y-52571724D01*
X36522539Y-52571718D01*
X36523693Y-52566911D01*
X36543125Y-52320000D01*
X36523693Y-52073089D01*
X36522539Y-52068282D01*
X36522538Y-52068276D01*
X36467029Y-51837070D01*
X36465874Y-51832258D01*
X36450652Y-51795508D01*
X36372988Y-51608011D01*
X36372986Y-51608007D01*
X36371093Y-51603437D01*
X36241684Y-51392260D01*
X36080832Y-51203927D01*
X35892499Y-51043075D01*
X35681322Y-50913666D01*
X35676752Y-50911773D01*
X35676748Y-50911771D01*
X35614311Y-50885909D01*
X35559030Y-50841360D01*
X35536609Y-50773997D01*
X35554167Y-50705206D01*
X35606129Y-50656828D01*
X35662529Y-50643500D01*
X35977893Y-50643500D01*
X36040075Y-50636745D01*
X36176464Y-50585615D01*
X36293020Y-50498261D01*
X36380374Y-50381705D01*
X36431504Y-50245316D01*
X36438259Y-50183134D01*
X36438259Y-48256866D01*
X36431504Y-48194684D01*
X36380374Y-48058295D01*
X36293020Y-47941739D01*
X36176464Y-47854385D01*
X36040075Y-47803255D01*
X35977893Y-47796500D01*
X33951625Y-47796500D01*
X33889443Y-47803255D01*
X33753054Y-47854385D01*
X33636498Y-47941739D01*
X33549144Y-48058295D01*
X33498014Y-48194684D01*
X33491259Y-48256866D01*
X33491259Y-50183134D01*
X33498014Y-50245316D01*
X33549144Y-50381705D01*
X33636498Y-50498261D01*
X33753054Y-50585615D01*
X33889443Y-50636745D01*
X33951625Y-50643500D01*
X34266989Y-50643500D01*
X34335110Y-50663502D01*
X34381603Y-50717158D01*
X34391707Y-50787432D01*
X34362213Y-50852012D01*
X34315207Y-50885909D01*
X34252770Y-50911771D01*
X34252766Y-50911773D01*
X34248196Y-50913666D01*
X34037019Y-51043075D01*
X33848686Y-51203927D01*
X33687834Y-51392260D01*
X33558425Y-51603437D01*
X33556532Y-51608007D01*
X33556530Y-51608011D01*
X33478866Y-51795508D01*
X33463644Y-51832258D01*
X33462489Y-51837070D01*
X33406980Y-52068276D01*
X33406979Y-52068282D01*
X33405825Y-52073089D01*
X33386393Y-52320000D01*
X30508000Y-52320000D01*
X30508000Y-46514261D01*
X32350294Y-46514261D01*
X32359590Y-46526276D01*
X32389189Y-46547001D01*
X32398677Y-46552479D01*
X32580277Y-46637159D01*
X32590571Y-46640907D01*
X32784122Y-46692769D01*
X32794909Y-46694671D01*
X32994525Y-46712135D01*
X33005475Y-46712135D01*
X33205091Y-46694671D01*
X33215878Y-46692769D01*
X33409429Y-46640907D01*
X33419723Y-46637159D01*
X33601323Y-46552479D01*
X33610811Y-46547001D01*
X33641248Y-46525689D01*
X33649623Y-46515212D01*
X33642554Y-46501764D01*
X33012812Y-45872022D01*
X32998868Y-45864408D01*
X32997035Y-45864539D01*
X32990420Y-45868790D01*
X32356724Y-46502486D01*
X32350294Y-46514261D01*
X30508000Y-46514261D01*
X30508000Y-45505475D01*
X31787865Y-45505475D01*
X31805329Y-45705091D01*
X31807231Y-45715878D01*
X31859093Y-45909429D01*
X31862841Y-45919723D01*
X31947521Y-46101323D01*
X31952999Y-46110811D01*
X31974311Y-46141248D01*
X31984788Y-46149623D01*
X31998236Y-46142554D01*
X32627978Y-45512812D01*
X32634356Y-45501132D01*
X33364408Y-45501132D01*
X33364539Y-45502965D01*
X33368790Y-45509580D01*
X34002486Y-46143276D01*
X34014261Y-46149706D01*
X34026276Y-46140410D01*
X34047001Y-46110811D01*
X34052479Y-46101323D01*
X34137159Y-45919723D01*
X34140907Y-45909429D01*
X34192769Y-45715878D01*
X34194671Y-45705091D01*
X34212135Y-45505475D01*
X34212135Y-45494525D01*
X34194671Y-45294909D01*
X34192769Y-45284122D01*
X34140907Y-45090571D01*
X34137159Y-45080277D01*
X34052479Y-44898677D01*
X34047001Y-44889189D01*
X34025689Y-44858752D01*
X34015212Y-44850377D01*
X34001764Y-44857446D01*
X33372022Y-45487188D01*
X33364408Y-45501132D01*
X32634356Y-45501132D01*
X32635592Y-45498868D01*
X32635461Y-45497035D01*
X32631210Y-45490420D01*
X31997514Y-44856724D01*
X31985739Y-44850294D01*
X31973724Y-44859590D01*
X31952999Y-44889189D01*
X31947521Y-44898677D01*
X31862841Y-45080277D01*
X31859093Y-45090571D01*
X31807231Y-45284122D01*
X31805329Y-45294909D01*
X31787865Y-45494525D01*
X31787865Y-45505475D01*
X30508000Y-45505475D01*
X30508000Y-44484788D01*
X32350377Y-44484788D01*
X32357446Y-44498236D01*
X32987188Y-45127978D01*
X33001132Y-45135592D01*
X33002965Y-45135461D01*
X33009580Y-45131210D01*
X33643276Y-44497514D01*
X33649706Y-44485739D01*
X33640410Y-44473724D01*
X33610811Y-44452999D01*
X33601323Y-44447521D01*
X33419723Y-44362841D01*
X33409429Y-44359093D01*
X33215878Y-44307231D01*
X33205091Y-44305329D01*
X33005475Y-44287865D01*
X32994525Y-44287865D01*
X32794909Y-44305329D01*
X32784122Y-44307231D01*
X32590571Y-44359093D01*
X32580277Y-44362841D01*
X32398677Y-44447521D01*
X32389189Y-44452999D01*
X32358752Y-44474311D01*
X32350377Y-44484788D01*
X30508000Y-44484788D01*
X30508000Y-36661406D01*
X31163423Y-36661406D01*
X31168704Y-36668461D01*
X31345080Y-36771527D01*
X31354363Y-36775974D01*
X31561003Y-36854883D01*
X31570901Y-36857759D01*
X31787653Y-36901857D01*
X31797883Y-36903076D01*
X32018914Y-36911182D01*
X32029223Y-36910714D01*
X32248623Y-36882608D01*
X32258688Y-36880468D01*
X32470557Y-36816905D01*
X32480152Y-36813144D01*
X32678778Y-36715838D01*
X32687636Y-36710559D01*
X32745097Y-36669572D01*
X32753497Y-36658874D01*
X32746510Y-36645721D01*
X31972811Y-35872021D01*
X31958868Y-35864408D01*
X31957034Y-35864539D01*
X31950420Y-35868790D01*
X31170180Y-36649031D01*
X31163423Y-36661406D01*
X30508000Y-36661406D01*
X30508000Y-36272202D01*
X30528002Y-36204081D01*
X30581658Y-36157588D01*
X30651932Y-36147484D01*
X30716512Y-36176978D01*
X30741433Y-36206368D01*
X30790097Y-36285781D01*
X30800553Y-36295242D01*
X30809331Y-36291458D01*
X31587979Y-35512811D01*
X31594356Y-35501132D01*
X32324408Y-35501132D01*
X32324539Y-35502966D01*
X32328790Y-35509580D01*
X33054595Y-36235384D01*
X33088620Y-36297697D01*
X33091500Y-36324480D01*
X33091500Y-36448134D01*
X33098255Y-36510316D01*
X33149385Y-36646705D01*
X33236739Y-36763261D01*
X33353295Y-36850615D01*
X33489684Y-36901745D01*
X33551866Y-36908500D01*
X35448134Y-36908500D01*
X35510316Y-36901745D01*
X35646705Y-36850615D01*
X35763261Y-36763261D01*
X35850615Y-36646705D01*
X35901745Y-36510316D01*
X35908500Y-36448134D01*
X35908500Y-36259500D01*
X35928502Y-36191379D01*
X35982158Y-36144886D01*
X36034500Y-36133500D01*
X36862685Y-36133500D01*
X36930806Y-36153502D01*
X36965898Y-36187230D01*
X37030699Y-36279776D01*
X37180224Y-36429301D01*
X37353442Y-36550589D01*
X37358420Y-36552910D01*
X37358423Y-36552912D01*
X37540108Y-36637633D01*
X37545090Y-36639956D01*
X37550398Y-36641378D01*
X37550400Y-36641379D01*
X37744030Y-36693262D01*
X37744032Y-36693262D01*
X37749345Y-36694686D01*
X37960000Y-36713116D01*
X38170655Y-36694686D01*
X38175968Y-36693262D01*
X38175970Y-36693262D01*
X38369600Y-36641379D01*
X38369602Y-36641378D01*
X38374910Y-36639956D01*
X38379892Y-36637633D01*
X38561577Y-36552912D01*
X38561580Y-36552910D01*
X38566558Y-36550589D01*
X38739776Y-36429301D01*
X38889301Y-36279776D01*
X39010589Y-36106558D01*
X39099956Y-35914910D01*
X39154686Y-35710655D01*
X39173116Y-35500000D01*
X41826884Y-35500000D01*
X41845314Y-35710655D01*
X41900044Y-35914910D01*
X41989411Y-36106558D01*
X42110699Y-36279776D01*
X42260224Y-36429301D01*
X42433442Y-36550589D01*
X42438420Y-36552910D01*
X42438423Y-36552912D01*
X42620108Y-36637633D01*
X42625090Y-36639956D01*
X42630398Y-36641378D01*
X42630400Y-36641379D01*
X42824030Y-36693262D01*
X42824032Y-36693262D01*
X42829345Y-36694686D01*
X43040000Y-36713116D01*
X43250655Y-36694686D01*
X43255968Y-36693262D01*
X43255970Y-36693262D01*
X43449600Y-36641379D01*
X43449602Y-36641378D01*
X43454910Y-36639956D01*
X43459892Y-36637633D01*
X43641577Y-36552912D01*
X43641580Y-36552910D01*
X43646558Y-36550589D01*
X43819776Y-36429301D01*
X43969301Y-36279776D01*
X44090589Y-36106558D01*
X44179956Y-35914910D01*
X44234686Y-35710655D01*
X44253116Y-35500000D01*
X44234686Y-35289345D01*
X44179956Y-35085090D01*
X44090589Y-34893442D01*
X43969301Y-34720224D01*
X43819776Y-34570699D01*
X43646558Y-34449411D01*
X43641580Y-34447090D01*
X43641577Y-34447088D01*
X43459892Y-34362367D01*
X43459891Y-34362366D01*
X43454910Y-34360044D01*
X43449602Y-34358622D01*
X43449600Y-34358621D01*
X43255970Y-34306738D01*
X43255968Y-34306738D01*
X43250655Y-34305314D01*
X43040000Y-34286884D01*
X42829345Y-34305314D01*
X42824032Y-34306738D01*
X42824030Y-34306738D01*
X42630400Y-34358621D01*
X42630398Y-34358622D01*
X42625090Y-34360044D01*
X42620109Y-34362366D01*
X42620108Y-34362367D01*
X42438423Y-34447088D01*
X42438420Y-34447090D01*
X42433442Y-34449411D01*
X42260224Y-34570699D01*
X42110699Y-34720224D01*
X41989411Y-34893442D01*
X41900044Y-35085090D01*
X41845314Y-35289345D01*
X41826884Y-35500000D01*
X39173116Y-35500000D01*
X39154686Y-35289345D01*
X39099956Y-35085090D01*
X39010589Y-34893442D01*
X38889301Y-34720224D01*
X38739776Y-34570699D01*
X38566558Y-34449411D01*
X38561580Y-34447090D01*
X38561577Y-34447088D01*
X38379892Y-34362367D01*
X38379891Y-34362366D01*
X38374910Y-34360044D01*
X38369602Y-34358622D01*
X38369600Y-34358621D01*
X38175970Y-34306738D01*
X38175968Y-34306738D01*
X38170655Y-34305314D01*
X37960000Y-34286884D01*
X37749345Y-34305314D01*
X37744032Y-34306738D01*
X37744030Y-34306738D01*
X37550400Y-34358621D01*
X37550398Y-34358622D01*
X37545090Y-34360044D01*
X37540109Y-34362366D01*
X37540108Y-34362367D01*
X37358423Y-34447088D01*
X37358420Y-34447090D01*
X37353442Y-34449411D01*
X37180224Y-34570699D01*
X37030699Y-34720224D01*
X37007238Y-34753730D01*
X36965898Y-34812770D01*
X36910441Y-34857099D01*
X36862685Y-34866500D01*
X36034500Y-34866500D01*
X35966379Y-34846498D01*
X35919886Y-34792842D01*
X35908500Y-34740500D01*
X35908500Y-34551866D01*
X35901745Y-34489684D01*
X35850615Y-34353295D01*
X35763261Y-34236739D01*
X35646705Y-34149385D01*
X35510316Y-34098255D01*
X35448134Y-34091500D01*
X33551866Y-34091500D01*
X33489684Y-34098255D01*
X33353295Y-34149385D01*
X33236739Y-34236739D01*
X33149385Y-34353295D01*
X33098255Y-34489684D01*
X33091500Y-34551866D01*
X33091500Y-34675520D01*
X33071498Y-34743641D01*
X33054595Y-34764616D01*
X32332021Y-35487189D01*
X32324408Y-35501132D01*
X31594356Y-35501132D01*
X31595592Y-35498868D01*
X31595461Y-35497034D01*
X31591210Y-35490420D01*
X30813862Y-34713073D01*
X30802330Y-34706776D01*
X30790048Y-34716399D01*
X30738088Y-34792569D01*
X30683176Y-34837571D01*
X30612652Y-34845742D01*
X30548905Y-34814488D01*
X30512175Y-34753730D01*
X30508000Y-34721564D01*
X30508000Y-34340711D01*
X31165508Y-34340711D01*
X31172251Y-34353040D01*
X31947189Y-35127979D01*
X31961132Y-35135592D01*
X31962966Y-35135461D01*
X31969580Y-35131210D01*
X32748994Y-34351795D01*
X32756011Y-34338944D01*
X32748237Y-34328274D01*
X32745902Y-34326430D01*
X32737320Y-34320729D01*
X32543678Y-34213833D01*
X32534272Y-34209606D01*
X32325772Y-34135772D01*
X32315809Y-34133140D01*
X32098047Y-34094350D01*
X32087796Y-34093381D01*
X31866616Y-34090679D01*
X31856332Y-34091399D01*
X31637693Y-34124855D01*
X31627666Y-34127244D01*
X31417426Y-34195961D01*
X31407916Y-34199958D01*
X31211725Y-34302089D01*
X31203007Y-34307578D01*
X31173961Y-34329386D01*
X31165508Y-34340711D01*
X30508000Y-34340711D01*
X30508000Y-29741695D01*
X31052251Y-29741695D01*
X31052548Y-29746848D01*
X31052548Y-29746851D01*
X31058978Y-29858372D01*
X31065110Y-29964715D01*
X31066247Y-29969761D01*
X31066248Y-29969767D01*
X31080606Y-30033475D01*
X31114222Y-30182639D01*
X31198266Y-30389616D01*
X31249942Y-30473944D01*
X31312291Y-30575688D01*
X31314987Y-30580088D01*
X31461250Y-30748938D01*
X31633126Y-30891632D01*
X31826000Y-31004338D01*
X32034692Y-31084030D01*
X32039760Y-31085061D01*
X32039763Y-31085062D01*
X32147017Y-31106883D01*
X32253597Y-31128567D01*
X32258772Y-31128757D01*
X32258774Y-31128757D01*
X32471673Y-31136564D01*
X32471677Y-31136564D01*
X32476837Y-31136753D01*
X32481957Y-31136097D01*
X32481959Y-31136097D01*
X32693288Y-31109025D01*
X32693289Y-31109025D01*
X32698416Y-31108368D01*
X32703366Y-31106883D01*
X32907429Y-31045661D01*
X32907434Y-31045659D01*
X32912384Y-31044174D01*
X33112994Y-30945896D01*
X33294860Y-30816173D01*
X33453096Y-30658489D01*
X33512594Y-30575689D01*
X33583453Y-30477077D01*
X33584776Y-30478028D01*
X33631645Y-30434857D01*
X33701580Y-30422625D01*
X33767026Y-30450144D01*
X33794875Y-30481994D01*
X33854987Y-30580088D01*
X34001250Y-30748938D01*
X34173126Y-30891632D01*
X34366000Y-31004338D01*
X34574692Y-31084030D01*
X34579760Y-31085061D01*
X34579763Y-31085062D01*
X34687017Y-31106883D01*
X34793597Y-31128567D01*
X34798772Y-31128757D01*
X34798774Y-31128757D01*
X35011673Y-31136564D01*
X35011677Y-31136564D01*
X35016837Y-31136753D01*
X35021957Y-31136097D01*
X35021959Y-31136097D01*
X35233288Y-31109025D01*
X35233289Y-31109025D01*
X35238416Y-31108368D01*
X35243366Y-31106883D01*
X35447429Y-31045661D01*
X35447434Y-31045659D01*
X35452384Y-31044174D01*
X35652994Y-30945896D01*
X35834860Y-30816173D01*
X35993096Y-30658489D01*
X36052594Y-30575689D01*
X36123453Y-30477077D01*
X36124776Y-30478028D01*
X36171645Y-30434857D01*
X36241580Y-30422625D01*
X36307026Y-30450144D01*
X36334875Y-30481994D01*
X36394987Y-30580088D01*
X36541250Y-30748938D01*
X36713126Y-30891632D01*
X36906000Y-31004338D01*
X37114692Y-31084030D01*
X37119760Y-31085061D01*
X37119763Y-31085062D01*
X37227017Y-31106883D01*
X37333597Y-31128567D01*
X37338772Y-31128757D01*
X37338774Y-31128757D01*
X37551673Y-31136564D01*
X37551677Y-31136564D01*
X37556837Y-31136753D01*
X37561957Y-31136097D01*
X37561959Y-31136097D01*
X37773288Y-31109025D01*
X37773289Y-31109025D01*
X37778416Y-31108368D01*
X37783366Y-31106883D01*
X37987429Y-31045661D01*
X37987434Y-31045659D01*
X37992384Y-31044174D01*
X38192994Y-30945896D01*
X38374860Y-30816173D01*
X38533096Y-30658489D01*
X38592594Y-30575689D01*
X38663453Y-30477077D01*
X38664776Y-30478028D01*
X38711645Y-30434857D01*
X38781580Y-30422625D01*
X38847026Y-30450144D01*
X38874875Y-30481994D01*
X38934987Y-30580088D01*
X39081250Y-30748938D01*
X39253126Y-30891632D01*
X39446000Y-31004338D01*
X39654692Y-31084030D01*
X39659760Y-31085061D01*
X39659763Y-31085062D01*
X39767017Y-31106883D01*
X39873597Y-31128567D01*
X39878772Y-31128757D01*
X39878774Y-31128757D01*
X40091673Y-31136564D01*
X40091677Y-31136564D01*
X40096837Y-31136753D01*
X40101957Y-31136097D01*
X40101959Y-31136097D01*
X40313288Y-31109025D01*
X40313289Y-31109025D01*
X40318416Y-31108368D01*
X40323366Y-31106883D01*
X40527429Y-31045661D01*
X40527434Y-31045659D01*
X40532384Y-31044174D01*
X40732994Y-30945896D01*
X40914860Y-30816173D01*
X40982331Y-30748938D01*
X41023479Y-30707933D01*
X41085851Y-30674017D01*
X41156658Y-30679205D01*
X41213419Y-30721851D01*
X41230401Y-30752954D01*
X41271676Y-30863054D01*
X41280214Y-30878649D01*
X41356715Y-30980724D01*
X41369276Y-30993285D01*
X41471351Y-31069786D01*
X41486946Y-31078324D01*
X41607394Y-31123478D01*
X41622649Y-31127105D01*
X41673514Y-31132631D01*
X41680328Y-31133000D01*
X42302885Y-31133000D01*
X42318124Y-31128525D01*
X42319329Y-31127135D01*
X42321000Y-31119452D01*
X42321000Y-31114884D01*
X42829000Y-31114884D01*
X42833475Y-31130123D01*
X42834865Y-31131328D01*
X42842548Y-31132999D01*
X43469669Y-31132999D01*
X43476490Y-31132629D01*
X43527352Y-31127105D01*
X43542604Y-31123479D01*
X43663054Y-31078324D01*
X43678649Y-31069786D01*
X43780724Y-30993285D01*
X43793285Y-30980724D01*
X43869786Y-30878649D01*
X43878324Y-30863054D01*
X43923478Y-30742606D01*
X43927105Y-30727351D01*
X43932631Y-30676486D01*
X43933000Y-30669672D01*
X43933000Y-30047115D01*
X43928525Y-30031876D01*
X43927135Y-30030671D01*
X43919452Y-30029000D01*
X42847115Y-30029000D01*
X42831876Y-30033475D01*
X42830671Y-30034865D01*
X42829000Y-30042548D01*
X42829000Y-31114884D01*
X42321000Y-31114884D01*
X42321000Y-29844669D01*
X48509622Y-29844669D01*
X48509992Y-29851490D01*
X48515516Y-29902352D01*
X48519142Y-29917604D01*
X48564297Y-30038054D01*
X48572835Y-30053649D01*
X48649336Y-30155724D01*
X48661897Y-30168285D01*
X48763972Y-30244786D01*
X48779567Y-30253324D01*
X48900015Y-30298478D01*
X48915270Y-30302105D01*
X48966135Y-30307631D01*
X48972949Y-30308000D01*
X49545506Y-30308000D01*
X49560745Y-30303525D01*
X49561950Y-30302135D01*
X49563621Y-30294452D01*
X49563621Y-30289884D01*
X50071621Y-30289884D01*
X50076096Y-30305123D01*
X50077486Y-30306328D01*
X50085169Y-30307999D01*
X50662290Y-30307999D01*
X50669111Y-30307629D01*
X50719973Y-30302105D01*
X50735225Y-30298479D01*
X50855675Y-30253324D01*
X50871270Y-30244786D01*
X50973345Y-30168285D01*
X50985906Y-30155724D01*
X51062407Y-30053649D01*
X51070945Y-30038054D01*
X51118873Y-29910207D01*
X51120733Y-29910904D01*
X51150752Y-29858372D01*
X51213711Y-29825558D01*
X51284415Y-29831992D01*
X51327202Y-29860079D01*
X51473321Y-30006198D01*
X51477829Y-30009355D01*
X51477832Y-30009357D01*
X51518816Y-30038054D01*
X51660872Y-30137523D01*
X51665854Y-30139846D01*
X51665859Y-30139849D01*
X51863396Y-30231961D01*
X51868378Y-30234284D01*
X51873686Y-30235706D01*
X51873688Y-30235707D01*
X52084219Y-30292119D01*
X52084221Y-30292119D01*
X52089534Y-30293543D01*
X52317621Y-30313498D01*
X52545708Y-30293543D01*
X52551021Y-30292119D01*
X52551023Y-30292119D01*
X52761554Y-30235707D01*
X52761556Y-30235706D01*
X52766864Y-30234284D01*
X52771846Y-30231961D01*
X52969383Y-30139849D01*
X52969388Y-30139846D01*
X52974370Y-30137523D01*
X53116426Y-30038054D01*
X53157410Y-30009357D01*
X53157413Y-30009355D01*
X53161921Y-30006198D01*
X53323819Y-29844300D01*
X53336943Y-29825558D01*
X53451987Y-29661257D01*
X53455144Y-29656749D01*
X53457467Y-29651767D01*
X53457470Y-29651762D01*
X53549582Y-29454225D01*
X53549582Y-29454224D01*
X53551905Y-29449243D01*
X53582329Y-29335702D01*
X53609740Y-29233402D01*
X53609740Y-29233400D01*
X53611164Y-29228087D01*
X53631119Y-29000000D01*
X53611164Y-28771913D01*
X53602649Y-28740135D01*
X53553328Y-28556067D01*
X53553327Y-28556065D01*
X53551905Y-28550757D01*
X53526801Y-28496921D01*
X53457470Y-28348238D01*
X53457467Y-28348233D01*
X53455144Y-28343251D01*
X53381719Y-28238389D01*
X53326978Y-28160211D01*
X53326976Y-28160208D01*
X53323819Y-28155700D01*
X53161921Y-27993802D01*
X53157413Y-27990645D01*
X53157410Y-27990643D01*
X53003144Y-27882625D01*
X52974370Y-27862477D01*
X52969388Y-27860154D01*
X52969383Y-27860151D01*
X52771846Y-27768039D01*
X52771845Y-27768039D01*
X52766864Y-27765716D01*
X52761556Y-27764294D01*
X52761554Y-27764293D01*
X52551023Y-27707881D01*
X52551021Y-27707881D01*
X52545708Y-27706457D01*
X52317621Y-27686502D01*
X52089534Y-27706457D01*
X52084221Y-27707881D01*
X52084219Y-27707881D01*
X51873688Y-27764293D01*
X51873686Y-27764294D01*
X51868378Y-27765716D01*
X51863397Y-27768039D01*
X51863396Y-27768039D01*
X51665859Y-27860151D01*
X51665854Y-27860154D01*
X51660872Y-27862477D01*
X51632098Y-27882625D01*
X51477832Y-27990643D01*
X51477829Y-27990645D01*
X51473321Y-27993802D01*
X51327201Y-28139922D01*
X51264889Y-28173948D01*
X51194074Y-28168883D01*
X51137238Y-28126336D01*
X51119938Y-28089394D01*
X51118873Y-28089793D01*
X51070945Y-27961946D01*
X51062407Y-27946351D01*
X50985906Y-27844276D01*
X50973345Y-27831715D01*
X50871270Y-27755214D01*
X50855675Y-27746676D01*
X50735227Y-27701522D01*
X50719972Y-27697895D01*
X50669107Y-27692369D01*
X50662293Y-27692000D01*
X50089736Y-27692000D01*
X50074497Y-27696475D01*
X50073292Y-27697865D01*
X50071621Y-27705548D01*
X50071621Y-30289884D01*
X49563621Y-30289884D01*
X49563621Y-29272115D01*
X49559146Y-29256876D01*
X49557756Y-29255671D01*
X49550073Y-29254000D01*
X48527737Y-29254000D01*
X48512498Y-29258475D01*
X48511293Y-29259865D01*
X48509622Y-29267548D01*
X48509622Y-29844669D01*
X42321000Y-29844669D01*
X42321000Y-29502885D01*
X42829000Y-29502885D01*
X42833475Y-29518124D01*
X42834865Y-29519329D01*
X42842548Y-29521000D01*
X43914884Y-29521000D01*
X43930123Y-29516525D01*
X43931328Y-29515135D01*
X43932999Y-29507452D01*
X43932999Y-28880331D01*
X43932629Y-28873510D01*
X43927105Y-28822648D01*
X43923479Y-28807396D01*
X43893671Y-28727885D01*
X48509621Y-28727885D01*
X48514096Y-28743124D01*
X48515486Y-28744329D01*
X48523169Y-28746000D01*
X49545506Y-28746000D01*
X49560745Y-28741525D01*
X49561950Y-28740135D01*
X49563621Y-28732452D01*
X49563621Y-27710116D01*
X49559146Y-27694877D01*
X49557756Y-27693672D01*
X49550073Y-27692001D01*
X48972952Y-27692001D01*
X48966131Y-27692371D01*
X48915269Y-27697895D01*
X48900017Y-27701521D01*
X48779567Y-27746676D01*
X48763972Y-27755214D01*
X48661897Y-27831715D01*
X48649336Y-27844276D01*
X48572835Y-27946351D01*
X48564297Y-27961946D01*
X48519143Y-28082394D01*
X48515516Y-28097649D01*
X48509990Y-28148514D01*
X48509621Y-28155328D01*
X48509621Y-28727885D01*
X43893671Y-28727885D01*
X43878324Y-28686946D01*
X43869786Y-28671351D01*
X43793285Y-28569276D01*
X43780724Y-28556715D01*
X43678649Y-28480214D01*
X43663054Y-28471676D01*
X43552297Y-28430155D01*
X43495533Y-28387513D01*
X43470833Y-28320952D01*
X43486040Y-28251603D01*
X43507587Y-28222922D01*
X43609057Y-28121805D01*
X43615730Y-28113965D01*
X43740003Y-27941020D01*
X43745313Y-27932183D01*
X43839670Y-27741267D01*
X43843469Y-27731672D01*
X43905377Y-27527910D01*
X43907555Y-27517837D01*
X43908986Y-27506962D01*
X43906775Y-27492778D01*
X43893617Y-27489000D01*
X42847115Y-27489000D01*
X42831876Y-27493475D01*
X42830671Y-27494865D01*
X42829000Y-27502548D01*
X42829000Y-29502885D01*
X42321000Y-29502885D01*
X42321000Y-26962885D01*
X42829000Y-26962885D01*
X42833475Y-26978124D01*
X42834865Y-26979329D01*
X42842548Y-26981000D01*
X43893344Y-26981000D01*
X43906875Y-26977027D01*
X43908180Y-26967947D01*
X43866214Y-26800875D01*
X43862894Y-26791124D01*
X43777972Y-26595814D01*
X43773105Y-26586739D01*
X43657426Y-26407926D01*
X43651136Y-26399757D01*
X43507806Y-26242240D01*
X43500273Y-26235215D01*
X43333139Y-26103222D01*
X43324552Y-26097517D01*
X43138117Y-25994599D01*
X43128705Y-25990369D01*
X42927959Y-25919280D01*
X42917988Y-25916646D01*
X42846837Y-25903972D01*
X42833540Y-25905432D01*
X42829000Y-25919989D01*
X42829000Y-26962885D01*
X42321000Y-26962885D01*
X42321000Y-25918102D01*
X42317082Y-25904758D01*
X42302806Y-25902771D01*
X42264324Y-25908660D01*
X42254288Y-25911051D01*
X42051868Y-25977212D01*
X42042359Y-25981209D01*
X41853463Y-26079542D01*
X41844738Y-26085036D01*
X41674433Y-26212905D01*
X41666726Y-26219748D01*
X41519590Y-26373717D01*
X41513109Y-26381722D01*
X41408498Y-26535074D01*
X41353587Y-26580076D01*
X41283062Y-26588247D01*
X41219315Y-26556993D01*
X41198618Y-26532509D01*
X41117822Y-26407617D01*
X41117820Y-26407614D01*
X41115014Y-26403277D01*
X40964670Y-26238051D01*
X40960619Y-26234852D01*
X40960615Y-26234848D01*
X40793414Y-26102800D01*
X40793410Y-26102798D01*
X40789359Y-26099598D01*
X40753028Y-26079542D01*
X40737136Y-26070769D01*
X40593789Y-25991638D01*
X40588920Y-25989914D01*
X40588916Y-25989912D01*
X40388087Y-25918795D01*
X40388083Y-25918794D01*
X40383212Y-25917069D01*
X40378119Y-25916162D01*
X40378116Y-25916161D01*
X40168373Y-25878800D01*
X40168367Y-25878799D01*
X40163284Y-25877894D01*
X40089452Y-25876992D01*
X39945081Y-25875228D01*
X39945079Y-25875228D01*
X39939911Y-25875165D01*
X39719091Y-25908955D01*
X39506756Y-25978357D01*
X39308607Y-26081507D01*
X39304474Y-26084610D01*
X39304471Y-26084612D01*
X39280247Y-26102800D01*
X39129965Y-26215635D01*
X38975629Y-26377138D01*
X38868201Y-26534621D01*
X38813293Y-26579621D01*
X38742768Y-26587792D01*
X38679021Y-26556538D01*
X38658324Y-26532054D01*
X38577822Y-26407617D01*
X38577820Y-26407614D01*
X38575014Y-26403277D01*
X38424670Y-26238051D01*
X38420619Y-26234852D01*
X38420615Y-26234848D01*
X38253414Y-26102800D01*
X38253410Y-26102798D01*
X38249359Y-26099598D01*
X38213028Y-26079542D01*
X38197136Y-26070769D01*
X38053789Y-25991638D01*
X38048920Y-25989914D01*
X38048916Y-25989912D01*
X37848087Y-25918795D01*
X37848083Y-25918794D01*
X37843212Y-25917069D01*
X37838119Y-25916162D01*
X37838116Y-25916161D01*
X37628373Y-25878800D01*
X37628367Y-25878799D01*
X37623284Y-25877894D01*
X37549452Y-25876992D01*
X37405081Y-25875228D01*
X37405079Y-25875228D01*
X37399911Y-25875165D01*
X37179091Y-25908955D01*
X36966756Y-25978357D01*
X36768607Y-26081507D01*
X36764474Y-26084610D01*
X36764471Y-26084612D01*
X36740247Y-26102800D01*
X36589965Y-26215635D01*
X36435629Y-26377138D01*
X36328201Y-26534621D01*
X36273293Y-26579621D01*
X36202768Y-26587792D01*
X36139021Y-26556538D01*
X36118324Y-26532054D01*
X36037822Y-26407617D01*
X36037820Y-26407614D01*
X36035014Y-26403277D01*
X35884670Y-26238051D01*
X35880619Y-26234852D01*
X35880615Y-26234848D01*
X35713414Y-26102800D01*
X35713410Y-26102798D01*
X35709359Y-26099598D01*
X35673028Y-26079542D01*
X35657136Y-26070769D01*
X35513789Y-25991638D01*
X35508920Y-25989914D01*
X35508916Y-25989912D01*
X35308087Y-25918795D01*
X35308083Y-25918794D01*
X35303212Y-25917069D01*
X35298119Y-25916162D01*
X35298116Y-25916161D01*
X35088373Y-25878800D01*
X35088367Y-25878799D01*
X35083284Y-25877894D01*
X35009452Y-25876992D01*
X34865081Y-25875228D01*
X34865079Y-25875228D01*
X34859911Y-25875165D01*
X34639091Y-25908955D01*
X34426756Y-25978357D01*
X34228607Y-26081507D01*
X34224474Y-26084610D01*
X34224471Y-26084612D01*
X34200247Y-26102800D01*
X34049965Y-26215635D01*
X33895629Y-26377138D01*
X33788201Y-26534621D01*
X33733293Y-26579621D01*
X33662768Y-26587792D01*
X33599021Y-26556538D01*
X33578324Y-26532054D01*
X33497822Y-26407617D01*
X33497820Y-26407614D01*
X33495014Y-26403277D01*
X33344670Y-26238051D01*
X33340619Y-26234852D01*
X33340615Y-26234848D01*
X33173414Y-26102800D01*
X33173410Y-26102798D01*
X33169359Y-26099598D01*
X33133028Y-26079542D01*
X33117136Y-26070769D01*
X32973789Y-25991638D01*
X32968920Y-25989914D01*
X32968916Y-25989912D01*
X32768087Y-25918795D01*
X32768083Y-25918794D01*
X32763212Y-25917069D01*
X32758119Y-25916162D01*
X32758116Y-25916161D01*
X32548373Y-25878800D01*
X32548367Y-25878799D01*
X32543284Y-25877894D01*
X32469452Y-25876992D01*
X32325081Y-25875228D01*
X32325079Y-25875228D01*
X32319911Y-25875165D01*
X32099091Y-25908955D01*
X31886756Y-25978357D01*
X31688607Y-26081507D01*
X31684474Y-26084610D01*
X31684471Y-26084612D01*
X31660247Y-26102800D01*
X31509965Y-26215635D01*
X31355629Y-26377138D01*
X31229743Y-26561680D01*
X31135688Y-26764305D01*
X31075989Y-26979570D01*
X31052251Y-27201695D01*
X31065110Y-27424715D01*
X31066247Y-27429761D01*
X31066248Y-27429767D01*
X31079597Y-27489000D01*
X31114222Y-27642639D01*
X31156467Y-27746676D01*
X31196098Y-27844276D01*
X31198266Y-27849616D01*
X31248863Y-27932183D01*
X31312291Y-28035688D01*
X31314987Y-28040088D01*
X31461250Y-28208938D01*
X31633126Y-28351632D01*
X31637593Y-28354242D01*
X31706445Y-28394476D01*
X31755169Y-28446114D01*
X31768240Y-28515897D01*
X31741509Y-28581669D01*
X31701055Y-28615027D01*
X31688607Y-28621507D01*
X31684474Y-28624610D01*
X31684471Y-28624612D01*
X31514100Y-28752530D01*
X31509965Y-28755635D01*
X31355629Y-28917138D01*
X31229743Y-29101680D01*
X31135688Y-29304305D01*
X31075989Y-29519570D01*
X31052251Y-29741695D01*
X30508000Y-29741695D01*
X30508000Y-25634000D01*
X30528002Y-25565879D01*
X30581658Y-25519386D01*
X30634000Y-25508000D01*
X54366000Y-25508000D01*
X54434121Y-25528002D01*
G37*
%TD.AperFunction*%
%TD*%
M02*
