%TF.GenerationSoftware,KiCad,Pcbnew,(6.0.0)*%
%TF.CreationDate,2022-02-15T15:19:29-08:00*%
%TF.ProjectId,LEDShieldPractice,4c454453-6869-4656-9c64-507261637469,rev?*%
%TF.SameCoordinates,Original*%
%TF.FileFunction,Legend,Top*%
%TF.FilePolarity,Positive*%
%FSLAX46Y46*%
G04 Gerber Fmt 4.6, Leading zero omitted, Abs format (unit mm)*
G04 Created by KiCad (PCBNEW (6.0.0)) date 2022-02-15 15:19:29*
%MOMM*%
%LPD*%
G01*
G04 APERTURE LIST*
%ADD10C,0.150000*%
%ADD11C,0.120000*%
G04 APERTURE END LIST*
D10*
%TO.C,R4*%
X35452380Y-45666666D02*
X34976190Y-46000000D01*
X35452380Y-46238095D02*
X34452380Y-46238095D01*
X34452380Y-45857142D01*
X34500000Y-45761904D01*
X34547619Y-45714285D01*
X34642857Y-45666666D01*
X34785714Y-45666666D01*
X34880952Y-45714285D01*
X34928571Y-45761904D01*
X34976190Y-45857142D01*
X34976190Y-46238095D01*
X34785714Y-44809523D02*
X35452380Y-44809523D01*
X34404761Y-45047619D02*
X35119047Y-45285714D01*
X35119047Y-44666666D01*
%TO.C,R3*%
X44872380Y-51166666D02*
X44396190Y-51500000D01*
X44872380Y-51738095D02*
X43872380Y-51738095D01*
X43872380Y-51357142D01*
X43920000Y-51261904D01*
X43967619Y-51214285D01*
X44062857Y-51166666D01*
X44205714Y-51166666D01*
X44300952Y-51214285D01*
X44348571Y-51261904D01*
X44396190Y-51357142D01*
X44396190Y-51738095D01*
X43872380Y-50833333D02*
X43872380Y-50214285D01*
X44253333Y-50547619D01*
X44253333Y-50404761D01*
X44300952Y-50309523D01*
X44348571Y-50261904D01*
X44443809Y-50214285D01*
X44681904Y-50214285D01*
X44777142Y-50261904D01*
X44824761Y-50309523D01*
X44872380Y-50404761D01*
X44872380Y-50690476D01*
X44824761Y-50785714D01*
X44777142Y-50833333D01*
%TO.C,R2*%
X50833333Y-48532380D02*
X50500000Y-48056190D01*
X50261904Y-48532380D02*
X50261904Y-47532380D01*
X50642857Y-47532380D01*
X50738095Y-47580000D01*
X50785714Y-47627619D01*
X50833333Y-47722857D01*
X50833333Y-47865714D01*
X50785714Y-47960952D01*
X50738095Y-48008571D01*
X50642857Y-48056190D01*
X50261904Y-48056190D01*
X51214285Y-47627619D02*
X51261904Y-47580000D01*
X51357142Y-47532380D01*
X51595238Y-47532380D01*
X51690476Y-47580000D01*
X51738095Y-47627619D01*
X51785714Y-47722857D01*
X51785714Y-47818095D01*
X51738095Y-47960952D01*
X51166666Y-48532380D01*
X51785714Y-48532380D01*
%TO.C,R1*%
X40333333Y-34032380D02*
X40000000Y-33556190D01*
X39761904Y-34032380D02*
X39761904Y-33032380D01*
X40142857Y-33032380D01*
X40238095Y-33080000D01*
X40285714Y-33127619D01*
X40333333Y-33222857D01*
X40333333Y-33365714D01*
X40285714Y-33460952D01*
X40238095Y-33508571D01*
X40142857Y-33556190D01*
X39761904Y-33556190D01*
X41285714Y-34032380D02*
X40714285Y-34032380D01*
X41000000Y-34032380D02*
X41000000Y-33032380D01*
X40904761Y-33175238D01*
X40809523Y-33270476D01*
X40714285Y-33318095D01*
%TO.C,Q1*%
X36487619Y-42825238D02*
X36440000Y-42920476D01*
X36344761Y-43015714D01*
X36201904Y-43158571D01*
X36154285Y-43253809D01*
X36154285Y-43349047D01*
X36392380Y-43301428D02*
X36344761Y-43396666D01*
X36249523Y-43491904D01*
X36059047Y-43539523D01*
X35725714Y-43539523D01*
X35535238Y-43491904D01*
X35440000Y-43396666D01*
X35392380Y-43301428D01*
X35392380Y-43110952D01*
X35440000Y-43015714D01*
X35535238Y-42920476D01*
X35725714Y-42872857D01*
X36059047Y-42872857D01*
X36249523Y-42920476D01*
X36344761Y-43015714D01*
X36392380Y-43110952D01*
X36392380Y-43301428D01*
X36392380Y-41920476D02*
X36392380Y-42491904D01*
X36392380Y-42206190D02*
X35392380Y-42206190D01*
X35535238Y-42301428D01*
X35630476Y-42396666D01*
X35678095Y-42491904D01*
%TO.C,J2*%
X30601425Y-49752380D02*
X30601425Y-50466666D01*
X30553806Y-50609523D01*
X30458568Y-50704761D01*
X30315711Y-50752380D01*
X30220473Y-50752380D01*
X31029997Y-49847619D02*
X31077616Y-49800000D01*
X31172854Y-49752380D01*
X31410949Y-49752380D01*
X31506187Y-49800000D01*
X31553806Y-49847619D01*
X31601425Y-49942857D01*
X31601425Y-50038095D01*
X31553806Y-50180952D01*
X30982378Y-50752380D01*
X31601425Y-50752380D01*
%TO.C,DPWR1*%
X30920476Y-38912380D02*
X30920476Y-37912380D01*
X31158571Y-37912380D01*
X31301428Y-37960000D01*
X31396666Y-38055238D01*
X31444285Y-38150476D01*
X31491904Y-38340952D01*
X31491904Y-38483809D01*
X31444285Y-38674285D01*
X31396666Y-38769523D01*
X31301428Y-38864761D01*
X31158571Y-38912380D01*
X30920476Y-38912380D01*
X31920476Y-38912380D02*
X31920476Y-37912380D01*
X32301428Y-37912380D01*
X32396666Y-37960000D01*
X32444285Y-38007619D01*
X32491904Y-38102857D01*
X32491904Y-38245714D01*
X32444285Y-38340952D01*
X32396666Y-38388571D01*
X32301428Y-38436190D01*
X31920476Y-38436190D01*
X32825238Y-37912380D02*
X33063333Y-38912380D01*
X33253809Y-38198095D01*
X33444285Y-38912380D01*
X33682380Y-37912380D01*
X34634761Y-38912380D02*
X34301428Y-38436190D01*
X34063333Y-38912380D02*
X34063333Y-37912380D01*
X34444285Y-37912380D01*
X34539523Y-37960000D01*
X34587142Y-38007619D01*
X34634761Y-38102857D01*
X34634761Y-38245714D01*
X34587142Y-38340952D01*
X34539523Y-38388571D01*
X34444285Y-38436190D01*
X34063333Y-38436190D01*
X35587142Y-38912380D02*
X35015714Y-38912380D01*
X35301428Y-38912380D02*
X35301428Y-37912380D01*
X35206190Y-38055238D01*
X35110952Y-38150476D01*
X35015714Y-38198095D01*
%TO.C,D2*%
X49261904Y-57452380D02*
X49261904Y-56452380D01*
X49500000Y-56452380D01*
X49642857Y-56500000D01*
X49738095Y-56595238D01*
X49785714Y-56690476D01*
X49833333Y-56880952D01*
X49833333Y-57023809D01*
X49785714Y-57214285D01*
X49738095Y-57309523D01*
X49642857Y-57404761D01*
X49500000Y-57452380D01*
X49261904Y-57452380D01*
X50214285Y-56547619D02*
X50261904Y-56500000D01*
X50357142Y-56452380D01*
X50595238Y-56452380D01*
X50690476Y-56500000D01*
X50738095Y-56547619D01*
X50785714Y-56642857D01*
X50785714Y-56738095D01*
X50738095Y-56880952D01*
X50166666Y-57452380D01*
X50785714Y-57452380D01*
%TO.C,D1*%
X45422380Y-60238095D02*
X44422380Y-60238095D01*
X44422380Y-60000000D01*
X44470000Y-59857142D01*
X44565238Y-59761904D01*
X44660476Y-59714285D01*
X44850952Y-59666666D01*
X44993809Y-59666666D01*
X45184285Y-59714285D01*
X45279523Y-59761904D01*
X45374761Y-59857142D01*
X45422380Y-60000000D01*
X45422380Y-60238095D01*
X45422380Y-58714285D02*
X45422380Y-59285714D01*
X45422380Y-59000000D02*
X44422380Y-59000000D01*
X44565238Y-59095238D01*
X44660476Y-59190476D01*
X44708095Y-59285714D01*
X44852380Y-55951904D02*
X43852380Y-55951904D01*
X44852380Y-55380476D02*
X44280952Y-55809047D01*
X43852380Y-55380476D02*
X44423809Y-55951904D01*
D11*
%TO.C,R4*%
X32080000Y-44880000D02*
X32080000Y-41040000D01*
X33920000Y-44880000D02*
X33920000Y-41040000D01*
%TO.C,R3*%
X43420000Y-49080000D02*
X43420000Y-52920000D01*
X41580000Y-49080000D02*
X41580000Y-52920000D01*
%TO.C,R2*%
X49080000Y-49080000D02*
X52920000Y-49080000D01*
X49080000Y-50920000D02*
X52920000Y-50920000D01*
%TO.C,R1*%
X38580000Y-34580000D02*
X42420000Y-34580000D01*
X38580000Y-36420000D02*
X42420000Y-36420000D01*
%TO.C,Q1*%
X41350000Y-44530000D02*
X41350000Y-40930000D01*
X36899999Y-42730000D02*
G75*
G03*
X41338478Y-44568478I2600001J0D01*
G01*
X41338478Y-40891522D02*
G75*
G03*
X36900000Y-42730000I-1838478J-1838478D01*
G01*
%TO.C,J2*%
X30464759Y-51200000D02*
X30464759Y-61700000D01*
X39464759Y-51200000D02*
X39464759Y-61700000D01*
X39464759Y-61700000D02*
X35464759Y-61700000D01*
X34464759Y-61700000D02*
X30464759Y-61700000D01*
X39464759Y-51200000D02*
X35314759Y-51200000D01*
X34614759Y-51200000D02*
X30464759Y-51200000D01*
X36764759Y-55700000D02*
G75*
G03*
X36764759Y-55700000I-1800000J0D01*
G01*
X33904759Y-48220000D02*
X33904759Y-49020000D01*
X33904759Y-48220000D02*
X34764759Y-48220000D01*
%TO.C,DPWR1*%
X31557665Y-36578608D02*
G75*
G03*
X34790000Y-36735516I1672335J1078608D01*
G01*
X34790000Y-34264484D02*
G75*
G03*
X31557665Y-34421392I-1560000J-1235516D01*
G01*
X32188870Y-36579837D02*
G75*
G03*
X34270961Y-36580000I1041130J1079837D01*
G01*
X34270961Y-34420000D02*
G75*
G03*
X32188870Y-34420163I-1040961J-1080000D01*
G01*
X34790000Y-36736000D02*
X34790000Y-36580000D01*
X34790000Y-34420000D02*
X34790000Y-34264000D01*
%TO.C,D2*%
X54167335Y-53421392D02*
G75*
G03*
X50935000Y-53264484I-1672335J-1078608D01*
G01*
X50935000Y-55735516D02*
G75*
G03*
X54167335Y-55578608I1560000J1235516D01*
G01*
X53536130Y-53420163D02*
G75*
G03*
X51454039Y-53420000I-1041130J-1079837D01*
G01*
X51454039Y-55580000D02*
G75*
G03*
X53536130Y-55579837I1040961J1080000D01*
G01*
X50935000Y-53264000D02*
X50935000Y-53420000D01*
X50935000Y-55580000D02*
X50935000Y-55736000D01*
%TO.C,D1*%
X43640000Y-56780000D02*
X43970000Y-56780000D01*
X43970000Y-56780000D02*
X43970000Y-62220000D01*
X43970000Y-62220000D02*
X43640000Y-62220000D01*
X41360000Y-56780000D02*
X41030000Y-56780000D01*
X41030000Y-56780000D02*
X41030000Y-62220000D01*
X41030000Y-62220000D02*
X41360000Y-62220000D01*
X43970000Y-57680000D02*
X41030000Y-57680000D01*
X43970000Y-57800000D02*
X41030000Y-57800000D01*
X43970000Y-57560000D02*
X41030000Y-57560000D01*
%TD*%
M02*
