%TF.GenerationSoftware,KiCad,Pcbnew,(6.0.0)*%
%TF.CreationDate,2022-02-15T15:19:30-08:00*%
%TF.ProjectId,LEDShieldPractice,4c454453-6869-4656-9c64-507261637469,rev?*%
%TF.SameCoordinates,Original*%
%TF.FileFunction,Legend,Bot*%
%TF.FilePolarity,Positive*%
%FSLAX46Y46*%
G04 Gerber Fmt 4.6, Leading zero omitted, Abs format (unit mm)*
G04 Created by KiCad (PCBNEW (6.0.0)) date 2022-02-15 15:19:30*
%MOMM*%
%LPD*%
G01*
G04 APERTURE LIST*
%ADD10C,0.150000*%
%ADD11C,0.500000*%
%ADD12C,0.120000*%
G04 APERTURE END LIST*
D10*
X44714285Y-32571428D02*
X43952380Y-32571428D01*
X42952380Y-32952380D02*
X43523809Y-32952380D01*
X43238095Y-32952380D02*
X43238095Y-31952380D01*
X43333333Y-32095238D01*
X43428571Y-32190476D01*
X43523809Y-32238095D01*
X42571428Y-32047619D02*
X42523809Y-32000000D01*
X42428571Y-31952380D01*
X42190476Y-31952380D01*
X42095238Y-32000000D01*
X42047619Y-32047619D01*
X42000000Y-32142857D01*
X42000000Y-32238095D01*
X42047619Y-32380952D01*
X42619047Y-32952380D01*
X42000000Y-32952380D01*
X41714285Y-31952380D02*
X41380952Y-32952380D01*
X41047619Y-31952380D01*
X39380952Y-32952380D02*
X39714285Y-32476190D01*
X39952380Y-32952380D02*
X39952380Y-31952380D01*
X39571428Y-31952380D01*
X39476190Y-32000000D01*
X39428571Y-32047619D01*
X39380952Y-32142857D01*
X39380952Y-32285714D01*
X39428571Y-32380952D01*
X39476190Y-32428571D01*
X39571428Y-32476190D01*
X39952380Y-32476190D01*
X38571428Y-32904761D02*
X38666666Y-32952380D01*
X38857142Y-32952380D01*
X38952380Y-32904761D01*
X39000000Y-32809523D01*
X39000000Y-32428571D01*
X38952380Y-32333333D01*
X38857142Y-32285714D01*
X38666666Y-32285714D01*
X38571428Y-32333333D01*
X38523809Y-32428571D01*
X38523809Y-32523809D01*
X39000000Y-32619047D01*
X37666666Y-32952380D02*
X37666666Y-31952380D01*
X37666666Y-32904761D02*
X37761904Y-32952380D01*
X37952380Y-32952380D01*
X38047619Y-32904761D01*
X38095238Y-32857142D01*
X38142857Y-32761904D01*
X38142857Y-32476190D01*
X38095238Y-32380952D01*
X38047619Y-32333333D01*
X37952380Y-32285714D01*
X37761904Y-32285714D01*
X37666666Y-32333333D01*
X37238095Y-32904761D02*
X37095238Y-32952380D01*
X36857142Y-32952380D01*
X36761904Y-32904761D01*
X36714285Y-32857142D01*
X36666666Y-32761904D01*
X36666666Y-32666666D01*
X36714285Y-32571428D01*
X36761904Y-32523809D01*
X36857142Y-32476190D01*
X37047619Y-32428571D01*
X37142857Y-32380952D01*
X37190476Y-32333333D01*
X37238095Y-32238095D01*
X37238095Y-32142857D01*
X37190476Y-32047619D01*
X37142857Y-32000000D01*
X37047619Y-31952380D01*
X36809523Y-31952380D01*
X36666666Y-32000000D01*
X36380952Y-32285714D02*
X36000000Y-32285714D01*
X36238095Y-31952380D02*
X36238095Y-32809523D01*
X36190476Y-32904761D01*
X36095238Y-32952380D01*
X36000000Y-32952380D01*
X35666666Y-32952380D02*
X35666666Y-32285714D01*
X35666666Y-32476190D02*
X35619047Y-32380952D01*
X35571428Y-32333333D01*
X35476190Y-32285714D01*
X35380952Y-32285714D01*
X35047619Y-32952380D02*
X35047619Y-32285714D01*
X35047619Y-31952380D02*
X35095238Y-32000000D01*
X35047619Y-32047619D01*
X35000000Y-32000000D01*
X35047619Y-31952380D01*
X35047619Y-32047619D01*
X34571428Y-32285714D02*
X34571428Y-33285714D01*
X34571428Y-32333333D02*
X34476190Y-32285714D01*
X34285714Y-32285714D01*
X34190476Y-32333333D01*
X34142857Y-32380952D01*
X34095238Y-32476190D01*
X34095238Y-32761904D01*
X34142857Y-32857142D01*
X34190476Y-32904761D01*
X34285714Y-32952380D01*
X34476190Y-32952380D01*
X34571428Y-32904761D01*
X33285714Y-32904761D02*
X33380952Y-32952380D01*
X33571428Y-32952380D01*
X33666666Y-32904761D01*
X33714285Y-32809523D01*
X33714285Y-32428571D01*
X33666666Y-32333333D01*
X33571428Y-32285714D01*
X33380952Y-32285714D01*
X33285714Y-32333333D01*
X33238095Y-32428571D01*
X33238095Y-32523809D01*
X33714285Y-32619047D01*
D11*
X32500000Y-25500000D02*
X32500000Y-33000000D01*
D10*
%TO.C,J1*%
X44357380Y-28171666D02*
X45071666Y-28171666D01*
X45214523Y-28124047D01*
X45309761Y-28028809D01*
X45357380Y-27885952D01*
X45357380Y-27790714D01*
X45357380Y-29171666D02*
X45357380Y-28600238D01*
X45357380Y-28885952D02*
X44357380Y-28885952D01*
X44500238Y-28790714D01*
X44595476Y-28695476D01*
X44643095Y-28600238D01*
%TO.C,C1*%
X51234287Y-33757142D02*
X51281906Y-33804761D01*
X51424763Y-33852380D01*
X51520001Y-33852380D01*
X51662859Y-33804761D01*
X51758097Y-33709523D01*
X51805716Y-33614285D01*
X51853335Y-33423809D01*
X51853335Y-33280952D01*
X51805716Y-33090476D01*
X51758097Y-32995238D01*
X51662859Y-32900000D01*
X51520001Y-32852380D01*
X51424763Y-32852380D01*
X51281906Y-32900000D01*
X51234287Y-32947619D01*
X50281906Y-33852380D02*
X50853335Y-33852380D01*
X50567621Y-33852380D02*
X50567621Y-32852380D01*
X50662859Y-32995238D01*
X50758097Y-33090476D01*
X50853335Y-33138095D01*
D12*
%TO.C,J1*%
X31085000Y-31105000D02*
X31085000Y-25905000D01*
X41305000Y-31105000D02*
X31085000Y-31105000D01*
X43905000Y-25905000D02*
X31085000Y-25905000D01*
X41305000Y-31105000D02*
X41305000Y-28505000D01*
X41305000Y-28505000D02*
X43905000Y-28505000D01*
X43905000Y-28505000D02*
X43905000Y-25905000D01*
X42575000Y-31105000D02*
X43905000Y-31105000D01*
X43905000Y-31105000D02*
X43905000Y-29775000D01*
%TO.C,C1*%
X54337621Y-29000000D02*
G75*
G03*
X54337621Y-29000000I-3270000J0D01*
G01*
X51067621Y-32230000D02*
X51067621Y-25770000D01*
X51107621Y-32230000D02*
X51107621Y-25770000D01*
X51147621Y-32230000D02*
X51147621Y-25770000D01*
X51187621Y-32228000D02*
X51187621Y-25772000D01*
X51227621Y-32227000D02*
X51227621Y-25773000D01*
X51267621Y-32224000D02*
X51267621Y-25776000D01*
X51307621Y-32222000D02*
X51307621Y-30040000D01*
X51307621Y-27960000D02*
X51307621Y-25778000D01*
X51347621Y-32218000D02*
X51347621Y-30040000D01*
X51347621Y-27960000D02*
X51347621Y-25782000D01*
X51387621Y-32215000D02*
X51387621Y-30040000D01*
X51387621Y-27960000D02*
X51387621Y-25785000D01*
X51427621Y-32211000D02*
X51427621Y-30040000D01*
X51427621Y-27960000D02*
X51427621Y-25789000D01*
X51467621Y-32206000D02*
X51467621Y-30040000D01*
X51467621Y-27960000D02*
X51467621Y-25794000D01*
X51507621Y-32201000D02*
X51507621Y-30040000D01*
X51507621Y-27960000D02*
X51507621Y-25799000D01*
X51547621Y-32195000D02*
X51547621Y-30040000D01*
X51547621Y-27960000D02*
X51547621Y-25805000D01*
X51587621Y-32189000D02*
X51587621Y-30040000D01*
X51587621Y-27960000D02*
X51587621Y-25811000D01*
X51627621Y-32182000D02*
X51627621Y-30040000D01*
X51627621Y-27960000D02*
X51627621Y-25818000D01*
X51667621Y-32175000D02*
X51667621Y-30040000D01*
X51667621Y-27960000D02*
X51667621Y-25825000D01*
X51707621Y-32167000D02*
X51707621Y-30040000D01*
X51707621Y-27960000D02*
X51707621Y-25833000D01*
X51747621Y-32159000D02*
X51747621Y-30040000D01*
X51747621Y-27960000D02*
X51747621Y-25841000D01*
X51788621Y-32150000D02*
X51788621Y-30040000D01*
X51788621Y-27960000D02*
X51788621Y-25850000D01*
X51828621Y-32141000D02*
X51828621Y-30040000D01*
X51828621Y-27960000D02*
X51828621Y-25859000D01*
X51868621Y-32131000D02*
X51868621Y-30040000D01*
X51868621Y-27960000D02*
X51868621Y-25869000D01*
X51908621Y-32121000D02*
X51908621Y-30040000D01*
X51908621Y-27960000D02*
X51908621Y-25879000D01*
X51948621Y-32110000D02*
X51948621Y-30040000D01*
X51948621Y-27960000D02*
X51948621Y-25890000D01*
X51988621Y-32098000D02*
X51988621Y-30040000D01*
X51988621Y-27960000D02*
X51988621Y-25902000D01*
X52028621Y-32086000D02*
X52028621Y-30040000D01*
X52028621Y-27960000D02*
X52028621Y-25914000D01*
X52068621Y-32074000D02*
X52068621Y-30040000D01*
X52068621Y-27960000D02*
X52068621Y-25926000D01*
X52108621Y-32061000D02*
X52108621Y-30040000D01*
X52108621Y-27960000D02*
X52108621Y-25939000D01*
X52148621Y-32047000D02*
X52148621Y-30040000D01*
X52148621Y-27960000D02*
X52148621Y-25953000D01*
X52188621Y-32033000D02*
X52188621Y-30040000D01*
X52188621Y-27960000D02*
X52188621Y-25967000D01*
X52228621Y-32018000D02*
X52228621Y-30040000D01*
X52228621Y-27960000D02*
X52228621Y-25982000D01*
X52268621Y-32002000D02*
X52268621Y-30040000D01*
X52268621Y-27960000D02*
X52268621Y-25998000D01*
X52308621Y-31986000D02*
X52308621Y-30040000D01*
X52308621Y-27960000D02*
X52308621Y-26014000D01*
X52348621Y-31970000D02*
X52348621Y-30040000D01*
X52348621Y-27960000D02*
X52348621Y-26030000D01*
X52388621Y-31952000D02*
X52388621Y-30040000D01*
X52388621Y-27960000D02*
X52388621Y-26048000D01*
X52428621Y-31934000D02*
X52428621Y-30040000D01*
X52428621Y-27960000D02*
X52428621Y-26066000D01*
X52468621Y-31916000D02*
X52468621Y-30040000D01*
X52468621Y-27960000D02*
X52468621Y-26084000D01*
X52508621Y-31896000D02*
X52508621Y-30040000D01*
X52508621Y-27960000D02*
X52508621Y-26104000D01*
X52548621Y-31876000D02*
X52548621Y-30040000D01*
X52548621Y-27960000D02*
X52548621Y-26124000D01*
X52588621Y-31856000D02*
X52588621Y-30040000D01*
X52588621Y-27960000D02*
X52588621Y-26144000D01*
X52628621Y-31834000D02*
X52628621Y-30040000D01*
X52628621Y-27960000D02*
X52628621Y-26166000D01*
X52668621Y-31812000D02*
X52668621Y-30040000D01*
X52668621Y-27960000D02*
X52668621Y-26188000D01*
X52708621Y-31790000D02*
X52708621Y-30040000D01*
X52708621Y-27960000D02*
X52708621Y-26210000D01*
X52748621Y-31766000D02*
X52748621Y-30040000D01*
X52748621Y-27960000D02*
X52748621Y-26234000D01*
X52788621Y-31742000D02*
X52788621Y-30040000D01*
X52788621Y-27960000D02*
X52788621Y-26258000D01*
X52828621Y-31716000D02*
X52828621Y-30040000D01*
X52828621Y-27960000D02*
X52828621Y-26284000D01*
X52868621Y-31690000D02*
X52868621Y-30040000D01*
X52868621Y-27960000D02*
X52868621Y-26310000D01*
X52908621Y-31664000D02*
X52908621Y-30040000D01*
X52908621Y-27960000D02*
X52908621Y-26336000D01*
X52948621Y-31636000D02*
X52948621Y-30040000D01*
X52948621Y-27960000D02*
X52948621Y-26364000D01*
X52988621Y-31607000D02*
X52988621Y-30040000D01*
X52988621Y-27960000D02*
X52988621Y-26393000D01*
X53028621Y-31578000D02*
X53028621Y-30040000D01*
X53028621Y-27960000D02*
X53028621Y-26422000D01*
X53068621Y-31548000D02*
X53068621Y-30040000D01*
X53068621Y-27960000D02*
X53068621Y-26452000D01*
X53108621Y-31516000D02*
X53108621Y-30040000D01*
X53108621Y-27960000D02*
X53108621Y-26484000D01*
X53148621Y-31484000D02*
X53148621Y-30040000D01*
X53148621Y-27960000D02*
X53148621Y-26516000D01*
X53188621Y-31450000D02*
X53188621Y-30040000D01*
X53188621Y-27960000D02*
X53188621Y-26550000D01*
X53228621Y-31416000D02*
X53228621Y-30040000D01*
X53228621Y-27960000D02*
X53228621Y-26584000D01*
X53268621Y-31380000D02*
X53268621Y-30040000D01*
X53268621Y-27960000D02*
X53268621Y-26620000D01*
X53308621Y-31343000D02*
X53308621Y-30040000D01*
X53308621Y-27960000D02*
X53308621Y-26657000D01*
X53348621Y-31305000D02*
X53348621Y-30040000D01*
X53348621Y-27960000D02*
X53348621Y-26695000D01*
X53388621Y-31265000D02*
X53388621Y-26735000D01*
X53428621Y-31224000D02*
X53428621Y-26776000D01*
X53468621Y-31182000D02*
X53468621Y-26818000D01*
X53508621Y-31137000D02*
X53508621Y-26863000D01*
X53548621Y-31092000D02*
X53548621Y-26908000D01*
X53588621Y-31044000D02*
X53588621Y-26956000D01*
X53628621Y-30995000D02*
X53628621Y-27005000D01*
X53668621Y-30944000D02*
X53668621Y-27056000D01*
X53708621Y-30890000D02*
X53708621Y-27110000D01*
X53748621Y-30834000D02*
X53748621Y-27166000D01*
X53788621Y-30776000D02*
X53788621Y-27224000D01*
X53828621Y-30714000D02*
X53828621Y-27286000D01*
X53868621Y-30650000D02*
X53868621Y-27350000D01*
X53908621Y-30581000D02*
X53908621Y-27419000D01*
X53948621Y-30509000D02*
X53948621Y-27491000D01*
X53988621Y-30432000D02*
X53988621Y-27568000D01*
X54028621Y-30350000D02*
X54028621Y-27650000D01*
X54068621Y-30262000D02*
X54068621Y-27738000D01*
X54108621Y-30165000D02*
X54108621Y-27835000D01*
X54148621Y-30059000D02*
X54148621Y-27941000D01*
X54188621Y-29940000D02*
X54188621Y-28060000D01*
X54228621Y-29802000D02*
X54228621Y-28198000D01*
X54268621Y-29633000D02*
X54268621Y-28367000D01*
X54308621Y-29402000D02*
X54308621Y-28598000D01*
X47567380Y-30839000D02*
X48197380Y-30839000D01*
X47882380Y-31154000D02*
X47882380Y-30524000D01*
%TD*%
M02*
