M48
; DRILL file {KiCad (6.0.0)} date Tue Feb 15 15:23:49 2022
; FORMAT={-:-/ absolute / inch / decimal}
; #@! TF.CreationDate,2022-02-15T15:23:49-08:00
; #@! TF.GenerationSoftware,Kicad,Pcbnew,(6.0.0)
; #@! TF.FileFunction,Plated,1,2,PTH
FMAT,2
INCH
; #@! TA.AperFunction,Plated,PTH,ComponentDrill
T1C0.0276
; #@! TA.AperFunction,Plated,PTH,ComponentDrill
T2C0.0295
; #@! TA.AperFunction,Plated,PTH,ComponentDrill
T3C0.0315
; #@! TA.AperFunction,Plated,PTH,ComponentDrill
T4C0.0354
; #@! TA.AperFunction,Plated,PTH,ComponentDrill
T5C0.0394
; #@! TA.AperFunction,Plated,PTH,ComponentDrill
T6C0.0480
; #@! TA.AperFunction,Plated,PTH,ComponentDrill
T7C0.0559
; #@! TA.AperFunction,Plated,PTH,ComponentDrill
T8C0.0563
%
G90
G05
T1
X1.2992Y-1.5913
X1.2992Y-1.7913
X1.4945Y-1.3976
X1.6732Y-1.9079
X1.6732Y-2.1079
X1.6945Y-1.3976
X1.9079Y-1.9685
X2.1079Y-1.9685
T2
X1.5551Y-1.6323
X1.5551Y-1.6823
X1.5551Y-1.7323
T3
X1.9613Y-1.1417
X2.0597Y-1.1417
T4
X1.2583Y-1.3976
X1.3583Y-1.3976
X1.6732Y-2.1925
X1.6732Y-2.4925
X2.0167Y-2.1457
X2.1167Y-2.1457
T5
X1.2762Y-1.0722
X1.2762Y-1.1722
X1.3762Y-1.0722
X1.3762Y-1.1722
X1.4762Y-1.0722
X1.4762Y-1.1722
X1.5762Y-1.0722
X1.5762Y-1.1722
X1.6762Y-1.0722
X1.6762Y-1.1722
T6
X1.3766Y-1.9378
T7
X1.3766Y-2.0598
T8
X1.3766Y-2.3866
T0
M30
