M48
; DRILL file {KiCad (6.0.0)} date Fri Dec 16 14:26:47 2022
; FORMAT={-:-/ absolute / inch / decimal}
; #@! TF.CreationDate,2022-12-16T14:26:47-08:00
; #@! TF.GenerationSoftware,Kicad,Pcbnew,(6.0.0)
; #@! TF.FileFunction,Plated,1,2,PTH
FMAT,2
INCH
; #@! TA.AperFunction,Plated,PTH,ComponentDrill
T1C0.0295
; #@! TA.AperFunction,Plated,PTH,ComponentDrill
T2C0.0315
; #@! TA.AperFunction,Plated,PTH,ComponentDrill
T3C0.0354
; #@! TA.AperFunction,Plated,PTH,ComponentDrill
T4C0.0394
; #@! TA.AperFunction,Plated,PTH,ComponentDrill
T5C0.0480
; #@! TA.AperFunction,Plated,PTH,ComponentDrill
T6C0.0559
; #@! TA.AperFunction,Plated,PTH,ComponentDrill
T7C0.0563
; #@! TA.AperFunction,Plated,PTH,ComponentDrill
T8C0.0866
; #@! TA.AperFunction,Plated,PTH,ComponentDrill
T9C0.1260
%
G90
G05
T1
X1.6299Y-1.2583
X1.6299Y-1.3083
X1.6299Y-1.3583
T2
X1.122Y-1.267
X1.122Y-1.3654
X1.6181Y-1.8008
X1.6189Y-1.9472
X1.8425Y-1.2354
X1.8425Y-1.6354
X1.9921Y-1.2362
X1.9921Y-1.6362
X2.0181Y-1.8008
X2.0189Y-1.9472
T3
X1.3386Y-1.5402
X1.3386Y-1.6402
X1.3941Y-1.2465
X1.3941Y-1.3465
X2.1413Y-1.2638
X2.4413Y-1.2638
T4
X1.0709Y-1.8331
X1.0709Y-1.9331
X1.1709Y-1.8331
X1.1709Y-1.9331
X1.2709Y-1.8331
X1.2709Y-1.9331
X1.3709Y-1.8331
X1.3709Y-1.9331
X1.4709Y-1.8331
X1.4709Y-1.9331
T5
X2.2835Y-1.511
T6
X2.2835Y-1.6331
T7
X2.2835Y-1.9598
T8
X1.0906Y-1.5772
T9
G00X1.2264Y-3.5614
M15
G01X1.2854Y-3.5614
M16
G05
G00X1.2283Y-2.2543
M15
G01X1.2874Y-2.2543
M16
G05
G00X2.2264Y-2.2543
M15
G01X2.2854Y-2.2543
M16
G05
G00X2.2264Y-3.5614
M15
G01X2.2854Y-3.5614
M16
G05
T0
M30
