%TF.GenerationSoftware,KiCad,Pcbnew,(6.0.0)*%
%TF.CreationDate,2022-12-16T14:26:45-08:00*%
%TF.ProjectId,LEDShieldPractice,4c454453-6869-4656-9c64-507261637469,rev?*%
%TF.SameCoordinates,Original*%
%TF.FileFunction,Soldermask,Bot*%
%TF.FilePolarity,Negative*%
%FSLAX46Y46*%
G04 Gerber Fmt 4.6, Leading zero omitted, Abs format (unit mm)*
G04 Created by KiCad (PCBNEW (6.0.0)) date 2022-12-16 14:26:45*
%MOMM*%
%LPD*%
G01*
G04 APERTURE LIST*
%ADD10C,0.500000*%
%ADD11C,2.200000*%
%ADD12C,4.500000*%
%ADD13C,6.400000*%
%ADD14O,7.000000X5.500000*%
%ADD15C,1.600000*%
%ADD16O,1.600000X1.600000*%
%ADD17C,2.600000*%
%ADD18C,3.800000*%
%ADD19R,1.800000X1.800000*%
%ADD20O,1.800000X1.800000*%
%ADD21C,2.130000*%
%ADD22R,1.930000X1.830000*%
%ADD23C,1.800000*%
%ADD24R,1.500000X1.050000*%
%ADD25O,1.500000X1.050000*%
%ADD26R,1.700000X1.700000*%
%ADD27O,1.700000X1.700000*%
%ADD28R,1.600000X1.600000*%
G04 APERTURE END LIST*
D10*
%TO.C,mouse-bite-2mm-slot*%
X44950000Y-53710000D03*
X43450000Y-53710000D03*
X43450000Y-52210000D03*
X44950000Y-52210000D03*
X44200000Y-53710000D03*
X44200000Y-52210000D03*
%TD*%
D11*
%TO.C,REF\u002A\u002A*%
X27800000Y-72960000D03*
%TD*%
D12*
%TO.C,REF\u002A\u002A*%
X35500000Y-65960000D03*
%TD*%
%TO.C,REF\u002A\u002A*%
X34100000Y-73460000D03*
%TD*%
D13*
%TO.C,REF\u002A\u002A*%
X58100000Y-78060000D03*
%TD*%
D14*
%TO.C,H1*%
X57300000Y-90460000D03*
%TD*%
%TO.C,H4*%
X31900000Y-90460000D03*
%TD*%
%TO.C,H3*%
X31950000Y-57260000D03*
%TD*%
%TO.C,H2*%
X57300000Y-57260000D03*
%TD*%
D15*
%TO.C,R4*%
X46800000Y-41540000D03*
D16*
X46800000Y-31380000D03*
%TD*%
D15*
%TO.C,R2*%
X51260000Y-45740000D03*
D16*
X41100000Y-45740000D03*
%TD*%
D17*
%TO.C,REF\u002A\u002A*%
X27700000Y-40060000D03*
D18*
X27700000Y-40060000D03*
%TD*%
D15*
%TO.C,R1*%
X41120000Y-49460000D03*
D16*
X51280000Y-49460000D03*
%TD*%
D15*
%TO.C,R3*%
X50600000Y-41560000D03*
D16*
X50600000Y-31400000D03*
%TD*%
D19*
%TO.C,D1*%
X54390000Y-32100000D03*
D20*
X62010000Y-32100000D03*
%TD*%
D21*
%TO.C,J2*%
X58000000Y-41480000D03*
X58000000Y-49780000D03*
D22*
X58000000Y-38380000D03*
%TD*%
D19*
%TO.C,DPWR1*%
X34000000Y-41660000D03*
D23*
X34000000Y-39120000D03*
%TD*%
D24*
%TO.C,Q1*%
X41400000Y-31960000D03*
D25*
X41400000Y-33230000D03*
X41400000Y-34500000D03*
%TD*%
D19*
%TO.C,D2*%
X35410000Y-34200000D03*
D23*
X35410000Y-31660000D03*
%TD*%
D26*
%TO.C,J1*%
X27200000Y-46560000D03*
D27*
X27200000Y-49100000D03*
X29740000Y-46560000D03*
X29740000Y-49100000D03*
X32280000Y-46560000D03*
X32280000Y-49100000D03*
X34820000Y-46560000D03*
X34820000Y-49100000D03*
X37360000Y-46560000D03*
X37360000Y-49100000D03*
%TD*%
D28*
%TO.C,C1*%
X28500000Y-34682379D03*
D15*
X28500000Y-32182379D03*
%TD*%
M02*
