%TF.GenerationSoftware,KiCad,Pcbnew,(6.0.0)*%
%TF.CreationDate,2022-12-16T14:26:45-08:00*%
%TF.ProjectId,LEDShieldPractice,4c454453-6869-4656-9c64-507261637469,rev?*%
%TF.SameCoordinates,Original*%
%TF.FileFunction,Copper,L1,Top*%
%TF.FilePolarity,Positive*%
%FSLAX46Y46*%
G04 Gerber Fmt 4.6, Leading zero omitted, Abs format (unit mm)*
G04 Created by KiCad (PCBNEW (6.0.0)) date 2022-12-16 14:26:45*
%MOMM*%
%LPD*%
G01*
G04 APERTURE LIST*
%TA.AperFunction,ComponentPad*%
%ADD10O,7.000000X5.500000*%
%TD*%
%TA.AperFunction,ComponentPad*%
%ADD11C,1.600000*%
%TD*%
%TA.AperFunction,ComponentPad*%
%ADD12O,1.600000X1.600000*%
%TD*%
%TA.AperFunction,ComponentPad*%
%ADD13C,2.600000*%
%TD*%
%TA.AperFunction,ConnectorPad*%
%ADD14C,3.800000*%
%TD*%
%TA.AperFunction,ComponentPad*%
%ADD15R,1.800000X1.800000*%
%TD*%
%TA.AperFunction,ComponentPad*%
%ADD16O,1.800000X1.800000*%
%TD*%
%TA.AperFunction,ComponentPad*%
%ADD17C,2.130000*%
%TD*%
%TA.AperFunction,ComponentPad*%
%ADD18R,1.930000X1.830000*%
%TD*%
%TA.AperFunction,ComponentPad*%
%ADD19C,1.800000*%
%TD*%
%TA.AperFunction,ComponentPad*%
%ADD20R,1.500000X1.050000*%
%TD*%
%TA.AperFunction,ComponentPad*%
%ADD21O,1.500000X1.050000*%
%TD*%
%TA.AperFunction,ComponentPad*%
%ADD22R,1.700000X1.700000*%
%TD*%
%TA.AperFunction,ComponentPad*%
%ADD23O,1.700000X1.700000*%
%TD*%
%TA.AperFunction,ComponentPad*%
%ADD24R,1.600000X1.600000*%
%TD*%
%TA.AperFunction,Conductor*%
%ADD25C,0.250000*%
%TD*%
G04 APERTURE END LIST*
%TO.C,G\u002A\u002A\u002A*%
G36*
X39633526Y-85637373D02*
G01*
X39586899Y-85586658D01*
X40310845Y-85586658D01*
X40334911Y-85712440D01*
X40385960Y-85816458D01*
X40439445Y-85797564D01*
X40499842Y-85644443D01*
X40571624Y-85345776D01*
X40658670Y-84893558D01*
X40733422Y-84446471D01*
X40775806Y-84122660D01*
X40787279Y-83929880D01*
X40769295Y-83875887D01*
X40723311Y-83968438D01*
X40650781Y-84215288D01*
X40583244Y-84491606D01*
X40495182Y-84859235D01*
X40415865Y-85167153D01*
X40355601Y-85376610D01*
X40329693Y-85444863D01*
X40310845Y-85586658D01*
X39586899Y-85586658D01*
X39353253Y-85332526D01*
X39181639Y-85176396D01*
X40018115Y-85176396D01*
X40057485Y-85260570D01*
X40124737Y-85304882D01*
X40188287Y-85252871D01*
X40255868Y-85086222D01*
X40335213Y-84786621D01*
X40420330Y-84401189D01*
X40491049Y-83982157D01*
X40530226Y-83570181D01*
X40536441Y-83208714D01*
X40508272Y-82941205D01*
X40471407Y-82839161D01*
X40429444Y-82863736D01*
X40378643Y-83034955D01*
X40324805Y-83330763D01*
X40304368Y-83474161D01*
X40242607Y-83883344D01*
X40168851Y-84294406D01*
X40097190Y-84630053D01*
X40084272Y-84681627D01*
X40018847Y-84988200D01*
X40018115Y-85176396D01*
X39181639Y-85176396D01*
X38982768Y-84995468D01*
X38614771Y-84688888D01*
X39596517Y-84688888D01*
X39626949Y-84827008D01*
X39629324Y-84830058D01*
X39727566Y-84917894D01*
X39806791Y-84895768D01*
X39880196Y-84745911D01*
X39960982Y-84450559D01*
X39983577Y-84353231D01*
X40083816Y-83837067D01*
X40150968Y-83332822D01*
X40183259Y-82874296D01*
X40178916Y-82495288D01*
X40138068Y-82241421D01*
X41049960Y-82241421D01*
X41072563Y-82546562D01*
X41131532Y-82894166D01*
X41213611Y-83228229D01*
X41305543Y-83492748D01*
X41374877Y-83613996D01*
X41511017Y-83720435D01*
X41758425Y-83872361D01*
X42074525Y-84044516D01*
X42245764Y-84130646D01*
X42975902Y-84487524D01*
X44226406Y-84496811D01*
X45476911Y-84506099D01*
X46194702Y-84194348D01*
X46432840Y-84081527D01*
X47487862Y-84081527D01*
X47495101Y-84352311D01*
X47534323Y-84783187D01*
X47571662Y-85107446D01*
X47627456Y-85540604D01*
X47673921Y-85823825D01*
X47716874Y-85975822D01*
X47762132Y-86015314D01*
X47815516Y-85961015D01*
X47829589Y-85937167D01*
X47858804Y-85737845D01*
X47804347Y-85397361D01*
X47781562Y-85305545D01*
X47709213Y-84968378D01*
X47662366Y-84636323D01*
X47652664Y-84473603D01*
X47632276Y-84222386D01*
X47583430Y-84031502D01*
X47569294Y-84004558D01*
X47512595Y-83966916D01*
X47487862Y-84081527D01*
X46432840Y-84081527D01*
X46526157Y-84037317D01*
X46804518Y-83881453D01*
X46987077Y-83751689D01*
X47010249Y-83726404D01*
X47758308Y-83726404D01*
X47785460Y-84206822D01*
X47861925Y-84787472D01*
X47922865Y-85132347D01*
X47981762Y-85402769D01*
X48033799Y-85530696D01*
X48092688Y-85541714D01*
X48127063Y-85513347D01*
X48175547Y-85430546D01*
X48192639Y-85289889D01*
X48177914Y-85057864D01*
X48130950Y-84700959D01*
X48115474Y-84597225D01*
X48060480Y-84188385D01*
X48018278Y-83788656D01*
X47995552Y-83465448D01*
X48166885Y-83465448D01*
X48204575Y-84015467D01*
X48250168Y-84385558D01*
X48310798Y-84790657D01*
X48360212Y-85050596D01*
X48408143Y-85188246D01*
X48464326Y-85226478D01*
X48538494Y-85188164D01*
X48577470Y-85154638D01*
X48650659Y-85069878D01*
X48682342Y-84958031D01*
X48674929Y-84775516D01*
X48630832Y-84478749D01*
X48618808Y-84407622D01*
X48565664Y-84021396D01*
X48519783Y-83554809D01*
X48489620Y-83096826D01*
X48486133Y-83011725D01*
X48471646Y-82648433D01*
X48465693Y-82569928D01*
X48670344Y-82569928D01*
X48674539Y-82972360D01*
X48691836Y-83399204D01*
X48720410Y-83821046D01*
X48758434Y-84208475D01*
X48804084Y-84532077D01*
X48855535Y-84762441D01*
X48910961Y-84870153D01*
X48944616Y-84864436D01*
X48977742Y-84733576D01*
X48979621Y-84443024D01*
X48950323Y-83999502D01*
X48933463Y-83817004D01*
X48893645Y-83355308D01*
X48861886Y-82884791D01*
X48842283Y-82472090D01*
X48838808Y-82303699D01*
X49026819Y-82303699D01*
X49037601Y-82746539D01*
X49059560Y-83221007D01*
X49091758Y-83692841D01*
X49133256Y-84127781D01*
X49145444Y-84230521D01*
X49202319Y-84509201D01*
X49275417Y-84625163D01*
X49353442Y-84582771D01*
X49425101Y-84386388D01*
X49472268Y-84104249D01*
X49488230Y-83686244D01*
X49459460Y-83155267D01*
X49390561Y-82560336D01*
X49286131Y-81950467D01*
X49256971Y-81810458D01*
X49195937Y-81558015D01*
X49147327Y-81450666D01*
X49097492Y-81466193D01*
X49070910Y-81507562D01*
X49042535Y-81649949D01*
X49028151Y-81926749D01*
X49026819Y-82303699D01*
X48838808Y-82303699D01*
X48837997Y-82264408D01*
X48829354Y-81950938D01*
X48804105Y-81797282D01*
X48760651Y-81794586D01*
X48754627Y-81803225D01*
X48708563Y-81955948D01*
X48681077Y-82221320D01*
X48670344Y-82569928D01*
X48465693Y-82569928D01*
X48455105Y-82430297D01*
X48429428Y-82333215D01*
X48387533Y-82333084D01*
X48322341Y-82405800D01*
X48312009Y-82419058D01*
X48221460Y-82639954D01*
X48172799Y-82997847D01*
X48166885Y-83465448D01*
X47995552Y-83465448D01*
X47995453Y-83464042D01*
X47993226Y-83371886D01*
X47989983Y-83127111D01*
X47971699Y-83028651D01*
X47924154Y-83053490D01*
X47854736Y-83147746D01*
X47781167Y-83366589D01*
X47758308Y-83726404D01*
X47010249Y-83726404D01*
X47026337Y-83708849D01*
X47086414Y-83564899D01*
X47165804Y-83308848D01*
X47250669Y-82994654D01*
X47327176Y-82676273D01*
X47381488Y-82407662D01*
X47399960Y-82251770D01*
X47344068Y-82280136D01*
X47197052Y-82400359D01*
X46989897Y-82586981D01*
X46975096Y-82600797D01*
X46694221Y-82836980D01*
X46397048Y-83046059D01*
X46191929Y-83160857D01*
X45764145Y-83284739D01*
X45268968Y-83321403D01*
X44785035Y-83269356D01*
X44526605Y-83192471D01*
X44269008Y-83110767D01*
X44054162Y-83112869D01*
X43873138Y-83162233D01*
X43300132Y-83265693D01*
X42718636Y-83213299D01*
X42158824Y-83014058D01*
X41650871Y-82676976D01*
X41391638Y-82421550D01*
X41204934Y-82215148D01*
X41102214Y-82125588D01*
X41058787Y-82139854D01*
X41049960Y-82241421D01*
X40138068Y-82241421D01*
X40136166Y-82229600D01*
X40099207Y-82148911D01*
X40034660Y-82069653D01*
X39991695Y-82072241D01*
X39960857Y-82181036D01*
X39932690Y-82420401D01*
X39914096Y-82625852D01*
X39865102Y-83045498D01*
X39790377Y-83529293D01*
X39705491Y-83977166D01*
X39699577Y-84004558D01*
X39620325Y-84419448D01*
X39596517Y-84688888D01*
X38614771Y-84688888D01*
X38509960Y-84601570D01*
X38399237Y-84501441D01*
X39244702Y-84501441D01*
X39288757Y-84582978D01*
X39357784Y-84541102D01*
X39404899Y-84429626D01*
X39470870Y-84196394D01*
X39543440Y-83886100D01*
X39562987Y-83792891D01*
X39638008Y-83370277D01*
X39698123Y-82924216D01*
X39741084Y-82488293D01*
X39764642Y-82096092D01*
X39766549Y-81781199D01*
X39746105Y-81591558D01*
X40372627Y-81591558D01*
X40414960Y-81633891D01*
X40457294Y-81591558D01*
X40414960Y-81549225D01*
X40372627Y-81591558D01*
X39746105Y-81591558D01*
X39744557Y-81577197D01*
X39715205Y-81519197D01*
X39673792Y-81516508D01*
X39637782Y-81578816D01*
X39603280Y-81727488D01*
X39566392Y-81983891D01*
X39523223Y-82369391D01*
X39478224Y-82819225D01*
X39428489Y-83224710D01*
X39358793Y-83669671D01*
X39312456Y-83917253D01*
X39252358Y-84276164D01*
X39244702Y-84501441D01*
X38399237Y-84501441D01*
X38047367Y-84183238D01*
X37665161Y-83737924D01*
X37347221Y-83236393D01*
X37290340Y-83112640D01*
X38004916Y-83112640D01*
X38027727Y-83348329D01*
X38065067Y-83446776D01*
X38129496Y-83431832D01*
X38188434Y-83284434D01*
X38396063Y-83284434D01*
X38399426Y-83615937D01*
X38449967Y-83843907D01*
X38509960Y-83919799D01*
X38572024Y-83934896D01*
X38616889Y-83871309D01*
X38627914Y-83817898D01*
X38839373Y-83817898D01*
X38849383Y-84103043D01*
X38892506Y-84270623D01*
X38905071Y-84286780D01*
X38976777Y-84332572D01*
X39035661Y-84294791D01*
X39089326Y-84152646D01*
X39145370Y-83885350D01*
X39211396Y-83472112D01*
X39217199Y-83433058D01*
X39303258Y-82809487D01*
X39367486Y-82255638D01*
X39408522Y-81790933D01*
X39425008Y-81434793D01*
X39415584Y-81206639D01*
X39378890Y-81125892D01*
X39378716Y-81125891D01*
X39295615Y-81205107D01*
X39207451Y-81421525D01*
X39118996Y-81743298D01*
X39035022Y-82138582D01*
X38960300Y-82575529D01*
X38899604Y-83022295D01*
X38857704Y-83447033D01*
X38839373Y-83817898D01*
X38627914Y-83817898D01*
X38651692Y-83702697D01*
X38683568Y-83402717D01*
X38698338Y-83224434D01*
X38747866Y-82774781D01*
X38822847Y-82292487D01*
X38908520Y-81870286D01*
X38923650Y-81808953D01*
X39009872Y-81478606D01*
X39086822Y-81195415D01*
X39139641Y-81013871D01*
X39144525Y-80998891D01*
X39170200Y-80898369D01*
X39125960Y-80919693D01*
X39026228Y-81027979D01*
X38874172Y-81265648D01*
X38732823Y-81604078D01*
X38608258Y-82009221D01*
X38506558Y-82447027D01*
X38433800Y-82883448D01*
X38396063Y-83284434D01*
X38188434Y-83284434D01*
X38188568Y-83284098D01*
X38231777Y-83040040D01*
X38247521Y-82813425D01*
X38297688Y-82435894D01*
X38419835Y-81968800D01*
X38597776Y-81467148D01*
X38740236Y-81138916D01*
X38855847Y-80879031D01*
X38899290Y-80722174D01*
X38877243Y-80621516D01*
X38823342Y-80556321D01*
X38742351Y-80498242D01*
X38668384Y-80527943D01*
X38573383Y-80669764D01*
X38473970Y-80859374D01*
X38321000Y-81206396D01*
X38180605Y-81598135D01*
X38128255Y-81777257D01*
X38068665Y-82079284D01*
X38027101Y-82432761D01*
X38005279Y-82792332D01*
X38004916Y-83112640D01*
X37290340Y-83112640D01*
X37077425Y-82649407D01*
X36865466Y-82023914D01*
X37590032Y-82023914D01*
X37601916Y-82475505D01*
X37684460Y-82790634D01*
X37739908Y-82899505D01*
X37776676Y-82912487D01*
X37804036Y-82808175D01*
X37831258Y-82565162D01*
X37844465Y-82421217D01*
X37893570Y-82042806D01*
X37966852Y-81664312D01*
X38035924Y-81408656D01*
X38163694Y-81079942D01*
X38318398Y-80750033D01*
X38369066Y-80656563D01*
X38564923Y-80314234D01*
X38365850Y-80164073D01*
X38243149Y-80080739D01*
X38163484Y-80084621D01*
X38086859Y-80200023D01*
X38002758Y-80384701D01*
X37795464Y-80940637D01*
X37656218Y-81499666D01*
X37590032Y-82023914D01*
X36865466Y-82023914D01*
X36839650Y-81947732D01*
X36646581Y-81222436D01*
X36597800Y-81054545D01*
X37269951Y-81054545D01*
X37279963Y-81499371D01*
X37284112Y-81526968D01*
X37347818Y-81930225D01*
X37502977Y-81312655D01*
X37612649Y-80935390D01*
X37746439Y-80557601D01*
X37865448Y-80282336D01*
X37981386Y-80042599D01*
X37983046Y-80037161D01*
X39088237Y-80037161D01*
X39545974Y-80518026D01*
X39790952Y-80785321D01*
X40008441Y-81039977D01*
X40154666Y-81230555D01*
X40163148Y-81243286D01*
X40280344Y-81394284D01*
X40338986Y-81396188D01*
X40339291Y-81246252D01*
X40281474Y-80941734D01*
X40209844Y-80647981D01*
X40094229Y-80227150D01*
X39951088Y-79746496D01*
X39858032Y-79455400D01*
X40930591Y-79455400D01*
X40940150Y-79856660D01*
X40963111Y-80167992D01*
X41003287Y-80429050D01*
X41064492Y-80679486D01*
X41115809Y-80850434D01*
X41370073Y-81457894D01*
X41708356Y-81959968D01*
X42112897Y-82345531D01*
X42565932Y-82603452D01*
X43049700Y-82722604D01*
X43546439Y-82691860D01*
X43878705Y-82581394D01*
X44082963Y-82497493D01*
X44231641Y-82479394D01*
X44398388Y-82531701D01*
X44591554Y-82625947D01*
X45084710Y-82790783D01*
X45579081Y-82794464D01*
X45915900Y-82698681D01*
X46289538Y-82477007D01*
X46667829Y-82140866D01*
X46914424Y-81845558D01*
X47992627Y-81845558D01*
X48034960Y-81887891D01*
X48077294Y-81845558D01*
X48034960Y-81803225D01*
X47992627Y-81845558D01*
X46914424Y-81845558D01*
X47004767Y-81737368D01*
X47110450Y-81560526D01*
X48103875Y-81560526D01*
X48121135Y-81605023D01*
X48192191Y-81570304D01*
X48334814Y-81444494D01*
X48497462Y-81284080D01*
X49334491Y-81284080D01*
X49361479Y-81473626D01*
X49403393Y-81655058D01*
X49483111Y-82024634D01*
X49554036Y-82469117D01*
X49611141Y-82940163D01*
X49649402Y-83389425D01*
X49663791Y-83768557D01*
X49649848Y-84025725D01*
X49634792Y-84258774D01*
X49689169Y-84338140D01*
X49814065Y-84265067D01*
X49838360Y-84241625D01*
X49894453Y-84097492D01*
X49927639Y-83829071D01*
X49937732Y-83479874D01*
X49924545Y-83093416D01*
X49887892Y-82713209D01*
X49845990Y-82463559D01*
X49767431Y-82155279D01*
X49663518Y-81834947D01*
X49550650Y-81543927D01*
X49445224Y-81323584D01*
X49363640Y-81215283D01*
X49349270Y-81210558D01*
X49334491Y-81284080D01*
X48497462Y-81284080D01*
X48566777Y-81215717D01*
X48709458Y-81071408D01*
X49566982Y-81071408D01*
X49611411Y-81225598D01*
X49716830Y-81474209D01*
X49986883Y-82281956D01*
X50105319Y-83145273D01*
X50111986Y-83394892D01*
X50116630Y-83690024D01*
X50132291Y-83841058D01*
X50166913Y-83873198D01*
X50228440Y-83811651D01*
X50238986Y-83797876D01*
X50313755Y-83612941D01*
X50354104Y-83292027D01*
X50363294Y-82938961D01*
X50323583Y-82363238D01*
X50214179Y-81783679D01*
X50049675Y-81264242D01*
X49917332Y-80984229D01*
X49820887Y-80859631D01*
X49715412Y-80874746D01*
X49664360Y-80909213D01*
X49586048Y-80981196D01*
X49566982Y-81071408D01*
X48709458Y-81071408D01*
X48752626Y-81027747D01*
X49026620Y-80749674D01*
X50064170Y-80749674D01*
X50110047Y-80927406D01*
X50217816Y-81213494D01*
X50238482Y-81265249D01*
X50397617Y-81751369D01*
X50487794Y-82270721D01*
X50513840Y-82591301D01*
X50547038Y-82973907D01*
X50592109Y-83192847D01*
X50647222Y-83246770D01*
X50710544Y-83134325D01*
X50780243Y-82854159D01*
X50791416Y-82796076D01*
X50819964Y-82387970D01*
X50782649Y-81887716D01*
X50686616Y-81355953D01*
X50574640Y-80955595D01*
X50456305Y-80649388D01*
X50348260Y-80496307D01*
X50234819Y-80482148D01*
X50134168Y-80556731D01*
X50074205Y-80639661D01*
X50064170Y-80749674D01*
X49026620Y-80749674D01*
X49443739Y-80326344D01*
X49420559Y-80239418D01*
X50583549Y-80239418D01*
X50605398Y-80438076D01*
X50695803Y-80758664D01*
X50742923Y-80902119D01*
X50847580Y-81258673D01*
X50923593Y-81603037D01*
X50955738Y-81865216D01*
X50955960Y-81881653D01*
X50977985Y-82116432D01*
X51032639Y-82219041D01*
X51102795Y-82176297D01*
X51156596Y-82036058D01*
X51191204Y-81766656D01*
X51181105Y-81430279D01*
X51134624Y-81065967D01*
X51060085Y-80712756D01*
X50965810Y-80409684D01*
X50860125Y-80195789D01*
X50751353Y-80110109D01*
X50745888Y-80109891D01*
X50630349Y-80138189D01*
X50583549Y-80239418D01*
X49420559Y-80239418D01*
X49318922Y-79858284D01*
X49238414Y-79549566D01*
X49168376Y-79269476D01*
X49139579Y-79147401D01*
X49090207Y-78988266D01*
X49047075Y-78942588D01*
X49046482Y-78943147D01*
X48997359Y-79040817D01*
X48905262Y-79264117D01*
X48782840Y-79578742D01*
X48642741Y-79950385D01*
X48497617Y-80344740D01*
X48360115Y-80727501D01*
X48242886Y-81064362D01*
X48158579Y-81321016D01*
X48122638Y-81448687D01*
X48103875Y-81560526D01*
X47110450Y-81560526D01*
X47241509Y-81341221D01*
X47470693Y-80778142D01*
X47623197Y-80198011D01*
X47706033Y-79558647D01*
X47726213Y-78817866D01*
X47717998Y-78474861D01*
X47715674Y-78425667D01*
X49263218Y-78425667D01*
X49263875Y-78750718D01*
X49331423Y-79170107D01*
X49439501Y-79610864D01*
X49538237Y-79949483D01*
X49615515Y-80142602D01*
X49681561Y-80211063D01*
X49726578Y-80195982D01*
X49776587Y-80111044D01*
X49773949Y-79956057D01*
X49716089Y-79692847D01*
X49684819Y-79577110D01*
X49590051Y-79179170D01*
X49507686Y-78738279D01*
X49473633Y-78498367D01*
X49436778Y-78215002D01*
X49405284Y-78079975D01*
X49370242Y-78072894D01*
X49326935Y-78162558D01*
X49263218Y-78425667D01*
X47715674Y-78425667D01*
X47693493Y-77956044D01*
X47655267Y-77540554D01*
X47592683Y-77162415D01*
X47495105Y-76755650D01*
X47369677Y-76314287D01*
X47232330Y-75829376D01*
X47142144Y-75447373D01*
X47089812Y-75111545D01*
X47066026Y-74765159D01*
X47063149Y-74564225D01*
X47493477Y-74564225D01*
X47511227Y-74771064D01*
X47565690Y-75087117D01*
X47649181Y-75483329D01*
X47754013Y-75930645D01*
X47872499Y-76400011D01*
X47996953Y-76862374D01*
X48119689Y-77288678D01*
X48233020Y-77649871D01*
X48329259Y-77916897D01*
X48400721Y-78060702D01*
X48422921Y-78077476D01*
X48477460Y-78005696D01*
X48489412Y-77975783D01*
X49619192Y-77975783D01*
X49657190Y-78495325D01*
X49746110Y-79063992D01*
X49821910Y-79408708D01*
X49910134Y-79732113D01*
X49982838Y-79906180D01*
X50048674Y-79949169D01*
X50071895Y-79936462D01*
X50081809Y-79918178D01*
X51028922Y-79918178D01*
X51069832Y-80155491D01*
X51172880Y-80490891D01*
X51272114Y-80783312D01*
X51347484Y-81007916D01*
X51384485Y-81121431D01*
X51385751Y-81125891D01*
X51415169Y-81085536D01*
X51472889Y-80930970D01*
X51481753Y-80903863D01*
X51520571Y-80674720D01*
X51488701Y-80397180D01*
X51428411Y-80163030D01*
X51329500Y-79865374D01*
X51242288Y-79718906D01*
X51150914Y-79707739D01*
X51058433Y-79792391D01*
X51028922Y-79918178D01*
X50081809Y-79918178D01*
X50121078Y-79845760D01*
X50120370Y-79671905D01*
X50068913Y-79378428D01*
X50057521Y-79325312D01*
X50002837Y-79010017D01*
X49949121Y-78590968D01*
X49904137Y-78133609D01*
X49884453Y-77866225D01*
X49858274Y-77462819D01*
X49836549Y-77208585D01*
X49813632Y-77083660D01*
X49783877Y-77068185D01*
X49741639Y-77142297D01*
X49703940Y-77231225D01*
X49634111Y-77542154D01*
X49619192Y-77975783D01*
X48489412Y-77975783D01*
X48548302Y-77828397D01*
X48561252Y-77787784D01*
X48606037Y-77559657D01*
X48560423Y-77365638D01*
X48478545Y-77216284D01*
X48193824Y-76665262D01*
X47936402Y-76005892D01*
X47728842Y-75299092D01*
X47666013Y-75022444D01*
X47590350Y-74673781D01*
X47539096Y-74481986D01*
X47508448Y-74436963D01*
X47494604Y-74528613D01*
X47493477Y-74564225D01*
X47063149Y-74564225D01*
X47061294Y-74434621D01*
X47067738Y-74145568D01*
X47744868Y-74145568D01*
X47782755Y-74593387D01*
X47873412Y-75101285D01*
X48011332Y-75637785D01*
X48191011Y-76171408D01*
X48386848Y-76629381D01*
X48542298Y-76938332D01*
X48648672Y-77109126D01*
X48720516Y-77160533D01*
X48767472Y-77120597D01*
X48777641Y-77025249D01*
X50030869Y-77025249D01*
X50044633Y-77450437D01*
X50049491Y-77565107D01*
X50083900Y-78138597D01*
X50132885Y-78651129D01*
X50192797Y-79080919D01*
X50259987Y-79406186D01*
X50330809Y-79605145D01*
X50399768Y-79656761D01*
X50465161Y-79559203D01*
X50461579Y-79506641D01*
X50450236Y-79389781D01*
X50435190Y-79130965D01*
X50417695Y-78757500D01*
X50399009Y-78296692D01*
X50380387Y-77775845D01*
X50376379Y-77654558D01*
X50350476Y-76858617D01*
X50533185Y-76858617D01*
X50538802Y-77595798D01*
X50555779Y-78218833D01*
X50583269Y-78717198D01*
X50620423Y-79080373D01*
X50666394Y-79297835D01*
X50720334Y-79359062D01*
X50732731Y-79350626D01*
X51398591Y-79350626D01*
X51417840Y-79528583D01*
X51497170Y-79792238D01*
X51589174Y-80063851D01*
X51662096Y-80281736D01*
X51688977Y-80363891D01*
X51732914Y-80444206D01*
X51795206Y-80373298D01*
X51806495Y-80353504D01*
X51833038Y-80167675D01*
X51786322Y-79851802D01*
X51754953Y-79722045D01*
X51669956Y-79411003D01*
X51606802Y-79239666D01*
X51549042Y-79182789D01*
X51480229Y-79215130D01*
X51445769Y-79247549D01*
X51398591Y-79350626D01*
X50732731Y-79350626D01*
X50733862Y-79349856D01*
X50780440Y-79210517D01*
X50794982Y-78938931D01*
X50784739Y-78689531D01*
X50757098Y-78118290D01*
X50746260Y-77472376D01*
X50746581Y-77433708D01*
X50903480Y-77433708D01*
X50912383Y-77873924D01*
X50931415Y-78268086D01*
X50959512Y-78586810D01*
X50995611Y-78800714D01*
X51038649Y-78880416D01*
X51047635Y-78877893D01*
X51053190Y-78869366D01*
X51697570Y-78869366D01*
X51783259Y-79190005D01*
X51805770Y-79250998D01*
X51900599Y-79533049D01*
X51962042Y-79777895D01*
X51974653Y-79877966D01*
X51984453Y-80009577D01*
X52032878Y-79990745D01*
X52099830Y-79905702D01*
X52182217Y-79673419D01*
X52171591Y-79524702D01*
X52106855Y-79313005D01*
X52003319Y-79036956D01*
X51956500Y-78924558D01*
X51851523Y-78705453D01*
X51779293Y-78627533D01*
X51720343Y-78670900D01*
X51715856Y-78678590D01*
X51697570Y-78869366D01*
X51053190Y-78869366D01*
X51112918Y-78777689D01*
X51202583Y-78568380D01*
X51265053Y-78391754D01*
X51319438Y-78185865D01*
X51338546Y-78066510D01*
X51904166Y-78066510D01*
X51921372Y-78248522D01*
X51997806Y-78516719D01*
X52091789Y-78754430D01*
X52207145Y-79028582D01*
X52286927Y-79250839D01*
X52311923Y-79358478D01*
X52330659Y-79425048D01*
X52396440Y-79347891D01*
X52440224Y-79177459D01*
X52427045Y-78966891D01*
X52357296Y-78745191D01*
X52236867Y-78457745D01*
X52154905Y-78289558D01*
X52030212Y-78060346D01*
X51958031Y-77967942D01*
X51919524Y-77995587D01*
X51904166Y-78066510D01*
X51338546Y-78066510D01*
X51360827Y-77927337D01*
X51391271Y-77590028D01*
X51406963Y-77268063D01*
X51987608Y-77268063D01*
X52018977Y-77522629D01*
X52162291Y-77892579D01*
X52282324Y-78133651D01*
X52454475Y-78433205D01*
X52575750Y-78589285D01*
X52638668Y-78600558D01*
X52635747Y-78465689D01*
X52559508Y-78183347D01*
X52559408Y-78183040D01*
X52458391Y-77919004D01*
X52316252Y-77602111D01*
X52237186Y-77442891D01*
X52112602Y-77208413D01*
X52043746Y-77109927D01*
X52009413Y-77132581D01*
X51988398Y-77261520D01*
X51987608Y-77268063D01*
X51406963Y-77268063D01*
X51412825Y-77147795D01*
X51427541Y-76574496D01*
X51430888Y-76365179D01*
X51964251Y-76365179D01*
X51971884Y-76471981D01*
X52038255Y-76663052D01*
X52158650Y-76915533D01*
X52271686Y-77115133D01*
X52434796Y-77402360D01*
X52564892Y-77661739D01*
X52629324Y-77823891D01*
X52673349Y-77963619D01*
X52698681Y-77946910D01*
X52714897Y-77857192D01*
X52696493Y-77686920D01*
X52620511Y-77427701D01*
X52529343Y-77196710D01*
X52384527Y-76897177D01*
X52234300Y-76629534D01*
X52144044Y-76495824D01*
X52020068Y-76365506D01*
X51964251Y-76365179D01*
X51430888Y-76365179D01*
X51432601Y-76258033D01*
X51442364Y-75727659D01*
X51975005Y-75727659D01*
X52029740Y-75947346D01*
X52180042Y-76224388D01*
X52262050Y-76339798D01*
X52437308Y-76587790D01*
X52572455Y-76811989D01*
X52618772Y-76912031D01*
X52670427Y-77046698D01*
X52696482Y-77024526D01*
X52714381Y-76922799D01*
X52696633Y-76739347D01*
X52618183Y-76486557D01*
X52569211Y-76372466D01*
X52413498Y-76084423D01*
X52236956Y-75814839D01*
X52186556Y-75749558D01*
X51978050Y-75495558D01*
X51975005Y-75727659D01*
X51442364Y-75727659D01*
X51442389Y-75726279D01*
X51455892Y-75241274D01*
X51467297Y-74950551D01*
X51974653Y-74950551D01*
X52019877Y-75221418D01*
X52185079Y-75455380D01*
X52219808Y-75489664D01*
X52413519Y-75715643D01*
X52561902Y-75956713D01*
X52574784Y-75985745D01*
X52653854Y-76131298D01*
X52709921Y-76155109D01*
X52715376Y-76143978D01*
X52697895Y-76021669D01*
X52619972Y-75797057D01*
X52498420Y-75518522D01*
X52497013Y-75515570D01*
X52348295Y-75219728D01*
X52207267Y-74965763D01*
X52111266Y-74818225D01*
X52022623Y-74718019D01*
X51984781Y-74739448D01*
X51975135Y-74904408D01*
X51974653Y-74950551D01*
X51467297Y-74950551D01*
X51471919Y-74832747D01*
X51489279Y-74530429D01*
X51506780Y-74364050D01*
X51508886Y-74354420D01*
X51548358Y-74197150D01*
X52056627Y-74197150D01*
X52092743Y-74339641D01*
X52184868Y-74553613D01*
X52308662Y-74794951D01*
X52439789Y-75019539D01*
X52553911Y-75183259D01*
X52626689Y-75241996D01*
X52631762Y-75239686D01*
X52618251Y-75157031D01*
X52557075Y-74965244D01*
X52495682Y-74796769D01*
X52375366Y-74511863D01*
X52250379Y-74263637D01*
X52195713Y-74174787D01*
X52056627Y-73976213D01*
X52056627Y-74197150D01*
X51548358Y-74197150D01*
X51561782Y-74143664D01*
X51380096Y-74374641D01*
X51257798Y-74555602D01*
X51163552Y-74766397D01*
X51089559Y-75038734D01*
X51028020Y-75404322D01*
X50971135Y-75894869D01*
X50948183Y-76130558D01*
X50920316Y-76532642D01*
X50905770Y-76976820D01*
X50903480Y-77433708D01*
X50746581Y-77433708D01*
X50751736Y-76812948D01*
X50773032Y-76201167D01*
X50808733Y-75707225D01*
X50873173Y-75072225D01*
X50703458Y-75326225D01*
X50637131Y-75442004D01*
X50590517Y-75578319D01*
X50560216Y-75765771D01*
X50542825Y-76034961D01*
X50534946Y-76416492D01*
X50533185Y-76858617D01*
X50350476Y-76858617D01*
X50319894Y-75918891D01*
X50161614Y-76210441D01*
X50095073Y-76353562D01*
X50053096Y-76512967D01*
X50032692Y-76724811D01*
X50030869Y-77025249D01*
X48777641Y-77025249D01*
X48786886Y-76938570D01*
X48683382Y-76663970D01*
X48682405Y-76662049D01*
X48449006Y-76095820D01*
X48253544Y-75402098D01*
X48106390Y-74620465D01*
X48064919Y-74305396D01*
X48016099Y-73909943D01*
X47975996Y-73660641D01*
X47938138Y-73534993D01*
X47896054Y-73510500D01*
X47849416Y-73556076D01*
X47765253Y-73789305D01*
X47744868Y-74145568D01*
X47067738Y-74145568D01*
X47070547Y-74019579D01*
X47095298Y-73617391D01*
X47122521Y-73369474D01*
X48169498Y-73369474D01*
X48179706Y-73662251D01*
X48194989Y-73898595D01*
X48240414Y-74334508D01*
X48314096Y-74793710D01*
X48408834Y-75251863D01*
X48517428Y-75684626D01*
X48632679Y-76067661D01*
X48747386Y-76376628D01*
X48854350Y-76587189D01*
X48946370Y-76675004D01*
X49005509Y-76638558D01*
X49015330Y-76485139D01*
X48958062Y-76197870D01*
X48837676Y-75796600D01*
X48836105Y-75791891D01*
X48684225Y-75261153D01*
X48559436Y-74678313D01*
X48470346Y-74097912D01*
X48425565Y-73574490D01*
X48428957Y-73212757D01*
X48431546Y-73170051D01*
X48611883Y-73170051D01*
X48612093Y-73589509D01*
X48653700Y-74088630D01*
X48731068Y-74626782D01*
X48838559Y-75163328D01*
X48970535Y-75657635D01*
X49093325Y-76003558D01*
X49176930Y-76169188D01*
X49225459Y-76192223D01*
X49238369Y-76095842D01*
X49215120Y-75903222D01*
X49155169Y-75637544D01*
X49105864Y-75467097D01*
X48853028Y-74390089D01*
X48749347Y-73283803D01*
X48747989Y-73209558D01*
X48740986Y-72913947D01*
X48726986Y-72770174D01*
X48701381Y-72760760D01*
X48659565Y-72868225D01*
X48658709Y-72870891D01*
X48611883Y-73170051D01*
X48431546Y-73170051D01*
X48442606Y-72987574D01*
X48424627Y-72903043D01*
X48359362Y-72931239D01*
X48299919Y-72982631D01*
X48225200Y-73068116D01*
X48183194Y-73184246D01*
X48169498Y-73369474D01*
X47122521Y-73369474D01*
X47131027Y-73292006D01*
X47149318Y-73188449D01*
X47183849Y-72990438D01*
X47188413Y-72808204D01*
X47180617Y-72757592D01*
X47731962Y-72757592D01*
X48039726Y-72522849D01*
X48053304Y-72513484D01*
X48923960Y-72513484D01*
X48924600Y-73115521D01*
X48939539Y-73487483D01*
X48979729Y-73911821D01*
X49039295Y-74356954D01*
X49112362Y-74791300D01*
X49193056Y-75183279D01*
X49275501Y-75501309D01*
X49353824Y-75713809D01*
X49421950Y-75789210D01*
X49491096Y-75722808D01*
X49625958Y-75549750D01*
X49799517Y-75305063D01*
X49830130Y-75260043D01*
X50021646Y-74996909D01*
X50293447Y-74650104D01*
X50611959Y-74261296D01*
X50854922Y-73976213D01*
X50943608Y-73872152D01*
X51004799Y-73802225D01*
X51073013Y-73723095D01*
X52184833Y-73723095D01*
X52255627Y-73938308D01*
X52278566Y-73975353D01*
X52404484Y-74144310D01*
X52463264Y-74158633D01*
X52459676Y-74016995D01*
X52444354Y-73929225D01*
X52389616Y-73651869D01*
X52338576Y-73400058D01*
X52281859Y-73124891D01*
X52212111Y-73446186D01*
X52184833Y-73723095D01*
X51073013Y-73723095D01*
X51563451Y-73154171D01*
X52011751Y-72604730D01*
X52362789Y-72136600D01*
X52629657Y-71732482D01*
X52794971Y-71436523D01*
X52914543Y-71182000D01*
X52962853Y-70989183D01*
X52949869Y-70776846D01*
X52904065Y-70547523D01*
X52893292Y-70505038D01*
X54850627Y-70505038D01*
X54914296Y-70537506D01*
X55080890Y-70490656D01*
X55313788Y-70381093D01*
X55576369Y-70225421D01*
X55772486Y-70087072D01*
X56019724Y-69896701D01*
X56220682Y-69739605D01*
X56327301Y-69653558D01*
X56403767Y-69553040D01*
X56546718Y-69334491D01*
X56627136Y-69205111D01*
X56882627Y-69205111D01*
X56950843Y-69209643D01*
X57123694Y-69153470D01*
X57230768Y-69108411D01*
X57400352Y-69020184D01*
X57534487Y-68907923D01*
X57621504Y-68789365D01*
X57905271Y-68789365D01*
X57925878Y-68849225D01*
X58014641Y-68824336D01*
X58210766Y-68760865D01*
X58349211Y-68714266D01*
X58622824Y-68591817D01*
X58742103Y-68466369D01*
X58744714Y-68449899D01*
X58914627Y-68449899D01*
X58983617Y-68476547D01*
X59137869Y-68471107D01*
X59298301Y-68442306D01*
X59385835Y-68398872D01*
X59386331Y-68397842D01*
X59406182Y-68337539D01*
X59602182Y-68337539D01*
X59872238Y-68228300D01*
X60066921Y-68111349D01*
X60153953Y-67978313D01*
X60402951Y-67978313D01*
X60486482Y-67973774D01*
X60639993Y-67907179D01*
X60814089Y-67756255D01*
X60889962Y-67618261D01*
X61115960Y-67618261D01*
X61170284Y-67626627D01*
X61318832Y-67529487D01*
X61539968Y-67344829D01*
X61812053Y-67090636D01*
X62094481Y-66804844D01*
X62578308Y-66254751D01*
X62989578Y-65702902D01*
X63175381Y-65407959D01*
X63165334Y-65359188D01*
X63032175Y-65367280D01*
X62829956Y-65413215D01*
X62592945Y-65492115D01*
X62396453Y-65614176D01*
X62191052Y-65816379D01*
X62021371Y-66018147D01*
X61830196Y-66278045D01*
X61624958Y-66594694D01*
X61428316Y-66928048D01*
X61262931Y-67238061D01*
X61151462Y-67484687D01*
X61115960Y-67618261D01*
X60889962Y-67618261D01*
X60977458Y-67459126D01*
X61035225Y-67314711D01*
X61178236Y-66996215D01*
X61382262Y-66619135D01*
X61605770Y-66259639D01*
X61629543Y-66224757D01*
X61823331Y-65937461D01*
X61927425Y-65760810D01*
X61951989Y-65668692D01*
X61907186Y-65634995D01*
X61860289Y-65631891D01*
X61659412Y-65707403D01*
X61423350Y-65915321D01*
X61171393Y-66227722D01*
X60922832Y-66616682D01*
X60696958Y-67054276D01*
X60513062Y-67512580D01*
X60471141Y-67642725D01*
X60403899Y-67877456D01*
X60402951Y-67978313D01*
X60153953Y-67978313D01*
X60192626Y-67919197D01*
X60254211Y-67743310D01*
X60509291Y-67036002D01*
X60854706Y-66357377D01*
X60922071Y-66243507D01*
X61065655Y-65999273D01*
X61125719Y-65870153D01*
X61108361Y-65827582D01*
X61019674Y-65842997D01*
X61006738Y-65846738D01*
X60782975Y-65983608D01*
X60535209Y-66253509D01*
X60282607Y-66625734D01*
X60044335Y-67069575D01*
X59839560Y-67554326D01*
X59728307Y-67894882D01*
X59602182Y-68337539D01*
X59406182Y-68337539D01*
X59413089Y-68316559D01*
X59479445Y-68110709D01*
X59573570Y-67817062D01*
X59626732Y-67650733D01*
X59771087Y-67253884D01*
X59944109Y-66858454D01*
X60113453Y-66536901D01*
X60149687Y-66479177D01*
X60300367Y-66247386D01*
X60404900Y-66080856D01*
X60438627Y-66020165D01*
X60366071Y-66016342D01*
X60197721Y-66035243D01*
X60045009Y-66087770D01*
X59900561Y-66217635D01*
X59733137Y-66456907D01*
X59646459Y-66601146D01*
X59500091Y-66879414D01*
X59340536Y-67226956D01*
X59185018Y-67600263D01*
X59050760Y-67955827D01*
X58954983Y-68250140D01*
X58914913Y-68439694D01*
X58914627Y-68449899D01*
X58744714Y-68449899D01*
X58746426Y-68439099D01*
X58781532Y-68241680D01*
X58873322Y-67936713D01*
X59004625Y-67569028D01*
X59158267Y-67183454D01*
X59317078Y-66824823D01*
X59463884Y-66537964D01*
X59494386Y-66486460D01*
X59655801Y-66219700D01*
X59735623Y-66065496D01*
X59742449Y-65993089D01*
X59684876Y-65971719D01*
X59638571Y-65970558D01*
X59534251Y-66035436D01*
X59368350Y-66207357D01*
X59172889Y-66452252D01*
X59128804Y-66512953D01*
X58899296Y-66853364D01*
X58665470Y-67232513D01*
X58440862Y-67624114D01*
X58239004Y-68001885D01*
X58073431Y-68339540D01*
X57957675Y-68610794D01*
X57905271Y-68789365D01*
X57621504Y-68789365D01*
X57660272Y-68736545D01*
X57804808Y-68470966D01*
X57943005Y-68186362D01*
X58157840Y-67761932D01*
X58408906Y-67307158D01*
X58651230Y-66902557D01*
X58716686Y-66801202D01*
X58909830Y-66508935D01*
X59071373Y-66263787D01*
X59175238Y-66105355D01*
X59193990Y-66076391D01*
X59194847Y-65997884D01*
X59048895Y-65971584D01*
X59024667Y-65971453D01*
X58940416Y-65982140D01*
X58855714Y-66025438D01*
X58757182Y-66119202D01*
X58631443Y-66281291D01*
X58465117Y-66529561D01*
X58244825Y-66881868D01*
X57957189Y-67356069D01*
X57835127Y-67559145D01*
X57556771Y-68025459D01*
X57310494Y-68442998D01*
X57108886Y-68790001D01*
X56964542Y-69044708D01*
X56890053Y-69185359D01*
X56882627Y-69205111D01*
X56627136Y-69205111D01*
X56738092Y-69026599D01*
X56959831Y-68658053D01*
X57046837Y-68510558D01*
X57318715Y-68049721D01*
X57607970Y-67563710D01*
X57881150Y-67108492D01*
X58104801Y-66740038D01*
X58116808Y-66720455D01*
X58299751Y-66409893D01*
X58436158Y-66154036D01*
X58509436Y-65985558D01*
X58514469Y-65937288D01*
X58406573Y-65883455D01*
X58276260Y-65932461D01*
X58110509Y-66096983D01*
X57896298Y-66389698D01*
X57644627Y-66784094D01*
X57204732Y-67465680D01*
X56703605Y-68185158D01*
X56178526Y-68891903D01*
X55666777Y-69535289D01*
X55326560Y-69931925D01*
X55109789Y-70178901D01*
X54944721Y-70375537D01*
X54857742Y-70490061D01*
X54850627Y-70505038D01*
X52893292Y-70505038D01*
X52870841Y-70416496D01*
X53990787Y-70416496D01*
X54096046Y-70445291D01*
X54293480Y-70457870D01*
X54302123Y-70457891D01*
X54477909Y-70430827D01*
X54654777Y-70331990D01*
X54873750Y-70134910D01*
X54991049Y-70013391D01*
X55652056Y-69259631D01*
X56337391Y-68380118D01*
X57020503Y-67410606D01*
X57631836Y-66457391D01*
X57981468Y-65885891D01*
X57702919Y-65885891D01*
X57529379Y-65903228D01*
X57408631Y-65981480D01*
X57294461Y-66160009D01*
X57230746Y-66288058D01*
X56854522Y-66967705D01*
X56361704Y-67699340D01*
X55779772Y-68445974D01*
X55136205Y-69170621D01*
X54934105Y-69379330D01*
X54609129Y-69712713D01*
X54334392Y-70003703D01*
X54128667Y-70231658D01*
X54010729Y-70375937D01*
X53990787Y-70416496D01*
X52870841Y-70416496D01*
X52819768Y-70215075D01*
X53326627Y-70215075D01*
X53399446Y-70269372D01*
X53548661Y-70288558D01*
X53665693Y-70259254D01*
X53825567Y-70161842D01*
X54045645Y-69982067D01*
X54343287Y-69705678D01*
X54735855Y-69318422D01*
X54760444Y-69293725D01*
X55503703Y-68489575D01*
X56162704Y-67661587D01*
X56711236Y-66844523D01*
X57007701Y-66313026D01*
X57206012Y-65921677D01*
X56938486Y-65954274D01*
X56792673Y-65989917D01*
X56667268Y-66077309D01*
X56532039Y-66247861D01*
X56356758Y-66532981D01*
X56319438Y-66597474D01*
X55654939Y-67612028D01*
X54839295Y-68615382D01*
X54138877Y-69347242D01*
X53839736Y-69644984D01*
X53590229Y-69903217D01*
X53412814Y-70097945D01*
X53329951Y-70205173D01*
X53326627Y-70215075D01*
X52819768Y-70215075D01*
X52801755Y-70144038D01*
X52686376Y-69862113D01*
X52605580Y-69755187D01*
X53414770Y-69755187D01*
X53467934Y-69749359D01*
X53609557Y-69632235D01*
X53821559Y-69424133D01*
X54085858Y-69145372D01*
X54384373Y-68816273D01*
X54699023Y-68457154D01*
X55011727Y-68088334D01*
X55304403Y-67730132D01*
X55558971Y-67402869D01*
X55757348Y-67126862D01*
X55768772Y-67109822D01*
X55996247Y-66763176D01*
X56184763Y-66465698D01*
X56316490Y-66246283D01*
X56373598Y-66133822D01*
X56374627Y-66128028D01*
X56305666Y-66062441D01*
X56118285Y-66077402D01*
X55842741Y-66170167D01*
X55663188Y-66277067D01*
X55533817Y-66448302D01*
X55416421Y-66734811D01*
X55414070Y-66741667D01*
X55191484Y-67254875D01*
X54874083Y-67807317D01*
X54502198Y-68336201D01*
X54116160Y-68778737D01*
X54087560Y-68806891D01*
X53785037Y-69127520D01*
X53560280Y-69419638D01*
X53434240Y-69653713D01*
X53414770Y-69755187D01*
X52605580Y-69755187D01*
X52529621Y-69654663D01*
X52303186Y-69474602D01*
X52230551Y-69427191D01*
X51927994Y-69253098D01*
X51740573Y-69192711D01*
X51658277Y-69245667D01*
X51669869Y-69406758D01*
X51690588Y-69647118D01*
X51666032Y-69808925D01*
X51622362Y-69912055D01*
X51579502Y-69886894D01*
X51514059Y-69716994D01*
X51507400Y-69697402D01*
X51407536Y-69402579D01*
X51355610Y-69841016D01*
X51288392Y-70202967D01*
X51164166Y-70534379D01*
X50958778Y-70888185D01*
X50733044Y-71205284D01*
X50488271Y-71499919D01*
X50218686Y-71747675D01*
X49880159Y-71983478D01*
X49428562Y-72242257D01*
X49410794Y-72251822D01*
X48923960Y-72513484D01*
X48053304Y-72513484D01*
X48247706Y-72379400D01*
X48554976Y-72185845D01*
X48912000Y-71972858D01*
X49122558Y-71852391D01*
X49642335Y-71524337D01*
X50023621Y-71187592D01*
X50284723Y-70809616D01*
X50299717Y-70767074D01*
X50734274Y-70767074D01*
X50736267Y-70875593D01*
X50744689Y-70881225D01*
X50802101Y-70812924D01*
X50904482Y-70639394D01*
X50965488Y-70523881D01*
X51066085Y-70263580D01*
X51143078Y-69947381D01*
X51190984Y-69622132D01*
X51204319Y-69334676D01*
X51177601Y-69131859D01*
X51135955Y-69067480D01*
X51069195Y-69092241D01*
X51041596Y-69276798D01*
X51040627Y-69341583D01*
X51010258Y-69654867D01*
X50936193Y-69974300D01*
X50926717Y-70002746D01*
X50838950Y-70285036D01*
X50771652Y-70555017D01*
X50734274Y-70767074D01*
X50299717Y-70767074D01*
X50443943Y-70357869D01*
X50519587Y-69799809D01*
X50530472Y-69420725D01*
X50707911Y-69420725D01*
X50723857Y-69704767D01*
X50757313Y-69832664D01*
X50798131Y-69815331D01*
X50836164Y-69663681D01*
X50861266Y-69388630D01*
X50865343Y-69251391D01*
X50852840Y-69017017D01*
X50814350Y-68872063D01*
X50786627Y-68849225D01*
X50743057Y-68927512D01*
X50715197Y-69137520D01*
X50707911Y-69420725D01*
X50530472Y-69420725D01*
X50532627Y-69345668D01*
X50522491Y-69055783D01*
X50475534Y-68899609D01*
X50366929Y-68869258D01*
X50171850Y-68956840D01*
X49886440Y-69140325D01*
X49489793Y-69476529D01*
X49084299Y-69942750D01*
X48692536Y-70502617D01*
X48337084Y-71119754D01*
X48040523Y-71757789D01*
X47825431Y-72380348D01*
X47789765Y-72517908D01*
X47731962Y-72757592D01*
X47180617Y-72757592D01*
X47156155Y-72598786D01*
X47080221Y-72319219D01*
X46953754Y-71926540D01*
X46942635Y-71893115D01*
X46664716Y-70942527D01*
X46482162Y-70022865D01*
X46384472Y-69067773D01*
X46360327Y-68214225D01*
X46360731Y-68206903D01*
X46531534Y-68206903D01*
X46545653Y-68969822D01*
X46598177Y-69668562D01*
X46671561Y-70161558D01*
X46749359Y-70518284D01*
X46847741Y-70914574D01*
X46956861Y-71317003D01*
X47066874Y-71692144D01*
X47167933Y-72006572D01*
X47250192Y-72226860D01*
X47303806Y-72319582D01*
X47307510Y-72320558D01*
X47358922Y-72247212D01*
X47444177Y-72055520D01*
X47538425Y-71804687D01*
X47635567Y-71504310D01*
X47673677Y-71287717D01*
X47658027Y-71082043D01*
X47606601Y-70862172D01*
X47465611Y-70161442D01*
X47374337Y-69346781D01*
X47333567Y-68466367D01*
X47336201Y-68241518D01*
X47484967Y-68241518D01*
X47498864Y-68702549D01*
X47536496Y-69226094D01*
X47592240Y-69763445D01*
X47660476Y-70265894D01*
X47735583Y-70684735D01*
X47793758Y-70917032D01*
X47837328Y-71019586D01*
X47890805Y-70987822D01*
X47957755Y-70874699D01*
X48005583Y-70741055D01*
X48032884Y-70533066D01*
X48040917Y-70223591D01*
X48030943Y-69785491D01*
X48020354Y-69526558D01*
X48025906Y-68979743D01*
X48171186Y-68979743D01*
X48176544Y-69495006D01*
X48201884Y-69825966D01*
X48239164Y-70102163D01*
X48271278Y-70233537D01*
X48314042Y-70243295D01*
X48383275Y-70154643D01*
X48404400Y-70123082D01*
X48525434Y-69959472D01*
X48719461Y-69715869D01*
X48948300Y-69440004D01*
X48991094Y-69389605D01*
X49295872Y-69048225D01*
X49553758Y-68809383D01*
X49666002Y-68735327D01*
X51333464Y-68735327D01*
X51375443Y-68802251D01*
X51512728Y-68900078D01*
X51745728Y-69009310D01*
X51877505Y-69057640D01*
X52190367Y-69194849D01*
X52489896Y-69377655D01*
X52569489Y-69439839D01*
X52776309Y-69613038D01*
X52869987Y-69673744D01*
X52864634Y-69621182D01*
X52774359Y-69454573D01*
X52759914Y-69429360D01*
X52542996Y-69166013D01*
X52234829Y-68928320D01*
X51895412Y-68753881D01*
X51584741Y-68680296D01*
X51564017Y-68679891D01*
X51378443Y-68690720D01*
X51333464Y-68735327D01*
X49666002Y-68735327D01*
X49815076Y-68636972D01*
X50130145Y-68494879D01*
X50213990Y-68464291D01*
X50915355Y-68464291D01*
X50997608Y-68497515D01*
X51214758Y-68511045D01*
X51341193Y-68512417D01*
X51884166Y-68575593D01*
X52343567Y-68753200D01*
X52691908Y-69033729D01*
X52745134Y-69100230D01*
X52888209Y-69258464D01*
X52963546Y-69279857D01*
X52959881Y-69187202D01*
X52865952Y-69003295D01*
X52860647Y-68995475D01*
X53558153Y-68995475D01*
X53627148Y-68980969D01*
X53790253Y-68846280D01*
X54030694Y-68603142D01*
X54322676Y-68260183D01*
X54608805Y-67870169D01*
X54868039Y-67468050D01*
X55079338Y-67088774D01*
X55221658Y-66767292D01*
X55273960Y-66538553D01*
X55273960Y-66538126D01*
X55230308Y-66508271D01*
X55113686Y-66592426D01*
X54945590Y-66764070D01*
X54747520Y-66996681D01*
X54540973Y-67263737D01*
X54347449Y-67538716D01*
X54188445Y-67795097D01*
X54086904Y-68002558D01*
X53967869Y-68256773D01*
X53801214Y-68549253D01*
X53730638Y-68658725D01*
X53590305Y-68888494D01*
X53558153Y-68995475D01*
X52860647Y-68995475D01*
X52823756Y-68941094D01*
X52472893Y-68585688D01*
X52030517Y-68371045D01*
X51534262Y-68301540D01*
X51234880Y-68318267D01*
X51014718Y-68365460D01*
X50943452Y-68404725D01*
X50915355Y-68464291D01*
X50213990Y-68464291D01*
X50349455Y-68414871D01*
X50871766Y-68243005D01*
X51275930Y-68138739D01*
X51597976Y-68099651D01*
X51873934Y-68123316D01*
X52139833Y-68207312D01*
X52304866Y-68283327D01*
X52474228Y-68362599D01*
X52524079Y-68358409D01*
X52516062Y-68339462D01*
X53170241Y-68339462D01*
X53237180Y-68508257D01*
X53260268Y-68559261D01*
X53363242Y-68785264D01*
X53598934Y-68502943D01*
X53744569Y-68306117D01*
X53827400Y-68150791D01*
X53834627Y-68116610D01*
X53795687Y-68061840D01*
X53658913Y-68105393D01*
X53601794Y-68134057D01*
X53402911Y-68221193D01*
X53263127Y-68256036D01*
X53178753Y-68269926D01*
X53170241Y-68339462D01*
X52516062Y-68339462D01*
X52484918Y-68265857D01*
X52479286Y-68255298D01*
X52405525Y-68068096D01*
X52453128Y-67958465D01*
X52643638Y-67890989D01*
X52708855Y-67877912D01*
X53119745Y-67757259D01*
X53490588Y-67545002D01*
X53857030Y-67216483D01*
X54147008Y-66883189D01*
X54638288Y-66347760D01*
X55137484Y-65941093D01*
X55624351Y-65678845D01*
X55766948Y-65630097D01*
X56292532Y-65517081D01*
X56947190Y-65442005D01*
X57694465Y-65407123D01*
X58497901Y-65414691D01*
X58914627Y-65435436D01*
X60142294Y-65513553D01*
X61560460Y-65175761D01*
X62023517Y-65062191D01*
X62423237Y-64957904D01*
X62732964Y-64870366D01*
X62926042Y-64807045D01*
X62978627Y-64778503D01*
X62902145Y-64726493D01*
X62690590Y-64634127D01*
X62370798Y-64510643D01*
X61969604Y-64365277D01*
X61513845Y-64207266D01*
X61030355Y-64045846D01*
X60545971Y-63890255D01*
X60087528Y-63749728D01*
X59681863Y-63633502D01*
X59549627Y-63598277D01*
X58723595Y-63409759D01*
X58015968Y-63308301D01*
X57399646Y-63294345D01*
X56847532Y-63368335D01*
X56332526Y-63530712D01*
X56060325Y-63655298D01*
X55832959Y-63797545D01*
X55522831Y-64029086D01*
X55167551Y-64320119D01*
X54804731Y-64640841D01*
X54735235Y-64705305D01*
X54349631Y-65063579D01*
X54058840Y-65323581D01*
X53835443Y-65504230D01*
X53652027Y-65624446D01*
X53481175Y-65703148D01*
X53295472Y-65759258D01*
X53162587Y-65790609D01*
X52919841Y-65817125D01*
X52597649Y-65816123D01*
X52246143Y-65792361D01*
X51915458Y-65750599D01*
X51655727Y-65695594D01*
X51519578Y-65634654D01*
X51511694Y-65524344D01*
X51589264Y-65350342D01*
X51598038Y-65336637D01*
X51691776Y-65171874D01*
X51696498Y-65042599D01*
X51612649Y-64862689D01*
X51600599Y-64840753D01*
X51459063Y-64622748D01*
X51257486Y-64356269D01*
X51128067Y-64201229D01*
X50802818Y-63828899D01*
X50623849Y-64179709D01*
X50458020Y-64577751D01*
X50297611Y-65092881D01*
X50155213Y-65673009D01*
X50043419Y-66266040D01*
X49974822Y-66819882D01*
X49969800Y-66885341D01*
X49914318Y-67673125D01*
X50331453Y-67617790D01*
X50609370Y-67605187D01*
X50909089Y-67628207D01*
X51183096Y-67678129D01*
X51383876Y-67746235D01*
X51463917Y-67823806D01*
X51463960Y-67825609D01*
X51386128Y-67863472D01*
X51179748Y-67900597D01*
X50885501Y-67930183D01*
X50807794Y-67935319D01*
X50273944Y-68003065D01*
X49812224Y-68151644D01*
X49366297Y-68404541D01*
X48987460Y-68694089D01*
X48743941Y-68882595D01*
X48617064Y-68949059D01*
X48609084Y-68896299D01*
X48722259Y-68727130D01*
X48869635Y-68546964D01*
X48992537Y-68396155D01*
X49076177Y-68259254D01*
X49130880Y-68097092D01*
X49140234Y-68038365D01*
X49324472Y-68038365D01*
X49526383Y-67904620D01*
X49621826Y-67825889D01*
X49686394Y-67716500D01*
X49730163Y-67539645D01*
X49763207Y-67258518D01*
X49787469Y-66950773D01*
X49870290Y-66235795D01*
X50010489Y-65502224D01*
X50193991Y-64811478D01*
X50406727Y-64224978D01*
X50417799Y-64199671D01*
X50620406Y-63741117D01*
X50240534Y-63336763D01*
X50003558Y-64039827D01*
X49729862Y-64999827D01*
X49521040Y-66040719D01*
X49393031Y-67081285D01*
X49384375Y-67194961D01*
X49324472Y-68038365D01*
X49140234Y-68038365D01*
X49166970Y-67870498D01*
X49194770Y-67540305D01*
X49213964Y-67240558D01*
X49325452Y-66148008D01*
X49518271Y-65090942D01*
X49781719Y-64125349D01*
X49844928Y-63939683D01*
X50086899Y-63255900D01*
X49643627Y-62906122D01*
X49370562Y-63485840D01*
X49112118Y-64096244D01*
X48857965Y-64806082D01*
X48630055Y-65546375D01*
X48450341Y-66248148D01*
X48377691Y-66605558D01*
X48297106Y-67150229D01*
X48234083Y-67759432D01*
X48191237Y-68385244D01*
X48171186Y-68979743D01*
X48025906Y-68979743D01*
X48035303Y-68054262D01*
X48210073Y-66603558D01*
X48541280Y-65193815D01*
X49004159Y-63894873D01*
X49186501Y-63461258D01*
X49309189Y-63157876D01*
X49376694Y-62958239D01*
X49393489Y-62835858D01*
X49364046Y-62764246D01*
X49292838Y-62716913D01*
X49209441Y-62679018D01*
X49075808Y-62633968D01*
X48962362Y-62647886D01*
X48853046Y-62740599D01*
X48731803Y-62931936D01*
X48582578Y-63241724D01*
X48389314Y-63689790D01*
X48387576Y-63693916D01*
X47932907Y-64990060D01*
X47634400Y-66342431D01*
X47495353Y-67734410D01*
X47484967Y-68241518D01*
X47336201Y-68241518D01*
X47344088Y-67568379D01*
X47406688Y-66700995D01*
X47522154Y-65912395D01*
X47525408Y-65895717D01*
X47697704Y-65169198D01*
X47930206Y-64405341D01*
X48199636Y-63673713D01*
X48473537Y-63062047D01*
X48608654Y-62784661D01*
X48703088Y-62573472D01*
X48740060Y-62466499D01*
X48738894Y-62460783D01*
X48648697Y-62422147D01*
X48464373Y-62356151D01*
X48442463Y-62348725D01*
X48172632Y-62257753D01*
X47794787Y-62992322D01*
X47253136Y-64218223D01*
X46841921Y-65528096D01*
X46713917Y-66081606D01*
X46616235Y-66707941D01*
X46555251Y-67434658D01*
X46531534Y-68206903D01*
X46360731Y-68206903D01*
X46438263Y-66801636D01*
X46675702Y-65444444D01*
X47072316Y-64144038D01*
X47610330Y-62935272D01*
X47769188Y-62624684D01*
X47890910Y-62377878D01*
X47959467Y-62227865D01*
X47968361Y-62198012D01*
X47888623Y-62161084D01*
X47683421Y-62069200D01*
X47382318Y-61935522D01*
X47014879Y-61773213D01*
X46948423Y-61743930D01*
X45946552Y-61302640D01*
X44747090Y-61290785D01*
X43547627Y-61278929D01*
X42658627Y-61629640D01*
X42260857Y-61796597D01*
X41971288Y-61939153D01*
X41810027Y-62046697D01*
X41783353Y-62091621D01*
X41820486Y-62215409D01*
X41908358Y-62453242D01*
X42031242Y-62763421D01*
X42097024Y-62923307D01*
X42552998Y-64235023D01*
X42845403Y-65579684D01*
X42974193Y-66946248D01*
X42939319Y-68323675D01*
X42740733Y-69700925D01*
X42378388Y-71066956D01*
X42135081Y-71744128D01*
X42028396Y-72023830D01*
X41953449Y-72254182D01*
X41904553Y-72475491D01*
X41876016Y-72728062D01*
X41862151Y-73052201D01*
X41857266Y-73488215D01*
X41856516Y-73717558D01*
X41854052Y-74209705D01*
X41845049Y-74575796D01*
X41822907Y-74859107D01*
X41781025Y-75102916D01*
X41712802Y-75350499D01*
X41611638Y-75645133D01*
X41527225Y-75876558D01*
X41326696Y-76427767D01*
X41177705Y-76860250D01*
X41072449Y-77213877D01*
X41003124Y-77528515D01*
X40961926Y-77844033D01*
X40941052Y-78200301D01*
X40932698Y-78637188D01*
X40930623Y-78924558D01*
X40930591Y-79455400D01*
X39858032Y-79455400D01*
X39810132Y-79305562D01*
X39801421Y-79279663D01*
X39563942Y-78576435D01*
X39326090Y-79306798D01*
X39088237Y-80037161D01*
X37983046Y-80037161D01*
X38024084Y-79902684D01*
X37997797Y-79811857D01*
X37920041Y-79732299D01*
X38802060Y-79732299D01*
X38812376Y-79868078D01*
X38862985Y-79889682D01*
X38949566Y-79776632D01*
X39013299Y-79644225D01*
X39114068Y-79378262D01*
X39227227Y-79031489D01*
X39310530Y-78743181D01*
X39394311Y-78372336D01*
X39411959Y-78109309D01*
X39378919Y-77938848D01*
X39331418Y-77816027D01*
X39294982Y-77799072D01*
X39255402Y-77907391D01*
X39198470Y-78160387D01*
X39191057Y-78195426D01*
X39100672Y-78572521D01*
X38985627Y-78987301D01*
X38919594Y-79200138D01*
X38836359Y-79502826D01*
X38802060Y-79732299D01*
X37920041Y-79732299D01*
X37912245Y-79724322D01*
X37814393Y-79649232D01*
X37743162Y-79661256D01*
X37666275Y-79785328D01*
X37579182Y-79981595D01*
X37367491Y-80560142D01*
X37269951Y-81054545D01*
X36597800Y-81054545D01*
X36497010Y-80707655D01*
X36361746Y-80359842D01*
X37008344Y-80359842D01*
X37035630Y-80557962D01*
X37098977Y-80914225D01*
X37169655Y-80589459D01*
X37250266Y-80316193D01*
X37373895Y-79994348D01*
X37438808Y-79849978D01*
X37549322Y-79606585D01*
X37587237Y-79463764D01*
X37577492Y-79433426D01*
X38473230Y-79433426D01*
X38497303Y-79572553D01*
X38574640Y-79567979D01*
X38599303Y-79545768D01*
X38649067Y-79438054D01*
X38726944Y-79204496D01*
X38820703Y-78883709D01*
X38885691Y-78641623D01*
X39028192Y-78025049D01*
X39099179Y-77540506D01*
X39099563Y-77426470D01*
X40143326Y-77426470D01*
X40157527Y-77534176D01*
X40196814Y-77758382D01*
X40231184Y-77892088D01*
X40241928Y-77908558D01*
X40278943Y-77833269D01*
X40364415Y-77624199D01*
X40488491Y-77306541D01*
X40641314Y-76905492D01*
X40796655Y-76490391D01*
X41035049Y-75824085D01*
X41204376Y-75293080D01*
X41309574Y-74880372D01*
X41355579Y-74568956D01*
X41355892Y-74564225D01*
X41388661Y-74056225D01*
X41254925Y-74648153D01*
X41076310Y-75275980D01*
X40831466Y-75909240D01*
X40548291Y-76481141D01*
X40367300Y-76773300D01*
X40211473Y-77021261D01*
X40143683Y-77214073D01*
X40143326Y-77426470D01*
X39099563Y-77426470D01*
X39100434Y-77167378D01*
X39049839Y-76948958D01*
X39950940Y-76948958D01*
X39985497Y-76977225D01*
X40044029Y-76910567D01*
X40163358Y-76735482D01*
X40318093Y-76489297D01*
X40324152Y-76479334D01*
X40762310Y-75600643D01*
X41063479Y-74641975D01*
X41141939Y-74248516D01*
X41194727Y-73897377D01*
X41209805Y-73660219D01*
X41186243Y-73485735D01*
X41125246Y-73327105D01*
X40998780Y-73060069D01*
X40897910Y-73817684D01*
X40688587Y-74866049D01*
X40339108Y-75866937D01*
X40195836Y-76184996D01*
X40044177Y-76535686D01*
X39960572Y-76797773D01*
X39950940Y-76948958D01*
X39049839Y-76948958D01*
X39036774Y-76892558D01*
X38979132Y-76761595D01*
X38945620Y-76765802D01*
X38913669Y-76919597D01*
X38904236Y-76977225D01*
X38863878Y-77247122D01*
X38819363Y-77575278D01*
X38803987Y-77696891D01*
X38756252Y-77993732D01*
X38679935Y-78374381D01*
X38591058Y-78759289D01*
X38585860Y-78780049D01*
X38502667Y-79164594D01*
X38473230Y-79433426D01*
X37577492Y-79433426D01*
X37557641Y-79371627D01*
X37494290Y-79305856D01*
X37397245Y-79238693D01*
X37324926Y-79274511D01*
X37240147Y-79438570D01*
X37215866Y-79495003D01*
X37078933Y-79846152D01*
X37013369Y-80113138D01*
X37008344Y-80359842D01*
X36361746Y-80359842D01*
X36315890Y-80241929D01*
X36169929Y-79957537D01*
X36024995Y-79707725D01*
X36731541Y-79707725D01*
X36758414Y-79876705D01*
X36816627Y-79940558D01*
X36891193Y-79871750D01*
X36901294Y-79810185D01*
X36938045Y-79658145D01*
X37030355Y-79431193D01*
X37074804Y-79339703D01*
X37154069Y-79127264D01*
X38151536Y-79127264D01*
X38174576Y-79267006D01*
X38230109Y-79252220D01*
X38312785Y-79078671D01*
X38417256Y-78742127D01*
X38457769Y-78585891D01*
X38527566Y-78255634D01*
X38601172Y-77826132D01*
X38667220Y-77366794D01*
X38695108Y-77136485D01*
X38737938Y-76724508D01*
X38756001Y-76434747D01*
X38748039Y-76243574D01*
X39752058Y-76243574D01*
X39752456Y-76350339D01*
X39800747Y-76425443D01*
X39863305Y-76404575D01*
X39951965Y-76271080D01*
X40078564Y-76008302D01*
X40209340Y-75707395D01*
X40385532Y-75237939D01*
X40535421Y-74733368D01*
X40654347Y-74223646D01*
X40737652Y-73738738D01*
X40780678Y-73308609D01*
X40778764Y-72963223D01*
X40727253Y-72732544D01*
X40681628Y-72669738D01*
X40624153Y-72651038D01*
X40582234Y-72723212D01*
X40549469Y-72910893D01*
X40519456Y-73238714D01*
X40513777Y-73315538D01*
X40375924Y-74281964D01*
X40112454Y-75235574D01*
X39911544Y-75747315D01*
X39807794Y-76019654D01*
X39752058Y-76243574D01*
X38748039Y-76243574D01*
X38747124Y-76221595D01*
X38709133Y-76039449D01*
X38642272Y-75849565D01*
X39542000Y-75849565D01*
X39570859Y-75874726D01*
X39594669Y-75876558D01*
X39668500Y-75803532D01*
X39771600Y-75613608D01*
X39864808Y-75390973D01*
X40087477Y-74731779D01*
X40230439Y-74134931D01*
X40309904Y-73523227D01*
X40331793Y-73167225D01*
X40342571Y-72841603D01*
X40339674Y-72662963D01*
X40321713Y-72635176D01*
X40287304Y-72762110D01*
X40235059Y-73047634D01*
X40163593Y-73495618D01*
X40126431Y-73740333D01*
X40045137Y-74154404D01*
X39926257Y-74615253D01*
X39814300Y-74967999D01*
X39675031Y-75359449D01*
X39587569Y-75618886D01*
X39545398Y-75773272D01*
X39542000Y-75849565D01*
X38642272Y-75849565D01*
X38639856Y-75842704D01*
X38632575Y-75824151D01*
X38469712Y-75410891D01*
X38405929Y-76538464D01*
X38371058Y-77044488D01*
X38324319Y-77570724D01*
X38272030Y-78052359D01*
X38224331Y-78401131D01*
X38166338Y-78837228D01*
X38151536Y-79127264D01*
X37154069Y-79127264D01*
X37169396Y-79086186D01*
X37196121Y-78860026D01*
X37187432Y-78828277D01*
X37801605Y-78828277D01*
X37806570Y-78861058D01*
X37878898Y-78926846D01*
X37945409Y-78849522D01*
X38009526Y-78620651D01*
X38074672Y-78231794D01*
X38081383Y-78183725D01*
X38147419Y-77624795D01*
X38196563Y-77046903D01*
X38228131Y-76480350D01*
X38241440Y-75955439D01*
X38235806Y-75502474D01*
X38210547Y-75151755D01*
X38164980Y-74933587D01*
X38155149Y-74911831D01*
X38108298Y-74834786D01*
X38074670Y-74823933D01*
X38051809Y-74898900D01*
X38037260Y-75079318D01*
X38028567Y-75384815D01*
X38023277Y-75835021D01*
X38022180Y-75975010D01*
X38010116Y-76505980D01*
X37983821Y-77051308D01*
X37946884Y-77554367D01*
X37902897Y-77958528D01*
X37891526Y-78035558D01*
X37841858Y-78378319D01*
X37810472Y-78656285D01*
X37801605Y-78828277D01*
X37187432Y-78828277D01*
X37154500Y-78707949D01*
X37081647Y-78670558D01*
X37014357Y-78744667D01*
X36928450Y-78932534D01*
X36841373Y-79182470D01*
X36770575Y-79442786D01*
X36733504Y-79661790D01*
X36731541Y-79707725D01*
X36024995Y-79707725D01*
X35936322Y-79554885D01*
X35826554Y-79334153D01*
X36433236Y-79334153D01*
X36439799Y-79360768D01*
X36502978Y-79559558D01*
X36583253Y-79347891D01*
X36667779Y-79138844D01*
X36784076Y-78866896D01*
X36827760Y-78767918D01*
X36911411Y-78527914D01*
X36946305Y-78318789D01*
X36935362Y-78173527D01*
X36881502Y-78125113D01*
X36787646Y-78206532D01*
X36779139Y-78218699D01*
X36631144Y-78490680D01*
X36512249Y-78807343D01*
X36440323Y-79108548D01*
X36433236Y-79334153D01*
X35826554Y-79334153D01*
X35764582Y-79209535D01*
X35645428Y-78882043D01*
X35596470Y-78656726D01*
X36180965Y-78656726D01*
X36186809Y-78771550D01*
X36229766Y-78871840D01*
X36275880Y-78852418D01*
X36347875Y-78695565D01*
X36375989Y-78624030D01*
X36500100Y-78347990D01*
X36638385Y-78099281D01*
X36661230Y-78064821D01*
X36773516Y-77825008D01*
X36813934Y-77599154D01*
X36805548Y-77435901D01*
X36764591Y-77425259D01*
X36677289Y-77527558D01*
X36505824Y-77788598D01*
X36352400Y-78098165D01*
X36237341Y-78404722D01*
X36180965Y-78656726D01*
X35596470Y-78656726D01*
X35569578Y-78532961D01*
X35527750Y-78122843D01*
X35525365Y-78051568D01*
X36033862Y-78051568D01*
X36043844Y-78156301D01*
X36060537Y-78162558D01*
X36137867Y-78100823D01*
X36139294Y-78086399D01*
X36183776Y-77981611D01*
X36299868Y-77783233D01*
X36447072Y-77557233D01*
X36589212Y-77315610D01*
X36701928Y-77065788D01*
X36707301Y-77049531D01*
X37333250Y-77049531D01*
X37336909Y-77360885D01*
X37356302Y-77604243D01*
X37392901Y-77813257D01*
X37448175Y-78021581D01*
X37452347Y-78035558D01*
X37604694Y-78543558D01*
X37692094Y-78204891D01*
X37718843Y-78018222D01*
X37742821Y-77693645D01*
X37762648Y-77262578D01*
X37776949Y-76756441D01*
X37784346Y-76206654D01*
X37784894Y-76088225D01*
X37785920Y-75493767D01*
X37783396Y-75043550D01*
X37775066Y-74712485D01*
X37758675Y-74475484D01*
X37731965Y-74307459D01*
X37692683Y-74183322D01*
X37638571Y-74077984D01*
X37598386Y-74013891D01*
X37406478Y-73717558D01*
X37420493Y-74183225D01*
X37421236Y-74427373D01*
X37414206Y-74800009D01*
X37400538Y-75260523D01*
X37381367Y-75768303D01*
X37367254Y-76088225D01*
X37343855Y-76636529D01*
X37333250Y-77049531D01*
X36707301Y-77049531D01*
X36776220Y-76840983D01*
X36803088Y-76674415D01*
X36773532Y-76599300D01*
X36697808Y-76631768D01*
X36579139Y-76774867D01*
X36442832Y-77005447D01*
X36304519Y-77285956D01*
X36179831Y-77578846D01*
X36084401Y-77846566D01*
X36033862Y-78051568D01*
X35525365Y-78051568D01*
X35510662Y-77612244D01*
X35509440Y-77350581D01*
X35973274Y-77350581D01*
X35990289Y-77431501D01*
X36042729Y-77366348D01*
X36100375Y-77242430D01*
X36222454Y-77010314D01*
X36400964Y-76724898D01*
X36520395Y-76553753D01*
X36681417Y-76310147D01*
X36789005Y-76100931D01*
X36816627Y-76000259D01*
X36806147Y-75901298D01*
X36746472Y-75917861D01*
X36647386Y-76003474D01*
X36506599Y-76177284D01*
X36343022Y-76445197D01*
X36183160Y-76754251D01*
X36053516Y-77051480D01*
X35980594Y-77283920D01*
X35973274Y-77350581D01*
X35509440Y-77350581D01*
X35508487Y-77146558D01*
X35518922Y-76533463D01*
X35519490Y-76523409D01*
X35970277Y-76523409D01*
X35997112Y-76581355D01*
X36081033Y-76490352D01*
X36148042Y-76384558D01*
X36333020Y-76115782D01*
X36547827Y-75854979D01*
X36569407Y-75831897D01*
X36743924Y-75590061D01*
X36859339Y-75324885D01*
X36869505Y-75281564D01*
X36925686Y-74987558D01*
X36709694Y-75185422D01*
X36548194Y-75374379D01*
X36366346Y-75647430D01*
X36191965Y-75954249D01*
X36052860Y-76244511D01*
X35976844Y-76467890D01*
X35970277Y-76523409D01*
X35519490Y-76523409D01*
X35551523Y-75956001D01*
X35581681Y-75664891D01*
X36054627Y-75664891D01*
X36096960Y-75707225D01*
X36139294Y-75664891D01*
X36096960Y-75622558D01*
X36054627Y-75664891D01*
X35581681Y-75664891D01*
X35603300Y-75456211D01*
X36170032Y-75456211D01*
X36228513Y-75434390D01*
X36370855Y-75293938D01*
X36488343Y-75164524D01*
X36691206Y-74923336D01*
X36849849Y-74709849D01*
X36922624Y-74585205D01*
X36954303Y-74403909D01*
X36898435Y-74313066D01*
X36778995Y-74348880D01*
X36770591Y-74355631D01*
X36641116Y-74508257D01*
X36480555Y-74756136D01*
X36324117Y-75038705D01*
X36207017Y-75295402D01*
X36181651Y-75368558D01*
X36170032Y-75456211D01*
X35603300Y-75456211D01*
X35611267Y-75379304D01*
X35703135Y-74768500D01*
X35757976Y-74479439D01*
X36318299Y-74479439D01*
X36359378Y-74505198D01*
X36494084Y-74395829D01*
X36604960Y-74279040D01*
X36774676Y-74066159D01*
X36881897Y-73883549D01*
X36901294Y-73813129D01*
X36867685Y-73688036D01*
X36774459Y-73709740D01*
X36633009Y-73871317D01*
X36523863Y-74042496D01*
X36372557Y-74323542D01*
X36318299Y-74479439D01*
X35757976Y-74479439D01*
X35832104Y-74088723D01*
X35933093Y-73626069D01*
X36487259Y-73626069D01*
X36507808Y-73681821D01*
X36581409Y-73608982D01*
X36683306Y-73461322D01*
X36778885Y-73219720D01*
X36763636Y-72932155D01*
X36703811Y-72616891D01*
X36594473Y-73082558D01*
X36517051Y-73430167D01*
X36487259Y-73626069D01*
X35933093Y-73626069D01*
X36003154Y-73305102D01*
X36141203Y-72715406D01*
X36299571Y-72051921D01*
X36007588Y-71501540D01*
X35852333Y-71177760D01*
X35728602Y-70863032D01*
X35664411Y-70631004D01*
X35661381Y-70612057D01*
X36179230Y-70612057D01*
X36180632Y-70618083D01*
X36289771Y-70900001D01*
X36506168Y-71298811D01*
X36823998Y-71805370D01*
X37237430Y-72410534D01*
X37740637Y-73105160D01*
X37913443Y-73336558D01*
X38241134Y-73778419D01*
X38550626Y-74206619D01*
X38820368Y-74590515D01*
X39028806Y-74899464D01*
X39149445Y-75093910D01*
X39398960Y-75538928D01*
X39553223Y-75178576D01*
X39648287Y-74916924D01*
X39755838Y-74561287D01*
X39854323Y-74183556D01*
X39864339Y-74140891D01*
X39951084Y-73717178D01*
X40027525Y-73258329D01*
X40076964Y-72865031D01*
X40132738Y-72266504D01*
X39446184Y-71815769D01*
X38840251Y-71337466D01*
X38366833Y-70791381D01*
X38037617Y-70194503D01*
X37864294Y-69563821D01*
X37856672Y-69505400D01*
X37823678Y-69264604D01*
X37793693Y-69173210D01*
X37755815Y-69211860D01*
X37728849Y-69278358D01*
X37665359Y-69414214D01*
X37610132Y-69402081D01*
X37572675Y-69342764D01*
X37540716Y-69125680D01*
X37543429Y-69115155D01*
X38013571Y-69115155D01*
X38035572Y-69443096D01*
X38098297Y-69785383D01*
X38197867Y-70093118D01*
X38222316Y-70147162D01*
X38331355Y-70340493D01*
X38394147Y-70377763D01*
X38409608Y-70266108D01*
X38376655Y-70012666D01*
X38298745Y-69643784D01*
X38231761Y-69309476D01*
X38193109Y-69014006D01*
X38190996Y-68861462D01*
X38364326Y-68861462D01*
X38368111Y-69084382D01*
X38387835Y-69303097D01*
X38418470Y-69465434D01*
X38454991Y-69519222D01*
X38461236Y-69514043D01*
X38482021Y-69420796D01*
X38511318Y-69207419D01*
X38523850Y-69093765D01*
X38695670Y-69093765D01*
X38700268Y-69449810D01*
X38732471Y-69825701D01*
X38791059Y-70184852D01*
X38874811Y-70490678D01*
X38930177Y-70620981D01*
X39025597Y-70793632D01*
X39132071Y-70939998D01*
X39276545Y-71083879D01*
X39485963Y-71249069D01*
X39787270Y-71459367D01*
X40160960Y-71707977D01*
X40493316Y-71933963D01*
X40786001Y-72145645D01*
X41000833Y-72314716D01*
X41084719Y-72392859D01*
X41208989Y-72514186D01*
X41276261Y-72545812D01*
X41267418Y-72457018D01*
X41218994Y-72243518D01*
X41139953Y-71942833D01*
X41089050Y-71762126D01*
X40805105Y-70946607D01*
X40441395Y-70169224D01*
X40027189Y-69491587D01*
X39978008Y-69423338D01*
X39770546Y-69179846D01*
X39514715Y-68934138D01*
X39250560Y-68718901D01*
X39018127Y-68566820D01*
X38859726Y-68510558D01*
X38774178Y-68587554D01*
X38719900Y-68794151D01*
X38695670Y-69093765D01*
X38523850Y-69093765D01*
X38539145Y-68955058D01*
X38553452Y-68663149D01*
X38534365Y-68480306D01*
X38491162Y-68422338D01*
X38433125Y-68505053D01*
X38381506Y-68686510D01*
X38364326Y-68861462D01*
X38190996Y-68861462D01*
X38190380Y-68817017D01*
X38192147Y-68806206D01*
X38207509Y-68663657D01*
X38157102Y-68659974D01*
X38107273Y-68697890D01*
X38036178Y-68850454D01*
X38013571Y-69115155D01*
X37543429Y-69115155D01*
X37580542Y-68971188D01*
X37635944Y-68799813D01*
X37644496Y-68718061D01*
X37557992Y-68728496D01*
X37370002Y-68782408D01*
X37292857Y-68808138D01*
X37029877Y-68936903D01*
X36767489Y-69125954D01*
X36548259Y-69336994D01*
X36414757Y-69531723D01*
X36393294Y-69617493D01*
X36361777Y-69784650D01*
X36283677Y-70019983D01*
X36260133Y-70078576D01*
X36180271Y-70365256D01*
X36179230Y-70612057D01*
X35661381Y-70612057D01*
X35613216Y-70310848D01*
X34873632Y-70353017D01*
X34374610Y-70364880D01*
X33987202Y-70322529D01*
X33657407Y-70207039D01*
X33331222Y-69999485D01*
X32954647Y-69680941D01*
X32953850Y-69680219D01*
X32621790Y-69388879D01*
X32316756Y-69148534D01*
X32006461Y-68940924D01*
X31658617Y-68747787D01*
X31240935Y-68550860D01*
X30721128Y-68331881D01*
X30211231Y-68129011D01*
X29492426Y-67838453D01*
X28909009Y-67580411D01*
X28433864Y-67339791D01*
X28039877Y-67101498D01*
X27699932Y-66850438D01*
X27386915Y-66571518D01*
X27351545Y-66537097D01*
X27094708Y-66259234D01*
X26813770Y-65911885D01*
X26522992Y-65518034D01*
X26236635Y-65100666D01*
X25968958Y-64682767D01*
X25734222Y-64287322D01*
X25692265Y-64209016D01*
X26357946Y-64209016D01*
X26368847Y-64309916D01*
X26472532Y-64510570D01*
X26648607Y-64784778D01*
X26876678Y-65106340D01*
X27136350Y-65449057D01*
X27407228Y-65786729D01*
X27668917Y-66093157D01*
X27901024Y-66342141D01*
X28083153Y-66507482D01*
X28190537Y-66563225D01*
X28204557Y-66492620D01*
X28162356Y-66310759D01*
X28103914Y-66140323D01*
X27847877Y-65566455D01*
X27549853Y-65065084D01*
X27229192Y-64661734D01*
X27009898Y-64472325D01*
X27366275Y-64472325D01*
X27722964Y-65004242D01*
X27929412Y-65344148D01*
X28123935Y-65720187D01*
X28286388Y-66087073D01*
X28396622Y-66399517D01*
X28434627Y-66603933D01*
X28499228Y-66730556D01*
X28647538Y-66872862D01*
X28811317Y-66971800D01*
X28876799Y-66986558D01*
X28931810Y-66916557D01*
X28940841Y-66838391D01*
X28901224Y-66614152D01*
X28799286Y-66290676D01*
X28654675Y-65916898D01*
X28487037Y-65541755D01*
X28316019Y-65214181D01*
X28237669Y-65086959D01*
X28027027Y-64816863D01*
X28332304Y-64816863D01*
X28367583Y-64929471D01*
X28481196Y-65115106D01*
X28634355Y-65394031D01*
X28792665Y-65758839D01*
X28936996Y-66155306D01*
X29048217Y-66529207D01*
X29107198Y-66826319D01*
X29111960Y-66902946D01*
X29156006Y-67101474D01*
X29318487Y-67216772D01*
X29344794Y-67226818D01*
X29563561Y-67298688D01*
X29660168Y-67287658D01*
X29669855Y-67173272D01*
X29649264Y-67050058D01*
X29535743Y-66592607D01*
X29371681Y-66131734D01*
X29173158Y-65696387D01*
X28956256Y-65315513D01*
X28752654Y-65039225D01*
X29039214Y-65039225D01*
X29245192Y-65407759D01*
X29475249Y-65891505D01*
X29674079Y-66441392D01*
X29811079Y-66969301D01*
X29834895Y-67105838D01*
X29896705Y-67367449D01*
X30009590Y-67504707D01*
X30217118Y-67562431D01*
X30285549Y-67569403D01*
X30356173Y-67534347D01*
X30362490Y-67389221D01*
X30342862Y-67261725D01*
X30242035Y-66851659D01*
X30085669Y-66373455D01*
X29900254Y-65899307D01*
X29712280Y-65501408D01*
X29667850Y-65422067D01*
X29496859Y-65173213D01*
X29403493Y-65102725D01*
X29723162Y-65102725D01*
X30010495Y-65704055D01*
X30247958Y-66285988D01*
X30424212Y-66815569D01*
X30527915Y-67259841D01*
X30551294Y-67509390D01*
X30587492Y-67654436D01*
X30722123Y-67764797D01*
X30911127Y-67846815D01*
X31185708Y-67946072D01*
X31333325Y-67978325D01*
X31384666Y-67938377D01*
X31370416Y-67821031D01*
X31358225Y-67771100D01*
X31262424Y-67479610D01*
X31109795Y-67118338D01*
X30916481Y-66715927D01*
X30698625Y-66301019D01*
X30472371Y-65902259D01*
X30253862Y-65548291D01*
X30059241Y-65267756D01*
X29904651Y-65089300D01*
X29868106Y-65068044D01*
X30212627Y-65068044D01*
X30253376Y-65148160D01*
X30362987Y-65340225D01*
X30522503Y-65611407D01*
X30634909Y-65799476D01*
X30862951Y-66211468D01*
X31103680Y-66698778D01*
X31315756Y-67176239D01*
X31375743Y-67325727D01*
X31524980Y-67701331D01*
X31641811Y-67954356D01*
X31751065Y-68121589D01*
X31877571Y-68239817D01*
X32046157Y-68345827D01*
X32075294Y-68362214D01*
X32296266Y-68484676D01*
X32447057Y-68566394D01*
X32484281Y-68585143D01*
X32455530Y-68516823D01*
X32359297Y-68320078D01*
X32206518Y-68016568D01*
X32008127Y-67627951D01*
X31775060Y-67175885D01*
X31687860Y-67007725D01*
X31379015Y-66413811D01*
X31137151Y-65953264D01*
X30951297Y-65609126D01*
X30810484Y-65364439D01*
X30703744Y-65202244D01*
X30620108Y-65105583D01*
X30573412Y-65074181D01*
X30889960Y-65074181D01*
X30927807Y-65156873D01*
X31032384Y-65362808D01*
X31190250Y-65666078D01*
X31387961Y-66040777D01*
X31528895Y-66305537D01*
X31777948Y-66776103D01*
X32026791Y-67253643D01*
X32251575Y-67691904D01*
X32428452Y-68044637D01*
X32477055Y-68144368D01*
X32729481Y-68584400D01*
X33040823Y-68998624D01*
X33383236Y-69360065D01*
X33728876Y-69641748D01*
X34049897Y-69816699D01*
X34249481Y-69861406D01*
X34239481Y-69800185D01*
X34141354Y-69629973D01*
X33970912Y-69375459D01*
X33743969Y-69061332D01*
X33696103Y-68997391D01*
X32654000Y-67490464D01*
X31705662Y-65860259D01*
X31686320Y-65823928D01*
X31485122Y-65458475D01*
X31334978Y-65222835D01*
X31296262Y-65180096D01*
X31567294Y-65180096D01*
X31609192Y-65289194D01*
X31724175Y-65514443D01*
X31896175Y-65828030D01*
X32109124Y-66202143D01*
X32346955Y-66608968D01*
X32593599Y-67020692D01*
X32832989Y-67409504D01*
X33049058Y-67747589D01*
X33061460Y-67766459D01*
X33343687Y-68182149D01*
X33659416Y-68626965D01*
X33960689Y-69034114D01*
X34110125Y-69226959D01*
X34353824Y-69526345D01*
X34528595Y-69714658D01*
X34666074Y-69817060D01*
X34797902Y-69858713D01*
X34912646Y-69865225D01*
X35108214Y-69852947D01*
X35205545Y-69822774D01*
X35207960Y-69816558D01*
X35154484Y-69737798D01*
X35009730Y-69562331D01*
X34797211Y-69317938D01*
X34594961Y-69092299D01*
X33692644Y-67999501D01*
X32935040Y-66872749D01*
X32478933Y-66035287D01*
X32285497Y-65647734D01*
X32144143Y-65388507D01*
X32035931Y-65232213D01*
X31948541Y-65159001D01*
X32268941Y-65159001D01*
X32288488Y-65244861D01*
X32380545Y-65446853D01*
X32529263Y-65736656D01*
X32718797Y-66085947D01*
X32933298Y-66466404D01*
X33156921Y-66849705D01*
X33373819Y-67207529D01*
X33568144Y-67511553D01*
X33662426Y-67649482D01*
X33988728Y-68085828D01*
X34336192Y-68508965D01*
X34684983Y-68898822D01*
X35015266Y-69235329D01*
X35307206Y-69498413D01*
X35540968Y-69668005D01*
X35696716Y-69724033D01*
X35710464Y-69721861D01*
X35850245Y-69669012D01*
X35885294Y-69635521D01*
X35830825Y-69561543D01*
X35682571Y-69390299D01*
X35463257Y-69147401D01*
X35199139Y-68862229D01*
X34681789Y-68263750D01*
X34162004Y-67579865D01*
X33677606Y-66864918D01*
X33266417Y-66173255D01*
X33088822Y-65829997D01*
X32929353Y-65517591D01*
X32811475Y-65337646D01*
X33103316Y-65337646D01*
X33116640Y-65433537D01*
X33204661Y-65642734D01*
X33351512Y-65935462D01*
X33541325Y-66281946D01*
X33758233Y-66652412D01*
X33986368Y-67017086D01*
X34049735Y-67113558D01*
X34258072Y-67410733D01*
X34512259Y-67748857D01*
X34790651Y-68101997D01*
X35071600Y-68444222D01*
X35333463Y-68749599D01*
X35554593Y-68992196D01*
X35713344Y-69146080D01*
X35781182Y-69187891D01*
X35783599Y-69119452D01*
X35770644Y-69067853D01*
X36414977Y-69067853D01*
X36441673Y-69087929D01*
X36567400Y-69010817D01*
X36722925Y-68898224D01*
X36981606Y-68751052D01*
X37299710Y-68625995D01*
X37412514Y-68594452D01*
X37673157Y-68513577D01*
X37869555Y-68419859D01*
X37923467Y-68376119D01*
X37962298Y-68296742D01*
X37881846Y-68262521D01*
X37721506Y-68256558D01*
X37265236Y-68328714D01*
X36858233Y-68528508D01*
X36545415Y-68830925D01*
X36467207Y-68955058D01*
X36414977Y-69067853D01*
X35770644Y-69067853D01*
X35752954Y-68997391D01*
X35662847Y-68826633D01*
X35621613Y-68770121D01*
X36229796Y-68770121D01*
X36285012Y-68780727D01*
X36442782Y-68666441D01*
X36541460Y-68575115D01*
X36774966Y-68375746D01*
X37006197Y-68220848D01*
X37097305Y-68176932D01*
X37302847Y-68130470D01*
X37610229Y-68095683D01*
X37943972Y-68080348D01*
X38252767Y-68075021D01*
X38412879Y-68063072D01*
X38444957Y-68037321D01*
X38369650Y-67990591D01*
X38298294Y-67957167D01*
X37868939Y-67847964D01*
X37406423Y-67876206D01*
X36957637Y-68030121D01*
X36569471Y-68297939D01*
X36453291Y-68420339D01*
X36283701Y-68646151D01*
X36229796Y-68770121D01*
X35621613Y-68770121D01*
X35497825Y-68600468D01*
X35384497Y-68468225D01*
X34826764Y-67763835D01*
X34367245Y-66991803D01*
X34035314Y-66203098D01*
X33983986Y-66038125D01*
X33892599Y-65760639D01*
X33891564Y-65758891D01*
X34084789Y-65758891D01*
X34143397Y-65970558D01*
X34241093Y-66242222D01*
X34395312Y-66577377D01*
X34589725Y-66949609D01*
X34808005Y-67332500D01*
X35033824Y-67699634D01*
X35250855Y-68024596D01*
X35442769Y-68280969D01*
X35593238Y-68442337D01*
X35685935Y-68482285D01*
X35692802Y-68477271D01*
X35678453Y-68386974D01*
X35601593Y-68188736D01*
X35478584Y-67924462D01*
X35471068Y-67909371D01*
X35338505Y-67627101D01*
X35270289Y-67458453D01*
X35461960Y-67458453D01*
X35499938Y-67574386D01*
X35592203Y-67760922D01*
X35706253Y-67960761D01*
X35809587Y-68116605D01*
X35866648Y-68171891D01*
X35954242Y-68108311D01*
X36040127Y-67994313D01*
X36114591Y-67853513D01*
X36123993Y-67797943D01*
X35966210Y-67699983D01*
X35769835Y-67592119D01*
X35588520Y-67501864D01*
X35475918Y-67456732D01*
X35461960Y-67458453D01*
X35270289Y-67458453D01*
X35243975Y-67393398D01*
X35207960Y-67258953D01*
X35158604Y-67127731D01*
X35029450Y-66906714D01*
X34848868Y-66636385D01*
X34645230Y-66357230D01*
X34446906Y-66109735D01*
X34282268Y-65934383D01*
X34275417Y-65928225D01*
X34084789Y-65758891D01*
X33891564Y-65758891D01*
X33794815Y-65595553D01*
X33648735Y-65489700D01*
X33500284Y-65424364D01*
X33280031Y-65351128D01*
X33130594Y-65328849D01*
X33103316Y-65337646D01*
X32811475Y-65337646D01*
X32805416Y-65328397D01*
X32688552Y-65228849D01*
X32550299Y-65185383D01*
X32540960Y-65183866D01*
X32357112Y-65160178D01*
X32269118Y-65158864D01*
X32268941Y-65159001D01*
X31948541Y-65159001D01*
X31941923Y-65153457D01*
X31843179Y-65126845D01*
X31800127Y-65125120D01*
X31631058Y-65141887D01*
X31567294Y-65180096D01*
X31296262Y-65180096D01*
X31217007Y-65092606D01*
X31112332Y-65043383D01*
X31080460Y-65040761D01*
X30931580Y-65052771D01*
X30889960Y-65074181D01*
X30573412Y-65074181D01*
X30548604Y-65057498D01*
X30478266Y-65041030D01*
X30414556Y-65039225D01*
X30259949Y-65049558D01*
X30212627Y-65068044D01*
X29868106Y-65068044D01*
X29818557Y-65039225D01*
X29723586Y-65071790D01*
X29723162Y-65102725D01*
X29403493Y-65102725D01*
X29343182Y-65057192D01*
X29241351Y-65039225D01*
X29039214Y-65039225D01*
X28752654Y-65039225D01*
X28737055Y-65018057D01*
X28531636Y-64832968D01*
X28391092Y-64785225D01*
X28332304Y-64816863D01*
X28027027Y-64816863D01*
X27998128Y-64779807D01*
X27765778Y-64604808D01*
X27657211Y-64561616D01*
X27366275Y-64472325D01*
X27009898Y-64472325D01*
X26905240Y-64381929D01*
X26689055Y-64273956D01*
X26487299Y-64218099D01*
X26367117Y-64204948D01*
X26357946Y-64209016D01*
X25692265Y-64209016D01*
X25546687Y-63937315D01*
X25420615Y-63655733D01*
X25403968Y-63592856D01*
X26589374Y-63592856D01*
X26628527Y-63636065D01*
X26809696Y-63717754D01*
X27112027Y-63830078D01*
X27514663Y-63965191D01*
X27901708Y-64086472D01*
X29323627Y-64519788D01*
X30889960Y-64565904D01*
X31439582Y-64588016D01*
X31971682Y-64620132D01*
X32445957Y-64659057D01*
X32822104Y-64701598D01*
X33018817Y-64734656D01*
X33738453Y-64956715D01*
X34340158Y-65289533D01*
X34844778Y-65746837D01*
X35140381Y-66131858D01*
X35521717Y-66639138D01*
X35891476Y-66999282D01*
X36270781Y-67231301D01*
X36430058Y-67292541D01*
X36725444Y-67391219D01*
X36885847Y-67462039D01*
X36936943Y-67530632D01*
X36904409Y-67622636D01*
X36848509Y-67710293D01*
X36712939Y-67917198D01*
X37039674Y-67780680D01*
X37418082Y-67691989D01*
X37862804Y-67689482D01*
X38297913Y-67767460D01*
X38613663Y-67898793D01*
X38858412Y-68025365D01*
X39084488Y-68111170D01*
X39102627Y-68115817D01*
X39403390Y-68258397D01*
X39750497Y-68548309D01*
X40131770Y-68973987D01*
X40440097Y-69385758D01*
X40919471Y-70069877D01*
X40995294Y-69692384D01*
X41021282Y-69480070D01*
X41044275Y-69136399D01*
X41062549Y-68699343D01*
X41074380Y-68206872D01*
X41077796Y-67875558D01*
X41072765Y-67163048D01*
X41048725Y-66581376D01*
X41003262Y-66092862D01*
X40936773Y-65674225D01*
X40826176Y-65169295D01*
X40682687Y-64609041D01*
X40520869Y-64043216D01*
X40355283Y-63521574D01*
X40200493Y-63093868D01*
X40137688Y-62944073D01*
X39985178Y-62603430D01*
X40253367Y-62603430D01*
X40304666Y-62825837D01*
X40401458Y-63124981D01*
X40450739Y-63257455D01*
X40787064Y-64286052D01*
X41041230Y-65394135D01*
X41208902Y-66539829D01*
X41285745Y-67681262D01*
X41267424Y-68776557D01*
X41149605Y-69783842D01*
X41134742Y-69864697D01*
X41104600Y-70145145D01*
X41113490Y-70411332D01*
X41153934Y-70625333D01*
X41218458Y-70749221D01*
X41299584Y-70745072D01*
X41306850Y-70737768D01*
X41352653Y-70629646D01*
X41422601Y-70396981D01*
X41504899Y-70080706D01*
X41546535Y-69905990D01*
X41768805Y-68578185D01*
X41834657Y-67216392D01*
X41745992Y-65846698D01*
X41504711Y-64495192D01*
X41112714Y-63187961D01*
X41043721Y-63004274D01*
X40913365Y-62674349D01*
X40819724Y-62474861D01*
X40740834Y-62377403D01*
X40654735Y-62353570D01*
X40554289Y-62371255D01*
X40360666Y-62437247D01*
X40257639Y-62497436D01*
X40253367Y-62603430D01*
X39985178Y-62603430D01*
X39984751Y-62602476D01*
X39771470Y-62757840D01*
X39558190Y-62913204D01*
X39806301Y-63870381D01*
X39900885Y-64254333D01*
X39970396Y-64595341D01*
X40019876Y-64936357D01*
X40054371Y-65320335D01*
X40078925Y-65790229D01*
X40097486Y-66350015D01*
X40140559Y-67872472D01*
X40423542Y-68292677D01*
X40568394Y-68519805D01*
X40658389Y-68684703D01*
X40674745Y-68744662D01*
X40603992Y-68706114D01*
X40449439Y-68574427D01*
X40249267Y-68382741D01*
X39700665Y-67950533D01*
X39069101Y-67656614D01*
X38386788Y-67515888D01*
X38373576Y-67514797D01*
X38096114Y-67482657D01*
X37900985Y-67441210D01*
X37832627Y-67402136D01*
X37910362Y-67333306D01*
X38116761Y-67281959D01*
X38411614Y-67253109D01*
X38754712Y-67251768D01*
X38941690Y-67263865D01*
X39441294Y-67309167D01*
X39441294Y-66650953D01*
X39402916Y-65952357D01*
X39296631Y-65186080D01*
X39135707Y-64433049D01*
X39001518Y-63968869D01*
X38833453Y-63456908D01*
X39055133Y-63456908D01*
X39101849Y-63686626D01*
X39200973Y-64036954D01*
X39216794Y-64089345D01*
X39454615Y-65040558D01*
X39580478Y-65986086D01*
X39608950Y-66749517D01*
X39615304Y-67118776D01*
X39636617Y-67354131D01*
X39679327Y-67490798D01*
X39749872Y-67563993D01*
X39758794Y-67569227D01*
X39821431Y-67592133D01*
X39864656Y-67561118D01*
X39893111Y-67450885D01*
X39911437Y-67236135D01*
X39924274Y-66891571D01*
X39930817Y-66631579D01*
X39924387Y-65887614D01*
X39872858Y-65199517D01*
X39824419Y-64856061D01*
X39716247Y-64284808D01*
X39605978Y-63803857D01*
X39499141Y-63432194D01*
X39401264Y-63188805D01*
X39317873Y-63092675D01*
X39310779Y-63091891D01*
X39175529Y-63151065D01*
X39100452Y-63221511D01*
X39056207Y-63313353D01*
X39055133Y-63456908D01*
X38833453Y-63456908D01*
X38816268Y-63404560D01*
X38316422Y-63936351D01*
X38051850Y-64234199D01*
X37900929Y-64462109D01*
X37850079Y-64661885D01*
X37885721Y-64875330D01*
X37953776Y-65052742D01*
X37960883Y-65160197D01*
X37862674Y-65235413D01*
X37641390Y-65283291D01*
X37279276Y-65308735D01*
X37003604Y-65315072D01*
X36646100Y-65309614D01*
X36347749Y-65272686D01*
X36080370Y-65188403D01*
X35815782Y-65040880D01*
X35525804Y-64814231D01*
X35182256Y-64492570D01*
X34756957Y-64060013D01*
X34732987Y-64035134D01*
X34256197Y-63553473D01*
X33854182Y-63187352D01*
X33495535Y-62920405D01*
X33148849Y-62736265D01*
X32782717Y-62618566D01*
X32365734Y-62550943D01*
X31866493Y-62517027D01*
X31815988Y-62515052D01*
X31200388Y-62511391D01*
X30639819Y-62556903D01*
X30037988Y-62658148D01*
X29693879Y-62732988D01*
X29265928Y-62835247D01*
X28785772Y-62956348D01*
X28285047Y-63087718D01*
X27795389Y-63220782D01*
X27348437Y-63346965D01*
X26975826Y-63457692D01*
X26709192Y-63544388D01*
X26589374Y-63592856D01*
X25403968Y-63592856D01*
X25370265Y-63465559D01*
X25400242Y-63391960D01*
X25748497Y-63278541D01*
X26218966Y-63134605D01*
X26769940Y-62972108D01*
X27359710Y-62803000D01*
X27946570Y-62639236D01*
X28488811Y-62492768D01*
X28944724Y-62375550D01*
X28959734Y-62371846D01*
X29941812Y-62152963D01*
X30796073Y-62015037D01*
X31543434Y-61958079D01*
X32204813Y-61982102D01*
X32801126Y-62087117D01*
X33353290Y-62273135D01*
X33575004Y-62374406D01*
X33848423Y-62520283D01*
X34095251Y-62683331D01*
X34348363Y-62890814D01*
X34640635Y-63169996D01*
X35004942Y-63548142D01*
X35056670Y-63603180D01*
X35383982Y-63941742D01*
X35693408Y-64243114D01*
X35956828Y-64481215D01*
X36146125Y-64629966D01*
X36194422Y-64658432D01*
X36442417Y-64734721D01*
X36758325Y-64779913D01*
X36892922Y-64785225D01*
X37146756Y-64779617D01*
X37274499Y-64746692D01*
X37319366Y-64662297D01*
X37324627Y-64543928D01*
X37401629Y-64252292D01*
X37630525Y-63896719D01*
X38008152Y-63481323D01*
X38453307Y-63076091D01*
X39136077Y-62542843D01*
X39687331Y-62202235D01*
X40980061Y-62202235D01*
X40990701Y-62293632D01*
X41053771Y-62502391D01*
X41156957Y-62789409D01*
X41199771Y-62899853D01*
X41557569Y-63941014D01*
X41802728Y-64983594D01*
X41943759Y-66075074D01*
X41989176Y-67262935D01*
X41989146Y-67302856D01*
X41946673Y-68428467D01*
X41818632Y-69462511D01*
X41597491Y-70463703D01*
X41571480Y-70558832D01*
X41489965Y-70874883D01*
X41457940Y-71103316D01*
X41473780Y-71317949D01*
X41535860Y-71592597D01*
X41547704Y-71638332D01*
X41624976Y-71904567D01*
X41693903Y-72089984D01*
X41735405Y-72151225D01*
X41786988Y-72077457D01*
X41879004Y-71880221D01*
X41995216Y-71595616D01*
X42049567Y-71452725D01*
X42468099Y-70129969D01*
X42725349Y-68834927D01*
X42823290Y-67550337D01*
X42763893Y-66258940D01*
X42699887Y-65758891D01*
X42544078Y-64957694D01*
X42316148Y-64099250D01*
X42039491Y-63263611D01*
X41789894Y-62645305D01*
X41653627Y-62349146D01*
X41555648Y-62178797D01*
X41467261Y-62104549D01*
X41359764Y-62096692D01*
X41274218Y-62111473D01*
X41082317Y-62159300D01*
X40980061Y-62202235D01*
X39687331Y-62202235D01*
X39795280Y-62135536D01*
X40478935Y-61826657D01*
X40864673Y-61694360D01*
X41296164Y-61555257D01*
X41796483Y-61386614D01*
X42276069Y-61218789D01*
X42404627Y-61172369D01*
X42898368Y-60995925D01*
X43276256Y-60872637D01*
X43579808Y-60793144D01*
X43850543Y-60748090D01*
X44129979Y-60728115D01*
X44394294Y-60723887D01*
X45205321Y-60750333D01*
X45899246Y-60839070D01*
X46519337Y-60998030D01*
X47061294Y-61212876D01*
X47479166Y-61398360D01*
X47934670Y-61588363D01*
X48341750Y-61747205D01*
X48411766Y-61772809D01*
X49419065Y-62205541D01*
X50285682Y-62728590D01*
X50685463Y-63039917D01*
X51217334Y-63528289D01*
X51649650Y-63999869D01*
X51970021Y-64437919D01*
X52166060Y-64825700D01*
X52225960Y-65121172D01*
X52245200Y-65220037D01*
X52329651Y-65271808D01*
X52519410Y-65291123D01*
X52697193Y-65293225D01*
X52996909Y-65275963D01*
X53251593Y-65231759D01*
X53353360Y-65195777D01*
X53486074Y-65100540D01*
X53708499Y-64914540D01*
X53988998Y-64665120D01*
X54279430Y-64395303D01*
X54786164Y-63930522D01*
X55214265Y-63576659D01*
X55592224Y-63313488D01*
X55948532Y-63120783D01*
X56242127Y-63002006D01*
X56731528Y-62864445D01*
X57254077Y-62789313D01*
X57824823Y-62779090D01*
X58458812Y-62836259D01*
X59171092Y-62963299D01*
X59976712Y-63162693D01*
X60890718Y-63436922D01*
X61928158Y-63788466D01*
X62691648Y-64065472D01*
X63164119Y-64241480D01*
X63579113Y-64397788D01*
X63911608Y-64524831D01*
X64136580Y-64613043D01*
X64229006Y-64652859D01*
X64229735Y-64653444D01*
X64204357Y-64737787D01*
X64101206Y-64931445D01*
X63938925Y-65204531D01*
X63736161Y-65527155D01*
X63511557Y-65869431D01*
X63283759Y-66201470D01*
X63135302Y-66407846D01*
X62620549Y-67038291D01*
X62067889Y-67572005D01*
X61450878Y-68025974D01*
X60743072Y-68417183D01*
X59918027Y-68762619D01*
X58999294Y-69064526D01*
X58311887Y-69280524D01*
X57751725Y-69488446D01*
X57278936Y-69707526D01*
X56853649Y-69956998D01*
X56435993Y-70256095D01*
X56289960Y-70371449D01*
X55969927Y-70610252D01*
X55655957Y-70812345D01*
X55397843Y-70946802D01*
X55316294Y-70976159D01*
X54955981Y-71025594D01*
X54484448Y-71015927D01*
X53948467Y-70948987D01*
X53771127Y-70915798D01*
X53583576Y-70890874D01*
X53508617Y-70939579D01*
X53495960Y-71063191D01*
X53455151Y-71227314D01*
X53346376Y-71488639D01*
X53190118Y-71799966D01*
X53126410Y-71914800D01*
X52756861Y-72563276D01*
X53001859Y-74241084D01*
X53131136Y-75243924D01*
X53217658Y-76178654D01*
X53260940Y-77026433D01*
X53260497Y-77768419D01*
X53215843Y-78385771D01*
X53126493Y-78859648D01*
X53121267Y-78877798D01*
X52925107Y-79423979D01*
X52663875Y-79980963D01*
X52374816Y-80472291D01*
X52277606Y-80609745D01*
X52160356Y-80814508D01*
X52019919Y-81131843D01*
X51877597Y-81510941D01*
X51798361Y-81752745D01*
X51484567Y-82652165D01*
X51144809Y-83400029D01*
X50782414Y-83989464D01*
X50612715Y-84201332D01*
X50396411Y-84416094D01*
X50084224Y-84686872D01*
X49721290Y-84975940D01*
X49419260Y-85198896D01*
X49034891Y-85487280D01*
X48702387Y-85766746D01*
X48456432Y-86006903D01*
X48359403Y-86127532D01*
X48242065Y-86339540D01*
X48088661Y-86665671D01*
X47919607Y-87060411D01*
X47764608Y-87453517D01*
X47545014Y-88006169D01*
X47348805Y-88422536D01*
X47157538Y-88730419D01*
X46952771Y-88957620D01*
X46716060Y-89131939D01*
X46611889Y-89191173D01*
X46483003Y-89254870D01*
X46349938Y-89302812D01*
X46186731Y-89337482D01*
X45967419Y-89361361D01*
X45666039Y-89376929D01*
X45256630Y-89386669D01*
X44713229Y-89393062D01*
X44478960Y-89395028D01*
X43920502Y-89396113D01*
X43395763Y-89390922D01*
X42937055Y-89380257D01*
X42576686Y-89364919D01*
X42346965Y-89345706D01*
X42319960Y-89341544D01*
X41831188Y-89215909D01*
X41396222Y-89031488D01*
X41071800Y-88812504D01*
X41064043Y-88805350D01*
X40873523Y-88585262D01*
X40701909Y-88287457D01*
X40536156Y-87883863D01*
X40363220Y-87346407D01*
X40325148Y-87215229D01*
X40169397Y-86698939D01*
X40017965Y-86286552D01*
X39972744Y-86195840D01*
X40618745Y-86195840D01*
X40634311Y-86355938D01*
X40673212Y-86523145D01*
X40715696Y-86672151D01*
X40838294Y-87094891D01*
X40863188Y-86567294D01*
X41063785Y-86567294D01*
X41092818Y-87233659D01*
X41163706Y-87769642D01*
X41274931Y-88163233D01*
X41407225Y-88384688D01*
X41572421Y-88529720D01*
X41683653Y-88571552D01*
X41712565Y-88503797D01*
X41696818Y-88449928D01*
X41588624Y-88073675D01*
X41495592Y-87565227D01*
X41422110Y-86961382D01*
X41372566Y-86298936D01*
X41351349Y-85614685D01*
X41350966Y-85549931D01*
X41349499Y-85417233D01*
X41522681Y-85417233D01*
X41523462Y-85663464D01*
X41543509Y-86298062D01*
X41592115Y-86908710D01*
X41664727Y-87471034D01*
X41756790Y-87960658D01*
X41863752Y-88353210D01*
X41981059Y-88624314D01*
X42099721Y-88747912D01*
X42317235Y-88819523D01*
X42402455Y-88803024D01*
X42404627Y-88790007D01*
X42379531Y-88696020D01*
X42313061Y-88483713D01*
X42218443Y-88195055D01*
X42196126Y-88128343D01*
X41949349Y-87216043D01*
X41788619Y-86235007D01*
X41727497Y-85269533D01*
X41727475Y-85263467D01*
X41896627Y-85263467D01*
X41917848Y-85764623D01*
X41976837Y-86305801D01*
X42066585Y-86858618D01*
X42180081Y-87394691D01*
X42310315Y-87885638D01*
X42450275Y-88303074D01*
X42592953Y-88618617D01*
X42731338Y-88803885D01*
X42778268Y-88833027D01*
X43000836Y-88900296D01*
X43140526Y-88898048D01*
X43166627Y-88861718D01*
X43126062Y-88761012D01*
X43026058Y-88581342D01*
X43001944Y-88541749D01*
X42902930Y-88344723D01*
X42774058Y-88037447D01*
X42636194Y-87671232D01*
X42567501Y-87473422D01*
X42432891Y-87039819D01*
X42344541Y-86654392D01*
X42290038Y-86246666D01*
X42256969Y-85746165D01*
X42254784Y-85697891D01*
X42237784Y-85404531D01*
X42403820Y-85404531D01*
X42416056Y-85761653D01*
X42451502Y-86153075D01*
X42509749Y-86545498D01*
X42532462Y-86662584D01*
X42648722Y-87132745D01*
X42798096Y-87600602D01*
X42967641Y-88037626D01*
X43144411Y-88415288D01*
X43315463Y-88705057D01*
X43467851Y-88878405D01*
X43554532Y-88915225D01*
X43662997Y-88896083D01*
X43674627Y-88881757D01*
X43643849Y-88793425D01*
X43562439Y-88590279D01*
X43446786Y-88313013D01*
X43423481Y-88258104D01*
X43047933Y-87192682D01*
X42780841Y-86024873D01*
X42723612Y-85662193D01*
X42660453Y-85294003D01*
X42592213Y-85024354D01*
X42591288Y-85022358D01*
X42827960Y-85022358D01*
X42847377Y-85269152D01*
X42899459Y-85630170D01*
X42974948Y-86055575D01*
X43064592Y-86495528D01*
X43159132Y-86900191D01*
X43215557Y-87109463D01*
X43346010Y-87522292D01*
X43494236Y-87932091D01*
X43646680Y-88307556D01*
X43789786Y-88617383D01*
X43909999Y-88830268D01*
X43993763Y-88914907D01*
X43997496Y-88915225D01*
X44071911Y-88845421D01*
X44088858Y-88820295D01*
X44346567Y-88820295D01*
X44349674Y-88894818D01*
X44416196Y-88914997D01*
X44430967Y-88915225D01*
X44581265Y-88838345D01*
X44589174Y-88829100D01*
X44863571Y-88829100D01*
X44947887Y-88900439D01*
X45102398Y-88915225D01*
X45245276Y-88896766D01*
X45256735Y-88888421D01*
X45582451Y-88888421D01*
X45642759Y-88913312D01*
X45683739Y-88913928D01*
X45875391Y-88875801D01*
X45940386Y-88844859D01*
X46039461Y-88712257D01*
X46051358Y-88685370D01*
X46300386Y-88685370D01*
X46354762Y-88707676D01*
X46483670Y-88650399D01*
X46632235Y-88543168D01*
X46710842Y-88463758D01*
X46796963Y-88284889D01*
X46885164Y-87970601D01*
X46968997Y-87554593D01*
X46987255Y-87433558D01*
X47145960Y-87433558D01*
X47188294Y-87475891D01*
X47230627Y-87433558D01*
X47188294Y-87391225D01*
X47145960Y-87433558D01*
X46987255Y-87433558D01*
X47021439Y-87206949D01*
X47272960Y-87206949D01*
X47425927Y-86817599D01*
X47488277Y-86646899D01*
X47525207Y-86492047D01*
X47537011Y-86315021D01*
X47523982Y-86077798D01*
X47486414Y-85742354D01*
X47437134Y-85364570D01*
X47382863Y-84962543D01*
X47336366Y-84627836D01*
X47302202Y-84392581D01*
X47284933Y-84288913D01*
X47284168Y-84286778D01*
X47280526Y-84362155D01*
X47277379Y-84579982D01*
X47274934Y-84913379D01*
X47273397Y-85335464D01*
X47272960Y-85739807D01*
X47272960Y-87206949D01*
X47021439Y-87206949D01*
X47042013Y-87070563D01*
X47097761Y-86552211D01*
X47112148Y-86366788D01*
X47131289Y-85927148D01*
X47130655Y-85491171D01*
X47112615Y-85091128D01*
X47079536Y-84759286D01*
X47033785Y-84527914D01*
X46977730Y-84429281D01*
X46969888Y-84427891D01*
X46935961Y-84506328D01*
X46909428Y-84716802D01*
X46894011Y-85022056D01*
X46891620Y-85211058D01*
X46856581Y-85974467D01*
X46759513Y-86781212D01*
X46611548Y-87555351D01*
X46471515Y-88076412D01*
X46385030Y-88361111D01*
X46323430Y-88580630D01*
X46300386Y-88685370D01*
X46051358Y-88685370D01*
X46158586Y-88443037D01*
X46287280Y-88067137D01*
X46415062Y-87614496D01*
X46508570Y-87221891D01*
X46569185Y-86887062D01*
X46621587Y-86489031D01*
X46663943Y-86060379D01*
X46694418Y-85633681D01*
X46711178Y-85241518D01*
X46712390Y-84916465D01*
X46696220Y-84691102D01*
X46660833Y-84598006D01*
X46656321Y-84597225D01*
X46604253Y-84674492D01*
X46553125Y-84877283D01*
X46513833Y-85162083D01*
X46513205Y-85168725D01*
X46380632Y-86226029D01*
X46193475Y-87168842D01*
X45955764Y-87980280D01*
X45695138Y-88597725D01*
X45599414Y-88796986D01*
X45582451Y-88888421D01*
X45256735Y-88888421D01*
X45354082Y-88817530D01*
X45462663Y-88641727D01*
X45562781Y-88428391D01*
X45875316Y-87606985D01*
X46111257Y-86731625D01*
X46252098Y-85875942D01*
X46275657Y-85592058D01*
X46292791Y-85163022D01*
X46284112Y-84893136D01*
X46249181Y-84774129D01*
X46231935Y-84766558D01*
X46162967Y-84778980D01*
X46111774Y-84835507D01*
X46070076Y-84965033D01*
X46029595Y-85196451D01*
X45982053Y-85558655D01*
X45965084Y-85697891D01*
X45905973Y-86116660D01*
X45832964Y-86533536D01*
X45758897Y-86877622D01*
X45735056Y-86967891D01*
X45641758Y-87242903D01*
X45505514Y-87582382D01*
X45346756Y-87941953D01*
X45185915Y-88277236D01*
X45043422Y-88543855D01*
X44939709Y-88697432D01*
X44937901Y-88699325D01*
X44863571Y-88829100D01*
X44589174Y-88829100D01*
X44767698Y-88620417D01*
X44850994Y-88493389D01*
X45312334Y-87588193D01*
X45636488Y-86592682D01*
X45825933Y-85499194D01*
X45829534Y-85465058D01*
X45848055Y-85192131D01*
X45842333Y-85001513D01*
X45816664Y-84937188D01*
X45698620Y-84977897D01*
X45607251Y-85112517D01*
X45530327Y-85367567D01*
X45468164Y-85692854D01*
X45336127Y-86303714D01*
X45142515Y-86968145D01*
X44909414Y-87620609D01*
X44658912Y-88195568D01*
X44560494Y-88386058D01*
X44414348Y-88660888D01*
X44346567Y-88820295D01*
X44088858Y-88820295D01*
X44196477Y-88660740D01*
X44346658Y-88398276D01*
X44375516Y-88343725D01*
X44551138Y-87977736D01*
X44740198Y-87537159D01*
X44905612Y-87109030D01*
X44925640Y-87052558D01*
X45043345Y-86684384D01*
X45153334Y-86284615D01*
X45247934Y-85889154D01*
X45319471Y-85533902D01*
X45360273Y-85254763D01*
X45362667Y-85087640D01*
X45351388Y-85060430D01*
X45233720Y-85030705D01*
X45109578Y-85165769D01*
X44981593Y-85461327D01*
X44868216Y-85849428D01*
X44753614Y-86259353D01*
X44615937Y-86686733D01*
X44467814Y-87099177D01*
X44321874Y-87464294D01*
X44190748Y-87749692D01*
X44087063Y-87922981D01*
X44045697Y-87958979D01*
X43962099Y-87901948D01*
X43855592Y-87695989D01*
X43731711Y-87359102D01*
X43595991Y-86909285D01*
X43453968Y-86364538D01*
X43311175Y-85742860D01*
X43203812Y-85221175D01*
X43134139Y-85100383D01*
X43030877Y-85020558D01*
X43340194Y-85020558D01*
X43389720Y-85295725D01*
X43464113Y-85665223D01*
X43562543Y-86094556D01*
X43672167Y-86533296D01*
X43780145Y-86931015D01*
X43873633Y-87237284D01*
X43909468Y-87336693D01*
X43972923Y-87486169D01*
X44027374Y-87562663D01*
X44083825Y-87550450D01*
X44153279Y-87433804D01*
X44246740Y-87196998D01*
X44375212Y-86824306D01*
X44472775Y-86531644D01*
X44599873Y-86135639D01*
X44710944Y-85765270D01*
X44791376Y-85470579D01*
X44821276Y-85338058D01*
X44878805Y-85020558D01*
X43340194Y-85020558D01*
X43030877Y-85020558D01*
X43010993Y-85005187D01*
X42890492Y-84965273D01*
X42828756Y-85010328D01*
X42827960Y-85022358D01*
X42591288Y-85022358D01*
X42527187Y-84883991D01*
X42510460Y-84871971D01*
X42450613Y-84926390D01*
X42415202Y-85115011D01*
X42403820Y-85404531D01*
X42237784Y-85404531D01*
X42228097Y-85237380D01*
X42191401Y-84921674D01*
X42138132Y-84726281D01*
X42061727Y-84626708D01*
X41960127Y-84598521D01*
X41930424Y-84675798D01*
X41908154Y-84882080D01*
X41897162Y-85177077D01*
X41896627Y-85263467D01*
X41727475Y-85263467D01*
X41727294Y-85214078D01*
X41721491Y-84823568D01*
X41702131Y-84580907D01*
X41666283Y-84464942D01*
X41621460Y-84449909D01*
X41576369Y-84514722D01*
X41545864Y-84685304D01*
X41528463Y-84980020D01*
X41522681Y-85417233D01*
X41349499Y-85417233D01*
X41346036Y-85104073D01*
X41335520Y-84724853D01*
X41320727Y-84441305D01*
X41302969Y-84282464D01*
X41292668Y-84258764D01*
X41233432Y-84309760D01*
X41184398Y-84472776D01*
X41143551Y-84762108D01*
X41108880Y-85192049D01*
X41078373Y-85776895D01*
X41078126Y-85782558D01*
X41063785Y-86567294D01*
X40863188Y-86567294D01*
X40892224Y-85951891D01*
X40916620Y-85485273D01*
X40944151Y-85039372D01*
X40971587Y-84662219D01*
X40995695Y-84401844D01*
X40997618Y-84385558D01*
X41001534Y-84298290D01*
X40975624Y-84360880D01*
X40924487Y-84557389D01*
X40852721Y-84871877D01*
X40838808Y-84935891D01*
X40736546Y-85412877D01*
X40667414Y-85758843D01*
X40628963Y-86008319D01*
X40618745Y-86195840D01*
X39972744Y-86195840D01*
X39847219Y-85944039D01*
X39633526Y-85637373D01*
G37*
G36*
X50160925Y-70008727D02*
G01*
X50233830Y-70167832D01*
X50208207Y-70401104D01*
X50091149Y-70682441D01*
X49889748Y-70985738D01*
X49622554Y-71274339D01*
X49407806Y-71436194D01*
X49242713Y-71459586D01*
X49110227Y-71372291D01*
X49014525Y-71178299D01*
X49084002Y-70956954D01*
X49228533Y-70790150D01*
X49415473Y-70573806D01*
X49589000Y-70309010D01*
X49611254Y-70267391D01*
X49757199Y-70045284D01*
X49913973Y-69956041D01*
X49982401Y-69949891D01*
X50160925Y-70008727D01*
G37*
G36*
X39285690Y-69645850D02*
G01*
X39456351Y-69795911D01*
X39508731Y-69877732D01*
X39662104Y-70121542D01*
X39855380Y-70381058D01*
X39892056Y-70425209D01*
X40064341Y-70691160D01*
X40103899Y-70911547D01*
X40012197Y-71063226D01*
X39848043Y-71119239D01*
X39697069Y-71109844D01*
X39557333Y-71022492D01*
X39387657Y-70827419D01*
X39320939Y-70738239D01*
X39113075Y-70404367D01*
X38981503Y-70087872D01*
X38939713Y-69828864D01*
X38972232Y-69701385D01*
X39108522Y-69609150D01*
X39285690Y-69645850D01*
G37*
G36*
X41548457Y-78255594D02*
G01*
X41717965Y-78396734D01*
X41960984Y-78624964D01*
X42257120Y-78921357D01*
X42489385Y-79163804D01*
X42981885Y-79671427D01*
X43390210Y-80053057D01*
X43732372Y-80317724D01*
X44026381Y-80474461D01*
X44290249Y-80532298D01*
X44541987Y-80500267D01*
X44799605Y-80387399D01*
X44859444Y-80352261D01*
X45024056Y-80231779D01*
X45281437Y-80019401D01*
X45602153Y-79740448D01*
X45956772Y-79420246D01*
X46138323Y-79251911D01*
X46475497Y-78939414D01*
X46769805Y-78672415D01*
X46999123Y-78470529D01*
X47141327Y-78353374D01*
X47176006Y-78331891D01*
X47202929Y-78409402D01*
X47222437Y-78613381D01*
X47230584Y-78900998D01*
X47230627Y-78924558D01*
X47224745Y-79240030D01*
X47201290Y-79421680D01*
X47151545Y-79504786D01*
X47082460Y-79524280D01*
X46813397Y-79551763D01*
X46595449Y-79621888D01*
X46379877Y-79760577D01*
X46117944Y-79993754D01*
X46019144Y-80089835D01*
X45486711Y-80556232D01*
X44992574Y-80864581D01*
X44524159Y-81018349D01*
X44068892Y-81021000D01*
X43614199Y-80875999D01*
X43459886Y-80795051D01*
X43213521Y-80621501D01*
X42909314Y-80360619D01*
X42596601Y-80056173D01*
X42452379Y-79901189D01*
X42207836Y-79640490D01*
X42003716Y-79446292D01*
X41865374Y-79341326D01*
X41820237Y-79334499D01*
X41708846Y-79380868D01*
X41538862Y-79373055D01*
X41413375Y-79341480D01*
X41349259Y-79279844D01*
X41332984Y-79145630D01*
X41351024Y-78896323D01*
X41359480Y-78809291D01*
X41395907Y-78524072D01*
X41439046Y-78308388D01*
X41472853Y-78220467D01*
X41548457Y-78255594D01*
G37*
%TD*%
D10*
%TO.P,H1,1,1*%
%TO.N,GND*%
X57300000Y-90460000D03*
%TD*%
%TO.P,H4,1,1*%
%TO.N,GND*%
X31900000Y-90460000D03*
%TD*%
%TO.P,H3,1,1*%
%TO.N,GND*%
X31950000Y-57260000D03*
%TD*%
%TO.P,H2,1,1*%
%TO.N,GND*%
X57300000Y-57260000D03*
%TD*%
D11*
%TO.P,R4,1*%
%TO.N,CLOCK*%
X46800000Y-41540000D03*
D12*
%TO.P,R4,2*%
%TO.N,GND*%
X46800000Y-31380000D03*
%TD*%
D11*
%TO.P,R2,1*%
%TO.N,CLOCK*%
X51260000Y-45740000D03*
D12*
%TO.P,R2,2*%
%TO.N,Net-(D2-Pad2)*%
X41100000Y-45740000D03*
%TD*%
D13*
%TO.P,REF\u002A\u002A,1*%
%TO.N,N/C*%
X27700000Y-40060000D03*
D14*
X27700000Y-40060000D03*
%TD*%
D11*
%TO.P,R1,1*%
%TO.N,Net-(DPWR1-Pad1)*%
X41120000Y-49460000D03*
D12*
%TO.P,R1,2*%
%TO.N,GND*%
X51280000Y-49460000D03*
%TD*%
D11*
%TO.P,R3,1*%
%TO.N,Net-(Q1-Pad2)*%
X50600000Y-41560000D03*
D12*
%TO.P,R3,2*%
%TO.N,Net-(D1-Pad1)*%
X50600000Y-31400000D03*
%TD*%
D15*
%TO.P,D1,1,K*%
%TO.N,Net-(D1-Pad1)*%
X54390000Y-32100000D03*
D16*
%TO.P,D1,2,A*%
%TO.N,Net-(D1-Pad2)*%
X62010000Y-32100000D03*
%TD*%
D17*
%TO.P,J2,TN*%
%TO.N,N/C*%
X58000000Y-41480000D03*
%TO.P,J2,T*%
%TO.N,Net-(D1-Pad2)*%
X58000000Y-49780000D03*
D18*
%TO.P,J2,S*%
%TO.N,GND*%
X58000000Y-38380000D03*
%TD*%
D15*
%TO.P,DPWR1,1,K*%
%TO.N,Net-(DPWR1-Pad1)*%
X34000000Y-41660000D03*
D19*
%TO.P,DPWR1,2,A*%
%TO.N,+12V*%
X34000000Y-39120000D03*
%TD*%
D20*
%TO.P,Q1,1,E*%
%TO.N,CLOCK*%
X41400000Y-31960000D03*
D21*
%TO.P,Q1,2,B*%
%TO.N,Net-(Q1-Pad2)*%
X41400000Y-33230000D03*
%TO.P,Q1,3,C*%
%TO.N,+12V*%
X41400000Y-34500000D03*
%TD*%
D15*
%TO.P,D2,1,K*%
%TO.N,GND*%
X35410000Y-34200000D03*
D19*
%TO.P,D2,2,A*%
%TO.N,Net-(D2-Pad2)*%
X35410000Y-31660000D03*
%TD*%
D22*
%TO.P,J1,1,Pin_1*%
%TO.N,+12V*%
X27200000Y-46560000D03*
D23*
%TO.P,J1,2,Pin_2*%
X27200000Y-49100000D03*
%TO.P,J1,3,Pin_3*%
%TO.N,GND*%
X29740000Y-46560000D03*
%TO.P,J1,4,Pin_4*%
X29740000Y-49100000D03*
%TO.P,J1,5,Pin_5*%
X32280000Y-46560000D03*
%TO.P,J1,6,Pin_6*%
X32280000Y-49100000D03*
%TO.P,J1,7,Pin_7*%
X34820000Y-46560000D03*
%TO.P,J1,8,Pin_8*%
X34820000Y-49100000D03*
%TO.P,J1,9,Pin_9*%
%TO.N,-12V*%
X37360000Y-46560000D03*
%TO.P,J1,10,Pin_10*%
X37360000Y-49100000D03*
%TD*%
D24*
%TO.P,C1,1*%
%TO.N,+12V*%
X28500000Y-34682379D03*
D11*
%TO.P,C1,2*%
%TO.N,GND*%
X28500000Y-32182379D03*
%TD*%
D25*
%TO.N,+12V*%
X32090000Y-37210000D02*
X31027621Y-37210000D01*
X34000000Y-39120000D02*
X32090000Y-37210000D01*
%TO.N,Net-(DPWR1-Pad1)*%
X39975489Y-42135489D02*
X39500000Y-41660000D01*
X39500000Y-41660000D02*
X34000000Y-41660000D01*
X39975489Y-48315489D02*
X39975489Y-42135489D01*
X41120000Y-49460000D02*
X39975489Y-48315489D01*
%TO.N,-12V*%
X37360000Y-49100000D02*
X37360000Y-46560000D01*
%TO.N,+12V*%
X27200000Y-49100000D02*
X27200000Y-46560000D01*
%TO.N,Net-(Q1-Pad2)*%
X46039511Y-29870000D02*
X42679511Y-33230000D01*
X42679511Y-33230000D02*
X42200000Y-33230000D01*
X47440000Y-29870000D02*
X46039511Y-29870000D01*
X50600000Y-33030000D02*
X47440000Y-29870000D01*
X50600000Y-41560000D02*
X50600000Y-33030000D01*
%TO.N,CLOCK*%
X45925718Y-41540000D02*
X46800000Y-41540000D01*
X38137859Y-33752141D02*
X45925718Y-41540000D01*
X41400000Y-31960000D02*
X39930000Y-31960000D01*
X39930000Y-31960000D02*
X38137859Y-33752141D01*
%TO.N,+12V*%
X37980000Y-44030000D02*
X29730000Y-44030000D01*
X38750000Y-44800000D02*
X37980000Y-44030000D01*
X38750000Y-51280000D02*
X38750000Y-44800000D01*
X38490000Y-51540000D02*
X38750000Y-51280000D01*
X52384511Y-45274211D02*
X52384511Y-46205789D01*
X48820000Y-39060000D02*
X48820000Y-43320000D01*
X44260000Y-34500000D02*
X48820000Y-39060000D01*
X47050300Y-51540000D02*
X38490000Y-51540000D01*
X41400000Y-34500000D02*
X44260000Y-34500000D01*
X50430300Y-43320000D02*
X52384511Y-45274211D01*
X48820000Y-43320000D02*
X50430300Y-43320000D01*
X52384511Y-46205789D02*
X47050300Y-51540000D01*
%TO.N,Net-(D2-Pad2)*%
X41100000Y-37350000D02*
X35410000Y-31660000D01*
X41100000Y-45740000D02*
X41100000Y-37350000D01*
%TO.N,CLOCK*%
X49868630Y-45740000D02*
X51260000Y-45740000D01*
X46800000Y-42671370D02*
X49868630Y-45740000D01*
X46800000Y-41540000D02*
X46800000Y-42671370D01*
%TO.N,+12V*%
X27200000Y-46560000D02*
X29730000Y-44030000D01*
X29730000Y-44030000D02*
X31027621Y-42732379D01*
X31027621Y-42732379D02*
X31027621Y-37210000D01*
X31027621Y-37210000D02*
X28500000Y-34682379D01*
%TO.N,Net-(D1-Pad1)*%
X54390000Y-32100000D02*
X51300000Y-32100000D01*
X51300000Y-32100000D02*
X50600000Y-31400000D01*
%TO.N,Net-(D1-Pad2)*%
X63180000Y-49780000D02*
X63400000Y-49560000D01*
X63400000Y-33490000D02*
X62010000Y-32100000D01*
X58000000Y-49780000D02*
X63180000Y-49780000D01*
X63400000Y-49560000D02*
X63400000Y-33490000D01*
%TD*%
M02*
