%TF.GenerationSoftware,KiCad,Pcbnew,(6.0.0)*%
%TF.CreationDate,2022-12-16T14:26:45-08:00*%
%TF.ProjectId,LEDShieldPractice,4c454453-6869-4656-9c64-507261637469,rev?*%
%TF.SameCoordinates,Original*%
%TF.FileFunction,Legend,Top*%
%TF.FilePolarity,Positive*%
%FSLAX46Y46*%
G04 Gerber Fmt 4.6, Leading zero omitted, Abs format (unit mm)*
G04 Created by KiCad (PCBNEW (6.0.0)) date 2022-12-16 14:26:45*
%MOMM*%
%LPD*%
G01*
G04 APERTURE LIST*
%ADD10C,0.150000*%
%ADD11C,0.100000*%
%ADD12C,0.120000*%
G04 APERTURE END LIST*
D10*
%TO.C,R4*%
X44872380Y-41646666D02*
X44396190Y-41980000D01*
X44872380Y-42218095D02*
X43872380Y-42218095D01*
X43872380Y-41837142D01*
X43920000Y-41741904D01*
X43967619Y-41694285D01*
X44062857Y-41646666D01*
X44205714Y-41646666D01*
X44300952Y-41694285D01*
X44348571Y-41741904D01*
X44396190Y-41837142D01*
X44396190Y-42218095D01*
X44205714Y-40789523D02*
X44872380Y-40789523D01*
X43824761Y-41027619D02*
X44539047Y-41265714D01*
X44539047Y-40646666D01*
%TO.C,R2*%
X40853333Y-44022380D02*
X40520000Y-43546190D01*
X40281904Y-44022380D02*
X40281904Y-43022380D01*
X40662857Y-43022380D01*
X40758095Y-43070000D01*
X40805714Y-43117619D01*
X40853333Y-43212857D01*
X40853333Y-43355714D01*
X40805714Y-43450952D01*
X40758095Y-43498571D01*
X40662857Y-43546190D01*
X40281904Y-43546190D01*
X41234285Y-43117619D02*
X41281904Y-43070000D01*
X41377142Y-43022380D01*
X41615238Y-43022380D01*
X41710476Y-43070000D01*
X41758095Y-43117619D01*
X41805714Y-43212857D01*
X41805714Y-43308095D01*
X41758095Y-43450952D01*
X41186666Y-44022380D01*
X41805714Y-44022380D01*
%TO.C,R1*%
X51233333Y-51672380D02*
X50900000Y-51196190D01*
X50661904Y-51672380D02*
X50661904Y-50672380D01*
X51042857Y-50672380D01*
X51138095Y-50720000D01*
X51185714Y-50767619D01*
X51233333Y-50862857D01*
X51233333Y-51005714D01*
X51185714Y-51100952D01*
X51138095Y-51148571D01*
X51042857Y-51196190D01*
X50661904Y-51196190D01*
X52185714Y-51672380D02*
X51614285Y-51672380D01*
X51900000Y-51672380D02*
X51900000Y-50672380D01*
X51804761Y-50815238D01*
X51709523Y-50910476D01*
X51614285Y-50958095D01*
%TO.C,R3*%
X52902380Y-31696666D02*
X52426190Y-32030000D01*
X52902380Y-32268095D02*
X51902380Y-32268095D01*
X51902380Y-31887142D01*
X51950000Y-31791904D01*
X51997619Y-31744285D01*
X52092857Y-31696666D01*
X52235714Y-31696666D01*
X52330952Y-31744285D01*
X52378571Y-31791904D01*
X52426190Y-31887142D01*
X52426190Y-32268095D01*
X51902380Y-31363333D02*
X51902380Y-30744285D01*
X52283333Y-31077619D01*
X52283333Y-30934761D01*
X52330952Y-30839523D01*
X52378571Y-30791904D01*
X52473809Y-30744285D01*
X52711904Y-30744285D01*
X52807142Y-30791904D01*
X52854761Y-30839523D01*
X52902380Y-30934761D01*
X52902380Y-31220476D01*
X52854761Y-31315714D01*
X52807142Y-31363333D01*
%TO.C,D1*%
X61561904Y-35022380D02*
X61561904Y-34022380D01*
X61800000Y-34022380D01*
X61942857Y-34070000D01*
X62038095Y-34165238D01*
X62085714Y-34260476D01*
X62133333Y-34450952D01*
X62133333Y-34593809D01*
X62085714Y-34784285D01*
X62038095Y-34879523D01*
X61942857Y-34974761D01*
X61800000Y-35022380D01*
X61561904Y-35022380D01*
X63085714Y-35022380D02*
X62514285Y-35022380D01*
X62800000Y-35022380D02*
X62800000Y-34022380D01*
X62704761Y-34165238D01*
X62609523Y-34260476D01*
X62514285Y-34308095D01*
X54238095Y-35022380D02*
X54238095Y-34022380D01*
X54809523Y-35022380D02*
X54380952Y-34450952D01*
X54809523Y-34022380D02*
X54238095Y-34593809D01*
%TO.C,J2*%
X53636666Y-38912380D02*
X53636666Y-39626666D01*
X53589047Y-39769523D01*
X53493809Y-39864761D01*
X53350952Y-39912380D01*
X53255714Y-39912380D01*
X54065238Y-39007619D02*
X54112857Y-38960000D01*
X54208095Y-38912380D01*
X54446190Y-38912380D01*
X54541428Y-38960000D01*
X54589047Y-39007619D01*
X54636666Y-39102857D01*
X54636666Y-39198095D01*
X54589047Y-39340952D01*
X54017619Y-39912380D01*
X54636666Y-39912380D01*
%TO.C,DPWR1*%
X37952380Y-42469523D02*
X36952380Y-42469523D01*
X36952380Y-42231428D01*
X37000000Y-42088571D01*
X37095238Y-41993333D01*
X37190476Y-41945714D01*
X37380952Y-41898095D01*
X37523809Y-41898095D01*
X37714285Y-41945714D01*
X37809523Y-41993333D01*
X37904761Y-42088571D01*
X37952380Y-42231428D01*
X37952380Y-42469523D01*
X37952380Y-41469523D02*
X36952380Y-41469523D01*
X36952380Y-41088571D01*
X37000000Y-40993333D01*
X37047619Y-40945714D01*
X37142857Y-40898095D01*
X37285714Y-40898095D01*
X37380952Y-40945714D01*
X37428571Y-40993333D01*
X37476190Y-41088571D01*
X37476190Y-41469523D01*
X36952380Y-40564761D02*
X37952380Y-40326666D01*
X37238095Y-40136190D01*
X37952380Y-39945714D01*
X36952380Y-39707619D01*
X37952380Y-38755238D02*
X37476190Y-39088571D01*
X37952380Y-39326666D02*
X36952380Y-39326666D01*
X36952380Y-38945714D01*
X37000000Y-38850476D01*
X37047619Y-38802857D01*
X37142857Y-38755238D01*
X37285714Y-38755238D01*
X37380952Y-38802857D01*
X37428571Y-38850476D01*
X37476190Y-38945714D01*
X37476190Y-39326666D01*
X37952380Y-37802857D02*
X37952380Y-38374285D01*
X37952380Y-38088571D02*
X36952380Y-38088571D01*
X37095238Y-38183809D01*
X37190476Y-38279047D01*
X37238095Y-38374285D01*
%TO.C,Q1*%
X42047619Y-37455238D02*
X42000000Y-37550476D01*
X41904761Y-37645714D01*
X41761904Y-37788571D01*
X41714285Y-37883809D01*
X41714285Y-37979047D01*
X41952380Y-37931428D02*
X41904761Y-38026666D01*
X41809523Y-38121904D01*
X41619047Y-38169523D01*
X41285714Y-38169523D01*
X41095238Y-38121904D01*
X41000000Y-38026666D01*
X40952380Y-37931428D01*
X40952380Y-37740952D01*
X41000000Y-37645714D01*
X41095238Y-37550476D01*
X41285714Y-37502857D01*
X41619047Y-37502857D01*
X41809523Y-37550476D01*
X41904761Y-37645714D01*
X41952380Y-37740952D01*
X41952380Y-37931428D01*
X41952380Y-36550476D02*
X41952380Y-37121904D01*
X41952380Y-36836190D02*
X40952380Y-36836190D01*
X41095238Y-36931428D01*
X41190476Y-37026666D01*
X41238095Y-37121904D01*
%TO.C,D2*%
X32352380Y-33438095D02*
X31352380Y-33438095D01*
X31352380Y-33200000D01*
X31400000Y-33057142D01*
X31495238Y-32961904D01*
X31590476Y-32914285D01*
X31780952Y-32866666D01*
X31923809Y-32866666D01*
X32114285Y-32914285D01*
X32209523Y-32961904D01*
X32304761Y-33057142D01*
X32352380Y-33200000D01*
X32352380Y-33438095D01*
X31447619Y-32485714D02*
X31400000Y-32438095D01*
X31352380Y-32342857D01*
X31352380Y-32104761D01*
X31400000Y-32009523D01*
X31447619Y-31961904D01*
X31542857Y-31914285D01*
X31638095Y-31914285D01*
X31780952Y-31961904D01*
X32352380Y-32533333D01*
X32352380Y-31914285D01*
D11*
%TO.C,mouse-bite-2mm-slot*%
X46200000Y-51960000D02*
G75*
G03*
X46200000Y-53960000I0J-1000000D01*
G01*
X42200000Y-53960000D02*
G75*
G03*
X42200000Y-51960000I0J1000000D01*
G01*
D12*
%TO.C,R4*%
X45430000Y-39730000D02*
X48170000Y-39730000D01*
X48170000Y-39730000D02*
X48170000Y-33190000D01*
X48170000Y-33190000D02*
X45430000Y-33190000D01*
X45430000Y-33190000D02*
X45430000Y-39730000D01*
X46800000Y-40500000D02*
X46800000Y-39730000D01*
X46800000Y-32420000D02*
X46800000Y-33190000D01*
%TO.C,R2*%
X49450000Y-47110000D02*
X49450000Y-44370000D01*
X49450000Y-44370000D02*
X42910000Y-44370000D01*
X42910000Y-44370000D02*
X42910000Y-47110000D01*
X42910000Y-47110000D02*
X49450000Y-47110000D01*
X50220000Y-45740000D02*
X49450000Y-45740000D01*
X42140000Y-45740000D02*
X42910000Y-45740000D01*
%TO.C,R1*%
X42930000Y-48090000D02*
X42930000Y-50830000D01*
X49470000Y-48090000D02*
X42930000Y-48090000D01*
X50240000Y-49460000D02*
X49470000Y-49460000D01*
X42160000Y-49460000D02*
X42930000Y-49460000D01*
X42930000Y-50830000D02*
X49470000Y-50830000D01*
X49470000Y-50830000D02*
X49470000Y-48090000D01*
%TO.C,R3*%
X50600000Y-40520000D02*
X50600000Y-39750000D01*
X51970000Y-33210000D02*
X49230000Y-33210000D01*
X51970000Y-39750000D02*
X51970000Y-33210000D01*
X50600000Y-32440000D02*
X50600000Y-33210000D01*
X49230000Y-39750000D02*
X51970000Y-39750000D01*
X49230000Y-33210000D02*
X49230000Y-39750000D01*
%TO.C,D1*%
X56260000Y-30630000D02*
X56260000Y-33570000D01*
X56500000Y-30630000D02*
X56500000Y-33570000D01*
X55480000Y-30960000D02*
X55480000Y-30630000D01*
X55480000Y-30630000D02*
X60920000Y-30630000D01*
X55480000Y-33570000D02*
X60920000Y-33570000D01*
X56380000Y-30630000D02*
X56380000Y-33570000D01*
X60920000Y-30630000D02*
X60920000Y-30960000D01*
X55480000Y-33240000D02*
X55480000Y-33570000D01*
X60920000Y-33570000D02*
X60920000Y-33240000D01*
%TO.C,J2*%
X59800000Y-44860000D02*
G75*
G03*
X59800000Y-44860000I-1800000J0D01*
G01*
X53500000Y-40360000D02*
X53500000Y-50860000D01*
X56940000Y-37380000D02*
X56940000Y-38180000D01*
X62500000Y-40360000D02*
X58350000Y-40360000D01*
X56940000Y-37380000D02*
X57800000Y-37380000D01*
X57650000Y-40360000D02*
X53500000Y-40360000D01*
X57500000Y-50860000D02*
X53500000Y-50860000D01*
X62500000Y-40360000D02*
X62500000Y-50860000D01*
X62500000Y-50860000D02*
X58500000Y-50860000D01*
%TO.C,DPWR1*%
X35080000Y-41950000D02*
X35236000Y-41950000D01*
X32764000Y-41950000D02*
X32920000Y-41950000D01*
X35080000Y-41430961D02*
G75*
G03*
X35079837Y-39348870I-1080000J1040961D01*
G01*
X32920163Y-39348870D02*
G75*
G03*
X32920000Y-41430961I1079837J-1041130D01*
G01*
X32921392Y-38717665D02*
G75*
G03*
X32764484Y-41950000I1078609J-1672335D01*
G01*
X35235516Y-41950000D02*
G75*
G03*
X35078608Y-38717665I-1235517J1560000D01*
G01*
%TO.C,Q1*%
X39550000Y-31430000D02*
X39550000Y-35030000D01*
X44000001Y-33230000D02*
G75*
G03*
X39561522Y-31391522I-2600001J0D01*
G01*
X39561522Y-35068478D02*
G75*
G03*
X44000000Y-33230000I1838478J1838478D01*
G01*
%TO.C,D2*%
X36490000Y-34490000D02*
X36646000Y-34490000D01*
X34174000Y-34490000D02*
X34330000Y-34490000D01*
X36645516Y-34490000D02*
G75*
G03*
X36488608Y-31257665I-1235517J1560000D01*
G01*
X34330163Y-31888870D02*
G75*
G03*
X34330000Y-33970961I1079837J-1041130D01*
G01*
X36490000Y-33970961D02*
G75*
G03*
X36489837Y-31888870I-1080000J1040961D01*
G01*
X34331392Y-31257665D02*
G75*
G03*
X34174484Y-34490000I1078609J-1672335D01*
G01*
%TD*%
M02*
