M48
; DRILL file {KiCad (6.0.0)} date Thu Feb 24 15:19:11 2022
; FORMAT={-:-/ absolute / inch / decimal}
; #@! TF.CreationDate,2022-02-24T15:19:11-08:00
; #@! TF.GenerationSoftware,Kicad,Pcbnew,(6.0.0)
; #@! TF.FileFunction,Plated,1,2,PTH
FMAT,2
INCH
; #@! TA.AperFunction,Plated,PTH,ViaDrill
T1C0.0157
; #@! TA.AperFunction,Plated,PTH,ComponentDrill
T2C0.0276
; #@! TA.AperFunction,Plated,PTH,ComponentDrill
T3C0.0287
; #@! TA.AperFunction,Plated,PTH,ComponentDrill
T4C0.0295
; #@! TA.AperFunction,Plated,PTH,ComponentDrill
T5C0.0300
; #@! TA.AperFunction,Plated,PTH,ComponentDrill
T6C0.0315
; #@! TA.AperFunction,Plated,PTH,ComponentDrill
T7C0.0335
; #@! TA.AperFunction,Plated,PTH,ComponentDrill
T8C0.0354
; #@! TA.AperFunction,Plated,PTH,ComponentDrill
T9C0.0374
; #@! TA.AperFunction,Plated,PTH,ComponentDrill
T10C0.0386
; #@! TA.AperFunction,Plated,PTH,ComponentDrill
T11C0.0394
; #@! TA.AperFunction,Plated,PTH,ComponentDrill
T12C0.0480
; #@! TA.AperFunction,Plated,PTH,ComponentDrill
T13C0.0559
; #@! TA.AperFunction,Plated,PTH,ComponentDrill
T14C0.0563
%
G90
G05
T1
X2.6772Y-1.8307
X3.1102Y-2.9921
X3.3071Y-1.7126
T2
X2.7134Y-2.0866
X2.7724Y-3.7402
X2.774Y-3.6417
X2.774Y-3.8386
X2.8331Y-2.5197
X2.8331Y-2.6575
X2.8331Y-2.7953
X2.8331Y-2.9331
X2.8331Y-3.0709
X2.8331Y-3.2087
X2.8331Y-3.3465
X2.9134Y-2.0866
X2.9331Y-2.2016
X2.9331Y-2.4016
X2.9724Y-3.7402
X2.974Y-3.6417
X2.974Y-3.8386
X3.0331Y-2.5197
X3.0331Y-2.6575
X3.0331Y-2.7953
X3.0331Y-2.9331
X3.0331Y-3.0709
X3.0331Y-3.2087
X3.0331Y-3.3465
X3.0709Y-2.2016
X3.0709Y-2.4016
X3.089Y-3.7402
X3.089Y-3.8386
X3.289Y-3.7402
X3.289Y-3.8386
T3
X2.324Y-3.0752
X2.324Y-3.1752
X2.324Y-3.2752
X2.324Y-3.3752
X2.324Y-3.4752
X2.324Y-3.5752
X2.324Y-3.6752
X2.324Y-3.7752
X2.324Y-4.0988
X2.324Y-4.1988
X2.324Y-4.2988
X2.324Y-4.3988
X2.324Y-4.4988
X2.324Y-4.5988
X2.324Y-4.6988
X2.324Y-4.7988
X2.6366Y-3.0752
X2.6366Y-3.1752
X2.6366Y-3.2752
X2.6366Y-3.3752
X2.6366Y-3.4752
X2.6366Y-3.5752
X2.6366Y-3.6752
X2.6366Y-3.7752
X2.6366Y-4.0988
X2.6366Y-4.1988
X2.6366Y-4.2988
X2.6366Y-4.3988
X2.6366Y-4.4988
X2.6366Y-4.5988
X2.6366Y-4.6988
X2.6366Y-4.7988
X2.8752Y-4.0988
X2.8752Y-4.1988
X2.8752Y-4.2988
X2.8752Y-4.3988
X2.8752Y-4.4988
X2.8752Y-4.5988
X2.8752Y-4.6988
X2.8752Y-4.7988
X3.1878Y-4.0988
X3.1878Y-4.1988
X3.1878Y-4.2988
X3.1878Y-4.3988
X3.1878Y-4.4988
X3.1878Y-4.5988
X3.1878Y-4.6988
X3.1878Y-4.7988
T4
X2.4157Y-2.2138
X2.4157Y-2.2638
X2.4157Y-2.3138
X2.4213Y-2.4606
X2.4213Y-2.5106
X2.4213Y-2.5606
X2.4213Y-2.6969
X2.4213Y-2.7469
X2.4213Y-2.7969
X2.6772Y-2.2138
X2.6772Y-2.2638
X2.6772Y-2.3138
X2.6772Y-2.4606
X2.6772Y-2.5106
X2.6772Y-2.5606
X2.6772Y-2.6969
X2.6772Y-2.7469
X2.6772Y-2.7969
T5
X3.0468Y-1.8036
X3.0468Y-1.9036
X3.0468Y-2.0036
X3.1468Y-1.7973
X3.1468Y-2.0099
X3.2468Y-1.8036
X3.2468Y-2.0036
T6
X2.3622Y-2.9528
X2.3622Y-3.9764
X2.5591Y-2.9528
X2.5591Y-3.9764
X2.8346Y-1.811
X2.8346Y-1.8898
X2.8937Y-3.9764
X3.0906Y-3.9764
T7
X2.3378Y-4.9543
X2.3378Y-5.1543
X2.6378Y-4.9543
X2.6378Y-5.1543
X2.889Y-4.9543
X2.889Y-5.1543
X3.189Y-4.9543
X3.189Y-5.1543
T8
X2.2909Y-2.0866
X2.5909Y-2.0866
T9
X2.3378Y-5.3543
X2.3878Y-5.0543
X2.3878Y-5.2543
X2.5878Y-5.0543
X2.5878Y-5.2543
X2.889Y-5.3543
X2.939Y-5.0543
X2.939Y-5.2543
X3.139Y-5.0543
X3.139Y-5.2543
T10
X2.6378Y-5.3543
X3.189Y-5.3543
T11
X2.7897Y-1.525
X2.7897Y-1.625
X2.8897Y-1.525
X2.8897Y-1.625
X2.9897Y-1.525
X2.9897Y-1.625
X3.0897Y-1.525
X3.0897Y-1.625
X3.1897Y-1.525
X3.1897Y-1.625
T12
X2.4409Y-1.4654
T13
X2.4409Y-1.5874
T14
X2.4409Y-1.9142
T0
M30
