%TF.GenerationSoftware,KiCad,Pcbnew,(6.0.0)*%
%TF.CreationDate,2022-02-24T16:42:11-08:00*%
%TF.ProjectId,16Bars,31364261-7273-42e6-9b69-6361645f7063,rev?*%
%TF.SameCoordinates,Original*%
%TF.FileFunction,Soldermask,Bot*%
%TF.FilePolarity,Negative*%
%FSLAX46Y46*%
G04 Gerber Fmt 4.6, Leading zero omitted, Abs format (unit mm)*
G04 Created by KiCad (PCBNEW (6.0.0)) date 2022-02-24 16:42:11*
%MOMM*%
%LPD*%
G01*
G04 APERTURE LIST*
%ADD10R,1.930000X1.830000*%
%ADD11C,2.130000*%
%ADD12C,1.400000*%
%ADD13O,1.400000X1.400000*%
%ADD14C,1.478000*%
%ADD15C,1.381000*%
%ADD16C,1.524000*%
%ADD17C,1.130000*%
%ADD18R,1.130000X1.130000*%
%ADD19O,1.800000X1.800000*%
%ADD20R,1.800000X1.800000*%
%ADD21C,1.600000*%
%ADD22R,1.500000X1.050000*%
%ADD23O,1.500000X1.050000*%
%ADD24R,1.700000X1.700000*%
%ADD25O,1.700000X1.700000*%
G04 APERTURE END LIST*
D10*
%TO.C,J1*%
X62000000Y-37220000D03*
D11*
X62000000Y-48620000D03*
X62000000Y-40320000D03*
%TD*%
D12*
%TO.C,R5*%
X74000000Y-53000000D03*
D13*
X68920000Y-53000000D03*
%TD*%
D12*
%TO.C,R7*%
X78000000Y-61000000D03*
D13*
X78000000Y-55920000D03*
%TD*%
D12*
%TO.C,R8*%
X74500000Y-61000000D03*
D13*
X74500000Y-55920000D03*
%TD*%
D14*
%TO.C,DS-ONES1*%
X73380000Y-136000000D03*
X74650000Y-133460000D03*
D15*
X73380000Y-130920000D03*
D14*
X74650000Y-128380000D03*
D15*
X73380000Y-125840000D03*
X81000000Y-125840000D03*
D14*
X79730000Y-128380000D03*
D15*
X81000000Y-130920000D03*
D14*
X79730000Y-133460000D03*
D16*
X81000000Y-136000000D03*
%TD*%
D14*
%TO.C,DS-TENS1*%
X59380000Y-136000000D03*
X60650000Y-133460000D03*
D15*
X59380000Y-130920000D03*
D14*
X60650000Y-128380000D03*
D15*
X59380000Y-125840000D03*
X67000000Y-125840000D03*
D14*
X65730000Y-128380000D03*
D15*
X67000000Y-130920000D03*
D14*
X65730000Y-133460000D03*
D16*
X67000000Y-136000000D03*
%TD*%
%TO.C,SW1*%
X77387500Y-48352501D03*
X82467500Y-50892501D03*
X77387500Y-50892501D03*
X82467500Y-45812501D03*
X77387500Y-45812501D03*
X79927500Y-51052501D03*
X79927500Y-45652501D03*
%TD*%
D17*
%TO.C,IC3*%
X59030000Y-78110000D03*
X59030000Y-80650000D03*
X59030000Y-83190000D03*
X59030000Y-85730000D03*
X59030000Y-88270000D03*
X59030000Y-90810000D03*
X59030000Y-93350000D03*
X59030000Y-95890000D03*
X66970000Y-95890000D03*
X66970000Y-93350000D03*
X66970000Y-90810000D03*
X66970000Y-88270000D03*
X66970000Y-85730000D03*
X66970000Y-83190000D03*
X66970000Y-80650000D03*
D18*
X66970000Y-78110000D03*
%TD*%
D19*
%TO.C,D1*%
X58190000Y-53000000D03*
D20*
X65810000Y-53000000D03*
%TD*%
D12*
%TO.C,R9*%
X71960000Y-85000000D03*
D13*
X77040000Y-85000000D03*
%TD*%
D21*
%TO.C,C3*%
X65000000Y-101000000D03*
X60000000Y-101000000D03*
%TD*%
D22*
%TO.C,Q5*%
X61500000Y-62500000D03*
D23*
X61500000Y-63770000D03*
X61500000Y-65040000D03*
%TD*%
D13*
%TO.C,R2*%
X70460000Y-97500000D03*
D12*
X75540000Y-97500000D03*
%TD*%
D17*
%TO.C,IC1*%
X73030000Y-104110000D03*
X73030000Y-106650000D03*
X73030000Y-109190000D03*
X73030000Y-111730000D03*
X73030000Y-114270000D03*
X73030000Y-116810000D03*
X73030000Y-119350000D03*
X73030000Y-121890000D03*
X80970000Y-121890000D03*
X80970000Y-119350000D03*
X80970000Y-116810000D03*
X80970000Y-114270000D03*
X80970000Y-111730000D03*
X80970000Y-109190000D03*
X80970000Y-106650000D03*
D18*
X80970000Y-104110000D03*
%TD*%
D21*
%TO.C,C4*%
X78500000Y-101000000D03*
X73500000Y-101000000D03*
%TD*%
D12*
%TO.C,R13*%
X77040000Y-81500000D03*
D13*
X71960000Y-81500000D03*
%TD*%
%TO.C,R6*%
X70460000Y-92500000D03*
D12*
X75540000Y-92500000D03*
%TD*%
D22*
%TO.C,Q1*%
X68000000Y-56230000D03*
D23*
X68000000Y-57500000D03*
X68000000Y-58770000D03*
%TD*%
D21*
%TO.C,C2*%
X60000000Y-75000000D03*
X65000000Y-75000000D03*
%TD*%
D22*
%TO.C,Q2*%
X61360000Y-56230000D03*
D23*
X61360000Y-57500000D03*
X61360000Y-58770000D03*
%TD*%
D12*
%TO.C,R12*%
X77040000Y-71000000D03*
D13*
X71960000Y-71000000D03*
%TD*%
D12*
%TO.C,R3*%
X78460000Y-95000000D03*
D13*
X83540000Y-95000000D03*
%TD*%
D22*
%TO.C,Q3*%
X68000000Y-62500000D03*
D23*
X68000000Y-63770000D03*
X68000000Y-65040000D03*
%TD*%
D24*
%TO.C,J2*%
X81019600Y-41275000D03*
D25*
X81019600Y-38735000D03*
X78479600Y-41275000D03*
X78479600Y-38735000D03*
X75939600Y-41275000D03*
X75939600Y-38735000D03*
X73399600Y-41275000D03*
X73399600Y-38735000D03*
X70859600Y-41275000D03*
X70859600Y-38735000D03*
%TD*%
D12*
%TO.C,R11*%
X77040000Y-67500000D03*
D13*
X71960000Y-67500000D03*
%TD*%
%TO.C,R15*%
X71960000Y-74500000D03*
D12*
X77040000Y-74500000D03*
%TD*%
%TO.C,R10*%
X77040000Y-64000000D03*
D13*
X71960000Y-64000000D03*
%TD*%
D17*
%TO.C,IC2*%
X59030000Y-104110000D03*
X59030000Y-106650000D03*
X59030000Y-109190000D03*
X59030000Y-111730000D03*
X59030000Y-114270000D03*
X59030000Y-116810000D03*
X59030000Y-119350000D03*
X59030000Y-121890000D03*
X66970000Y-121890000D03*
X66970000Y-119350000D03*
X66970000Y-116810000D03*
X66970000Y-114270000D03*
X66970000Y-111730000D03*
X66970000Y-109190000D03*
X66970000Y-106650000D03*
D18*
X66970000Y-104110000D03*
%TD*%
D21*
%TO.C,C1*%
X72000000Y-46000000D03*
X72000000Y-48000000D03*
%TD*%
D23*
%TO.C,Q6*%
X61500000Y-71040000D03*
X61500000Y-69770000D03*
D22*
X61500000Y-68500000D03*
%TD*%
%TO.C,Q4*%
X68000000Y-68500000D03*
D23*
X68000000Y-69770000D03*
X68000000Y-71040000D03*
%TD*%
D12*
%TO.C,R1*%
X83540000Y-97500000D03*
D13*
X78460000Y-97500000D03*
%TD*%
%TO.C,R4*%
X70420000Y-95000000D03*
D12*
X75500000Y-95000000D03*
%TD*%
%TO.C,R14*%
X77040000Y-78000000D03*
D13*
X71960000Y-78000000D03*
%TD*%
M02*
