%TF.GenerationSoftware,KiCad,Pcbnew,(6.0.10)*%
%TF.CreationDate,2023-01-06T11:40:19-08:00*%
%TF.ProjectId,16Bars,31364261-7273-42e6-9b69-6361645f7063,rev?*%
%TF.SameCoordinates,Original*%
%TF.FileFunction,Soldermask,Top*%
%TF.FilePolarity,Negative*%
%FSLAX46Y46*%
G04 Gerber Fmt 4.6, Leading zero omitted, Abs format (unit mm)*
G04 Created by KiCad (PCBNEW (6.0.10)) date 2023-01-06 11:40:19*
%MOMM*%
%LPD*%
G01*
G04 APERTURE LIST*
%ADD10R,1.270000X1.270000*%
%ADD11C,1.270000*%
%ADD12C,2.000000*%
%ADD13R,1.930000X1.830000*%
%ADD14C,2.130000*%
%ADD15C,3.200000*%
%ADD16R,1.130000X1.130000*%
%ADD17C,1.130000*%
%ADD18R,1.500000X1.050000*%
%ADD19O,1.500000X1.050000*%
%ADD20R,1.800000X1.800000*%
%ADD21C,1.800000*%
%ADD22R,1.700000X1.700000*%
%ADD23O,1.700000X1.700000*%
%ADD24C,1.600000*%
G04 APERTURE END LIST*
D10*
%TO.C,DS-ONES1*%
X72720000Y-136120000D03*
D11*
X73990000Y-133580000D03*
X75260000Y-136120000D03*
X76530000Y-133580000D03*
X77800000Y-136120000D03*
X77800000Y-128500000D03*
X76530000Y-131040000D03*
X75260000Y-128500000D03*
X73990000Y-131040000D03*
X72720000Y-128500000D03*
%TD*%
D10*
%TO.C,DS-TENS1*%
X63720000Y-136120000D03*
D11*
X64990000Y-133580000D03*
X66260000Y-136120000D03*
X67530000Y-133580000D03*
X68800000Y-136120000D03*
X68800000Y-128500000D03*
X67530000Y-131040000D03*
X66260000Y-128500000D03*
X64990000Y-131040000D03*
X63720000Y-128500000D03*
%TD*%
D12*
%TO.C,SW1*%
X81472400Y-48771600D03*
X76392400Y-48771600D03*
X76392400Y-46231600D03*
X76392400Y-51311600D03*
X81472400Y-46231600D03*
X81472400Y-51311600D03*
X78932400Y-46111600D03*
X78932400Y-51511600D03*
%TD*%
D13*
%TO.C,J1*%
X62000000Y-37220000D03*
D14*
X62000000Y-48620000D03*
X62000000Y-40320000D03*
%TD*%
D15*
%TO.C,REF\u002A\u002A*%
X70500000Y-121000000D03*
%TD*%
D16*
%TO.C,IC3*%
X61110000Y-83530000D03*
D17*
X63650000Y-83530000D03*
X66190000Y-83530000D03*
X68730000Y-83530000D03*
X71270000Y-83530000D03*
X73810000Y-83530000D03*
X76350000Y-83530000D03*
X78890000Y-83530000D03*
X78890000Y-91470000D03*
X76350000Y-91470000D03*
X73810000Y-91470000D03*
X71270000Y-91470000D03*
X68730000Y-91470000D03*
X66190000Y-91470000D03*
X63650000Y-91470000D03*
X61110000Y-91470000D03*
%TD*%
D18*
%TO.C,Q5*%
X65360000Y-65480000D03*
D19*
X65360000Y-66750000D03*
X65360000Y-68020000D03*
%TD*%
D17*
%TO.C,IC1*%
X73560000Y-97460000D03*
X73560000Y-100000000D03*
X73560000Y-102540000D03*
X73560000Y-105080000D03*
X73560000Y-107620000D03*
X73560000Y-110160000D03*
X73560000Y-112700000D03*
X73560000Y-115240000D03*
X81500000Y-115240000D03*
X81500000Y-112700000D03*
X81500000Y-110160000D03*
X81500000Y-107620000D03*
X81500000Y-105080000D03*
X81500000Y-102540000D03*
X81500000Y-100000000D03*
D16*
X81500000Y-97460000D03*
%TD*%
D20*
%TO.C,D2*%
X72898000Y-53086000D03*
D21*
X70358000Y-53086000D03*
%TD*%
D18*
%TO.C,Q1*%
X74940000Y-58230000D03*
D19*
X74940000Y-59500000D03*
X74940000Y-60770000D03*
%TD*%
D18*
%TO.C,Q2*%
X65220000Y-58230000D03*
D19*
X65220000Y-59500000D03*
X65220000Y-60770000D03*
%TD*%
D18*
%TO.C,Q3*%
X74940000Y-65480000D03*
D19*
X74940000Y-66750000D03*
X74940000Y-68020000D03*
%TD*%
D22*
%TO.C,J2*%
X81019600Y-41275000D03*
D23*
X81019600Y-38735000D03*
X78479600Y-41275000D03*
X78479600Y-38735000D03*
X75939600Y-41275000D03*
X75939600Y-38735000D03*
X73399600Y-41275000D03*
X73399600Y-38735000D03*
X70859600Y-41275000D03*
X70859600Y-38735000D03*
%TD*%
D16*
%TO.C,IC2*%
X67500000Y-97460000D03*
D17*
X67500000Y-100000000D03*
X67500000Y-102540000D03*
X67500000Y-105080000D03*
X67500000Y-107620000D03*
X67500000Y-110160000D03*
X67500000Y-112700000D03*
X67500000Y-115240000D03*
X59560000Y-115240000D03*
X59560000Y-112700000D03*
X59560000Y-110160000D03*
X59560000Y-107620000D03*
X59560000Y-105080000D03*
X59560000Y-102540000D03*
X59560000Y-100000000D03*
X59560000Y-97460000D03*
%TD*%
D24*
%TO.C,C1*%
X72000000Y-46000000D03*
X72000000Y-48000000D03*
%TD*%
D18*
%TO.C,Q6*%
X65140000Y-72730000D03*
D19*
X65140000Y-74000000D03*
X65140000Y-75270000D03*
%TD*%
D18*
%TO.C,Q4*%
X74720000Y-72730000D03*
D19*
X74720000Y-74000000D03*
X74720000Y-75270000D03*
%TD*%
M02*
