%TF.GenerationSoftware,KiCad,Pcbnew,(6.0.10)*%
%TF.CreationDate,2023-01-06T11:40:19-08:00*%
%TF.ProjectId,16Bars,31364261-7273-42e6-9b69-6361645f7063,rev?*%
%TF.SameCoordinates,Original*%
%TF.FileFunction,Soldermask,Bot*%
%TF.FilePolarity,Negative*%
%FSLAX46Y46*%
G04 Gerber Fmt 4.6, Leading zero omitted, Abs format (unit mm)*
G04 Created by KiCad (PCBNEW (6.0.10)) date 2023-01-06 11:40:19*
%MOMM*%
%LPD*%
G01*
G04 APERTURE LIST*
G04 Aperture macros list*
%AMRoundRect*
0 Rectangle with rounded corners*
0 $1 Rounding radius*
0 $2 $3 $4 $5 $6 $7 $8 $9 X,Y pos of 4 corners*
0 Add a 4 corners polygon primitive as box body*
4,1,4,$2,$3,$4,$5,$6,$7,$8,$9,$2,$3,0*
0 Add four circle primitives for the rounded corners*
1,1,$1+$1,$2,$3*
1,1,$1+$1,$4,$5*
1,1,$1+$1,$6,$7*
1,1,$1+$1,$8,$9*
0 Add four rect primitives between the rounded corners*
20,1,$1+$1,$2,$3,$4,$5,0*
20,1,$1+$1,$4,$5,$6,$7,0*
20,1,$1+$1,$6,$7,$8,$9,0*
20,1,$1+$1,$8,$9,$2,$3,0*%
G04 Aperture macros list end*
%ADD10RoundRect,0.135000X0.135000X0.185000X-0.135000X0.185000X-0.135000X-0.185000X0.135000X-0.185000X0*%
%ADD11R,1.270000X1.270000*%
%ADD12C,1.270000*%
%ADD13C,2.000000*%
%ADD14R,1.930000X1.830000*%
%ADD15C,2.130000*%
%ADD16C,3.200000*%
%ADD17R,1.130000X1.130000*%
%ADD18C,1.130000*%
%ADD19R,0.600000X0.450000*%
%ADD20RoundRect,0.135000X-0.135000X-0.185000X0.135000X-0.185000X0.135000X0.185000X-0.135000X0.185000X0*%
%ADD21RoundRect,0.140000X0.140000X0.170000X-0.140000X0.170000X-0.140000X-0.170000X0.140000X-0.170000X0*%
%ADD22R,1.500000X1.050000*%
%ADD23O,1.500000X1.050000*%
%ADD24R,1.800000X1.800000*%
%ADD25C,1.800000*%
%ADD26RoundRect,0.140000X-0.140000X-0.170000X0.140000X-0.170000X0.140000X0.170000X-0.140000X0.170000X0*%
%ADD27R,1.700000X1.700000*%
%ADD28O,1.700000X1.700000*%
%ADD29C,1.600000*%
G04 APERTURE END LIST*
D10*
%TO.C,R17*%
X60200000Y-67310000D03*
X59180000Y-67310000D03*
%TD*%
D11*
%TO.C,DS-ONES1*%
X72720000Y-136120000D03*
D12*
X73990000Y-133580000D03*
X75260000Y-136120000D03*
X76530000Y-133580000D03*
X77800000Y-136120000D03*
X77800000Y-128500000D03*
X76530000Y-131040000D03*
X75260000Y-128500000D03*
X73990000Y-131040000D03*
X72720000Y-128500000D03*
%TD*%
D11*
%TO.C,DS-TENS1*%
X63720000Y-136120000D03*
D12*
X64990000Y-133580000D03*
X66260000Y-136120000D03*
X67530000Y-133580000D03*
X68800000Y-136120000D03*
X68800000Y-128500000D03*
X67530000Y-131040000D03*
X66260000Y-128500000D03*
X64990000Y-131040000D03*
X63720000Y-128500000D03*
%TD*%
D10*
%TO.C,R16*%
X81790000Y-56896000D03*
X80770000Y-56896000D03*
%TD*%
D13*
%TO.C,SW1*%
X81472400Y-48771600D03*
X76392400Y-48771600D03*
X76392400Y-46231600D03*
X76392400Y-51311600D03*
X81472400Y-46231600D03*
X81472400Y-51311600D03*
X78932400Y-46111600D03*
X78932400Y-51511600D03*
%TD*%
D14*
%TO.C,J1*%
X62000000Y-37220000D03*
D15*
X62000000Y-48620000D03*
X62000000Y-40320000D03*
%TD*%
D16*
%TO.C,REF\u002A\u002A*%
X70500000Y-121000000D03*
%TD*%
D17*
%TO.C,IC3*%
X61110000Y-83530000D03*
D18*
X63650000Y-83530000D03*
X66190000Y-83530000D03*
X68730000Y-83530000D03*
X71270000Y-83530000D03*
X73810000Y-83530000D03*
X76350000Y-83530000D03*
X78890000Y-83530000D03*
X78890000Y-91470000D03*
X76350000Y-91470000D03*
X73810000Y-91470000D03*
X71270000Y-91470000D03*
X68730000Y-91470000D03*
X66190000Y-91470000D03*
X63650000Y-91470000D03*
X61110000Y-91470000D03*
%TD*%
D19*
%TO.C,D1*%
X61050000Y-52650000D03*
X58950000Y-52650000D03*
%TD*%
D20*
%TO.C,R9*%
X74990000Y-81000000D03*
X76010000Y-81000000D03*
%TD*%
D21*
%TO.C,C3*%
X60080000Y-94000000D03*
X59120000Y-94000000D03*
%TD*%
D22*
%TO.C,Q5*%
X65360000Y-65480000D03*
D23*
X65360000Y-66750000D03*
X65360000Y-68020000D03*
%TD*%
D10*
%TO.C,R2*%
X71010000Y-106190000D03*
X69990000Y-106190000D03*
%TD*%
D18*
%TO.C,IC1*%
X73560000Y-97460000D03*
X73560000Y-100000000D03*
X73560000Y-102540000D03*
X73560000Y-105080000D03*
X73560000Y-107620000D03*
X73560000Y-110160000D03*
X73560000Y-112700000D03*
X73560000Y-115240000D03*
X81500000Y-115240000D03*
X81500000Y-112700000D03*
X81500000Y-110160000D03*
X81500000Y-107620000D03*
X81500000Y-105080000D03*
X81500000Y-102540000D03*
X81500000Y-100000000D03*
D17*
X81500000Y-97460000D03*
%TD*%
D21*
%TO.C,C4*%
X73960000Y-95000000D03*
X73000000Y-95000000D03*
%TD*%
D24*
%TO.C,D2*%
X72898000Y-53086000D03*
D25*
X70358000Y-53086000D03*
%TD*%
D10*
%TO.C,R13*%
X61870000Y-64000000D03*
X60850000Y-64000000D03*
%TD*%
%TO.C,R6*%
X78742000Y-94500000D03*
X77722000Y-94500000D03*
%TD*%
%TO.C,R5*%
X65010000Y-52500000D03*
X63990000Y-52500000D03*
%TD*%
D20*
%TO.C,R15*%
X78992000Y-54610000D03*
X80012000Y-54610000D03*
%TD*%
D22*
%TO.C,Q1*%
X74940000Y-58230000D03*
D23*
X74940000Y-59500000D03*
X74940000Y-60770000D03*
%TD*%
D26*
%TO.C,C2*%
X62520000Y-94000000D03*
X63480000Y-94000000D03*
%TD*%
D22*
%TO.C,Q2*%
X65220000Y-58230000D03*
D23*
X65220000Y-59500000D03*
X65220000Y-60770000D03*
%TD*%
D10*
%TO.C,R12*%
X77726000Y-54610000D03*
X76706000Y-54610000D03*
%TD*%
D20*
%TO.C,R3*%
X69890000Y-101500000D03*
X70910000Y-101500000D03*
%TD*%
D22*
%TO.C,Q3*%
X74940000Y-65480000D03*
D23*
X74940000Y-66750000D03*
X74940000Y-68020000D03*
%TD*%
D27*
%TO.C,J2*%
X81019600Y-41275000D03*
D28*
X81019600Y-38735000D03*
X78479600Y-41275000D03*
X78479600Y-38735000D03*
X75939600Y-41275000D03*
X75939600Y-38735000D03*
X73399600Y-41275000D03*
X73399600Y-38735000D03*
X70859600Y-41275000D03*
X70859600Y-38735000D03*
%TD*%
D10*
%TO.C,R11*%
X71220000Y-110500000D03*
X70200000Y-110500000D03*
%TD*%
%TO.C,R10*%
X80230000Y-68000000D03*
X79210000Y-68000000D03*
%TD*%
D17*
%TO.C,IC2*%
X67500000Y-97460000D03*
D18*
X67500000Y-100000000D03*
X67500000Y-102540000D03*
X67500000Y-105080000D03*
X67500000Y-107620000D03*
X67500000Y-110160000D03*
X67500000Y-112700000D03*
X67500000Y-115240000D03*
X59560000Y-115240000D03*
X59560000Y-112700000D03*
X59560000Y-110160000D03*
X59560000Y-107620000D03*
X59560000Y-105080000D03*
X59560000Y-102540000D03*
X59560000Y-100000000D03*
X59560000Y-97460000D03*
%TD*%
D29*
%TO.C,C1*%
X72000000Y-46000000D03*
X72000000Y-48000000D03*
%TD*%
D22*
%TO.C,Q6*%
X65140000Y-72730000D03*
D23*
X65140000Y-74000000D03*
X65140000Y-75270000D03*
%TD*%
D22*
%TO.C,Q4*%
X74720000Y-72730000D03*
D23*
X74720000Y-74000000D03*
X74720000Y-75270000D03*
%TD*%
D10*
%TO.C,R7*%
X61870000Y-57500000D03*
X60850000Y-57500000D03*
%TD*%
%TO.C,R8*%
X80230000Y-61500000D03*
X79210000Y-61500000D03*
%TD*%
%TO.C,R1*%
X81028000Y-94500000D03*
X80008000Y-94500000D03*
%TD*%
%TO.C,R4*%
X70810000Y-98600000D03*
X69790000Y-98600000D03*
%TD*%
D20*
%TO.C,R14*%
X60704000Y-71770000D03*
X61724000Y-71770000D03*
%TD*%
M02*
