%TF.GenerationSoftware,KiCad,Pcbnew,(6.0.0)*%
%TF.CreationDate,2022-02-24T15:19:16-08:00*%
%TF.ProjectId,16Bars,31364261-7273-42e6-9b69-6361645f7063,rev?*%
%TF.SameCoordinates,Original*%
%TF.FileFunction,Legend,Bot*%
%TF.FilePolarity,Positive*%
%FSLAX46Y46*%
G04 Gerber Fmt 4.6, Leading zero omitted, Abs format (unit mm)*
G04 Created by KiCad (PCBNEW (6.0.0)) date 2022-02-24 15:19:16*
%MOMM*%
%LPD*%
G01*
G04 APERTURE LIST*
%ADD10C,0.150000*%
G04 APERTURE END LIST*
D10*
%TO.C,R5*%
X71580000Y-51325714D02*
X71820000Y-50982857D01*
X71991428Y-51325714D02*
X71991428Y-50605714D01*
X71717142Y-50605714D01*
X71648571Y-50640000D01*
X71614285Y-50674285D01*
X71580000Y-50742857D01*
X71580000Y-50845714D01*
X71614285Y-50914285D01*
X71648571Y-50948571D01*
X71717142Y-50982857D01*
X71991428Y-50982857D01*
X70928571Y-50605714D02*
X71271428Y-50605714D01*
X71305714Y-50948571D01*
X71271428Y-50914285D01*
X71202857Y-50880000D01*
X71031428Y-50880000D01*
X70962857Y-50914285D01*
X70928571Y-50948571D01*
X70894285Y-51017142D01*
X70894285Y-51188571D01*
X70928571Y-51257142D01*
X70962857Y-51291428D01*
X71031428Y-51325714D01*
X71202857Y-51325714D01*
X71271428Y-51291428D01*
X71305714Y-51257142D01*
%TO.C,R7*%
X79674285Y-58580000D02*
X80017142Y-58820000D01*
X79674285Y-58991428D02*
X80394285Y-58991428D01*
X80394285Y-58717142D01*
X80360000Y-58648571D01*
X80325714Y-58614285D01*
X80257142Y-58580000D01*
X80154285Y-58580000D01*
X80085714Y-58614285D01*
X80051428Y-58648571D01*
X80017142Y-58717142D01*
X80017142Y-58991428D01*
X80394285Y-58340000D02*
X80394285Y-57860000D01*
X79674285Y-58168571D01*
%TO.C,R8*%
X72174285Y-58580000D02*
X72517142Y-58820000D01*
X72174285Y-58991428D02*
X72894285Y-58991428D01*
X72894285Y-58717142D01*
X72860000Y-58648571D01*
X72825714Y-58614285D01*
X72757142Y-58580000D01*
X72654285Y-58580000D01*
X72585714Y-58614285D01*
X72551428Y-58648571D01*
X72517142Y-58717142D01*
X72517142Y-58991428D01*
X72585714Y-58168571D02*
X72620000Y-58237142D01*
X72654285Y-58271428D01*
X72722857Y-58305714D01*
X72757142Y-58305714D01*
X72825714Y-58271428D01*
X72860000Y-58237142D01*
X72894285Y-58168571D01*
X72894285Y-58031428D01*
X72860000Y-57962857D01*
X72825714Y-57928571D01*
X72757142Y-57894285D01*
X72722857Y-57894285D01*
X72654285Y-57928571D01*
X72620000Y-57962857D01*
X72585714Y-58031428D01*
X72585714Y-58168571D01*
X72551428Y-58237142D01*
X72517142Y-58271428D01*
X72448571Y-58305714D01*
X72311428Y-58305714D01*
X72242857Y-58271428D01*
X72208571Y-58237142D01*
X72174285Y-58168571D01*
X72174285Y-58031428D01*
X72208571Y-57962857D01*
X72242857Y-57928571D01*
X72311428Y-57894285D01*
X72448571Y-57894285D01*
X72517142Y-57928571D01*
X72551428Y-57962857D01*
X72585714Y-58031428D01*
%TO.C,IC3*%
X63702857Y-87325714D02*
X63702857Y-86605714D01*
X62948571Y-87257142D02*
X62982857Y-87291428D01*
X63085714Y-87325714D01*
X63154285Y-87325714D01*
X63257142Y-87291428D01*
X63325714Y-87222857D01*
X63360000Y-87154285D01*
X63394285Y-87017142D01*
X63394285Y-86914285D01*
X63360000Y-86777142D01*
X63325714Y-86708571D01*
X63257142Y-86640000D01*
X63154285Y-86605714D01*
X63085714Y-86605714D01*
X62982857Y-86640000D01*
X62948571Y-86674285D01*
X62708571Y-86605714D02*
X62262857Y-86605714D01*
X62502857Y-86880000D01*
X62400000Y-86880000D01*
X62331428Y-86914285D01*
X62297142Y-86948571D01*
X62262857Y-87017142D01*
X62262857Y-87188571D01*
X62297142Y-87257142D01*
X62331428Y-87291428D01*
X62400000Y-87325714D01*
X62605714Y-87325714D01*
X62674285Y-87291428D01*
X62708571Y-87257142D01*
%TO.C,D1*%
X55674285Y-53531428D02*
X56394285Y-53531428D01*
X56394285Y-53360000D01*
X56360000Y-53257142D01*
X56291428Y-53188571D01*
X56222857Y-53154285D01*
X56085714Y-53120000D01*
X55982857Y-53120000D01*
X55845714Y-53154285D01*
X55777142Y-53188571D01*
X55708571Y-53257142D01*
X55674285Y-53360000D01*
X55674285Y-53531428D01*
X55674285Y-52434285D02*
X55674285Y-52845714D01*
X55674285Y-52640000D02*
X56394285Y-52640000D01*
X56291428Y-52708571D01*
X56222857Y-52777142D01*
X56188571Y-52845714D01*
X65621428Y-50774285D02*
X65621428Y-51494285D01*
X66032857Y-50774285D02*
X65724285Y-51185714D01*
X66032857Y-51494285D02*
X65621428Y-51082857D01*
%TO.C,R9*%
X80120000Y-85325714D02*
X80360000Y-84982857D01*
X80531428Y-85325714D02*
X80531428Y-84605714D01*
X80257142Y-84605714D01*
X80188571Y-84640000D01*
X80154285Y-84674285D01*
X80120000Y-84742857D01*
X80120000Y-84845714D01*
X80154285Y-84914285D01*
X80188571Y-84948571D01*
X80257142Y-84982857D01*
X80531428Y-84982857D01*
X79777142Y-85325714D02*
X79640000Y-85325714D01*
X79571428Y-85291428D01*
X79537142Y-85257142D01*
X79468571Y-85154285D01*
X79434285Y-85017142D01*
X79434285Y-84742857D01*
X79468571Y-84674285D01*
X79502857Y-84640000D01*
X79571428Y-84605714D01*
X79708571Y-84605714D01*
X79777142Y-84640000D01*
X79811428Y-84674285D01*
X79845714Y-84742857D01*
X79845714Y-84914285D01*
X79811428Y-84982857D01*
X79777142Y-85017142D01*
X79708571Y-85051428D01*
X79571428Y-85051428D01*
X79502857Y-85017142D01*
X79468571Y-84982857D01*
X79434285Y-84914285D01*
%TO.C,C3*%
X57120000Y-101257142D02*
X57154285Y-101291428D01*
X57257142Y-101325714D01*
X57325714Y-101325714D01*
X57428571Y-101291428D01*
X57497142Y-101222857D01*
X57531428Y-101154285D01*
X57565714Y-101017142D01*
X57565714Y-100914285D01*
X57531428Y-100777142D01*
X57497142Y-100708571D01*
X57428571Y-100640000D01*
X57325714Y-100605714D01*
X57257142Y-100605714D01*
X57154285Y-100640000D01*
X57120000Y-100674285D01*
X56880000Y-100605714D02*
X56434285Y-100605714D01*
X56674285Y-100880000D01*
X56571428Y-100880000D01*
X56502857Y-100914285D01*
X56468571Y-100948571D01*
X56434285Y-101017142D01*
X56434285Y-101188571D01*
X56468571Y-101257142D01*
X56502857Y-101291428D01*
X56571428Y-101325714D01*
X56777142Y-101325714D01*
X56845714Y-101291428D01*
X56880000Y-101257142D01*
%TO.C,Q5*%
X58394285Y-63701428D02*
X58360000Y-63632857D01*
X58291428Y-63564285D01*
X58188571Y-63461428D01*
X58154285Y-63392857D01*
X58154285Y-63324285D01*
X58325714Y-63358571D02*
X58291428Y-63290000D01*
X58222857Y-63221428D01*
X58085714Y-63187142D01*
X57845714Y-63187142D01*
X57708571Y-63221428D01*
X57640000Y-63290000D01*
X57605714Y-63358571D01*
X57605714Y-63495714D01*
X57640000Y-63564285D01*
X57708571Y-63632857D01*
X57845714Y-63667142D01*
X58085714Y-63667142D01*
X58222857Y-63632857D01*
X58291428Y-63564285D01*
X58325714Y-63495714D01*
X58325714Y-63358571D01*
X57605714Y-64318571D02*
X57605714Y-63975714D01*
X57948571Y-63941428D01*
X57914285Y-63975714D01*
X57880000Y-64044285D01*
X57880000Y-64215714D01*
X57914285Y-64284285D01*
X57948571Y-64318571D01*
X58017142Y-64352857D01*
X58188571Y-64352857D01*
X58257142Y-64318571D01*
X58291428Y-64284285D01*
X58325714Y-64215714D01*
X58325714Y-64044285D01*
X58291428Y-63975714D01*
X58257142Y-63941428D01*
%TO.C,R2*%
X77120000Y-97897143D02*
X77360000Y-97554286D01*
X77531428Y-97897143D02*
X77531428Y-97177143D01*
X77257142Y-97177143D01*
X77188571Y-97211429D01*
X77154285Y-97245714D01*
X77120000Y-97314286D01*
X77120000Y-97417143D01*
X77154285Y-97485714D01*
X77188571Y-97520000D01*
X77257142Y-97554286D01*
X77531428Y-97554286D01*
X76845714Y-97245714D02*
X76811428Y-97211429D01*
X76742857Y-97177143D01*
X76571428Y-97177143D01*
X76502857Y-97211429D01*
X76468571Y-97245714D01*
X76434285Y-97314286D01*
X76434285Y-97382857D01*
X76468571Y-97485714D01*
X76880000Y-97897143D01*
X76434285Y-97897143D01*
%TO.C,IC1*%
X77702857Y-113325714D02*
X77702857Y-112605714D01*
X76948571Y-113257142D02*
X76982857Y-113291428D01*
X77085714Y-113325714D01*
X77154285Y-113325714D01*
X77257142Y-113291428D01*
X77325714Y-113222857D01*
X77360000Y-113154285D01*
X77394285Y-113017142D01*
X77394285Y-112914285D01*
X77360000Y-112777142D01*
X77325714Y-112708571D01*
X77257142Y-112640000D01*
X77154285Y-112605714D01*
X77085714Y-112605714D01*
X76982857Y-112640000D01*
X76948571Y-112674285D01*
X76262857Y-113325714D02*
X76674285Y-113325714D01*
X76468571Y-113325714D02*
X76468571Y-112605714D01*
X76537142Y-112708571D01*
X76605714Y-112777142D01*
X76674285Y-112811428D01*
%TO.C,C4*%
X71120000Y-101257142D02*
X71154285Y-101291428D01*
X71257142Y-101325714D01*
X71325714Y-101325714D01*
X71428571Y-101291428D01*
X71497142Y-101222857D01*
X71531428Y-101154285D01*
X71565714Y-101017142D01*
X71565714Y-100914285D01*
X71531428Y-100777142D01*
X71497142Y-100708571D01*
X71428571Y-100640000D01*
X71325714Y-100605714D01*
X71257142Y-100605714D01*
X71154285Y-100640000D01*
X71120000Y-100674285D01*
X70502857Y-100845714D02*
X70502857Y-101325714D01*
X70674285Y-100571428D02*
X70845714Y-101085714D01*
X70400000Y-101085714D01*
%TO.C,R13*%
X80462857Y-81725714D02*
X80702857Y-81382857D01*
X80874285Y-81725714D02*
X80874285Y-81005714D01*
X80600000Y-81005714D01*
X80531428Y-81040000D01*
X80497142Y-81074285D01*
X80462857Y-81142857D01*
X80462857Y-81245714D01*
X80497142Y-81314285D01*
X80531428Y-81348571D01*
X80600000Y-81382857D01*
X80874285Y-81382857D01*
X79777142Y-81725714D02*
X80188571Y-81725714D01*
X79982857Y-81725714D02*
X79982857Y-81005714D01*
X80051428Y-81108571D01*
X80120000Y-81177142D01*
X80188571Y-81211428D01*
X79537142Y-81005714D02*
X79091428Y-81005714D01*
X79331428Y-81280000D01*
X79228571Y-81280000D01*
X79160000Y-81314285D01*
X79125714Y-81348571D01*
X79091428Y-81417142D01*
X79091428Y-81588571D01*
X79125714Y-81657142D01*
X79160000Y-81691428D01*
X79228571Y-81725714D01*
X79434285Y-81725714D01*
X79502857Y-81691428D01*
X79537142Y-81657142D01*
%TO.C,R6*%
X77120000Y-92861430D02*
X77360000Y-92518573D01*
X77531428Y-92861430D02*
X77531428Y-92141430D01*
X77257142Y-92141430D01*
X77188571Y-92175716D01*
X77154285Y-92210001D01*
X77120000Y-92278573D01*
X77120000Y-92381430D01*
X77154285Y-92450001D01*
X77188571Y-92484287D01*
X77257142Y-92518573D01*
X77531428Y-92518573D01*
X76502857Y-92141430D02*
X76640000Y-92141430D01*
X76708571Y-92175716D01*
X76742857Y-92210001D01*
X76811428Y-92312858D01*
X76845714Y-92450001D01*
X76845714Y-92724287D01*
X76811428Y-92792858D01*
X76777142Y-92827144D01*
X76708571Y-92861430D01*
X76571428Y-92861430D01*
X76502857Y-92827144D01*
X76468571Y-92792858D01*
X76434285Y-92724287D01*
X76434285Y-92552858D01*
X76468571Y-92484287D01*
X76502857Y-92450001D01*
X76571428Y-92415716D01*
X76708571Y-92415716D01*
X76777142Y-92450001D01*
X76811428Y-92484287D01*
X76845714Y-92552858D01*
%TO.C,Q1*%
X64894285Y-57431428D02*
X64860000Y-57362857D01*
X64791428Y-57294285D01*
X64688571Y-57191428D01*
X64654285Y-57122857D01*
X64654285Y-57054285D01*
X64825714Y-57088571D02*
X64791428Y-57020000D01*
X64722857Y-56951428D01*
X64585714Y-56917142D01*
X64345714Y-56917142D01*
X64208571Y-56951428D01*
X64140000Y-57020000D01*
X64105714Y-57088571D01*
X64105714Y-57225714D01*
X64140000Y-57294285D01*
X64208571Y-57362857D01*
X64345714Y-57397142D01*
X64585714Y-57397142D01*
X64722857Y-57362857D01*
X64791428Y-57294285D01*
X64825714Y-57225714D01*
X64825714Y-57088571D01*
X64825714Y-58082857D02*
X64825714Y-57671428D01*
X64825714Y-57877142D02*
X64105714Y-57877142D01*
X64208571Y-57808571D01*
X64277142Y-57740000D01*
X64311428Y-57671428D01*
%TO.C,C2*%
X57620000Y-75257142D02*
X57654285Y-75291428D01*
X57757142Y-75325714D01*
X57825714Y-75325714D01*
X57928571Y-75291428D01*
X57997142Y-75222857D01*
X58031428Y-75154285D01*
X58065714Y-75017142D01*
X58065714Y-74914285D01*
X58031428Y-74777142D01*
X57997142Y-74708571D01*
X57928571Y-74640000D01*
X57825714Y-74605714D01*
X57757142Y-74605714D01*
X57654285Y-74640000D01*
X57620000Y-74674285D01*
X57345714Y-74674285D02*
X57311428Y-74640000D01*
X57242857Y-74605714D01*
X57071428Y-74605714D01*
X57002857Y-74640000D01*
X56968571Y-74674285D01*
X56934285Y-74742857D01*
X56934285Y-74811428D01*
X56968571Y-74914285D01*
X57380000Y-75325714D01*
X56934285Y-75325714D01*
%TO.C,Q2*%
X57894285Y-57431428D02*
X57860000Y-57362857D01*
X57791428Y-57294285D01*
X57688571Y-57191428D01*
X57654285Y-57122857D01*
X57654285Y-57054285D01*
X57825714Y-57088571D02*
X57791428Y-57020000D01*
X57722857Y-56951428D01*
X57585714Y-56917142D01*
X57345714Y-56917142D01*
X57208571Y-56951428D01*
X57140000Y-57020000D01*
X57105714Y-57088571D01*
X57105714Y-57225714D01*
X57140000Y-57294285D01*
X57208571Y-57362857D01*
X57345714Y-57397142D01*
X57585714Y-57397142D01*
X57722857Y-57362857D01*
X57791428Y-57294285D01*
X57825714Y-57225714D01*
X57825714Y-57088571D01*
X57174285Y-57671428D02*
X57140000Y-57705714D01*
X57105714Y-57774285D01*
X57105714Y-57945714D01*
X57140000Y-58014285D01*
X57174285Y-58048571D01*
X57242857Y-58082857D01*
X57311428Y-58082857D01*
X57414285Y-58048571D01*
X57825714Y-57637142D01*
X57825714Y-58082857D01*
%TO.C,R12*%
X80462857Y-71325714D02*
X80702857Y-70982857D01*
X80874285Y-71325714D02*
X80874285Y-70605714D01*
X80600000Y-70605714D01*
X80531428Y-70640000D01*
X80497142Y-70674285D01*
X80462857Y-70742857D01*
X80462857Y-70845714D01*
X80497142Y-70914285D01*
X80531428Y-70948571D01*
X80600000Y-70982857D01*
X80874285Y-70982857D01*
X79777142Y-71325714D02*
X80188571Y-71325714D01*
X79982857Y-71325714D02*
X79982857Y-70605714D01*
X80051428Y-70708571D01*
X80120000Y-70777142D01*
X80188571Y-70811428D01*
X79502857Y-70674285D02*
X79468571Y-70640000D01*
X79400000Y-70605714D01*
X79228571Y-70605714D01*
X79160000Y-70640000D01*
X79125714Y-70674285D01*
X79091428Y-70742857D01*
X79091428Y-70811428D01*
X79125714Y-70914285D01*
X79537142Y-71325714D01*
X79091428Y-71325714D01*
%TO.C,R3*%
X81120000Y-93325714D02*
X81360000Y-92982857D01*
X81531428Y-93325714D02*
X81531428Y-92605714D01*
X81257142Y-92605714D01*
X81188571Y-92640000D01*
X81154285Y-92674285D01*
X81120000Y-92742857D01*
X81120000Y-92845714D01*
X81154285Y-92914285D01*
X81188571Y-92948571D01*
X81257142Y-92982857D01*
X81531428Y-92982857D01*
X80880000Y-92605714D02*
X80434285Y-92605714D01*
X80674285Y-92880000D01*
X80571428Y-92880000D01*
X80502857Y-92914285D01*
X80468571Y-92948571D01*
X80434285Y-93017142D01*
X80434285Y-93188571D01*
X80468571Y-93257142D01*
X80502857Y-93291428D01*
X80571428Y-93325714D01*
X80777142Y-93325714D01*
X80845714Y-93291428D01*
X80880000Y-93257142D01*
%TO.C,Q3*%
X64894285Y-63701428D02*
X64860000Y-63632857D01*
X64791428Y-63564285D01*
X64688571Y-63461428D01*
X64654285Y-63392857D01*
X64654285Y-63324285D01*
X64825714Y-63358571D02*
X64791428Y-63290000D01*
X64722857Y-63221428D01*
X64585714Y-63187142D01*
X64345714Y-63187142D01*
X64208571Y-63221428D01*
X64140000Y-63290000D01*
X64105714Y-63358571D01*
X64105714Y-63495714D01*
X64140000Y-63564285D01*
X64208571Y-63632857D01*
X64345714Y-63667142D01*
X64585714Y-63667142D01*
X64722857Y-63632857D01*
X64791428Y-63564285D01*
X64825714Y-63495714D01*
X64825714Y-63358571D01*
X64105714Y-63907142D02*
X64105714Y-64352857D01*
X64380000Y-64112857D01*
X64380000Y-64215714D01*
X64414285Y-64284285D01*
X64448571Y-64318571D01*
X64517142Y-64352857D01*
X64688571Y-64352857D01*
X64757142Y-64318571D01*
X64791428Y-64284285D01*
X64825714Y-64215714D01*
X64825714Y-64010000D01*
X64791428Y-63941428D01*
X64757142Y-63907142D01*
%TO.C,J2*%
X83743885Y-40245000D02*
X83229600Y-40245000D01*
X83126742Y-40279285D01*
X83058171Y-40347857D01*
X83023885Y-40450714D01*
X83023885Y-40519285D01*
X83675314Y-39936428D02*
X83709600Y-39902142D01*
X83743885Y-39833571D01*
X83743885Y-39662142D01*
X83709600Y-39593571D01*
X83675314Y-39559285D01*
X83606742Y-39525000D01*
X83538171Y-39525000D01*
X83435314Y-39559285D01*
X83023885Y-39970714D01*
X83023885Y-39525000D01*
%TO.C,R11*%
X80462857Y-67825714D02*
X80702857Y-67482857D01*
X80874285Y-67825714D02*
X80874285Y-67105714D01*
X80600000Y-67105714D01*
X80531428Y-67140000D01*
X80497142Y-67174285D01*
X80462857Y-67242857D01*
X80462857Y-67345714D01*
X80497142Y-67414285D01*
X80531428Y-67448571D01*
X80600000Y-67482857D01*
X80874285Y-67482857D01*
X79777142Y-67825714D02*
X80188571Y-67825714D01*
X79982857Y-67825714D02*
X79982857Y-67105714D01*
X80051428Y-67208571D01*
X80120000Y-67277142D01*
X80188571Y-67311428D01*
X79091428Y-67825714D02*
X79502857Y-67825714D01*
X79297142Y-67825714D02*
X79297142Y-67105714D01*
X79365714Y-67208571D01*
X79434285Y-67277142D01*
X79502857Y-67311428D01*
%TO.C,R15*%
X80462857Y-74825714D02*
X80702857Y-74482857D01*
X80874285Y-74825714D02*
X80874285Y-74105714D01*
X80600000Y-74105714D01*
X80531428Y-74140000D01*
X80497142Y-74174285D01*
X80462857Y-74242857D01*
X80462857Y-74345714D01*
X80497142Y-74414285D01*
X80531428Y-74448571D01*
X80600000Y-74482857D01*
X80874285Y-74482857D01*
X79777142Y-74825714D02*
X80188571Y-74825714D01*
X79982857Y-74825714D02*
X79982857Y-74105714D01*
X80051428Y-74208571D01*
X80120000Y-74277142D01*
X80188571Y-74311428D01*
X79125714Y-74105714D02*
X79468571Y-74105714D01*
X79502857Y-74448571D01*
X79468571Y-74414285D01*
X79400000Y-74380000D01*
X79228571Y-74380000D01*
X79160000Y-74414285D01*
X79125714Y-74448571D01*
X79091428Y-74517142D01*
X79091428Y-74688571D01*
X79125714Y-74757142D01*
X79160000Y-74791428D01*
X79228571Y-74825714D01*
X79400000Y-74825714D01*
X79468571Y-74791428D01*
X79502857Y-74757142D01*
%TO.C,R10*%
X80462857Y-64325714D02*
X80702857Y-63982857D01*
X80874285Y-64325714D02*
X80874285Y-63605714D01*
X80600000Y-63605714D01*
X80531428Y-63640000D01*
X80497142Y-63674285D01*
X80462857Y-63742857D01*
X80462857Y-63845714D01*
X80497142Y-63914285D01*
X80531428Y-63948571D01*
X80600000Y-63982857D01*
X80874285Y-63982857D01*
X79777142Y-64325714D02*
X80188571Y-64325714D01*
X79982857Y-64325714D02*
X79982857Y-63605714D01*
X80051428Y-63708571D01*
X80120000Y-63777142D01*
X80188571Y-63811428D01*
X79331428Y-63605714D02*
X79262857Y-63605714D01*
X79194285Y-63640000D01*
X79160000Y-63674285D01*
X79125714Y-63742857D01*
X79091428Y-63880000D01*
X79091428Y-64051428D01*
X79125714Y-64188571D01*
X79160000Y-64257142D01*
X79194285Y-64291428D01*
X79262857Y-64325714D01*
X79331428Y-64325714D01*
X79400000Y-64291428D01*
X79434285Y-64257142D01*
X79468571Y-64188571D01*
X79502857Y-64051428D01*
X79502857Y-63880000D01*
X79468571Y-63742857D01*
X79434285Y-63674285D01*
X79400000Y-63640000D01*
X79331428Y-63605714D01*
%TO.C,IC2*%
X63702857Y-113325714D02*
X63702857Y-112605714D01*
X62948571Y-113257142D02*
X62982857Y-113291428D01*
X63085714Y-113325714D01*
X63154285Y-113325714D01*
X63257142Y-113291428D01*
X63325714Y-113222857D01*
X63360000Y-113154285D01*
X63394285Y-113017142D01*
X63394285Y-112914285D01*
X63360000Y-112777142D01*
X63325714Y-112708571D01*
X63257142Y-112640000D01*
X63154285Y-112605714D01*
X63085714Y-112605714D01*
X62982857Y-112640000D01*
X62948571Y-112674285D01*
X62674285Y-112674285D02*
X62640000Y-112640000D01*
X62571428Y-112605714D01*
X62400000Y-112605714D01*
X62331428Y-112640000D01*
X62297142Y-112674285D01*
X62262857Y-112742857D01*
X62262857Y-112811428D01*
X62297142Y-112914285D01*
X62708571Y-113325714D01*
X62262857Y-113325714D01*
%TO.C,C1*%
X68757142Y-48380000D02*
X68791428Y-48345714D01*
X68825714Y-48242857D01*
X68825714Y-48174285D01*
X68791428Y-48071428D01*
X68722857Y-48002857D01*
X68654285Y-47968571D01*
X68517142Y-47934285D01*
X68414285Y-47934285D01*
X68277142Y-47968571D01*
X68208571Y-48002857D01*
X68140000Y-48071428D01*
X68105714Y-48174285D01*
X68105714Y-48242857D01*
X68140000Y-48345714D01*
X68174285Y-48380000D01*
X68825714Y-49065714D02*
X68825714Y-48654285D01*
X68825714Y-48860000D02*
X68105714Y-48860000D01*
X68208571Y-48791428D01*
X68277142Y-48722857D01*
X68311428Y-48654285D01*
%TO.C,Q6*%
X58394285Y-69701428D02*
X58360000Y-69632857D01*
X58291428Y-69564285D01*
X58188571Y-69461428D01*
X58154285Y-69392857D01*
X58154285Y-69324285D01*
X58325714Y-69358571D02*
X58291428Y-69290000D01*
X58222857Y-69221428D01*
X58085714Y-69187142D01*
X57845714Y-69187142D01*
X57708571Y-69221428D01*
X57640000Y-69290000D01*
X57605714Y-69358571D01*
X57605714Y-69495714D01*
X57640000Y-69564285D01*
X57708571Y-69632857D01*
X57845714Y-69667142D01*
X58085714Y-69667142D01*
X58222857Y-69632857D01*
X58291428Y-69564285D01*
X58325714Y-69495714D01*
X58325714Y-69358571D01*
X57605714Y-70284285D02*
X57605714Y-70147142D01*
X57640000Y-70078571D01*
X57674285Y-70044285D01*
X57777142Y-69975714D01*
X57914285Y-69941428D01*
X58188571Y-69941428D01*
X58257142Y-69975714D01*
X58291428Y-70010000D01*
X58325714Y-70078571D01*
X58325714Y-70215714D01*
X58291428Y-70284285D01*
X58257142Y-70318571D01*
X58188571Y-70352857D01*
X58017142Y-70352857D01*
X57948571Y-70318571D01*
X57914285Y-70284285D01*
X57880000Y-70215714D01*
X57880000Y-70078571D01*
X57914285Y-70010000D01*
X57948571Y-69975714D01*
X58017142Y-69941428D01*
%TO.C,Q4*%
X64894285Y-69701428D02*
X64860000Y-69632857D01*
X64791428Y-69564285D01*
X64688571Y-69461428D01*
X64654285Y-69392857D01*
X64654285Y-69324285D01*
X64825714Y-69358571D02*
X64791428Y-69290000D01*
X64722857Y-69221428D01*
X64585714Y-69187142D01*
X64345714Y-69187142D01*
X64208571Y-69221428D01*
X64140000Y-69290000D01*
X64105714Y-69358571D01*
X64105714Y-69495714D01*
X64140000Y-69564285D01*
X64208571Y-69632857D01*
X64345714Y-69667142D01*
X64585714Y-69667142D01*
X64722857Y-69632857D01*
X64791428Y-69564285D01*
X64825714Y-69495714D01*
X64825714Y-69358571D01*
X64345714Y-70284285D02*
X64825714Y-70284285D01*
X64071428Y-70112857D02*
X64585714Y-69941428D01*
X64585714Y-70387142D01*
%TO.C,R1*%
X81120000Y-99825714D02*
X81360000Y-99482857D01*
X81531428Y-99825714D02*
X81531428Y-99105714D01*
X81257142Y-99105714D01*
X81188571Y-99140000D01*
X81154285Y-99174285D01*
X81120000Y-99242857D01*
X81120000Y-99345714D01*
X81154285Y-99414285D01*
X81188571Y-99448571D01*
X81257142Y-99482857D01*
X81531428Y-99482857D01*
X80434285Y-99825714D02*
X80845714Y-99825714D01*
X80640000Y-99825714D02*
X80640000Y-99105714D01*
X80708571Y-99208571D01*
X80777142Y-99277142D01*
X80845714Y-99311428D01*
%TO.C,R4*%
X77120000Y-95325714D02*
X77360000Y-94982857D01*
X77531428Y-95325714D02*
X77531428Y-94605714D01*
X77257142Y-94605714D01*
X77188571Y-94640000D01*
X77154285Y-94674285D01*
X77120000Y-94742857D01*
X77120000Y-94845714D01*
X77154285Y-94914285D01*
X77188571Y-94948571D01*
X77257142Y-94982857D01*
X77531428Y-94982857D01*
X76502857Y-94845714D02*
X76502857Y-95325714D01*
X76674285Y-94571428D02*
X76845714Y-95085714D01*
X76400000Y-95085714D01*
%TO.C,R14*%
X80462857Y-78325714D02*
X80702857Y-77982857D01*
X80874285Y-78325714D02*
X80874285Y-77605714D01*
X80600000Y-77605714D01*
X80531428Y-77640000D01*
X80497142Y-77674285D01*
X80462857Y-77742857D01*
X80462857Y-77845714D01*
X80497142Y-77914285D01*
X80531428Y-77948571D01*
X80600000Y-77982857D01*
X80874285Y-77982857D01*
X79777142Y-78325714D02*
X80188571Y-78325714D01*
X79982857Y-78325714D02*
X79982857Y-77605714D01*
X80051428Y-77708571D01*
X80120000Y-77777142D01*
X80188571Y-77811428D01*
X79160000Y-77845714D02*
X79160000Y-78325714D01*
X79331428Y-77571428D02*
X79502857Y-78085714D01*
X79057142Y-78085714D01*
%TO.C,R5*%
X73380000Y-53920000D02*
X69540000Y-53920000D01*
X73380000Y-52080000D02*
X69540000Y-52080000D01*
%TO.C,R7*%
X77080000Y-60380000D02*
X77080000Y-56540000D01*
X78920000Y-60380000D02*
X78920000Y-56540000D01*
%TO.C,R8*%
X73580000Y-60380000D02*
X73580000Y-56540000D01*
X75420000Y-60380000D02*
X75420000Y-56540000D01*
%TO.C,IC3*%
X67535000Y-77155000D02*
X59700000Y-77155000D01*
X66300000Y-96845000D02*
X59700000Y-96845000D01*
%TO.C,D1*%
X64720000Y-54140000D02*
X64720000Y-54470000D01*
X59280000Y-54470000D02*
X59280000Y-54140000D01*
X63700000Y-51530000D02*
X63700000Y-54470000D01*
X64720000Y-51530000D02*
X59280000Y-51530000D01*
X63820000Y-51530000D02*
X63820000Y-54470000D01*
X63940000Y-51530000D02*
X63940000Y-54470000D01*
X64720000Y-51860000D02*
X64720000Y-51530000D01*
X59280000Y-51530000D02*
X59280000Y-51860000D01*
X64720000Y-54470000D02*
X59280000Y-54470000D01*
%TO.C,R9*%
X72580000Y-85920000D02*
X76420000Y-85920000D01*
X72580000Y-84080000D02*
X76420000Y-84080000D01*
%TO.C,C3*%
X66120000Y-102370000D02*
X58880000Y-102370000D01*
X58880000Y-99630000D02*
X58880000Y-102370000D01*
X66120000Y-99630000D02*
X66120000Y-102370000D01*
X66120000Y-99630000D02*
X58880000Y-99630000D01*
%TO.C,Q5*%
X63350000Y-61970000D02*
X63350000Y-65570000D01*
X63338478Y-61931522D02*
G75*
G03*
X58900000Y-63770000I-1838478J-1838478D01*
G01*
X58899999Y-63770000D02*
G75*
G03*
X63338478Y-65608478I2600001J0D01*
G01*
%TO.C,R2*%
X74920000Y-98420000D02*
X71080000Y-98420000D01*
X74920000Y-96580000D02*
X71080000Y-96580000D01*
%TO.C,IC1*%
X81535000Y-103155000D02*
X73700000Y-103155000D01*
X80300000Y-122845000D02*
X73700000Y-122845000D01*
%TO.C,C4*%
X79620000Y-99630000D02*
X79620000Y-102370000D01*
X79620000Y-102370000D02*
X72380000Y-102370000D01*
X72380000Y-99630000D02*
X72380000Y-102370000D01*
X79620000Y-99630000D02*
X72380000Y-99630000D01*
%TO.C,R13*%
X76420000Y-82420000D02*
X72580000Y-82420000D01*
X76420000Y-80580000D02*
X72580000Y-80580000D01*
%TO.C,R6*%
X74920000Y-93420000D02*
X71080000Y-93420000D01*
X74920000Y-91580000D02*
X71080000Y-91580000D01*
%TO.C,Q1*%
X69850000Y-55700000D02*
X69850000Y-59300000D01*
X65399999Y-57500000D02*
G75*
G03*
X69838478Y-59338478I2600001J0D01*
G01*
X69838478Y-55661522D02*
G75*
G03*
X65400000Y-57500000I-1838478J-1838478D01*
G01*
%TO.C,C2*%
X58880000Y-76370000D02*
X66120000Y-76370000D01*
X58880000Y-73630000D02*
X66120000Y-73630000D01*
X66120000Y-76370000D02*
X66120000Y-73630000D01*
X58880000Y-76370000D02*
X58880000Y-73630000D01*
%TO.C,Q2*%
X63210000Y-55700000D02*
X63210000Y-59300000D01*
X63198478Y-55661522D02*
G75*
G03*
X58760000Y-57500000I-1838478J-1838478D01*
G01*
X58759999Y-57500000D02*
G75*
G03*
X63198478Y-59338478I2600001J0D01*
G01*
%TO.C,R12*%
X76420000Y-71920000D02*
X72580000Y-71920000D01*
X76420000Y-70080000D02*
X72580000Y-70080000D01*
%TO.C,R3*%
X79080000Y-94080000D02*
X82920000Y-94080000D01*
X79080000Y-95920000D02*
X82920000Y-95920000D01*
%TO.C,Q3*%
X69850000Y-61970000D02*
X69850000Y-65570000D01*
X69838478Y-61931522D02*
G75*
G03*
X65400000Y-63770000I-1838478J-1838478D01*
G01*
X65399999Y-63770000D02*
G75*
G03*
X69838478Y-65608478I2600001J0D01*
G01*
%TO.C,J2*%
X82349600Y-42605000D02*
X82349600Y-41275000D01*
X82349600Y-37405000D02*
X69529600Y-37405000D01*
X79749600Y-42605000D02*
X79749600Y-40005000D01*
X82349600Y-40005000D02*
X82349600Y-37405000D01*
X69529600Y-42605000D02*
X69529600Y-37405000D01*
X81019600Y-42605000D02*
X82349600Y-42605000D01*
X79749600Y-40005000D02*
X82349600Y-40005000D01*
X79749600Y-42605000D02*
X69529600Y-42605000D01*
%TO.C,R11*%
X76420000Y-66580000D02*
X72580000Y-66580000D01*
X76420000Y-68420000D02*
X72580000Y-68420000D01*
%TO.C,R15*%
X76420000Y-73580000D02*
X72580000Y-73580000D01*
X76420000Y-75420000D02*
X72580000Y-75420000D01*
%TO.C,R10*%
X76420000Y-63080000D02*
X72580000Y-63080000D01*
X76420000Y-64920000D02*
X72580000Y-64920000D01*
%TO.C,IC2*%
X66300000Y-122845000D02*
X59700000Y-122845000D01*
X67535000Y-103155000D02*
X59700000Y-103155000D01*
%TO.C,C1*%
X74620000Y-47000000D02*
G75*
G03*
X74620000Y-47000000I-2620000J0D01*
G01*
%TO.C,Q6*%
X63338478Y-67931522D02*
G75*
G03*
X58900000Y-69770000I-1838478J-1838478D01*
G01*
X58899999Y-69770000D02*
G75*
G03*
X63338478Y-71608478I2600001J0D01*
G01*
X63350000Y-67970000D02*
X63350000Y-71570000D01*
%TO.C,Q4*%
X69850000Y-67970000D02*
X69850000Y-71570000D01*
X65399999Y-69770000D02*
G75*
G03*
X69838478Y-71608478I2600001J0D01*
G01*
X69838478Y-67931522D02*
G75*
G03*
X65400000Y-69770000I-1838478J-1838478D01*
G01*
%TO.C,R1*%
X82920000Y-98420000D02*
X79080000Y-98420000D01*
X82920000Y-96580000D02*
X79080000Y-96580000D01*
%TO.C,R4*%
X74880000Y-95920000D02*
X71040000Y-95920000D01*
X74880000Y-94080000D02*
X71040000Y-94080000D01*
%TO.C,R14*%
X76420000Y-77080000D02*
X72580000Y-77080000D01*
X76420000Y-78920000D02*
X72580000Y-78920000D01*
%TD*%
M02*
