%TF.GenerationSoftware,KiCad,Pcbnew,(6.0.0)*%
%TF.CreationDate,2022-02-16T15:24:19-08:00*%
%TF.ProjectId,LedPracticePanel,4c656450-7261-4637-9469-636550616e65,0*%
%TF.SameCoordinates,Original*%
%TF.FileFunction,Legend,Bot*%
%TF.FilePolarity,Positive*%
%FSLAX46Y46*%
G04 Gerber Fmt 4.6, Leading zero omitted, Abs format (unit mm)*
G04 Created by KiCad (PCBNEW (6.0.0)) date 2022-02-16 15:24:19*
%MOMM*%
%LPD*%
G01*
G04 APERTURE LIST*
%ADD10C,0.150000*%
G04 APERTURE END LIST*
D10*
X48857142Y-28071428D02*
X50857142Y-28071428D01*
X48857142Y-26785714D02*
X50428571Y-26785714D01*
X50714285Y-26928571D01*
X50857142Y-27214285D01*
X50857142Y-27642857D01*
X50714285Y-27928571D01*
X50571428Y-28071428D01*
X50857142Y-29500000D02*
X47857142Y-29500000D01*
X49000000Y-29500000D02*
X48857142Y-29785714D01*
X48857142Y-30357142D01*
X49000000Y-30642857D01*
X49142857Y-30785714D01*
X49428571Y-30928571D01*
X50285714Y-30928571D01*
X50571428Y-30785714D01*
X50714285Y-30642857D01*
X50857142Y-30357142D01*
X50857142Y-29785714D01*
X50714285Y-29500000D01*
X50714285Y-33357142D02*
X50857142Y-33071428D01*
X50857142Y-32500000D01*
X50714285Y-32214285D01*
X50428571Y-32071428D01*
X49285714Y-32071428D01*
X49000000Y-32214285D01*
X48857142Y-32500000D01*
X48857142Y-33071428D01*
X49000000Y-33357142D01*
X49285714Y-33500000D01*
X49571428Y-33500000D01*
X49857142Y-32071428D01*
X50857142Y-34785714D02*
X48857142Y-34785714D01*
X49428571Y-34785714D02*
X49142857Y-34928571D01*
X49000000Y-35071428D01*
X48857142Y-35357142D01*
X48857142Y-35642857D01*
X50714285Y-36500000D02*
X50857142Y-36785714D01*
X50857142Y-37357142D01*
X50714285Y-37642857D01*
X50428571Y-37785714D01*
X50285714Y-37785714D01*
X50000000Y-37642857D01*
X49857142Y-37357142D01*
X49857142Y-36928571D01*
X49714285Y-36642857D01*
X49428571Y-36500000D01*
X49285714Y-36500000D01*
X49000000Y-36642857D01*
X48857142Y-36928571D01*
X48857142Y-37357142D01*
X49000000Y-37642857D01*
X50857142Y-39071428D02*
X47857142Y-39071428D01*
X50857142Y-40357142D02*
X49285714Y-40357142D01*
X49000000Y-40214285D01*
X48857142Y-39928571D01*
X48857142Y-39500000D01*
X49000000Y-39214285D01*
X49142857Y-39071428D01*
X50714285Y-42928571D02*
X50857142Y-42642857D01*
X50857142Y-42071428D01*
X50714285Y-41785714D01*
X50428571Y-41642857D01*
X49285714Y-41642857D01*
X49000000Y-41785714D01*
X48857142Y-42071428D01*
X48857142Y-42642857D01*
X49000000Y-42928571D01*
X49285714Y-43071428D01*
X49571428Y-43071428D01*
X49857142Y-41642857D01*
X50714285Y-45500000D02*
X50857142Y-45214285D01*
X50857142Y-44642857D01*
X50714285Y-44357142D01*
X50428571Y-44214285D01*
X49285714Y-44214285D01*
X49000000Y-44357142D01*
X48857142Y-44642857D01*
X48857142Y-45214285D01*
X49000000Y-45500000D01*
X49285714Y-45642857D01*
X49571428Y-45642857D01*
X49857142Y-44214285D01*
X48857142Y-46928571D02*
X51857142Y-46928571D01*
X49000000Y-46928571D02*
X48857142Y-47214285D01*
X48857142Y-47785714D01*
X49000000Y-48071428D01*
X49142857Y-48214285D01*
X49428571Y-48357142D01*
X50285714Y-48357142D01*
X50571428Y-48214285D01*
X50714285Y-48071428D01*
X50857142Y-47785714D01*
X50857142Y-47214285D01*
X50714285Y-46928571D01*
%TO.C,G\u002A\u002A\u002A*%
G36*
X51753313Y-21877315D02*
G01*
X51607735Y-22149016D01*
X51565778Y-22227322D01*
X51331042Y-22622767D01*
X51063365Y-23040666D01*
X50777008Y-23458034D01*
X50486230Y-23851885D01*
X50205292Y-24199234D01*
X49948455Y-24477097D01*
X49913085Y-24511518D01*
X49600068Y-24790438D01*
X49260123Y-25041498D01*
X48866136Y-25279791D01*
X48390991Y-25520411D01*
X47807574Y-25778453D01*
X47088769Y-26069011D01*
X46578872Y-26271881D01*
X46059065Y-26490860D01*
X45641383Y-26687787D01*
X45293539Y-26880924D01*
X44983244Y-27088534D01*
X44678210Y-27328879D01*
X44346150Y-27620219D01*
X44345353Y-27620941D01*
X43968778Y-27939485D01*
X43642593Y-28147039D01*
X43312798Y-28262529D01*
X42925390Y-28304880D01*
X42426368Y-28293017D01*
X41686784Y-28250848D01*
X41638619Y-28552057D01*
X41635589Y-28571004D01*
X41571398Y-28803032D01*
X41447667Y-29117760D01*
X41292412Y-29441540D01*
X41000429Y-29991921D01*
X41158797Y-30655406D01*
X41296846Y-31245102D01*
X41366907Y-31566069D01*
X41467896Y-32028723D01*
X41542024Y-32419439D01*
X41596865Y-32708500D01*
X41688733Y-33319304D01*
X41696700Y-33396211D01*
X41718319Y-33604891D01*
X41748477Y-33896001D01*
X41780510Y-34463409D01*
X41781078Y-34473463D01*
X41791513Y-35086558D01*
X41790560Y-35290581D01*
X41789338Y-35552244D01*
X41774635Y-35991568D01*
X41772250Y-36062843D01*
X41730422Y-36472961D01*
X41703530Y-36596726D01*
X41654572Y-36822043D01*
X41535418Y-37149535D01*
X41473446Y-37274153D01*
X41363678Y-37494885D01*
X41275005Y-37647725D01*
X41130071Y-37897537D01*
X40984110Y-38181929D01*
X40938254Y-38299842D01*
X40802990Y-38647655D01*
X40702200Y-38994545D01*
X40653419Y-39162436D01*
X40460350Y-39887732D01*
X40434534Y-39963914D01*
X40222575Y-40589407D01*
X40009660Y-41052640D01*
X39952779Y-41176393D01*
X39634839Y-41677924D01*
X39252633Y-42123238D01*
X38900763Y-42441441D01*
X38790040Y-42541570D01*
X38685229Y-42628888D01*
X38317232Y-42935468D01*
X38118361Y-43116396D01*
X37946747Y-43272526D01*
X37713101Y-43526658D01*
X37666474Y-43577373D01*
X37452781Y-43884039D01*
X37327256Y-44135840D01*
X37282035Y-44226552D01*
X37130603Y-44638939D01*
X36974852Y-45155229D01*
X36936780Y-45286407D01*
X36763844Y-45823863D01*
X36598091Y-46227457D01*
X36426477Y-46525262D01*
X36235957Y-46745350D01*
X36228200Y-46752504D01*
X35903778Y-46971488D01*
X35468812Y-47155909D01*
X34980040Y-47281544D01*
X34953035Y-47285706D01*
X34723314Y-47304919D01*
X34362945Y-47320257D01*
X33904237Y-47330922D01*
X33379498Y-47336113D01*
X32821040Y-47335028D01*
X32586771Y-47333062D01*
X32043370Y-47326669D01*
X31633961Y-47316929D01*
X31332581Y-47301361D01*
X31113269Y-47277482D01*
X30950062Y-47242812D01*
X30816997Y-47194870D01*
X30688111Y-47131173D01*
X30583940Y-47071939D01*
X30347229Y-46897620D01*
X30142462Y-46670419D01*
X29951195Y-46362536D01*
X29754986Y-45946169D01*
X29535392Y-45393517D01*
X29527522Y-45373558D01*
X30069373Y-45373558D01*
X30111706Y-45415891D01*
X30154040Y-45373558D01*
X30111706Y-45331225D01*
X30069373Y-45373558D01*
X29527522Y-45373558D01*
X29380393Y-45000411D01*
X29211339Y-44605671D01*
X29057935Y-44279540D01*
X29044365Y-44255021D01*
X29762989Y-44255021D01*
X29774793Y-44432047D01*
X29811723Y-44586899D01*
X29874073Y-44757599D01*
X30027040Y-45146949D01*
X30027040Y-43867148D01*
X30168711Y-43867148D01*
X30187852Y-44306788D01*
X30202239Y-44492211D01*
X30257987Y-45010563D01*
X30278561Y-45146949D01*
X30312745Y-45373558D01*
X30331003Y-45494593D01*
X30414836Y-45910601D01*
X30503037Y-46224889D01*
X30589158Y-46403758D01*
X30667765Y-46483168D01*
X30816330Y-46590399D01*
X30945238Y-46647676D01*
X30999614Y-46625370D01*
X30976570Y-46520630D01*
X30914970Y-46301111D01*
X30828485Y-46016412D01*
X30688452Y-45495351D01*
X30540487Y-44721212D01*
X30443419Y-43914467D01*
X30408380Y-43151058D01*
X30405989Y-42962056D01*
X30400656Y-42856465D01*
X30587610Y-42856465D01*
X30588822Y-43181518D01*
X30605582Y-43573681D01*
X30636057Y-44000379D01*
X30678413Y-44429031D01*
X30730815Y-44827062D01*
X30791430Y-45161891D01*
X30884938Y-45554496D01*
X31012720Y-46007137D01*
X31141414Y-46383037D01*
X31248642Y-46625370D01*
X31260539Y-46652257D01*
X31359614Y-46784859D01*
X31424609Y-46815801D01*
X31616261Y-46853928D01*
X31657241Y-46853312D01*
X31717549Y-46828421D01*
X31700586Y-46736986D01*
X31604862Y-46537725D01*
X31344236Y-45920280D01*
X31106525Y-45108842D01*
X30919368Y-44166029D01*
X30786795Y-43108725D01*
X30786256Y-43103022D01*
X31007209Y-43103022D01*
X31024343Y-43532058D01*
X31047902Y-43815942D01*
X31188743Y-44671625D01*
X31424684Y-45546985D01*
X31737219Y-46368391D01*
X31837337Y-46581727D01*
X31945918Y-46757530D01*
X32043265Y-46828421D01*
X32054724Y-46836766D01*
X32197602Y-46855225D01*
X32352113Y-46840439D01*
X32436429Y-46769100D01*
X32362099Y-46639325D01*
X32360291Y-46637432D01*
X32256578Y-46483855D01*
X32114085Y-46217236D01*
X31953244Y-45881953D01*
X31794486Y-45522382D01*
X31658242Y-45182903D01*
X31564944Y-44907891D01*
X31541103Y-44817622D01*
X31467036Y-44473536D01*
X31394027Y-44056660D01*
X31334916Y-43637891D01*
X31317947Y-43498655D01*
X31270405Y-43136451D01*
X31269649Y-43132131D01*
X31451945Y-43132131D01*
X31470466Y-43405058D01*
X31474067Y-43439194D01*
X31663512Y-44532682D01*
X31987666Y-45528193D01*
X32449006Y-46433389D01*
X32532302Y-46560417D01*
X32710826Y-46769100D01*
X32718735Y-46778345D01*
X32869033Y-46855225D01*
X32883804Y-46854997D01*
X32950326Y-46834818D01*
X32953433Y-46760295D01*
X32885652Y-46600888D01*
X32739506Y-46326058D01*
X32641088Y-46135568D01*
X32390586Y-45560609D01*
X32157485Y-44908145D01*
X31963873Y-44243714D01*
X31831836Y-43632854D01*
X31769673Y-43307567D01*
X31692749Y-43052517D01*
X31675865Y-43027640D01*
X31937333Y-43027640D01*
X31939727Y-43194763D01*
X31980529Y-43473902D01*
X32052066Y-43829154D01*
X32146666Y-44224615D01*
X32256655Y-44624384D01*
X32374360Y-44992558D01*
X32394388Y-45049030D01*
X32559802Y-45477159D01*
X32748862Y-45917736D01*
X32924484Y-46283725D01*
X32953342Y-46338276D01*
X33103523Y-46600740D01*
X33211142Y-46760295D01*
X33228089Y-46785421D01*
X33302504Y-46855225D01*
X33306237Y-46854907D01*
X33339044Y-46821757D01*
X33625373Y-46821757D01*
X33637003Y-46836083D01*
X33745468Y-46855225D01*
X33832149Y-46818405D01*
X33846818Y-46801718D01*
X34133373Y-46801718D01*
X34159474Y-46838048D01*
X34299164Y-46840296D01*
X34521732Y-46773027D01*
X34568662Y-46743885D01*
X34579028Y-46730007D01*
X34895373Y-46730007D01*
X34897545Y-46743024D01*
X34982765Y-46759523D01*
X35200279Y-46687912D01*
X35318941Y-46564314D01*
X35371089Y-46443797D01*
X35587435Y-46443797D01*
X35616347Y-46511552D01*
X35727579Y-46469720D01*
X35892775Y-46324688D01*
X36025069Y-46103233D01*
X36136294Y-45709642D01*
X36207182Y-45173659D01*
X36236215Y-44507294D01*
X36221874Y-43722558D01*
X36221627Y-43716895D01*
X36191120Y-43132049D01*
X36156449Y-42702108D01*
X36115602Y-42412776D01*
X36066568Y-42249760D01*
X36053245Y-42238290D01*
X36298466Y-42238290D01*
X36302382Y-42325558D01*
X36304305Y-42341844D01*
X36328413Y-42602219D01*
X36355849Y-42979372D01*
X36383380Y-43425273D01*
X36407776Y-43891891D01*
X36436812Y-44507294D01*
X36461706Y-45034891D01*
X36584304Y-44612151D01*
X36626788Y-44463145D01*
X36665689Y-44295938D01*
X36681255Y-44135840D01*
X36671037Y-43948319D01*
X36632586Y-43698843D01*
X36563454Y-43352877D01*
X36461192Y-42875891D01*
X36447279Y-42811877D01*
X36375513Y-42497389D01*
X36324376Y-42300880D01*
X36298466Y-42238290D01*
X36053245Y-42238290D01*
X36007332Y-42198764D01*
X35997031Y-42222464D01*
X35979273Y-42381305D01*
X35964480Y-42664853D01*
X35953964Y-43044073D01*
X35950501Y-43357233D01*
X35949034Y-43489931D01*
X35948651Y-43554685D01*
X35927434Y-44238936D01*
X35877890Y-44901382D01*
X35804408Y-45505227D01*
X35711376Y-46013675D01*
X35603182Y-46389928D01*
X35587435Y-46443797D01*
X35371089Y-46443797D01*
X35436248Y-46293210D01*
X35543210Y-45900658D01*
X35635273Y-45411034D01*
X35707885Y-44848710D01*
X35756491Y-44238062D01*
X35776538Y-43603464D01*
X35777319Y-43357233D01*
X35771537Y-42920020D01*
X35754136Y-42625304D01*
X35723631Y-42454722D01*
X35678540Y-42389909D01*
X35633717Y-42404942D01*
X35597869Y-42520907D01*
X35578509Y-42763568D01*
X35572706Y-43154078D01*
X35572525Y-43203467D01*
X35572503Y-43209533D01*
X35511381Y-44175007D01*
X35350651Y-45156043D01*
X35103874Y-46068343D01*
X35081557Y-46135055D01*
X34986939Y-46423713D01*
X34920469Y-46636020D01*
X34895373Y-46730007D01*
X34579028Y-46730007D01*
X34707047Y-46558617D01*
X34849725Y-46243074D01*
X34989685Y-45825638D01*
X35119919Y-45334691D01*
X35233415Y-44798618D01*
X35323163Y-44245801D01*
X35382152Y-43704623D01*
X35403373Y-43203467D01*
X35402838Y-43117077D01*
X35391846Y-42822080D01*
X35369576Y-42615798D01*
X35339873Y-42538521D01*
X35238273Y-42566708D01*
X35161868Y-42666281D01*
X35108599Y-42861674D01*
X35071903Y-43177380D01*
X35062216Y-43344531D01*
X35045216Y-43637891D01*
X35043031Y-43686165D01*
X35009962Y-44186666D01*
X34955459Y-44594392D01*
X34867109Y-44979819D01*
X34732499Y-45413422D01*
X34663806Y-45611232D01*
X34525942Y-45977447D01*
X34397070Y-46284723D01*
X34298056Y-46481749D01*
X34273942Y-46521342D01*
X34173938Y-46701012D01*
X34133373Y-46801718D01*
X33846818Y-46801718D01*
X33984537Y-46645057D01*
X34155589Y-46355288D01*
X34332359Y-45977626D01*
X34501904Y-45540602D01*
X34651278Y-45072745D01*
X34767538Y-44602584D01*
X34790251Y-44485498D01*
X34848498Y-44093075D01*
X34883944Y-43701653D01*
X34896180Y-43344531D01*
X34884798Y-43055011D01*
X34849387Y-42866390D01*
X34789540Y-42811971D01*
X34772813Y-42823991D01*
X34708712Y-42962358D01*
X34707787Y-42964354D01*
X34639547Y-43234003D01*
X34576388Y-43602193D01*
X34519159Y-43964873D01*
X34252067Y-45132682D01*
X33876519Y-46198104D01*
X33853214Y-46253013D01*
X33737561Y-46530279D01*
X33656151Y-46733425D01*
X33625373Y-46821757D01*
X33339044Y-46821757D01*
X33390001Y-46770268D01*
X33510214Y-46557383D01*
X33653320Y-46247556D01*
X33805764Y-45872091D01*
X33953990Y-45462292D01*
X34084443Y-45049463D01*
X34140868Y-44840191D01*
X34235408Y-44435528D01*
X34325052Y-43995575D01*
X34400541Y-43570170D01*
X34452623Y-43209152D01*
X34472040Y-42962358D01*
X34471244Y-42950328D01*
X34409508Y-42905273D01*
X34289007Y-42945187D01*
X34269123Y-42960558D01*
X34165861Y-43040383D01*
X34096188Y-43161175D01*
X33988825Y-43682860D01*
X33846032Y-44304538D01*
X33704009Y-44849285D01*
X33568289Y-45299102D01*
X33444408Y-45635989D01*
X33337901Y-45841948D01*
X33254303Y-45898979D01*
X33212937Y-45862981D01*
X33109252Y-45689692D01*
X32978126Y-45404294D01*
X32832186Y-45039177D01*
X32684063Y-44626733D01*
X32546386Y-44199353D01*
X32431784Y-43789428D01*
X32318407Y-43401327D01*
X32190422Y-43105769D01*
X32066280Y-42970705D01*
X31948612Y-43000430D01*
X31937333Y-43027640D01*
X31675865Y-43027640D01*
X31630335Y-42960558D01*
X32421195Y-42960558D01*
X32478724Y-43278058D01*
X32508624Y-43410579D01*
X32589056Y-43705270D01*
X32700127Y-44075639D01*
X32827225Y-44471644D01*
X32924788Y-44764306D01*
X33053260Y-45136998D01*
X33146721Y-45373804D01*
X33216175Y-45490450D01*
X33272626Y-45502663D01*
X33327077Y-45426169D01*
X33390532Y-45276693D01*
X33426367Y-45177284D01*
X33519855Y-44871015D01*
X33627833Y-44473296D01*
X33737457Y-44034556D01*
X33835887Y-43605223D01*
X33910280Y-43235725D01*
X33959806Y-42960558D01*
X32421195Y-42960558D01*
X31630335Y-42960558D01*
X31601380Y-42917897D01*
X31483336Y-42877188D01*
X31457667Y-42941513D01*
X31451945Y-43132131D01*
X31269649Y-43132131D01*
X31229924Y-42905033D01*
X31188226Y-42775507D01*
X31137033Y-42718980D01*
X31068065Y-42706558D01*
X31050819Y-42714129D01*
X31015888Y-42833136D01*
X31007209Y-43103022D01*
X30786256Y-43103022D01*
X30786167Y-43102083D01*
X30746875Y-42817283D01*
X30695747Y-42614492D01*
X30643679Y-42537225D01*
X30639167Y-42538006D01*
X30603780Y-42631102D01*
X30587610Y-42856465D01*
X30400656Y-42856465D01*
X30390572Y-42656802D01*
X30364039Y-42446328D01*
X30330112Y-42367891D01*
X30322270Y-42369281D01*
X30266215Y-42467914D01*
X30220464Y-42699286D01*
X30187385Y-43031128D01*
X30169345Y-43431171D01*
X30168711Y-43867148D01*
X30027040Y-43867148D01*
X30027040Y-43679807D01*
X30026603Y-43275464D01*
X30025066Y-42853379D01*
X30022621Y-42519982D01*
X30019474Y-42302155D01*
X30015832Y-42226778D01*
X30015067Y-42228913D01*
X29997798Y-42332581D01*
X29963634Y-42567836D01*
X29917137Y-42902543D01*
X29862866Y-43304570D01*
X29813586Y-43682354D01*
X29776018Y-44017798D01*
X29762989Y-44255021D01*
X29044365Y-44255021D01*
X28940597Y-44067532D01*
X28843568Y-43946903D01*
X28597613Y-43706746D01*
X28563227Y-43677845D01*
X29441196Y-43677845D01*
X29470411Y-43877167D01*
X29484484Y-43901015D01*
X29537868Y-43955314D01*
X29583126Y-43915822D01*
X29626079Y-43763825D01*
X29672544Y-43480604D01*
X29728338Y-43047446D01*
X29765677Y-42723187D01*
X29804899Y-42292311D01*
X29812138Y-42021527D01*
X29787405Y-41906916D01*
X29730706Y-41944558D01*
X29716570Y-41971502D01*
X29667724Y-42162386D01*
X29647336Y-42413603D01*
X29637634Y-42576323D01*
X29590787Y-42908378D01*
X29518438Y-43245545D01*
X29495653Y-43337361D01*
X29441196Y-43677845D01*
X28563227Y-43677845D01*
X28265109Y-43427280D01*
X28002019Y-43229889D01*
X29107361Y-43229889D01*
X29124453Y-43370546D01*
X29172937Y-43453347D01*
X29207312Y-43481714D01*
X29266201Y-43470696D01*
X29318238Y-43342769D01*
X29377135Y-43072347D01*
X29438075Y-42727472D01*
X29514540Y-42146822D01*
X29541692Y-41666404D01*
X29518833Y-41306589D01*
X29445264Y-41087746D01*
X29375846Y-40993490D01*
X29328301Y-40968651D01*
X29310017Y-41067111D01*
X29306774Y-41311886D01*
X29304547Y-41404042D01*
X29304448Y-41405448D01*
X29281722Y-41728656D01*
X29239520Y-42128385D01*
X29184526Y-42537225D01*
X29169050Y-42640959D01*
X29122086Y-42997864D01*
X29107361Y-43229889D01*
X28002019Y-43229889D01*
X27880740Y-43138896D01*
X27578710Y-42915940D01*
X27556225Y-42898031D01*
X28617658Y-42898031D01*
X28649341Y-43009878D01*
X28722530Y-43094638D01*
X28761506Y-43128164D01*
X28835674Y-43166478D01*
X28891857Y-43128246D01*
X28939788Y-42990596D01*
X28989202Y-42730657D01*
X29049832Y-42325558D01*
X29095425Y-41955467D01*
X29133115Y-41405448D01*
X29127201Y-40937847D01*
X29078540Y-40579954D01*
X28987991Y-40359058D01*
X28977659Y-40345800D01*
X28912467Y-40273084D01*
X28870572Y-40273215D01*
X28844895Y-40370297D01*
X28834307Y-40509928D01*
X28828354Y-40588433D01*
X28813867Y-40951725D01*
X28810380Y-41036826D01*
X28780217Y-41494809D01*
X28734336Y-41961396D01*
X28681192Y-42347622D01*
X28669168Y-42418749D01*
X28625071Y-42715516D01*
X28617658Y-42898031D01*
X27556225Y-42898031D01*
X27215776Y-42626872D01*
X26903589Y-42356094D01*
X26687285Y-42141332D01*
X26517586Y-41929464D01*
X26155191Y-41340029D01*
X25815433Y-40592165D01*
X25723259Y-40327970D01*
X26480036Y-40327970D01*
X26508584Y-40736076D01*
X26519757Y-40794159D01*
X26589456Y-41074325D01*
X26652778Y-41186770D01*
X26707891Y-41132847D01*
X26752962Y-40913907D01*
X26755994Y-40878961D01*
X26936706Y-40878961D01*
X26945896Y-41232027D01*
X26986245Y-41552941D01*
X27061014Y-41737876D01*
X27071560Y-41751651D01*
X27133087Y-41813198D01*
X27167709Y-41781058D01*
X27183370Y-41630024D01*
X27186677Y-41419874D01*
X27362268Y-41419874D01*
X27372361Y-41769071D01*
X27405547Y-42037492D01*
X27461640Y-42181625D01*
X27485935Y-42205067D01*
X27610831Y-42278140D01*
X27665208Y-42198774D01*
X27650152Y-41965725D01*
X27636209Y-41708557D01*
X27639333Y-41626244D01*
X27811770Y-41626244D01*
X27827732Y-42044249D01*
X27874899Y-42326388D01*
X27946558Y-42522771D01*
X28024583Y-42565163D01*
X28097681Y-42449201D01*
X28111187Y-42383024D01*
X28320379Y-42383024D01*
X28322258Y-42673576D01*
X28355384Y-42804436D01*
X28389039Y-42810153D01*
X28444465Y-42702441D01*
X28495916Y-42472077D01*
X28541566Y-42148475D01*
X28579590Y-41761046D01*
X28608164Y-41339204D01*
X28625461Y-40912360D01*
X28629656Y-40509928D01*
X28619860Y-40191770D01*
X29900040Y-40191770D01*
X29918512Y-40347662D01*
X29972824Y-40616273D01*
X30049331Y-40934654D01*
X30134196Y-41248848D01*
X30213586Y-41504899D01*
X30273663Y-41648849D01*
X30289751Y-41666404D01*
X30312923Y-41691689D01*
X30495482Y-41821453D01*
X30773843Y-41977317D01*
X30867160Y-42021527D01*
X31105298Y-42134348D01*
X31823089Y-42446099D01*
X33073594Y-42436811D01*
X34324098Y-42427524D01*
X35054236Y-42070646D01*
X35225475Y-41984516D01*
X35435962Y-41869880D01*
X36512721Y-41869880D01*
X36524194Y-42062660D01*
X36566578Y-42386471D01*
X36641330Y-42833558D01*
X36728376Y-43285776D01*
X36800158Y-43584443D01*
X36860555Y-43737564D01*
X36914040Y-43756458D01*
X36965089Y-43652440D01*
X36989155Y-43526658D01*
X36970307Y-43384863D01*
X36944399Y-43316610D01*
X36884135Y-43107153D01*
X36804818Y-42799235D01*
X36716756Y-42431606D01*
X36649219Y-42155288D01*
X36576689Y-41908438D01*
X36530705Y-41815887D01*
X36512721Y-41869880D01*
X35435962Y-41869880D01*
X35541575Y-41812361D01*
X35788983Y-41660435D01*
X35925123Y-41553996D01*
X35994457Y-41432748D01*
X36086389Y-41168229D01*
X36091184Y-41148714D01*
X36763559Y-41148714D01*
X36769774Y-41510181D01*
X36808951Y-41922157D01*
X36879670Y-42341189D01*
X36964787Y-42726621D01*
X37044132Y-43026222D01*
X37111713Y-43192871D01*
X37175263Y-43244882D01*
X37242515Y-43200570D01*
X37281885Y-43116396D01*
X37281153Y-42928200D01*
X37215728Y-42621627D01*
X37202810Y-42570053D01*
X37131149Y-42234406D01*
X37057393Y-41823344D01*
X36995632Y-41414161D01*
X36975195Y-41270763D01*
X36921357Y-40974955D01*
X36873689Y-40814296D01*
X37116741Y-40814296D01*
X37149032Y-41272822D01*
X37216184Y-41777067D01*
X37316423Y-42293231D01*
X37339018Y-42390559D01*
X37419804Y-42685911D01*
X37493209Y-42835768D01*
X37572434Y-42857894D01*
X37670676Y-42770058D01*
X37673051Y-42767008D01*
X37703483Y-42628888D01*
X37679675Y-42359448D01*
X37600423Y-41944558D01*
X37594509Y-41917166D01*
X37509623Y-41469293D01*
X37434898Y-40985498D01*
X37385904Y-40565852D01*
X37367310Y-40360401D01*
X37339143Y-40121036D01*
X37308305Y-40012241D01*
X37265340Y-40009653D01*
X37200793Y-40088911D01*
X37163834Y-40169600D01*
X37161932Y-40181421D01*
X37121084Y-40435288D01*
X37116741Y-40814296D01*
X36873689Y-40814296D01*
X36870556Y-40803736D01*
X36828593Y-40779161D01*
X36791728Y-40881205D01*
X36763559Y-41148714D01*
X36091184Y-41148714D01*
X36168468Y-40834166D01*
X36227437Y-40486562D01*
X36250040Y-40181421D01*
X36241213Y-40079854D01*
X36197786Y-40065588D01*
X36095066Y-40155148D01*
X35908362Y-40361550D01*
X35649129Y-40616976D01*
X35141176Y-40954058D01*
X34581364Y-41153299D01*
X33999868Y-41205693D01*
X33426862Y-41102233D01*
X33245838Y-41052869D01*
X33030992Y-41050767D01*
X32773395Y-41132471D01*
X32514965Y-41209356D01*
X32031032Y-41261403D01*
X31535855Y-41224739D01*
X31108071Y-41100857D01*
X30902952Y-40986059D01*
X30605779Y-40776980D01*
X30324904Y-40540797D01*
X30310103Y-40526981D01*
X30102948Y-40340359D01*
X29955932Y-40220136D01*
X29900040Y-40191770D01*
X28619860Y-40191770D01*
X28618923Y-40161320D01*
X28591437Y-39895948D01*
X28558141Y-39785558D01*
X29222706Y-39785558D01*
X29265040Y-39827891D01*
X29307373Y-39785558D01*
X29265040Y-39743225D01*
X29222706Y-39785558D01*
X28558141Y-39785558D01*
X28545373Y-39743225D01*
X28539349Y-39734586D01*
X28495895Y-39737282D01*
X28470646Y-39890938D01*
X28462003Y-40204408D01*
X28461192Y-40243699D01*
X28457717Y-40412090D01*
X28438114Y-40824791D01*
X28406355Y-41295308D01*
X28366537Y-41757004D01*
X28349677Y-41939502D01*
X28320379Y-42383024D01*
X28111187Y-42383024D01*
X28154556Y-42170521D01*
X28166744Y-42067781D01*
X28208242Y-41632841D01*
X28240440Y-41161007D01*
X28262399Y-40686539D01*
X28273181Y-40243699D01*
X28271849Y-39866749D01*
X28257465Y-39589949D01*
X28229090Y-39447562D01*
X28202508Y-39406193D01*
X28152673Y-39390666D01*
X28104063Y-39498015D01*
X28043029Y-39750458D01*
X28013869Y-39890467D01*
X27909439Y-40500336D01*
X27840540Y-41095267D01*
X27811770Y-41626244D01*
X27639333Y-41626244D01*
X27650598Y-41329425D01*
X27688859Y-40880163D01*
X27745964Y-40409117D01*
X27816889Y-39964634D01*
X27896607Y-39595058D01*
X27938521Y-39413626D01*
X27965509Y-39224080D01*
X27950730Y-39150558D01*
X27936360Y-39155283D01*
X27854776Y-39263584D01*
X27749350Y-39483927D01*
X27636482Y-39774947D01*
X27532569Y-40095279D01*
X27454010Y-40403559D01*
X27412108Y-40653209D01*
X27375455Y-41033416D01*
X27362268Y-41419874D01*
X27186677Y-41419874D01*
X27188014Y-41334892D01*
X27194681Y-41085273D01*
X27313117Y-40221956D01*
X27583170Y-39414209D01*
X27688589Y-39165598D01*
X27733018Y-39011408D01*
X27713952Y-38921196D01*
X27635640Y-38849213D01*
X27584588Y-38814746D01*
X27479113Y-38799631D01*
X27382668Y-38924229D01*
X27250325Y-39204242D01*
X27085821Y-39723679D01*
X26976417Y-40303238D01*
X26936706Y-40878961D01*
X26755994Y-40878961D01*
X26786160Y-40531301D01*
X26812206Y-40210721D01*
X26902383Y-39691369D01*
X27061518Y-39205249D01*
X27082184Y-39153494D01*
X27189953Y-38867406D01*
X27235830Y-38689674D01*
X27225795Y-38579661D01*
X27165832Y-38496731D01*
X27065181Y-38422148D01*
X26951740Y-38436307D01*
X26843695Y-38589388D01*
X26725360Y-38895595D01*
X26613384Y-39295953D01*
X26517351Y-39827716D01*
X26480036Y-40327970D01*
X25723259Y-40327970D01*
X25506492Y-39706656D01*
X26108796Y-39706656D01*
X26143404Y-39976058D01*
X26197205Y-40116297D01*
X26267361Y-40159041D01*
X26322015Y-40056432D01*
X26344040Y-39821653D01*
X26344262Y-39805216D01*
X26376407Y-39543037D01*
X26452420Y-39198673D01*
X26557077Y-38842119D01*
X26604197Y-38698664D01*
X26694602Y-38378076D01*
X26706891Y-38266344D01*
X27856261Y-38266344D01*
X28273380Y-38689674D01*
X28547374Y-38967747D01*
X28590542Y-39011408D01*
X28733223Y-39155717D01*
X28802538Y-39224080D01*
X28965186Y-39384494D01*
X29107809Y-39510304D01*
X29178865Y-39545023D01*
X29196125Y-39500526D01*
X29177362Y-39388687D01*
X29141421Y-39261016D01*
X29057114Y-39004362D01*
X28939885Y-38667501D01*
X28802383Y-38284740D01*
X28657259Y-37890385D01*
X28517160Y-37518742D01*
X28394738Y-37204117D01*
X28302641Y-36980817D01*
X28253518Y-36883147D01*
X28252925Y-36882588D01*
X28209793Y-36928266D01*
X28160421Y-37087401D01*
X28131624Y-37209476D01*
X28061586Y-37489566D01*
X27981078Y-37798284D01*
X27879441Y-38179418D01*
X27856261Y-38266344D01*
X26706891Y-38266344D01*
X26716451Y-38179418D01*
X26669651Y-38078189D01*
X26558820Y-38051044D01*
X27523413Y-38051044D01*
X27573422Y-38135982D01*
X27618439Y-38151063D01*
X27684485Y-38082602D01*
X27761763Y-37889483D01*
X27860499Y-37550864D01*
X27968577Y-37110107D01*
X28036125Y-36690718D01*
X28036782Y-36365667D01*
X27973065Y-36102558D01*
X27929758Y-36012894D01*
X27894716Y-36019975D01*
X27863222Y-36155002D01*
X27826367Y-36438367D01*
X27792314Y-36678279D01*
X27709949Y-37119170D01*
X27615181Y-37517110D01*
X27583911Y-37632847D01*
X27526051Y-37896057D01*
X27523413Y-38051044D01*
X26558820Y-38051044D01*
X26554112Y-38049891D01*
X26548647Y-38050109D01*
X26439875Y-38135789D01*
X26334190Y-38349684D01*
X26239915Y-38652756D01*
X26165376Y-39005967D01*
X26118895Y-39370279D01*
X26108796Y-39706656D01*
X25506492Y-39706656D01*
X25501639Y-39692745D01*
X25422403Y-39450941D01*
X25280081Y-39071843D01*
X25139644Y-38754508D01*
X25059600Y-38614720D01*
X25779429Y-38614720D01*
X25818247Y-38843863D01*
X25827111Y-38870970D01*
X25884831Y-39025536D01*
X25914249Y-39065891D01*
X25915515Y-39061431D01*
X25952516Y-38947916D01*
X26027886Y-38723312D01*
X26127120Y-38430891D01*
X26230168Y-38095491D01*
X26271078Y-37858178D01*
X26254088Y-37785760D01*
X27178922Y-37785760D01*
X27218191Y-37858178D01*
X27228105Y-37876462D01*
X27251326Y-37889169D01*
X27317162Y-37846180D01*
X27389866Y-37672113D01*
X27478090Y-37348708D01*
X27553890Y-37003992D01*
X27642810Y-36435325D01*
X27680808Y-35915783D01*
X27666491Y-35499657D01*
X28693963Y-35499657D01*
X28738748Y-35727784D01*
X28751698Y-35768397D01*
X28810588Y-35915783D01*
X28822540Y-35945696D01*
X28877079Y-36017476D01*
X28899279Y-36000702D01*
X28970741Y-35856897D01*
X29066980Y-35589871D01*
X29180311Y-35228678D01*
X29303047Y-34802374D01*
X29427501Y-34340011D01*
X29545987Y-33870645D01*
X29650819Y-33423329D01*
X29734310Y-33027117D01*
X29788773Y-32711064D01*
X29806523Y-32504225D01*
X29805396Y-32468613D01*
X29791552Y-32376963D01*
X29760904Y-32421986D01*
X29709650Y-32613781D01*
X29633987Y-32962444D01*
X29571158Y-33239092D01*
X29363598Y-33945892D01*
X29106176Y-34605262D01*
X28821455Y-35156284D01*
X28739577Y-35305638D01*
X28693963Y-35499657D01*
X27666491Y-35499657D01*
X27665889Y-35482154D01*
X27596060Y-35171225D01*
X27558361Y-35082297D01*
X27516123Y-35008185D01*
X27486368Y-35023660D01*
X27463451Y-35148585D01*
X27441726Y-35402819D01*
X27415547Y-35806225D01*
X27395863Y-36073609D01*
X27350879Y-36530968D01*
X27297163Y-36950017D01*
X27242479Y-37265312D01*
X27231087Y-37318428D01*
X27179630Y-37611905D01*
X27178922Y-37785760D01*
X26254088Y-37785760D01*
X26241567Y-37732391D01*
X26149086Y-37647739D01*
X26057712Y-37658906D01*
X25970500Y-37805374D01*
X25871589Y-38103030D01*
X25811299Y-38337180D01*
X25779429Y-38614720D01*
X25059600Y-38614720D01*
X25022394Y-38549745D01*
X24925184Y-38412291D01*
X24745972Y-38107675D01*
X25466962Y-38107675D01*
X25493505Y-38293504D01*
X25504794Y-38313298D01*
X25567086Y-38384206D01*
X25611023Y-38303891D01*
X25637904Y-38221736D01*
X25710826Y-38003851D01*
X25802830Y-37732238D01*
X25872947Y-37499203D01*
X26834839Y-37499203D01*
X26900232Y-37596761D01*
X26969191Y-37545145D01*
X27040013Y-37346186D01*
X27107203Y-37020919D01*
X27167115Y-36591129D01*
X27216100Y-36078597D01*
X27250509Y-35505107D01*
X27255367Y-35390437D01*
X27269131Y-34965249D01*
X27268605Y-34878570D01*
X28513114Y-34878570D01*
X28522359Y-34965249D01*
X28532528Y-35060597D01*
X28579484Y-35100533D01*
X28651328Y-35049126D01*
X28757702Y-34878332D01*
X28913152Y-34569381D01*
X29108989Y-34111408D01*
X29288668Y-33577785D01*
X29426588Y-33041285D01*
X29517245Y-32533387D01*
X29555132Y-32085568D01*
X29534747Y-31729305D01*
X29450584Y-31496076D01*
X29403946Y-31450500D01*
X29361862Y-31474993D01*
X29324004Y-31600641D01*
X29283901Y-31849943D01*
X29235081Y-32245396D01*
X29193610Y-32560465D01*
X29046456Y-33342098D01*
X28850994Y-34035820D01*
X28617595Y-34602049D01*
X28616618Y-34603970D01*
X28513114Y-34878570D01*
X27268605Y-34878570D01*
X27267308Y-34664811D01*
X27246904Y-34452967D01*
X27239576Y-34425139D01*
X28284670Y-34425139D01*
X28294491Y-34578558D01*
X28353630Y-34615004D01*
X28445650Y-34527189D01*
X28552614Y-34316628D01*
X28667321Y-34007661D01*
X28782572Y-33624626D01*
X28891166Y-33191863D01*
X28985904Y-32733710D01*
X29059586Y-32274508D01*
X29105011Y-31838595D01*
X29120294Y-31602251D01*
X29130502Y-31309474D01*
X29116806Y-31124246D01*
X29074800Y-31008116D01*
X29000081Y-30922631D01*
X28940638Y-30871239D01*
X28875373Y-30843043D01*
X28857394Y-30927574D01*
X28868454Y-31110051D01*
X28871043Y-31152757D01*
X28874435Y-31514490D01*
X28829654Y-32037912D01*
X28740564Y-32618313D01*
X28615775Y-33201153D01*
X28463895Y-33731891D01*
X28462324Y-33736600D01*
X28341938Y-34137870D01*
X28284670Y-34425139D01*
X27239576Y-34425139D01*
X27204927Y-34293562D01*
X27138386Y-34150441D01*
X27076171Y-34035842D01*
X28061631Y-34035842D01*
X28074541Y-34132223D01*
X28123070Y-34109188D01*
X28206675Y-33943558D01*
X28329465Y-33597635D01*
X28461441Y-33103328D01*
X28568932Y-32566782D01*
X28646300Y-32028630D01*
X28687907Y-31529509D01*
X28688117Y-31110051D01*
X28641291Y-30810891D01*
X28640435Y-30808225D01*
X28598619Y-30700760D01*
X28573014Y-30710174D01*
X28559014Y-30853947D01*
X28552011Y-31149558D01*
X28550653Y-31223803D01*
X28446972Y-32330089D01*
X28194136Y-33407097D01*
X28144831Y-33577544D01*
X28084880Y-33843222D01*
X28061631Y-34035842D01*
X27076171Y-34035842D01*
X26980106Y-33858891D01*
X26949524Y-34798617D01*
X26923621Y-35594558D01*
X26919613Y-35715845D01*
X26900991Y-36236692D01*
X26882305Y-36697500D01*
X26864810Y-37070965D01*
X26849764Y-37329781D01*
X26838421Y-37446641D01*
X26834839Y-37499203D01*
X25872947Y-37499203D01*
X25882160Y-37468583D01*
X25901409Y-37290626D01*
X25854231Y-37187549D01*
X25819771Y-37155130D01*
X25750958Y-37122789D01*
X25693198Y-37179666D01*
X25630044Y-37351003D01*
X25545047Y-37662045D01*
X25513678Y-37791802D01*
X25466962Y-38107675D01*
X24745972Y-38107675D01*
X24636125Y-37920963D01*
X24491883Y-37613419D01*
X25117783Y-37613419D01*
X25200170Y-37845702D01*
X25267122Y-37930745D01*
X25315547Y-37949577D01*
X25325347Y-37817966D01*
X25337958Y-37717895D01*
X25399401Y-37473049D01*
X25494230Y-37190998D01*
X25516741Y-37130005D01*
X25602430Y-36809366D01*
X25584144Y-36618590D01*
X25579657Y-36610900D01*
X25520707Y-36567533D01*
X25448477Y-36645453D01*
X25343500Y-36864558D01*
X25296681Y-36976956D01*
X25193145Y-37253005D01*
X25128409Y-37464702D01*
X25117783Y-37613419D01*
X24491883Y-37613419D01*
X24374893Y-37363979D01*
X24286356Y-37117459D01*
X24859776Y-37117459D01*
X24903560Y-37287891D01*
X24969341Y-37365048D01*
X24988077Y-37298478D01*
X25013073Y-37190839D01*
X25092855Y-36968582D01*
X25208211Y-36694430D01*
X25302194Y-36456719D01*
X25378628Y-36188522D01*
X25395834Y-36006510D01*
X25380476Y-35935587D01*
X25341969Y-35907942D01*
X25269788Y-36000346D01*
X25145095Y-36229558D01*
X25063133Y-36397745D01*
X24942704Y-36685191D01*
X24872955Y-36906891D01*
X24859776Y-37117459D01*
X24286356Y-37117459D01*
X24178733Y-36817798D01*
X24173507Y-36799648D01*
X24124655Y-36540558D01*
X24661332Y-36540558D01*
X24724250Y-36529285D01*
X24845525Y-36373205D01*
X25017676Y-36073651D01*
X25137709Y-35832579D01*
X25281023Y-35462629D01*
X25312392Y-35208063D01*
X25311602Y-35201520D01*
X25290587Y-35072581D01*
X25256254Y-35049927D01*
X25187398Y-35148413D01*
X25062814Y-35382891D01*
X24983748Y-35542111D01*
X24841609Y-35859004D01*
X24740592Y-36123040D01*
X24740492Y-36123347D01*
X24664253Y-36405689D01*
X24661332Y-36540558D01*
X24124655Y-36540558D01*
X24084157Y-36325771D01*
X24045924Y-35797192D01*
X24585103Y-35797192D01*
X24601319Y-35886910D01*
X24626651Y-35903619D01*
X24670676Y-35763891D01*
X24735108Y-35601739D01*
X24865204Y-35342360D01*
X25028314Y-35055133D01*
X25141350Y-34855533D01*
X25261745Y-34603052D01*
X25328116Y-34411981D01*
X25335749Y-34305179D01*
X25279932Y-34305506D01*
X25155956Y-34435824D01*
X25065700Y-34569534D01*
X24915473Y-34837177D01*
X24770657Y-35136710D01*
X24679489Y-35367701D01*
X24603507Y-35626920D01*
X24585103Y-35797192D01*
X24045924Y-35797192D01*
X24039503Y-35708419D01*
X24039060Y-34966433D01*
X24044351Y-34862799D01*
X24585619Y-34862799D01*
X24603518Y-34964526D01*
X24629573Y-34986698D01*
X24681228Y-34852031D01*
X24727545Y-34751989D01*
X24862692Y-34527790D01*
X25037950Y-34279798D01*
X25119958Y-34164388D01*
X25270260Y-33887346D01*
X25324995Y-33667659D01*
X25321950Y-33435558D01*
X25113444Y-33689558D01*
X25063044Y-33754839D01*
X24886502Y-34024423D01*
X24730789Y-34312466D01*
X24681817Y-34426557D01*
X24603367Y-34679347D01*
X24585619Y-34862799D01*
X24044351Y-34862799D01*
X24082342Y-34118654D01*
X24085552Y-34083978D01*
X24584624Y-34083978D01*
X24590079Y-34095109D01*
X24646146Y-34071298D01*
X24725216Y-33925745D01*
X24738098Y-33896713D01*
X24886481Y-33655643D01*
X25080192Y-33429664D01*
X25114921Y-33395380D01*
X25280123Y-33161418D01*
X25325347Y-32890551D01*
X25324865Y-32844408D01*
X25315219Y-32679448D01*
X25277377Y-32658019D01*
X25188734Y-32758225D01*
X25092733Y-32905763D01*
X24951705Y-33159728D01*
X24802987Y-33455570D01*
X24801580Y-33458522D01*
X24680028Y-33737057D01*
X24602105Y-33961669D01*
X24584624Y-34083978D01*
X24085552Y-34083978D01*
X24168864Y-33183924D01*
X24169410Y-33179686D01*
X24668238Y-33179686D01*
X24673311Y-33181996D01*
X24746089Y-33123259D01*
X24860211Y-32959539D01*
X24991338Y-32734951D01*
X25115132Y-32493613D01*
X25207257Y-32279641D01*
X25243373Y-32137150D01*
X25243373Y-32083664D01*
X25738218Y-32083664D01*
X25791114Y-32294420D01*
X25793220Y-32304050D01*
X25810721Y-32470429D01*
X25828081Y-32772747D01*
X25832703Y-32890551D01*
X25844108Y-33181274D01*
X25857611Y-33666279D01*
X25857636Y-33667659D01*
X25867399Y-34198033D01*
X25869112Y-34305179D01*
X25872459Y-34514496D01*
X25887175Y-35087795D01*
X25893037Y-35208063D01*
X25908729Y-35530028D01*
X25939173Y-35867337D01*
X25961454Y-36006510D01*
X25980562Y-36125865D01*
X26034947Y-36331754D01*
X26097417Y-36508380D01*
X26187082Y-36717689D01*
X26246810Y-36809366D01*
X26252365Y-36817893D01*
X26261351Y-36820416D01*
X26304389Y-36740714D01*
X26340488Y-36526810D01*
X26368585Y-36208086D01*
X26387617Y-35813924D01*
X26396520Y-35373708D01*
X26394230Y-34916820D01*
X26379684Y-34472642D01*
X26351817Y-34070558D01*
X26328865Y-33834869D01*
X26271980Y-33344322D01*
X26216079Y-33012225D01*
X26426827Y-33012225D01*
X26491267Y-33647225D01*
X26526968Y-34141167D01*
X26548264Y-34752948D01*
X26553419Y-35373708D01*
X26553740Y-35412376D01*
X26542902Y-36058290D01*
X26515261Y-36629531D01*
X26505018Y-36878931D01*
X26519560Y-37150517D01*
X26566138Y-37289856D01*
X26567269Y-37290626D01*
X26579666Y-37299062D01*
X26633606Y-37237835D01*
X26679577Y-37020373D01*
X26716731Y-36657198D01*
X26744221Y-36158833D01*
X26761198Y-35535798D01*
X26766815Y-34798617D01*
X26765054Y-34356492D01*
X26757175Y-33974961D01*
X26739784Y-33705771D01*
X26709483Y-33518319D01*
X26662869Y-33382004D01*
X26596542Y-33266225D01*
X26426827Y-33012225D01*
X26216079Y-33012225D01*
X26210441Y-32978734D01*
X26136448Y-32706397D01*
X26042202Y-32495602D01*
X25919904Y-32314641D01*
X25738218Y-32083664D01*
X25243373Y-32083664D01*
X25243373Y-31916213D01*
X25104287Y-32114787D01*
X25049621Y-32203637D01*
X24924634Y-32451863D01*
X24804318Y-32736769D01*
X24742925Y-32905244D01*
X24681749Y-33097031D01*
X24668238Y-33179686D01*
X24169410Y-33179686D01*
X24298141Y-32181084D01*
X24310181Y-32098633D01*
X24836736Y-32098633D01*
X24895516Y-32084310D01*
X25021434Y-31915353D01*
X25044373Y-31878308D01*
X25115167Y-31663095D01*
X25087889Y-31386186D01*
X25018141Y-31064891D01*
X24961424Y-31340058D01*
X24910384Y-31591869D01*
X24855646Y-31869225D01*
X24840324Y-31956995D01*
X24836736Y-32098633D01*
X24310181Y-32098633D01*
X24543139Y-30503276D01*
X24173590Y-29854800D01*
X24109882Y-29739966D01*
X23953624Y-29428639D01*
X23844849Y-29167314D01*
X23804040Y-29003191D01*
X23796462Y-28929183D01*
X24337147Y-28929183D01*
X24385457Y-29122000D01*
X24505029Y-29376523D01*
X24670343Y-29672482D01*
X24937211Y-30076600D01*
X25288249Y-30544730D01*
X25736549Y-31094171D01*
X26226987Y-31663095D01*
X26295201Y-31742225D01*
X26356392Y-31812152D01*
X26445078Y-31916213D01*
X26688041Y-32201296D01*
X27006553Y-32590104D01*
X27278354Y-32936909D01*
X27469870Y-33200043D01*
X27500483Y-33245063D01*
X27674042Y-33489750D01*
X27808904Y-33662808D01*
X27878050Y-33729210D01*
X27946176Y-33653809D01*
X28024499Y-33441309D01*
X28106944Y-33123279D01*
X28187638Y-32731300D01*
X28260705Y-32296954D01*
X28320271Y-31851821D01*
X28360461Y-31427483D01*
X28375400Y-31055521D01*
X28376040Y-30453484D01*
X27889206Y-30191822D01*
X27871438Y-30182257D01*
X27419841Y-29923478D01*
X27081314Y-29687675D01*
X26811729Y-29439919D01*
X26566956Y-29145284D01*
X26341222Y-28828185D01*
X26135834Y-28474379D01*
X26011608Y-28142967D01*
X25944390Y-27781016D01*
X25892464Y-27342579D01*
X25792600Y-27637402D01*
X25785941Y-27656994D01*
X25720498Y-27826894D01*
X25677638Y-27852055D01*
X25633968Y-27748925D01*
X25609412Y-27587118D01*
X25630131Y-27346758D01*
X25635318Y-27274676D01*
X26095681Y-27274676D01*
X26109016Y-27562132D01*
X26156922Y-27887381D01*
X26233915Y-28203580D01*
X26334512Y-28463881D01*
X26395518Y-28579394D01*
X26497899Y-28752924D01*
X26555311Y-28821225D01*
X26563733Y-28815593D01*
X26565726Y-28707074D01*
X26528348Y-28495017D01*
X26461050Y-28225036D01*
X26373283Y-27942746D01*
X26363807Y-27914300D01*
X26289742Y-27594867D01*
X26259373Y-27281583D01*
X26258404Y-27216798D01*
X26254605Y-27191391D01*
X26434657Y-27191391D01*
X26438734Y-27328630D01*
X26463836Y-27603681D01*
X26501869Y-27755331D01*
X26542687Y-27772664D01*
X26576143Y-27644767D01*
X26592089Y-27360725D01*
X26590158Y-27285668D01*
X26767373Y-27285668D01*
X26769528Y-27360725D01*
X26780413Y-27739809D01*
X26856057Y-28297869D01*
X27000283Y-28707074D01*
X27015277Y-28749616D01*
X27276379Y-29127592D01*
X27657665Y-29464337D01*
X28177442Y-29792391D01*
X28388000Y-29912858D01*
X28745024Y-30125845D01*
X29052294Y-30319400D01*
X29246696Y-30453484D01*
X29260274Y-30462849D01*
X29568038Y-30697592D01*
X29510235Y-30457908D01*
X29474569Y-30320348D01*
X29259477Y-29697789D01*
X28962916Y-29059754D01*
X28607464Y-28442617D01*
X28215701Y-27882750D01*
X27810207Y-27416529D01*
X27413560Y-27080325D01*
X27128150Y-26896840D01*
X26933071Y-26809258D01*
X26824466Y-26839609D01*
X26777509Y-26995783D01*
X26767373Y-27285668D01*
X26590158Y-27285668D01*
X26584803Y-27077520D01*
X26556943Y-26867512D01*
X26513373Y-26789225D01*
X26485650Y-26812063D01*
X26447160Y-26957017D01*
X26434657Y-27191391D01*
X26254605Y-27191391D01*
X26230805Y-27032241D01*
X26164045Y-27007480D01*
X26122399Y-27071859D01*
X26095681Y-27274676D01*
X25635318Y-27274676D01*
X25641723Y-27185667D01*
X25559427Y-27132711D01*
X25372006Y-27193098D01*
X25069449Y-27367191D01*
X24996814Y-27414602D01*
X24770379Y-27594663D01*
X24694420Y-27695187D01*
X24613624Y-27802113D01*
X24498245Y-28084038D01*
X24480232Y-28155075D01*
X24429159Y-28356496D01*
X24406708Y-28445038D01*
X24395935Y-28487523D01*
X24350131Y-28716846D01*
X24337147Y-28929183D01*
X23796462Y-28929183D01*
X23791383Y-28879579D01*
X23716424Y-28830874D01*
X23528873Y-28855798D01*
X23351533Y-28888987D01*
X22815552Y-28955927D01*
X22344019Y-28965594D01*
X21983706Y-28916159D01*
X21902157Y-28886802D01*
X21644043Y-28752345D01*
X21330073Y-28550252D01*
X21010040Y-28311449D01*
X20864007Y-28196095D01*
X20446351Y-27896998D01*
X20021064Y-27647526D01*
X19548275Y-27428446D01*
X18988113Y-27220524D01*
X18300706Y-27004526D01*
X17381973Y-26702619D01*
X16556928Y-26357183D01*
X15849122Y-25965974D01*
X15232111Y-25512005D01*
X14679451Y-24978291D01*
X14164698Y-24347846D01*
X14016241Y-24141470D01*
X13788443Y-23809431D01*
X13563839Y-23467155D01*
X13488926Y-23347959D01*
X14124619Y-23347959D01*
X14310422Y-23642902D01*
X14721692Y-24194751D01*
X15205519Y-24744844D01*
X15487947Y-25030636D01*
X15760032Y-25284829D01*
X15981168Y-25469487D01*
X16129716Y-25566627D01*
X16184040Y-25558261D01*
X16148538Y-25424687D01*
X16037069Y-25178061D01*
X15871684Y-24868048D01*
X15675042Y-24534694D01*
X15469804Y-24218045D01*
X15278629Y-23958147D01*
X15108948Y-23756379D01*
X14958925Y-23608692D01*
X15348011Y-23608692D01*
X15372575Y-23700810D01*
X15476669Y-23877461D01*
X15670457Y-24164757D01*
X15694230Y-24199639D01*
X15917738Y-24559135D01*
X16121764Y-24936215D01*
X16264775Y-25254711D01*
X16322542Y-25399126D01*
X16410038Y-25558261D01*
X16485911Y-25696255D01*
X16660007Y-25847179D01*
X16813518Y-25913774D01*
X16897049Y-25918313D01*
X16896101Y-25817456D01*
X16828859Y-25582725D01*
X16786938Y-25452580D01*
X16603042Y-24994276D01*
X16377168Y-24556682D01*
X16128607Y-24167722D01*
X15876650Y-23855321D01*
X15825368Y-23810153D01*
X16174281Y-23810153D01*
X16234345Y-23939273D01*
X16377929Y-24183507D01*
X16445294Y-24297377D01*
X16790709Y-24976002D01*
X17045789Y-25683310D01*
X17107374Y-25859197D01*
X17146047Y-25918313D01*
X17233079Y-26051349D01*
X17427762Y-26168300D01*
X17697818Y-26277539D01*
X17571693Y-25834882D01*
X17460440Y-25494326D01*
X17255665Y-25009575D01*
X17017393Y-24565734D01*
X16764791Y-24193509D01*
X16550584Y-23960165D01*
X16861373Y-23960165D01*
X16895100Y-24020856D01*
X16999633Y-24187386D01*
X17150313Y-24419177D01*
X17186547Y-24476901D01*
X17355891Y-24798454D01*
X17528913Y-25193884D01*
X17673268Y-25590733D01*
X17726430Y-25757062D01*
X17820555Y-26050709D01*
X17886911Y-26256559D01*
X17893818Y-26277539D01*
X17913669Y-26337842D01*
X17914165Y-26338872D01*
X18001699Y-26382306D01*
X18162131Y-26411107D01*
X18316383Y-26416547D01*
X18385373Y-26389899D01*
X18385087Y-26379694D01*
X18345017Y-26190140D01*
X18249240Y-25895827D01*
X18114982Y-25540263D01*
X17959464Y-25166956D01*
X17799909Y-24819414D01*
X17653541Y-24541146D01*
X17566863Y-24396907D01*
X17399439Y-24157635D01*
X17254991Y-24027770D01*
X17102279Y-23975243D01*
X16933929Y-23956342D01*
X16861373Y-23960165D01*
X16550584Y-23960165D01*
X16525728Y-23933089D01*
X17557551Y-23933089D01*
X17564377Y-24005496D01*
X17644199Y-24159700D01*
X17805614Y-24426460D01*
X17836116Y-24477964D01*
X17982922Y-24764823D01*
X18141733Y-25123454D01*
X18295375Y-25509028D01*
X18426678Y-25876713D01*
X18518468Y-26181680D01*
X18553574Y-26379099D01*
X18555286Y-26389899D01*
X18557897Y-26406369D01*
X18677176Y-26531817D01*
X18950789Y-26654266D01*
X19089234Y-26700865D01*
X19285359Y-26764336D01*
X19374122Y-26789225D01*
X19394729Y-26729365D01*
X19342325Y-26550794D01*
X19226569Y-26279540D01*
X19060996Y-25941885D01*
X18859138Y-25564114D01*
X18634530Y-25172513D01*
X18400704Y-24793364D01*
X18171196Y-24452953D01*
X18127111Y-24392252D01*
X17931650Y-24147357D01*
X17765749Y-23975436D01*
X17705368Y-23937884D01*
X18105153Y-23937884D01*
X18106010Y-24016391D01*
X18124762Y-24045355D01*
X18228627Y-24203787D01*
X18390170Y-24448935D01*
X18583314Y-24741202D01*
X18648770Y-24842557D01*
X18891094Y-25247158D01*
X19142160Y-25701932D01*
X19356995Y-26126362D01*
X19495192Y-26410966D01*
X19639728Y-26676545D01*
X19678496Y-26729365D01*
X19765513Y-26847923D01*
X19899648Y-26960184D01*
X20069232Y-27048411D01*
X20176306Y-27093470D01*
X20349157Y-27149643D01*
X20417373Y-27145111D01*
X20409947Y-27125359D01*
X20335458Y-26984708D01*
X20191114Y-26730001D01*
X19989506Y-26382998D01*
X19743229Y-25965459D01*
X19464873Y-25499145D01*
X19342811Y-25296069D01*
X19055175Y-24821868D01*
X18834883Y-24469561D01*
X18668557Y-24221291D01*
X18542818Y-24059202D01*
X18444286Y-23965438D01*
X18359584Y-23922140D01*
X18275333Y-23911453D01*
X18251105Y-23911584D01*
X18105153Y-23937884D01*
X17705368Y-23937884D01*
X17661429Y-23910558D01*
X17615124Y-23911719D01*
X17557551Y-23933089D01*
X16525728Y-23933089D01*
X16517025Y-23923608D01*
X16441298Y-23877288D01*
X18785531Y-23877288D01*
X18790564Y-23925558D01*
X18863842Y-24094036D01*
X19000249Y-24349893D01*
X19183192Y-24660455D01*
X19195199Y-24680038D01*
X19418850Y-25048492D01*
X19692030Y-25503710D01*
X19981285Y-25989721D01*
X20253163Y-26450558D01*
X20340169Y-26598053D01*
X20561908Y-26966599D01*
X20672864Y-27145111D01*
X20753282Y-27274491D01*
X20896233Y-27493040D01*
X20972699Y-27593558D01*
X21079318Y-27679605D01*
X21280276Y-27836701D01*
X21527514Y-28027072D01*
X21723631Y-28165421D01*
X21986212Y-28321093D01*
X22219110Y-28430656D01*
X22385704Y-28477506D01*
X22449373Y-28445038D01*
X22442258Y-28430061D01*
X22355279Y-28315537D01*
X22190211Y-28118901D01*
X21973440Y-27871925D01*
X21633223Y-27475289D01*
X21121474Y-26831903D01*
X20596395Y-26125158D01*
X20095268Y-25405680D01*
X19655373Y-24724094D01*
X19403702Y-24329698D01*
X19189491Y-24036983D01*
X19023740Y-23872461D01*
X18899905Y-23825891D01*
X19318532Y-23825891D01*
X19668164Y-24397391D01*
X20279497Y-25350606D01*
X20962609Y-26320118D01*
X21647944Y-27199631D01*
X22308951Y-27953391D01*
X22426250Y-28074910D01*
X22645223Y-28271990D01*
X22822091Y-28370827D01*
X22997877Y-28397891D01*
X23006520Y-28397870D01*
X23203954Y-28385291D01*
X23309213Y-28356496D01*
X23289271Y-28315937D01*
X23171333Y-28171658D01*
X22965608Y-27943703D01*
X22690871Y-27652713D01*
X22365895Y-27319330D01*
X22163795Y-27110621D01*
X21520228Y-26385974D01*
X20938296Y-25639340D01*
X20445478Y-24907705D01*
X20069254Y-24228058D01*
X20005539Y-24100009D01*
X19891369Y-23921480D01*
X19799089Y-23861677D01*
X20093988Y-23861677D01*
X20292299Y-24253026D01*
X20588764Y-24784523D01*
X21137296Y-25601587D01*
X21796297Y-26429575D01*
X22539556Y-27233725D01*
X22564145Y-27258422D01*
X22956713Y-27645678D01*
X23254355Y-27922067D01*
X23474433Y-28101842D01*
X23634307Y-28199254D01*
X23751339Y-28228558D01*
X23900554Y-28209372D01*
X23973373Y-28155075D01*
X23970049Y-28145173D01*
X23887186Y-28037945D01*
X23709771Y-27843217D01*
X23460264Y-27584984D01*
X23161123Y-27287242D01*
X22460705Y-26555382D01*
X21645061Y-25552028D01*
X20980562Y-24537474D01*
X20943242Y-24472981D01*
X20767961Y-24187861D01*
X20672947Y-24068028D01*
X20925373Y-24068028D01*
X20926402Y-24073822D01*
X20983510Y-24186283D01*
X21115237Y-24405698D01*
X21303753Y-24703176D01*
X21531228Y-25049822D01*
X21542652Y-25066862D01*
X21741029Y-25342869D01*
X21995597Y-25670132D01*
X22288273Y-26028334D01*
X22600977Y-26397154D01*
X22915627Y-26756273D01*
X23214142Y-27085372D01*
X23478441Y-27364133D01*
X23690443Y-27572235D01*
X23832066Y-27689359D01*
X23885230Y-27695187D01*
X23869603Y-27613744D01*
X24430013Y-27613744D01*
X24523691Y-27553038D01*
X24730511Y-27379839D01*
X24810104Y-27317655D01*
X25109633Y-27134849D01*
X25422495Y-26997640D01*
X25554272Y-26949310D01*
X25787272Y-26840078D01*
X25924557Y-26742251D01*
X25966536Y-26675327D01*
X25921557Y-26630720D01*
X25735983Y-26619891D01*
X25715259Y-26620296D01*
X25404588Y-26693881D01*
X25065171Y-26868320D01*
X24757004Y-27106013D01*
X24540086Y-27369360D01*
X24525641Y-27394573D01*
X24435366Y-27561182D01*
X24430013Y-27613744D01*
X23869603Y-27613744D01*
X23865760Y-27593713D01*
X23739720Y-27359638D01*
X23632172Y-27219857D01*
X24336454Y-27219857D01*
X24411791Y-27198464D01*
X24554866Y-27040230D01*
X24608092Y-26973729D01*
X24956433Y-26693200D01*
X25415834Y-26515593D01*
X25958807Y-26452417D01*
X26085242Y-26451045D01*
X26302392Y-26437515D01*
X26384645Y-26404291D01*
X26356548Y-26344725D01*
X26285282Y-26305460D01*
X26065120Y-26258267D01*
X25765738Y-26241540D01*
X25269483Y-26311045D01*
X24827107Y-26525688D01*
X24476244Y-26881094D01*
X24439353Y-26935475D01*
X24434048Y-26943295D01*
X24340119Y-27127202D01*
X24336454Y-27219857D01*
X23632172Y-27219857D01*
X23514963Y-27067520D01*
X23212440Y-26746891D01*
X23183840Y-26718737D01*
X22797802Y-26276201D01*
X22425917Y-25747317D01*
X22108516Y-25194875D01*
X21885930Y-24681667D01*
X21883579Y-24674811D01*
X21803163Y-24478553D01*
X22026040Y-24478553D01*
X22078342Y-24707292D01*
X22220662Y-25028774D01*
X22431961Y-25408050D01*
X22691195Y-25810169D01*
X22977324Y-26200183D01*
X23269306Y-26543142D01*
X23509747Y-26786280D01*
X23672852Y-26920969D01*
X23741847Y-26935475D01*
X23709695Y-26828494D01*
X23569362Y-26598725D01*
X23498786Y-26489253D01*
X23332131Y-26196773D01*
X23266500Y-26056610D01*
X23465373Y-26056610D01*
X23472600Y-26090791D01*
X23555431Y-26246117D01*
X23701066Y-26442943D01*
X23936758Y-26725264D01*
X24039732Y-26499261D01*
X24062820Y-26448257D01*
X24129759Y-26279462D01*
X24121247Y-26209926D01*
X24036873Y-26196036D01*
X23897089Y-26161193D01*
X23698206Y-26074057D01*
X23641087Y-26045393D01*
X23504313Y-26001840D01*
X23465373Y-26056610D01*
X23266500Y-26056610D01*
X23213096Y-25942558D01*
X23111555Y-25735097D01*
X22952551Y-25478716D01*
X22759027Y-25203737D01*
X22552480Y-24936681D01*
X22354410Y-24704070D01*
X22186314Y-24532426D01*
X22069692Y-24448271D01*
X22026040Y-24478126D01*
X22026040Y-24478553D01*
X21803163Y-24478553D01*
X21766183Y-24388302D01*
X21636812Y-24217067D01*
X21457259Y-24110167D01*
X21181715Y-24017402D01*
X20994334Y-24002441D01*
X20925373Y-24068028D01*
X20672947Y-24068028D01*
X20632732Y-24017309D01*
X20507327Y-23929917D01*
X20361514Y-23894274D01*
X20093988Y-23861677D01*
X19799089Y-23861677D01*
X19770621Y-23843228D01*
X19597081Y-23825891D01*
X19318532Y-23825891D01*
X18899905Y-23825891D01*
X18893427Y-23823455D01*
X18785531Y-23877288D01*
X16441298Y-23877288D01*
X16293262Y-23786738D01*
X16280326Y-23782997D01*
X16191639Y-23767582D01*
X16174281Y-23810153D01*
X15825368Y-23810153D01*
X15640588Y-23647403D01*
X15439711Y-23571891D01*
X15392814Y-23574995D01*
X15348011Y-23608692D01*
X14958925Y-23608692D01*
X14903547Y-23554176D01*
X14707055Y-23432115D01*
X14470044Y-23353215D01*
X14267825Y-23307280D01*
X14134666Y-23299188D01*
X14124619Y-23347959D01*
X13488926Y-23347959D01*
X13361075Y-23144531D01*
X13198794Y-22871445D01*
X13117330Y-22718503D01*
X14321373Y-22718503D01*
X14373958Y-22747045D01*
X14567036Y-22810366D01*
X14876763Y-22897904D01*
X15276483Y-23002191D01*
X15739540Y-23115761D01*
X17157706Y-23453553D01*
X18385373Y-23375436D01*
X18802099Y-23354691D01*
X19605535Y-23347123D01*
X20352810Y-23382005D01*
X21007468Y-23457081D01*
X21533052Y-23570097D01*
X21675649Y-23618845D01*
X22162516Y-23881093D01*
X22661712Y-24287760D01*
X23152992Y-24823189D01*
X23442970Y-25156483D01*
X23809412Y-25485002D01*
X24180255Y-25697259D01*
X24591145Y-25817912D01*
X24656362Y-25830989D01*
X24846872Y-25898465D01*
X24894475Y-26008096D01*
X24820714Y-26195298D01*
X24815082Y-26205857D01*
X24783938Y-26279462D01*
X24775921Y-26298409D01*
X24825772Y-26302599D01*
X24995134Y-26223327D01*
X25160167Y-26147312D01*
X25426066Y-26063316D01*
X25702024Y-26039651D01*
X26024070Y-26078739D01*
X26428234Y-26183005D01*
X26950545Y-26354871D01*
X27086010Y-26404291D01*
X27169855Y-26434879D01*
X27484924Y-26576972D01*
X27633998Y-26675327D01*
X27746242Y-26749383D01*
X28004128Y-26988225D01*
X28308906Y-27329605D01*
X28351700Y-27380004D01*
X28580539Y-27655869D01*
X28774566Y-27899472D01*
X28895600Y-28063082D01*
X28916725Y-28094643D01*
X28985958Y-28183295D01*
X29028722Y-28173537D01*
X29060836Y-28042163D01*
X29098116Y-27765966D01*
X29123456Y-27435006D01*
X29128814Y-26919743D01*
X29108763Y-26325244D01*
X29065917Y-25699432D01*
X29002894Y-25090229D01*
X28922309Y-24545558D01*
X28849659Y-24188148D01*
X28669945Y-23486375D01*
X28442035Y-22746082D01*
X28187882Y-22036244D01*
X27929438Y-21425840D01*
X27656373Y-20846122D01*
X27213101Y-21195900D01*
X27455072Y-21879683D01*
X27518281Y-22065349D01*
X27781729Y-23030942D01*
X27974548Y-24088008D01*
X28086036Y-25180558D01*
X28105230Y-25480305D01*
X28133030Y-25810498D01*
X28159766Y-25978365D01*
X28169120Y-26037092D01*
X28223823Y-26199254D01*
X28307463Y-26336155D01*
X28430365Y-26486964D01*
X28577741Y-26667130D01*
X28690916Y-26836299D01*
X28682936Y-26889059D01*
X28556059Y-26822595D01*
X28312540Y-26634089D01*
X27933703Y-26344541D01*
X27487776Y-26091644D01*
X27026056Y-25943065D01*
X26492206Y-25875319D01*
X26414499Y-25870183D01*
X26120252Y-25840597D01*
X25913872Y-25803472D01*
X25836040Y-25765609D01*
X25836083Y-25763806D01*
X25916124Y-25686235D01*
X26116904Y-25618129D01*
X26390911Y-25568207D01*
X26690630Y-25545187D01*
X26968547Y-25557790D01*
X27385682Y-25613125D01*
X27330200Y-24825341D01*
X27325178Y-24759882D01*
X27256581Y-24206040D01*
X27144787Y-23613009D01*
X27002389Y-23032881D01*
X26841980Y-22517751D01*
X26676151Y-22119709D01*
X26497182Y-21768899D01*
X26171933Y-22141229D01*
X26042514Y-22296269D01*
X25840937Y-22562748D01*
X25699401Y-22780753D01*
X25687351Y-22802689D01*
X25603502Y-22982599D01*
X25608224Y-23111874D01*
X25701962Y-23276637D01*
X25710736Y-23290342D01*
X25788306Y-23464344D01*
X25780422Y-23574654D01*
X25644273Y-23635594D01*
X25384542Y-23690599D01*
X25053857Y-23732361D01*
X24702351Y-23756123D01*
X24380159Y-23757125D01*
X24137413Y-23730609D01*
X24004528Y-23699258D01*
X23818825Y-23643148D01*
X23647973Y-23564446D01*
X23464557Y-23444230D01*
X23241160Y-23263581D01*
X22950369Y-23003579D01*
X22564765Y-22645305D01*
X22495269Y-22580841D01*
X22132449Y-22260119D01*
X21777169Y-21969086D01*
X21467041Y-21737545D01*
X21239675Y-21595298D01*
X20967474Y-21470712D01*
X20452468Y-21308335D01*
X19900354Y-21234345D01*
X19284032Y-21248301D01*
X18576405Y-21349759D01*
X17750373Y-21538277D01*
X17618137Y-21573502D01*
X17212472Y-21689728D01*
X16754029Y-21830255D01*
X16269645Y-21985846D01*
X15786155Y-22147266D01*
X15330396Y-22305277D01*
X14929202Y-22450643D01*
X14609410Y-22574127D01*
X14397855Y-22666493D01*
X14321373Y-22718503D01*
X13117330Y-22718503D01*
X13095643Y-22677787D01*
X13070265Y-22593444D01*
X13070994Y-22592859D01*
X13163420Y-22553043D01*
X13388392Y-22464831D01*
X13720887Y-22337788D01*
X14135881Y-22181480D01*
X14608352Y-22005472D01*
X15371842Y-21728466D01*
X16409282Y-21376922D01*
X17323288Y-21102693D01*
X18128908Y-20903299D01*
X18841188Y-20776259D01*
X19475177Y-20719090D01*
X20045923Y-20729313D01*
X20568472Y-20804445D01*
X21057873Y-20942006D01*
X21351468Y-21060783D01*
X21707776Y-21253488D01*
X22085735Y-21516659D01*
X22513836Y-21870522D01*
X23020570Y-22335303D01*
X23311002Y-22605120D01*
X23591501Y-22854540D01*
X23813926Y-23040540D01*
X23946640Y-23135777D01*
X24048407Y-23171759D01*
X24303091Y-23215963D01*
X24602807Y-23233225D01*
X24780590Y-23231123D01*
X24970349Y-23211808D01*
X25054800Y-23160037D01*
X25074040Y-23061172D01*
X25133940Y-22765700D01*
X25329979Y-22377919D01*
X25650350Y-21939869D01*
X25887558Y-21681117D01*
X26679594Y-21681117D01*
X26882201Y-22139671D01*
X26893273Y-22164978D01*
X27106009Y-22751478D01*
X27289511Y-23442224D01*
X27429710Y-24175795D01*
X27512531Y-24890773D01*
X27536793Y-25198518D01*
X27569837Y-25479645D01*
X27613606Y-25656500D01*
X27678174Y-25765889D01*
X27773617Y-25844620D01*
X27975528Y-25978365D01*
X27915625Y-25134961D01*
X27906969Y-25021285D01*
X27778960Y-23980719D01*
X27570138Y-22939827D01*
X27296442Y-21979827D01*
X27059466Y-21276763D01*
X26679594Y-21681117D01*
X25887558Y-21681117D01*
X26082666Y-21468289D01*
X26614537Y-20979917D01*
X26876573Y-20775858D01*
X27906511Y-20775858D01*
X27923306Y-20898239D01*
X27990811Y-21097876D01*
X28113499Y-21401258D01*
X28295841Y-21834873D01*
X28758720Y-23133815D01*
X29089927Y-24543558D01*
X29264697Y-25994262D01*
X29274094Y-26919743D01*
X29279646Y-27466558D01*
X29269057Y-27725491D01*
X29259083Y-28163591D01*
X29267116Y-28473066D01*
X29294417Y-28681055D01*
X29342245Y-28814699D01*
X29409195Y-28927822D01*
X29462672Y-28959586D01*
X29506242Y-28857032D01*
X29564417Y-28624735D01*
X29639524Y-28205894D01*
X29707760Y-27703445D01*
X29763504Y-27166094D01*
X29801136Y-26642549D01*
X29815033Y-26181518D01*
X29804647Y-25674410D01*
X29665600Y-24282431D01*
X29367093Y-22930060D01*
X28912424Y-21633916D01*
X28910686Y-21629790D01*
X28717422Y-21181724D01*
X28568197Y-20871936D01*
X28446954Y-20680599D01*
X28337638Y-20587886D01*
X28224192Y-20573968D01*
X28090559Y-20619018D01*
X28007162Y-20656913D01*
X27935954Y-20704246D01*
X27906511Y-20775858D01*
X26876573Y-20775858D01*
X27014318Y-20668590D01*
X27448565Y-20406499D01*
X28559940Y-20406499D01*
X28596912Y-20513472D01*
X28691346Y-20724661D01*
X28826463Y-21002047D01*
X29100364Y-21613713D01*
X29369794Y-22345341D01*
X29602296Y-23109198D01*
X29774592Y-23835717D01*
X29777846Y-23852395D01*
X29893312Y-24640995D01*
X29955912Y-25508379D01*
X29963799Y-26181518D01*
X29966433Y-26406367D01*
X29925663Y-27286781D01*
X29834389Y-28101442D01*
X29693399Y-28802172D01*
X29641973Y-29022043D01*
X29626323Y-29227717D01*
X29664433Y-29444310D01*
X29761575Y-29744687D01*
X29855823Y-29995520D01*
X29941078Y-30187212D01*
X29992490Y-30260558D01*
X29996194Y-30259582D01*
X30049808Y-30166860D01*
X30132067Y-29946572D01*
X30233126Y-29632144D01*
X30343139Y-29257003D01*
X30452259Y-28854574D01*
X30550641Y-28458284D01*
X30628439Y-28101558D01*
X30701823Y-27608562D01*
X30754347Y-26909822D01*
X30768466Y-26146903D01*
X30744749Y-25374658D01*
X30683765Y-24647941D01*
X30586083Y-24021606D01*
X30458079Y-23468096D01*
X30046864Y-22158223D01*
X29505213Y-20932322D01*
X29127368Y-20197753D01*
X28857537Y-20288725D01*
X28835627Y-20296151D01*
X28651303Y-20362147D01*
X28561106Y-20400783D01*
X28559940Y-20406499D01*
X27448565Y-20406499D01*
X27880935Y-20145541D01*
X27898461Y-20138012D01*
X29331639Y-20138012D01*
X29340533Y-20167865D01*
X29409090Y-20317878D01*
X29530812Y-20564684D01*
X29689670Y-20875272D01*
X30227684Y-22084038D01*
X30624298Y-23384444D01*
X30861737Y-24741636D01*
X30939269Y-26146903D01*
X30939673Y-26154225D01*
X30915528Y-27007773D01*
X30817838Y-27962865D01*
X30635284Y-28882527D01*
X30357365Y-29833115D01*
X30346246Y-29866540D01*
X30219779Y-30259219D01*
X30143845Y-30538786D01*
X30119383Y-30697592D01*
X30111587Y-30748204D01*
X30116151Y-30930438D01*
X30150682Y-31128449D01*
X30168973Y-31232006D01*
X30177479Y-31309474D01*
X30204702Y-31557391D01*
X30229453Y-31959579D01*
X30232262Y-32085568D01*
X30238706Y-32374621D01*
X30236851Y-32504225D01*
X30233974Y-32705159D01*
X30210188Y-33051545D01*
X30157856Y-33387373D01*
X30067670Y-33769376D01*
X29930323Y-34254287D01*
X29804895Y-34695650D01*
X29707317Y-35102415D01*
X29644733Y-35480554D01*
X29606507Y-35896044D01*
X29584326Y-36365667D01*
X29582002Y-36414861D01*
X29573787Y-36757866D01*
X29593967Y-37498647D01*
X29676803Y-38138011D01*
X29829307Y-38718142D01*
X30058491Y-39281221D01*
X30189550Y-39500526D01*
X30295233Y-39677368D01*
X30385576Y-39785558D01*
X30632171Y-40080866D01*
X31010462Y-40417007D01*
X31384100Y-40638681D01*
X31720919Y-40734464D01*
X32215290Y-40730783D01*
X32708446Y-40565947D01*
X32901612Y-40471701D01*
X33068359Y-40419394D01*
X33217037Y-40437493D01*
X33421295Y-40521394D01*
X33753561Y-40631860D01*
X34250300Y-40662604D01*
X34734068Y-40543452D01*
X35187103Y-40285531D01*
X35591644Y-39899968D01*
X35712093Y-39721199D01*
X37533451Y-39721199D01*
X37535358Y-40036092D01*
X37558916Y-40428293D01*
X37601877Y-40864216D01*
X37661992Y-41310277D01*
X37737013Y-41732891D01*
X37756560Y-41826100D01*
X37829130Y-42136394D01*
X37895101Y-42369626D01*
X37942216Y-42481102D01*
X38011243Y-42522978D01*
X38055298Y-42441441D01*
X38047642Y-42216164D01*
X37987544Y-41857253D01*
X37941207Y-41609671D01*
X37871511Y-41164710D01*
X37821776Y-40759225D01*
X37776777Y-40309391D01*
X37733608Y-39923891D01*
X37696720Y-39667488D01*
X37662218Y-39518816D01*
X37626208Y-39456508D01*
X37584795Y-39459197D01*
X37555443Y-39517197D01*
X37553895Y-39531558D01*
X37533451Y-39721199D01*
X35712093Y-39721199D01*
X35839868Y-39531558D01*
X36842706Y-39531558D01*
X36885040Y-39573891D01*
X36927373Y-39531558D01*
X36885040Y-39489225D01*
X36842706Y-39531558D01*
X35839868Y-39531558D01*
X35929927Y-39397894D01*
X35939596Y-39374793D01*
X37874992Y-39374793D01*
X37891478Y-39730933D01*
X37932514Y-40195638D01*
X37996742Y-40749487D01*
X38082801Y-41373058D01*
X38088604Y-41412112D01*
X38154630Y-41825350D01*
X38210674Y-42092646D01*
X38264339Y-42234791D01*
X38323223Y-42272572D01*
X38394929Y-42226780D01*
X38407494Y-42210623D01*
X38450617Y-42043043D01*
X38460627Y-41757898D01*
X38442296Y-41387033D01*
X38400396Y-40962295D01*
X38339700Y-40515529D01*
X38264978Y-40078582D01*
X38181004Y-39683298D01*
X38092549Y-39361525D01*
X38004385Y-39145107D01*
X37921284Y-39065891D01*
X37921110Y-39065892D01*
X37884416Y-39146639D01*
X37874992Y-39374793D01*
X35939596Y-39374793D01*
X36018514Y-39186252D01*
X36960709Y-39186252D01*
X36961014Y-39336188D01*
X37019656Y-39334284D01*
X37136852Y-39183286D01*
X37145334Y-39170555D01*
X37291559Y-38979977D01*
X37412499Y-38838369D01*
X38129800Y-38838369D01*
X38155475Y-38938891D01*
X38160359Y-38953871D01*
X38213178Y-39135415D01*
X38290128Y-39418606D01*
X38376350Y-39748953D01*
X38391480Y-39810286D01*
X38477153Y-40232487D01*
X38552134Y-40714781D01*
X38601662Y-41164434D01*
X38616432Y-41342717D01*
X38648308Y-41642697D01*
X38672086Y-41757898D01*
X38683111Y-41811309D01*
X38727976Y-41874896D01*
X38790040Y-41859799D01*
X38850033Y-41783907D01*
X38900574Y-41555937D01*
X38903937Y-41224434D01*
X38866200Y-40823448D01*
X38793442Y-40387027D01*
X38691742Y-39949221D01*
X38567177Y-39544078D01*
X38425828Y-39205648D01*
X38273772Y-38967979D01*
X38174040Y-38859693D01*
X38129800Y-38838369D01*
X37412499Y-38838369D01*
X37509048Y-38725321D01*
X37566923Y-38662174D01*
X38400710Y-38662174D01*
X38444153Y-38819031D01*
X38559764Y-39078916D01*
X38702224Y-39407148D01*
X38880165Y-39908800D01*
X39002312Y-40375894D01*
X39052479Y-40753425D01*
X39068223Y-40980040D01*
X39111432Y-41224098D01*
X39111566Y-41224434D01*
X39170504Y-41371832D01*
X39234933Y-41386776D01*
X39272273Y-41288329D01*
X39295084Y-41052640D01*
X39294721Y-40732332D01*
X39272899Y-40372761D01*
X39231335Y-40019284D01*
X39171745Y-39717257D01*
X39119395Y-39538135D01*
X38979000Y-39146396D01*
X38826030Y-38799374D01*
X38726617Y-38609764D01*
X38631616Y-38467943D01*
X38557649Y-38438242D01*
X38476658Y-38496321D01*
X38422757Y-38561516D01*
X38400710Y-38662174D01*
X37566923Y-38662174D01*
X37754026Y-38458026D01*
X37948016Y-38254234D01*
X38735077Y-38254234D01*
X38930934Y-38596563D01*
X38981602Y-38690033D01*
X39136306Y-39019942D01*
X39264076Y-39348656D01*
X39333148Y-39604312D01*
X39406430Y-39982806D01*
X39455535Y-40361217D01*
X39468742Y-40505162D01*
X39495964Y-40748175D01*
X39523324Y-40852487D01*
X39560092Y-40839505D01*
X39615540Y-40730634D01*
X39698084Y-40415505D01*
X39709968Y-39963914D01*
X39643782Y-39439666D01*
X39504536Y-38880637D01*
X39297242Y-38324701D01*
X39213141Y-38140023D01*
X39136516Y-38024621D01*
X39056851Y-38020739D01*
X38934150Y-38104073D01*
X38735077Y-38254234D01*
X37948016Y-38254234D01*
X38211763Y-37977161D01*
X38167969Y-37842684D01*
X39275916Y-37842684D01*
X39316954Y-37977161D01*
X39318614Y-37982599D01*
X39434552Y-38222336D01*
X39553561Y-38497601D01*
X39687351Y-38875390D01*
X39797023Y-39252655D01*
X39952182Y-39870225D01*
X40015888Y-39466968D01*
X40020037Y-39439371D01*
X40030049Y-38994545D01*
X39932509Y-38500142D01*
X39720818Y-37921595D01*
X39633725Y-37725328D01*
X39556838Y-37601256D01*
X39485607Y-37589232D01*
X39387755Y-37664322D01*
X39379959Y-37672299D01*
X39302203Y-37751857D01*
X39275916Y-37842684D01*
X38167969Y-37842684D01*
X37973910Y-37246798D01*
X37736058Y-36516435D01*
X37498579Y-37219663D01*
X37489868Y-37245562D01*
X37441968Y-37395400D01*
X37348912Y-37686496D01*
X37205771Y-38167150D01*
X37090156Y-38587981D01*
X37018526Y-38881734D01*
X36960709Y-39186252D01*
X36018514Y-39186252D01*
X36184191Y-38790434D01*
X36235508Y-38619486D01*
X36296713Y-38369050D01*
X36336889Y-38107992D01*
X36359850Y-37796660D01*
X36369409Y-37395400D01*
X36369377Y-36864558D01*
X36367302Y-36577188D01*
X36358948Y-36140301D01*
X36353617Y-36049309D01*
X37888041Y-36049309D01*
X37905689Y-36312336D01*
X37989470Y-36683181D01*
X38072773Y-36971489D01*
X38185932Y-37318262D01*
X38286701Y-37584225D01*
X38350434Y-37716632D01*
X38437015Y-37829682D01*
X38487624Y-37808078D01*
X38497940Y-37672299D01*
X38463641Y-37442826D01*
X38380406Y-37140138D01*
X38314373Y-36927301D01*
X38199328Y-36512521D01*
X38108943Y-36135426D01*
X38101530Y-36100387D01*
X38044598Y-35847391D01*
X38005018Y-35739072D01*
X37968582Y-35756027D01*
X37921081Y-35878848D01*
X37888041Y-36049309D01*
X36353617Y-36049309D01*
X36338074Y-35784033D01*
X36296876Y-35468515D01*
X36227551Y-35153877D01*
X36122295Y-34800250D01*
X35973304Y-34367767D01*
X35772775Y-33816558D01*
X35688362Y-33585133D01*
X35587198Y-33290499D01*
X35518975Y-33042916D01*
X35477093Y-32799107D01*
X35454951Y-32515796D01*
X35445948Y-32149705D01*
X35445180Y-31996225D01*
X35911339Y-31996225D01*
X35944108Y-32504225D01*
X35944421Y-32508956D01*
X35990426Y-32820372D01*
X36095624Y-33233080D01*
X36264951Y-33764085D01*
X36503345Y-34430391D01*
X36658686Y-34845492D01*
X36811509Y-35246541D01*
X36935585Y-35564199D01*
X37021057Y-35773269D01*
X37058072Y-35848558D01*
X37068816Y-35832088D01*
X37103186Y-35698382D01*
X37142473Y-35474176D01*
X37156674Y-35366470D01*
X37156317Y-35154073D01*
X37139900Y-35107378D01*
X38199566Y-35107378D01*
X38200437Y-35366470D01*
X38200821Y-35480506D01*
X38271808Y-35965049D01*
X38414309Y-36581623D01*
X38479297Y-36823709D01*
X38573056Y-37144496D01*
X38650933Y-37378054D01*
X38700697Y-37485768D01*
X38725360Y-37507979D01*
X38802697Y-37512553D01*
X38821521Y-37403764D01*
X39712763Y-37403764D01*
X39750678Y-37546585D01*
X39861192Y-37789978D01*
X39926105Y-37934348D01*
X40049734Y-38256193D01*
X40130345Y-38529459D01*
X40201023Y-38854225D01*
X40264370Y-38497962D01*
X40291656Y-38299842D01*
X40286631Y-38053138D01*
X40221067Y-37786152D01*
X40084134Y-37435003D01*
X40059853Y-37378570D01*
X39975074Y-37214511D01*
X39902755Y-37178693D01*
X39805710Y-37245856D01*
X39742359Y-37311627D01*
X39722508Y-37373426D01*
X39712763Y-37403764D01*
X38821521Y-37403764D01*
X38826770Y-37373426D01*
X38797333Y-37104594D01*
X38714140Y-36720049D01*
X38708942Y-36699289D01*
X38620065Y-36314381D01*
X38543748Y-35933732D01*
X38496013Y-35636891D01*
X38480637Y-35515278D01*
X38436122Y-35187122D01*
X38395764Y-34917225D01*
X38386331Y-34859597D01*
X38354380Y-34705802D01*
X38320868Y-34701595D01*
X38263226Y-34832558D01*
X38250161Y-34888958D01*
X38199566Y-35107378D01*
X37139900Y-35107378D01*
X37088527Y-34961261D01*
X36932700Y-34713300D01*
X36751709Y-34421141D01*
X36468534Y-33849240D01*
X36223690Y-33215980D01*
X36045075Y-32588153D01*
X35911339Y-31996225D01*
X35445180Y-31996225D01*
X35443484Y-31657558D01*
X35443296Y-31600219D01*
X36090195Y-31600219D01*
X36105273Y-31837377D01*
X36158061Y-32188516D01*
X36236521Y-32581975D01*
X36537690Y-33540643D01*
X36975848Y-34419334D01*
X36981907Y-34429297D01*
X37136642Y-34675482D01*
X37255971Y-34850567D01*
X37314503Y-34917225D01*
X37349060Y-34888958D01*
X37339428Y-34737773D01*
X37255823Y-34475686D01*
X37212171Y-34374747D01*
X38543999Y-34374747D01*
X38562062Y-34664508D01*
X38604892Y-35076485D01*
X38632780Y-35306794D01*
X38698828Y-35766132D01*
X38772434Y-36195634D01*
X38842231Y-36525891D01*
X38882744Y-36682127D01*
X38987215Y-37018671D01*
X39069891Y-37192220D01*
X39125424Y-37207006D01*
X39148464Y-37067264D01*
X39133662Y-36777228D01*
X39075669Y-36341131D01*
X39027970Y-35992359D01*
X38975681Y-35510724D01*
X38928942Y-34984488D01*
X38894071Y-34478464D01*
X38861091Y-33895439D01*
X39058560Y-33895439D01*
X39071869Y-34420350D01*
X39103437Y-34986903D01*
X39152581Y-35564795D01*
X39218617Y-36123725D01*
X39225328Y-36171794D01*
X39290474Y-36560651D01*
X39354591Y-36789522D01*
X39421102Y-36866846D01*
X39493430Y-36801058D01*
X39493586Y-36800026D01*
X40103879Y-36800026D01*
X40130604Y-37026186D01*
X40145931Y-37067264D01*
X40225196Y-37279703D01*
X40269645Y-37371193D01*
X40361955Y-37598145D01*
X40398706Y-37750185D01*
X40408807Y-37811750D01*
X40483373Y-37880558D01*
X40541586Y-37816705D01*
X40568459Y-37647725D01*
X40566496Y-37601790D01*
X40529425Y-37382786D01*
X40458627Y-37122470D01*
X40371550Y-36872534D01*
X40285643Y-36684667D01*
X40218353Y-36610558D01*
X40145500Y-36647949D01*
X40112568Y-36768277D01*
X40103879Y-36800026D01*
X39493586Y-36800026D01*
X39498395Y-36768277D01*
X39489528Y-36596285D01*
X39458142Y-36318319D01*
X39408474Y-35975558D01*
X39397103Y-35898528D01*
X39353116Y-35494367D01*
X39316179Y-34991308D01*
X39289884Y-34445980D01*
X39277820Y-33915010D01*
X39276723Y-33775021D01*
X39272713Y-33433767D01*
X39514080Y-33433767D01*
X39515106Y-34028225D01*
X39515654Y-34146654D01*
X39523051Y-34696441D01*
X39537352Y-35202578D01*
X39557179Y-35633645D01*
X39581157Y-35958222D01*
X39607906Y-36144891D01*
X39695306Y-36483558D01*
X39762713Y-36258789D01*
X40353695Y-36258789D01*
X40388589Y-36467914D01*
X40472240Y-36707918D01*
X40515924Y-36806896D01*
X40632221Y-37078844D01*
X40716747Y-37287891D01*
X40797022Y-37499558D01*
X40860201Y-37300768D01*
X40866764Y-37274153D01*
X40859677Y-37048548D01*
X40787751Y-36747343D01*
X40668856Y-36430680D01*
X40520861Y-36158699D01*
X40512354Y-36146532D01*
X40418498Y-36065113D01*
X40364638Y-36113527D01*
X40353695Y-36258789D01*
X39762713Y-36258789D01*
X39847653Y-35975558D01*
X39851825Y-35961581D01*
X39907099Y-35753257D01*
X39943698Y-35544243D01*
X39944104Y-35539154D01*
X40486066Y-35539154D01*
X40526484Y-35765008D01*
X40638770Y-36004821D01*
X40661615Y-36039281D01*
X40799900Y-36287990D01*
X40924011Y-36564030D01*
X40952125Y-36635565D01*
X41024120Y-36792418D01*
X41070234Y-36811840D01*
X41113191Y-36711550D01*
X41119035Y-36596726D01*
X41062659Y-36344722D01*
X40947600Y-36038165D01*
X40794176Y-35728598D01*
X40622711Y-35467558D01*
X40535409Y-35365259D01*
X40494452Y-35375901D01*
X40486066Y-35539154D01*
X39944104Y-35539154D01*
X39963091Y-35300885D01*
X39966750Y-34989531D01*
X39957118Y-34614415D01*
X40496912Y-34614415D01*
X40523780Y-34780983D01*
X40592699Y-34989531D01*
X40598072Y-35005788D01*
X40710788Y-35255610D01*
X40852928Y-35497233D01*
X41000132Y-35723233D01*
X41116224Y-35921611D01*
X41160706Y-36026399D01*
X41162133Y-36040823D01*
X41239463Y-36102558D01*
X41256156Y-36096301D01*
X41266138Y-35991568D01*
X41215599Y-35786566D01*
X41120169Y-35518846D01*
X40995481Y-35225956D01*
X40857168Y-34945447D01*
X40720861Y-34714867D01*
X40602192Y-34571768D01*
X40526468Y-34539300D01*
X40496912Y-34614415D01*
X39957118Y-34614415D01*
X39956145Y-34576529D01*
X39932746Y-34028225D01*
X39928865Y-33940259D01*
X40483373Y-33940259D01*
X40510995Y-34040931D01*
X40618583Y-34250147D01*
X40779605Y-34493753D01*
X40899036Y-34664898D01*
X41077546Y-34950314D01*
X41199625Y-35182430D01*
X41257271Y-35306348D01*
X41309711Y-35371501D01*
X41326726Y-35290581D01*
X41319406Y-35223920D01*
X41246484Y-34991480D01*
X41116840Y-34694251D01*
X40956978Y-34385197D01*
X40793401Y-34117284D01*
X40652614Y-33943474D01*
X40553528Y-33857861D01*
X40493853Y-33841298D01*
X40483373Y-33940259D01*
X39928865Y-33940259D01*
X39918633Y-33708303D01*
X39899462Y-33200523D01*
X39891360Y-32927558D01*
X40374314Y-32927558D01*
X40430495Y-33221564D01*
X40440661Y-33264885D01*
X40556076Y-33530061D01*
X40730593Y-33771897D01*
X40752173Y-33794979D01*
X40966980Y-34055782D01*
X41151958Y-34324558D01*
X41218967Y-34430352D01*
X41302888Y-34521355D01*
X41329723Y-34463409D01*
X41323156Y-34407890D01*
X41247140Y-34184511D01*
X41108035Y-33894249D01*
X40943578Y-33604891D01*
X41160706Y-33604891D01*
X41203040Y-33647225D01*
X41245373Y-33604891D01*
X41203040Y-33562558D01*
X41160706Y-33604891D01*
X40943578Y-33604891D01*
X40933654Y-33587430D01*
X40751806Y-33314379D01*
X40590306Y-33125422D01*
X40374314Y-32927558D01*
X39891360Y-32927558D01*
X39885794Y-32740009D01*
X39878764Y-32367373D01*
X39878835Y-32343909D01*
X40345697Y-32343909D01*
X40377376Y-32525205D01*
X40450151Y-32649849D01*
X40608794Y-32863336D01*
X40811657Y-33104524D01*
X40929145Y-33233938D01*
X41071487Y-33374390D01*
X41129968Y-33396211D01*
X41118349Y-33308558D01*
X41092983Y-33235402D01*
X40975883Y-32978705D01*
X40819445Y-32696136D01*
X40658884Y-32448257D01*
X40529409Y-32295631D01*
X40521005Y-32288880D01*
X40401565Y-32253066D01*
X40345697Y-32343909D01*
X39878835Y-32343909D01*
X39879507Y-32123225D01*
X39890646Y-31753129D01*
X40398706Y-31753129D01*
X40418103Y-31823549D01*
X40525324Y-32006159D01*
X40695040Y-32219040D01*
X40805916Y-32335829D01*
X40940622Y-32445198D01*
X40981701Y-32419439D01*
X40927443Y-32263542D01*
X40776137Y-31982496D01*
X40666991Y-31811317D01*
X40525541Y-31649740D01*
X40432315Y-31628036D01*
X40398706Y-31753129D01*
X39890646Y-31753129D01*
X39893522Y-31657558D01*
X39701614Y-31953891D01*
X39661429Y-32017984D01*
X39607317Y-32123322D01*
X39568035Y-32247459D01*
X39541325Y-32415484D01*
X39524934Y-32652485D01*
X39516604Y-32983550D01*
X39514080Y-33433767D01*
X39272713Y-33433767D01*
X39271433Y-33324815D01*
X39262740Y-33019318D01*
X39248191Y-32838900D01*
X39225330Y-32763933D01*
X39191702Y-32774786D01*
X39144851Y-32851831D01*
X39135020Y-32873587D01*
X39089453Y-33091755D01*
X39064194Y-33442474D01*
X39058560Y-33895439D01*
X38861091Y-33895439D01*
X38830288Y-33350891D01*
X38667425Y-33764151D01*
X38660144Y-33782704D01*
X38657728Y-33789565D01*
X38590867Y-33979449D01*
X38552876Y-34161595D01*
X38551961Y-34183574D01*
X38543999Y-34374747D01*
X37212171Y-34374747D01*
X37104164Y-34124996D01*
X36960892Y-33806937D01*
X36611413Y-32806049D01*
X36402090Y-31757684D01*
X36334311Y-31248609D01*
X36519322Y-31248609D01*
X36562348Y-31678738D01*
X36645653Y-32163646D01*
X36764579Y-32673368D01*
X36914468Y-33177939D01*
X37090660Y-33647395D01*
X37221436Y-33948302D01*
X37348035Y-34211080D01*
X37436695Y-34344575D01*
X37499253Y-34365443D01*
X37547544Y-34290339D01*
X37547942Y-34183574D01*
X37492206Y-33959654D01*
X37388456Y-33687315D01*
X37187546Y-33175574D01*
X36924076Y-32221964D01*
X36786223Y-31255538D01*
X36780544Y-31178714D01*
X36750531Y-30850893D01*
X36738434Y-30781603D01*
X36957429Y-30781603D01*
X36968207Y-31107225D01*
X36990096Y-31463227D01*
X37069561Y-32074931D01*
X37212523Y-32671779D01*
X37435192Y-33330973D01*
X37528400Y-33553608D01*
X37631500Y-33743532D01*
X37705331Y-33816558D01*
X37729141Y-33814726D01*
X37758000Y-33789565D01*
X37754602Y-33713272D01*
X37712431Y-33558886D01*
X37624969Y-33299449D01*
X37485700Y-32907999D01*
X37373743Y-32555253D01*
X37254863Y-32094404D01*
X37173569Y-31680333D01*
X37136407Y-31435618D01*
X37064941Y-30987634D01*
X37012696Y-30702110D01*
X36978287Y-30575176D01*
X36960326Y-30602963D01*
X36957429Y-30781603D01*
X36738434Y-30781603D01*
X36717766Y-30663212D01*
X36675847Y-30591038D01*
X36618372Y-30609738D01*
X36572747Y-30672544D01*
X36521236Y-30903223D01*
X36519322Y-31248609D01*
X36334311Y-31248609D01*
X36301220Y-31000069D01*
X36174754Y-31267105D01*
X36113757Y-31425735D01*
X36090195Y-31600219D01*
X35443296Y-31600219D01*
X35442734Y-31428215D01*
X35437849Y-30992201D01*
X35423984Y-30668062D01*
X35403392Y-30485812D01*
X36023739Y-30485812D01*
X36091011Y-30454186D01*
X36215281Y-30332859D01*
X36299167Y-30254716D01*
X36360428Y-30206504D01*
X37167262Y-30206504D01*
X37223036Y-30805031D01*
X37272475Y-31198329D01*
X37348916Y-31657178D01*
X37435661Y-32080891D01*
X37445677Y-32123556D01*
X37544162Y-32501287D01*
X37651713Y-32856924D01*
X37746777Y-33118576D01*
X37901040Y-33478928D01*
X38150555Y-33033910D01*
X38271194Y-32839464D01*
X38479632Y-32530515D01*
X38749374Y-32146619D01*
X39058866Y-31718419D01*
X39386557Y-31276558D01*
X39473811Y-31159720D01*
X40521115Y-31159720D01*
X40616694Y-31401322D01*
X40718591Y-31548982D01*
X40792192Y-31621821D01*
X40812741Y-31566069D01*
X40782949Y-31370167D01*
X40705527Y-31022558D01*
X40596189Y-30556891D01*
X40536364Y-30872155D01*
X40521115Y-31159720D01*
X39473811Y-31159720D01*
X39559363Y-31045160D01*
X40062570Y-30350534D01*
X40476002Y-29745370D01*
X40793832Y-29238811D01*
X41010229Y-28840001D01*
X41119368Y-28558083D01*
X41120770Y-28552057D01*
X41119729Y-28305256D01*
X41039867Y-28018576D01*
X41016323Y-27959983D01*
X40948812Y-27756558D01*
X42092040Y-27756558D01*
X42094455Y-27762774D01*
X42191786Y-27792947D01*
X42387354Y-27805225D01*
X42454646Y-27801406D01*
X43050519Y-27801406D01*
X43250103Y-27756699D01*
X43571124Y-27581748D01*
X43916764Y-27300065D01*
X44259177Y-26938624D01*
X44569961Y-26525143D01*
X44815719Y-26525143D01*
X44852943Y-26506394D01*
X45003734Y-26424676D01*
X45224706Y-26302214D01*
X45253843Y-26285827D01*
X45422429Y-26179817D01*
X45548935Y-26061589D01*
X45658189Y-25894356D01*
X45665567Y-25878377D01*
X45915334Y-25878377D01*
X45966675Y-25918325D01*
X46114292Y-25886072D01*
X46388873Y-25786815D01*
X46577877Y-25704797D01*
X46712508Y-25594436D01*
X46748706Y-25449390D01*
X46759964Y-25329221D01*
X46937510Y-25329221D01*
X46943827Y-25474347D01*
X47014451Y-25509403D01*
X47082882Y-25502431D01*
X47290410Y-25444707D01*
X47403295Y-25307449D01*
X47449173Y-25113272D01*
X47630145Y-25113272D01*
X47639832Y-25227658D01*
X47736439Y-25238688D01*
X47955206Y-25166818D01*
X47981513Y-25156772D01*
X48143994Y-25041474D01*
X48188040Y-24842946D01*
X48192052Y-24778391D01*
X48359159Y-24778391D01*
X48368190Y-24856557D01*
X48423201Y-24926558D01*
X48488683Y-24911800D01*
X48652462Y-24812862D01*
X48800772Y-24670556D01*
X48865373Y-24543933D01*
X48886068Y-24432620D01*
X49095443Y-24432620D01*
X49109463Y-24503225D01*
X49216847Y-24447482D01*
X49398976Y-24282141D01*
X49631083Y-24033157D01*
X49892772Y-23726729D01*
X50163650Y-23389057D01*
X50423322Y-23046340D01*
X50651393Y-22724778D01*
X50827468Y-22450570D01*
X50931153Y-22249916D01*
X50942054Y-22149016D01*
X50932883Y-22144948D01*
X50812701Y-22158099D01*
X50610945Y-22213956D01*
X50394760Y-22321929D01*
X50290102Y-22412325D01*
X50070808Y-22601734D01*
X49750147Y-23005084D01*
X49452123Y-23506455D01*
X49196086Y-24080323D01*
X49137644Y-24250759D01*
X49095443Y-24432620D01*
X48886068Y-24432620D01*
X48903378Y-24339517D01*
X49013612Y-24027073D01*
X49176065Y-23660187D01*
X49370588Y-23284148D01*
X49577036Y-22944242D01*
X49933725Y-22412325D01*
X49642789Y-22501616D01*
X49534222Y-22544808D01*
X49301872Y-22719807D01*
X49272973Y-22756863D01*
X49062331Y-23026959D01*
X48983981Y-23154181D01*
X48812963Y-23481755D01*
X48645325Y-23856898D01*
X48500714Y-24230676D01*
X48398776Y-24554152D01*
X48359159Y-24778391D01*
X48192052Y-24778391D01*
X48192802Y-24766319D01*
X48251783Y-24469207D01*
X48363004Y-24095306D01*
X48507335Y-23698839D01*
X48665645Y-23334031D01*
X48818804Y-23055106D01*
X48932417Y-22869471D01*
X48967696Y-22756863D01*
X48908908Y-22725225D01*
X48768364Y-22772968D01*
X48562945Y-22958057D01*
X48547346Y-22979225D01*
X48343744Y-23255513D01*
X48126842Y-23636387D01*
X47928319Y-24071734D01*
X47764257Y-24532607D01*
X47650736Y-24990058D01*
X47630145Y-25113272D01*
X47449173Y-25113272D01*
X47465105Y-25045838D01*
X47488921Y-24909301D01*
X47625921Y-24381392D01*
X47824751Y-23831505D01*
X48054808Y-23347759D01*
X48260786Y-22979225D01*
X48058649Y-22979225D01*
X47956818Y-22997192D01*
X47896507Y-23042725D01*
X47803141Y-23113213D01*
X47632150Y-23362067D01*
X47587720Y-23441408D01*
X47399746Y-23839307D01*
X47214331Y-24313455D01*
X47057965Y-24791659D01*
X46957138Y-25201725D01*
X46937510Y-25329221D01*
X46759964Y-25329221D01*
X46772085Y-25199841D01*
X46875788Y-24755569D01*
X47052042Y-24225988D01*
X47289505Y-23644055D01*
X47576838Y-23042725D01*
X47576414Y-23011790D01*
X47481443Y-22979225D01*
X47431894Y-23008044D01*
X47395349Y-23029300D01*
X47240759Y-23207756D01*
X47046138Y-23488291D01*
X46827629Y-23842259D01*
X46601375Y-24241019D01*
X46383519Y-24655927D01*
X46190205Y-25058338D01*
X46037576Y-25419610D01*
X45941775Y-25711100D01*
X45929584Y-25761031D01*
X45915334Y-25878377D01*
X45665567Y-25878377D01*
X45775020Y-25641331D01*
X45924257Y-25265727D01*
X45984244Y-25116239D01*
X46196320Y-24638778D01*
X46437049Y-24151468D01*
X46665091Y-23739476D01*
X46777497Y-23551407D01*
X46937013Y-23280225D01*
X47046624Y-23088160D01*
X47087373Y-23008044D01*
X47040051Y-22989558D01*
X46885444Y-22979225D01*
X46821734Y-22981030D01*
X46751396Y-22997498D01*
X46726588Y-23014181D01*
X46679892Y-23045583D01*
X46596256Y-23142244D01*
X46489516Y-23304439D01*
X46348703Y-23549126D01*
X46162849Y-23893264D01*
X45920985Y-24353811D01*
X45612140Y-24947725D01*
X45524940Y-25115885D01*
X45291873Y-25567951D01*
X45093482Y-25956568D01*
X44940703Y-26260078D01*
X44844470Y-26456823D01*
X44815719Y-26525143D01*
X44569961Y-26525143D01*
X44570519Y-26524400D01*
X44822945Y-26084368D01*
X44871548Y-25984637D01*
X45048425Y-25631904D01*
X45273209Y-25193643D01*
X45522052Y-24716103D01*
X45771105Y-24245537D01*
X45912039Y-23980777D01*
X46109750Y-23606078D01*
X46267616Y-23302808D01*
X46372193Y-23096873D01*
X46410040Y-23014181D01*
X46368420Y-22992771D01*
X46219540Y-22980761D01*
X46187668Y-22983383D01*
X46082993Y-23032606D01*
X46003738Y-23120096D01*
X45965022Y-23162835D01*
X45814878Y-23398475D01*
X45613680Y-23763928D01*
X45594338Y-23800259D01*
X44646000Y-25430464D01*
X43603897Y-26937391D01*
X43556031Y-27001332D01*
X43329088Y-27315459D01*
X43158646Y-27569973D01*
X43060519Y-27740185D01*
X43050519Y-27801406D01*
X42454646Y-27801406D01*
X42502098Y-27798713D01*
X42633926Y-27757060D01*
X42771405Y-27654658D01*
X42946176Y-27466345D01*
X43189875Y-27166959D01*
X43339311Y-26974114D01*
X43640584Y-26566965D01*
X43956313Y-26122149D01*
X44238540Y-25706459D01*
X44250942Y-25687589D01*
X44467011Y-25349504D01*
X44706401Y-24960692D01*
X44953045Y-24548968D01*
X45190876Y-24142143D01*
X45403825Y-23768030D01*
X45575825Y-23454443D01*
X45690808Y-23229194D01*
X45732706Y-23120096D01*
X45668942Y-23081887D01*
X45499873Y-23065120D01*
X45456821Y-23066845D01*
X45358077Y-23093457D01*
X45351459Y-23099001D01*
X45264069Y-23172213D01*
X45155857Y-23328507D01*
X45014503Y-23587734D01*
X44821067Y-23975287D01*
X44364960Y-24812749D01*
X43607356Y-25939501D01*
X42705039Y-27032299D01*
X42502789Y-27257938D01*
X42290270Y-27502331D01*
X42145516Y-27677798D01*
X42092040Y-27756558D01*
X40948812Y-27756558D01*
X40938223Y-27724650D01*
X40910105Y-27575521D01*
X41414706Y-27575521D01*
X41449755Y-27609012D01*
X41589536Y-27661861D01*
X41603284Y-27664033D01*
X41759032Y-27608005D01*
X41992794Y-27438413D01*
X42284734Y-27175329D01*
X42615017Y-26838822D01*
X42963808Y-26448965D01*
X43311272Y-26025828D01*
X43637574Y-25589482D01*
X43731856Y-25451553D01*
X43926181Y-25147529D01*
X44143079Y-24789705D01*
X44366702Y-24406404D01*
X44581203Y-24025947D01*
X44770737Y-23676656D01*
X44919455Y-23386853D01*
X45011512Y-23184861D01*
X45031059Y-23099001D01*
X45030882Y-23098864D01*
X44942888Y-23100178D01*
X44759040Y-23123866D01*
X44749701Y-23125383D01*
X44611448Y-23168849D01*
X44494584Y-23268397D01*
X44488525Y-23277646D01*
X44370647Y-23457591D01*
X44211178Y-23769997D01*
X44033583Y-24113255D01*
X43622394Y-24804918D01*
X43137996Y-25519865D01*
X42618211Y-26203750D01*
X42100861Y-26802229D01*
X41836743Y-27087401D01*
X41617429Y-27330299D01*
X41469175Y-27501543D01*
X41414706Y-27575521D01*
X40910105Y-27575521D01*
X40906706Y-27557493D01*
X40885243Y-27471723D01*
X40751741Y-27276994D01*
X40532511Y-27065954D01*
X40523487Y-27059452D01*
X41516401Y-27059452D01*
X41518818Y-27127891D01*
X41586656Y-27086080D01*
X41745407Y-26932196D01*
X41966537Y-26689599D01*
X42228400Y-26384222D01*
X42509349Y-26041997D01*
X42787741Y-25688857D01*
X43041928Y-25350733D01*
X43250265Y-25053558D01*
X43313632Y-24957086D01*
X43541767Y-24592412D01*
X43758675Y-24221946D01*
X43948488Y-23875462D01*
X44095339Y-23582734D01*
X44183360Y-23373537D01*
X44196684Y-23277646D01*
X44169406Y-23268849D01*
X44019969Y-23291128D01*
X43799716Y-23364364D01*
X43651265Y-23429700D01*
X43505185Y-23535553D01*
X43408436Y-23698891D01*
X43407401Y-23700639D01*
X43316014Y-23978125D01*
X43264686Y-24143098D01*
X42932755Y-24931803D01*
X42473236Y-25703835D01*
X41915503Y-26408225D01*
X41802175Y-26540468D01*
X41678387Y-26710121D01*
X41637153Y-26766633D01*
X41547046Y-26937391D01*
X41529356Y-27007853D01*
X41516401Y-27059452D01*
X40523487Y-27059452D01*
X40270123Y-26876903D01*
X40007143Y-26748138D01*
X39929998Y-26722408D01*
X39742008Y-26668496D01*
X39655504Y-26658061D01*
X39664056Y-26739813D01*
X39719458Y-26911188D01*
X39756571Y-27055155D01*
X39759284Y-27065680D01*
X39727325Y-27282764D01*
X39689868Y-27342081D01*
X39634641Y-27354214D01*
X39571151Y-27218358D01*
X39544185Y-27151860D01*
X39506307Y-27113210D01*
X39476322Y-27204604D01*
X39443328Y-27445400D01*
X39435706Y-27503821D01*
X39262383Y-28134503D01*
X38933167Y-28731381D01*
X38459749Y-29277466D01*
X37853816Y-29755769D01*
X37167262Y-30206504D01*
X36360428Y-30206504D01*
X36513999Y-30085645D01*
X36806684Y-29873963D01*
X37139040Y-29647977D01*
X37512730Y-29399367D01*
X37814037Y-29189069D01*
X38023455Y-29023879D01*
X38167929Y-28879998D01*
X38274403Y-28733632D01*
X38369823Y-28560981D01*
X38425189Y-28430678D01*
X38486689Y-28206108D01*
X38890392Y-28206108D01*
X38905853Y-28317763D01*
X38968645Y-28280493D01*
X39077684Y-28087162D01*
X39102133Y-28033118D01*
X39201703Y-27725383D01*
X39264428Y-27383096D01*
X39286429Y-27055155D01*
X39263822Y-26790454D01*
X39192727Y-26637890D01*
X39142898Y-26599974D01*
X39092491Y-26603657D01*
X39107853Y-26746206D01*
X39109620Y-26757017D01*
X39109004Y-26801462D01*
X39106891Y-26954006D01*
X39068239Y-27249476D01*
X39001255Y-27583784D01*
X38923345Y-27952666D01*
X38890392Y-28206108D01*
X38486689Y-28206108D01*
X38508941Y-28124852D01*
X38567529Y-27765701D01*
X38599732Y-27389810D01*
X38604330Y-27033765D01*
X38580100Y-26734151D01*
X38545683Y-26603149D01*
X38746548Y-26603149D01*
X38760855Y-26895058D01*
X38776150Y-27033765D01*
X38788682Y-27147419D01*
X38817979Y-27360796D01*
X38838764Y-27454043D01*
X38845009Y-27459222D01*
X38881530Y-27405434D01*
X38912165Y-27243097D01*
X38931889Y-27024382D01*
X38935674Y-26801462D01*
X38918494Y-26626510D01*
X38866875Y-26445053D01*
X38808838Y-26362338D01*
X38765635Y-26420306D01*
X38746548Y-26603149D01*
X38545683Y-26603149D01*
X38525822Y-26527554D01*
X38440274Y-26450558D01*
X38281873Y-26506820D01*
X38049440Y-26658901D01*
X37785285Y-26874138D01*
X37529454Y-27119846D01*
X37321992Y-27363338D01*
X37272811Y-27431587D01*
X36858605Y-28109224D01*
X36494895Y-28886607D01*
X36210950Y-29702126D01*
X36160047Y-29882833D01*
X36081006Y-30183518D01*
X36032582Y-30397018D01*
X36023739Y-30485812D01*
X35403392Y-30485812D01*
X35395447Y-30415491D01*
X35346551Y-30194182D01*
X35271604Y-29963830D01*
X35164919Y-29684128D01*
X34921612Y-29006956D01*
X34559267Y-27640925D01*
X34360681Y-26263675D01*
X34341101Y-25490337D01*
X34476710Y-25490337D01*
X34574651Y-26774927D01*
X34831901Y-28069969D01*
X35250433Y-29392725D01*
X35304784Y-29535616D01*
X35420996Y-29820221D01*
X35513012Y-30017457D01*
X35564595Y-30091225D01*
X35606097Y-30029984D01*
X35675024Y-29844567D01*
X35752296Y-29578332D01*
X35764140Y-29532597D01*
X35826220Y-29257949D01*
X35842060Y-29043316D01*
X35810035Y-28814883D01*
X35728520Y-28498832D01*
X35702509Y-28403703D01*
X35481368Y-27402511D01*
X35353327Y-26368467D01*
X35310854Y-25242856D01*
X35310824Y-25202935D01*
X35312604Y-25156392D01*
X35465343Y-25156392D01*
X35531195Y-26518185D01*
X35753465Y-27845990D01*
X35795101Y-28020706D01*
X35877399Y-28336981D01*
X35947347Y-28569646D01*
X35993150Y-28677768D01*
X36000416Y-28685072D01*
X36081542Y-28689221D01*
X36146066Y-28565333D01*
X36186510Y-28351332D01*
X36195400Y-28085145D01*
X36165258Y-27804697D01*
X36150395Y-27723842D01*
X36032576Y-26716557D01*
X36017505Y-25815558D01*
X36222204Y-25815558D01*
X36225620Y-26146872D01*
X36237451Y-26639343D01*
X36255725Y-27076399D01*
X36278718Y-27420070D01*
X36304706Y-27632384D01*
X36380529Y-28009877D01*
X36859903Y-27325758D01*
X37168230Y-26913987D01*
X37549503Y-26488309D01*
X37850700Y-26236742D01*
X39337702Y-26236742D01*
X39376533Y-26316119D01*
X39430445Y-26359859D01*
X39626843Y-26453577D01*
X39887486Y-26534452D01*
X40000290Y-26565995D01*
X40318394Y-26691052D01*
X40577075Y-26838224D01*
X40732600Y-26950817D01*
X40858327Y-27027929D01*
X40885023Y-27007853D01*
X40832793Y-26895058D01*
X40754585Y-26770925D01*
X40441767Y-26468508D01*
X40034764Y-26268714D01*
X39578494Y-26196558D01*
X39418154Y-26202521D01*
X39337702Y-26236742D01*
X37850700Y-26236742D01*
X37896610Y-26198397D01*
X38197373Y-26055817D01*
X38215512Y-26051170D01*
X38410087Y-25977321D01*
X38855043Y-25977321D01*
X38887121Y-26003072D01*
X39047233Y-26015021D01*
X39356028Y-26020348D01*
X39689771Y-26035683D01*
X39997153Y-26070470D01*
X40202695Y-26116932D01*
X40293803Y-26160848D01*
X40525034Y-26315746D01*
X40758540Y-26515115D01*
X40857218Y-26606441D01*
X41014988Y-26720727D01*
X41070204Y-26710121D01*
X41016299Y-26586151D01*
X40889466Y-26417271D01*
X41607198Y-26417271D01*
X41614065Y-26422285D01*
X41706762Y-26382337D01*
X41857231Y-26220969D01*
X42049145Y-25964596D01*
X42266176Y-25639634D01*
X42491995Y-25272500D01*
X42710275Y-24889609D01*
X42904688Y-24517377D01*
X43058907Y-24182222D01*
X43156603Y-23910558D01*
X43215211Y-23698891D01*
X43024583Y-23868225D01*
X43017732Y-23874383D01*
X42853094Y-24049735D01*
X42654770Y-24297230D01*
X42451132Y-24576385D01*
X42270550Y-24846714D01*
X42141396Y-25067731D01*
X42092040Y-25198953D01*
X42056025Y-25333398D01*
X42029711Y-25398453D01*
X41961495Y-25567101D01*
X41828932Y-25849371D01*
X41821416Y-25864462D01*
X41698407Y-26128736D01*
X41621547Y-26326974D01*
X41607198Y-26417271D01*
X40889466Y-26417271D01*
X40846709Y-26360339D01*
X40730529Y-26237939D01*
X40342363Y-25970121D01*
X39893577Y-25816206D01*
X39431061Y-25787964D01*
X39001706Y-25897167D01*
X38930350Y-25930591D01*
X38855043Y-25977321D01*
X38410087Y-25977321D01*
X38441588Y-25965365D01*
X38686337Y-25838793D01*
X39002087Y-25707460D01*
X39437196Y-25629482D01*
X39881918Y-25631989D01*
X40260326Y-25720680D01*
X40587061Y-25857198D01*
X40508922Y-25737943D01*
X41176007Y-25737943D01*
X41185409Y-25793513D01*
X41259873Y-25934313D01*
X41345758Y-26048311D01*
X41433352Y-26111891D01*
X41490413Y-26056605D01*
X41593747Y-25900761D01*
X41707797Y-25700922D01*
X41800062Y-25514386D01*
X41838040Y-25398453D01*
X41824082Y-25396732D01*
X41711480Y-25441864D01*
X41530165Y-25532119D01*
X41333790Y-25639983D01*
X41176007Y-25737943D01*
X40508922Y-25737943D01*
X40451491Y-25650293D01*
X40395591Y-25562636D01*
X40363057Y-25470632D01*
X40414153Y-25402039D01*
X40574556Y-25331219D01*
X40869942Y-25232541D01*
X41029219Y-25171301D01*
X41408524Y-24939282D01*
X41778283Y-24579138D01*
X42159619Y-24071858D01*
X42455222Y-23686837D01*
X42959842Y-23229533D01*
X43561547Y-22896715D01*
X44281183Y-22674656D01*
X44477896Y-22641598D01*
X44854043Y-22599057D01*
X45328318Y-22560132D01*
X45860418Y-22528016D01*
X46410040Y-22505904D01*
X47976373Y-22459788D01*
X49398292Y-22026472D01*
X49785337Y-21905191D01*
X50187973Y-21770078D01*
X50490304Y-21657754D01*
X50671473Y-21576065D01*
X50710626Y-21532856D01*
X50590808Y-21484388D01*
X50324174Y-21397692D01*
X49951563Y-21286965D01*
X49504611Y-21160782D01*
X49014953Y-21027718D01*
X48514228Y-20896348D01*
X48034072Y-20775247D01*
X47606121Y-20672988D01*
X47262012Y-20598148D01*
X46660181Y-20496903D01*
X46099612Y-20451391D01*
X45484012Y-20455052D01*
X45433507Y-20457027D01*
X44934266Y-20490943D01*
X44517283Y-20558566D01*
X44151151Y-20676265D01*
X43804465Y-20860405D01*
X43445818Y-21127352D01*
X43043803Y-21493473D01*
X42567013Y-21975134D01*
X42543043Y-22000013D01*
X42117744Y-22432570D01*
X41774196Y-22754231D01*
X41484218Y-22980880D01*
X41219630Y-23128403D01*
X40952251Y-23212686D01*
X40653900Y-23249614D01*
X40296396Y-23255072D01*
X40020724Y-23248735D01*
X39658610Y-23223291D01*
X39437326Y-23175413D01*
X39339117Y-23100197D01*
X39346224Y-22992742D01*
X39414279Y-22815330D01*
X39449921Y-22601885D01*
X39399071Y-22402109D01*
X39248150Y-22174199D01*
X38983578Y-21876351D01*
X38483732Y-21344560D01*
X38466547Y-21396908D01*
X38298482Y-21908869D01*
X38164293Y-22373049D01*
X38003369Y-23126080D01*
X37897084Y-23892357D01*
X37858706Y-24590953D01*
X37858706Y-25249167D01*
X38358310Y-25203865D01*
X38545288Y-25191768D01*
X38888386Y-25193109D01*
X39183239Y-25221959D01*
X39389638Y-25273306D01*
X39467373Y-25342136D01*
X39399015Y-25381210D01*
X39203886Y-25422657D01*
X38926424Y-25454797D01*
X38913212Y-25455888D01*
X38230899Y-25596614D01*
X37599335Y-25890533D01*
X37050733Y-26322741D01*
X36850561Y-26514427D01*
X36696008Y-26646114D01*
X36625255Y-26684662D01*
X36641611Y-26624703D01*
X36731606Y-26459805D01*
X36876458Y-26232677D01*
X37159441Y-25812472D01*
X37194548Y-24571579D01*
X37369183Y-24571579D01*
X37375726Y-24831571D01*
X37388563Y-25176135D01*
X37406889Y-25390885D01*
X37435344Y-25501118D01*
X37478569Y-25532133D01*
X37541206Y-25509227D01*
X37550128Y-25503993D01*
X37620673Y-25430798D01*
X37663383Y-25294131D01*
X37684696Y-25058776D01*
X37691050Y-24689517D01*
X37719522Y-23926086D01*
X37845385Y-22980558D01*
X38083206Y-22029345D01*
X38099027Y-21976954D01*
X38198151Y-21626626D01*
X38244867Y-21396908D01*
X38243793Y-21253353D01*
X38199548Y-21161511D01*
X38124471Y-21091065D01*
X37989221Y-21031891D01*
X37982127Y-21032675D01*
X37898736Y-21128805D01*
X37800859Y-21372194D01*
X37694022Y-21743857D01*
X37583753Y-22224808D01*
X37475581Y-22796061D01*
X37427142Y-23139517D01*
X37375613Y-23827614D01*
X37369183Y-24571579D01*
X37194548Y-24571579D01*
X37202514Y-24290015D01*
X37221075Y-23730229D01*
X37245629Y-23260335D01*
X37280124Y-22876357D01*
X37329604Y-22535341D01*
X37399115Y-22194333D01*
X37493699Y-21810381D01*
X37741810Y-20853204D01*
X37528530Y-20697840D01*
X37315249Y-20542476D01*
X37314822Y-20543430D01*
X37162312Y-20884073D01*
X37099507Y-21033868D01*
X36944717Y-21461574D01*
X36779131Y-21983216D01*
X36617313Y-22549041D01*
X36473824Y-23109295D01*
X36363227Y-23614225D01*
X36296738Y-24032862D01*
X36251275Y-24521376D01*
X36227235Y-25103048D01*
X36222204Y-25815558D01*
X36017505Y-25815558D01*
X36014255Y-25621262D01*
X36091098Y-24479829D01*
X36258770Y-23334135D01*
X36512936Y-22226052D01*
X36849261Y-21197455D01*
X36898542Y-21064981D01*
X36995334Y-20765837D01*
X37046633Y-20543430D01*
X37042361Y-20437436D01*
X36939334Y-20377247D01*
X36745711Y-20311255D01*
X36645265Y-20293570D01*
X36559166Y-20317403D01*
X36480276Y-20414861D01*
X36386635Y-20614349D01*
X36256279Y-20944274D01*
X36187286Y-21127961D01*
X35795289Y-22435192D01*
X35554008Y-23786698D01*
X35465343Y-25156392D01*
X35312604Y-25156392D01*
X35356241Y-24015074D01*
X35497272Y-22923594D01*
X35742431Y-21881014D01*
X36100229Y-20839853D01*
X36143043Y-20729409D01*
X36246229Y-20442391D01*
X36309299Y-20233632D01*
X36319939Y-20142235D01*
X36217683Y-20099300D01*
X36025782Y-20051473D01*
X35940236Y-20036692D01*
X35832739Y-20044549D01*
X35744352Y-20118797D01*
X35646373Y-20289146D01*
X35510106Y-20585305D01*
X35260509Y-21203611D01*
X34983852Y-22039250D01*
X34755922Y-22897694D01*
X34600113Y-23698891D01*
X34536107Y-24198940D01*
X34476710Y-25490337D01*
X34341101Y-25490337D01*
X34325807Y-24886248D01*
X34454597Y-23519684D01*
X34747002Y-22175023D01*
X35202976Y-20863307D01*
X35268758Y-20703421D01*
X35391642Y-20393242D01*
X35479514Y-20155409D01*
X35516647Y-20031621D01*
X35489973Y-19986697D01*
X35328712Y-19879153D01*
X35039143Y-19736597D01*
X34641373Y-19569640D01*
X33752373Y-19218929D01*
X32552910Y-19230785D01*
X31353448Y-19242640D01*
X30351577Y-19683930D01*
X30285121Y-19713213D01*
X29917682Y-19875522D01*
X29616579Y-20009200D01*
X29411377Y-20101084D01*
X29331639Y-20138012D01*
X27898461Y-20138012D01*
X28888234Y-19712809D01*
X28958250Y-19687205D01*
X29365330Y-19528363D01*
X29820834Y-19338360D01*
X30238706Y-19152876D01*
X30780663Y-18938030D01*
X31400754Y-18779070D01*
X32094679Y-18690333D01*
X32905706Y-18663887D01*
X33170021Y-18668115D01*
X33449457Y-18688090D01*
X33720192Y-18733144D01*
X34023744Y-18812637D01*
X34401632Y-18935925D01*
X34895373Y-19112369D01*
X35023931Y-19158789D01*
X35503517Y-19326614D01*
X36003836Y-19495257D01*
X36435327Y-19634360D01*
X36821065Y-19766657D01*
X37504720Y-20075536D01*
X37612669Y-20142235D01*
X38163923Y-20482843D01*
X38846693Y-21016091D01*
X39291848Y-21421323D01*
X39669475Y-21836719D01*
X39898371Y-22192292D01*
X39975373Y-22483928D01*
X39980634Y-22602297D01*
X40025501Y-22686692D01*
X40153244Y-22719617D01*
X40407078Y-22725225D01*
X40541675Y-22719913D01*
X40857583Y-22674721D01*
X41105578Y-22598432D01*
X41153875Y-22569966D01*
X41343172Y-22421215D01*
X41606592Y-22183114D01*
X41916018Y-21881742D01*
X42243330Y-21543180D01*
X42295058Y-21488142D01*
X42659365Y-21109996D01*
X42951637Y-20830814D01*
X43204749Y-20623331D01*
X43451577Y-20460283D01*
X43724996Y-20314406D01*
X43946710Y-20213135D01*
X44498874Y-20027117D01*
X45095187Y-19922102D01*
X45756566Y-19898079D01*
X46503927Y-19955037D01*
X47358188Y-20092963D01*
X48340266Y-20311846D01*
X48355276Y-20315550D01*
X48811189Y-20432768D01*
X49353430Y-20579236D01*
X49940290Y-20743000D01*
X50530060Y-20912108D01*
X51081034Y-21074605D01*
X51551503Y-21218541D01*
X51899758Y-21331960D01*
X51929735Y-21405559D01*
X51896032Y-21532856D01*
X51879385Y-21595733D01*
X51753313Y-21877315D01*
G37*
G36*
X35860954Y-36248388D02*
G01*
X35904093Y-36464072D01*
X35940520Y-36749291D01*
X35948976Y-36836323D01*
X35967016Y-37085630D01*
X35950741Y-37219844D01*
X35886625Y-37281480D01*
X35761138Y-37313055D01*
X35591154Y-37320868D01*
X35479763Y-37274499D01*
X35434626Y-37281326D01*
X35296284Y-37386292D01*
X35092164Y-37580490D01*
X34847621Y-37841189D01*
X34703399Y-37996173D01*
X34390686Y-38300619D01*
X34086479Y-38561501D01*
X33840114Y-38735051D01*
X33685801Y-38815999D01*
X33231108Y-38961000D01*
X32775841Y-38958349D01*
X32307426Y-38804581D01*
X31813289Y-38496232D01*
X31280856Y-38029835D01*
X31182056Y-37933754D01*
X30920123Y-37700577D01*
X30704551Y-37561888D01*
X30486603Y-37491763D01*
X30217540Y-37464280D01*
X30148455Y-37444786D01*
X30098710Y-37361680D01*
X30075255Y-37180030D01*
X30069373Y-36864558D01*
X30069416Y-36840998D01*
X30077563Y-36553381D01*
X30097071Y-36349402D01*
X30123994Y-36271891D01*
X30158673Y-36293374D01*
X30300877Y-36410529D01*
X30530195Y-36612415D01*
X30824503Y-36879414D01*
X31161677Y-37191911D01*
X31343228Y-37360246D01*
X31697847Y-37680448D01*
X32018563Y-37959401D01*
X32275944Y-38171779D01*
X32440556Y-38292261D01*
X32500395Y-38327399D01*
X32758013Y-38440267D01*
X33009751Y-38472298D01*
X33273619Y-38414461D01*
X33567628Y-38257724D01*
X33909790Y-37993057D01*
X34318115Y-37611427D01*
X34810615Y-37103804D01*
X35042880Y-36861357D01*
X35339016Y-36564964D01*
X35582035Y-36336734D01*
X35751543Y-36195594D01*
X35827147Y-36160467D01*
X35860954Y-36248388D01*
G37*
G36*
X27386027Y-27896041D02*
G01*
X27542801Y-27985284D01*
X27688746Y-28207391D01*
X27711000Y-28249010D01*
X27884527Y-28513806D01*
X28071467Y-28730150D01*
X28215998Y-28896954D01*
X28285475Y-29118299D01*
X28189773Y-29312291D01*
X28057287Y-29399586D01*
X27892194Y-29376194D01*
X27677446Y-29214339D01*
X27410252Y-28925738D01*
X27208851Y-28622441D01*
X27091793Y-28341104D01*
X27066170Y-28107832D01*
X27139075Y-27948727D01*
X27317599Y-27889891D01*
X27386027Y-27896041D01*
G37*
G36*
X38327768Y-27641385D02*
G01*
X38360287Y-27768864D01*
X38318497Y-28027872D01*
X38186925Y-28344367D01*
X37979061Y-28678239D01*
X37912343Y-28767419D01*
X37742667Y-28962492D01*
X37602931Y-29049844D01*
X37451957Y-29059239D01*
X37287803Y-29003226D01*
X37196101Y-28851547D01*
X37235659Y-28631160D01*
X37407944Y-28365209D01*
X37444620Y-28321058D01*
X37637896Y-28061542D01*
X37791269Y-27817732D01*
X37843649Y-27735911D01*
X38014310Y-27585850D01*
X38191478Y-27549150D01*
X38327768Y-27641385D01*
G37*
%TD*%
M02*
