%TF.GenerationSoftware,KiCad,Pcbnew,(6.0.0)*%
%TF.CreationDate,2022-02-16T15:24:18-08:00*%
%TF.ProjectId,LedPracticePanel,4c656450-7261-4637-9469-636550616e65,0*%
%TF.SameCoordinates,Original*%
%TF.FileFunction,Copper,L1,Top*%
%TF.FilePolarity,Positive*%
%FSLAX46Y46*%
G04 Gerber Fmt 4.6, Leading zero omitted, Abs format (unit mm)*
G04 Created by KiCad (PCBNEW (6.0.0)) date 2022-02-16 15:24:18*
%MOMM*%
%LPD*%
G01*
G04 APERTURE LIST*
%TA.AperFunction,ComponentPad*%
%ADD10O,7.000000X5.500000*%
%TD*%
G04 APERTURE END LIST*
D10*
%TO.P,H4,1,1*%
%TO.N,GND*%
X19400000Y-48600000D03*
%TD*%
%TO.P,H3,1,1*%
%TO.N,GND*%
X19400000Y-15200000D03*
%TD*%
%TO.P,H2,1,1*%
%TO.N,GND*%
X44800000Y-15200000D03*
%TD*%
%TO.P,H1,1,1*%
%TO.N,GND*%
X44800000Y-48600000D03*
%TD*%
%TA.AperFunction,Conductor*%
%TO.N,GND*%
G36*
X51683989Y-12578705D02*
G01*
X51730549Y-12632303D01*
X51742000Y-12684787D01*
X51742000Y-51066786D01*
X51721998Y-51134907D01*
X51668342Y-51181400D01*
X51616156Y-51192786D01*
X47865370Y-51197439D01*
X47797225Y-51177521D01*
X47750665Y-51123923D01*
X47740474Y-51053662D01*
X47769887Y-50989045D01*
X47782635Y-50976273D01*
X47818108Y-50945492D01*
X47823082Y-50940672D01*
X48061802Y-50682426D01*
X48066209Y-50677098D01*
X48275143Y-50394225D01*
X48278942Y-50388442D01*
X48455570Y-50084354D01*
X48458720Y-50078171D01*
X48600903Y-49756559D01*
X48603361Y-49750055D01*
X48709396Y-49414774D01*
X48711120Y-49408063D01*
X48779728Y-49063147D01*
X48780702Y-49056306D01*
X48796660Y-48872049D01*
X48793639Y-48857085D01*
X48781918Y-48854000D01*
X40815172Y-48854000D01*
X40799933Y-48858475D01*
X40799243Y-48859271D01*
X40798215Y-48864279D01*
X40844380Y-49207982D01*
X40845677Y-49214783D01*
X40930453Y-49556072D01*
X40932491Y-49562696D01*
X41054208Y-49892623D01*
X41056957Y-49898976D01*
X41214151Y-50213572D01*
X41217565Y-50219557D01*
X41408335Y-50515007D01*
X41412402Y-50520605D01*
X41634432Y-50793327D01*
X41639085Y-50798440D01*
X41832908Y-50989242D01*
X41867421Y-51051285D01*
X41862913Y-51122138D01*
X41820814Y-51179306D01*
X41754490Y-51204639D01*
X41744677Y-51205034D01*
X22429001Y-51228999D01*
X22360856Y-51209081D01*
X22314296Y-51155483D01*
X22304105Y-51085222D01*
X22333518Y-51020605D01*
X22346265Y-51007833D01*
X22418116Y-50945484D01*
X22423082Y-50940672D01*
X22661802Y-50682426D01*
X22666209Y-50677098D01*
X22875143Y-50394225D01*
X22878942Y-50388442D01*
X23055570Y-50084354D01*
X23058720Y-50078171D01*
X23200903Y-49756559D01*
X23203361Y-49750055D01*
X23309396Y-49414774D01*
X23311120Y-49408063D01*
X23379728Y-49063147D01*
X23380702Y-49056306D01*
X23396660Y-48872049D01*
X23393639Y-48857085D01*
X23381918Y-48854000D01*
X15415172Y-48854000D01*
X15399933Y-48858475D01*
X15399243Y-48859271D01*
X15398215Y-48864279D01*
X15444380Y-49207982D01*
X15445677Y-49214783D01*
X15530453Y-49556072D01*
X15532491Y-49562696D01*
X15654208Y-49892623D01*
X15656957Y-49898976D01*
X15814151Y-50213572D01*
X15817565Y-50219557D01*
X16008335Y-50515007D01*
X16012402Y-50520605D01*
X16234432Y-50793327D01*
X16239077Y-50798430D01*
X16464881Y-51020715D01*
X16499394Y-51082759D01*
X16494886Y-51153612D01*
X16452787Y-51210780D01*
X16386464Y-51236112D01*
X16376644Y-51236508D01*
X12584156Y-51241213D01*
X12516011Y-51221295D01*
X12469451Y-51167697D01*
X12458000Y-51115213D01*
X12458000Y-48327951D01*
X15403340Y-48327951D01*
X15406361Y-48342915D01*
X15418082Y-48346000D01*
X19127885Y-48346000D01*
X19143124Y-48341525D01*
X19144329Y-48340135D01*
X19146000Y-48332452D01*
X19146000Y-48327885D01*
X19654000Y-48327885D01*
X19658475Y-48343124D01*
X19659865Y-48344329D01*
X19667548Y-48346000D01*
X23384828Y-48346000D01*
X23400067Y-48341525D01*
X23400757Y-48340729D01*
X23401785Y-48335721D01*
X23400741Y-48327951D01*
X40803340Y-48327951D01*
X40806361Y-48342915D01*
X40818082Y-48346000D01*
X44527885Y-48346000D01*
X44543124Y-48341525D01*
X44544329Y-48340135D01*
X44546000Y-48332452D01*
X44546000Y-48327885D01*
X45054000Y-48327885D01*
X45058475Y-48343124D01*
X45059865Y-48344329D01*
X45067548Y-48346000D01*
X48784828Y-48346000D01*
X48800067Y-48341525D01*
X48800757Y-48340729D01*
X48801785Y-48335721D01*
X48755620Y-47992018D01*
X48754323Y-47985217D01*
X48669547Y-47643928D01*
X48667509Y-47637304D01*
X48545792Y-47307377D01*
X48543043Y-47301024D01*
X48385849Y-46986428D01*
X48382435Y-46980443D01*
X48191665Y-46684993D01*
X48187598Y-46679395D01*
X47965568Y-46406673D01*
X47960915Y-46401560D01*
X47710305Y-46154857D01*
X47705108Y-46150274D01*
X47428943Y-45932564D01*
X47423269Y-45928576D01*
X47124886Y-45742488D01*
X47118810Y-45739148D01*
X46801810Y-45586927D01*
X46795410Y-45584275D01*
X46463594Y-45467749D01*
X46456967Y-45465824D01*
X46114360Y-45386413D01*
X46107571Y-45385227D01*
X45757587Y-45343804D01*
X45752159Y-45343398D01*
X45708672Y-45342032D01*
X45706648Y-45342000D01*
X45072115Y-45342000D01*
X45056876Y-45346475D01*
X45055671Y-45347865D01*
X45054000Y-45355548D01*
X45054000Y-48327885D01*
X44546000Y-48327885D01*
X44546000Y-45360115D01*
X44541525Y-45344876D01*
X44540135Y-45343671D01*
X44532452Y-45342000D01*
X43961706Y-45342000D01*
X43958229Y-45342095D01*
X43695401Y-45356560D01*
X43688521Y-45357319D01*
X43341634Y-45415058D01*
X43334861Y-45416572D01*
X42996413Y-45512024D01*
X42989858Y-45514268D01*
X42663916Y-45646288D01*
X42657649Y-45649237D01*
X42348161Y-45816228D01*
X42342262Y-45819843D01*
X42052955Y-46019795D01*
X42047500Y-46024026D01*
X41781884Y-46254516D01*
X41776918Y-46259328D01*
X41538198Y-46517574D01*
X41533791Y-46522902D01*
X41324857Y-46805775D01*
X41321058Y-46811558D01*
X41144430Y-47115646D01*
X41141280Y-47121829D01*
X40999097Y-47443441D01*
X40996639Y-47449945D01*
X40890604Y-47785226D01*
X40888880Y-47791937D01*
X40820272Y-48136853D01*
X40819298Y-48143694D01*
X40803340Y-48327951D01*
X23400741Y-48327951D01*
X23355620Y-47992018D01*
X23354323Y-47985217D01*
X23269547Y-47643928D01*
X23267509Y-47637304D01*
X23145792Y-47307377D01*
X23143043Y-47301024D01*
X22985849Y-46986428D01*
X22982435Y-46980443D01*
X22791665Y-46684993D01*
X22787598Y-46679395D01*
X22565568Y-46406673D01*
X22560915Y-46401560D01*
X22310305Y-46154857D01*
X22305108Y-46150274D01*
X22028943Y-45932564D01*
X22023269Y-45928576D01*
X21724886Y-45742488D01*
X21718810Y-45739148D01*
X21401810Y-45586927D01*
X21395410Y-45584275D01*
X21063594Y-45467749D01*
X21056967Y-45465824D01*
X20714360Y-45386413D01*
X20707571Y-45385227D01*
X20357587Y-45343804D01*
X20352159Y-45343398D01*
X20308672Y-45342032D01*
X20306648Y-45342000D01*
X19672115Y-45342000D01*
X19656876Y-45346475D01*
X19655671Y-45347865D01*
X19654000Y-45355548D01*
X19654000Y-48327885D01*
X19146000Y-48327885D01*
X19146000Y-45360115D01*
X19141525Y-45344876D01*
X19140135Y-45343671D01*
X19132452Y-45342000D01*
X18561706Y-45342000D01*
X18558229Y-45342095D01*
X18295401Y-45356560D01*
X18288521Y-45357319D01*
X17941634Y-45415058D01*
X17934861Y-45416572D01*
X17596413Y-45512024D01*
X17589858Y-45514268D01*
X17263916Y-45646288D01*
X17257649Y-45649237D01*
X16948161Y-45816228D01*
X16942262Y-45819843D01*
X16652955Y-46019795D01*
X16647500Y-46024026D01*
X16381884Y-46254516D01*
X16376918Y-46259328D01*
X16138198Y-46517574D01*
X16133791Y-46522902D01*
X15924857Y-46805775D01*
X15921058Y-46811558D01*
X15744430Y-47115646D01*
X15741280Y-47121829D01*
X15599097Y-47443441D01*
X15596639Y-47449945D01*
X15490604Y-47785226D01*
X15488880Y-47791937D01*
X15420272Y-48136853D01*
X15419298Y-48143694D01*
X15403340Y-48327951D01*
X12458000Y-48327951D01*
X12458000Y-15464279D01*
X15398215Y-15464279D01*
X15444380Y-15807982D01*
X15445677Y-15814783D01*
X15530453Y-16156072D01*
X15532491Y-16162696D01*
X15654208Y-16492623D01*
X15656957Y-16498976D01*
X15814151Y-16813572D01*
X15817565Y-16819557D01*
X16008335Y-17115007D01*
X16012402Y-17120605D01*
X16234432Y-17393327D01*
X16239085Y-17398440D01*
X16489695Y-17645143D01*
X16494892Y-17649726D01*
X16771057Y-17867436D01*
X16776731Y-17871424D01*
X17075114Y-18057512D01*
X17081190Y-18060852D01*
X17398190Y-18213073D01*
X17404590Y-18215725D01*
X17736406Y-18332251D01*
X17743033Y-18334176D01*
X18085640Y-18413587D01*
X18092429Y-18414773D01*
X18442413Y-18456196D01*
X18447841Y-18456602D01*
X18491328Y-18457968D01*
X18493352Y-18458000D01*
X19127885Y-18458000D01*
X19143124Y-18453525D01*
X19144329Y-18452135D01*
X19146000Y-18444452D01*
X19146000Y-18439885D01*
X19654000Y-18439885D01*
X19658475Y-18455124D01*
X19659865Y-18456329D01*
X19667548Y-18458000D01*
X20238294Y-18458000D01*
X20241771Y-18457905D01*
X20504599Y-18443440D01*
X20511479Y-18442681D01*
X20858366Y-18384942D01*
X20865139Y-18383428D01*
X21203587Y-18287976D01*
X21210142Y-18285732D01*
X21536084Y-18153712D01*
X21542351Y-18150763D01*
X21851839Y-17983772D01*
X21857738Y-17980157D01*
X22147045Y-17780205D01*
X22152500Y-17775974D01*
X22418116Y-17545484D01*
X22423082Y-17540672D01*
X22661802Y-17282426D01*
X22666209Y-17277098D01*
X22875143Y-16994225D01*
X22878942Y-16988442D01*
X23055570Y-16684354D01*
X23058720Y-16678171D01*
X23200903Y-16356559D01*
X23203361Y-16350055D01*
X23309396Y-16014774D01*
X23311120Y-16008063D01*
X23379728Y-15663147D01*
X23380702Y-15656306D01*
X23396660Y-15472049D01*
X23395091Y-15464279D01*
X40798215Y-15464279D01*
X40844380Y-15807982D01*
X40845677Y-15814783D01*
X40930453Y-16156072D01*
X40932491Y-16162696D01*
X41054208Y-16492623D01*
X41056957Y-16498976D01*
X41214151Y-16813572D01*
X41217565Y-16819557D01*
X41408335Y-17115007D01*
X41412402Y-17120605D01*
X41634432Y-17393327D01*
X41639085Y-17398440D01*
X41889695Y-17645143D01*
X41894892Y-17649726D01*
X42171057Y-17867436D01*
X42176731Y-17871424D01*
X42475114Y-18057512D01*
X42481190Y-18060852D01*
X42798190Y-18213073D01*
X42804590Y-18215725D01*
X43136406Y-18332251D01*
X43143033Y-18334176D01*
X43485640Y-18413587D01*
X43492429Y-18414773D01*
X43842413Y-18456196D01*
X43847841Y-18456602D01*
X43891328Y-18457968D01*
X43893352Y-18458000D01*
X44527885Y-18458000D01*
X44543124Y-18453525D01*
X44544329Y-18452135D01*
X44546000Y-18444452D01*
X44546000Y-18439885D01*
X45054000Y-18439885D01*
X45058475Y-18455124D01*
X45059865Y-18456329D01*
X45067548Y-18458000D01*
X45638294Y-18458000D01*
X45641771Y-18457905D01*
X45904599Y-18443440D01*
X45911479Y-18442681D01*
X46258366Y-18384942D01*
X46265139Y-18383428D01*
X46603587Y-18287976D01*
X46610142Y-18285732D01*
X46936084Y-18153712D01*
X46942351Y-18150763D01*
X47251839Y-17983772D01*
X47257738Y-17980157D01*
X47547045Y-17780205D01*
X47552500Y-17775974D01*
X47818116Y-17545484D01*
X47823082Y-17540672D01*
X48061802Y-17282426D01*
X48066209Y-17277098D01*
X48275143Y-16994225D01*
X48278942Y-16988442D01*
X48455570Y-16684354D01*
X48458720Y-16678171D01*
X48600903Y-16356559D01*
X48603361Y-16350055D01*
X48709396Y-16014774D01*
X48711120Y-16008063D01*
X48779728Y-15663147D01*
X48780702Y-15656306D01*
X48796660Y-15472049D01*
X48793639Y-15457085D01*
X48781918Y-15454000D01*
X45072115Y-15454000D01*
X45056876Y-15458475D01*
X45055671Y-15459865D01*
X45054000Y-15467548D01*
X45054000Y-18439885D01*
X44546000Y-18439885D01*
X44546000Y-15472115D01*
X44541525Y-15456876D01*
X44540135Y-15455671D01*
X44532452Y-15454000D01*
X40815172Y-15454000D01*
X40799933Y-15458475D01*
X40799243Y-15459271D01*
X40798215Y-15464279D01*
X23395091Y-15464279D01*
X23393639Y-15457085D01*
X23381918Y-15454000D01*
X19672115Y-15454000D01*
X19656876Y-15458475D01*
X19655671Y-15459865D01*
X19654000Y-15467548D01*
X19654000Y-18439885D01*
X19146000Y-18439885D01*
X19146000Y-15472115D01*
X19141525Y-15456876D01*
X19140135Y-15455671D01*
X19132452Y-15454000D01*
X15415172Y-15454000D01*
X15399933Y-15458475D01*
X15399243Y-15459271D01*
X15398215Y-15464279D01*
X12458000Y-15464279D01*
X12458000Y-12733214D01*
X12478002Y-12665093D01*
X12531658Y-12618600D01*
X12583844Y-12607214D01*
X16334630Y-12602561D01*
X16402775Y-12622479D01*
X16449335Y-12676077D01*
X16459526Y-12746338D01*
X16430113Y-12810955D01*
X16417365Y-12823727D01*
X16381892Y-12854508D01*
X16376918Y-12859328D01*
X16138198Y-13117574D01*
X16133791Y-13122902D01*
X15924857Y-13405775D01*
X15921058Y-13411558D01*
X15744430Y-13715646D01*
X15741280Y-13721829D01*
X15599097Y-14043441D01*
X15596639Y-14049945D01*
X15490604Y-14385226D01*
X15488880Y-14391937D01*
X15420272Y-14736853D01*
X15419298Y-14743694D01*
X15403340Y-14927951D01*
X15406361Y-14942915D01*
X15418082Y-14946000D01*
X23384828Y-14946000D01*
X23400067Y-14941525D01*
X23400757Y-14940729D01*
X23401785Y-14935721D01*
X23355620Y-14592018D01*
X23354323Y-14585217D01*
X23269547Y-14243928D01*
X23267509Y-14237304D01*
X23145792Y-13907377D01*
X23143043Y-13901024D01*
X22985849Y-13586428D01*
X22982435Y-13580443D01*
X22791665Y-13284993D01*
X22787598Y-13279395D01*
X22565568Y-13006673D01*
X22560915Y-13001560D01*
X22367092Y-12810758D01*
X22332579Y-12748715D01*
X22337087Y-12677862D01*
X22379186Y-12620694D01*
X22445510Y-12595361D01*
X22455323Y-12594966D01*
X41770999Y-12571001D01*
X41839144Y-12590919D01*
X41885704Y-12644517D01*
X41895895Y-12714778D01*
X41866482Y-12779395D01*
X41853735Y-12792167D01*
X41781884Y-12854516D01*
X41776918Y-12859328D01*
X41538198Y-13117574D01*
X41533791Y-13122902D01*
X41324857Y-13405775D01*
X41321058Y-13411558D01*
X41144430Y-13715646D01*
X41141280Y-13721829D01*
X40999097Y-14043441D01*
X40996639Y-14049945D01*
X40890604Y-14385226D01*
X40888880Y-14391937D01*
X40820272Y-14736853D01*
X40819298Y-14743694D01*
X40803340Y-14927951D01*
X40806361Y-14942915D01*
X40818082Y-14946000D01*
X48784828Y-14946000D01*
X48800067Y-14941525D01*
X48800757Y-14940729D01*
X48801785Y-14935721D01*
X48755620Y-14592018D01*
X48754323Y-14585217D01*
X48669547Y-14243928D01*
X48667509Y-14237304D01*
X48545792Y-13907377D01*
X48543043Y-13901024D01*
X48385849Y-13586428D01*
X48382435Y-13580443D01*
X48191665Y-13284993D01*
X48187598Y-13279395D01*
X47965568Y-13006673D01*
X47960923Y-13001570D01*
X47735119Y-12779285D01*
X47700606Y-12717241D01*
X47705114Y-12646388D01*
X47747213Y-12589220D01*
X47813536Y-12563888D01*
X47823356Y-12563492D01*
X51615844Y-12558787D01*
X51683989Y-12578705D01*
G37*
%TD.AperFunction*%
%TD*%
M02*
