%TF.GenerationSoftware,KiCad,Pcbnew,(6.0.10)*%
%TF.CreationDate,2023-01-27T16:48:18-08:00*%
%TF.ProjectId,Panel,50616e65-6c2e-46b6-9963-61645f706362,rev?*%
%TF.SameCoordinates,Original*%
%TF.FileFunction,Legend,Top*%
%TF.FilePolarity,Positive*%
%FSLAX46Y46*%
G04 Gerber Fmt 4.6, Leading zero omitted, Abs format (unit mm)*
G04 Created by KiCad (PCBNEW (6.0.10)) date 2023-01-27 16:48:18*
%MOMM*%
%LPD*%
G01*
G04 APERTURE LIST*
%ADD10C,0.000000*%
%ADD11C,0.215174*%
%ADD12C,0.200000*%
%ADD13C,0.150000*%
G04 APERTURE END LIST*
D10*
G36*
X57197351Y-159829143D02*
G01*
X56771173Y-159829143D01*
X56771173Y-157754219D01*
X56513817Y-157886552D01*
X56348400Y-157618230D01*
X56929154Y-157243349D01*
X57197351Y-157243349D01*
X57197351Y-159829143D01*
G37*
G36*
X58213544Y-159778145D02*
G01*
X58171748Y-159756944D01*
X58131385Y-159733721D01*
X58092493Y-159708515D01*
X58055112Y-159681367D01*
X58019281Y-159652316D01*
X57985041Y-159621403D01*
X57952431Y-159588666D01*
X57921490Y-159554147D01*
X57892258Y-159517886D01*
X57864776Y-159479921D01*
X57839081Y-159440293D01*
X57815214Y-159399041D01*
X57793215Y-159356207D01*
X57773123Y-159311829D01*
X57754978Y-159265947D01*
X57738819Y-159218603D01*
X57724686Y-159169834D01*
X57712619Y-159119682D01*
X57702657Y-159068186D01*
X57694840Y-159015386D01*
X57692506Y-158992986D01*
X58121856Y-158992986D01*
X58122445Y-159020596D01*
X58124202Y-159047576D01*
X58127106Y-159073910D01*
X58131141Y-159099581D01*
X58136288Y-159124573D01*
X58142529Y-159148871D01*
X58149846Y-159172458D01*
X58158220Y-159195318D01*
X58167634Y-159217434D01*
X58178069Y-159238791D01*
X58189507Y-159259373D01*
X58201930Y-159279162D01*
X58215319Y-159298144D01*
X58229657Y-159316302D01*
X58244925Y-159333620D01*
X58261106Y-159350081D01*
X58278180Y-159365670D01*
X58296130Y-159380370D01*
X58314938Y-159394165D01*
X58334584Y-159407039D01*
X58355053Y-159418977D01*
X58376324Y-159429961D01*
X58398379Y-159439975D01*
X58421202Y-159449004D01*
X58444773Y-159457031D01*
X58469074Y-159464041D01*
X58494087Y-159470016D01*
X58519795Y-159474941D01*
X58546177Y-159478800D01*
X58573218Y-159481576D01*
X58600898Y-159483254D01*
X58629198Y-159483817D01*
X58657505Y-159483233D01*
X58685190Y-159481495D01*
X58712235Y-159478624D01*
X58738623Y-159474639D01*
X58764334Y-159469560D01*
X58789351Y-159463409D01*
X58813656Y-159456205D01*
X58837230Y-159447967D01*
X58860056Y-159438718D01*
X58882115Y-159428476D01*
X58903389Y-159417261D01*
X58923859Y-159405095D01*
X58943508Y-159391998D01*
X58962318Y-159377988D01*
X58980269Y-159363088D01*
X58997345Y-159347316D01*
X59013527Y-159330693D01*
X59028796Y-159313240D01*
X59043135Y-159294976D01*
X59056526Y-159275922D01*
X59068949Y-159256098D01*
X59080388Y-159235524D01*
X59090823Y-159214220D01*
X59100237Y-159192207D01*
X59108612Y-159169505D01*
X59115929Y-159146133D01*
X59122170Y-159122113D01*
X59127317Y-159097464D01*
X59131352Y-159072206D01*
X59134257Y-159046361D01*
X59136013Y-159019947D01*
X59136603Y-158992986D01*
X59136013Y-158964009D01*
X59134257Y-158935696D01*
X59131352Y-158908063D01*
X59127317Y-158881127D01*
X59122170Y-158854905D01*
X59115929Y-158829414D01*
X59108612Y-158804670D01*
X59100237Y-158780690D01*
X59090823Y-158757492D01*
X59080388Y-158735091D01*
X59068949Y-158713506D01*
X59056526Y-158692751D01*
X59043135Y-158672846D01*
X59028796Y-158653805D01*
X59013527Y-158635647D01*
X58997345Y-158618387D01*
X58980269Y-158602043D01*
X58962318Y-158586632D01*
X58943508Y-158572170D01*
X58923859Y-158558674D01*
X58903389Y-158546161D01*
X58882115Y-158534648D01*
X58860056Y-158524151D01*
X58837230Y-158514689D01*
X58813656Y-158506276D01*
X58789351Y-158498930D01*
X58764334Y-158492669D01*
X58738623Y-158487508D01*
X58712235Y-158483465D01*
X58685190Y-158480556D01*
X58657505Y-158478798D01*
X58629198Y-158478208D01*
X58600898Y-158478814D01*
X58573218Y-158480617D01*
X58546177Y-158483597D01*
X58519795Y-158487735D01*
X58494087Y-158493011D01*
X58469074Y-158499405D01*
X58444773Y-158506898D01*
X58421202Y-158515468D01*
X58398379Y-158525097D01*
X58376324Y-158535765D01*
X58355053Y-158547451D01*
X58334584Y-158560136D01*
X58314938Y-158573800D01*
X58296130Y-158588423D01*
X58278180Y-158603985D01*
X58261106Y-158620466D01*
X58244925Y-158637847D01*
X58229657Y-158656108D01*
X58215319Y-158675228D01*
X58201930Y-158695188D01*
X58189507Y-158715968D01*
X58178069Y-158737549D01*
X58167634Y-158759909D01*
X58158220Y-158783030D01*
X58149846Y-158806891D01*
X58142529Y-158831473D01*
X58136288Y-158856756D01*
X58131141Y-158882719D01*
X58127106Y-158909344D01*
X58124202Y-158936610D01*
X58122445Y-158964497D01*
X58121856Y-158992986D01*
X57692506Y-158992986D01*
X57689207Y-158961322D01*
X57685798Y-158906033D01*
X57684653Y-158849561D01*
X57686035Y-158786207D01*
X57690149Y-158722989D01*
X57696953Y-158659967D01*
X57706404Y-158597202D01*
X57718457Y-158534755D01*
X57733069Y-158472686D01*
X57750196Y-158411056D01*
X57769794Y-158349925D01*
X57791821Y-158289353D01*
X57816232Y-158229403D01*
X57842984Y-158170133D01*
X57872033Y-158111605D01*
X57936847Y-157997015D01*
X58010327Y-157886119D01*
X58092122Y-157779400D01*
X58181884Y-157677343D01*
X58279264Y-157580432D01*
X58383913Y-157489153D01*
X58495482Y-157403989D01*
X58613622Y-157325426D01*
X58737983Y-157253947D01*
X58802388Y-157221016D01*
X58868217Y-157190037D01*
X59028152Y-157508016D01*
X58963128Y-157541228D01*
X58899789Y-157576711D01*
X58838227Y-157614364D01*
X58778534Y-157654088D01*
X58720802Y-157695783D01*
X58665121Y-157739350D01*
X58611584Y-157784687D01*
X58560282Y-157831696D01*
X58511307Y-157880277D01*
X58464750Y-157930329D01*
X58420704Y-157981753D01*
X58379260Y-158034448D01*
X58340509Y-158088316D01*
X58304544Y-158143255D01*
X58271455Y-158199167D01*
X58241336Y-158255951D01*
X58266033Y-158237147D01*
X58291824Y-158219322D01*
X58318639Y-158202508D01*
X58346407Y-158186738D01*
X58375059Y-158172044D01*
X58404525Y-158158458D01*
X58434734Y-158146013D01*
X58465616Y-158134740D01*
X58497102Y-158124673D01*
X58529121Y-158115843D01*
X58561603Y-158108283D01*
X58594478Y-158102025D01*
X58627677Y-158097101D01*
X58661128Y-158093545D01*
X58694763Y-158091387D01*
X58728510Y-158090660D01*
X58774602Y-158091745D01*
X58819793Y-158094971D01*
X58864047Y-158100294D01*
X58907328Y-158107669D01*
X58949597Y-158117053D01*
X58990818Y-158128402D01*
X59030955Y-158141672D01*
X59069970Y-158156819D01*
X59107826Y-158173799D01*
X59144487Y-158192567D01*
X59179915Y-158213081D01*
X59214074Y-158235295D01*
X59246926Y-158259166D01*
X59278435Y-158284651D01*
X59308564Y-158311704D01*
X59337276Y-158340282D01*
X59364533Y-158370341D01*
X59390300Y-158401837D01*
X59414539Y-158434727D01*
X59437213Y-158468965D01*
X59458285Y-158504508D01*
X59477719Y-158541312D01*
X59495477Y-158579334D01*
X59511523Y-158618529D01*
X59525819Y-158658852D01*
X59538329Y-158700261D01*
X59549015Y-158742711D01*
X59557841Y-158786158D01*
X59564771Y-158830559D01*
X59569766Y-158875868D01*
X59572790Y-158922043D01*
X59573806Y-158969039D01*
X59572683Y-159018532D01*
X59569342Y-159067027D01*
X59563826Y-159114486D01*
X59556177Y-159160873D01*
X59546436Y-159206148D01*
X59534647Y-159250276D01*
X59520852Y-159293217D01*
X59505092Y-159334935D01*
X59487411Y-159375392D01*
X59467850Y-159414549D01*
X59446452Y-159452371D01*
X59423259Y-159488819D01*
X59398314Y-159523855D01*
X59371658Y-159557442D01*
X59343334Y-159589543D01*
X59313385Y-159620119D01*
X59281852Y-159649134D01*
X59248778Y-159676549D01*
X59214205Y-159702326D01*
X59178175Y-159726430D01*
X59140731Y-159748821D01*
X59101915Y-159769462D01*
X59061769Y-159788316D01*
X59020336Y-159805344D01*
X58977658Y-159820511D01*
X58933777Y-159833777D01*
X58888735Y-159845105D01*
X58842575Y-159854458D01*
X58795339Y-159861798D01*
X58747069Y-159867087D01*
X58697808Y-159870288D01*
X58647598Y-159871363D01*
X58594699Y-159870159D01*
X58542875Y-159866574D01*
X58492166Y-159860647D01*
X58442612Y-159852418D01*
X58394251Y-159841927D01*
X58347125Y-159829214D01*
X58301272Y-159814320D01*
X58271786Y-159803042D01*
X58755818Y-159803042D01*
X59022005Y-159803042D01*
X59022005Y-159544033D01*
X58755818Y-159544033D01*
X58755818Y-159803042D01*
X58271786Y-159803042D01*
X58256731Y-159797283D01*
X58213544Y-159778145D01*
G37*
G36*
X60035724Y-160002960D02*
G01*
X60060212Y-160004841D01*
X60084200Y-160007950D01*
X60107669Y-160012261D01*
X60130598Y-160017753D01*
X60152965Y-160024401D01*
X60174751Y-160032184D01*
X60195935Y-160041078D01*
X60216496Y-160051060D01*
X60236414Y-160062106D01*
X60255667Y-160074194D01*
X60274237Y-160087301D01*
X60292101Y-160101404D01*
X60309240Y-160116479D01*
X60325632Y-160132504D01*
X60341257Y-160149455D01*
X60356095Y-160167309D01*
X60370125Y-160186043D01*
X60383326Y-160205635D01*
X60395678Y-160226061D01*
X60407160Y-160247298D01*
X60417752Y-160269323D01*
X60427433Y-160292112D01*
X60436182Y-160315644D01*
X60443979Y-160339894D01*
X60450803Y-160364840D01*
X60456634Y-160390459D01*
X60461451Y-160416727D01*
X60465233Y-160443621D01*
X60467960Y-160471119D01*
X60469611Y-160499197D01*
X60470166Y-160527833D01*
X60470166Y-161272801D01*
X60203978Y-161272801D01*
X60203978Y-160573385D01*
X60203632Y-160554682D01*
X60202601Y-160536364D01*
X60200898Y-160518447D01*
X60198535Y-160500942D01*
X60195522Y-160483865D01*
X60191873Y-160467228D01*
X60187599Y-160451045D01*
X60182711Y-160435330D01*
X60177223Y-160420097D01*
X60171144Y-160405358D01*
X60164489Y-160391128D01*
X60157268Y-160377421D01*
X60149493Y-160364249D01*
X60141176Y-160351626D01*
X60132329Y-160339567D01*
X60122964Y-160328085D01*
X60113093Y-160317193D01*
X60102728Y-160306905D01*
X60091879Y-160297234D01*
X60080561Y-160288195D01*
X60068784Y-160279801D01*
X60056559Y-160272065D01*
X60043900Y-160265001D01*
X60030818Y-160258623D01*
X60017324Y-160252944D01*
X60003431Y-160247979D01*
X59989151Y-160243740D01*
X59974495Y-160240241D01*
X59959475Y-160237496D01*
X59944104Y-160235518D01*
X59928392Y-160234321D01*
X59912353Y-160233919D01*
X59896265Y-160234321D01*
X59880413Y-160235519D01*
X59864814Y-160237498D01*
X59849487Y-160240248D01*
X59834450Y-160243753D01*
X59819721Y-160248002D01*
X59805317Y-160252982D01*
X59791258Y-160258679D01*
X59777560Y-160265081D01*
X59764242Y-160272175D01*
X59751322Y-160279947D01*
X59738819Y-160288384D01*
X59726749Y-160297475D01*
X59715132Y-160307205D01*
X59703984Y-160317563D01*
X59693325Y-160328534D01*
X59683172Y-160340105D01*
X59673543Y-160352265D01*
X59664457Y-160365000D01*
X59655931Y-160378297D01*
X59647984Y-160392143D01*
X59640632Y-160406524D01*
X59633896Y-160421429D01*
X59627792Y-160436844D01*
X59622338Y-160452757D01*
X59617553Y-160469153D01*
X59613455Y-160486021D01*
X59610061Y-160503347D01*
X59607390Y-160521118D01*
X59605460Y-160539322D01*
X59604289Y-160557945D01*
X59603895Y-160576974D01*
X59603895Y-161272801D01*
X59337705Y-161272801D01*
X59337705Y-160025164D01*
X59505612Y-160025164D01*
X59573938Y-160214671D01*
X59592619Y-160190348D01*
X59612638Y-160167325D01*
X59633953Y-160145640D01*
X59656526Y-160125330D01*
X59680315Y-160106431D01*
X59705281Y-160088982D01*
X59731382Y-160073018D01*
X59758580Y-160058577D01*
X59786832Y-160045696D01*
X59816099Y-160034413D01*
X59846341Y-160024763D01*
X59877517Y-160016785D01*
X59909587Y-160010515D01*
X59942511Y-160005991D01*
X59976248Y-160003249D01*
X60010758Y-160002327D01*
X60035724Y-160002960D01*
G37*
G36*
X59023243Y-161272801D02*
G01*
X58755818Y-161272801D01*
X58755818Y-160025164D01*
X59023243Y-160025164D01*
X59023243Y-161272801D01*
G37*
G36*
X62818870Y-160004193D02*
G01*
X62848458Y-160006064D01*
X62878181Y-160009154D01*
X62907967Y-160013441D01*
X62937744Y-160018902D01*
X62967440Y-160025513D01*
X62996983Y-160033253D01*
X63026302Y-160042099D01*
X63055324Y-160052028D01*
X63083977Y-160063016D01*
X63112190Y-160075042D01*
X63139890Y-160088083D01*
X63167006Y-160102115D01*
X63193466Y-160117116D01*
X63219198Y-160133064D01*
X63244131Y-160149935D01*
X63115833Y-160328673D01*
X63097863Y-160317739D01*
X63079517Y-160307433D01*
X63060840Y-160297767D01*
X63041877Y-160288751D01*
X63022675Y-160280394D01*
X63003279Y-160272709D01*
X62983734Y-160265706D01*
X62964087Y-160259394D01*
X62944382Y-160253786D01*
X62924665Y-160248891D01*
X62904983Y-160244719D01*
X62885380Y-160241283D01*
X62865902Y-160238591D01*
X62846594Y-160236656D01*
X62827503Y-160235487D01*
X62808674Y-160235095D01*
X62797867Y-160235277D01*
X62787279Y-160235817D01*
X62776917Y-160236711D01*
X62766791Y-160237951D01*
X62756908Y-160239531D01*
X62747277Y-160241445D01*
X62737905Y-160243686D01*
X62728801Y-160246248D01*
X62719972Y-160249125D01*
X62711428Y-160252310D01*
X62703176Y-160255797D01*
X62695224Y-160259579D01*
X62687580Y-160263650D01*
X62680254Y-160268004D01*
X62673252Y-160272635D01*
X62666583Y-160277535D01*
X62660255Y-160282700D01*
X62654276Y-160288121D01*
X62648654Y-160293793D01*
X62643398Y-160299710D01*
X62638516Y-160305865D01*
X62634015Y-160312252D01*
X62629905Y-160318864D01*
X62626192Y-160325695D01*
X62622886Y-160332739D01*
X62619994Y-160339990D01*
X62617525Y-160347440D01*
X62615486Y-160355084D01*
X62613887Y-160362915D01*
X62612734Y-160370927D01*
X62612036Y-160379113D01*
X62611802Y-160387468D01*
X62611935Y-160392159D01*
X62612335Y-160396786D01*
X62613001Y-160401350D01*
X62613931Y-160405850D01*
X62615124Y-160410285D01*
X62616581Y-160414656D01*
X62618300Y-160418962D01*
X62620280Y-160423203D01*
X62625020Y-160431491D01*
X62630794Y-160439516D01*
X62637595Y-160447277D01*
X62645416Y-160454773D01*
X62654251Y-160462002D01*
X62664091Y-160468963D01*
X62674931Y-160475654D01*
X62686764Y-160482072D01*
X62699581Y-160488218D01*
X62713377Y-160494088D01*
X62728144Y-160499681D01*
X62743876Y-160504997D01*
X62965873Y-160574623D01*
X63000511Y-160586756D01*
X63033321Y-160600621D01*
X63064248Y-160616151D01*
X63093235Y-160633280D01*
X63120226Y-160651941D01*
X63145165Y-160672068D01*
X63156848Y-160682660D01*
X63167996Y-160693593D01*
X63178603Y-160704860D01*
X63188662Y-160716451D01*
X63198166Y-160728359D01*
X63207107Y-160740575D01*
X63215479Y-160753090D01*
X63223275Y-160765897D01*
X63230488Y-160778987D01*
X63237110Y-160792351D01*
X63243135Y-160805983D01*
X63248556Y-160819872D01*
X63253365Y-160834011D01*
X63257556Y-160848391D01*
X63261121Y-160863005D01*
X63264054Y-160877843D01*
X63266347Y-160892898D01*
X63267994Y-160908161D01*
X63268987Y-160923623D01*
X63269320Y-160939277D01*
X63268775Y-160959088D01*
X63267150Y-160978463D01*
X63264464Y-160997391D01*
X63260733Y-161015858D01*
X63255973Y-161033853D01*
X63250203Y-161051361D01*
X63243440Y-161068371D01*
X63235699Y-161084870D01*
X63227000Y-161100846D01*
X63217358Y-161116284D01*
X63206790Y-161131173D01*
X63195315Y-161145500D01*
X63182949Y-161159252D01*
X63169708Y-161172417D01*
X63155611Y-161184981D01*
X63140674Y-161196933D01*
X63124915Y-161208258D01*
X63108349Y-161218945D01*
X63090996Y-161228981D01*
X63072871Y-161238354D01*
X63034376Y-161255055D01*
X62993000Y-161268948D01*
X62948881Y-161279931D01*
X62902156Y-161287902D01*
X62852960Y-161292760D01*
X62801432Y-161294401D01*
X62759629Y-161293219D01*
X62718020Y-161289721D01*
X62676768Y-161283984D01*
X62636036Y-161276084D01*
X62595987Y-161266095D01*
X62556784Y-161254094D01*
X62518591Y-161240157D01*
X62481570Y-161224358D01*
X62445886Y-161206773D01*
X62411701Y-161187478D01*
X62379178Y-161166549D01*
X62348480Y-161144061D01*
X62319771Y-161120090D01*
X62293214Y-161094712D01*
X62268972Y-161068001D01*
X62257771Y-161054170D01*
X62247209Y-161040034D01*
X62411589Y-160893726D01*
X62427393Y-160912424D01*
X62444608Y-160930260D01*
X62463128Y-160947187D01*
X62482845Y-160963158D01*
X62503652Y-160978125D01*
X62525442Y-160992040D01*
X62548108Y-161004855D01*
X62571543Y-161016524D01*
X62595639Y-161026998D01*
X62620289Y-161036230D01*
X62645386Y-161044172D01*
X62670823Y-161050777D01*
X62696494Y-161055997D01*
X62722289Y-161059785D01*
X62748104Y-161062092D01*
X62773830Y-161062872D01*
X62786746Y-161062721D01*
X62799379Y-161062273D01*
X62811721Y-161061533D01*
X62823764Y-161060504D01*
X62835499Y-161059192D01*
X62846917Y-161057602D01*
X62858011Y-161055739D01*
X62868772Y-161053607D01*
X62879192Y-161051212D01*
X62889263Y-161048558D01*
X62898975Y-161045650D01*
X62908321Y-161042493D01*
X62917293Y-161039091D01*
X62925881Y-161035451D01*
X62934078Y-161031575D01*
X62941876Y-161027470D01*
X62949266Y-161023140D01*
X62956239Y-161018591D01*
X62962788Y-161013826D01*
X62968903Y-161008850D01*
X62974578Y-161003670D01*
X62979803Y-160998289D01*
X62984569Y-160992712D01*
X62988870Y-160986944D01*
X62992695Y-160980990D01*
X62996038Y-160974855D01*
X62998889Y-160968543D01*
X63001241Y-160962061D01*
X63003084Y-160955411D01*
X63004412Y-160948600D01*
X63005214Y-160941632D01*
X63005483Y-160934511D01*
X63005266Y-160927676D01*
X63004619Y-160920901D01*
X63003548Y-160914190D01*
X63002059Y-160907546D01*
X63000158Y-160900972D01*
X62997851Y-160894472D01*
X62995143Y-160888050D01*
X62992041Y-160881709D01*
X62984677Y-160869284D01*
X62975806Y-160857226D01*
X62965477Y-160845562D01*
X62953736Y-160834320D01*
X62940630Y-160823529D01*
X62926208Y-160813216D01*
X62910516Y-160803409D01*
X62893603Y-160794137D01*
X62875515Y-160785428D01*
X62856300Y-160777308D01*
X62836005Y-160769808D01*
X62814677Y-160762954D01*
X62597444Y-160698154D01*
X62570134Y-160688849D01*
X62544027Y-160677631D01*
X62519200Y-160664585D01*
X62495731Y-160649795D01*
X62473695Y-160633346D01*
X62453171Y-160615321D01*
X62434235Y-160595806D01*
X62416965Y-160574885D01*
X62401438Y-160552643D01*
X62387730Y-160529164D01*
X62375920Y-160504532D01*
X62366084Y-160478833D01*
X62358300Y-160452150D01*
X62355201Y-160438466D01*
X62352644Y-160424568D01*
X62350639Y-160410466D01*
X62349194Y-160396171D01*
X62348320Y-160381694D01*
X62348027Y-160367045D01*
X62348551Y-160346791D01*
X62350111Y-160326980D01*
X62352688Y-160307624D01*
X62356266Y-160288737D01*
X62360825Y-160270331D01*
X62366349Y-160252420D01*
X62372819Y-160235017D01*
X62380216Y-160218135D01*
X62388524Y-160201788D01*
X62397724Y-160185988D01*
X62407799Y-160170749D01*
X62418729Y-160156084D01*
X62430498Y-160142005D01*
X62443087Y-160128527D01*
X62456478Y-160115662D01*
X62470654Y-160103424D01*
X62485596Y-160091826D01*
X62501287Y-160080880D01*
X62517708Y-160070600D01*
X62534842Y-160061000D01*
X62552671Y-160052092D01*
X62571176Y-160043889D01*
X62590339Y-160036405D01*
X62610144Y-160029653D01*
X62630571Y-160023646D01*
X62651602Y-160018397D01*
X62695409Y-160010227D01*
X62741418Y-160005248D01*
X62789488Y-160003565D01*
X62818870Y-160004193D01*
G37*
G36*
X57037570Y-160828928D02*
G01*
X57037845Y-160841636D01*
X57038665Y-160854108D01*
X57040018Y-160866334D01*
X57041892Y-160878301D01*
X57044276Y-160889998D01*
X57047158Y-160901416D01*
X57050527Y-160912543D01*
X57054372Y-160923368D01*
X57058680Y-160933880D01*
X57063442Y-160944068D01*
X57068644Y-160953921D01*
X57074277Y-160963428D01*
X57080327Y-160972579D01*
X57086785Y-160981361D01*
X57093638Y-160989765D01*
X57100875Y-160997779D01*
X57108485Y-161005392D01*
X57116456Y-161012594D01*
X57124776Y-161019373D01*
X57133435Y-161025718D01*
X57142421Y-161031619D01*
X57151722Y-161037064D01*
X57161328Y-161042043D01*
X57171225Y-161046544D01*
X57181404Y-161050557D01*
X57191853Y-161054070D01*
X57202560Y-161057073D01*
X57213514Y-161059555D01*
X57224703Y-161061504D01*
X57236116Y-161062910D01*
X57247741Y-161063761D01*
X57259568Y-161064048D01*
X57270303Y-161063842D01*
X57280894Y-161063229D01*
X57291330Y-161062217D01*
X57301602Y-161060816D01*
X57311699Y-161059031D01*
X57321610Y-161056873D01*
X57331326Y-161054349D01*
X57340835Y-161051467D01*
X57350128Y-161048235D01*
X57359195Y-161044661D01*
X57368025Y-161040754D01*
X57376607Y-161036521D01*
X57384932Y-161031972D01*
X57392989Y-161027113D01*
X57400768Y-161021953D01*
X57408258Y-161016501D01*
X57415450Y-161010764D01*
X57422332Y-161004750D01*
X57428895Y-160998468D01*
X57435128Y-160991926D01*
X57441022Y-160985131D01*
X57446564Y-160978093D01*
X57451746Y-160970818D01*
X57456557Y-160963316D01*
X57460987Y-160955595D01*
X57465025Y-160947662D01*
X57468662Y-160939525D01*
X57471886Y-160931194D01*
X57474687Y-160922675D01*
X57477055Y-160913978D01*
X57478981Y-160905110D01*
X57480453Y-160896079D01*
X57480453Y-160025164D01*
X57746642Y-160025164D01*
X57746642Y-160896079D01*
X57748217Y-160905110D01*
X57750231Y-160913978D01*
X57752675Y-160922675D01*
X57755537Y-160931194D01*
X57758807Y-160939525D01*
X57762476Y-160947662D01*
X57766533Y-160955595D01*
X57770967Y-160963316D01*
X57775769Y-160970818D01*
X57780927Y-160978093D01*
X57786432Y-160985131D01*
X57792274Y-160991926D01*
X57798441Y-160998468D01*
X57804924Y-161004750D01*
X57818797Y-161016501D01*
X57833809Y-161027113D01*
X57849878Y-161036521D01*
X57866922Y-161044661D01*
X57884858Y-161051467D01*
X57903603Y-161056873D01*
X57923076Y-161060816D01*
X57933060Y-161062217D01*
X57943194Y-161063229D01*
X57953469Y-161063842D01*
X57963874Y-161064048D01*
X57975817Y-161063758D01*
X57987558Y-161062896D01*
X57999085Y-161061474D01*
X58010388Y-161059504D01*
X58021454Y-161056997D01*
X58032272Y-161053964D01*
X58042830Y-161050418D01*
X58053117Y-161046370D01*
X58063120Y-161041832D01*
X58072829Y-161036815D01*
X58082231Y-161031331D01*
X58091315Y-161025392D01*
X58100070Y-161019009D01*
X58108483Y-161012194D01*
X58116543Y-161004959D01*
X58124239Y-160997315D01*
X58131558Y-160989274D01*
X58138490Y-160980847D01*
X58145022Y-160972047D01*
X58151143Y-160962884D01*
X58156841Y-160953371D01*
X58162105Y-160943519D01*
X58166922Y-160933340D01*
X58171282Y-160922846D01*
X58175173Y-160912047D01*
X58178582Y-160900956D01*
X58181499Y-160889585D01*
X58183912Y-160877945D01*
X58185809Y-160866047D01*
X58187178Y-160853904D01*
X58188008Y-160841527D01*
X58188287Y-160828928D01*
X58188287Y-160025164D01*
X58454538Y-160025164D01*
X58454538Y-160828928D01*
X58453980Y-160854538D01*
X58452317Y-160879623D01*
X58449572Y-160904165D01*
X58445765Y-160928144D01*
X58440915Y-160951541D01*
X58435045Y-160974338D01*
X58428174Y-160996516D01*
X58420323Y-161018056D01*
X58411512Y-161038938D01*
X58401763Y-161059145D01*
X58391096Y-161078656D01*
X58379531Y-161097454D01*
X58367089Y-161115519D01*
X58353791Y-161132833D01*
X58339657Y-161149376D01*
X58324708Y-161165129D01*
X58308965Y-161180074D01*
X58292447Y-161194192D01*
X58275177Y-161207464D01*
X58257173Y-161219871D01*
X58238457Y-161231394D01*
X58219050Y-161242014D01*
X58198972Y-161251713D01*
X58178244Y-161260470D01*
X58156886Y-161268269D01*
X58134918Y-161275088D01*
X58112362Y-161280911D01*
X58089239Y-161285717D01*
X58065568Y-161289488D01*
X58041370Y-161292205D01*
X58016666Y-161293849D01*
X57991477Y-161294401D01*
X57959979Y-161293581D01*
X57929010Y-161291153D01*
X57898673Y-161287171D01*
X57869075Y-161281689D01*
X57840321Y-161274758D01*
X57812517Y-161266431D01*
X57785768Y-161256762D01*
X57760180Y-161245803D01*
X57735858Y-161233606D01*
X57724205Y-161227060D01*
X57712908Y-161220225D01*
X57701981Y-161213106D01*
X57691436Y-161205711D01*
X57681286Y-161198047D01*
X57671546Y-161190119D01*
X57662228Y-161181935D01*
X57653345Y-161173501D01*
X57644910Y-161164823D01*
X57636938Y-161155909D01*
X57629440Y-161146765D01*
X57622430Y-161137397D01*
X57615921Y-161127812D01*
X57609927Y-161118016D01*
X57598057Y-161137397D01*
X57584104Y-161155909D01*
X57568179Y-161173501D01*
X57550392Y-161190119D01*
X57530854Y-161205711D01*
X57509675Y-161220225D01*
X57486966Y-161233606D01*
X57462838Y-161245803D01*
X57437400Y-161256762D01*
X57410764Y-161266431D01*
X57383040Y-161274758D01*
X57354338Y-161281689D01*
X57324769Y-161287171D01*
X57294443Y-161291153D01*
X57263472Y-161293581D01*
X57231965Y-161294401D01*
X57206788Y-161293846D01*
X57182109Y-161292192D01*
X57157948Y-161289460D01*
X57134325Y-161285669D01*
X57111259Y-161280838D01*
X57088770Y-161274988D01*
X57066878Y-161268137D01*
X57045602Y-161260305D01*
X57024963Y-161251512D01*
X57004980Y-161241777D01*
X56985673Y-161231120D01*
X56967061Y-161219561D01*
X56949165Y-161207118D01*
X56932003Y-161193812D01*
X56915597Y-161179662D01*
X56899965Y-161164688D01*
X56885128Y-161148909D01*
X56871104Y-161132344D01*
X56857915Y-161115014D01*
X56845579Y-161096937D01*
X56834116Y-161078134D01*
X56823547Y-161058623D01*
X56813891Y-161038425D01*
X56805167Y-161017559D01*
X56797395Y-160996045D01*
X56790596Y-160973901D01*
X56784788Y-160951148D01*
X56779992Y-160927806D01*
X56776228Y-160903893D01*
X56773514Y-160879429D01*
X56771872Y-160854434D01*
X56771320Y-160828928D01*
X56771320Y-160025164D01*
X57037570Y-160025164D01*
X57037570Y-160828928D01*
G37*
G36*
X60708276Y-160584571D02*
G01*
X60711742Y-160550463D01*
X60716550Y-160517114D01*
X60722675Y-160484552D01*
X60730089Y-160452806D01*
X60738767Y-160421903D01*
X60748683Y-160391870D01*
X60759812Y-160362736D01*
X60772127Y-160334529D01*
X60785603Y-160307276D01*
X60800214Y-160281006D01*
X60815934Y-160255745D01*
X60832736Y-160231522D01*
X60850596Y-160208365D01*
X60869487Y-160186302D01*
X60889384Y-160165360D01*
X60910260Y-160145568D01*
X60932089Y-160126952D01*
X60954847Y-160109542D01*
X60978506Y-160093364D01*
X61003042Y-160078447D01*
X61028427Y-160064819D01*
X61054637Y-160052507D01*
X61081645Y-160041539D01*
X61109426Y-160031943D01*
X61137954Y-160023747D01*
X61167202Y-160016979D01*
X61197146Y-160011666D01*
X61227758Y-160007837D01*
X61259014Y-160005519D01*
X61290887Y-160004741D01*
X61324301Y-160005634D01*
X61357007Y-160008293D01*
X61388974Y-160012684D01*
X61420171Y-160018774D01*
X61450565Y-160026529D01*
X61480126Y-160035916D01*
X61508822Y-160046901D01*
X61536621Y-160059451D01*
X61563491Y-160073534D01*
X61589402Y-160089114D01*
X61614321Y-160106160D01*
X61638217Y-160124637D01*
X61661058Y-160144513D01*
X61682814Y-160165754D01*
X61703451Y-160188326D01*
X61722940Y-160212196D01*
X61722940Y-159545209D01*
X61989128Y-159545209D01*
X61989128Y-161272801D01*
X61820046Y-161272801D01*
X61754070Y-161046160D01*
X61734647Y-161074653D01*
X61713749Y-161101638D01*
X61691419Y-161127070D01*
X61667703Y-161150903D01*
X61642644Y-161173091D01*
X61616285Y-161193589D01*
X61588671Y-161212351D01*
X61559845Y-161229332D01*
X61529851Y-161244486D01*
X61498734Y-161257767D01*
X61466537Y-161269130D01*
X61433303Y-161278530D01*
X61399078Y-161285920D01*
X61363904Y-161291255D01*
X61327826Y-161294489D01*
X61290887Y-161295577D01*
X61259014Y-161294809D01*
X61227758Y-161292523D01*
X61197146Y-161288746D01*
X61167202Y-161283507D01*
X61137954Y-161276833D01*
X61109426Y-161268751D01*
X61081645Y-161259289D01*
X61054637Y-161248474D01*
X61028427Y-161236335D01*
X61003042Y-161222899D01*
X60978506Y-161208193D01*
X60954847Y-161192244D01*
X60932089Y-161175082D01*
X60910260Y-161156733D01*
X60889384Y-161137224D01*
X60869487Y-161116584D01*
X60850596Y-161094840D01*
X60832736Y-161072019D01*
X60815934Y-161048149D01*
X60800214Y-161023259D01*
X60785603Y-160997374D01*
X60772127Y-160970524D01*
X60759812Y-160942735D01*
X60748683Y-160914035D01*
X60738767Y-160884451D01*
X60730089Y-160854012D01*
X60722675Y-160822745D01*
X60716550Y-160790678D01*
X60711742Y-160757838D01*
X60708276Y-160724252D01*
X60706177Y-160689948D01*
X60705472Y-160654955D01*
X60971721Y-160654955D01*
X60972172Y-160677033D01*
X60973512Y-160698705D01*
X60975724Y-160719952D01*
X60978792Y-160740754D01*
X60982697Y-160761092D01*
X60987422Y-160780947D01*
X60992950Y-160800300D01*
X60999263Y-160819130D01*
X61006345Y-160837419D01*
X61014177Y-160855148D01*
X61022743Y-160872296D01*
X61032025Y-160888845D01*
X61042006Y-160904776D01*
X61052668Y-160920068D01*
X61063994Y-160934703D01*
X61075967Y-160948661D01*
X61088569Y-160961923D01*
X61101783Y-160974470D01*
X61115592Y-160986282D01*
X61129978Y-160997339D01*
X61144925Y-161007624D01*
X61160413Y-161017115D01*
X61176427Y-161025795D01*
X61192949Y-161033643D01*
X61209962Y-161040640D01*
X61227448Y-161046766D01*
X61245389Y-161052004D01*
X61263769Y-161056332D01*
X61282571Y-161059733D01*
X61301776Y-161062185D01*
X61321367Y-161063671D01*
X61341328Y-161064171D01*
X61361954Y-161063671D01*
X61382198Y-161062185D01*
X61402040Y-161059733D01*
X61421463Y-161056332D01*
X61440449Y-161052004D01*
X61458981Y-161046766D01*
X61477041Y-161040640D01*
X61494610Y-161033643D01*
X61511671Y-161025795D01*
X61528207Y-161017115D01*
X61544199Y-161007624D01*
X61559630Y-160997339D01*
X61574481Y-160986282D01*
X61588736Y-160974470D01*
X61602376Y-160961923D01*
X61615383Y-160948661D01*
X61627740Y-160934703D01*
X61639429Y-160920068D01*
X61650431Y-160904776D01*
X61660730Y-160888845D01*
X61670307Y-160872296D01*
X61679145Y-160855148D01*
X61687226Y-160837419D01*
X61694532Y-160819130D01*
X61701044Y-160800300D01*
X61706747Y-160780947D01*
X61711620Y-160761092D01*
X61715648Y-160740754D01*
X61718812Y-160719952D01*
X61721093Y-160698705D01*
X61722475Y-160677033D01*
X61722940Y-160654955D01*
X61722475Y-160632321D01*
X61721093Y-160610108D01*
X61718812Y-160588334D01*
X61715648Y-160567020D01*
X61711620Y-160546185D01*
X61706747Y-160525848D01*
X61701044Y-160506029D01*
X61694532Y-160486748D01*
X61687226Y-160468024D01*
X61679145Y-160449877D01*
X61670307Y-160432326D01*
X61660730Y-160415392D01*
X61650431Y-160399092D01*
X61639429Y-160383448D01*
X61627740Y-160368478D01*
X61615383Y-160354202D01*
X61602376Y-160340639D01*
X61588736Y-160327810D01*
X61574481Y-160315734D01*
X61559630Y-160304430D01*
X61544199Y-160293918D01*
X61528207Y-160284218D01*
X61511671Y-160275348D01*
X61494610Y-160267330D01*
X61477041Y-160260181D01*
X61458981Y-160253922D01*
X61440449Y-160248572D01*
X61421463Y-160244151D01*
X61402040Y-160240679D01*
X61382198Y-160238174D01*
X61361954Y-160236657D01*
X61341328Y-160236147D01*
X61321367Y-160236657D01*
X61301776Y-160238174D01*
X61282571Y-160240679D01*
X61263769Y-160244151D01*
X61245389Y-160248572D01*
X61227448Y-160253922D01*
X61209962Y-160260181D01*
X61192949Y-160267330D01*
X61176427Y-160275348D01*
X61160413Y-160284218D01*
X61144925Y-160293918D01*
X61129978Y-160304430D01*
X61115592Y-160315734D01*
X61101783Y-160327810D01*
X61088569Y-160340639D01*
X61075967Y-160354202D01*
X61063994Y-160368478D01*
X61052668Y-160383448D01*
X61042006Y-160399092D01*
X61032025Y-160415392D01*
X61022743Y-160432326D01*
X61014177Y-160449877D01*
X61006345Y-160468024D01*
X60999263Y-160486748D01*
X60992950Y-160506029D01*
X60987422Y-160525848D01*
X60982697Y-160546185D01*
X60978792Y-160567020D01*
X60975724Y-160588334D01*
X60973512Y-160610108D01*
X60972172Y-160632321D01*
X60971721Y-160654955D01*
X60705472Y-160654955D01*
X60706177Y-160619411D01*
X60708276Y-160584571D01*
G37*
D11*
X55872009Y-161692017D02*
X55872009Y-155691983D01*
X55872009Y-161692017D02*
X55872009Y-161692017D01*
X63871991Y-161692017D02*
X55872009Y-161692017D01*
X63871991Y-161692017D02*
X63871991Y-161692017D01*
X63871991Y-155691983D02*
X63871991Y-161692017D01*
X63871991Y-155691983D02*
X63871991Y-155691983D01*
X55872009Y-155691983D02*
X63871991Y-155691983D01*
D12*
X63003825Y-40757761D02*
X61154216Y-40757761D01*
X61154216Y-41759358D01*
X62664521Y-41759358D01*
X62664521Y-42246567D01*
X61154216Y-42246567D01*
X61154216Y-43128695D01*
X63066051Y-43128695D01*
X63066051Y-43615903D01*
X60600059Y-43615903D01*
X60600059Y-40270553D01*
X63003825Y-40270553D01*
X63003825Y-40757761D01*
X65214566Y-40241870D02*
X66662799Y-43615903D01*
X66093938Y-43615903D01*
X65857415Y-43023297D01*
X64225133Y-43023297D01*
X63988610Y-43615903D01*
X63422229Y-43615903D01*
X63866136Y-42588409D01*
X64397262Y-42588409D01*
X65685287Y-42588409D01*
X65042436Y-40970693D01*
X64397262Y-42588409D01*
X63866136Y-42588409D01*
X64879907Y-40241870D01*
X65214566Y-40241870D01*
X53277576Y-41846512D02*
X53283704Y-41754042D01*
X53293828Y-41663503D01*
X53307874Y-41574968D01*
X53325768Y-41488512D01*
X53347435Y-41404211D01*
X53372802Y-41322139D01*
X53401796Y-41242370D01*
X53434342Y-41164979D01*
X53470367Y-41090041D01*
X53509797Y-41017631D01*
X53552558Y-40947823D01*
X53598576Y-40880692D01*
X53647777Y-40816313D01*
X53700088Y-40754761D01*
X53755434Y-40696109D01*
X53813742Y-40640434D01*
X53874939Y-40587809D01*
X53938949Y-40538309D01*
X54005700Y-40492009D01*
X54075117Y-40448984D01*
X54147127Y-40409309D01*
X54221656Y-40373057D01*
X54298630Y-40340304D01*
X54377975Y-40311125D01*
X54459618Y-40285594D01*
X54543484Y-40263786D01*
X54629500Y-40245775D01*
X54717592Y-40231637D01*
X54807685Y-40221445D01*
X54899707Y-40215276D01*
X54993584Y-40213203D01*
X55087688Y-40215276D01*
X55179951Y-40221445D01*
X55270297Y-40231637D01*
X55358651Y-40245775D01*
X55444939Y-40263786D01*
X55529084Y-40285594D01*
X55611013Y-40311125D01*
X55690648Y-40340304D01*
X55767917Y-40373057D01*
X55842743Y-40409309D01*
X55915051Y-40448984D01*
X55984766Y-40492009D01*
X56051812Y-40538309D01*
X56116116Y-40587809D01*
X56177601Y-40640434D01*
X56236193Y-40696109D01*
X56291815Y-40754761D01*
X56344394Y-40816313D01*
X56393854Y-40880692D01*
X56440120Y-40947823D01*
X56483116Y-41017631D01*
X56522768Y-41090041D01*
X56559000Y-41164979D01*
X56591737Y-41242370D01*
X56620904Y-41322139D01*
X56646426Y-41404211D01*
X56668228Y-41488512D01*
X56686235Y-41574968D01*
X56700370Y-41663503D01*
X56710560Y-41754042D01*
X56716730Y-41846512D01*
X56718803Y-41940837D01*
X56716729Y-42035379D01*
X56710559Y-42128053D01*
X56700366Y-42218784D01*
X56686225Y-42307497D01*
X56668210Y-42394119D01*
X56646395Y-42478574D01*
X56620854Y-42560790D01*
X56591663Y-42640690D01*
X56558894Y-42718202D01*
X56522622Y-42793251D01*
X56482922Y-42865763D01*
X56439868Y-42935663D01*
X56393534Y-43002878D01*
X56343995Y-43067332D01*
X56291324Y-43128952D01*
X56235597Y-43187663D01*
X56176886Y-43243391D01*
X56115267Y-43296063D01*
X56050814Y-43345602D01*
X55983602Y-43391936D01*
X55913703Y-43434991D01*
X55841194Y-43474690D01*
X55766147Y-43510962D01*
X55688637Y-43543731D01*
X55608739Y-43572922D01*
X55526527Y-43598463D01*
X55442075Y-43620278D01*
X55355457Y-43638293D01*
X55266749Y-43652434D01*
X55176022Y-43662626D01*
X55083354Y-43668796D01*
X54988817Y-43670870D01*
X54895373Y-43668790D01*
X54803757Y-43662600D01*
X54714043Y-43652376D01*
X54626306Y-43638194D01*
X54540620Y-43620129D01*
X54457061Y-43598257D01*
X54375702Y-43572653D01*
X54296619Y-43543393D01*
X54219886Y-43510553D01*
X54145578Y-43474207D01*
X54073770Y-43434432D01*
X54004536Y-43391304D01*
X53937951Y-43344897D01*
X53874090Y-43295288D01*
X53813027Y-43242551D01*
X53754838Y-43186763D01*
X53699597Y-43128000D01*
X53647378Y-43066336D01*
X53598256Y-43001847D01*
X53552306Y-42934609D01*
X53509603Y-42864698D01*
X53470222Y-42792188D01*
X53434236Y-42717157D01*
X53401722Y-42639678D01*
X53372752Y-42559829D01*
X53347403Y-42477683D01*
X53325749Y-42393318D01*
X53307865Y-42306808D01*
X53293825Y-42218230D01*
X53283703Y-42127658D01*
X53277576Y-42035168D01*
X53275934Y-41959954D01*
X53841591Y-41959954D01*
X53842996Y-42025239D01*
X53847175Y-42089306D01*
X53854073Y-42152099D01*
X53863633Y-42213562D01*
X53875802Y-42273637D01*
X53890524Y-42332271D01*
X53907744Y-42389406D01*
X53927407Y-42444986D01*
X53949458Y-42498956D01*
X53973841Y-42551259D01*
X54000502Y-42601840D01*
X54029385Y-42650642D01*
X54060435Y-42697610D01*
X54093597Y-42742687D01*
X54128816Y-42785818D01*
X54166037Y-42826945D01*
X54205204Y-42866015D01*
X54246263Y-42902969D01*
X54289158Y-42937753D01*
X54333835Y-42970311D01*
X54380237Y-43000585D01*
X54428311Y-43028521D01*
X54478000Y-43054062D01*
X54529250Y-43077153D01*
X54582005Y-43097737D01*
X54636211Y-43115757D01*
X54691812Y-43131160D01*
X54748753Y-43143887D01*
X54806979Y-43153884D01*
X54866435Y-43161093D01*
X54927066Y-43165460D01*
X54988817Y-43166928D01*
X55051658Y-43165453D01*
X55113326Y-43161065D01*
X55173765Y-43153818D01*
X55232923Y-43143770D01*
X55290746Y-43130975D01*
X55347179Y-43115489D01*
X55402169Y-43097367D01*
X55455662Y-43076666D01*
X55507605Y-43053441D01*
X55557942Y-43027746D01*
X55606621Y-42999639D01*
X55653588Y-42969174D01*
X55698788Y-42936407D01*
X55742169Y-42901394D01*
X55783675Y-42864191D01*
X55823254Y-42824852D01*
X55860851Y-42783433D01*
X55896413Y-42739991D01*
X55929885Y-42694580D01*
X55961215Y-42647256D01*
X55990347Y-42598075D01*
X56017229Y-42547092D01*
X56041806Y-42494364D01*
X56064024Y-42439944D01*
X56083831Y-42383890D01*
X56101171Y-42326257D01*
X56115991Y-42267099D01*
X56128237Y-42206474D01*
X56137856Y-42144436D01*
X56144793Y-42081041D01*
X56148995Y-42016345D01*
X56150407Y-41950403D01*
X56149001Y-41883569D01*
X56144820Y-41817997D01*
X56137916Y-41753742D01*
X56128344Y-41690861D01*
X56116156Y-41629410D01*
X56101406Y-41569445D01*
X56084148Y-41511024D01*
X56064434Y-41454202D01*
X56042318Y-41399036D01*
X56017854Y-41345583D01*
X55991095Y-41293898D01*
X55962095Y-41244039D01*
X55930906Y-41196062D01*
X55897582Y-41150023D01*
X55862177Y-41105979D01*
X55824744Y-41063986D01*
X55785336Y-41024101D01*
X55744007Y-40986380D01*
X55700811Y-40950879D01*
X55655800Y-40917655D01*
X55609028Y-40886765D01*
X55560548Y-40858265D01*
X55510414Y-40832211D01*
X55458679Y-40808660D01*
X55405398Y-40787668D01*
X55350622Y-40769292D01*
X55294405Y-40753589D01*
X55236802Y-40740613D01*
X55177864Y-40730423D01*
X55117647Y-40723075D01*
X55056202Y-40718624D01*
X54993584Y-40717128D01*
X54931821Y-40718631D01*
X54871152Y-40723103D01*
X54811633Y-40730489D01*
X54753320Y-40740730D01*
X54696272Y-40753773D01*
X54640544Y-40769561D01*
X54586195Y-40788037D01*
X54533279Y-40809147D01*
X54481855Y-40832833D01*
X54431980Y-40859040D01*
X54383709Y-40887711D01*
X54337101Y-40918792D01*
X54292212Y-40952225D01*
X54249098Y-40987954D01*
X54207818Y-41025925D01*
X54168427Y-41066080D01*
X54130982Y-41108363D01*
X54095541Y-41152720D01*
X54062161Y-41199092D01*
X54030898Y-41247426D01*
X54001808Y-41297663D01*
X53974950Y-41349750D01*
X53950380Y-41403628D01*
X53928155Y-41459244D01*
X53908331Y-41516539D01*
X53890966Y-41575459D01*
X53876116Y-41635947D01*
X53863839Y-41697948D01*
X53854191Y-41761405D01*
X53847229Y-41826262D01*
X53843010Y-41892464D01*
X53841591Y-41959954D01*
X53275934Y-41959954D01*
X53275517Y-41940837D01*
X53277576Y-41846512D01*
X58726457Y-40270553D02*
X58796747Y-40271890D01*
X58865545Y-40275869D01*
X58932802Y-40282450D01*
X58998470Y-40291587D01*
X59062500Y-40303239D01*
X59124844Y-40317362D01*
X59185454Y-40333912D01*
X59244279Y-40352847D01*
X59301274Y-40374123D01*
X59356388Y-40397697D01*
X59409574Y-40423526D01*
X59460782Y-40451566D01*
X59509965Y-40481776D01*
X59557075Y-40514110D01*
X59602061Y-40548527D01*
X59644877Y-40584982D01*
X59685473Y-40623434D01*
X59723802Y-40663837D01*
X59759814Y-40706151D01*
X59793461Y-40750330D01*
X59824695Y-40796332D01*
X59853468Y-40844114D01*
X59879730Y-40893633D01*
X59903433Y-40944845D01*
X59924530Y-40997707D01*
X59942971Y-41052176D01*
X59958707Y-41108209D01*
X59971692Y-41165762D01*
X59981875Y-41224793D01*
X59989208Y-41285258D01*
X59993644Y-41347114D01*
X59995134Y-41410318D01*
X59994061Y-41462105D01*
X59990864Y-41513024D01*
X59985574Y-41563049D01*
X59978220Y-41612156D01*
X59968833Y-41660318D01*
X59957444Y-41707510D01*
X59944083Y-41753705D01*
X59928781Y-41798878D01*
X59911568Y-41843004D01*
X59892476Y-41886056D01*
X59871534Y-41928008D01*
X59848773Y-41968835D01*
X59824224Y-42008512D01*
X59797917Y-42047012D01*
X59769883Y-42084310D01*
X59740152Y-42120380D01*
X59708755Y-42155196D01*
X59675722Y-42188732D01*
X59641085Y-42220963D01*
X59604873Y-42251863D01*
X59567117Y-42281406D01*
X59527847Y-42309567D01*
X59487095Y-42336319D01*
X59444891Y-42361637D01*
X59401265Y-42385496D01*
X59356247Y-42407868D01*
X59309870Y-42428730D01*
X59262162Y-42448054D01*
X59213154Y-42465815D01*
X59162878Y-42481988D01*
X59111363Y-42496547D01*
X59058641Y-42509465D01*
X59178138Y-42750910D01*
X59205627Y-42803095D01*
X59234396Y-42851213D01*
X59264608Y-42895345D01*
X59296429Y-42935573D01*
X59330024Y-42971975D01*
X59365558Y-43004633D01*
X59403197Y-43033628D01*
X59443104Y-43059040D01*
X59485446Y-43080950D01*
X59530388Y-43099439D01*
X59578094Y-43114586D01*
X59628729Y-43126473D01*
X59682459Y-43135180D01*
X59739449Y-43140788D01*
X59799864Y-43143377D01*
X59863868Y-43143029D01*
X60035842Y-43138245D01*
X60035842Y-43625454D01*
X59875789Y-43630236D01*
X59825212Y-43631162D01*
X59775615Y-43630800D01*
X59727000Y-43629154D01*
X59679367Y-43626224D01*
X59632717Y-43622011D01*
X59587051Y-43616517D01*
X59542369Y-43609742D01*
X59498674Y-43601689D01*
X59455965Y-43592358D01*
X59414243Y-43581751D01*
X59373510Y-43569869D01*
X59333766Y-43556713D01*
X59295012Y-43542284D01*
X59257249Y-43526584D01*
X59220478Y-43509614D01*
X59184700Y-43491375D01*
X59149915Y-43471869D01*
X59116124Y-43451096D01*
X59083329Y-43429058D01*
X59051531Y-43405756D01*
X59020729Y-43381192D01*
X58990926Y-43355367D01*
X58962121Y-43328281D01*
X58934316Y-43299937D01*
X58907512Y-43270335D01*
X58881709Y-43239477D01*
X58856909Y-43207364D01*
X58833112Y-43173998D01*
X58810319Y-43139378D01*
X58788531Y-43103508D01*
X58767749Y-43066387D01*
X58747974Y-43028018D01*
X58506498Y-42552466D01*
X57880208Y-42550067D01*
X57880208Y-43615903D01*
X57326207Y-43615903D01*
X57326207Y-42062859D01*
X57880208Y-42062859D01*
X58697667Y-42062859D01*
X58738668Y-42062113D01*
X58778734Y-42059890D01*
X58817841Y-42056210D01*
X58855966Y-42051094D01*
X58893083Y-42044564D01*
X58929170Y-42036640D01*
X58964202Y-42027344D01*
X58998154Y-42016696D01*
X59031004Y-42004718D01*
X59062726Y-41991430D01*
X59093297Y-41976854D01*
X59122693Y-41961010D01*
X59150889Y-41943920D01*
X59177862Y-41925604D01*
X59203588Y-41906084D01*
X59228042Y-41885380D01*
X59251200Y-41863514D01*
X59273039Y-41840507D01*
X59293533Y-41816379D01*
X59312660Y-41791151D01*
X59330395Y-41764846D01*
X59346715Y-41737483D01*
X59361594Y-41709083D01*
X59375009Y-41679668D01*
X59386936Y-41649259D01*
X59397351Y-41617877D01*
X59406229Y-41585542D01*
X59413548Y-41552276D01*
X59419282Y-41518099D01*
X59423407Y-41483033D01*
X59425900Y-41447099D01*
X59426736Y-41410318D01*
X59425866Y-41374586D01*
X59423276Y-41339569D01*
X59418997Y-41305293D01*
X59413059Y-41271786D01*
X59405493Y-41239076D01*
X59396329Y-41207189D01*
X59385599Y-41176155D01*
X59373333Y-41146000D01*
X59359561Y-41116752D01*
X59344314Y-41088438D01*
X59327622Y-41061086D01*
X59309517Y-41034724D01*
X59290029Y-41009379D01*
X59269188Y-40985079D01*
X59247025Y-40961851D01*
X59223571Y-40939723D01*
X59198856Y-40918723D01*
X59172912Y-40898877D01*
X59145767Y-40880214D01*
X59117454Y-40862762D01*
X59088003Y-40846547D01*
X59057444Y-40831597D01*
X59025808Y-40817941D01*
X58993125Y-40805604D01*
X58959427Y-40794616D01*
X58924743Y-40785004D01*
X58889105Y-40776795D01*
X58852543Y-40770016D01*
X58815088Y-40764696D01*
X58776769Y-40760862D01*
X58737619Y-40758541D01*
X58697667Y-40757761D01*
X57880208Y-40757761D01*
X57880208Y-42062859D01*
X57326207Y-42062859D01*
X57326207Y-40270553D01*
X58726457Y-40270553D01*
X68428384Y-40210161D02*
X68509356Y-40215295D01*
X68590160Y-40223690D01*
X68670488Y-40235213D01*
X68750031Y-40249730D01*
X68828481Y-40267109D01*
X68905530Y-40287217D01*
X68980868Y-40309921D01*
X69054187Y-40335087D01*
X69125179Y-40362584D01*
X69193534Y-40392278D01*
X69258945Y-40424037D01*
X69321102Y-40457727D01*
X69379697Y-40493215D01*
X69434422Y-40530368D01*
X69484967Y-40569054D01*
X69210214Y-40970476D01*
X69165565Y-40940213D01*
X69118648Y-40911318D01*
X69069664Y-40883873D01*
X69018811Y-40857958D01*
X68966290Y-40833653D01*
X68912299Y-40811040D01*
X68857039Y-40790198D01*
X68800708Y-40771209D01*
X68743507Y-40754152D01*
X68685635Y-40739108D01*
X68627291Y-40726158D01*
X68568675Y-40715382D01*
X68509987Y-40706860D01*
X68451426Y-40700674D01*
X68393191Y-40696903D01*
X68335483Y-40695628D01*
X68297895Y-40696075D01*
X68261328Y-40697410D01*
X68225792Y-40699625D01*
X68191299Y-40702713D01*
X68157859Y-40706666D01*
X68125486Y-40711476D01*
X68094188Y-40717134D01*
X68063979Y-40723634D01*
X68034870Y-40730967D01*
X68006871Y-40739125D01*
X67979995Y-40748101D01*
X67954252Y-40757887D01*
X67929654Y-40768474D01*
X67906213Y-40779855D01*
X67883939Y-40792022D01*
X67862844Y-40804967D01*
X67842940Y-40818682D01*
X67824237Y-40833160D01*
X67806748Y-40848392D01*
X67790483Y-40864371D01*
X67775454Y-40881089D01*
X67761672Y-40898538D01*
X67749149Y-40916709D01*
X67737896Y-40935596D01*
X67727924Y-40955190D01*
X67719245Y-40975484D01*
X67711870Y-40996469D01*
X67705810Y-41018138D01*
X67701077Y-41040482D01*
X67697683Y-41063495D01*
X67695637Y-41087167D01*
X67694953Y-41111492D01*
X67695443Y-41130634D01*
X67696909Y-41149518D01*
X67699349Y-41168141D01*
X67702759Y-41186495D01*
X67707136Y-41204576D01*
X67712475Y-41222380D01*
X67718773Y-41239899D01*
X67726028Y-41257130D01*
X67734234Y-41274067D01*
X67743390Y-41290705D01*
X67764533Y-41323061D01*
X67789430Y-41354157D01*
X67818051Y-41383951D01*
X67850370Y-41412401D01*
X67886357Y-41439464D01*
X67925985Y-41465098D01*
X67969225Y-41489263D01*
X68016050Y-41511914D01*
X68066431Y-41533011D01*
X68120340Y-41552512D01*
X68177749Y-41570373D01*
X68744289Y-41735289D01*
X68849731Y-41768210D01*
X68949127Y-41804286D01*
X69042372Y-41843590D01*
X69129362Y-41886196D01*
X69209992Y-41932177D01*
X69247889Y-41956457D01*
X69284157Y-41981607D01*
X69318784Y-42007638D01*
X69351755Y-42034559D01*
X69383058Y-42062379D01*
X69412680Y-42091107D01*
X69440607Y-42120752D01*
X69466828Y-42151323D01*
X69491328Y-42182830D01*
X69514094Y-42215283D01*
X69535115Y-42248689D01*
X69554375Y-42283058D01*
X69571864Y-42318400D01*
X69587567Y-42354723D01*
X69601471Y-42392037D01*
X69613564Y-42430351D01*
X69623832Y-42469674D01*
X69632262Y-42510015D01*
X69638842Y-42551384D01*
X69643557Y-42593790D01*
X69646396Y-42637242D01*
X69647346Y-42681748D01*
X69645795Y-42736947D01*
X69641182Y-42790945D01*
X69633565Y-42843707D01*
X69623003Y-42895197D01*
X69609553Y-42945378D01*
X69593276Y-42994215D01*
X69574229Y-43041670D01*
X69552470Y-43087709D01*
X69528059Y-43132293D01*
X69501054Y-43175388D01*
X69471513Y-43216957D01*
X69439494Y-43256964D01*
X69405058Y-43295373D01*
X69368261Y-43332147D01*
X69329163Y-43367250D01*
X69287821Y-43400646D01*
X69244295Y-43432298D01*
X69198644Y-43462171D01*
X69150925Y-43490228D01*
X69101196Y-43516434D01*
X68995948Y-43563143D01*
X68883366Y-43602010D01*
X68763919Y-43632745D01*
X68638076Y-43655056D01*
X68506304Y-43668656D01*
X68369071Y-43673254D01*
X68266360Y-43670380D01*
X68165391Y-43661905D01*
X68066331Y-43648049D01*
X67969348Y-43629032D01*
X67874611Y-43605076D01*
X67782285Y-43576399D01*
X67692539Y-43543222D01*
X67605541Y-43505767D01*
X67521458Y-43464252D01*
X67440457Y-43418898D01*
X67362707Y-43369926D01*
X67288374Y-43317555D01*
X67217627Y-43262007D01*
X67150632Y-43203501D01*
X67087558Y-43142257D01*
X67028571Y-43078496D01*
X67394037Y-42724765D01*
X67446325Y-42778785D01*
X67500981Y-42829675D01*
X67557846Y-42877386D01*
X67616763Y-42921869D01*
X67677574Y-42963076D01*
X67740120Y-43000956D01*
X67804245Y-43035461D01*
X67869790Y-43066542D01*
X67936598Y-43094151D01*
X68004510Y-43118237D01*
X68073369Y-43138752D01*
X68143018Y-43155647D01*
X68213297Y-43168873D01*
X68284050Y-43178381D01*
X68355119Y-43184121D01*
X68426345Y-43186046D01*
X68461447Y-43185530D01*
X68495916Y-43183993D01*
X68529719Y-43181449D01*
X68562825Y-43177914D01*
X68595203Y-43173402D01*
X68626822Y-43167928D01*
X68657648Y-43161507D01*
X68687652Y-43154153D01*
X68716802Y-43145883D01*
X68745066Y-43136710D01*
X68772412Y-43126649D01*
X68798810Y-43115716D01*
X68824227Y-43103925D01*
X68848632Y-43091292D01*
X68871993Y-43077830D01*
X68894280Y-43063555D01*
X68915460Y-43048482D01*
X68935502Y-43032625D01*
X68954374Y-43016000D01*
X68972046Y-42998622D01*
X68988485Y-42980504D01*
X69003659Y-42961663D01*
X69017538Y-42942113D01*
X69030090Y-42921869D01*
X69041283Y-42900946D01*
X69051087Y-42879358D01*
X69059468Y-42857121D01*
X69066396Y-42834250D01*
X69071840Y-42810758D01*
X69075767Y-42786662D01*
X69078146Y-42761976D01*
X69078946Y-42736715D01*
X69078338Y-42713263D01*
X69076517Y-42690400D01*
X69073489Y-42668116D01*
X69069260Y-42646397D01*
X69063838Y-42625231D01*
X69057227Y-42604606D01*
X69049435Y-42584510D01*
X69040466Y-42564930D01*
X69030328Y-42545854D01*
X69019027Y-42527271D01*
X69006569Y-42509167D01*
X68992959Y-42491530D01*
X68962312Y-42457610D01*
X68927135Y-42425413D01*
X68887478Y-42394840D01*
X68843389Y-42365794D01*
X68794919Y-42338177D01*
X68742116Y-42311890D01*
X68685031Y-42286835D01*
X68623712Y-42262915D01*
X68558209Y-42240031D01*
X68488572Y-42218085D01*
X67835967Y-42022087D01*
X67752800Y-41994460D01*
X67674469Y-41962738D01*
X67601048Y-41927024D01*
X67532609Y-41887424D01*
X67500281Y-41866199D01*
X67469226Y-41844043D01*
X67439453Y-41820967D01*
X67410971Y-41796986D01*
X67383790Y-41772112D01*
X67357918Y-41746358D01*
X67333365Y-41719738D01*
X67310139Y-41692264D01*
X67288251Y-41663950D01*
X67267708Y-41634809D01*
X67248521Y-41604854D01*
X67230698Y-41574098D01*
X67214248Y-41542555D01*
X67199181Y-41510237D01*
X67185505Y-41477157D01*
X67173230Y-41443329D01*
X67162366Y-41408766D01*
X67152920Y-41373481D01*
X67144902Y-41337487D01*
X67138322Y-41300797D01*
X67133188Y-41263424D01*
X67129509Y-41225382D01*
X67127296Y-41186683D01*
X67126556Y-41147341D01*
X67127949Y-41094398D01*
X67132102Y-41042677D01*
X67138976Y-40992207D01*
X67148533Y-40943019D01*
X67160734Y-40895143D01*
X67175539Y-40848608D01*
X67192910Y-40803447D01*
X67212809Y-40759687D01*
X67235196Y-40717360D01*
X67260032Y-40676495D01*
X67287279Y-40637123D01*
X67316898Y-40599273D01*
X67348849Y-40562977D01*
X67383095Y-40528263D01*
X67419596Y-40495162D01*
X67458314Y-40463705D01*
X67499209Y-40433920D01*
X67542244Y-40405839D01*
X67587378Y-40379492D01*
X67634573Y-40354908D01*
X67683791Y-40332118D01*
X67734992Y-40311151D01*
X67843190Y-40274810D01*
X67958855Y-40246126D01*
X68081679Y-40225338D01*
X68211348Y-40212689D01*
X68347554Y-40208420D01*
X68428384Y-40210161D01*
X51506987Y-40270553D02*
X51571404Y-40271576D01*
X51634235Y-40274623D01*
X51695450Y-40279661D01*
X51755018Y-40286656D01*
X51812911Y-40295575D01*
X51869097Y-40306386D01*
X51923547Y-40319054D01*
X51976230Y-40333548D01*
X52027116Y-40349833D01*
X52076176Y-40367876D01*
X52123379Y-40387645D01*
X52168695Y-40409105D01*
X52212093Y-40432225D01*
X52253545Y-40456971D01*
X52293019Y-40483309D01*
X52330486Y-40511206D01*
X52365915Y-40540630D01*
X52399277Y-40571547D01*
X52430541Y-40603924D01*
X52459678Y-40637727D01*
X52486656Y-40672924D01*
X52511446Y-40709481D01*
X52534018Y-40747365D01*
X52554342Y-40786544D01*
X52572388Y-40826983D01*
X52588126Y-40868650D01*
X52601524Y-40911511D01*
X52612554Y-40955534D01*
X52621186Y-41000685D01*
X52627388Y-41046931D01*
X52631132Y-41094238D01*
X52632386Y-41142574D01*
X52631842Y-41173092D01*
X52630217Y-41203241D01*
X52627521Y-41233000D01*
X52623765Y-41262350D01*
X52618960Y-41291271D01*
X52613115Y-41319744D01*
X52606241Y-41347748D01*
X52598350Y-41375264D01*
X52589451Y-41402273D01*
X52579554Y-41428754D01*
X52568671Y-41454689D01*
X52556812Y-41480056D01*
X52543987Y-41504837D01*
X52530207Y-41529012D01*
X52515483Y-41552562D01*
X52499824Y-41575465D01*
X52483242Y-41597704D01*
X52465747Y-41619258D01*
X52447349Y-41640107D01*
X52428058Y-41660232D01*
X52407887Y-41679613D01*
X52386844Y-41698230D01*
X52364940Y-41716064D01*
X52342186Y-41733095D01*
X52318593Y-41749303D01*
X52294171Y-41764669D01*
X52268930Y-41779173D01*
X52242881Y-41792795D01*
X52216034Y-41805515D01*
X52188400Y-41817314D01*
X52159989Y-41828172D01*
X52130813Y-41838070D01*
X52169575Y-41846797D01*
X52207460Y-41856832D01*
X52244445Y-41868152D01*
X52280506Y-41880734D01*
X52315621Y-41894555D01*
X52349765Y-41909593D01*
X52382916Y-41925825D01*
X52415051Y-41943228D01*
X52446147Y-41961779D01*
X52476180Y-41981456D01*
X52505127Y-42002236D01*
X52532965Y-42024096D01*
X52559671Y-42047013D01*
X52585222Y-42070965D01*
X52609594Y-42095929D01*
X52632765Y-42121881D01*
X52654711Y-42148800D01*
X52675409Y-42176663D01*
X52694835Y-42205446D01*
X52712968Y-42235128D01*
X52729783Y-42265684D01*
X52745257Y-42297094D01*
X52759368Y-42329332D01*
X52772092Y-42362378D01*
X52783405Y-42396208D01*
X52793286Y-42430800D01*
X52801709Y-42466130D01*
X52808653Y-42502176D01*
X52814095Y-42538916D01*
X52818010Y-42576326D01*
X52820376Y-42614383D01*
X52821170Y-42653065D01*
X52819798Y-42705869D01*
X52815704Y-42757609D01*
X52808926Y-42808244D01*
X52799500Y-42857736D01*
X52787462Y-42906043D01*
X52772847Y-42953126D01*
X52755693Y-42998944D01*
X52736036Y-43043458D01*
X52713911Y-43086626D01*
X52689355Y-43128409D01*
X52662404Y-43168767D01*
X52633095Y-43207660D01*
X52601463Y-43245047D01*
X52567545Y-43280888D01*
X52531378Y-43315143D01*
X52492996Y-43347772D01*
X52452437Y-43378735D01*
X52409737Y-43407991D01*
X52364932Y-43435500D01*
X52318058Y-43461223D01*
X52269151Y-43485119D01*
X52218248Y-43507147D01*
X52165384Y-43527269D01*
X52110597Y-43545442D01*
X52053922Y-43561628D01*
X51995396Y-43575787D01*
X51872934Y-43597859D01*
X51743500Y-43611338D01*
X51607385Y-43615903D01*
X50023072Y-43615903D01*
X50023072Y-43128695D01*
X50577196Y-43128695D01*
X51631269Y-43128695D01*
X51666698Y-43128137D01*
X51701270Y-43126470D01*
X51734967Y-43123708D01*
X51767771Y-43119862D01*
X51799664Y-43114945D01*
X51830630Y-43108969D01*
X51860650Y-43101946D01*
X51889707Y-43093888D01*
X51917784Y-43084808D01*
X51944863Y-43074718D01*
X51970927Y-43063630D01*
X51995957Y-43051557D01*
X52019938Y-43038510D01*
X52042850Y-43024502D01*
X52064678Y-43009546D01*
X52085402Y-42993652D01*
X52105006Y-42976835D01*
X52123472Y-42959106D01*
X52140782Y-42940477D01*
X52156920Y-42920960D01*
X52171867Y-42900568D01*
X52185606Y-42879314D01*
X52198120Y-42857208D01*
X52209391Y-42834264D01*
X52219402Y-42810494D01*
X52228134Y-42785910D01*
X52235571Y-42760524D01*
X52241695Y-42734349D01*
X52246489Y-42707396D01*
X52249935Y-42679679D01*
X52252015Y-42651209D01*
X52252712Y-42621999D01*
X52251987Y-42592584D01*
X52249819Y-42563950D01*
X52246225Y-42536107D01*
X52241219Y-42509063D01*
X52234816Y-42482831D01*
X52227031Y-42457419D01*
X52217878Y-42432837D01*
X52207374Y-42409096D01*
X52195531Y-42386207D01*
X52182367Y-42364178D01*
X52167894Y-42343020D01*
X52152129Y-42322742D01*
X52135086Y-42303356D01*
X52116780Y-42284871D01*
X52097225Y-42267298D01*
X52076437Y-42250645D01*
X52054431Y-42234924D01*
X52031222Y-42220144D01*
X52006823Y-42206315D01*
X51981251Y-42193449D01*
X51954521Y-42181553D01*
X51926646Y-42170639D01*
X51867524Y-42151796D01*
X51804004Y-42137001D01*
X51736206Y-42126333D01*
X51664249Y-42119873D01*
X51588252Y-42117702D01*
X50577196Y-42117702D01*
X50577196Y-43128695D01*
X50023072Y-43128695D01*
X50023072Y-41661205D01*
X50577196Y-41661205D01*
X51459186Y-41661205D01*
X51494155Y-41660709D01*
X51528241Y-41659229D01*
X51561429Y-41656774D01*
X51593703Y-41653353D01*
X51625050Y-41648977D01*
X51655455Y-41643654D01*
X51684901Y-41637395D01*
X51713375Y-41630208D01*
X51740862Y-41622105D01*
X51767346Y-41613094D01*
X51792813Y-41603185D01*
X51817249Y-41592387D01*
X51840637Y-41580711D01*
X51862963Y-41568166D01*
X51884213Y-41554761D01*
X51904372Y-41540506D01*
X51923423Y-41525411D01*
X51941354Y-41509485D01*
X51958148Y-41492739D01*
X51973792Y-41475181D01*
X51988269Y-41456821D01*
X52001565Y-41437670D01*
X52013666Y-41417736D01*
X52024556Y-41397029D01*
X52034221Y-41375559D01*
X52042646Y-41353335D01*
X52049815Y-41330367D01*
X52055714Y-41306666D01*
X52060328Y-41282239D01*
X52063642Y-41257097D01*
X52065641Y-41231250D01*
X52066311Y-41204708D01*
X52065683Y-41179244D01*
X52063810Y-41154395D01*
X52060706Y-41130173D01*
X52056386Y-41106591D01*
X52050865Y-41083663D01*
X52044157Y-41061400D01*
X52036279Y-41039814D01*
X52027244Y-41018921D01*
X52017068Y-40998730D01*
X52005765Y-40979256D01*
X51993351Y-40960511D01*
X51979839Y-40942508D01*
X51965246Y-40925259D01*
X51949586Y-40908777D01*
X51932874Y-40893076D01*
X51915124Y-40878166D01*
X51896352Y-40864062D01*
X51876572Y-40850776D01*
X51855800Y-40838320D01*
X51834050Y-40826708D01*
X51811337Y-40815952D01*
X51787676Y-40806064D01*
X51763082Y-40797058D01*
X51737570Y-40788946D01*
X51683851Y-40775455D01*
X51626637Y-40765693D01*
X51566048Y-40759761D01*
X51502203Y-40757761D01*
X50577196Y-40757761D01*
X50577196Y-41661205D01*
X50023072Y-41661205D01*
X50023072Y-40270553D01*
X51506987Y-40270553D01*
D13*
%TO.C,*%
%TD*%
M02*
