%TF.GenerationSoftware,KiCad,Pcbnew,7.0.5*%
%TF.CreationDate,2023-07-15T15:58:00-07:00*%
%TF.ProjectId,Panel,50616e65-6c2e-46b6-9963-61645f706362,rev?*%
%TF.SameCoordinates,Original*%
%TF.FileFunction,Drillmap*%
%TF.FilePolarity,Positive*%
%FSLAX45Y45*%
G04 Gerber Fmt 4.5, Leading zero omitted, Abs format (unit mm)*
G04 Created by KiCad (PCBNEW 7.0.5) date 2023-07-15 15:58:00*
%MOMM*%
%LPD*%
G01*
G04 APERTURE LIST*
%ADD10C,0.150000*%
%ADD11C,0.050000*%
%ADD12C,0.200000*%
%ADD13C,0.320000*%
%ADD14C,0.700000*%
G04 APERTURE END LIST*
D10*
X8311135Y-14363600D02*
X10001135Y-14363600D01*
X10001135Y-15523600D01*
X8311135Y-15523600D01*
X8311135Y-14363600D01*
G36*
X8311135Y-14363600D02*
G01*
X10001135Y-14363600D01*
X10001135Y-15523600D01*
X8311135Y-15523600D01*
X8311135Y-14363600D01*
G37*
D11*
X7656135Y-3668600D02*
X10656135Y-3668600D01*
X10656135Y-16518600D01*
X7656135Y-16518600D01*
X7656135Y-3668600D01*
X9906135Y-6768600D02*
X10306135Y-6768600D01*
X10306135Y-7268600D01*
X9906135Y-7268600D01*
X9906135Y-6768600D01*
G36*
X9906135Y-6768600D02*
G01*
X10306135Y-6768600D01*
X10306135Y-7268600D01*
X9906135Y-7268600D01*
X9906135Y-6768600D01*
G37*
X9876135Y-8178600D02*
X10276135Y-8178600D01*
X10276135Y-9498600D01*
X9876135Y-9498600D01*
X9876135Y-8178600D01*
G36*
X9876135Y-8178600D02*
G01*
X10276135Y-8178600D01*
X10276135Y-9498600D01*
X9876135Y-9498600D01*
X9876135Y-8178600D01*
G37*
D12*
D13*
X8246135Y-3808600D02*
X8566135Y-4128600D01*
X8566135Y-3808600D02*
X8246135Y-4128600D01*
D12*
X8331135Y-4128600D02*
X8481135Y-4128600D01*
X8481135Y-4128600D02*
G75*
G03*
X8481135Y-3808600I0J160000D01*
G01*
X8481135Y-3808600D02*
X8331135Y-3808600D01*
X8331135Y-3808600D02*
G75*
G03*
X8331135Y-4128600I0J-160000D01*
G01*
D13*
X9746135Y-16058600D02*
X10066135Y-16378600D01*
X10066135Y-16058600D02*
X9746135Y-16378600D01*
D12*
X9831135Y-16378600D02*
X9981135Y-16378600D01*
X9981135Y-16378600D02*
G75*
G03*
X9981135Y-16058600I0J160000D01*
G01*
X9981135Y-16058600D02*
X9831135Y-16058600D01*
X9831135Y-16058600D02*
G75*
G03*
X9831135Y-16378600I0J-160000D01*
G01*
D14*
X8626135Y-5558600D02*
G75*
G03*
X8626135Y-5558600I-350000J0D01*
G01*
X8629135Y-6964100D02*
G75*
G03*
X8629135Y-6964100I-350000J0D01*
G01*
X8629135Y-8331850D02*
G75*
G03*
X8629135Y-8331850I-350000J0D01*
G01*
X8629135Y-9699600D02*
G75*
G03*
X8629135Y-9699600I-350000J0D01*
G01*
X10456135Y-5908600D02*
G75*
G03*
X10456135Y-5908600I-350000J0D01*
G01*
D12*
X7914412Y-16832584D02*
X7914412Y-16632583D01*
X7914412Y-16632583D02*
X7962031Y-16632583D01*
X7962031Y-16632583D02*
X7990603Y-16642107D01*
X7990603Y-16642107D02*
X8009650Y-16661155D01*
X8009650Y-16661155D02*
X8019174Y-16680202D01*
X8019174Y-16680202D02*
X8028698Y-16718298D01*
X8028698Y-16718298D02*
X8028698Y-16746869D01*
X8028698Y-16746869D02*
X8019174Y-16784964D01*
X8019174Y-16784964D02*
X8009650Y-16804012D01*
X8009650Y-16804012D02*
X7990603Y-16823060D01*
X7990603Y-16823060D02*
X7962031Y-16832584D01*
X7962031Y-16832584D02*
X7914412Y-16832584D01*
X8114412Y-16832584D02*
X8114412Y-16699250D01*
X8114412Y-16737345D02*
X8123936Y-16718298D01*
X8123936Y-16718298D02*
X8133460Y-16708774D01*
X8133460Y-16708774D02*
X8152507Y-16699250D01*
X8152507Y-16699250D02*
X8171555Y-16699250D01*
X8238222Y-16832584D02*
X8238222Y-16699250D01*
X8238222Y-16632583D02*
X8228698Y-16642107D01*
X8228698Y-16642107D02*
X8238222Y-16651631D01*
X8238222Y-16651631D02*
X8247745Y-16642107D01*
X8247745Y-16642107D02*
X8238222Y-16632583D01*
X8238222Y-16632583D02*
X8238222Y-16651631D01*
X8362031Y-16832584D02*
X8342984Y-16823060D01*
X8342984Y-16823060D02*
X8333460Y-16804012D01*
X8333460Y-16804012D02*
X8333460Y-16632583D01*
X8466793Y-16832584D02*
X8447746Y-16823060D01*
X8447746Y-16823060D02*
X8438222Y-16804012D01*
X8438222Y-16804012D02*
X8438222Y-16632583D01*
X8695365Y-16832584D02*
X8695365Y-16632583D01*
X8695365Y-16632583D02*
X8762031Y-16775441D01*
X8762031Y-16775441D02*
X8828698Y-16632583D01*
X8828698Y-16632583D02*
X8828698Y-16832584D01*
X9009650Y-16832584D02*
X9009650Y-16727822D01*
X9009650Y-16727822D02*
X9000127Y-16708774D01*
X9000127Y-16708774D02*
X8981079Y-16699250D01*
X8981079Y-16699250D02*
X8942984Y-16699250D01*
X8942984Y-16699250D02*
X8923936Y-16708774D01*
X9009650Y-16823060D02*
X8990603Y-16832584D01*
X8990603Y-16832584D02*
X8942984Y-16832584D01*
X8942984Y-16832584D02*
X8923936Y-16823060D01*
X8923936Y-16823060D02*
X8914412Y-16804012D01*
X8914412Y-16804012D02*
X8914412Y-16784964D01*
X8914412Y-16784964D02*
X8923936Y-16765917D01*
X8923936Y-16765917D02*
X8942984Y-16756393D01*
X8942984Y-16756393D02*
X8990603Y-16756393D01*
X8990603Y-16756393D02*
X9009650Y-16746869D01*
X9104888Y-16699250D02*
X9104888Y-16899250D01*
X9104888Y-16708774D02*
X9123936Y-16699250D01*
X9123936Y-16699250D02*
X9162031Y-16699250D01*
X9162031Y-16699250D02*
X9181079Y-16708774D01*
X9181079Y-16708774D02*
X9190603Y-16718298D01*
X9190603Y-16718298D02*
X9200127Y-16737345D01*
X9200127Y-16737345D02*
X9200127Y-16794488D01*
X9200127Y-16794488D02*
X9190603Y-16813536D01*
X9190603Y-16813536D02*
X9181079Y-16823060D01*
X9181079Y-16823060D02*
X9162031Y-16832584D01*
X9162031Y-16832584D02*
X9123936Y-16832584D01*
X9123936Y-16832584D02*
X9104888Y-16823060D01*
X9285841Y-16813536D02*
X9295365Y-16823060D01*
X9295365Y-16823060D02*
X9285841Y-16832584D01*
X9285841Y-16832584D02*
X9276317Y-16823060D01*
X9276317Y-16823060D02*
X9285841Y-16813536D01*
X9285841Y-16813536D02*
X9285841Y-16832584D01*
X9285841Y-16708774D02*
X9295365Y-16718298D01*
X9295365Y-16718298D02*
X9285841Y-16727822D01*
X9285841Y-16727822D02*
X9276317Y-16718298D01*
X9276317Y-16718298D02*
X9285841Y-16708774D01*
X9285841Y-16708774D02*
X9285841Y-16727822D01*
X7453635Y-17061100D02*
X7653635Y-17261100D01*
X7653635Y-17061100D02*
X7453635Y-17261100D01*
X7895365Y-17052584D02*
X8019174Y-17052584D01*
X8019174Y-17052584D02*
X7952507Y-17128774D01*
X7952507Y-17128774D02*
X7981079Y-17128774D01*
X7981079Y-17128774D02*
X8000126Y-17138298D01*
X8000126Y-17138298D02*
X8009650Y-17147822D01*
X8009650Y-17147822D02*
X8019174Y-17166869D01*
X8019174Y-17166869D02*
X8019174Y-17214488D01*
X8019174Y-17214488D02*
X8009650Y-17233536D01*
X8009650Y-17233536D02*
X8000126Y-17243060D01*
X8000126Y-17243060D02*
X7981079Y-17252584D01*
X7981079Y-17252584D02*
X7923936Y-17252584D01*
X7923936Y-17252584D02*
X7904888Y-17243060D01*
X7904888Y-17243060D02*
X7895365Y-17233536D01*
X8104888Y-17233536D02*
X8114412Y-17243060D01*
X8114412Y-17243060D02*
X8104888Y-17252584D01*
X8104888Y-17252584D02*
X8095365Y-17243060D01*
X8095365Y-17243060D02*
X8104888Y-17233536D01*
X8104888Y-17233536D02*
X8104888Y-17252584D01*
X8190603Y-17071631D02*
X8200126Y-17062107D01*
X8200126Y-17062107D02*
X8219174Y-17052584D01*
X8219174Y-17052584D02*
X8266793Y-17052584D01*
X8266793Y-17052584D02*
X8285841Y-17062107D01*
X8285841Y-17062107D02*
X8295365Y-17071631D01*
X8295365Y-17071631D02*
X8304888Y-17090679D01*
X8304888Y-17090679D02*
X8304888Y-17109726D01*
X8304888Y-17109726D02*
X8295365Y-17138298D01*
X8295365Y-17138298D02*
X8181079Y-17252584D01*
X8181079Y-17252584D02*
X8304888Y-17252584D01*
X8428698Y-17052584D02*
X8447746Y-17052584D01*
X8447746Y-17052584D02*
X8466793Y-17062107D01*
X8466793Y-17062107D02*
X8476317Y-17071631D01*
X8476317Y-17071631D02*
X8485841Y-17090679D01*
X8485841Y-17090679D02*
X8495365Y-17128774D01*
X8495365Y-17128774D02*
X8495365Y-17176393D01*
X8495365Y-17176393D02*
X8485841Y-17214488D01*
X8485841Y-17214488D02*
X8476317Y-17233536D01*
X8476317Y-17233536D02*
X8466793Y-17243060D01*
X8466793Y-17243060D02*
X8447746Y-17252584D01*
X8447746Y-17252584D02*
X8428698Y-17252584D01*
X8428698Y-17252584D02*
X8409650Y-17243060D01*
X8409650Y-17243060D02*
X8400127Y-17233536D01*
X8400127Y-17233536D02*
X8390603Y-17214488D01*
X8390603Y-17214488D02*
X8381079Y-17176393D01*
X8381079Y-17176393D02*
X8381079Y-17128774D01*
X8381079Y-17128774D02*
X8390603Y-17090679D01*
X8390603Y-17090679D02*
X8400127Y-17071631D01*
X8400127Y-17071631D02*
X8409650Y-17062107D01*
X8409650Y-17062107D02*
X8428698Y-17052584D01*
X8619174Y-17052584D02*
X8638222Y-17052584D01*
X8638222Y-17052584D02*
X8657269Y-17062107D01*
X8657269Y-17062107D02*
X8666793Y-17071631D01*
X8666793Y-17071631D02*
X8676317Y-17090679D01*
X8676317Y-17090679D02*
X8685841Y-17128774D01*
X8685841Y-17128774D02*
X8685841Y-17176393D01*
X8685841Y-17176393D02*
X8676317Y-17214488D01*
X8676317Y-17214488D02*
X8666793Y-17233536D01*
X8666793Y-17233536D02*
X8657269Y-17243060D01*
X8657269Y-17243060D02*
X8638222Y-17252584D01*
X8638222Y-17252584D02*
X8619174Y-17252584D01*
X8619174Y-17252584D02*
X8600127Y-17243060D01*
X8600127Y-17243060D02*
X8590603Y-17233536D01*
X8590603Y-17233536D02*
X8581079Y-17214488D01*
X8581079Y-17214488D02*
X8571555Y-17176393D01*
X8571555Y-17176393D02*
X8571555Y-17128774D01*
X8571555Y-17128774D02*
X8581079Y-17090679D01*
X8581079Y-17090679D02*
X8590603Y-17071631D01*
X8590603Y-17071631D02*
X8600127Y-17062107D01*
X8600127Y-17062107D02*
X8619174Y-17052584D01*
X8771555Y-17252584D02*
X8771555Y-17119250D01*
X8771555Y-17138298D02*
X8781079Y-17128774D01*
X8781079Y-17128774D02*
X8800127Y-17119250D01*
X8800127Y-17119250D02*
X8828698Y-17119250D01*
X8828698Y-17119250D02*
X8847746Y-17128774D01*
X8847746Y-17128774D02*
X8857269Y-17147822D01*
X8857269Y-17147822D02*
X8857269Y-17252584D01*
X8857269Y-17147822D02*
X8866793Y-17128774D01*
X8866793Y-17128774D02*
X8885841Y-17119250D01*
X8885841Y-17119250D02*
X8914412Y-17119250D01*
X8914412Y-17119250D02*
X8933460Y-17128774D01*
X8933460Y-17128774D02*
X8942984Y-17147822D01*
X8942984Y-17147822D02*
X8942984Y-17252584D01*
X9038222Y-17252584D02*
X9038222Y-17119250D01*
X9038222Y-17138298D02*
X9047746Y-17128774D01*
X9047746Y-17128774D02*
X9066793Y-17119250D01*
X9066793Y-17119250D02*
X9095365Y-17119250D01*
X9095365Y-17119250D02*
X9114412Y-17128774D01*
X9114412Y-17128774D02*
X9123936Y-17147822D01*
X9123936Y-17147822D02*
X9123936Y-17252584D01*
X9123936Y-17147822D02*
X9133460Y-17128774D01*
X9133460Y-17128774D02*
X9152508Y-17119250D01*
X9152508Y-17119250D02*
X9181079Y-17119250D01*
X9181079Y-17119250D02*
X9200127Y-17128774D01*
X9200127Y-17128774D02*
X9209650Y-17147822D01*
X9209650Y-17147822D02*
X9209650Y-17252584D01*
X9600127Y-17043060D02*
X9428698Y-17300203D01*
X9857270Y-17052584D02*
X9876317Y-17052584D01*
X9876317Y-17052584D02*
X9895365Y-17062107D01*
X9895365Y-17062107D02*
X9904889Y-17071631D01*
X9904889Y-17071631D02*
X9914412Y-17090679D01*
X9914412Y-17090679D02*
X9923936Y-17128774D01*
X9923936Y-17128774D02*
X9923936Y-17176393D01*
X9923936Y-17176393D02*
X9914412Y-17214488D01*
X9914412Y-17214488D02*
X9904889Y-17233536D01*
X9904889Y-17233536D02*
X9895365Y-17243060D01*
X9895365Y-17243060D02*
X9876317Y-17252584D01*
X9876317Y-17252584D02*
X9857270Y-17252584D01*
X9857270Y-17252584D02*
X9838222Y-17243060D01*
X9838222Y-17243060D02*
X9828698Y-17233536D01*
X9828698Y-17233536D02*
X9819174Y-17214488D01*
X9819174Y-17214488D02*
X9809651Y-17176393D01*
X9809651Y-17176393D02*
X9809651Y-17128774D01*
X9809651Y-17128774D02*
X9819174Y-17090679D01*
X9819174Y-17090679D02*
X9828698Y-17071631D01*
X9828698Y-17071631D02*
X9838222Y-17062107D01*
X9838222Y-17062107D02*
X9857270Y-17052584D01*
X10009651Y-17233536D02*
X10019174Y-17243060D01*
X10019174Y-17243060D02*
X10009651Y-17252584D01*
X10009651Y-17252584D02*
X10000127Y-17243060D01*
X10000127Y-17243060D02*
X10009651Y-17233536D01*
X10009651Y-17233536D02*
X10009651Y-17252584D01*
X10209651Y-17252584D02*
X10095365Y-17252584D01*
X10152508Y-17252584D02*
X10152508Y-17052584D01*
X10152508Y-17052584D02*
X10133460Y-17081155D01*
X10133460Y-17081155D02*
X10114412Y-17100203D01*
X10114412Y-17100203D02*
X10095365Y-17109726D01*
X10285841Y-17071631D02*
X10295365Y-17062107D01*
X10295365Y-17062107D02*
X10314412Y-17052584D01*
X10314412Y-17052584D02*
X10362032Y-17052584D01*
X10362032Y-17052584D02*
X10381079Y-17062107D01*
X10381079Y-17062107D02*
X10390603Y-17071631D01*
X10390603Y-17071631D02*
X10400127Y-17090679D01*
X10400127Y-17090679D02*
X10400127Y-17109726D01*
X10400127Y-17109726D02*
X10390603Y-17138298D01*
X10390603Y-17138298D02*
X10276317Y-17252584D01*
X10276317Y-17252584D02*
X10400127Y-17252584D01*
X10571555Y-17052584D02*
X10533460Y-17052584D01*
X10533460Y-17052584D02*
X10514412Y-17062107D01*
X10514412Y-17062107D02*
X10504889Y-17071631D01*
X10504889Y-17071631D02*
X10485841Y-17100203D01*
X10485841Y-17100203D02*
X10476317Y-17138298D01*
X10476317Y-17138298D02*
X10476317Y-17214488D01*
X10476317Y-17214488D02*
X10485841Y-17233536D01*
X10485841Y-17233536D02*
X10495365Y-17243060D01*
X10495365Y-17243060D02*
X10514412Y-17252584D01*
X10514412Y-17252584D02*
X10552508Y-17252584D01*
X10552508Y-17252584D02*
X10571555Y-17243060D01*
X10571555Y-17243060D02*
X10581079Y-17233536D01*
X10581079Y-17233536D02*
X10590603Y-17214488D01*
X10590603Y-17214488D02*
X10590603Y-17166869D01*
X10590603Y-17166869D02*
X10581079Y-17147822D01*
X10581079Y-17147822D02*
X10571555Y-17138298D01*
X10571555Y-17138298D02*
X10552508Y-17128774D01*
X10552508Y-17128774D02*
X10514412Y-17128774D01*
X10514412Y-17128774D02*
X10495365Y-17138298D01*
X10495365Y-17138298D02*
X10485841Y-17147822D01*
X10485841Y-17147822D02*
X10476317Y-17166869D01*
X10714412Y-17052584D02*
X10733460Y-17052584D01*
X10733460Y-17052584D02*
X10752508Y-17062107D01*
X10752508Y-17062107D02*
X10762032Y-17071631D01*
X10762032Y-17071631D02*
X10771555Y-17090679D01*
X10771555Y-17090679D02*
X10781079Y-17128774D01*
X10781079Y-17128774D02*
X10781079Y-17176393D01*
X10781079Y-17176393D02*
X10771555Y-17214488D01*
X10771555Y-17214488D02*
X10762032Y-17233536D01*
X10762032Y-17233536D02*
X10752508Y-17243060D01*
X10752508Y-17243060D02*
X10733460Y-17252584D01*
X10733460Y-17252584D02*
X10714412Y-17252584D01*
X10714412Y-17252584D02*
X10695365Y-17243060D01*
X10695365Y-17243060D02*
X10685841Y-17233536D01*
X10685841Y-17233536D02*
X10676317Y-17214488D01*
X10676317Y-17214488D02*
X10666793Y-17176393D01*
X10666793Y-17176393D02*
X10666793Y-17128774D01*
X10666793Y-17128774D02*
X10676317Y-17090679D01*
X10676317Y-17090679D02*
X10685841Y-17071631D01*
X10685841Y-17071631D02*
X10695365Y-17062107D01*
X10695365Y-17062107D02*
X10714412Y-17052584D01*
X10857270Y-17052584D02*
X10857270Y-17090679D01*
X10933460Y-17052584D02*
X10933460Y-17090679D01*
X11228698Y-17328774D02*
X11219174Y-17319250D01*
X11219174Y-17319250D02*
X11200127Y-17290679D01*
X11200127Y-17290679D02*
X11190603Y-17271631D01*
X11190603Y-17271631D02*
X11181079Y-17243060D01*
X11181079Y-17243060D02*
X11171555Y-17195441D01*
X11171555Y-17195441D02*
X11171555Y-17157345D01*
X11171555Y-17157345D02*
X11181079Y-17109726D01*
X11181079Y-17109726D02*
X11190603Y-17081155D01*
X11190603Y-17081155D02*
X11200127Y-17062107D01*
X11200127Y-17062107D02*
X11219174Y-17033536D01*
X11219174Y-17033536D02*
X11228698Y-17024012D01*
X11342984Y-17052584D02*
X11362032Y-17052584D01*
X11362032Y-17052584D02*
X11381079Y-17062107D01*
X11381079Y-17062107D02*
X11390603Y-17071631D01*
X11390603Y-17071631D02*
X11400127Y-17090679D01*
X11400127Y-17090679D02*
X11409651Y-17128774D01*
X11409651Y-17128774D02*
X11409651Y-17176393D01*
X11409651Y-17176393D02*
X11400127Y-17214488D01*
X11400127Y-17214488D02*
X11390603Y-17233536D01*
X11390603Y-17233536D02*
X11381079Y-17243060D01*
X11381079Y-17243060D02*
X11362032Y-17252584D01*
X11362032Y-17252584D02*
X11342984Y-17252584D01*
X11342984Y-17252584D02*
X11323936Y-17243060D01*
X11323936Y-17243060D02*
X11314412Y-17233536D01*
X11314412Y-17233536D02*
X11304889Y-17214488D01*
X11304889Y-17214488D02*
X11295365Y-17176393D01*
X11295365Y-17176393D02*
X11295365Y-17128774D01*
X11295365Y-17128774D02*
X11304889Y-17090679D01*
X11304889Y-17090679D02*
X11314412Y-17071631D01*
X11314412Y-17071631D02*
X11323936Y-17062107D01*
X11323936Y-17062107D02*
X11342984Y-17052584D01*
X11647746Y-17252584D02*
X11647746Y-17052584D01*
X11733460Y-17252584D02*
X11733460Y-17147822D01*
X11733460Y-17147822D02*
X11723936Y-17128774D01*
X11723936Y-17128774D02*
X11704889Y-17119250D01*
X11704889Y-17119250D02*
X11676317Y-17119250D01*
X11676317Y-17119250D02*
X11657270Y-17128774D01*
X11657270Y-17128774D02*
X11647746Y-17138298D01*
X11857270Y-17252584D02*
X11838222Y-17243060D01*
X11838222Y-17243060D02*
X11828698Y-17233536D01*
X11828698Y-17233536D02*
X11819174Y-17214488D01*
X11819174Y-17214488D02*
X11819174Y-17157345D01*
X11819174Y-17157345D02*
X11828698Y-17138298D01*
X11828698Y-17138298D02*
X11838222Y-17128774D01*
X11838222Y-17128774D02*
X11857270Y-17119250D01*
X11857270Y-17119250D02*
X11885841Y-17119250D01*
X11885841Y-17119250D02*
X11904889Y-17128774D01*
X11904889Y-17128774D02*
X11914413Y-17138298D01*
X11914413Y-17138298D02*
X11923936Y-17157345D01*
X11923936Y-17157345D02*
X11923936Y-17214488D01*
X11923936Y-17214488D02*
X11914413Y-17233536D01*
X11914413Y-17233536D02*
X11904889Y-17243060D01*
X11904889Y-17243060D02*
X11885841Y-17252584D01*
X11885841Y-17252584D02*
X11857270Y-17252584D01*
X12038222Y-17252584D02*
X12019174Y-17243060D01*
X12019174Y-17243060D02*
X12009651Y-17224012D01*
X12009651Y-17224012D02*
X12009651Y-17052584D01*
X12190603Y-17243060D02*
X12171555Y-17252584D01*
X12171555Y-17252584D02*
X12133460Y-17252584D01*
X12133460Y-17252584D02*
X12114413Y-17243060D01*
X12114413Y-17243060D02*
X12104889Y-17224012D01*
X12104889Y-17224012D02*
X12104889Y-17147822D01*
X12104889Y-17147822D02*
X12114413Y-17128774D01*
X12114413Y-17128774D02*
X12133460Y-17119250D01*
X12133460Y-17119250D02*
X12171555Y-17119250D01*
X12171555Y-17119250D02*
X12190603Y-17128774D01*
X12190603Y-17128774D02*
X12200127Y-17147822D01*
X12200127Y-17147822D02*
X12200127Y-17166869D01*
X12200127Y-17166869D02*
X12104889Y-17185917D01*
X12276317Y-17243060D02*
X12295365Y-17252584D01*
X12295365Y-17252584D02*
X12333460Y-17252584D01*
X12333460Y-17252584D02*
X12352508Y-17243060D01*
X12352508Y-17243060D02*
X12362032Y-17224012D01*
X12362032Y-17224012D02*
X12362032Y-17214488D01*
X12362032Y-17214488D02*
X12352508Y-17195441D01*
X12352508Y-17195441D02*
X12333460Y-17185917D01*
X12333460Y-17185917D02*
X12304889Y-17185917D01*
X12304889Y-17185917D02*
X12285841Y-17176393D01*
X12285841Y-17176393D02*
X12276317Y-17157345D01*
X12276317Y-17157345D02*
X12276317Y-17147822D01*
X12276317Y-17147822D02*
X12285841Y-17128774D01*
X12285841Y-17128774D02*
X12304889Y-17119250D01*
X12304889Y-17119250D02*
X12333460Y-17119250D01*
X12333460Y-17119250D02*
X12352508Y-17128774D01*
X12600127Y-17176393D02*
X12752508Y-17176393D01*
X12676317Y-17252584D02*
X12676317Y-17100203D01*
X12990603Y-17071631D02*
X13000127Y-17062107D01*
X13000127Y-17062107D02*
X13019175Y-17052584D01*
X13019175Y-17052584D02*
X13066794Y-17052584D01*
X13066794Y-17052584D02*
X13085841Y-17062107D01*
X13085841Y-17062107D02*
X13095365Y-17071631D01*
X13095365Y-17071631D02*
X13104889Y-17090679D01*
X13104889Y-17090679D02*
X13104889Y-17109726D01*
X13104889Y-17109726D02*
X13095365Y-17138298D01*
X13095365Y-17138298D02*
X12981079Y-17252584D01*
X12981079Y-17252584D02*
X13104889Y-17252584D01*
X13333460Y-17243060D02*
X13352508Y-17252584D01*
X13352508Y-17252584D02*
X13390603Y-17252584D01*
X13390603Y-17252584D02*
X13409651Y-17243060D01*
X13409651Y-17243060D02*
X13419175Y-17224012D01*
X13419175Y-17224012D02*
X13419175Y-17214488D01*
X13419175Y-17214488D02*
X13409651Y-17195441D01*
X13409651Y-17195441D02*
X13390603Y-17185917D01*
X13390603Y-17185917D02*
X13362032Y-17185917D01*
X13362032Y-17185917D02*
X13342984Y-17176393D01*
X13342984Y-17176393D02*
X13333460Y-17157345D01*
X13333460Y-17157345D02*
X13333460Y-17147822D01*
X13333460Y-17147822D02*
X13342984Y-17128774D01*
X13342984Y-17128774D02*
X13362032Y-17119250D01*
X13362032Y-17119250D02*
X13390603Y-17119250D01*
X13390603Y-17119250D02*
X13409651Y-17128774D01*
X13533460Y-17252584D02*
X13514413Y-17243060D01*
X13514413Y-17243060D02*
X13504889Y-17224012D01*
X13504889Y-17224012D02*
X13504889Y-17052584D01*
X13638222Y-17252584D02*
X13619175Y-17243060D01*
X13619175Y-17243060D02*
X13609651Y-17233536D01*
X13609651Y-17233536D02*
X13600127Y-17214488D01*
X13600127Y-17214488D02*
X13600127Y-17157345D01*
X13600127Y-17157345D02*
X13609651Y-17138298D01*
X13609651Y-17138298D02*
X13619175Y-17128774D01*
X13619175Y-17128774D02*
X13638222Y-17119250D01*
X13638222Y-17119250D02*
X13666794Y-17119250D01*
X13666794Y-17119250D02*
X13685841Y-17128774D01*
X13685841Y-17128774D02*
X13695365Y-17138298D01*
X13695365Y-17138298D02*
X13704889Y-17157345D01*
X13704889Y-17157345D02*
X13704889Y-17214488D01*
X13704889Y-17214488D02*
X13695365Y-17233536D01*
X13695365Y-17233536D02*
X13685841Y-17243060D01*
X13685841Y-17243060D02*
X13666794Y-17252584D01*
X13666794Y-17252584D02*
X13638222Y-17252584D01*
X13762032Y-17119250D02*
X13838222Y-17119250D01*
X13790603Y-17052584D02*
X13790603Y-17224012D01*
X13790603Y-17224012D02*
X13800127Y-17243060D01*
X13800127Y-17243060D02*
X13819175Y-17252584D01*
X13819175Y-17252584D02*
X13838222Y-17252584D01*
X13895365Y-17243060D02*
X13914413Y-17252584D01*
X13914413Y-17252584D02*
X13952508Y-17252584D01*
X13952508Y-17252584D02*
X13971556Y-17243060D01*
X13971556Y-17243060D02*
X13981079Y-17224012D01*
X13981079Y-17224012D02*
X13981079Y-17214488D01*
X13981079Y-17214488D02*
X13971556Y-17195441D01*
X13971556Y-17195441D02*
X13952508Y-17185917D01*
X13952508Y-17185917D02*
X13923937Y-17185917D01*
X13923937Y-17185917D02*
X13904889Y-17176393D01*
X13904889Y-17176393D02*
X13895365Y-17157345D01*
X13895365Y-17157345D02*
X13895365Y-17147822D01*
X13895365Y-17147822D02*
X13904889Y-17128774D01*
X13904889Y-17128774D02*
X13923937Y-17119250D01*
X13923937Y-17119250D02*
X13952508Y-17119250D01*
X13952508Y-17119250D02*
X13971556Y-17128774D01*
X14047746Y-17328774D02*
X14057270Y-17319250D01*
X14057270Y-17319250D02*
X14076318Y-17290679D01*
X14076318Y-17290679D02*
X14085841Y-17271631D01*
X14085841Y-17271631D02*
X14095365Y-17243060D01*
X14095365Y-17243060D02*
X14104889Y-17195441D01*
X14104889Y-17195441D02*
X14104889Y-17157345D01*
X14104889Y-17157345D02*
X14095365Y-17109726D01*
X14095365Y-17109726D02*
X14085841Y-17081155D01*
X14085841Y-17081155D02*
X14076318Y-17062107D01*
X14076318Y-17062107D02*
X14057270Y-17033536D01*
X14057270Y-17033536D02*
X14047746Y-17024012D01*
X14409651Y-17328774D02*
X14400127Y-17319250D01*
X14400127Y-17319250D02*
X14381079Y-17290679D01*
X14381079Y-17290679D02*
X14371556Y-17271631D01*
X14371556Y-17271631D02*
X14362032Y-17243060D01*
X14362032Y-17243060D02*
X14352508Y-17195441D01*
X14352508Y-17195441D02*
X14352508Y-17157345D01*
X14352508Y-17157345D02*
X14362032Y-17109726D01*
X14362032Y-17109726D02*
X14371556Y-17081155D01*
X14371556Y-17081155D02*
X14381079Y-17062107D01*
X14381079Y-17062107D02*
X14400127Y-17033536D01*
X14400127Y-17033536D02*
X14409651Y-17024012D01*
X14485841Y-17119250D02*
X14485841Y-17252584D01*
X14485841Y-17138298D02*
X14495365Y-17128774D01*
X14495365Y-17128774D02*
X14514413Y-17119250D01*
X14514413Y-17119250D02*
X14542984Y-17119250D01*
X14542984Y-17119250D02*
X14562032Y-17128774D01*
X14562032Y-17128774D02*
X14571556Y-17147822D01*
X14571556Y-17147822D02*
X14571556Y-17252584D01*
X14695365Y-17252584D02*
X14676318Y-17243060D01*
X14676318Y-17243060D02*
X14666794Y-17233536D01*
X14666794Y-17233536D02*
X14657270Y-17214488D01*
X14657270Y-17214488D02*
X14657270Y-17157345D01*
X14657270Y-17157345D02*
X14666794Y-17138298D01*
X14666794Y-17138298D02*
X14676318Y-17128774D01*
X14676318Y-17128774D02*
X14695365Y-17119250D01*
X14695365Y-17119250D02*
X14723937Y-17119250D01*
X14723937Y-17119250D02*
X14742984Y-17128774D01*
X14742984Y-17128774D02*
X14752508Y-17138298D01*
X14752508Y-17138298D02*
X14762032Y-17157345D01*
X14762032Y-17157345D02*
X14762032Y-17214488D01*
X14762032Y-17214488D02*
X14752508Y-17233536D01*
X14752508Y-17233536D02*
X14742984Y-17243060D01*
X14742984Y-17243060D02*
X14723937Y-17252584D01*
X14723937Y-17252584D02*
X14695365Y-17252584D01*
X14819175Y-17119250D02*
X14895365Y-17119250D01*
X14847746Y-17052584D02*
X14847746Y-17224012D01*
X14847746Y-17224012D02*
X14857270Y-17243060D01*
X14857270Y-17243060D02*
X14876318Y-17252584D01*
X14876318Y-17252584D02*
X14895365Y-17252584D01*
X15114413Y-17119250D02*
X15114413Y-17319250D01*
X15114413Y-17128774D02*
X15133460Y-17119250D01*
X15133460Y-17119250D02*
X15171556Y-17119250D01*
X15171556Y-17119250D02*
X15190603Y-17128774D01*
X15190603Y-17128774D02*
X15200127Y-17138298D01*
X15200127Y-17138298D02*
X15209651Y-17157345D01*
X15209651Y-17157345D02*
X15209651Y-17214488D01*
X15209651Y-17214488D02*
X15200127Y-17233536D01*
X15200127Y-17233536D02*
X15190603Y-17243060D01*
X15190603Y-17243060D02*
X15171556Y-17252584D01*
X15171556Y-17252584D02*
X15133460Y-17252584D01*
X15133460Y-17252584D02*
X15114413Y-17243060D01*
X15323937Y-17252584D02*
X15304889Y-17243060D01*
X15304889Y-17243060D02*
X15295365Y-17224012D01*
X15295365Y-17224012D02*
X15295365Y-17052584D01*
X15485841Y-17252584D02*
X15485841Y-17147822D01*
X15485841Y-17147822D02*
X15476318Y-17128774D01*
X15476318Y-17128774D02*
X15457270Y-17119250D01*
X15457270Y-17119250D02*
X15419175Y-17119250D01*
X15419175Y-17119250D02*
X15400127Y-17128774D01*
X15485841Y-17243060D02*
X15466794Y-17252584D01*
X15466794Y-17252584D02*
X15419175Y-17252584D01*
X15419175Y-17252584D02*
X15400127Y-17243060D01*
X15400127Y-17243060D02*
X15390603Y-17224012D01*
X15390603Y-17224012D02*
X15390603Y-17204964D01*
X15390603Y-17204964D02*
X15400127Y-17185917D01*
X15400127Y-17185917D02*
X15419175Y-17176393D01*
X15419175Y-17176393D02*
X15466794Y-17176393D01*
X15466794Y-17176393D02*
X15485841Y-17166869D01*
X15552508Y-17119250D02*
X15628699Y-17119250D01*
X15581080Y-17052584D02*
X15581080Y-17224012D01*
X15581080Y-17224012D02*
X15590603Y-17243060D01*
X15590603Y-17243060D02*
X15609651Y-17252584D01*
X15609651Y-17252584D02*
X15628699Y-17252584D01*
X15771556Y-17243060D02*
X15752508Y-17252584D01*
X15752508Y-17252584D02*
X15714413Y-17252584D01*
X15714413Y-17252584D02*
X15695365Y-17243060D01*
X15695365Y-17243060D02*
X15685841Y-17224012D01*
X15685841Y-17224012D02*
X15685841Y-17147822D01*
X15685841Y-17147822D02*
X15695365Y-17128774D01*
X15695365Y-17128774D02*
X15714413Y-17119250D01*
X15714413Y-17119250D02*
X15752508Y-17119250D01*
X15752508Y-17119250D02*
X15771556Y-17128774D01*
X15771556Y-17128774D02*
X15781080Y-17147822D01*
X15781080Y-17147822D02*
X15781080Y-17166869D01*
X15781080Y-17166869D02*
X15685841Y-17185917D01*
X15952508Y-17252584D02*
X15952508Y-17052584D01*
X15952508Y-17243060D02*
X15933461Y-17252584D01*
X15933461Y-17252584D02*
X15895365Y-17252584D01*
X15895365Y-17252584D02*
X15876318Y-17243060D01*
X15876318Y-17243060D02*
X15866794Y-17233536D01*
X15866794Y-17233536D02*
X15857270Y-17214488D01*
X15857270Y-17214488D02*
X15857270Y-17157345D01*
X15857270Y-17157345D02*
X15866794Y-17138298D01*
X15866794Y-17138298D02*
X15876318Y-17128774D01*
X15876318Y-17128774D02*
X15895365Y-17119250D01*
X15895365Y-17119250D02*
X15933461Y-17119250D01*
X15933461Y-17119250D02*
X15952508Y-17128774D01*
X16028699Y-17328774D02*
X16038222Y-17319250D01*
X16038222Y-17319250D02*
X16057270Y-17290679D01*
X16057270Y-17290679D02*
X16066794Y-17271631D01*
X16066794Y-17271631D02*
X16076318Y-17243060D01*
X16076318Y-17243060D02*
X16085841Y-17195441D01*
X16085841Y-17195441D02*
X16085841Y-17157345D01*
X16085841Y-17157345D02*
X16076318Y-17109726D01*
X16076318Y-17109726D02*
X16066794Y-17081155D01*
X16066794Y-17081155D02*
X16057270Y-17062107D01*
X16057270Y-17062107D02*
X16038222Y-17033536D01*
X16038222Y-17033536D02*
X16028699Y-17024012D01*
X7653635Y-17481100D02*
G75*
G03*
X7653635Y-17481100I-100000J0D01*
G01*
X7895365Y-17372584D02*
X8028698Y-17372584D01*
X8028698Y-17372584D02*
X7942984Y-17572584D01*
X8104888Y-17553536D02*
X8114412Y-17563060D01*
X8114412Y-17563060D02*
X8104888Y-17572584D01*
X8104888Y-17572584D02*
X8095365Y-17563060D01*
X8095365Y-17563060D02*
X8104888Y-17553536D01*
X8104888Y-17553536D02*
X8104888Y-17572584D01*
X8238222Y-17372584D02*
X8257269Y-17372584D01*
X8257269Y-17372584D02*
X8276317Y-17382107D01*
X8276317Y-17382107D02*
X8285841Y-17391631D01*
X8285841Y-17391631D02*
X8295365Y-17410679D01*
X8295365Y-17410679D02*
X8304888Y-17448774D01*
X8304888Y-17448774D02*
X8304888Y-17496393D01*
X8304888Y-17496393D02*
X8295365Y-17534488D01*
X8295365Y-17534488D02*
X8285841Y-17553536D01*
X8285841Y-17553536D02*
X8276317Y-17563060D01*
X8276317Y-17563060D02*
X8257269Y-17572584D01*
X8257269Y-17572584D02*
X8238222Y-17572584D01*
X8238222Y-17572584D02*
X8219174Y-17563060D01*
X8219174Y-17563060D02*
X8209650Y-17553536D01*
X8209650Y-17553536D02*
X8200126Y-17534488D01*
X8200126Y-17534488D02*
X8190603Y-17496393D01*
X8190603Y-17496393D02*
X8190603Y-17448774D01*
X8190603Y-17448774D02*
X8200126Y-17410679D01*
X8200126Y-17410679D02*
X8209650Y-17391631D01*
X8209650Y-17391631D02*
X8219174Y-17382107D01*
X8219174Y-17382107D02*
X8238222Y-17372584D01*
X8428698Y-17372584D02*
X8447746Y-17372584D01*
X8447746Y-17372584D02*
X8466793Y-17382107D01*
X8466793Y-17382107D02*
X8476317Y-17391631D01*
X8476317Y-17391631D02*
X8485841Y-17410679D01*
X8485841Y-17410679D02*
X8495365Y-17448774D01*
X8495365Y-17448774D02*
X8495365Y-17496393D01*
X8495365Y-17496393D02*
X8485841Y-17534488D01*
X8485841Y-17534488D02*
X8476317Y-17553536D01*
X8476317Y-17553536D02*
X8466793Y-17563060D01*
X8466793Y-17563060D02*
X8447746Y-17572584D01*
X8447746Y-17572584D02*
X8428698Y-17572584D01*
X8428698Y-17572584D02*
X8409650Y-17563060D01*
X8409650Y-17563060D02*
X8400127Y-17553536D01*
X8400127Y-17553536D02*
X8390603Y-17534488D01*
X8390603Y-17534488D02*
X8381079Y-17496393D01*
X8381079Y-17496393D02*
X8381079Y-17448774D01*
X8381079Y-17448774D02*
X8390603Y-17410679D01*
X8390603Y-17410679D02*
X8400127Y-17391631D01*
X8400127Y-17391631D02*
X8409650Y-17382107D01*
X8409650Y-17382107D02*
X8428698Y-17372584D01*
X8619174Y-17372584D02*
X8638222Y-17372584D01*
X8638222Y-17372584D02*
X8657269Y-17382107D01*
X8657269Y-17382107D02*
X8666793Y-17391631D01*
X8666793Y-17391631D02*
X8676317Y-17410679D01*
X8676317Y-17410679D02*
X8685841Y-17448774D01*
X8685841Y-17448774D02*
X8685841Y-17496393D01*
X8685841Y-17496393D02*
X8676317Y-17534488D01*
X8676317Y-17534488D02*
X8666793Y-17553536D01*
X8666793Y-17553536D02*
X8657269Y-17563060D01*
X8657269Y-17563060D02*
X8638222Y-17572584D01*
X8638222Y-17572584D02*
X8619174Y-17572584D01*
X8619174Y-17572584D02*
X8600127Y-17563060D01*
X8600127Y-17563060D02*
X8590603Y-17553536D01*
X8590603Y-17553536D02*
X8581079Y-17534488D01*
X8581079Y-17534488D02*
X8571555Y-17496393D01*
X8571555Y-17496393D02*
X8571555Y-17448774D01*
X8571555Y-17448774D02*
X8581079Y-17410679D01*
X8581079Y-17410679D02*
X8590603Y-17391631D01*
X8590603Y-17391631D02*
X8600127Y-17382107D01*
X8600127Y-17382107D02*
X8619174Y-17372584D01*
X8771555Y-17572584D02*
X8771555Y-17439250D01*
X8771555Y-17458298D02*
X8781079Y-17448774D01*
X8781079Y-17448774D02*
X8800127Y-17439250D01*
X8800127Y-17439250D02*
X8828698Y-17439250D01*
X8828698Y-17439250D02*
X8847746Y-17448774D01*
X8847746Y-17448774D02*
X8857269Y-17467822D01*
X8857269Y-17467822D02*
X8857269Y-17572584D01*
X8857269Y-17467822D02*
X8866793Y-17448774D01*
X8866793Y-17448774D02*
X8885841Y-17439250D01*
X8885841Y-17439250D02*
X8914412Y-17439250D01*
X8914412Y-17439250D02*
X8933460Y-17448774D01*
X8933460Y-17448774D02*
X8942984Y-17467822D01*
X8942984Y-17467822D02*
X8942984Y-17572584D01*
X9038222Y-17572584D02*
X9038222Y-17439250D01*
X9038222Y-17458298D02*
X9047746Y-17448774D01*
X9047746Y-17448774D02*
X9066793Y-17439250D01*
X9066793Y-17439250D02*
X9095365Y-17439250D01*
X9095365Y-17439250D02*
X9114412Y-17448774D01*
X9114412Y-17448774D02*
X9123936Y-17467822D01*
X9123936Y-17467822D02*
X9123936Y-17572584D01*
X9123936Y-17467822D02*
X9133460Y-17448774D01*
X9133460Y-17448774D02*
X9152508Y-17439250D01*
X9152508Y-17439250D02*
X9181079Y-17439250D01*
X9181079Y-17439250D02*
X9200127Y-17448774D01*
X9200127Y-17448774D02*
X9209650Y-17467822D01*
X9209650Y-17467822D02*
X9209650Y-17572584D01*
X9600127Y-17363060D02*
X9428698Y-17620203D01*
X9857270Y-17372584D02*
X9876317Y-17372584D01*
X9876317Y-17372584D02*
X9895365Y-17382107D01*
X9895365Y-17382107D02*
X9904889Y-17391631D01*
X9904889Y-17391631D02*
X9914412Y-17410679D01*
X9914412Y-17410679D02*
X9923936Y-17448774D01*
X9923936Y-17448774D02*
X9923936Y-17496393D01*
X9923936Y-17496393D02*
X9914412Y-17534488D01*
X9914412Y-17534488D02*
X9904889Y-17553536D01*
X9904889Y-17553536D02*
X9895365Y-17563060D01*
X9895365Y-17563060D02*
X9876317Y-17572584D01*
X9876317Y-17572584D02*
X9857270Y-17572584D01*
X9857270Y-17572584D02*
X9838222Y-17563060D01*
X9838222Y-17563060D02*
X9828698Y-17553536D01*
X9828698Y-17553536D02*
X9819174Y-17534488D01*
X9819174Y-17534488D02*
X9809651Y-17496393D01*
X9809651Y-17496393D02*
X9809651Y-17448774D01*
X9809651Y-17448774D02*
X9819174Y-17410679D01*
X9819174Y-17410679D02*
X9828698Y-17391631D01*
X9828698Y-17391631D02*
X9838222Y-17382107D01*
X9838222Y-17382107D02*
X9857270Y-17372584D01*
X10009651Y-17553536D02*
X10019174Y-17563060D01*
X10019174Y-17563060D02*
X10009651Y-17572584D01*
X10009651Y-17572584D02*
X10000127Y-17563060D01*
X10000127Y-17563060D02*
X10009651Y-17553536D01*
X10009651Y-17553536D02*
X10009651Y-17572584D01*
X10095365Y-17391631D02*
X10104889Y-17382107D01*
X10104889Y-17382107D02*
X10123936Y-17372584D01*
X10123936Y-17372584D02*
X10171555Y-17372584D01*
X10171555Y-17372584D02*
X10190603Y-17382107D01*
X10190603Y-17382107D02*
X10200127Y-17391631D01*
X10200127Y-17391631D02*
X10209651Y-17410679D01*
X10209651Y-17410679D02*
X10209651Y-17429726D01*
X10209651Y-17429726D02*
X10200127Y-17458298D01*
X10200127Y-17458298D02*
X10085841Y-17572584D01*
X10085841Y-17572584D02*
X10209651Y-17572584D01*
X10276317Y-17372584D02*
X10409651Y-17372584D01*
X10409651Y-17372584D02*
X10323936Y-17572584D01*
X10581079Y-17372584D02*
X10485841Y-17372584D01*
X10485841Y-17372584D02*
X10476317Y-17467822D01*
X10476317Y-17467822D02*
X10485841Y-17458298D01*
X10485841Y-17458298D02*
X10504889Y-17448774D01*
X10504889Y-17448774D02*
X10552508Y-17448774D01*
X10552508Y-17448774D02*
X10571555Y-17458298D01*
X10571555Y-17458298D02*
X10581079Y-17467822D01*
X10581079Y-17467822D02*
X10590603Y-17486869D01*
X10590603Y-17486869D02*
X10590603Y-17534488D01*
X10590603Y-17534488D02*
X10581079Y-17553536D01*
X10581079Y-17553536D02*
X10571555Y-17563060D01*
X10571555Y-17563060D02*
X10552508Y-17572584D01*
X10552508Y-17572584D02*
X10504889Y-17572584D01*
X10504889Y-17572584D02*
X10485841Y-17563060D01*
X10485841Y-17563060D02*
X10476317Y-17553536D01*
X10762032Y-17372584D02*
X10723936Y-17372584D01*
X10723936Y-17372584D02*
X10704889Y-17382107D01*
X10704889Y-17382107D02*
X10695365Y-17391631D01*
X10695365Y-17391631D02*
X10676317Y-17420203D01*
X10676317Y-17420203D02*
X10666793Y-17458298D01*
X10666793Y-17458298D02*
X10666793Y-17534488D01*
X10666793Y-17534488D02*
X10676317Y-17553536D01*
X10676317Y-17553536D02*
X10685841Y-17563060D01*
X10685841Y-17563060D02*
X10704889Y-17572584D01*
X10704889Y-17572584D02*
X10742984Y-17572584D01*
X10742984Y-17572584D02*
X10762032Y-17563060D01*
X10762032Y-17563060D02*
X10771555Y-17553536D01*
X10771555Y-17553536D02*
X10781079Y-17534488D01*
X10781079Y-17534488D02*
X10781079Y-17486869D01*
X10781079Y-17486869D02*
X10771555Y-17467822D01*
X10771555Y-17467822D02*
X10762032Y-17458298D01*
X10762032Y-17458298D02*
X10742984Y-17448774D01*
X10742984Y-17448774D02*
X10704889Y-17448774D01*
X10704889Y-17448774D02*
X10685841Y-17458298D01*
X10685841Y-17458298D02*
X10676317Y-17467822D01*
X10676317Y-17467822D02*
X10666793Y-17486869D01*
X10857270Y-17372584D02*
X10857270Y-17410679D01*
X10933460Y-17372584D02*
X10933460Y-17410679D01*
X11228698Y-17648774D02*
X11219174Y-17639250D01*
X11219174Y-17639250D02*
X11200127Y-17610679D01*
X11200127Y-17610679D02*
X11190603Y-17591631D01*
X11190603Y-17591631D02*
X11181079Y-17563060D01*
X11181079Y-17563060D02*
X11171555Y-17515441D01*
X11171555Y-17515441D02*
X11171555Y-17477345D01*
X11171555Y-17477345D02*
X11181079Y-17429726D01*
X11181079Y-17429726D02*
X11190603Y-17401155D01*
X11190603Y-17401155D02*
X11200127Y-17382107D01*
X11200127Y-17382107D02*
X11219174Y-17353536D01*
X11219174Y-17353536D02*
X11228698Y-17344012D01*
X11400127Y-17372584D02*
X11304889Y-17372584D01*
X11304889Y-17372584D02*
X11295365Y-17467822D01*
X11295365Y-17467822D02*
X11304889Y-17458298D01*
X11304889Y-17458298D02*
X11323936Y-17448774D01*
X11323936Y-17448774D02*
X11371555Y-17448774D01*
X11371555Y-17448774D02*
X11390603Y-17458298D01*
X11390603Y-17458298D02*
X11400127Y-17467822D01*
X11400127Y-17467822D02*
X11409651Y-17486869D01*
X11409651Y-17486869D02*
X11409651Y-17534488D01*
X11409651Y-17534488D02*
X11400127Y-17553536D01*
X11400127Y-17553536D02*
X11390603Y-17563060D01*
X11390603Y-17563060D02*
X11371555Y-17572584D01*
X11371555Y-17572584D02*
X11323936Y-17572584D01*
X11323936Y-17572584D02*
X11304889Y-17563060D01*
X11304889Y-17563060D02*
X11295365Y-17553536D01*
X11647746Y-17572584D02*
X11647746Y-17372584D01*
X11733460Y-17572584D02*
X11733460Y-17467822D01*
X11733460Y-17467822D02*
X11723936Y-17448774D01*
X11723936Y-17448774D02*
X11704889Y-17439250D01*
X11704889Y-17439250D02*
X11676317Y-17439250D01*
X11676317Y-17439250D02*
X11657270Y-17448774D01*
X11657270Y-17448774D02*
X11647746Y-17458298D01*
X11857270Y-17572584D02*
X11838222Y-17563060D01*
X11838222Y-17563060D02*
X11828698Y-17553536D01*
X11828698Y-17553536D02*
X11819174Y-17534488D01*
X11819174Y-17534488D02*
X11819174Y-17477345D01*
X11819174Y-17477345D02*
X11828698Y-17458298D01*
X11828698Y-17458298D02*
X11838222Y-17448774D01*
X11838222Y-17448774D02*
X11857270Y-17439250D01*
X11857270Y-17439250D02*
X11885841Y-17439250D01*
X11885841Y-17439250D02*
X11904889Y-17448774D01*
X11904889Y-17448774D02*
X11914413Y-17458298D01*
X11914413Y-17458298D02*
X11923936Y-17477345D01*
X11923936Y-17477345D02*
X11923936Y-17534488D01*
X11923936Y-17534488D02*
X11914413Y-17553536D01*
X11914413Y-17553536D02*
X11904889Y-17563060D01*
X11904889Y-17563060D02*
X11885841Y-17572584D01*
X11885841Y-17572584D02*
X11857270Y-17572584D01*
X12038222Y-17572584D02*
X12019174Y-17563060D01*
X12019174Y-17563060D02*
X12009651Y-17544012D01*
X12009651Y-17544012D02*
X12009651Y-17372584D01*
X12190603Y-17563060D02*
X12171555Y-17572584D01*
X12171555Y-17572584D02*
X12133460Y-17572584D01*
X12133460Y-17572584D02*
X12114413Y-17563060D01*
X12114413Y-17563060D02*
X12104889Y-17544012D01*
X12104889Y-17544012D02*
X12104889Y-17467822D01*
X12104889Y-17467822D02*
X12114413Y-17448774D01*
X12114413Y-17448774D02*
X12133460Y-17439250D01*
X12133460Y-17439250D02*
X12171555Y-17439250D01*
X12171555Y-17439250D02*
X12190603Y-17448774D01*
X12190603Y-17448774D02*
X12200127Y-17467822D01*
X12200127Y-17467822D02*
X12200127Y-17486869D01*
X12200127Y-17486869D02*
X12104889Y-17505917D01*
X12276317Y-17563060D02*
X12295365Y-17572584D01*
X12295365Y-17572584D02*
X12333460Y-17572584D01*
X12333460Y-17572584D02*
X12352508Y-17563060D01*
X12352508Y-17563060D02*
X12362032Y-17544012D01*
X12362032Y-17544012D02*
X12362032Y-17534488D01*
X12362032Y-17534488D02*
X12352508Y-17515441D01*
X12352508Y-17515441D02*
X12333460Y-17505917D01*
X12333460Y-17505917D02*
X12304889Y-17505917D01*
X12304889Y-17505917D02*
X12285841Y-17496393D01*
X12285841Y-17496393D02*
X12276317Y-17477345D01*
X12276317Y-17477345D02*
X12276317Y-17467822D01*
X12276317Y-17467822D02*
X12285841Y-17448774D01*
X12285841Y-17448774D02*
X12304889Y-17439250D01*
X12304889Y-17439250D02*
X12333460Y-17439250D01*
X12333460Y-17439250D02*
X12352508Y-17448774D01*
X12428698Y-17648774D02*
X12438222Y-17639250D01*
X12438222Y-17639250D02*
X12457270Y-17610679D01*
X12457270Y-17610679D02*
X12466794Y-17591631D01*
X12466794Y-17591631D02*
X12476317Y-17563060D01*
X12476317Y-17563060D02*
X12485841Y-17515441D01*
X12485841Y-17515441D02*
X12485841Y-17477345D01*
X12485841Y-17477345D02*
X12476317Y-17429726D01*
X12476317Y-17429726D02*
X12466794Y-17401155D01*
X12466794Y-17401155D02*
X12457270Y-17382107D01*
X12457270Y-17382107D02*
X12438222Y-17353536D01*
X12438222Y-17353536D02*
X12428698Y-17344012D01*
X12790603Y-17648774D02*
X12781079Y-17639250D01*
X12781079Y-17639250D02*
X12762032Y-17610679D01*
X12762032Y-17610679D02*
X12752508Y-17591631D01*
X12752508Y-17591631D02*
X12742984Y-17563060D01*
X12742984Y-17563060D02*
X12733460Y-17515441D01*
X12733460Y-17515441D02*
X12733460Y-17477345D01*
X12733460Y-17477345D02*
X12742984Y-17429726D01*
X12742984Y-17429726D02*
X12752508Y-17401155D01*
X12752508Y-17401155D02*
X12762032Y-17382107D01*
X12762032Y-17382107D02*
X12781079Y-17353536D01*
X12781079Y-17353536D02*
X12790603Y-17344012D01*
X12866794Y-17439250D02*
X12866794Y-17572584D01*
X12866794Y-17458298D02*
X12876317Y-17448774D01*
X12876317Y-17448774D02*
X12895365Y-17439250D01*
X12895365Y-17439250D02*
X12923936Y-17439250D01*
X12923936Y-17439250D02*
X12942984Y-17448774D01*
X12942984Y-17448774D02*
X12952508Y-17467822D01*
X12952508Y-17467822D02*
X12952508Y-17572584D01*
X13076317Y-17572584D02*
X13057270Y-17563060D01*
X13057270Y-17563060D02*
X13047746Y-17553536D01*
X13047746Y-17553536D02*
X13038222Y-17534488D01*
X13038222Y-17534488D02*
X13038222Y-17477345D01*
X13038222Y-17477345D02*
X13047746Y-17458298D01*
X13047746Y-17458298D02*
X13057270Y-17448774D01*
X13057270Y-17448774D02*
X13076317Y-17439250D01*
X13076317Y-17439250D02*
X13104889Y-17439250D01*
X13104889Y-17439250D02*
X13123936Y-17448774D01*
X13123936Y-17448774D02*
X13133460Y-17458298D01*
X13133460Y-17458298D02*
X13142984Y-17477345D01*
X13142984Y-17477345D02*
X13142984Y-17534488D01*
X13142984Y-17534488D02*
X13133460Y-17553536D01*
X13133460Y-17553536D02*
X13123936Y-17563060D01*
X13123936Y-17563060D02*
X13104889Y-17572584D01*
X13104889Y-17572584D02*
X13076317Y-17572584D01*
X13200127Y-17439250D02*
X13276317Y-17439250D01*
X13228698Y-17372584D02*
X13228698Y-17544012D01*
X13228698Y-17544012D02*
X13238222Y-17563060D01*
X13238222Y-17563060D02*
X13257270Y-17572584D01*
X13257270Y-17572584D02*
X13276317Y-17572584D01*
X13495365Y-17439250D02*
X13495365Y-17639250D01*
X13495365Y-17448774D02*
X13514413Y-17439250D01*
X13514413Y-17439250D02*
X13552508Y-17439250D01*
X13552508Y-17439250D02*
X13571556Y-17448774D01*
X13571556Y-17448774D02*
X13581079Y-17458298D01*
X13581079Y-17458298D02*
X13590603Y-17477345D01*
X13590603Y-17477345D02*
X13590603Y-17534488D01*
X13590603Y-17534488D02*
X13581079Y-17553536D01*
X13581079Y-17553536D02*
X13571556Y-17563060D01*
X13571556Y-17563060D02*
X13552508Y-17572584D01*
X13552508Y-17572584D02*
X13514413Y-17572584D01*
X13514413Y-17572584D02*
X13495365Y-17563060D01*
X13704889Y-17572584D02*
X13685841Y-17563060D01*
X13685841Y-17563060D02*
X13676317Y-17544012D01*
X13676317Y-17544012D02*
X13676317Y-17372584D01*
X13866794Y-17572584D02*
X13866794Y-17467822D01*
X13866794Y-17467822D02*
X13857270Y-17448774D01*
X13857270Y-17448774D02*
X13838222Y-17439250D01*
X13838222Y-17439250D02*
X13800127Y-17439250D01*
X13800127Y-17439250D02*
X13781079Y-17448774D01*
X13866794Y-17563060D02*
X13847746Y-17572584D01*
X13847746Y-17572584D02*
X13800127Y-17572584D01*
X13800127Y-17572584D02*
X13781079Y-17563060D01*
X13781079Y-17563060D02*
X13771556Y-17544012D01*
X13771556Y-17544012D02*
X13771556Y-17524964D01*
X13771556Y-17524964D02*
X13781079Y-17505917D01*
X13781079Y-17505917D02*
X13800127Y-17496393D01*
X13800127Y-17496393D02*
X13847746Y-17496393D01*
X13847746Y-17496393D02*
X13866794Y-17486869D01*
X13933460Y-17439250D02*
X14009651Y-17439250D01*
X13962032Y-17372584D02*
X13962032Y-17544012D01*
X13962032Y-17544012D02*
X13971556Y-17563060D01*
X13971556Y-17563060D02*
X13990603Y-17572584D01*
X13990603Y-17572584D02*
X14009651Y-17572584D01*
X14152508Y-17563060D02*
X14133460Y-17572584D01*
X14133460Y-17572584D02*
X14095365Y-17572584D01*
X14095365Y-17572584D02*
X14076317Y-17563060D01*
X14076317Y-17563060D02*
X14066794Y-17544012D01*
X14066794Y-17544012D02*
X14066794Y-17467822D01*
X14066794Y-17467822D02*
X14076317Y-17448774D01*
X14076317Y-17448774D02*
X14095365Y-17439250D01*
X14095365Y-17439250D02*
X14133460Y-17439250D01*
X14133460Y-17439250D02*
X14152508Y-17448774D01*
X14152508Y-17448774D02*
X14162032Y-17467822D01*
X14162032Y-17467822D02*
X14162032Y-17486869D01*
X14162032Y-17486869D02*
X14066794Y-17505917D01*
X14333460Y-17572584D02*
X14333460Y-17372584D01*
X14333460Y-17563060D02*
X14314413Y-17572584D01*
X14314413Y-17572584D02*
X14276317Y-17572584D01*
X14276317Y-17572584D02*
X14257270Y-17563060D01*
X14257270Y-17563060D02*
X14247746Y-17553536D01*
X14247746Y-17553536D02*
X14238222Y-17534488D01*
X14238222Y-17534488D02*
X14238222Y-17477345D01*
X14238222Y-17477345D02*
X14247746Y-17458298D01*
X14247746Y-17458298D02*
X14257270Y-17448774D01*
X14257270Y-17448774D02*
X14276317Y-17439250D01*
X14276317Y-17439250D02*
X14314413Y-17439250D01*
X14314413Y-17439250D02*
X14333460Y-17448774D01*
X14409651Y-17648774D02*
X14419175Y-17639250D01*
X14419175Y-17639250D02*
X14438222Y-17610679D01*
X14438222Y-17610679D02*
X14447746Y-17591631D01*
X14447746Y-17591631D02*
X14457270Y-17563060D01*
X14457270Y-17563060D02*
X14466794Y-17515441D01*
X14466794Y-17515441D02*
X14466794Y-17477345D01*
X14466794Y-17477345D02*
X14457270Y-17429726D01*
X14457270Y-17429726D02*
X14447746Y-17401155D01*
X14447746Y-17401155D02*
X14438222Y-17382107D01*
X14438222Y-17382107D02*
X14419175Y-17353536D01*
X14419175Y-17353536D02*
X14409651Y-17344012D01*
M02*
