<?xml version="1.0" encoding="UTF-8" standalone="no"?>
<!DOCTYPE svg PUBLIC "-//W3C//DTD SVG 1.1//EN" "http://www.w3.org/Graphics/SVG/1.1/DTD/svg11.dtd">
<svg width="100%" height="100%" viewBox="0 0 32 24" version="1.1" xmlns="http://www.w3.org/2000/svg" xmlns:xlink="http://www.w3.org/1999/xlink" xml:space="preserve" xmlns:serif="http://www.serif.com/" style="fill-rule:evenodd;clip-rule:evenodd;stroke-linecap:round;stroke-linejoin:round;stroke-miterlimit:1.5;">
    <g transform="matrix(0.08,0,0,0.08,-60.2289,-454.995)">
        <g transform="matrix(2.97713,2.68554e-16,6.40398e-16,2.97713,429.794,5228.47)">
            <path d="M120.408,190.699L124.492,188.599L124.492,221.526L131.255,221.526L131.255,180.492L126.999,180.492L117.783,186.441L120.408,190.699Z" style="fill:white;fill-rule:nonzero;"/>
            <path d="M153.977,216.046C149.135,216.046 145.926,212.983 145.926,208.257C145.926,203.385 149.135,200.088 153.977,200.088C158.82,200.088 162.029,203.297 162.029,208.257C162.029,212.866 158.82,216.046 153.977,216.046ZM154.269,222.196C162.846,222.196 168.967,216.337 168.967,207.877C168.967,199.855 163.429,193.938 155.553,193.938C152.694,193.938 149.864,194.929 147.822,196.561C150.243,191.721 154.736,187.404 160.308,184.692L157.77,179.646C146.509,184.721 138.988,195.249 138.988,205.981C138.988,215.638 145.226,222.196 154.269,222.196Z" style="fill:white;fill-rule:nonzero;"/>
        </g>
        <g transform="matrix(2.92393,2.63755e-16,6.28954e-16,2.92393,386.372,5281.39)">
            <path d="M149.053,231.133C151.788,231.133 154.23,229.989 155.16,228.283C156.148,229.989 158.591,231.133 161.325,231.133C165.707,231.133 168.807,228.07 168.807,223.612L168.807,210.625L164.505,210.625L164.505,223.612C164.505,225.802 162.954,227.411 160.879,227.411C159.075,227.411 157.602,226.267 157.369,224.697L157.369,210.625L153.068,210.625L153.068,224.697C152.854,226.267 151.361,227.411 149.499,227.411C147.444,227.411 145.912,225.822 145.912,223.612L145.912,210.625L141.61,210.625L141.61,223.612C141.61,228.051 144.672,231.133 149.053,231.133Z" style="fill:white;fill-rule:nonzero;"/>
            <path d="M177.976,207.036L177.976,202.851L173.675,202.851L173.675,207.036L177.976,207.036ZM177.996,230.784L177.996,210.625L173.675,210.625L173.675,230.784L177.996,230.784Z" style="fill:white;fill-rule:nonzero;"/>
            <path d="M187.378,230.784L187.378,219.541C187.378,216.227 189.57,213.998 192.362,213.998C195.154,213.998 197.074,216.227 197.074,219.483L197.074,230.784L201.375,230.784L201.375,218.747C201.375,213.765 198.295,210.256 193.952,210.256C190.946,210.256 188.445,211.536 186.894,213.687L185.79,210.625L183.077,210.625L183.077,230.784L187.378,230.784Z" style="fill:white;fill-rule:nonzero;"/>
            <path d="M215.451,227.413C211.98,227.413 209.479,224.64 209.479,220.801C209.479,216.865 211.98,214.034 215.451,214.034C219.038,214.034 221.617,216.865 221.617,220.801C221.617,224.64 219.038,227.413 215.451,227.413ZM225.918,202.87L221.617,202.87L221.617,213.647C219.988,211.535 217.545,210.295 214.636,210.295C209.091,210.295 205.177,214.616 205.177,220.801C205.177,226.89 209.091,231.152 214.636,231.152C217.855,231.152 220.511,229.641 222.12,227.122L223.186,230.784L225.918,230.784L225.918,202.87Z" style="fill:white;fill-rule:nonzero;"/>
            <path d="M230.088,227.023C231.852,229.485 235.437,231.133 239.043,231.133C243.58,231.133 246.603,228.846 246.603,225.395C246.603,222.681 244.762,220.472 241.7,219.503L238.113,218.378C236.716,217.932 235.979,217.293 235.979,216.479C235.979,215.025 237.279,214.017 239.16,214.017C240.77,214.017 242.592,214.56 244.123,215.529L246.196,212.641C244.084,211.148 241.371,210.276 238.85,210.276C234.623,210.276 231.717,212.621 231.717,216.149C231.717,218.688 233.344,220.782 235.747,221.499L239.257,222.546C241.138,223.108 242.34,224.135 242.34,225.318C242.34,226.558 240.847,227.392 238.597,227.392C236.387,227.392 234.042,226.306 232.744,224.659L230.088,227.023Z" style="fill:white;fill-rule:nonzero;"/>
        </g>
        <g transform="matrix(2.79981,1.76869e-16,6.3111e-16,2.83217,401.874,5282.62)">
            <rect x="127.176" y="144.732" width="134.992" height="100.088" style="fill:none;stroke:white;stroke-width:3.61px;"/>
        </g>
    </g>
</svg>
