%TF.GenerationSoftware,KiCad,Pcbnew,(6.0.1)*%
%TF.CreationDate,2023-06-13T10:27:40-07:00*%
%TF.ProjectId,16Bars,31364261-7273-42e6-9b69-6361645f7063,rev?*%
%TF.SameCoordinates,Original*%
%TF.FileFunction,Legend,Top*%
%TF.FilePolarity,Positive*%
%FSLAX46Y46*%
G04 Gerber Fmt 4.6, Leading zero omitted, Abs format (unit mm)*
G04 Created by KiCad (PCBNEW (6.0.1)) date 2023-06-13 10:27:40*
%MOMM*%
%LPD*%
G01*
G04 APERTURE LIST*
%ADD10C,0.150000*%
%ADD11C,0.275000*%
%ADD12C,0.100000*%
%ADD13C,0.152400*%
%ADD14C,0.254000*%
%ADD15C,0.200000*%
%ADD16C,0.120000*%
%ADD17C,0.446881*%
%ADD18C,0.127000*%
G04 APERTURE END LIST*
D10*
X65974285Y-110851428D02*
X66522857Y-110851428D01*
X66248571Y-111125714D02*
X66248571Y-110577142D01*
X67208571Y-110405714D02*
X66865714Y-110405714D01*
X66831428Y-110748571D01*
X66865714Y-110714285D01*
X66934285Y-110680000D01*
X67105714Y-110680000D01*
X67174285Y-110714285D01*
X67208571Y-110748571D01*
X67242857Y-110817142D01*
X67242857Y-110988571D01*
X67208571Y-111057142D01*
X67174285Y-111091428D01*
X67105714Y-111125714D01*
X66934285Y-111125714D01*
X66865714Y-111091428D01*
X66831428Y-111057142D01*
X67448571Y-110405714D02*
X67688571Y-111125714D01*
X67928571Y-110405714D01*
D11*
X83137500Y-54700000D02*
G75*
G03*
X83137500Y-54700000I-137500J0D01*
G01*
D10*
X79750000Y-139800000D02*
X62250000Y-139800000D01*
X62250000Y-139800000D02*
X62250000Y-132900000D01*
X62250000Y-132900000D02*
X79750000Y-132900000D01*
X79750000Y-132900000D02*
X79750000Y-139800000D01*
X64502857Y-136591428D02*
X64605714Y-136625714D01*
X64777142Y-136625714D01*
X64845714Y-136591428D01*
X64880000Y-136557142D01*
X64914285Y-136488571D01*
X64914285Y-136420000D01*
X64880000Y-136351428D01*
X64845714Y-136317142D01*
X64777142Y-136282857D01*
X64640000Y-136248571D01*
X64571428Y-136214285D01*
X64537142Y-136180000D01*
X64502857Y-136111428D01*
X64502857Y-136042857D01*
X64537142Y-135974285D01*
X64571428Y-135940000D01*
X64640000Y-135905714D01*
X64811428Y-135905714D01*
X64914285Y-135940000D01*
X65497142Y-136591428D02*
X65428571Y-136625714D01*
X65291428Y-136625714D01*
X65222857Y-136591428D01*
X65188571Y-136522857D01*
X65188571Y-136248571D01*
X65222857Y-136180000D01*
X65291428Y-136145714D01*
X65428571Y-136145714D01*
X65497142Y-136180000D01*
X65531428Y-136248571D01*
X65531428Y-136317142D01*
X65188571Y-136385714D01*
X65771428Y-136145714D02*
X65942857Y-136625714D01*
X66114285Y-136145714D01*
X66662857Y-136591428D02*
X66594285Y-136625714D01*
X66457142Y-136625714D01*
X66388571Y-136591428D01*
X66354285Y-136522857D01*
X66354285Y-136248571D01*
X66388571Y-136180000D01*
X66457142Y-136145714D01*
X66594285Y-136145714D01*
X66662857Y-136180000D01*
X66697142Y-136248571D01*
X66697142Y-136317142D01*
X66354285Y-136385714D01*
X67005714Y-136145714D02*
X67005714Y-136625714D01*
X67005714Y-136214285D02*
X67040000Y-136180000D01*
X67108571Y-136145714D01*
X67211428Y-136145714D01*
X67280000Y-136180000D01*
X67314285Y-136248571D01*
X67314285Y-136625714D01*
X68171428Y-136591428D02*
X68274285Y-136625714D01*
X68445714Y-136625714D01*
X68514285Y-136591428D01*
X68548571Y-136557142D01*
X68582857Y-136488571D01*
X68582857Y-136420000D01*
X68548571Y-136351428D01*
X68514285Y-136317142D01*
X68445714Y-136282857D01*
X68308571Y-136248571D01*
X68240000Y-136214285D01*
X68205714Y-136180000D01*
X68171428Y-136111428D01*
X68171428Y-136042857D01*
X68205714Y-135974285D01*
X68240000Y-135940000D01*
X68308571Y-135905714D01*
X68480000Y-135905714D01*
X68582857Y-135940000D01*
X69165714Y-136591428D02*
X69097142Y-136625714D01*
X68960000Y-136625714D01*
X68891428Y-136591428D01*
X68857142Y-136522857D01*
X68857142Y-136248571D01*
X68891428Y-136180000D01*
X68960000Y-136145714D01*
X69097142Y-136145714D01*
X69165714Y-136180000D01*
X69200000Y-136248571D01*
X69200000Y-136317142D01*
X68857142Y-136385714D01*
X69817142Y-136145714D02*
X69817142Y-136728571D01*
X69782857Y-136797142D01*
X69748571Y-136831428D01*
X69680000Y-136865714D01*
X69577142Y-136865714D01*
X69508571Y-136831428D01*
X69817142Y-136591428D02*
X69748571Y-136625714D01*
X69611428Y-136625714D01*
X69542857Y-136591428D01*
X69508571Y-136557142D01*
X69474285Y-136488571D01*
X69474285Y-136282857D01*
X69508571Y-136214285D01*
X69542857Y-136180000D01*
X69611428Y-136145714D01*
X69748571Y-136145714D01*
X69817142Y-136180000D01*
X70160000Y-136625714D02*
X70160000Y-136145714D01*
X70160000Y-136214285D02*
X70194285Y-136180000D01*
X70262857Y-136145714D01*
X70365714Y-136145714D01*
X70434285Y-136180000D01*
X70468571Y-136248571D01*
X70468571Y-136625714D01*
X70468571Y-136248571D02*
X70502857Y-136180000D01*
X70571428Y-136145714D01*
X70674285Y-136145714D01*
X70742857Y-136180000D01*
X70777142Y-136248571D01*
X70777142Y-136625714D01*
X71394285Y-136591428D02*
X71325714Y-136625714D01*
X71188571Y-136625714D01*
X71120000Y-136591428D01*
X71085714Y-136522857D01*
X71085714Y-136248571D01*
X71120000Y-136180000D01*
X71188571Y-136145714D01*
X71325714Y-136145714D01*
X71394285Y-136180000D01*
X71428571Y-136248571D01*
X71428571Y-136317142D01*
X71085714Y-136385714D01*
X71737142Y-136145714D02*
X71737142Y-136625714D01*
X71737142Y-136214285D02*
X71771428Y-136180000D01*
X71840000Y-136145714D01*
X71942857Y-136145714D01*
X72011428Y-136180000D01*
X72045714Y-136248571D01*
X72045714Y-136625714D01*
X72285714Y-136145714D02*
X72560000Y-136145714D01*
X72388571Y-135905714D02*
X72388571Y-136522857D01*
X72422857Y-136591428D01*
X72491428Y-136625714D01*
X72560000Y-136625714D01*
X73348571Y-136625714D02*
X73348571Y-135905714D01*
X73520000Y-135905714D01*
X73622857Y-135940000D01*
X73691428Y-136008571D01*
X73725714Y-136077142D01*
X73760000Y-136214285D01*
X73760000Y-136317142D01*
X73725714Y-136454285D01*
X73691428Y-136522857D01*
X73622857Y-136591428D01*
X73520000Y-136625714D01*
X73348571Y-136625714D01*
X74068571Y-136625714D02*
X74068571Y-136145714D01*
X74068571Y-135905714D02*
X74034285Y-135940000D01*
X74068571Y-135974285D01*
X74102857Y-135940000D01*
X74068571Y-135905714D01*
X74068571Y-135974285D01*
X74377142Y-136591428D02*
X74445714Y-136625714D01*
X74582857Y-136625714D01*
X74651428Y-136591428D01*
X74685714Y-136522857D01*
X74685714Y-136488571D01*
X74651428Y-136420000D01*
X74582857Y-136385714D01*
X74480000Y-136385714D01*
X74411428Y-136351428D01*
X74377142Y-136282857D01*
X74377142Y-136248571D01*
X74411428Y-136180000D01*
X74480000Y-136145714D01*
X74582857Y-136145714D01*
X74651428Y-136180000D01*
X74994285Y-136145714D02*
X74994285Y-136865714D01*
X74994285Y-136180000D02*
X75062857Y-136145714D01*
X75200000Y-136145714D01*
X75268571Y-136180000D01*
X75302857Y-136214285D01*
X75337142Y-136282857D01*
X75337142Y-136488571D01*
X75302857Y-136557142D01*
X75268571Y-136591428D01*
X75200000Y-136625714D01*
X75062857Y-136625714D01*
X74994285Y-136591428D01*
X75748571Y-136625714D02*
X75680000Y-136591428D01*
X75645714Y-136522857D01*
X75645714Y-135905714D01*
X76331428Y-136625714D02*
X76331428Y-136248571D01*
X76297142Y-136180000D01*
X76228571Y-136145714D01*
X76091428Y-136145714D01*
X76022857Y-136180000D01*
X76331428Y-136591428D02*
X76262857Y-136625714D01*
X76091428Y-136625714D01*
X76022857Y-136591428D01*
X75988571Y-136522857D01*
X75988571Y-136454285D01*
X76022857Y-136385714D01*
X76091428Y-136351428D01*
X76262857Y-136351428D01*
X76331428Y-136317142D01*
X76605714Y-136145714D02*
X76777142Y-136625714D01*
X76948571Y-136145714D02*
X76777142Y-136625714D01*
X76708571Y-136797142D01*
X76674285Y-136831428D01*
X76605714Y-136865714D01*
X77188571Y-136591428D02*
X77257142Y-136625714D01*
X77394285Y-136625714D01*
X77462857Y-136591428D01*
X77497142Y-136522857D01*
X77497142Y-136488571D01*
X77462857Y-136420000D01*
X77394285Y-136385714D01*
X77291428Y-136385714D01*
X77222857Y-136351428D01*
X77188571Y-136282857D01*
X77188571Y-136248571D01*
X77222857Y-136180000D01*
X77291428Y-136145714D01*
X77394285Y-136145714D01*
X77462857Y-136180000D01*
%TO.C,REF\u002A\u002A*%
X63457142Y-136938095D02*
X63504761Y-136985714D01*
X63552380Y-137128571D01*
X63552380Y-137223809D01*
X63504761Y-137366666D01*
X63409523Y-137461904D01*
X63314285Y-137509523D01*
X63123809Y-137557142D01*
X62980952Y-137557142D01*
X62790476Y-137509523D01*
X62695238Y-137461904D01*
X62600000Y-137366666D01*
X62552380Y-137223809D01*
X62552380Y-137128571D01*
X62600000Y-136985714D01*
X62647619Y-136938095D01*
X63552380Y-136366666D02*
X63504761Y-136461904D01*
X63409523Y-136509523D01*
X62552380Y-136509523D01*
X63552380Y-135842857D02*
X63504761Y-135938095D01*
X63457142Y-135985714D01*
X63361904Y-136033333D01*
X63076190Y-136033333D01*
X62980952Y-135985714D01*
X62933333Y-135938095D01*
X62885714Y-135842857D01*
X62885714Y-135700000D01*
X62933333Y-135604761D01*
X62980952Y-135557142D01*
X63076190Y-135509523D01*
X63361904Y-135509523D01*
X63457142Y-135557142D01*
X63504761Y-135604761D01*
X63552380Y-135700000D01*
X63552380Y-135842857D01*
X63504761Y-134652380D02*
X63552380Y-134747619D01*
X63552380Y-134938095D01*
X63504761Y-135033333D01*
X63457142Y-135080952D01*
X63361904Y-135128571D01*
X63076190Y-135128571D01*
X62980952Y-135080952D01*
X62933333Y-135033333D01*
X62885714Y-134938095D01*
X62885714Y-134747619D01*
X62933333Y-134652380D01*
X63552380Y-134223809D02*
X62552380Y-134223809D01*
X63171428Y-134128571D02*
X63552380Y-133842857D01*
X62885714Y-133842857D02*
X63266666Y-134223809D01*
X60852380Y-136938095D02*
X60376190Y-137271428D01*
X60852380Y-137509523D02*
X59852380Y-137509523D01*
X59852380Y-137128571D01*
X59900000Y-137033333D01*
X59947619Y-136985714D01*
X60042857Y-136938095D01*
X60185714Y-136938095D01*
X60280952Y-136985714D01*
X60328571Y-137033333D01*
X60376190Y-137128571D01*
X60376190Y-137509523D01*
X60804761Y-136128571D02*
X60852380Y-136223809D01*
X60852380Y-136414285D01*
X60804761Y-136509523D01*
X60709523Y-136557142D01*
X60328571Y-136557142D01*
X60233333Y-136509523D01*
X60185714Y-136414285D01*
X60185714Y-136223809D01*
X60233333Y-136128571D01*
X60328571Y-136080952D01*
X60423809Y-136080952D01*
X60519047Y-136557142D01*
X60804761Y-135700000D02*
X60852380Y-135604761D01*
X60852380Y-135414285D01*
X60804761Y-135319047D01*
X60709523Y-135271428D01*
X60661904Y-135271428D01*
X60566666Y-135319047D01*
X60519047Y-135414285D01*
X60519047Y-135557142D01*
X60471428Y-135652380D01*
X60376190Y-135700000D01*
X60328571Y-135700000D01*
X60233333Y-135652380D01*
X60185714Y-135557142D01*
X60185714Y-135414285D01*
X60233333Y-135319047D01*
X60804761Y-134461904D02*
X60852380Y-134557142D01*
X60852380Y-134747619D01*
X60804761Y-134842857D01*
X60709523Y-134890476D01*
X60328571Y-134890476D01*
X60233333Y-134842857D01*
X60185714Y-134747619D01*
X60185714Y-134557142D01*
X60233333Y-134461904D01*
X60328571Y-134414285D01*
X60423809Y-134414285D01*
X60519047Y-134890476D01*
X60185714Y-134128571D02*
X60185714Y-133747619D01*
X59852380Y-133985714D02*
X60709523Y-133985714D01*
X60804761Y-133938095D01*
X60852380Y-133842857D01*
X60852380Y-133747619D01*
X58057142Y-136938095D02*
X58104761Y-136985714D01*
X58152380Y-137128571D01*
X58152380Y-137223809D01*
X58104761Y-137366666D01*
X58009523Y-137461904D01*
X57914285Y-137509523D01*
X57723809Y-137557142D01*
X57580952Y-137557142D01*
X57390476Y-137509523D01*
X57295238Y-137461904D01*
X57200000Y-137366666D01*
X57152380Y-137223809D01*
X57152380Y-137128571D01*
X57200000Y-136985714D01*
X57247619Y-136938095D01*
X58152380Y-136366666D02*
X58104761Y-136461904D01*
X58009523Y-136509523D01*
X57152380Y-136509523D01*
X58152380Y-135842856D02*
X58104761Y-135938095D01*
X58057142Y-135985714D01*
X57961904Y-136033333D01*
X57676190Y-136033333D01*
X57580952Y-135985714D01*
X57533333Y-135938095D01*
X57485714Y-135842856D01*
X57485714Y-135699999D01*
X57533333Y-135604761D01*
X57580952Y-135557142D01*
X57676190Y-135509523D01*
X57961904Y-135509523D01*
X58057142Y-135557142D01*
X58104761Y-135604761D01*
X58152380Y-135699999D01*
X58152380Y-135842856D01*
X58104761Y-134652380D02*
X58152380Y-134747618D01*
X58152380Y-134938095D01*
X58104761Y-135033333D01*
X58057142Y-135080952D01*
X57961904Y-135128571D01*
X57676190Y-135128571D01*
X57580952Y-135080952D01*
X57533333Y-135033333D01*
X57485714Y-134938095D01*
X57485714Y-134747618D01*
X57533333Y-134652380D01*
X58152380Y-134223809D02*
X57152380Y-134223809D01*
X57771428Y-134128571D02*
X58152380Y-133842856D01*
X57485714Y-133842856D02*
X57866666Y-134223809D01*
X57628571Y-133080952D02*
X57676190Y-132938095D01*
X57723809Y-132890475D01*
X57819047Y-132842856D01*
X57961904Y-132842856D01*
X58057142Y-132890475D01*
X58104761Y-132938095D01*
X58152380Y-133033333D01*
X58152380Y-133414285D01*
X57152380Y-133414285D01*
X57152380Y-133080952D01*
X57200000Y-132985714D01*
X57247619Y-132938095D01*
X57342857Y-132890475D01*
X57438095Y-132890475D01*
X57533333Y-132938095D01*
X57580952Y-132985714D01*
X57628571Y-133080952D01*
X57628571Y-133414285D01*
X58152380Y-131985714D02*
X57628571Y-131985714D01*
X57533333Y-132033333D01*
X57485714Y-132128571D01*
X57485714Y-132319047D01*
X57533333Y-132414285D01*
X58104761Y-131985714D02*
X58152380Y-132080952D01*
X58152380Y-132319047D01*
X58104761Y-132414285D01*
X58009523Y-132461904D01*
X57914285Y-132461904D01*
X57819047Y-132414285D01*
X57771428Y-132319047D01*
X57771428Y-132080952D01*
X57723809Y-131985714D01*
X58152380Y-131509523D02*
X57485714Y-131509523D01*
X57676190Y-131509523D02*
X57580952Y-131461904D01*
X57533333Y-131414285D01*
X57485714Y-131319047D01*
X57485714Y-131223809D01*
%TO.C,D4*%
X70261904Y-67469880D02*
X70261904Y-66469880D01*
X70500000Y-66469880D01*
X70642857Y-66517500D01*
X70738095Y-66612738D01*
X70785714Y-66707976D01*
X70833333Y-66898452D01*
X70833333Y-67041309D01*
X70785714Y-67231785D01*
X70738095Y-67327023D01*
X70642857Y-67422261D01*
X70500000Y-67469880D01*
X70261904Y-67469880D01*
X71690476Y-66803214D02*
X71690476Y-67469880D01*
X71452380Y-66422261D02*
X71214285Y-67136547D01*
X71833333Y-67136547D01*
%TO.C,D3*%
X70361904Y-81252380D02*
X70361904Y-80252380D01*
X70600000Y-80252380D01*
X70742857Y-80300000D01*
X70838095Y-80395238D01*
X70885714Y-80490476D01*
X70933333Y-80680952D01*
X70933333Y-80823809D01*
X70885714Y-81014285D01*
X70838095Y-81109523D01*
X70742857Y-81204761D01*
X70600000Y-81252380D01*
X70361904Y-81252380D01*
X71266666Y-80252380D02*
X71885714Y-80252380D01*
X71552380Y-80633333D01*
X71695238Y-80633333D01*
X71790476Y-80680952D01*
X71838095Y-80728571D01*
X71885714Y-80823809D01*
X71885714Y-81061904D01*
X71838095Y-81157142D01*
X71790476Y-81204761D01*
X71695238Y-81252380D01*
X71409523Y-81252380D01*
X71314285Y-81204761D01*
X71266666Y-81157142D01*
D12*
%TO.C,SW1*%
X80256733Y-41363680D02*
X80328161Y-41387490D01*
X80447209Y-41387490D01*
X80494828Y-41363680D01*
X80518638Y-41339871D01*
X80542447Y-41292252D01*
X80542447Y-41244633D01*
X80518638Y-41197014D01*
X80494828Y-41173204D01*
X80447209Y-41149395D01*
X80351971Y-41125585D01*
X80304352Y-41101776D01*
X80280542Y-41077966D01*
X80256733Y-41030347D01*
X80256733Y-40982728D01*
X80280542Y-40935109D01*
X80304352Y-40911300D01*
X80351971Y-40887490D01*
X80471019Y-40887490D01*
X80542447Y-40911300D01*
X80709114Y-40887490D02*
X80828161Y-41387490D01*
X80923400Y-41030347D01*
X81018638Y-41387490D01*
X81137685Y-40887490D01*
X81590066Y-41387490D02*
X81304352Y-41387490D01*
X81447209Y-41387490D02*
X81447209Y-40887490D01*
X81399590Y-40958919D01*
X81351971Y-41006538D01*
X81304352Y-41030347D01*
%TO.C,J1*%
X58238904Y-36387190D02*
X58238904Y-36744333D01*
X58215095Y-36815761D01*
X58167476Y-36863380D01*
X58096047Y-36887190D01*
X58048428Y-36887190D01*
X58738904Y-36887190D02*
X58453190Y-36887190D01*
X58596047Y-36887190D02*
X58596047Y-36387190D01*
X58548428Y-36458619D01*
X58500809Y-36506238D01*
X58453190Y-36530047D01*
%TO.C,R5*%
X68216666Y-42726190D02*
X68050000Y-42488095D01*
X67930952Y-42726190D02*
X67930952Y-42226190D01*
X68121428Y-42226190D01*
X68169047Y-42250000D01*
X68192857Y-42273809D01*
X68216666Y-42321428D01*
X68216666Y-42392857D01*
X68192857Y-42440476D01*
X68169047Y-42464285D01*
X68121428Y-42488095D01*
X67930952Y-42488095D01*
X68669047Y-42226190D02*
X68430952Y-42226190D01*
X68407142Y-42464285D01*
X68430952Y-42440476D01*
X68478571Y-42416666D01*
X68597619Y-42416666D01*
X68645238Y-42440476D01*
X68669047Y-42464285D01*
X68692857Y-42511904D01*
X68692857Y-42630952D01*
X68669047Y-42678571D01*
X68645238Y-42702380D01*
X68597619Y-42726190D01*
X68478571Y-42726190D01*
X68430952Y-42702380D01*
X68407142Y-42678571D01*
D10*
%TO.C,D1*%
X70561904Y-53792380D02*
X70561904Y-52792380D01*
X70800000Y-52792380D01*
X70942857Y-52840000D01*
X71038095Y-52935238D01*
X71085714Y-53030476D01*
X71133333Y-53220952D01*
X71133333Y-53363809D01*
X71085714Y-53554285D01*
X71038095Y-53649523D01*
X70942857Y-53744761D01*
X70800000Y-53792380D01*
X70561904Y-53792380D01*
X72085714Y-53792380D02*
X71514285Y-53792380D01*
X71800000Y-53792380D02*
X71800000Y-52792380D01*
X71704761Y-52935238D01*
X71609523Y-53030476D01*
X71514285Y-53078095D01*
%TO.C,D6*%
X70102380Y-45138095D02*
X69102380Y-45138095D01*
X69102380Y-44900000D01*
X69150000Y-44757142D01*
X69245238Y-44661904D01*
X69340476Y-44614285D01*
X69530952Y-44566666D01*
X69673809Y-44566666D01*
X69864285Y-44614285D01*
X69959523Y-44661904D01*
X70054761Y-44757142D01*
X70102380Y-44900000D01*
X70102380Y-45138095D01*
X69102380Y-43709523D02*
X69102380Y-43900000D01*
X69150000Y-43995238D01*
X69197619Y-44042857D01*
X69340476Y-44138095D01*
X69530952Y-44185714D01*
X69911904Y-44185714D01*
X70007142Y-44138095D01*
X70054761Y-44090476D01*
X70102380Y-43995238D01*
X70102380Y-43804761D01*
X70054761Y-43709523D01*
X70007142Y-43661904D01*
X69911904Y-43614285D01*
X69673809Y-43614285D01*
X69578571Y-43661904D01*
X69530952Y-43709523D01*
X69483333Y-43804761D01*
X69483333Y-43995238D01*
X69530952Y-44090476D01*
X69578571Y-44138095D01*
X69673809Y-44185714D01*
D13*
%TO.C,J5*%
X58531036Y-76913547D02*
X58531036Y-77775333D01*
X58473583Y-77947690D01*
X58358679Y-78062595D01*
X58186321Y-78120047D01*
X58071417Y-78120047D01*
X59680083Y-76913547D02*
X59105560Y-76913547D01*
X59048107Y-77488071D01*
X59105560Y-77430619D01*
X59220464Y-77373166D01*
X59507726Y-77373166D01*
X59622631Y-77430619D01*
X59680083Y-77488071D01*
X59737536Y-77602976D01*
X59737536Y-77890238D01*
X59680083Y-78005142D01*
X59622631Y-78062595D01*
X59507726Y-78120047D01*
X59220464Y-78120047D01*
X59105560Y-78062595D01*
X59048107Y-78005142D01*
D10*
%TO.C,R3*%
X67833333Y-66452380D02*
X67500000Y-65976190D01*
X67261904Y-66452380D02*
X67261904Y-65452380D01*
X67642857Y-65452380D01*
X67738095Y-65500000D01*
X67785714Y-65547619D01*
X67833333Y-65642857D01*
X67833333Y-65785714D01*
X67785714Y-65880952D01*
X67738095Y-65928571D01*
X67642857Y-65976190D01*
X67261904Y-65976190D01*
X68166666Y-65452380D02*
X68785714Y-65452380D01*
X68452380Y-65833333D01*
X68595238Y-65833333D01*
X68690476Y-65880952D01*
X68738095Y-65928571D01*
X68785714Y-66023809D01*
X68785714Y-66261904D01*
X68738095Y-66357142D01*
X68690476Y-66404761D01*
X68595238Y-66452380D01*
X68309523Y-66452380D01*
X68214285Y-66404761D01*
X68166666Y-66357142D01*
D14*
%TO.C,S1*%
X76514047Y-74967619D02*
X76574523Y-74786190D01*
X76574523Y-74483809D01*
X76514047Y-74362857D01*
X76453571Y-74302380D01*
X76332619Y-74241904D01*
X76211666Y-74241904D01*
X76090714Y-74302380D01*
X76030238Y-74362857D01*
X75969761Y-74483809D01*
X75909285Y-74725714D01*
X75848809Y-74846666D01*
X75788333Y-74907142D01*
X75667380Y-74967619D01*
X75546428Y-74967619D01*
X75425476Y-74907142D01*
X75365000Y-74846666D01*
X75304523Y-74725714D01*
X75304523Y-74423333D01*
X75365000Y-74241904D01*
X76574523Y-73032380D02*
X76574523Y-73758095D01*
X76574523Y-73395238D02*
X75304523Y-73395238D01*
X75485952Y-73516190D01*
X75606904Y-73637142D01*
X75667380Y-73758095D01*
D10*
%TO.C,R2*%
X67838333Y-80082380D02*
X67505000Y-79606190D01*
X67266904Y-80082380D02*
X67266904Y-79082380D01*
X67647857Y-79082380D01*
X67743095Y-79130000D01*
X67790714Y-79177619D01*
X67838333Y-79272857D01*
X67838333Y-79415714D01*
X67790714Y-79510952D01*
X67743095Y-79558571D01*
X67647857Y-79606190D01*
X67266904Y-79606190D01*
X68219285Y-79177619D02*
X68266904Y-79130000D01*
X68362142Y-79082380D01*
X68600238Y-79082380D01*
X68695476Y-79130000D01*
X68743095Y-79177619D01*
X68790714Y-79272857D01*
X68790714Y-79368095D01*
X68743095Y-79510952D01*
X68171666Y-80082380D01*
X68790714Y-80082380D01*
D12*
%TO.C,R15*%
X74678571Y-48556190D02*
X74511904Y-48318095D01*
X74392857Y-48556190D02*
X74392857Y-48056190D01*
X74583333Y-48056190D01*
X74630952Y-48080000D01*
X74654761Y-48103809D01*
X74678571Y-48151428D01*
X74678571Y-48222857D01*
X74654761Y-48270476D01*
X74630952Y-48294285D01*
X74583333Y-48318095D01*
X74392857Y-48318095D01*
X75154761Y-48556190D02*
X74869047Y-48556190D01*
X75011904Y-48556190D02*
X75011904Y-48056190D01*
X74964285Y-48127619D01*
X74916666Y-48175238D01*
X74869047Y-48199047D01*
X75607142Y-48056190D02*
X75369047Y-48056190D01*
X75345238Y-48294285D01*
X75369047Y-48270476D01*
X75416666Y-48246666D01*
X75535714Y-48246666D01*
X75583333Y-48270476D01*
X75607142Y-48294285D01*
X75630952Y-48341904D01*
X75630952Y-48460952D01*
X75607142Y-48508571D01*
X75583333Y-48532380D01*
X75535714Y-48556190D01*
X75416666Y-48556190D01*
X75369047Y-48532380D01*
X75345238Y-48508571D01*
%TO.C,C11*%
X72178571Y-48518571D02*
X72154761Y-48542380D01*
X72083333Y-48566190D01*
X72035714Y-48566190D01*
X71964285Y-48542380D01*
X71916666Y-48494761D01*
X71892857Y-48447142D01*
X71869047Y-48351904D01*
X71869047Y-48280476D01*
X71892857Y-48185238D01*
X71916666Y-48137619D01*
X71964285Y-48090000D01*
X72035714Y-48066190D01*
X72083333Y-48066190D01*
X72154761Y-48090000D01*
X72178571Y-48113809D01*
X72654761Y-48566190D02*
X72369047Y-48566190D01*
X72511904Y-48566190D02*
X72511904Y-48066190D01*
X72464285Y-48137619D01*
X72416666Y-48185238D01*
X72369047Y-48209047D01*
X73130952Y-48566190D02*
X72845238Y-48566190D01*
X72988095Y-48566190D02*
X72988095Y-48066190D01*
X72940476Y-48137619D01*
X72892857Y-48185238D01*
X72845238Y-48209047D01*
D14*
%TO.C,SW3*%
X76714047Y-58293333D02*
X76774523Y-58111904D01*
X76774523Y-57809523D01*
X76714047Y-57688571D01*
X76653571Y-57628095D01*
X76532619Y-57567619D01*
X76411666Y-57567619D01*
X76290714Y-57628095D01*
X76230238Y-57688571D01*
X76169761Y-57809523D01*
X76109285Y-58051428D01*
X76048809Y-58172380D01*
X75988333Y-58232857D01*
X75867380Y-58293333D01*
X75746428Y-58293333D01*
X75625476Y-58232857D01*
X75565000Y-58172380D01*
X75504523Y-58051428D01*
X75504523Y-57749047D01*
X75565000Y-57567619D01*
X75504523Y-57144285D02*
X76774523Y-56841904D01*
X75867380Y-56600000D01*
X76774523Y-56358095D01*
X75504523Y-56055714D01*
X75504523Y-55692857D02*
X75504523Y-54906666D01*
X75988333Y-55330000D01*
X75988333Y-55148571D01*
X76048809Y-55027619D01*
X76109285Y-54967142D01*
X76230238Y-54906666D01*
X76532619Y-54906666D01*
X76653571Y-54967142D01*
X76714047Y-55027619D01*
X76774523Y-55148571D01*
X76774523Y-55511428D01*
X76714047Y-55632380D01*
X76653571Y-55692857D01*
D13*
%TO.C,J6*%
X59331036Y-90536047D02*
X59331036Y-91397833D01*
X59273583Y-91570190D01*
X59158679Y-91685095D01*
X58986321Y-91742547D01*
X58871417Y-91742547D01*
X60422631Y-90536047D02*
X60192821Y-90536047D01*
X60077917Y-90593500D01*
X60020464Y-90650952D01*
X59905560Y-90823309D01*
X59848107Y-91053119D01*
X59848107Y-91512738D01*
X59905560Y-91627642D01*
X59963012Y-91685095D01*
X60077917Y-91742547D01*
X60307726Y-91742547D01*
X60422631Y-91685095D01*
X60480083Y-91627642D01*
X60537536Y-91512738D01*
X60537536Y-91225476D01*
X60480083Y-91110571D01*
X60422631Y-91053119D01*
X60307726Y-90995666D01*
X60077917Y-90995666D01*
X59963012Y-91053119D01*
X59905560Y-91110571D01*
X59848107Y-91225476D01*
D12*
%TO.C,D2*%
X67930952Y-36526190D02*
X67930952Y-36026190D01*
X68050000Y-36026190D01*
X68121428Y-36050000D01*
X68169047Y-36097619D01*
X68192857Y-36145238D01*
X68216666Y-36240476D01*
X68216666Y-36311904D01*
X68192857Y-36407142D01*
X68169047Y-36454761D01*
X68121428Y-36502380D01*
X68050000Y-36526190D01*
X67930952Y-36526190D01*
X68407142Y-36073809D02*
X68430952Y-36050000D01*
X68478571Y-36026190D01*
X68597619Y-36026190D01*
X68645238Y-36050000D01*
X68669047Y-36073809D01*
X68692857Y-36121428D01*
X68692857Y-36169047D01*
X68669047Y-36240476D01*
X68383333Y-36526190D01*
X68692857Y-36526190D01*
D10*
%TO.C,R1*%
X67833333Y-52782380D02*
X67500000Y-52306190D01*
X67261904Y-52782380D02*
X67261904Y-51782380D01*
X67642857Y-51782380D01*
X67738095Y-51830000D01*
X67785714Y-51877619D01*
X67833333Y-51972857D01*
X67833333Y-52115714D01*
X67785714Y-52210952D01*
X67738095Y-52258571D01*
X67642857Y-52306190D01*
X67261904Y-52306190D01*
X68785714Y-52782380D02*
X68214285Y-52782380D01*
X68500000Y-52782380D02*
X68500000Y-51782380D01*
X68404761Y-51925238D01*
X68309523Y-52020476D01*
X68214285Y-52068095D01*
D13*
%TO.C,J4*%
X58531036Y-63236047D02*
X58531036Y-64097833D01*
X58473583Y-64270190D01*
X58358679Y-64385095D01*
X58186321Y-64442547D01*
X58071417Y-64442547D01*
X59622631Y-63638214D02*
X59622631Y-64442547D01*
X59335369Y-63178595D02*
X59048107Y-64040380D01*
X59794988Y-64040380D01*
D15*
%TO.C,J3*%
X65833333Y-106604761D02*
X65976190Y-106652380D01*
X66214285Y-106652380D01*
X66309523Y-106604761D01*
X66357142Y-106557142D01*
X66404761Y-106461904D01*
X66404761Y-106366666D01*
X66357142Y-106271428D01*
X66309523Y-106223809D01*
X66214285Y-106176190D01*
X66023809Y-106128571D01*
X65928571Y-106080952D01*
X65880952Y-106033333D01*
X65833333Y-105938095D01*
X65833333Y-105842857D01*
X65880952Y-105747619D01*
X65928571Y-105700000D01*
X66023809Y-105652380D01*
X66261904Y-105652380D01*
X66404761Y-105700000D01*
X67214285Y-106604761D02*
X67119047Y-106652380D01*
X66928571Y-106652380D01*
X66833333Y-106604761D01*
X66785714Y-106509523D01*
X66785714Y-106128571D01*
X66833333Y-106033333D01*
X66928571Y-105985714D01*
X67119047Y-105985714D01*
X67214285Y-106033333D01*
X67261904Y-106128571D01*
X67261904Y-106223809D01*
X66785714Y-106319047D01*
X67595238Y-105985714D02*
X67833333Y-106652380D01*
X68071428Y-105985714D01*
X68833333Y-106604761D02*
X68738095Y-106652380D01*
X68547619Y-106652380D01*
X68452380Y-106604761D01*
X68404761Y-106509523D01*
X68404761Y-106128571D01*
X68452380Y-106033333D01*
X68547619Y-105985714D01*
X68738095Y-105985714D01*
X68833333Y-106033333D01*
X68880952Y-106128571D01*
X68880952Y-106223809D01*
X68404761Y-106319047D01*
X69309523Y-105985714D02*
X69309523Y-106652380D01*
X69309523Y-106080952D02*
X69357142Y-106033333D01*
X69452380Y-105985714D01*
X69595238Y-105985714D01*
X69690476Y-106033333D01*
X69738095Y-106128571D01*
X69738095Y-106652380D01*
X70166666Y-106604761D02*
X70309523Y-106652380D01*
X70547619Y-106652380D01*
X70642857Y-106604761D01*
X70690476Y-106557142D01*
X70738095Y-106461904D01*
X70738095Y-106366666D01*
X70690476Y-106271428D01*
X70642857Y-106223809D01*
X70547619Y-106176190D01*
X70357142Y-106128571D01*
X70261904Y-106080952D01*
X70214285Y-106033333D01*
X70166666Y-105938095D01*
X70166666Y-105842857D01*
X70214285Y-105747619D01*
X70261904Y-105700000D01*
X70357142Y-105652380D01*
X70595238Y-105652380D01*
X70738095Y-105700000D01*
X71547619Y-106604761D02*
X71452380Y-106652380D01*
X71261904Y-106652380D01*
X71166666Y-106604761D01*
X71119047Y-106509523D01*
X71119047Y-106128571D01*
X71166666Y-106033333D01*
X71261904Y-105985714D01*
X71452380Y-105985714D01*
X71547619Y-106033333D01*
X71595238Y-106128571D01*
X71595238Y-106223809D01*
X71119047Y-106319047D01*
X72452380Y-105985714D02*
X72452380Y-106795238D01*
X72404761Y-106890476D01*
X72357142Y-106938095D01*
X72261904Y-106985714D01*
X72119047Y-106985714D01*
X72023809Y-106938095D01*
X72452380Y-106604761D02*
X72357142Y-106652380D01*
X72166666Y-106652380D01*
X72071428Y-106604761D01*
X72023809Y-106557142D01*
X71976190Y-106461904D01*
X71976190Y-106176190D01*
X72023809Y-106080952D01*
X72071428Y-106033333D01*
X72166666Y-105985714D01*
X72357142Y-105985714D01*
X72452380Y-106033333D01*
X72928571Y-106652380D02*
X72928571Y-105985714D01*
X72928571Y-106080952D02*
X72976190Y-106033333D01*
X73071428Y-105985714D01*
X73214285Y-105985714D01*
X73309523Y-106033333D01*
X73357142Y-106128571D01*
X73357142Y-106652380D01*
X73357142Y-106128571D02*
X73404761Y-106033333D01*
X73500000Y-105985714D01*
X73642857Y-105985714D01*
X73738095Y-106033333D01*
X73785714Y-106128571D01*
X73785714Y-106652380D01*
X74642857Y-106604761D02*
X74547619Y-106652380D01*
X74357142Y-106652380D01*
X74261904Y-106604761D01*
X74214285Y-106509523D01*
X74214285Y-106128571D01*
X74261904Y-106033333D01*
X74357142Y-105985714D01*
X74547619Y-105985714D01*
X74642857Y-106033333D01*
X74690476Y-106128571D01*
X74690476Y-106223809D01*
X74214285Y-106319047D01*
X75119047Y-105985714D02*
X75119047Y-106652380D01*
X75119047Y-106080952D02*
X75166666Y-106033333D01*
X75261904Y-105985714D01*
X75404761Y-105985714D01*
X75500000Y-106033333D01*
X75547619Y-106128571D01*
X75547619Y-106652380D01*
X75880952Y-105985714D02*
X76261904Y-105985714D01*
X76023809Y-105652380D02*
X76023809Y-106509523D01*
X76071428Y-106604761D01*
X76166666Y-106652380D01*
X76261904Y-106652380D01*
X65128571Y-109378571D02*
X64271428Y-109378571D01*
X64700000Y-109378571D02*
X64700000Y-107878571D01*
X64557142Y-108092857D01*
X64414285Y-108235714D01*
X64271428Y-108307142D01*
D12*
%TO.C,R12*%
X67978571Y-40996190D02*
X67811904Y-40758095D01*
X67692857Y-40996190D02*
X67692857Y-40496190D01*
X67883333Y-40496190D01*
X67930952Y-40520000D01*
X67954761Y-40543809D01*
X67978571Y-40591428D01*
X67978571Y-40662857D01*
X67954761Y-40710476D01*
X67930952Y-40734285D01*
X67883333Y-40758095D01*
X67692857Y-40758095D01*
X68454761Y-40996190D02*
X68169047Y-40996190D01*
X68311904Y-40996190D02*
X68311904Y-40496190D01*
X68264285Y-40567619D01*
X68216666Y-40615238D01*
X68169047Y-40639047D01*
X68645238Y-40543809D02*
X68669047Y-40520000D01*
X68716666Y-40496190D01*
X68835714Y-40496190D01*
X68883333Y-40520000D01*
X68907142Y-40543809D01*
X68930952Y-40591428D01*
X68930952Y-40639047D01*
X68907142Y-40710476D01*
X68621428Y-40996190D01*
X68930952Y-40996190D01*
D10*
%TO.C,D5*%
X70252380Y-49038095D02*
X69252380Y-49038095D01*
X69252380Y-48800000D01*
X69300000Y-48657142D01*
X69395238Y-48561904D01*
X69490476Y-48514285D01*
X69680952Y-48466666D01*
X69823809Y-48466666D01*
X70014285Y-48514285D01*
X70109523Y-48561904D01*
X70204761Y-48657142D01*
X70252380Y-48800000D01*
X70252380Y-49038095D01*
X69252380Y-47561904D02*
X69252380Y-48038095D01*
X69728571Y-48085714D01*
X69680952Y-48038095D01*
X69633333Y-47942857D01*
X69633333Y-47704761D01*
X69680952Y-47609523D01*
X69728571Y-47561904D01*
X69823809Y-47514285D01*
X70061904Y-47514285D01*
X70157142Y-47561904D01*
X70204761Y-47609523D01*
X70252380Y-47704761D01*
X70252380Y-47942857D01*
X70204761Y-48038095D01*
X70157142Y-48085714D01*
D16*
%TO.C,D4*%
X67935000Y-71057500D02*
X67935000Y-71213500D01*
X67935000Y-68741500D02*
X67935000Y-68897500D01*
X68454039Y-71057500D02*
G75*
G03*
X70536130Y-71057337I1040961J1080000D01*
G01*
X70536130Y-68897663D02*
G75*
G03*
X68454039Y-68897500I-1041130J-1079837D01*
G01*
X67935000Y-71213016D02*
G75*
G03*
X71167335Y-71056108I1560000J1235517D01*
G01*
X71167335Y-68898892D02*
G75*
G03*
X67935000Y-68741984I-1672335J-1078609D01*
G01*
%TO.C,D3*%
X67935000Y-84735000D02*
X67935000Y-84891000D01*
X67935000Y-82419000D02*
X67935000Y-82575000D01*
X70536130Y-82575163D02*
G75*
G03*
X68454039Y-82575000I-1041130J-1079837D01*
G01*
X71167335Y-82576392D02*
G75*
G03*
X67935000Y-82419484I-1672335J-1078609D01*
G01*
X68454039Y-84735000D02*
G75*
G03*
X70536130Y-84734837I1040961J1080000D01*
G01*
X67935000Y-84890516D02*
G75*
G03*
X71167335Y-84733608I1560000J1235517D01*
G01*
%TO.C,SW1*%
X78434200Y-49848100D02*
X81736200Y-49848100D01*
X82614600Y-42151900D02*
X78114600Y-42151900D01*
X84047600Y-46610300D02*
X84047600Y-45110300D01*
X76503800Y-45096900D02*
X76503800Y-46596900D01*
D17*
X79267240Y-44742700D02*
G75*
G03*
X79267240Y-44742700I-223440J0D01*
G01*
X79343440Y-47003300D02*
G75*
G03*
X79343440Y-47003300I-223440J0D01*
G01*
D14*
%TO.C,J1*%
X57525000Y-37749200D02*
X57525000Y-48417200D01*
X66415000Y-48417200D02*
X66415000Y-37749200D01*
X57525000Y-48417200D02*
X66415000Y-48417200D01*
X66415000Y-37749200D02*
X57525000Y-37749200D01*
D18*
X63544800Y-42257700D02*
G75*
G03*
X63544800Y-42257700I-1574800J0D01*
G01*
X64256000Y-42257700D02*
G75*
G03*
X64256000Y-42257700I-2286000J0D01*
G01*
D16*
%TO.C,R5*%
X68453641Y-41980000D02*
X68146359Y-41980000D01*
X68453641Y-41220000D02*
X68146359Y-41220000D01*
%TO.C,D1*%
X67935000Y-55064000D02*
X67935000Y-55220000D01*
X67935000Y-57380000D02*
X67935000Y-57536000D01*
X67935000Y-57535516D02*
G75*
G03*
X71167335Y-57378608I1560000J1235517D01*
G01*
X70536130Y-55220163D02*
G75*
G03*
X68454039Y-55220000I-1041130J-1079837D01*
G01*
X71167335Y-55221392D02*
G75*
G03*
X67935000Y-55064484I-1672335J-1078609D01*
G01*
X68454039Y-57380000D02*
G75*
G03*
X70536130Y-57379837I1040961J1080000D01*
G01*
%TO.C,D6*%
X68650000Y-42900000D02*
X66950000Y-42900000D01*
X68650000Y-42900000D02*
X68650000Y-45450000D01*
X66950000Y-42900000D02*
X66950000Y-45450000D01*
D18*
%TO.C,J5*%
X63574800Y-70235200D02*
G75*
G03*
X63574800Y-70235200I-1574800J0D01*
G01*
X64286000Y-70235200D02*
G75*
G03*
X64286000Y-70235200I-2286000J0D01*
G01*
D14*
X57555000Y-76394700D02*
X66445000Y-76394700D01*
X66445000Y-65726700D02*
X57555000Y-65726700D01*
X66445000Y-76394700D02*
X66445000Y-65726700D01*
X57555000Y-65726700D02*
X57555000Y-76394700D01*
D16*
%TO.C,R3*%
X67846359Y-67480000D02*
X68153641Y-67480000D01*
X67846359Y-66720000D02*
X68153641Y-66720000D01*
D15*
%TO.C,S1*%
X83012600Y-70100000D02*
X83012600Y-70100000D01*
X83012600Y-70100000D02*
X83012600Y-70100000D01*
X83012600Y-70200000D02*
X83012600Y-70200000D01*
D12*
X82412600Y-64000000D02*
X82412600Y-86000000D01*
X77412600Y-86000000D02*
X77412600Y-64000000D01*
X77412600Y-64000000D02*
X82412600Y-64000000D01*
X82412600Y-86000000D02*
X77412600Y-86000000D01*
D15*
X83012600Y-70100000D02*
G75*
G03*
X83012600Y-70200000I0J-50000D01*
G01*
X83012600Y-70100000D02*
G75*
G03*
X83012600Y-70200000I0J-50000D01*
G01*
X83012600Y-70200000D02*
G75*
G03*
X83012600Y-70100000I0J50000D01*
G01*
D16*
%TO.C,R2*%
X67851359Y-81180000D02*
X68158641Y-81180000D01*
X67851359Y-80420000D02*
X68158641Y-80420000D01*
%TO.C,R15*%
X74846359Y-49120000D02*
X75153641Y-49120000D01*
X74846359Y-49880000D02*
X75153641Y-49880000D01*
%TO.C,C11*%
X72392164Y-49140000D02*
X72607836Y-49140000D01*
X72392164Y-49860000D02*
X72607836Y-49860000D01*
D12*
%TO.C,SW3*%
X78137600Y-61100000D02*
X78737600Y-61100000D01*
X78137600Y-52100000D02*
X78137600Y-61100000D01*
X78737600Y-52100000D02*
X78137600Y-52100000D01*
X81737600Y-52100000D02*
X82337600Y-52100000D01*
X82337600Y-61100000D02*
X81737600Y-61100000D01*
X82337600Y-52100000D02*
X82337600Y-61100000D01*
D14*
%TO.C,J6*%
X66445000Y-79404200D02*
X57555000Y-79404200D01*
X57555000Y-79404200D02*
X57555000Y-90072200D01*
X66445000Y-90072200D02*
X66445000Y-79404200D01*
X57555000Y-90072200D02*
X66445000Y-90072200D01*
D18*
X63574800Y-83912700D02*
G75*
G03*
X63574800Y-83912700I-1574800J0D01*
G01*
X64286000Y-83912700D02*
G75*
G03*
X64286000Y-83912700I-2286000J0D01*
G01*
D16*
%TO.C,D2*%
X67015000Y-36965000D02*
X67015000Y-38435000D01*
X67015000Y-38435000D02*
X69300000Y-38435000D01*
X69300000Y-36965000D02*
X67015000Y-36965000D01*
%TO.C,R1*%
X67846359Y-53120000D02*
X68153641Y-53120000D01*
X67846359Y-53880000D02*
X68153641Y-53880000D01*
D14*
%TO.C,J4*%
X57555000Y-62717200D02*
X66445000Y-62717200D01*
X57555000Y-52049200D02*
X57555000Y-62717200D01*
X66445000Y-52049200D02*
X57555000Y-52049200D01*
X66445000Y-62717200D02*
X66445000Y-52049200D01*
D18*
X64286000Y-56557700D02*
G75*
G03*
X64286000Y-56557700I-2286000J0D01*
G01*
X63574800Y-56557700D02*
G75*
G03*
X63574800Y-56557700I-1574800J0D01*
G01*
D16*
%TO.C,J3*%
X76080000Y-109870000D02*
X76080000Y-107330000D01*
X65920000Y-109870000D02*
X76080000Y-109870000D01*
X76080000Y-107330000D02*
X65920000Y-107330000D01*
X65920000Y-107330000D02*
X65920000Y-109870000D01*
%TO.C,R12*%
X68453641Y-39220000D02*
X68146359Y-39220000D01*
X68453641Y-39980000D02*
X68146359Y-39980000D01*
%TO.C,D5*%
X66950000Y-49200000D02*
X68650000Y-49200000D01*
X66950000Y-49200000D02*
X66950000Y-46650000D01*
X68650000Y-49200000D02*
X68650000Y-46650000D01*
%TD*%
M02*
