%TF.GenerationSoftware,KiCad,Pcbnew,(6.0.1)*%
%TF.CreationDate,2023-06-13T10:27:40-07:00*%
%TF.ProjectId,16Bars,31364261-7273-42e6-9b69-6361645f7063,rev?*%
%TF.SameCoordinates,Original*%
%TF.FileFunction,Copper,L2,Bot*%
%TF.FilePolarity,Positive*%
%FSLAX46Y46*%
G04 Gerber Fmt 4.6, Leading zero omitted, Abs format (unit mm)*
G04 Created by KiCad (PCBNEW (6.0.1)) date 2023-06-13 10:27:40*
%MOMM*%
%LPD*%
G01*
G04 APERTURE LIST*
%TA.AperFunction,ComponentPad*%
%ADD10R,1.600000X1.600000*%
%TD*%
%TA.AperFunction,ComponentPad*%
%ADD11O,1.600000X1.600000*%
%TD*%
%TA.AperFunction,ComponentPad*%
%ADD12R,1.800000X1.800000*%
%TD*%
%TA.AperFunction,ComponentPad*%
%ADD13C,1.800000*%
%TD*%
%TA.AperFunction,WasherPad*%
%ADD14C,2.000000*%
%TD*%
%TA.AperFunction,ComponentPad*%
%ADD15C,2.000000*%
%TD*%
%TA.AperFunction,ComponentPad*%
%ADD16C,1.930400*%
%TD*%
%TA.AperFunction,ComponentPad*%
%ADD17C,1.400000*%
%TD*%
%TA.AperFunction,ComponentPad*%
%ADD18R,1.300000X1.300000*%
%TD*%
%TA.AperFunction,ComponentPad*%
%ADD19C,1.300000*%
%TD*%
%TA.AperFunction,ComponentPad*%
%ADD20C,2.100000*%
%TD*%
%TA.AperFunction,ComponentPad*%
%ADD21O,1.700000X1.700000*%
%TD*%
%TA.AperFunction,ComponentPad*%
%ADD22R,1.700000X1.700000*%
%TD*%
%TA.AperFunction,ComponentPad*%
%ADD23C,1.600000*%
%TD*%
%TA.AperFunction,ViaPad*%
%ADD24C,0.800000*%
%TD*%
%TA.AperFunction,Conductor*%
%ADD25C,0.250000*%
%TD*%
G04 APERTURE END LIST*
D10*
%TO.P,A1,1,D1/TX*%
%TO.N,unconnected-(A1-Pad1)*%
X78360000Y-97250000D03*
D11*
%TO.P,A1,2,D0/RX*%
%TO.N,unconnected-(A1-Pad2)*%
X78360000Y-99790000D03*
%TO.P,A1,3,~{RESET}*%
%TO.N,unconnected-(A1-Pad3)*%
X78360000Y-102330000D03*
%TO.P,A1,4,GND*%
%TO.N,GND*%
X78360000Y-104870000D03*
%TO.P,A1,5,D2*%
%TO.N,CLOCK_IN*%
X78360000Y-107410000D03*
%TO.P,A1,6,D3*%
%TO.N,/ResetButton*%
X78360000Y-109950000D03*
%TO.P,A1,7,D4*%
%TO.N,CLOCK_BAR*%
X78360000Y-112490000D03*
%TO.P,A1,8,D5*%
%TO.N,RESET*%
X78360000Y-115030000D03*
%TO.P,A1,9,D6*%
%TO.N,/barsPerPhrase*%
X78360000Y-117570000D03*
%TO.P,A1,10,D7*%
%TO.N,/barsPerBar-4*%
X78360000Y-120110000D03*
%TO.P,A1,11,D8*%
%TO.N,/barsPerBar-7*%
X78360000Y-122650000D03*
%TO.P,A1,12,D9*%
%TO.N,/barsPerBar-8*%
X78360000Y-125190000D03*
%TO.P,A1,13,D10*%
%TO.N,/barsPerBar-12*%
X78360000Y-127730000D03*
%TO.P,A1,14,D11*%
%TO.N,/barsPerBar-16*%
X78360000Y-130270000D03*
%TO.P,A1,15,D12*%
%TO.N,/firstBar*%
X78360000Y-132810000D03*
%TO.P,A1,16,D13*%
%TO.N,/middleBar*%
X63120000Y-132810000D03*
%TO.P,A1,17,3V3*%
%TO.N,unconnected-(A1-Pad17)*%
X63120000Y-130270000D03*
%TO.P,A1,18,AREF*%
%TO.N,unconnected-(A1-Pad18)*%
X63120000Y-127730000D03*
%TO.P,A1,19,A0*%
%TO.N,/lastBar*%
X63120000Y-125190000D03*
%TO.P,A1,20,A1*%
%TO.N,/firstBarLED*%
X63120000Y-122650000D03*
%TO.P,A1,21,A2*%
%TO.N,/middleBarLED*%
X63120000Y-120110000D03*
%TO.P,A1,22,A3*%
%TO.N,/lastBarLED*%
X63120000Y-117570000D03*
%TO.P,A1,23,A4*%
%TO.N,unconnected-(A1-Pad23)*%
X63120000Y-115030000D03*
%TO.P,A1,24,A5*%
%TO.N,unconnected-(A1-Pad24)*%
X63120000Y-112490000D03*
%TO.P,A1,25,A6*%
%TO.N,unconnected-(A1-Pad25)*%
X63120000Y-109950000D03*
%TO.P,A1,26,A7*%
%TO.N,unconnected-(A1-Pad26)*%
X63120000Y-107410000D03*
%TO.P,A1,27,+5V*%
%TO.N,+5V*%
X63120000Y-104870000D03*
%TO.P,A1,28,~{RESET}*%
%TO.N,unconnected-(A1-Pad28)*%
X63120000Y-102330000D03*
%TO.P,A1,29,GND*%
%TO.N,GND*%
X63120000Y-99790000D03*
%TO.P,A1,30,VIN*%
%TO.N,+12V*%
X63120000Y-97250000D03*
%TD*%
D12*
%TO.P,D4,1,K*%
%TO.N,Net-(D4-Pad1)*%
X68225000Y-69977500D03*
D13*
%TO.P,D4,2,A*%
%TO.N,/lastBarLED*%
X70765000Y-69977500D03*
%TD*%
D12*
%TO.P,D3,1,K*%
%TO.N,Net-(D3-Pad1)*%
X68225000Y-83655000D03*
D13*
%TO.P,D3,2,A*%
%TO.N,/middleBarLED*%
X70765000Y-83655000D03*
%TD*%
D14*
%TO.P,SW1,*%
%TO.N,*%
X82777600Y-45980300D03*
X77697600Y-45980300D03*
D15*
%TO.P,SW1,1,1*%
%TO.N,GND*%
X77697600Y-43440300D03*
%TO.P,SW1,2,2*%
%TO.N,unconnected-(SW1-Pad2)*%
X77697600Y-48520300D03*
%TO.P,SW1,3,3*%
%TO.N,unconnected-(SW1-Pad3)*%
X82777600Y-43440300D03*
%TO.P,SW1,4,4*%
%TO.N,/ResetButton*%
X82777600Y-48520300D03*
%TO.P,SW1,L1,L1*%
%TO.N,CLOCK_IN*%
X80237600Y-43320300D03*
%TO.P,SW1,L2,L2*%
%TO.N,Net-(R15-Pad2)*%
X80237600Y-48720300D03*
%TD*%
D16*
%TO.P,J1,1,SIG*%
%TO.N,Net-(J1-Pad1)*%
X61970000Y-47452000D03*
%TO.P,J1,2,SHEILD*%
%TO.N,GND*%
X61970000Y-36479200D03*
%TO.P,J1,3,SW*%
X61970000Y-38892200D03*
%TD*%
D12*
%TO.P,D1,1,K*%
%TO.N,Net-(D1-Pad1)*%
X68225000Y-56300000D03*
D13*
%TO.P,D1,2,A*%
%TO.N,/firstBarLED*%
X70765000Y-56300000D03*
%TD*%
D16*
%TO.P,J5,3,SW*%
%TO.N,GND*%
X62000000Y-66869700D03*
%TO.P,J5,2,SHEILD*%
X62000000Y-64456700D03*
%TO.P,J5,1,SIG*%
%TO.N,/middleBar*%
X62000000Y-75429500D03*
%TD*%
D17*
%TO.P,S1,1,1*%
%TO.N,/barsPerBar-4*%
X79912600Y-70400000D03*
%TO.P,S1,2,2*%
%TO.N,/barsPerBar-7*%
X79912600Y-72700000D03*
%TO.P,S1,3,3*%
%TO.N,/barsPerBar-8*%
X79912600Y-75000000D03*
%TO.P,S1,4,4*%
%TO.N,/barsPerBar-12*%
X79912600Y-77300000D03*
%TO.P,S1,5,5*%
%TO.N,/barsPerBar-16*%
X79912600Y-79600000D03*
%TO.P,S1,C1,COM_1*%
%TO.N,+5V*%
X79912600Y-68100000D03*
%TO.P,S1,C2,COM_2*%
X79912600Y-81900000D03*
%TD*%
D18*
%TO.P,SW3,1,N.C.*%
%TO.N,+5V*%
X80237600Y-54600000D03*
D19*
%TO.P,SW3,2,COM*%
%TO.N,/barsPerPhrase*%
X80237600Y-56600000D03*
%TO.P,SW3,3,N.O.*%
%TO.N,GND*%
X80237600Y-58600000D03*
D20*
%TO.P,SW3,4,4*%
X80237600Y-52300000D03*
%TO.P,SW3,5,5*%
X80237600Y-60900000D03*
%TD*%
D16*
%TO.P,J6,1,SIG*%
%TO.N,/lastBar*%
X62000000Y-89107000D03*
%TO.P,J6,2,SHEILD*%
%TO.N,GND*%
X62000000Y-78134200D03*
%TO.P,J6,3,SW*%
X62000000Y-80547200D03*
%TD*%
%TO.P,J4,1,SIG*%
%TO.N,/firstBar*%
X62000000Y-61752000D03*
%TO.P,J4,2,SHEILD*%
%TO.N,GND*%
X62000000Y-50779200D03*
%TO.P,J4,3,SW*%
X62000000Y-53192200D03*
%TD*%
D21*
%TO.P,J3,4,Pin_4*%
%TO.N,RESET*%
X74810000Y-108600000D03*
%TO.P,J3,3,Pin_3*%
%TO.N,CLOCK_BAR*%
X72270000Y-108600000D03*
%TO.P,J3,2,Pin_2*%
%TO.N,GND*%
X69730000Y-108600000D03*
D22*
%TO.P,J3,1,Pin_1*%
%TO.N,+5V*%
X67190000Y-108600000D03*
%TD*%
%TO.P,J2,1,Pin_1*%
%TO.N,+12V*%
X82400000Y-39900000D03*
D21*
%TO.P,J2,2,Pin_2*%
X82400000Y-37360000D03*
%TO.P,J2,3,Pin_3*%
%TO.N,GND*%
X79860000Y-39900000D03*
%TO.P,J2,4,Pin_4*%
X79860000Y-37360000D03*
%TO.P,J2,5,Pin_5*%
X77320000Y-39900000D03*
%TO.P,J2,6,Pin_6*%
X77320000Y-37360000D03*
%TO.P,J2,7,Pin_7*%
X74780000Y-39900000D03*
%TO.P,J2,8,Pin_8*%
X74780000Y-37360000D03*
%TO.P,J2,9,Pin_9*%
%TO.N,unconnected-(J2-Pad9)*%
X72240000Y-39900000D03*
%TO.P,J2,10,Pin_10*%
%TO.N,unconnected-(J2-Pad10)*%
X72240000Y-37360000D03*
%TD*%
D10*
%TO.P,C1,1*%
%TO.N,+12V*%
X72500000Y-44000000D03*
D23*
%TO.P,C1,2*%
%TO.N,GND*%
X72500000Y-46000000D03*
%TD*%
D24*
%TO.N,GND*%
X72600000Y-100200000D03*
X75700000Y-100200000D03*
X73800000Y-50500000D03*
X75600000Y-52500000D03*
%TD*%
D25*
%TO.N,/middleBar*%
X56950480Y-129750480D02*
X56950480Y-80479020D01*
X56950480Y-80479020D02*
X62000000Y-75429500D01*
X60010000Y-132810000D02*
X56950480Y-129750480D01*
X63120000Y-132810000D02*
X60010000Y-132810000D01*
%TO.N,+5V*%
X75900000Y-66600000D02*
X77400000Y-68100000D01*
X78900000Y-57600000D02*
X75900000Y-60600000D01*
X77400000Y-68100000D02*
X79912600Y-68100000D01*
X81212111Y-57003657D02*
X80615768Y-57600000D01*
X75900000Y-60600000D02*
X75900000Y-66600000D01*
X81212111Y-55574511D02*
X81212111Y-57003657D01*
X80615768Y-57600000D02*
X78900000Y-57600000D01*
X80237600Y-54600000D02*
X81212111Y-55574511D01*
%TO.N,/barsPerPhrase*%
X75000000Y-67000000D02*
X77090009Y-69090009D01*
X75000000Y-58100000D02*
X75000000Y-67000000D01*
X80237600Y-56600000D02*
X76500000Y-56600000D01*
X76500000Y-56600000D02*
X75000000Y-58100000D01*
%TO.N,/ResetButton*%
X75074511Y-50925489D02*
X80372411Y-50925489D01*
X74400000Y-51600000D02*
X75074511Y-50925489D01*
X80372411Y-50925489D02*
X82777600Y-48520300D01*
X74400000Y-105990000D02*
X74400000Y-51600000D01*
X78360000Y-109950000D02*
X74400000Y-105990000D01*
%TO.N,/firstBar*%
X62000000Y-60075978D02*
X62000000Y-61752000D01*
X68275978Y-53800000D02*
X62000000Y-60075978D01*
X70800000Y-53800000D02*
X68275978Y-53800000D01*
X72000000Y-55000000D02*
X70800000Y-53800000D01*
X72000000Y-81800000D02*
X72000000Y-55000000D01*
X72500000Y-85400000D02*
X72500000Y-82300000D01*
X72500000Y-82300000D02*
X72000000Y-81800000D01*
X65600000Y-92300000D02*
X72500000Y-85400000D01*
X59700000Y-92300000D02*
X65600000Y-92300000D01*
X60554511Y-116154511D02*
X59300000Y-114900000D01*
X63585789Y-116154511D02*
X60554511Y-116154511D01*
X59300000Y-92700000D02*
X59700000Y-92300000D01*
X77235489Y-131685489D02*
X77235489Y-129804211D01*
X77235489Y-129804211D02*
X63585789Y-116154511D01*
X78360000Y-132810000D02*
X77235489Y-131685489D01*
X59300000Y-114900000D02*
X59300000Y-92700000D01*
%TO.N,/middleBarLED*%
X70765000Y-85535000D02*
X70765000Y-83655000D01*
X59250480Y-91349520D02*
X64950480Y-91349520D01*
X58300000Y-118300000D02*
X58300000Y-92300000D01*
X58300000Y-92300000D02*
X59250480Y-91349520D01*
X60110000Y-120110000D02*
X58300000Y-118300000D01*
X64950480Y-91349520D02*
X70765000Y-85535000D01*
X63120000Y-120110000D02*
X60110000Y-120110000D01*
%TO.N,/lastBarLED*%
X71989511Y-83089511D02*
X70765000Y-81865000D01*
X71989511Y-84946207D02*
X71989511Y-83089511D01*
X65136678Y-91799040D02*
X71989511Y-84946207D01*
X59450480Y-91799040D02*
X65136678Y-91799040D01*
X70765000Y-81865000D02*
X70765000Y-69977500D01*
X58749520Y-92500000D02*
X59450480Y-91799040D01*
X58749520Y-116149520D02*
X58749520Y-92500000D01*
X60200000Y-117600000D02*
X58749520Y-116149520D01*
X60230000Y-117570000D02*
X60200000Y-117600000D01*
X63120000Y-117570000D02*
X60230000Y-117570000D01*
%TO.N,/firstBarLED*%
X70765000Y-58435000D02*
X70765000Y-56300000D01*
X66400000Y-62800000D02*
X70765000Y-58435000D01*
X66400000Y-89200000D02*
X66400000Y-62800000D01*
X64700000Y-90900000D02*
X66400000Y-89200000D01*
X58849520Y-90900000D02*
X64700000Y-90900000D01*
X57849520Y-91900000D02*
X58849520Y-90900000D01*
X57849520Y-120349520D02*
X57849520Y-91900000D01*
X60150000Y-122650000D02*
X57849520Y-120349520D01*
X63120000Y-122650000D02*
X60150000Y-122650000D01*
%TO.N,/lastBar*%
X57400000Y-90700000D02*
X58993000Y-89107000D01*
X57400000Y-122600000D02*
X57400000Y-90700000D01*
X58993000Y-89107000D02*
X62000000Y-89107000D01*
X60000000Y-125200000D02*
X57400000Y-122600000D01*
X60010000Y-125190000D02*
X60000000Y-125200000D01*
X63120000Y-125190000D02*
X60010000Y-125190000D01*
%TO.N,/barsPerBar-4*%
X80590000Y-120110000D02*
X78360000Y-120110000D01*
X82650480Y-118049520D02*
X80590000Y-120110000D01*
X82650480Y-96800000D02*
X82650480Y-118049520D01*
X80651909Y-94801429D02*
X82650480Y-96800000D01*
X80651909Y-86086198D02*
X80651909Y-94801429D01*
X77539529Y-72660471D02*
X77539529Y-82973818D01*
X79800000Y-70400000D02*
X77539529Y-72660471D01*
X79912600Y-70400000D02*
X79800000Y-70400000D01*
X77539529Y-82973818D02*
X80651909Y-86086198D01*
%TO.N,/barsPerPhrase*%
X77090009Y-83160015D02*
X77090009Y-69090009D01*
X79414996Y-85485003D02*
X77090009Y-83160015D01*
X80202389Y-95202389D02*
X80202389Y-93400000D01*
X80202389Y-86272396D02*
X79414996Y-85485003D01*
X82100000Y-97100000D02*
X80202389Y-95202389D01*
X82100000Y-115800000D02*
X82100000Y-97100000D01*
X80202389Y-93400000D02*
X80202389Y-86272396D01*
X80700000Y-117200000D02*
X82100000Y-115800000D01*
X80330000Y-117570000D02*
X80700000Y-117200000D01*
X78360000Y-117570000D02*
X80330000Y-117570000D01*
%TO.N,/barsPerBar-16*%
X82449989Y-93976351D02*
X82449989Y-82137389D01*
X84500000Y-96026362D02*
X82449989Y-93976351D01*
X84500000Y-127000000D02*
X84500000Y-96026362D01*
X81230000Y-130270000D02*
X84500000Y-127000000D01*
X78360000Y-130270000D02*
X81230000Y-130270000D01*
X82449989Y-82137389D02*
X79912600Y-79600000D01*
%TO.N,/barsPerBar-12*%
X78888089Y-82324367D02*
X78888089Y-78324511D01*
X84050480Y-96212560D02*
X82000469Y-94162548D01*
X78888089Y-78324511D02*
X79912600Y-77300000D01*
X84050480Y-124649520D02*
X84050480Y-96212560D01*
X80970000Y-127730000D02*
X84050480Y-124649520D01*
X82000469Y-94162548D02*
X82000469Y-85436747D01*
X82000469Y-85436747D02*
X78888089Y-82324367D01*
X78360000Y-127730000D02*
X80970000Y-127730000D01*
%TO.N,/barsPerBar-7*%
X77989049Y-74623551D02*
X79912600Y-72700000D01*
X81101429Y-85900000D02*
X77989049Y-82787620D01*
X81101430Y-94534944D02*
X81101429Y-85900000D01*
X77989049Y-82787620D02*
X77989049Y-74623551D01*
X83100000Y-96533515D02*
X82533243Y-95966757D01*
X80850000Y-122650000D02*
X83100000Y-120400000D01*
X78360000Y-122650000D02*
X80850000Y-122650000D01*
X83100000Y-120400000D02*
X83100000Y-96533515D01*
X82533243Y-95966757D02*
X81101430Y-94534944D01*
%TO.N,/barsPerBar-8*%
X78438569Y-82510564D02*
X78438569Y-76474031D01*
X81550949Y-94348745D02*
X81550949Y-85622944D01*
X83600000Y-96397798D02*
X81550949Y-94348745D01*
X78438569Y-76474031D02*
X79912600Y-75000000D01*
X81010000Y-125190000D02*
X83600000Y-122600000D01*
X81550949Y-85622944D02*
X78438569Y-82510564D01*
X78360000Y-125190000D02*
X81010000Y-125190000D01*
X83600000Y-122600000D02*
X83600000Y-96397798D01*
%TO.N,CLOCK_BAR*%
X76160000Y-112490000D02*
X78360000Y-112490000D01*
X72270000Y-108600000D02*
X76160000Y-112490000D01*
%TD*%
%TA.AperFunction,Conductor*%
%TO.N,GND*%
G36*
X60678736Y-35528002D02*
G01*
X60725229Y-35581658D01*
X60735333Y-35651932D01*
X60714704Y-35705004D01*
X60687584Y-35744760D01*
X60682491Y-35753726D01*
X60584853Y-35964068D01*
X60581290Y-35973755D01*
X60519317Y-36197220D01*
X60517386Y-36207341D01*
X60492740Y-36437951D01*
X60492489Y-36448239D01*
X60505839Y-36679763D01*
X60507275Y-36689984D01*
X60558259Y-36916215D01*
X60561338Y-36926043D01*
X60648589Y-37140914D01*
X60653242Y-37150125D01*
X60752682Y-37312395D01*
X60763140Y-37321857D01*
X60771916Y-37318074D01*
X61880905Y-36209085D01*
X61943217Y-36175059D01*
X62014032Y-36180124D01*
X62059095Y-36209085D01*
X63163022Y-37313012D01*
X63175033Y-37319571D01*
X63186772Y-37310603D01*
X63234087Y-37244758D01*
X63239401Y-37235913D01*
X63342147Y-37028021D01*
X63345946Y-37018426D01*
X63413360Y-36796543D01*
X63415539Y-36786462D01*
X63446047Y-36554734D01*
X63446566Y-36548060D01*
X63448167Y-36482564D01*
X63447973Y-36475847D01*
X63428823Y-36242915D01*
X63427140Y-36232753D01*
X63370642Y-36007822D01*
X63367324Y-35998074D01*
X63274846Y-35785389D01*
X63269980Y-35776314D01*
X63222188Y-35702440D01*
X63201981Y-35634380D01*
X63221777Y-35566199D01*
X63275292Y-35519545D01*
X63327980Y-35508000D01*
X84366000Y-35508000D01*
X84434121Y-35528002D01*
X84480614Y-35581658D01*
X84492000Y-35634000D01*
X84492000Y-43054822D01*
X84471998Y-43122943D01*
X84418342Y-43169436D01*
X84348068Y-43179540D01*
X84283488Y-43150046D01*
X84243481Y-43084236D01*
X84217860Y-42977518D01*
X84216705Y-42972706D01*
X84214811Y-42968133D01*
X84127735Y-42757911D01*
X84127733Y-42757907D01*
X84125840Y-42753337D01*
X84121487Y-42746233D01*
X84004359Y-42555098D01*
X84004355Y-42555092D01*
X84001776Y-42550884D01*
X83847569Y-42370331D01*
X83667016Y-42216124D01*
X83662808Y-42213545D01*
X83662802Y-42213541D01*
X83468783Y-42094646D01*
X83464563Y-42092060D01*
X83459993Y-42090167D01*
X83459989Y-42090165D01*
X83249767Y-42003089D01*
X83249765Y-42003088D01*
X83245194Y-42001195D01*
X83164991Y-41981940D01*
X83019124Y-41946920D01*
X83019118Y-41946919D01*
X83014311Y-41945765D01*
X82777600Y-41927135D01*
X82540889Y-41945765D01*
X82536082Y-41946919D01*
X82536076Y-41946920D01*
X82390209Y-41981940D01*
X82310006Y-42001195D01*
X82305435Y-42003088D01*
X82305433Y-42003089D01*
X82095211Y-42090165D01*
X82095207Y-42090167D01*
X82090637Y-42092060D01*
X82086417Y-42094646D01*
X81892398Y-42213541D01*
X81892392Y-42213545D01*
X81888184Y-42216124D01*
X81707631Y-42370331D01*
X81704423Y-42374087D01*
X81654554Y-42432476D01*
X81595103Y-42471285D01*
X81524109Y-42471791D01*
X81464110Y-42433835D01*
X81461861Y-42431022D01*
X81461776Y-42430884D01*
X81307569Y-42250331D01*
X81127016Y-42096124D01*
X81122808Y-42093545D01*
X81122802Y-42093541D01*
X80928783Y-41974646D01*
X80924563Y-41972060D01*
X80919993Y-41970167D01*
X80919989Y-41970165D01*
X80709767Y-41883089D01*
X80709765Y-41883088D01*
X80705194Y-41881195D01*
X80624991Y-41861940D01*
X80479124Y-41826920D01*
X80479118Y-41826919D01*
X80474311Y-41825765D01*
X80237600Y-41807135D01*
X80000889Y-41825765D01*
X79996082Y-41826919D01*
X79996076Y-41826920D01*
X79850209Y-41861940D01*
X79770006Y-41881195D01*
X79765435Y-41883088D01*
X79765433Y-41883089D01*
X79555211Y-41970165D01*
X79555207Y-41970167D01*
X79550637Y-41972060D01*
X79546417Y-41974646D01*
X79352398Y-42093541D01*
X79352392Y-42093545D01*
X79348184Y-42096124D01*
X79167631Y-42250331D01*
X79013424Y-42430884D01*
X79010842Y-42435098D01*
X78937646Y-42554542D01*
X78919308Y-42577802D01*
X78069622Y-43427488D01*
X78062008Y-43441432D01*
X78062139Y-43443265D01*
X78066390Y-43449880D01*
X78917890Y-44301380D01*
X78930270Y-44308140D01*
X78937685Y-44302589D01*
X79004205Y-44277778D01*
X79073579Y-44292869D01*
X79109003Y-44321625D01*
X79167631Y-44390269D01*
X79348184Y-44544476D01*
X79352392Y-44547055D01*
X79352398Y-44547059D01*
X79544005Y-44664476D01*
X79550637Y-44668540D01*
X79555207Y-44670433D01*
X79555211Y-44670435D01*
X79765433Y-44757511D01*
X79770006Y-44759405D01*
X79850209Y-44778660D01*
X79996076Y-44813680D01*
X79996082Y-44813681D01*
X80000889Y-44814835D01*
X80237600Y-44833465D01*
X80474311Y-44814835D01*
X80479118Y-44813681D01*
X80479124Y-44813680D01*
X80624991Y-44778660D01*
X80705194Y-44759405D01*
X80709767Y-44757511D01*
X80919989Y-44670435D01*
X80919993Y-44670433D01*
X80924563Y-44668540D01*
X80931195Y-44664476D01*
X81122802Y-44547059D01*
X81122808Y-44547055D01*
X81127016Y-44544476D01*
X81307569Y-44390269D01*
X81360646Y-44328124D01*
X81420097Y-44289315D01*
X81491091Y-44288809D01*
X81551090Y-44326765D01*
X81553339Y-44329578D01*
X81553424Y-44329716D01*
X81553828Y-44330189D01*
X81553832Y-44330194D01*
X81704423Y-44506513D01*
X81707631Y-44510269D01*
X81711387Y-44513477D01*
X81711392Y-44513482D01*
X81829656Y-44614489D01*
X81868466Y-44673939D01*
X81868972Y-44744934D01*
X81829656Y-44806111D01*
X81711392Y-44907118D01*
X81711387Y-44907123D01*
X81707631Y-44910331D01*
X81553424Y-45090884D01*
X81550845Y-45095092D01*
X81550841Y-45095098D01*
X81473170Y-45221846D01*
X81429360Y-45293337D01*
X81427467Y-45297907D01*
X81427465Y-45297911D01*
X81410450Y-45338989D01*
X81338495Y-45512706D01*
X81337340Y-45517518D01*
X81288839Y-45719540D01*
X81283065Y-45743589D01*
X81264435Y-45980300D01*
X81283065Y-46217011D01*
X81284219Y-46221818D01*
X81284220Y-46221824D01*
X81311719Y-46336364D01*
X81338495Y-46447894D01*
X81340388Y-46452465D01*
X81340389Y-46452467D01*
X81380684Y-46549747D01*
X81429360Y-46667263D01*
X81431946Y-46671483D01*
X81550841Y-46865502D01*
X81550845Y-46865508D01*
X81553424Y-46869716D01*
X81707631Y-47050269D01*
X81711387Y-47053477D01*
X81711392Y-47053482D01*
X81829656Y-47154489D01*
X81868466Y-47213939D01*
X81868972Y-47284934D01*
X81829656Y-47346111D01*
X81711392Y-47447118D01*
X81711387Y-47447123D01*
X81707631Y-47450331D01*
X81704423Y-47454087D01*
X81670726Y-47493541D01*
X81553424Y-47630884D01*
X81534389Y-47661945D01*
X81481744Y-47709574D01*
X81411703Y-47721181D01*
X81346505Y-47693078D01*
X81331149Y-47677939D01*
X81310788Y-47654100D01*
X81307569Y-47650331D01*
X81289734Y-47635098D01*
X81156007Y-47520885D01*
X81127016Y-47496124D01*
X81122808Y-47493545D01*
X81122802Y-47493541D01*
X80928783Y-47374646D01*
X80924563Y-47372060D01*
X80919993Y-47370167D01*
X80919989Y-47370165D01*
X80709767Y-47283089D01*
X80709765Y-47283088D01*
X80705194Y-47281195D01*
X80624991Y-47261940D01*
X80479124Y-47226920D01*
X80479118Y-47226919D01*
X80474311Y-47225765D01*
X80237600Y-47207135D01*
X80000889Y-47225765D01*
X79996082Y-47226919D01*
X79996076Y-47226920D01*
X79850209Y-47261940D01*
X79770006Y-47281195D01*
X79765435Y-47283088D01*
X79765433Y-47283089D01*
X79555211Y-47370165D01*
X79555207Y-47370167D01*
X79550637Y-47372060D01*
X79546417Y-47374646D01*
X79352398Y-47493541D01*
X79352392Y-47493545D01*
X79348184Y-47496124D01*
X79319193Y-47520885D01*
X79185467Y-47635098D01*
X79167631Y-47650331D01*
X79164412Y-47654100D01*
X79144051Y-47677939D01*
X79084601Y-47716748D01*
X79013606Y-47717254D01*
X78953607Y-47679297D01*
X78940815Y-47661952D01*
X78921776Y-47630884D01*
X78804474Y-47493541D01*
X78770777Y-47454087D01*
X78767569Y-47450331D01*
X78763813Y-47447123D01*
X78763808Y-47447118D01*
X78645544Y-47346111D01*
X78606734Y-47286661D01*
X78606228Y-47215666D01*
X78645544Y-47154489D01*
X78763808Y-47053482D01*
X78763813Y-47053477D01*
X78767569Y-47050269D01*
X78921776Y-46869716D01*
X78924355Y-46865508D01*
X78924359Y-46865502D01*
X79043254Y-46671483D01*
X79045840Y-46667263D01*
X79094517Y-46549747D01*
X79134811Y-46452467D01*
X79134812Y-46452465D01*
X79136705Y-46447894D01*
X79163481Y-46336364D01*
X79190980Y-46221824D01*
X79190981Y-46221818D01*
X79192135Y-46217011D01*
X79210765Y-45980300D01*
X79192135Y-45743589D01*
X79186362Y-45719540D01*
X79137860Y-45517518D01*
X79136705Y-45512706D01*
X79064750Y-45338989D01*
X79047735Y-45297911D01*
X79047733Y-45297907D01*
X79045840Y-45293337D01*
X79002030Y-45221846D01*
X78924359Y-45095098D01*
X78924355Y-45095092D01*
X78921776Y-45090884D01*
X78767569Y-44910331D01*
X78763813Y-44907123D01*
X78763808Y-44907118D01*
X78610984Y-44776594D01*
X78572174Y-44717144D01*
X78569960Y-44682742D01*
X78561723Y-44663633D01*
X77710412Y-43812322D01*
X77696468Y-43804708D01*
X77694635Y-43804839D01*
X77688020Y-43809090D01*
X76836520Y-44660590D01*
X76827340Y-44677402D01*
X76813580Y-44740650D01*
X76784824Y-44776075D01*
X76717629Y-44833465D01*
X76627631Y-44910331D01*
X76473424Y-45090884D01*
X76470845Y-45095092D01*
X76470841Y-45095098D01*
X76393170Y-45221846D01*
X76349360Y-45293337D01*
X76347467Y-45297907D01*
X76347465Y-45297911D01*
X76330450Y-45338989D01*
X76258495Y-45512706D01*
X76257340Y-45517518D01*
X76208839Y-45719540D01*
X76203065Y-45743589D01*
X76184435Y-45980300D01*
X76203065Y-46217011D01*
X76204219Y-46221818D01*
X76204220Y-46221824D01*
X76231719Y-46336364D01*
X76258495Y-46447894D01*
X76260388Y-46452465D01*
X76260389Y-46452467D01*
X76300684Y-46549747D01*
X76349360Y-46667263D01*
X76351946Y-46671483D01*
X76470841Y-46865502D01*
X76470845Y-46865508D01*
X76473424Y-46869716D01*
X76627631Y-47050269D01*
X76631387Y-47053477D01*
X76631392Y-47053482D01*
X76749656Y-47154489D01*
X76788466Y-47213939D01*
X76788972Y-47284934D01*
X76749656Y-47346111D01*
X76631392Y-47447118D01*
X76631387Y-47447123D01*
X76627631Y-47450331D01*
X76624423Y-47454087D01*
X76606632Y-47474918D01*
X76473424Y-47630884D01*
X76470845Y-47635092D01*
X76470841Y-47635098D01*
X76394688Y-47759368D01*
X76349360Y-47833337D01*
X76347467Y-47837907D01*
X76347465Y-47837911D01*
X76260389Y-48048133D01*
X76258495Y-48052706D01*
X76257340Y-48057518D01*
X76208839Y-48259540D01*
X76203065Y-48283589D01*
X76184435Y-48520300D01*
X76203065Y-48757011D01*
X76204219Y-48761818D01*
X76204220Y-48761824D01*
X76231719Y-48876364D01*
X76258495Y-48987894D01*
X76349360Y-49207263D01*
X76351946Y-49211483D01*
X76470841Y-49405502D01*
X76470845Y-49405508D01*
X76473424Y-49409716D01*
X76627631Y-49590269D01*
X76808184Y-49744476D01*
X76812392Y-49747055D01*
X76812398Y-49747059D01*
X77006417Y-49865954D01*
X77010637Y-49868540D01*
X77015207Y-49870433D01*
X77015211Y-49870435D01*
X77225433Y-49957511D01*
X77230006Y-49959405D01*
X77310209Y-49978660D01*
X77456076Y-50013680D01*
X77456082Y-50013681D01*
X77460889Y-50014835D01*
X77697600Y-50033465D01*
X77934311Y-50014835D01*
X77939118Y-50013681D01*
X77939124Y-50013680D01*
X78084991Y-49978660D01*
X78165194Y-49959405D01*
X78169767Y-49957511D01*
X78379989Y-49870435D01*
X78379993Y-49870433D01*
X78384563Y-49868540D01*
X78388783Y-49865954D01*
X78582802Y-49747059D01*
X78582808Y-49747055D01*
X78587016Y-49744476D01*
X78744800Y-49609716D01*
X78763805Y-49593484D01*
X78763807Y-49593482D01*
X78767569Y-49590269D01*
X78782026Y-49573342D01*
X78791149Y-49562661D01*
X78850599Y-49523852D01*
X78921594Y-49523346D01*
X78981593Y-49561303D01*
X78994385Y-49578648D01*
X79013424Y-49609716D01*
X79167631Y-49790269D01*
X79348184Y-49944476D01*
X79462999Y-50014835D01*
X79534345Y-50058556D01*
X79581976Y-50111204D01*
X79593583Y-50181246D01*
X79565480Y-50246443D01*
X79506589Y-50286097D01*
X79468510Y-50291989D01*
X75153279Y-50291989D01*
X75142096Y-50291462D01*
X75134603Y-50289787D01*
X75126677Y-50290036D01*
X75126676Y-50290036D01*
X75066513Y-50291927D01*
X75062555Y-50291989D01*
X75034655Y-50291989D01*
X75030665Y-50292493D01*
X75018831Y-50293425D01*
X74974622Y-50294815D01*
X74967006Y-50297028D01*
X74967004Y-50297028D01*
X74955163Y-50300468D01*
X74935804Y-50304477D01*
X74934494Y-50304643D01*
X74915714Y-50307015D01*
X74908348Y-50309931D01*
X74908342Y-50309933D01*
X74874609Y-50323289D01*
X74863379Y-50327134D01*
X74828528Y-50337259D01*
X74820918Y-50339470D01*
X74814095Y-50343505D01*
X74803477Y-50349784D01*
X74785724Y-50358481D01*
X74778079Y-50361508D01*
X74766894Y-50365937D01*
X74760479Y-50370598D01*
X74731123Y-50391926D01*
X74721206Y-50398440D01*
X74683149Y-50420947D01*
X74668828Y-50435268D01*
X74653795Y-50448108D01*
X74637404Y-50460017D01*
X74611027Y-50491902D01*
X74609223Y-50494082D01*
X74601233Y-50502863D01*
X74007742Y-51096353D01*
X73999463Y-51103887D01*
X73992982Y-51108000D01*
X73959544Y-51143608D01*
X73946357Y-51157651D01*
X73943602Y-51160493D01*
X73923865Y-51180230D01*
X73921385Y-51183427D01*
X73913682Y-51192447D01*
X73883414Y-51224679D01*
X73879595Y-51231625D01*
X73879593Y-51231628D01*
X73873652Y-51242434D01*
X73862801Y-51258953D01*
X73850386Y-51274959D01*
X73847241Y-51282228D01*
X73847238Y-51282232D01*
X73832826Y-51315537D01*
X73827609Y-51326187D01*
X73806305Y-51364940D01*
X73804334Y-51372615D01*
X73804334Y-51372616D01*
X73801267Y-51384562D01*
X73794863Y-51403266D01*
X73786819Y-51421855D01*
X73785580Y-51429678D01*
X73785577Y-51429688D01*
X73779901Y-51465524D01*
X73777495Y-51477144D01*
X73766500Y-51519970D01*
X73766500Y-51540224D01*
X73764949Y-51559934D01*
X73761780Y-51579943D01*
X73765385Y-51618074D01*
X73765941Y-51623961D01*
X73766500Y-51635819D01*
X73766500Y-105911233D01*
X73765973Y-105922416D01*
X73764298Y-105929909D01*
X73764547Y-105937835D01*
X73764547Y-105937836D01*
X73766438Y-105997986D01*
X73766500Y-106001945D01*
X73766500Y-106029856D01*
X73766997Y-106033790D01*
X73766997Y-106033791D01*
X73767005Y-106033856D01*
X73767938Y-106045693D01*
X73769327Y-106089889D01*
X73774978Y-106109339D01*
X73778987Y-106128700D01*
X73780254Y-106138725D01*
X73781526Y-106148797D01*
X73784445Y-106156168D01*
X73784445Y-106156170D01*
X73797804Y-106189912D01*
X73801649Y-106201142D01*
X73803432Y-106207278D01*
X73813982Y-106243593D01*
X73818015Y-106250412D01*
X73818017Y-106250417D01*
X73824293Y-106261028D01*
X73832988Y-106278776D01*
X73840448Y-106297617D01*
X73845110Y-106304033D01*
X73845110Y-106304034D01*
X73866436Y-106333387D01*
X73872952Y-106343307D01*
X73895458Y-106381362D01*
X73909779Y-106395683D01*
X73922619Y-106410716D01*
X73934528Y-106427107D01*
X73940634Y-106432158D01*
X73968605Y-106455298D01*
X73977384Y-106463288D01*
X74573042Y-107058946D01*
X74607068Y-107121258D01*
X74602003Y-107192073D01*
X74559456Y-107248909D01*
X74503006Y-107272591D01*
X74494091Y-107273955D01*
X74281756Y-107343357D01*
X74208757Y-107381358D01*
X74120254Y-107427430D01*
X74083607Y-107446507D01*
X74079474Y-107449610D01*
X74079471Y-107449612D01*
X73926830Y-107564218D01*
X73904965Y-107580635D01*
X73750629Y-107742138D01*
X73643201Y-107899621D01*
X73588293Y-107944621D01*
X73517768Y-107952792D01*
X73454021Y-107921538D01*
X73433324Y-107897054D01*
X73352822Y-107772617D01*
X73352820Y-107772614D01*
X73350014Y-107768277D01*
X73199670Y-107603051D01*
X73195619Y-107599852D01*
X73195615Y-107599848D01*
X73028414Y-107467800D01*
X73028410Y-107467798D01*
X73024359Y-107464598D01*
X72988028Y-107444542D01*
X72925454Y-107410000D01*
X72828789Y-107356638D01*
X72823920Y-107354914D01*
X72823916Y-107354912D01*
X72623087Y-107283795D01*
X72623083Y-107283794D01*
X72618212Y-107282069D01*
X72613119Y-107281162D01*
X72613116Y-107281161D01*
X72403373Y-107243800D01*
X72403367Y-107243799D01*
X72398284Y-107242894D01*
X72324452Y-107241992D01*
X72180081Y-107240228D01*
X72180079Y-107240228D01*
X72174911Y-107240165D01*
X71954091Y-107273955D01*
X71741756Y-107343357D01*
X71668757Y-107381358D01*
X71580254Y-107427430D01*
X71543607Y-107446507D01*
X71539474Y-107449610D01*
X71539471Y-107449612D01*
X71386830Y-107564218D01*
X71364965Y-107580635D01*
X71210629Y-107742138D01*
X71103204Y-107899618D01*
X71102898Y-107900066D01*
X71047987Y-107945069D01*
X70977462Y-107953240D01*
X70913715Y-107921986D01*
X70893018Y-107897502D01*
X70812426Y-107772926D01*
X70806136Y-107764757D01*
X70662806Y-107607240D01*
X70655273Y-107600215D01*
X70488139Y-107468222D01*
X70479552Y-107462517D01*
X70293117Y-107359599D01*
X70283705Y-107355369D01*
X70082959Y-107284280D01*
X70072988Y-107281646D01*
X70001837Y-107268972D01*
X69988540Y-107270432D01*
X69984000Y-107284989D01*
X69984000Y-109918517D01*
X69988064Y-109932359D01*
X70001478Y-109934393D01*
X70008184Y-109933534D01*
X70018262Y-109931392D01*
X70222255Y-109870191D01*
X70231842Y-109866433D01*
X70423095Y-109772739D01*
X70431945Y-109767464D01*
X70605328Y-109643792D01*
X70613200Y-109637139D01*
X70764052Y-109486812D01*
X70770730Y-109478965D01*
X70898022Y-109301819D01*
X70899279Y-109302722D01*
X70946373Y-109259362D01*
X71016311Y-109247145D01*
X71081751Y-109274678D01*
X71109579Y-109306511D01*
X71169987Y-109405088D01*
X71316250Y-109573938D01*
X71488126Y-109716632D01*
X71681000Y-109829338D01*
X71889692Y-109909030D01*
X71894760Y-109910061D01*
X71894763Y-109910062D01*
X71989862Y-109929410D01*
X72108597Y-109953567D01*
X72113772Y-109953757D01*
X72113774Y-109953757D01*
X72326673Y-109961564D01*
X72326677Y-109961564D01*
X72331837Y-109961753D01*
X72336957Y-109961097D01*
X72336959Y-109961097D01*
X72548288Y-109934025D01*
X72548289Y-109934025D01*
X72553416Y-109933368D01*
X72558367Y-109931883D01*
X72558370Y-109931882D01*
X72599829Y-109919444D01*
X72670825Y-109919028D01*
X72725131Y-109951035D01*
X75656348Y-112882253D01*
X75663888Y-112890539D01*
X75668000Y-112897018D01*
X75673777Y-112902443D01*
X75717651Y-112943643D01*
X75720493Y-112946398D01*
X75740230Y-112966135D01*
X75743427Y-112968615D01*
X75752447Y-112976318D01*
X75784679Y-113006586D01*
X75791625Y-113010405D01*
X75791628Y-113010407D01*
X75802434Y-113016348D01*
X75818953Y-113027199D01*
X75834959Y-113039614D01*
X75842228Y-113042759D01*
X75842232Y-113042762D01*
X75875537Y-113057174D01*
X75886187Y-113062391D01*
X75924940Y-113083695D01*
X75932615Y-113085666D01*
X75932616Y-113085666D01*
X75944562Y-113088733D01*
X75963267Y-113095137D01*
X75981855Y-113103181D01*
X75989678Y-113104420D01*
X75989688Y-113104423D01*
X76025524Y-113110099D01*
X76037144Y-113112505D01*
X76072289Y-113121528D01*
X76079970Y-113123500D01*
X76100224Y-113123500D01*
X76119934Y-113125051D01*
X76139943Y-113128220D01*
X76147835Y-113127474D01*
X76183961Y-113124059D01*
X76195819Y-113123500D01*
X77140606Y-113123500D01*
X77208727Y-113143502D01*
X77243819Y-113177229D01*
X77353802Y-113334300D01*
X77515700Y-113496198D01*
X77520208Y-113499355D01*
X77520211Y-113499357D01*
X77598389Y-113554098D01*
X77703251Y-113627523D01*
X77708233Y-113629846D01*
X77708238Y-113629849D01*
X77742457Y-113645805D01*
X77795742Y-113692722D01*
X77815203Y-113760999D01*
X77794661Y-113828959D01*
X77742457Y-113874195D01*
X77708238Y-113890151D01*
X77708233Y-113890154D01*
X77703251Y-113892477D01*
X77598389Y-113965902D01*
X77520211Y-114020643D01*
X77520208Y-114020645D01*
X77515700Y-114023802D01*
X77353802Y-114185700D01*
X77222477Y-114373251D01*
X77220154Y-114378233D01*
X77220151Y-114378238D01*
X77128039Y-114575775D01*
X77125716Y-114580757D01*
X77066457Y-114801913D01*
X77046502Y-115030000D01*
X77066457Y-115258087D01*
X77067880Y-115263399D01*
X77067881Y-115263402D01*
X77094408Y-115362399D01*
X77125716Y-115479243D01*
X77128039Y-115484224D01*
X77128039Y-115484225D01*
X77220151Y-115681762D01*
X77220154Y-115681767D01*
X77222477Y-115686749D01*
X77353802Y-115874300D01*
X77515700Y-116036198D01*
X77520208Y-116039355D01*
X77520211Y-116039357D01*
X77598389Y-116094098D01*
X77703251Y-116167523D01*
X77708233Y-116169846D01*
X77708238Y-116169849D01*
X77742457Y-116185805D01*
X77795742Y-116232722D01*
X77815203Y-116300999D01*
X77794661Y-116368959D01*
X77742457Y-116414195D01*
X77708238Y-116430151D01*
X77708233Y-116430154D01*
X77703251Y-116432477D01*
X77598389Y-116505902D01*
X77520211Y-116560643D01*
X77520208Y-116560645D01*
X77515700Y-116563802D01*
X77353802Y-116725700D01*
X77350645Y-116730208D01*
X77350643Y-116730211D01*
X77315617Y-116780233D01*
X77222477Y-116913251D01*
X77220154Y-116918233D01*
X77220151Y-116918238D01*
X77200680Y-116959995D01*
X77125716Y-117120757D01*
X77066457Y-117341913D01*
X77046502Y-117570000D01*
X77066457Y-117798087D01*
X77067881Y-117803400D01*
X77067881Y-117803402D01*
X77123826Y-118012188D01*
X77125716Y-118019243D01*
X77128039Y-118024224D01*
X77128039Y-118024225D01*
X77220151Y-118221762D01*
X77220154Y-118221767D01*
X77222477Y-118226749D01*
X77353802Y-118414300D01*
X77515700Y-118576198D01*
X77520208Y-118579355D01*
X77520211Y-118579357D01*
X77598389Y-118634098D01*
X77703251Y-118707523D01*
X77708233Y-118709846D01*
X77708238Y-118709849D01*
X77742457Y-118725805D01*
X77795742Y-118772722D01*
X77815203Y-118840999D01*
X77794661Y-118908959D01*
X77742457Y-118954195D01*
X77708238Y-118970151D01*
X77708233Y-118970154D01*
X77703251Y-118972477D01*
X77598389Y-119045902D01*
X77520211Y-119100643D01*
X77520208Y-119100645D01*
X77515700Y-119103802D01*
X77353802Y-119265700D01*
X77222477Y-119453251D01*
X77220154Y-119458233D01*
X77220151Y-119458238D01*
X77173447Y-119558396D01*
X77125716Y-119660757D01*
X77066457Y-119881913D01*
X77046502Y-120110000D01*
X77066457Y-120338087D01*
X77067881Y-120343400D01*
X77067881Y-120343402D01*
X77120934Y-120541395D01*
X77125716Y-120559243D01*
X77128039Y-120564224D01*
X77128039Y-120564225D01*
X77220151Y-120761762D01*
X77220154Y-120761767D01*
X77222477Y-120766749D01*
X77353802Y-120954300D01*
X77515700Y-121116198D01*
X77520208Y-121119355D01*
X77520211Y-121119357D01*
X77598389Y-121174098D01*
X77703251Y-121247523D01*
X77708233Y-121249846D01*
X77708238Y-121249849D01*
X77742457Y-121265805D01*
X77795742Y-121312722D01*
X77815203Y-121380999D01*
X77794661Y-121448959D01*
X77742457Y-121494195D01*
X77708238Y-121510151D01*
X77708233Y-121510154D01*
X77703251Y-121512477D01*
X77598389Y-121585902D01*
X77520211Y-121640643D01*
X77520208Y-121640645D01*
X77515700Y-121643802D01*
X77353802Y-121805700D01*
X77222477Y-121993251D01*
X77220154Y-121998233D01*
X77220151Y-121998238D01*
X77128039Y-122195775D01*
X77125716Y-122200757D01*
X77066457Y-122421913D01*
X77046502Y-122650000D01*
X77066457Y-122878087D01*
X77067881Y-122883400D01*
X77067881Y-122883402D01*
X77120934Y-123081395D01*
X77125716Y-123099243D01*
X77128039Y-123104224D01*
X77128039Y-123104225D01*
X77220151Y-123301762D01*
X77220154Y-123301767D01*
X77222477Y-123306749D01*
X77353802Y-123494300D01*
X77515700Y-123656198D01*
X77520208Y-123659355D01*
X77520211Y-123659357D01*
X77548157Y-123678925D01*
X77703251Y-123787523D01*
X77708233Y-123789846D01*
X77708238Y-123789849D01*
X77742457Y-123805805D01*
X77795742Y-123852722D01*
X77815203Y-123920999D01*
X77794661Y-123988959D01*
X77742457Y-124034195D01*
X77708238Y-124050151D01*
X77708233Y-124050154D01*
X77703251Y-124052477D01*
X77598389Y-124125902D01*
X77520211Y-124180643D01*
X77520208Y-124180645D01*
X77515700Y-124183802D01*
X77353802Y-124345700D01*
X77222477Y-124533251D01*
X77220154Y-124538233D01*
X77220151Y-124538238D01*
X77128039Y-124735775D01*
X77125716Y-124740757D01*
X77066457Y-124961913D01*
X77046502Y-125190000D01*
X77066457Y-125418087D01*
X77067881Y-125423400D01*
X77067881Y-125423402D01*
X77120934Y-125621395D01*
X77125716Y-125639243D01*
X77128039Y-125644224D01*
X77128039Y-125644225D01*
X77220151Y-125841762D01*
X77220154Y-125841767D01*
X77222477Y-125846749D01*
X77353802Y-126034300D01*
X77515700Y-126196198D01*
X77520208Y-126199355D01*
X77520211Y-126199357D01*
X77598389Y-126254098D01*
X77703251Y-126327523D01*
X77708233Y-126329846D01*
X77708238Y-126329849D01*
X77742457Y-126345805D01*
X77795742Y-126392722D01*
X77815203Y-126460999D01*
X77794661Y-126528959D01*
X77742457Y-126574195D01*
X77708238Y-126590151D01*
X77708233Y-126590154D01*
X77703251Y-126592477D01*
X77598389Y-126665902D01*
X77520211Y-126720643D01*
X77520208Y-126720645D01*
X77515700Y-126723802D01*
X77353802Y-126885700D01*
X77222477Y-127073251D01*
X77220154Y-127078233D01*
X77220151Y-127078238D01*
X77128039Y-127275775D01*
X77125716Y-127280757D01*
X77066457Y-127501913D01*
X77046502Y-127730000D01*
X77066457Y-127958087D01*
X77067881Y-127963400D01*
X77067881Y-127963402D01*
X77120934Y-128161395D01*
X77125716Y-128179243D01*
X77128039Y-128184224D01*
X77128039Y-128184225D01*
X77220151Y-128381762D01*
X77220154Y-128381767D01*
X77222477Y-128386749D01*
X77353802Y-128574300D01*
X77515700Y-128736198D01*
X77520208Y-128739355D01*
X77520211Y-128739357D01*
X77598389Y-128794098D01*
X77703251Y-128867523D01*
X77708233Y-128869846D01*
X77708238Y-128869849D01*
X77742457Y-128885805D01*
X77795742Y-128932722D01*
X77815203Y-129000999D01*
X77794661Y-129068959D01*
X77742457Y-129114195D01*
X77708238Y-129130151D01*
X77708233Y-129130154D01*
X77703251Y-129132477D01*
X77698744Y-129135633D01*
X77698742Y-129135634D01*
X77646585Y-129172155D01*
X77579311Y-129194843D01*
X77510450Y-129177558D01*
X77485219Y-129158037D01*
X64231963Y-115904780D01*
X64197937Y-115842468D01*
X64203002Y-115771653D01*
X64217841Y-115743420D01*
X64257523Y-115686749D01*
X64259846Y-115681767D01*
X64259849Y-115681762D01*
X64351961Y-115484225D01*
X64351961Y-115484224D01*
X64354284Y-115479243D01*
X64385593Y-115362399D01*
X64412119Y-115263402D01*
X64412120Y-115263399D01*
X64413543Y-115258087D01*
X64433498Y-115030000D01*
X64413543Y-114801913D01*
X64354284Y-114580757D01*
X64351961Y-114575775D01*
X64259849Y-114378238D01*
X64259846Y-114378233D01*
X64257523Y-114373251D01*
X64126198Y-114185700D01*
X63964300Y-114023802D01*
X63959792Y-114020645D01*
X63959789Y-114020643D01*
X63881611Y-113965902D01*
X63776749Y-113892477D01*
X63771767Y-113890154D01*
X63771762Y-113890151D01*
X63737543Y-113874195D01*
X63684258Y-113827278D01*
X63664797Y-113759001D01*
X63685339Y-113691041D01*
X63737543Y-113645805D01*
X63771762Y-113629849D01*
X63771767Y-113629846D01*
X63776749Y-113627523D01*
X63881611Y-113554098D01*
X63959789Y-113499357D01*
X63959792Y-113499355D01*
X63964300Y-113496198D01*
X64126198Y-113334300D01*
X64257523Y-113146749D01*
X64259846Y-113141767D01*
X64259849Y-113141762D01*
X64351961Y-112944225D01*
X64351961Y-112944224D01*
X64354284Y-112939243D01*
X64413543Y-112718087D01*
X64433498Y-112490000D01*
X64413543Y-112261913D01*
X64354284Y-112040757D01*
X64351961Y-112035775D01*
X64259849Y-111838238D01*
X64259846Y-111838233D01*
X64257523Y-111833251D01*
X64126198Y-111645700D01*
X63964300Y-111483802D01*
X63959792Y-111480645D01*
X63959789Y-111480643D01*
X63881611Y-111425902D01*
X63776749Y-111352477D01*
X63771767Y-111350154D01*
X63771762Y-111350151D01*
X63737543Y-111334195D01*
X63684258Y-111287278D01*
X63664797Y-111219001D01*
X63685339Y-111151041D01*
X63737543Y-111105805D01*
X63771762Y-111089849D01*
X63771767Y-111089846D01*
X63776749Y-111087523D01*
X63881611Y-111014098D01*
X63959789Y-110959357D01*
X63959792Y-110959355D01*
X63964300Y-110956198D01*
X64126198Y-110794300D01*
X64257523Y-110606749D01*
X64259846Y-110601767D01*
X64259849Y-110601762D01*
X64351961Y-110404225D01*
X64351961Y-110404224D01*
X64354284Y-110399243D01*
X64413543Y-110178087D01*
X64433498Y-109950000D01*
X64413543Y-109721913D01*
X64412117Y-109716591D01*
X64355707Y-109506067D01*
X64355706Y-109506065D01*
X64354284Y-109500757D01*
X64353061Y-109498134D01*
X65831500Y-109498134D01*
X65838255Y-109560316D01*
X65889385Y-109696705D01*
X65976739Y-109813261D01*
X66093295Y-109900615D01*
X66229684Y-109951745D01*
X66291866Y-109958500D01*
X68088134Y-109958500D01*
X68150316Y-109951745D01*
X68286705Y-109900615D01*
X68403261Y-109813261D01*
X68490615Y-109696705D01*
X68534798Y-109578848D01*
X68577440Y-109522084D01*
X68644001Y-109497384D01*
X68713350Y-109512592D01*
X68748017Y-109540580D01*
X68773218Y-109569673D01*
X68780580Y-109576883D01*
X68944434Y-109712916D01*
X68952881Y-109718831D01*
X69136756Y-109826279D01*
X69146042Y-109830729D01*
X69345001Y-109906703D01*
X69354899Y-109909579D01*
X69458250Y-109930606D01*
X69472299Y-109929410D01*
X69476000Y-109919065D01*
X69476000Y-107283102D01*
X69472082Y-107269758D01*
X69457806Y-107267771D01*
X69419324Y-107273660D01*
X69409288Y-107276051D01*
X69206868Y-107342212D01*
X69197359Y-107346209D01*
X69008463Y-107444542D01*
X68999738Y-107450036D01*
X68829433Y-107577905D01*
X68821726Y-107584748D01*
X68744478Y-107665584D01*
X68682954Y-107701014D01*
X68612042Y-107697557D01*
X68554255Y-107656311D01*
X68535402Y-107622763D01*
X68493767Y-107511703D01*
X68490615Y-107503295D01*
X68403261Y-107386739D01*
X68286705Y-107299385D01*
X68150316Y-107248255D01*
X68088134Y-107241500D01*
X66291866Y-107241500D01*
X66229684Y-107248255D01*
X66093295Y-107299385D01*
X65976739Y-107386739D01*
X65889385Y-107503295D01*
X65838255Y-107639684D01*
X65831500Y-107701866D01*
X65831500Y-109498134D01*
X64353061Y-109498134D01*
X64347933Y-109487137D01*
X64259849Y-109298238D01*
X64259846Y-109298233D01*
X64257523Y-109293251D01*
X64126198Y-109105700D01*
X63964300Y-108943802D01*
X63959792Y-108940645D01*
X63959789Y-108940643D01*
X63812321Y-108837385D01*
X63776749Y-108812477D01*
X63771767Y-108810154D01*
X63771762Y-108810151D01*
X63737543Y-108794195D01*
X63684258Y-108747278D01*
X63664797Y-108679001D01*
X63685339Y-108611041D01*
X63737543Y-108565805D01*
X63771762Y-108549849D01*
X63771767Y-108549846D01*
X63776749Y-108547523D01*
X63881611Y-108474098D01*
X63959789Y-108419357D01*
X63959792Y-108419355D01*
X63964300Y-108416198D01*
X64126198Y-108254300D01*
X64257523Y-108066749D01*
X64259846Y-108061767D01*
X64259849Y-108061762D01*
X64351961Y-107864225D01*
X64351961Y-107864224D01*
X64354284Y-107859243D01*
X64378659Y-107768277D01*
X64412119Y-107643402D01*
X64412119Y-107643400D01*
X64413543Y-107638087D01*
X64433498Y-107410000D01*
X64413543Y-107181913D01*
X64412119Y-107176598D01*
X64355707Y-106966067D01*
X64355706Y-106966065D01*
X64354284Y-106960757D01*
X64351961Y-106955775D01*
X64259849Y-106758238D01*
X64259846Y-106758233D01*
X64257523Y-106753251D01*
X64126198Y-106565700D01*
X63964300Y-106403802D01*
X63959792Y-106400645D01*
X63959789Y-106400643D01*
X63821817Y-106304034D01*
X63776749Y-106272477D01*
X63771767Y-106270154D01*
X63771762Y-106270151D01*
X63737543Y-106254195D01*
X63684258Y-106207278D01*
X63664797Y-106139001D01*
X63685339Y-106071041D01*
X63737543Y-106025805D01*
X63771762Y-106009849D01*
X63771767Y-106009846D01*
X63776749Y-106007523D01*
X63914265Y-105911233D01*
X63959789Y-105879357D01*
X63959792Y-105879355D01*
X63964300Y-105876198D01*
X64126198Y-105714300D01*
X64257523Y-105526749D01*
X64259846Y-105521767D01*
X64259849Y-105521762D01*
X64351961Y-105324225D01*
X64351961Y-105324224D01*
X64354284Y-105319243D01*
X64413543Y-105098087D01*
X64433498Y-104870000D01*
X64413543Y-104641913D01*
X64354284Y-104420757D01*
X64259966Y-104218489D01*
X64259849Y-104218238D01*
X64259846Y-104218233D01*
X64257523Y-104213251D01*
X64126198Y-104025700D01*
X63964300Y-103863802D01*
X63959792Y-103860645D01*
X63959789Y-103860643D01*
X63881611Y-103805902D01*
X63776749Y-103732477D01*
X63771767Y-103730154D01*
X63771762Y-103730151D01*
X63737543Y-103714195D01*
X63684258Y-103667278D01*
X63664797Y-103599001D01*
X63685339Y-103531041D01*
X63737543Y-103485805D01*
X63771762Y-103469849D01*
X63771767Y-103469846D01*
X63776749Y-103467523D01*
X63881611Y-103394098D01*
X63959789Y-103339357D01*
X63959792Y-103339355D01*
X63964300Y-103336198D01*
X64126198Y-103174300D01*
X64257523Y-102986749D01*
X64259846Y-102981767D01*
X64259849Y-102981762D01*
X64351961Y-102784225D01*
X64351961Y-102784224D01*
X64354284Y-102779243D01*
X64413543Y-102558087D01*
X64433498Y-102330000D01*
X64413543Y-102101913D01*
X64354284Y-101880757D01*
X64351961Y-101875775D01*
X64259849Y-101678238D01*
X64259846Y-101678233D01*
X64257523Y-101673251D01*
X64126198Y-101485700D01*
X63964300Y-101323802D01*
X63959792Y-101320645D01*
X63959789Y-101320643D01*
X63881611Y-101265902D01*
X63776749Y-101192477D01*
X63771767Y-101190154D01*
X63771762Y-101190151D01*
X63736951Y-101173919D01*
X63683666Y-101127002D01*
X63664205Y-101058725D01*
X63684747Y-100990765D01*
X63736951Y-100945529D01*
X63771511Y-100929414D01*
X63781007Y-100923931D01*
X63959467Y-100798972D01*
X63967875Y-100791916D01*
X64121916Y-100637875D01*
X64128972Y-100629467D01*
X64253931Y-100451007D01*
X64259414Y-100441511D01*
X64351490Y-100244053D01*
X64355236Y-100233761D01*
X64401394Y-100061497D01*
X64401058Y-100047401D01*
X64393116Y-100044000D01*
X61852033Y-100044000D01*
X61838502Y-100047973D01*
X61837273Y-100056522D01*
X61884764Y-100233761D01*
X61888510Y-100244053D01*
X61980586Y-100441511D01*
X61986069Y-100451007D01*
X62111028Y-100629467D01*
X62118084Y-100637875D01*
X62272125Y-100791916D01*
X62280533Y-100798972D01*
X62458993Y-100923931D01*
X62468489Y-100929414D01*
X62503049Y-100945529D01*
X62556334Y-100992446D01*
X62575795Y-101060723D01*
X62555253Y-101128683D01*
X62503049Y-101173919D01*
X62468238Y-101190151D01*
X62468233Y-101190154D01*
X62463251Y-101192477D01*
X62358389Y-101265902D01*
X62280211Y-101320643D01*
X62280208Y-101320645D01*
X62275700Y-101323802D01*
X62113802Y-101485700D01*
X61982477Y-101673251D01*
X61980154Y-101678233D01*
X61980151Y-101678238D01*
X61888039Y-101875775D01*
X61885716Y-101880757D01*
X61826457Y-102101913D01*
X61806502Y-102330000D01*
X61826457Y-102558087D01*
X61885716Y-102779243D01*
X61888039Y-102784224D01*
X61888039Y-102784225D01*
X61980151Y-102981762D01*
X61980154Y-102981767D01*
X61982477Y-102986749D01*
X62113802Y-103174300D01*
X62275700Y-103336198D01*
X62280208Y-103339355D01*
X62280211Y-103339357D01*
X62358389Y-103394098D01*
X62463251Y-103467523D01*
X62468233Y-103469846D01*
X62468238Y-103469849D01*
X62502457Y-103485805D01*
X62555742Y-103532722D01*
X62575203Y-103600999D01*
X62554661Y-103668959D01*
X62502457Y-103714195D01*
X62468238Y-103730151D01*
X62468233Y-103730154D01*
X62463251Y-103732477D01*
X62358389Y-103805902D01*
X62280211Y-103860643D01*
X62280208Y-103860645D01*
X62275700Y-103863802D01*
X62113802Y-104025700D01*
X61982477Y-104213251D01*
X61980154Y-104218233D01*
X61980151Y-104218238D01*
X61980034Y-104218489D01*
X61885716Y-104420757D01*
X61826457Y-104641913D01*
X61806502Y-104870000D01*
X61826457Y-105098087D01*
X61885716Y-105319243D01*
X61888039Y-105324224D01*
X61888039Y-105324225D01*
X61980151Y-105521762D01*
X61980154Y-105521767D01*
X61982477Y-105526749D01*
X62113802Y-105714300D01*
X62275700Y-105876198D01*
X62280208Y-105879355D01*
X62280211Y-105879357D01*
X62325735Y-105911233D01*
X62463251Y-106007523D01*
X62468233Y-106009846D01*
X62468238Y-106009849D01*
X62502457Y-106025805D01*
X62555742Y-106072722D01*
X62575203Y-106140999D01*
X62554661Y-106208959D01*
X62502457Y-106254195D01*
X62468238Y-106270151D01*
X62468233Y-106270154D01*
X62463251Y-106272477D01*
X62418183Y-106304034D01*
X62280211Y-106400643D01*
X62280208Y-106400645D01*
X62275700Y-106403802D01*
X62113802Y-106565700D01*
X61982477Y-106753251D01*
X61980154Y-106758233D01*
X61980151Y-106758238D01*
X61888039Y-106955775D01*
X61885716Y-106960757D01*
X61884294Y-106966065D01*
X61884293Y-106966067D01*
X61827881Y-107176598D01*
X61826457Y-107181913D01*
X61806502Y-107410000D01*
X61826457Y-107638087D01*
X61827881Y-107643400D01*
X61827881Y-107643402D01*
X61861342Y-107768277D01*
X61885716Y-107859243D01*
X61888039Y-107864224D01*
X61888039Y-107864225D01*
X61980151Y-108061762D01*
X61980154Y-108061767D01*
X61982477Y-108066749D01*
X62113802Y-108254300D01*
X62275700Y-108416198D01*
X62280208Y-108419355D01*
X62280211Y-108419357D01*
X62358389Y-108474098D01*
X62463251Y-108547523D01*
X62468233Y-108549846D01*
X62468238Y-108549849D01*
X62502457Y-108565805D01*
X62555742Y-108612722D01*
X62575203Y-108680999D01*
X62554661Y-108748959D01*
X62502457Y-108794195D01*
X62468238Y-108810151D01*
X62468233Y-108810154D01*
X62463251Y-108812477D01*
X62427679Y-108837385D01*
X62280211Y-108940643D01*
X62280208Y-108940645D01*
X62275700Y-108943802D01*
X62113802Y-109105700D01*
X61982477Y-109293251D01*
X61980154Y-109298233D01*
X61980151Y-109298238D01*
X61892067Y-109487137D01*
X61885716Y-109500757D01*
X61884294Y-109506065D01*
X61884293Y-109506067D01*
X61827883Y-109716591D01*
X61826457Y-109721913D01*
X61806502Y-109950000D01*
X61826457Y-110178087D01*
X61885716Y-110399243D01*
X61888039Y-110404224D01*
X61888039Y-110404225D01*
X61980151Y-110601762D01*
X61980154Y-110601767D01*
X61982477Y-110606749D01*
X62113802Y-110794300D01*
X62275700Y-110956198D01*
X62280208Y-110959355D01*
X62280211Y-110959357D01*
X62358389Y-111014098D01*
X62463251Y-111087523D01*
X62468233Y-111089846D01*
X62468238Y-111089849D01*
X62502457Y-111105805D01*
X62555742Y-111152722D01*
X62575203Y-111220999D01*
X62554661Y-111288959D01*
X62502457Y-111334195D01*
X62468238Y-111350151D01*
X62468233Y-111350154D01*
X62463251Y-111352477D01*
X62358389Y-111425902D01*
X62280211Y-111480643D01*
X62280208Y-111480645D01*
X62275700Y-111483802D01*
X62113802Y-111645700D01*
X61982477Y-111833251D01*
X61980154Y-111838233D01*
X61980151Y-111838238D01*
X61888039Y-112035775D01*
X61885716Y-112040757D01*
X61826457Y-112261913D01*
X61806502Y-112490000D01*
X61826457Y-112718087D01*
X61885716Y-112939243D01*
X61888039Y-112944224D01*
X61888039Y-112944225D01*
X61980151Y-113141762D01*
X61980154Y-113141767D01*
X61982477Y-113146749D01*
X62113802Y-113334300D01*
X62275700Y-113496198D01*
X62280208Y-113499355D01*
X62280211Y-113499357D01*
X62358389Y-113554098D01*
X62463251Y-113627523D01*
X62468233Y-113629846D01*
X62468238Y-113629849D01*
X62502457Y-113645805D01*
X62555742Y-113692722D01*
X62575203Y-113760999D01*
X62554661Y-113828959D01*
X62502457Y-113874195D01*
X62468238Y-113890151D01*
X62468233Y-113890154D01*
X62463251Y-113892477D01*
X62358389Y-113965902D01*
X62280211Y-114020643D01*
X62280208Y-114020645D01*
X62275700Y-114023802D01*
X62113802Y-114185700D01*
X61982477Y-114373251D01*
X61980154Y-114378233D01*
X61980151Y-114378238D01*
X61888039Y-114575775D01*
X61885716Y-114580757D01*
X61826457Y-114801913D01*
X61806502Y-115030000D01*
X61826457Y-115258087D01*
X61854408Y-115362399D01*
X61852718Y-115433376D01*
X61812924Y-115492172D01*
X61747660Y-115520120D01*
X61732701Y-115521011D01*
X60869106Y-115521011D01*
X60800985Y-115501009D01*
X60780011Y-115484106D01*
X59970405Y-114674500D01*
X59936379Y-114612188D01*
X59933500Y-114585405D01*
X59933500Y-97250000D01*
X61806502Y-97250000D01*
X61826457Y-97478087D01*
X61885716Y-97699243D01*
X61888039Y-97704224D01*
X61888039Y-97704225D01*
X61980151Y-97901762D01*
X61980154Y-97901767D01*
X61982477Y-97906749D01*
X62113802Y-98094300D01*
X62275700Y-98256198D01*
X62280208Y-98259355D01*
X62280211Y-98259357D01*
X62321542Y-98288297D01*
X62463251Y-98387523D01*
X62468233Y-98389846D01*
X62468238Y-98389849D01*
X62503049Y-98406081D01*
X62556334Y-98452998D01*
X62575795Y-98521275D01*
X62555253Y-98589235D01*
X62503049Y-98634471D01*
X62468489Y-98650586D01*
X62458993Y-98656069D01*
X62280533Y-98781028D01*
X62272125Y-98788084D01*
X62118084Y-98942125D01*
X62111028Y-98950533D01*
X61986069Y-99128993D01*
X61980586Y-99138489D01*
X61888510Y-99335947D01*
X61884764Y-99346239D01*
X61838606Y-99518503D01*
X61838942Y-99532599D01*
X61846884Y-99536000D01*
X64387967Y-99536000D01*
X64401498Y-99532027D01*
X64402727Y-99523478D01*
X64355236Y-99346239D01*
X64351490Y-99335947D01*
X64259414Y-99138489D01*
X64253931Y-99128993D01*
X64128972Y-98950533D01*
X64121916Y-98942125D01*
X63967875Y-98788084D01*
X63959467Y-98781028D01*
X63781007Y-98656069D01*
X63771511Y-98650586D01*
X63736951Y-98634471D01*
X63683666Y-98587554D01*
X63664205Y-98519277D01*
X63684747Y-98451317D01*
X63736951Y-98406081D01*
X63771762Y-98389849D01*
X63771767Y-98389846D01*
X63776749Y-98387523D01*
X63918458Y-98288297D01*
X63959789Y-98259357D01*
X63959792Y-98259355D01*
X63964300Y-98256198D01*
X64126198Y-98094300D01*
X64257523Y-97906749D01*
X64259846Y-97901767D01*
X64259849Y-97901762D01*
X64351961Y-97704225D01*
X64351961Y-97704224D01*
X64354284Y-97699243D01*
X64413543Y-97478087D01*
X64433498Y-97250000D01*
X64413543Y-97021913D01*
X64354284Y-96800757D01*
X64351961Y-96795775D01*
X64259849Y-96598238D01*
X64259846Y-96598233D01*
X64257523Y-96593251D01*
X64126198Y-96405700D01*
X63964300Y-96243802D01*
X63959792Y-96240645D01*
X63959789Y-96240643D01*
X63881611Y-96185902D01*
X63776749Y-96112477D01*
X63771767Y-96110154D01*
X63771762Y-96110151D01*
X63574225Y-96018039D01*
X63574224Y-96018039D01*
X63569243Y-96015716D01*
X63563935Y-96014294D01*
X63563933Y-96014293D01*
X63353402Y-95957881D01*
X63353400Y-95957881D01*
X63348087Y-95956457D01*
X63120000Y-95936502D01*
X62891913Y-95956457D01*
X62886600Y-95957881D01*
X62886598Y-95957881D01*
X62676067Y-96014293D01*
X62676065Y-96014294D01*
X62670757Y-96015716D01*
X62665776Y-96018039D01*
X62665775Y-96018039D01*
X62468238Y-96110151D01*
X62468233Y-96110154D01*
X62463251Y-96112477D01*
X62358389Y-96185902D01*
X62280211Y-96240643D01*
X62280208Y-96240645D01*
X62275700Y-96243802D01*
X62113802Y-96405700D01*
X61982477Y-96593251D01*
X61980154Y-96598233D01*
X61980151Y-96598238D01*
X61888039Y-96795775D01*
X61885716Y-96800757D01*
X61826457Y-97021913D01*
X61806502Y-97250000D01*
X59933500Y-97250000D01*
X59933500Y-93059500D01*
X59953502Y-92991379D01*
X60007158Y-92944886D01*
X60059500Y-92933500D01*
X65521233Y-92933500D01*
X65532416Y-92934027D01*
X65539909Y-92935702D01*
X65547835Y-92935453D01*
X65547836Y-92935453D01*
X65607986Y-92933562D01*
X65611945Y-92933500D01*
X65639856Y-92933500D01*
X65643791Y-92933003D01*
X65643856Y-92932995D01*
X65655693Y-92932062D01*
X65687951Y-92931048D01*
X65691970Y-92930922D01*
X65699889Y-92930673D01*
X65719343Y-92925021D01*
X65738700Y-92921013D01*
X65750930Y-92919468D01*
X65750931Y-92919468D01*
X65758797Y-92918474D01*
X65766168Y-92915555D01*
X65766170Y-92915555D01*
X65799912Y-92902196D01*
X65811142Y-92898351D01*
X65845983Y-92888229D01*
X65845984Y-92888229D01*
X65853593Y-92886018D01*
X65860412Y-92881985D01*
X65860417Y-92881983D01*
X65871028Y-92875707D01*
X65888776Y-92867012D01*
X65907617Y-92859552D01*
X65943387Y-92833564D01*
X65953307Y-92827048D01*
X65984535Y-92808580D01*
X65984538Y-92808578D01*
X65991362Y-92804542D01*
X66005683Y-92790221D01*
X66020717Y-92777380D01*
X66030694Y-92770131D01*
X66037107Y-92765472D01*
X66065298Y-92731395D01*
X66073288Y-92722616D01*
X72892247Y-85903657D01*
X72900537Y-85896113D01*
X72907018Y-85892000D01*
X72953659Y-85842332D01*
X72956413Y-85839491D01*
X72976135Y-85819769D01*
X72978612Y-85816576D01*
X72986317Y-85807555D01*
X73011159Y-85781100D01*
X73016586Y-85775321D01*
X73020407Y-85768371D01*
X73026346Y-85757568D01*
X73037202Y-85741041D01*
X73044757Y-85731302D01*
X73044758Y-85731300D01*
X73049614Y-85725040D01*
X73067174Y-85684460D01*
X73072391Y-85673812D01*
X73089875Y-85642009D01*
X73089876Y-85642007D01*
X73093695Y-85635060D01*
X73098733Y-85615437D01*
X73105137Y-85596734D01*
X73110033Y-85585420D01*
X73110033Y-85585419D01*
X73113181Y-85578145D01*
X73114420Y-85570322D01*
X73114423Y-85570312D01*
X73120099Y-85534476D01*
X73122505Y-85522856D01*
X73131528Y-85487711D01*
X73131528Y-85487710D01*
X73133500Y-85480030D01*
X73133500Y-85459776D01*
X73135051Y-85440065D01*
X73136980Y-85427886D01*
X73138220Y-85420057D01*
X73134059Y-85376038D01*
X73133500Y-85364181D01*
X73133500Y-82378768D01*
X73134027Y-82367585D01*
X73135702Y-82360092D01*
X73134121Y-82309771D01*
X73133562Y-82292002D01*
X73133500Y-82288044D01*
X73133500Y-82260144D01*
X73132996Y-82256153D01*
X73132063Y-82244311D01*
X73130923Y-82208036D01*
X73130674Y-82200111D01*
X73128462Y-82192497D01*
X73128461Y-82192492D01*
X73125023Y-82180659D01*
X73121012Y-82161295D01*
X73119467Y-82149064D01*
X73118474Y-82141203D01*
X73115557Y-82133836D01*
X73115556Y-82133831D01*
X73102198Y-82100092D01*
X73098354Y-82088865D01*
X73088230Y-82054022D01*
X73086018Y-82046407D01*
X73077007Y-82031170D01*
X73075707Y-82028972D01*
X73067012Y-82011224D01*
X73059552Y-81992383D01*
X73049533Y-81978592D01*
X73033564Y-81956613D01*
X73027048Y-81946693D01*
X73008580Y-81915465D01*
X73008578Y-81915462D01*
X73004542Y-81908638D01*
X72990221Y-81894317D01*
X72977380Y-81879283D01*
X72970132Y-81869307D01*
X72965472Y-81862893D01*
X72931407Y-81834712D01*
X72922626Y-81826722D01*
X72670404Y-81574499D01*
X72636379Y-81512187D01*
X72633500Y-81485404D01*
X72633500Y-55078767D01*
X72634027Y-55067584D01*
X72635702Y-55060091D01*
X72633562Y-54992014D01*
X72633500Y-54988055D01*
X72633500Y-54960144D01*
X72632995Y-54956144D01*
X72632062Y-54944301D01*
X72630922Y-54908029D01*
X72630673Y-54900110D01*
X72625022Y-54880658D01*
X72621014Y-54861306D01*
X72619467Y-54849063D01*
X72618474Y-54841203D01*
X72606281Y-54810406D01*
X72602200Y-54800097D01*
X72598355Y-54788870D01*
X72597721Y-54786687D01*
X72586018Y-54746407D01*
X72581984Y-54739585D01*
X72581981Y-54739579D01*
X72575706Y-54728968D01*
X72567010Y-54711218D01*
X72562472Y-54699756D01*
X72562469Y-54699751D01*
X72559552Y-54692383D01*
X72542034Y-54668271D01*
X72533573Y-54656625D01*
X72527057Y-54646707D01*
X72508575Y-54615457D01*
X72504542Y-54608637D01*
X72490218Y-54594313D01*
X72477376Y-54579278D01*
X72465472Y-54562893D01*
X72431406Y-54534711D01*
X72422627Y-54526722D01*
X71303652Y-53407747D01*
X71296112Y-53399461D01*
X71292000Y-53392982D01*
X71242348Y-53346356D01*
X71239507Y-53343602D01*
X71219770Y-53323865D01*
X71216573Y-53321385D01*
X71207551Y-53313680D01*
X71194116Y-53301064D01*
X71175321Y-53283414D01*
X71168375Y-53279595D01*
X71168372Y-53279593D01*
X71157566Y-53273652D01*
X71141047Y-53262801D01*
X71138802Y-53261060D01*
X71125041Y-53250386D01*
X71117772Y-53247241D01*
X71117768Y-53247238D01*
X71084463Y-53232826D01*
X71073813Y-53227609D01*
X71035060Y-53206305D01*
X71015437Y-53201267D01*
X70996734Y-53194863D01*
X70985420Y-53189967D01*
X70985419Y-53189967D01*
X70978145Y-53186819D01*
X70970322Y-53185580D01*
X70970312Y-53185577D01*
X70934476Y-53179901D01*
X70922856Y-53177495D01*
X70887711Y-53168472D01*
X70887710Y-53168472D01*
X70880030Y-53166500D01*
X70859776Y-53166500D01*
X70840065Y-53164949D01*
X70827886Y-53163020D01*
X70820057Y-53161780D01*
X70790786Y-53164547D01*
X70776039Y-53165941D01*
X70764181Y-53166500D01*
X68354745Y-53166500D01*
X68343562Y-53165973D01*
X68336069Y-53164298D01*
X68328143Y-53164547D01*
X68328142Y-53164547D01*
X68267992Y-53166438D01*
X68264033Y-53166500D01*
X68236122Y-53166500D01*
X68232188Y-53166997D01*
X68232187Y-53166997D01*
X68232122Y-53167005D01*
X68220285Y-53167938D01*
X68188468Y-53168938D01*
X68184007Y-53169078D01*
X68176088Y-53169327D01*
X68158432Y-53174456D01*
X68156636Y-53174978D01*
X68137284Y-53178986D01*
X68134103Y-53179388D01*
X68117181Y-53181526D01*
X68109812Y-53184443D01*
X68109810Y-53184444D01*
X68076075Y-53197800D01*
X68064847Y-53201645D01*
X68022385Y-53213982D01*
X68015563Y-53218016D01*
X68015557Y-53218019D01*
X68004946Y-53224294D01*
X67987196Y-53232990D01*
X67975734Y-53237528D01*
X67975729Y-53237531D01*
X67968361Y-53240448D01*
X67950948Y-53253099D01*
X67932603Y-53266427D01*
X67922685Y-53272943D01*
X67911441Y-53279593D01*
X67884615Y-53295458D01*
X67870291Y-53309782D01*
X67855259Y-53322621D01*
X67838871Y-53334528D01*
X67810690Y-53368593D01*
X67802700Y-53377373D01*
X61607747Y-59572326D01*
X61599461Y-59579866D01*
X61592982Y-59583978D01*
X61587557Y-59589755D01*
X61546357Y-59633629D01*
X61543602Y-59636471D01*
X61523865Y-59656208D01*
X61521385Y-59659405D01*
X61513682Y-59668425D01*
X61483414Y-59700657D01*
X61479595Y-59707603D01*
X61479593Y-59707606D01*
X61473652Y-59718412D01*
X61462801Y-59734931D01*
X61450386Y-59750937D01*
X61447241Y-59758206D01*
X61447238Y-59758210D01*
X61432826Y-59791515D01*
X61427609Y-59802165D01*
X61406305Y-59840918D01*
X61404334Y-59848593D01*
X61404334Y-59848594D01*
X61401267Y-59860540D01*
X61394863Y-59879244D01*
X61386819Y-59897833D01*
X61385580Y-59905656D01*
X61385577Y-59905666D01*
X61379901Y-59941502D01*
X61377495Y-59953122D01*
X61366500Y-59995948D01*
X61366500Y-60016202D01*
X61364949Y-60035912D01*
X61361780Y-60055921D01*
X61362526Y-60063813D01*
X61365941Y-60099939D01*
X61366500Y-60111797D01*
X61366500Y-60343810D01*
X61346498Y-60411931D01*
X61298680Y-60455573D01*
X61212009Y-60500691D01*
X61207876Y-60503794D01*
X61207873Y-60503796D01*
X61165525Y-60535592D01*
X61018218Y-60646193D01*
X60850795Y-60821392D01*
X60847881Y-60825664D01*
X60847880Y-60825665D01*
X60787217Y-60914594D01*
X60714234Y-61021583D01*
X60612203Y-61241390D01*
X60610821Y-61246372D01*
X60610821Y-61246373D01*
X60602758Y-61275449D01*
X60547442Y-61474910D01*
X60521690Y-61715871D01*
X60535640Y-61957802D01*
X60536777Y-61962848D01*
X60536778Y-61962854D01*
X60558529Y-62059368D01*
X60588916Y-62194207D01*
X60590858Y-62198989D01*
X60590859Y-62198993D01*
X60665747Y-62383419D01*
X60680088Y-62418736D01*
X60806707Y-62625359D01*
X60965372Y-62808527D01*
X60969347Y-62811827D01*
X60969350Y-62811830D01*
X60998245Y-62835819D01*
X61151823Y-62963322D01*
X61204050Y-62993841D01*
X61252773Y-63045478D01*
X61265844Y-63115261D01*
X61239113Y-63181033D01*
X61211944Y-63205374D01*
X61212276Y-63205816D01*
X61167391Y-63239517D01*
X61158938Y-63250842D01*
X61165683Y-63263173D01*
X61987188Y-64084678D01*
X62001132Y-64092292D01*
X62002965Y-64092161D01*
X62009580Y-64087910D01*
X62835413Y-63262077D01*
X62842434Y-63249221D01*
X62834661Y-63238553D01*
X62822105Y-63228636D01*
X62813523Y-63222934D01*
X62798277Y-63214518D01*
X62748306Y-63164085D01*
X62733535Y-63094642D01*
X62758652Y-63028237D01*
X62786002Y-63001632D01*
X62950259Y-62884469D01*
X62950264Y-62884465D01*
X62954471Y-62881464D01*
X63126126Y-62710408D01*
X63267537Y-62513613D01*
X63374908Y-62296365D01*
X63411271Y-62176680D01*
X63443851Y-62069449D01*
X63443852Y-62069443D01*
X63445355Y-62064497D01*
X63476986Y-61824237D01*
X63477476Y-61804200D01*
X63478669Y-61755365D01*
X63478669Y-61755361D01*
X63478751Y-61752000D01*
X63458895Y-61510482D01*
X63399859Y-61275449D01*
X63303228Y-61053215D01*
X63213550Y-60914594D01*
X63174407Y-60854087D01*
X63174405Y-60854084D01*
X63171599Y-60849747D01*
X63008506Y-60670510D01*
X62818328Y-60520317D01*
X62798340Y-60509283D01*
X62728666Y-60470820D01*
X62678695Y-60420387D01*
X62663924Y-60350944D01*
X62689041Y-60284539D01*
X62700465Y-60271417D01*
X66601405Y-56370477D01*
X66663717Y-56336451D01*
X66734532Y-56341516D01*
X66791368Y-56384063D01*
X66816179Y-56450583D01*
X66816500Y-56459572D01*
X66816500Y-57248134D01*
X66823255Y-57310316D01*
X66874385Y-57446705D01*
X66961739Y-57563261D01*
X67078295Y-57650615D01*
X67214684Y-57701745D01*
X67276866Y-57708500D01*
X69173134Y-57708500D01*
X69235316Y-57701745D01*
X69371705Y-57650615D01*
X69488261Y-57563261D01*
X69575615Y-57446705D01*
X69600180Y-57381178D01*
X69642822Y-57324414D01*
X69709383Y-57299714D01*
X69778732Y-57314921D01*
X69798647Y-57328464D01*
X69936785Y-57443148D01*
X69954349Y-57457730D01*
X70069070Y-57524767D01*
X70117794Y-57576405D01*
X70131500Y-57633555D01*
X70131500Y-58120405D01*
X70111498Y-58188526D01*
X70094595Y-58209500D01*
X66007747Y-62296348D01*
X65999461Y-62303888D01*
X65992982Y-62308000D01*
X65987557Y-62313777D01*
X65946357Y-62357651D01*
X65943602Y-62360493D01*
X65923865Y-62380230D01*
X65921385Y-62383427D01*
X65913682Y-62392447D01*
X65883414Y-62424679D01*
X65879595Y-62431625D01*
X65879593Y-62431628D01*
X65873652Y-62442434D01*
X65862801Y-62458953D01*
X65850386Y-62474959D01*
X65847241Y-62482228D01*
X65847238Y-62482232D01*
X65832826Y-62515537D01*
X65827609Y-62526187D01*
X65806305Y-62564940D01*
X65804334Y-62572615D01*
X65804334Y-62572616D01*
X65801267Y-62584562D01*
X65794863Y-62603266D01*
X65786819Y-62621855D01*
X65785580Y-62629678D01*
X65785577Y-62629688D01*
X65779901Y-62665524D01*
X65777495Y-62677144D01*
X65768955Y-62710408D01*
X65766500Y-62719970D01*
X65766500Y-62740224D01*
X65764949Y-62759934D01*
X65761780Y-62779943D01*
X65762526Y-62787835D01*
X65765941Y-62823961D01*
X65766500Y-62835819D01*
X65766500Y-88885406D01*
X65746498Y-88953527D01*
X65729595Y-88974501D01*
X64474500Y-90229595D01*
X64412188Y-90263621D01*
X64385405Y-90266500D01*
X63227116Y-90266500D01*
X63158995Y-90246498D01*
X63112502Y-90192842D01*
X63102398Y-90122568D01*
X63127692Y-90066533D01*
X63126126Y-90065408D01*
X63264519Y-89872813D01*
X63267537Y-89868613D01*
X63374908Y-89651365D01*
X63439416Y-89439046D01*
X63443851Y-89424449D01*
X63443852Y-89424443D01*
X63445355Y-89419497D01*
X63476986Y-89179237D01*
X63478751Y-89107000D01*
X63458895Y-88865482D01*
X63399859Y-88630449D01*
X63303228Y-88408215D01*
X63171599Y-88204747D01*
X63008506Y-88025510D01*
X62818328Y-87875317D01*
X62606174Y-87758201D01*
X62470662Y-87710214D01*
X62382613Y-87679034D01*
X62382610Y-87679033D01*
X62377741Y-87677309D01*
X62372652Y-87676402D01*
X62372650Y-87676402D01*
X62299394Y-87663353D01*
X62139163Y-87634812D01*
X62048635Y-87633706D01*
X61902018Y-87631914D01*
X61902016Y-87631914D01*
X61896848Y-87631851D01*
X61657303Y-87668507D01*
X61426961Y-87743794D01*
X61212009Y-87855691D01*
X61207876Y-87858794D01*
X61207873Y-87858796D01*
X61022353Y-87998088D01*
X61018218Y-88001193D01*
X60850795Y-88176392D01*
X60847881Y-88180664D01*
X60847880Y-88180665D01*
X60828492Y-88209087D01*
X60714234Y-88376583D01*
X60712055Y-88381278D01*
X60703109Y-88400550D01*
X60656285Y-88453917D01*
X60588821Y-88473500D01*
X59071767Y-88473500D01*
X59060584Y-88472973D01*
X59053091Y-88471298D01*
X59045165Y-88471547D01*
X59045164Y-88471547D01*
X58985014Y-88473438D01*
X58981055Y-88473500D01*
X58953144Y-88473500D01*
X58949210Y-88473997D01*
X58949209Y-88473997D01*
X58949144Y-88474005D01*
X58937307Y-88474938D01*
X58905490Y-88475938D01*
X58901029Y-88476078D01*
X58893110Y-88476327D01*
X58875454Y-88481456D01*
X58873658Y-88481978D01*
X58854306Y-88485986D01*
X58847235Y-88486880D01*
X58834203Y-88488526D01*
X58826834Y-88491443D01*
X58826832Y-88491444D01*
X58793097Y-88504800D01*
X58781869Y-88508645D01*
X58739407Y-88520982D01*
X58732585Y-88525016D01*
X58732579Y-88525019D01*
X58721968Y-88531294D01*
X58704218Y-88539990D01*
X58692756Y-88544528D01*
X58692751Y-88544531D01*
X58685383Y-88547448D01*
X58678968Y-88552109D01*
X58649625Y-88573427D01*
X58639707Y-88579943D01*
X58621019Y-88590995D01*
X58601637Y-88602458D01*
X58587313Y-88616782D01*
X58572281Y-88629621D01*
X58555893Y-88641528D01*
X58527712Y-88675593D01*
X58519722Y-88684373D01*
X57799075Y-89405020D01*
X57736763Y-89439046D01*
X57665948Y-89433981D01*
X57609112Y-89391434D01*
X57584301Y-89324914D01*
X57583980Y-89315925D01*
X57583980Y-81756861D01*
X61155582Y-81756861D01*
X61159561Y-81762465D01*
X61356809Y-81877726D01*
X61366096Y-81882176D01*
X61582751Y-81964908D01*
X61592649Y-81967784D01*
X61819908Y-82014020D01*
X61830136Y-82015239D01*
X62061894Y-82023738D01*
X62072180Y-82023271D01*
X62302217Y-81993803D01*
X62312295Y-81991661D01*
X62534426Y-81925018D01*
X62544024Y-81921256D01*
X62752289Y-81819229D01*
X62761134Y-81813956D01*
X62831843Y-81763519D01*
X62840243Y-81752820D01*
X62833256Y-81739666D01*
X62012812Y-80919222D01*
X61998868Y-80911608D01*
X61997035Y-80911739D01*
X61990420Y-80915990D01*
X61162840Y-81743570D01*
X61155582Y-81756861D01*
X57583980Y-81756861D01*
X57583980Y-80793614D01*
X57603982Y-80725493D01*
X57620885Y-80704519D01*
X57809165Y-80516239D01*
X60522489Y-80516239D01*
X60535839Y-80747763D01*
X60537275Y-80757984D01*
X60588259Y-80984215D01*
X60591338Y-80994043D01*
X60678589Y-81208914D01*
X60683242Y-81218125D01*
X60782682Y-81380395D01*
X60793140Y-81389857D01*
X60801916Y-81386074D01*
X61627978Y-80560012D01*
X61634356Y-80548332D01*
X62364408Y-80548332D01*
X62364539Y-80550165D01*
X62368790Y-80556780D01*
X63193022Y-81381012D01*
X63205033Y-81387571D01*
X63216772Y-81378603D01*
X63264087Y-81312758D01*
X63269401Y-81303913D01*
X63372147Y-81096021D01*
X63375946Y-81086426D01*
X63443360Y-80864543D01*
X63445539Y-80854462D01*
X63476047Y-80622734D01*
X63476566Y-80616060D01*
X63478167Y-80550564D01*
X63477973Y-80543847D01*
X63458823Y-80310915D01*
X63457140Y-80300753D01*
X63400642Y-80075822D01*
X63397324Y-80066074D01*
X63304847Y-79853391D01*
X63299980Y-79844314D01*
X63216376Y-79715084D01*
X63205690Y-79705882D01*
X63196125Y-79710285D01*
X62372022Y-80534388D01*
X62364408Y-80548332D01*
X61634356Y-80548332D01*
X61635592Y-80546068D01*
X61635461Y-80544235D01*
X61631210Y-80537620D01*
X60806945Y-79713355D01*
X60795409Y-79707055D01*
X60783126Y-79716679D01*
X60717589Y-79812752D01*
X60712491Y-79821726D01*
X60614853Y-80032068D01*
X60611290Y-80041755D01*
X60549317Y-80265220D01*
X60547386Y-80275341D01*
X60522740Y-80505951D01*
X60522489Y-80516239D01*
X57809165Y-80516239D01*
X58983572Y-79341832D01*
X61157908Y-79341832D01*
X61158039Y-79343665D01*
X61162290Y-79350280D01*
X61987188Y-80175178D01*
X62001132Y-80182792D01*
X62002965Y-80182661D01*
X62009580Y-80178410D01*
X62834478Y-79353512D01*
X62842092Y-79339568D01*
X62841961Y-79337735D01*
X62837710Y-79331120D01*
X62012812Y-78506222D01*
X61998868Y-78498608D01*
X61997035Y-78498739D01*
X61990420Y-78502990D01*
X61165522Y-79327888D01*
X61157908Y-79341832D01*
X58983572Y-79341832D01*
X60307407Y-78017997D01*
X60369719Y-77983971D01*
X60440534Y-77989036D01*
X60497370Y-78031583D01*
X60522293Y-78099839D01*
X60535839Y-78334763D01*
X60537275Y-78344984D01*
X60588259Y-78571215D01*
X60591338Y-78581043D01*
X60678589Y-78795914D01*
X60683242Y-78805125D01*
X60782682Y-78967395D01*
X60793140Y-78976857D01*
X60801916Y-78973074D01*
X61639658Y-78135332D01*
X62364408Y-78135332D01*
X62364539Y-78137165D01*
X62368790Y-78143780D01*
X63193022Y-78968012D01*
X63205033Y-78974571D01*
X63216772Y-78965603D01*
X63264087Y-78899758D01*
X63269401Y-78890913D01*
X63372147Y-78683021D01*
X63375946Y-78673426D01*
X63443360Y-78451543D01*
X63445539Y-78441462D01*
X63476047Y-78209734D01*
X63476566Y-78203060D01*
X63478167Y-78137564D01*
X63477973Y-78130847D01*
X63458823Y-77897915D01*
X63457140Y-77887753D01*
X63400642Y-77662822D01*
X63397324Y-77653074D01*
X63304847Y-77440391D01*
X63299980Y-77431314D01*
X63216376Y-77302084D01*
X63205690Y-77292882D01*
X63196125Y-77297285D01*
X62372022Y-78121388D01*
X62364408Y-78135332D01*
X61639658Y-78135332D01*
X62835413Y-76939577D01*
X62842434Y-76926721D01*
X62834661Y-76916053D01*
X62822105Y-76906136D01*
X62813523Y-76900434D01*
X62798277Y-76892018D01*
X62748306Y-76841585D01*
X62733535Y-76772142D01*
X62758652Y-76705737D01*
X62786002Y-76679132D01*
X62950259Y-76561969D01*
X62950264Y-76561965D01*
X62954471Y-76558964D01*
X63126126Y-76387908D01*
X63267537Y-76191113D01*
X63287857Y-76150000D01*
X63330471Y-76063776D01*
X63374908Y-75973865D01*
X63408426Y-75863545D01*
X63443851Y-75746949D01*
X63443852Y-75746943D01*
X63445355Y-75741997D01*
X63476986Y-75501737D01*
X63478751Y-75429500D01*
X63458895Y-75187982D01*
X63399859Y-74952949D01*
X63303228Y-74730715D01*
X63259703Y-74663436D01*
X63174407Y-74531587D01*
X63174405Y-74531584D01*
X63171599Y-74527247D01*
X63008506Y-74348010D01*
X62818328Y-74197817D01*
X62606174Y-74080701D01*
X62470662Y-74032714D01*
X62382613Y-74001534D01*
X62382610Y-74001533D01*
X62377741Y-73999809D01*
X62372652Y-73998902D01*
X62372650Y-73998902D01*
X62299394Y-73985853D01*
X62139163Y-73957312D01*
X62048635Y-73956206D01*
X61902018Y-73954414D01*
X61902016Y-73954414D01*
X61896848Y-73954351D01*
X61657303Y-73991007D01*
X61426961Y-74066294D01*
X61212009Y-74178191D01*
X61207876Y-74181294D01*
X61207873Y-74181296D01*
X61022353Y-74320588D01*
X61018218Y-74323693D01*
X60850795Y-74498892D01*
X60847881Y-74503164D01*
X60847880Y-74503165D01*
X60828492Y-74531587D01*
X60714234Y-74699083D01*
X60612203Y-74918890D01*
X60610821Y-74923872D01*
X60610821Y-74923873D01*
X60591228Y-74994525D01*
X60547442Y-75152410D01*
X60521690Y-75393371D01*
X60521987Y-75398523D01*
X60521987Y-75398527D01*
X60522932Y-75414910D01*
X60535640Y-75635302D01*
X60536777Y-75640348D01*
X60536778Y-75640354D01*
X60587077Y-75863545D01*
X60582541Y-75934397D01*
X60553255Y-75980341D01*
X57223095Y-79310500D01*
X57160783Y-79344526D01*
X57089967Y-79339461D01*
X57033132Y-79296914D01*
X57008321Y-79230394D01*
X57008000Y-79221405D01*
X57008000Y-68079361D01*
X61155582Y-68079361D01*
X61159561Y-68084965D01*
X61356809Y-68200226D01*
X61366096Y-68204676D01*
X61582751Y-68287408D01*
X61592649Y-68290284D01*
X61819908Y-68336520D01*
X61830136Y-68337739D01*
X62061894Y-68346238D01*
X62072180Y-68345771D01*
X62302217Y-68316303D01*
X62312295Y-68314161D01*
X62534426Y-68247518D01*
X62544024Y-68243756D01*
X62752289Y-68141729D01*
X62761134Y-68136456D01*
X62831843Y-68086019D01*
X62840243Y-68075320D01*
X62833256Y-68062166D01*
X62012812Y-67241722D01*
X61998868Y-67234108D01*
X61997035Y-67234239D01*
X61990420Y-67238490D01*
X61162840Y-68066070D01*
X61155582Y-68079361D01*
X57008000Y-68079361D01*
X57008000Y-66838739D01*
X60522489Y-66838739D01*
X60535839Y-67070263D01*
X60537275Y-67080484D01*
X60588259Y-67306715D01*
X60591338Y-67316543D01*
X60678589Y-67531414D01*
X60683242Y-67540625D01*
X60782682Y-67702895D01*
X60793140Y-67712357D01*
X60801916Y-67708574D01*
X61627978Y-66882512D01*
X61634356Y-66870832D01*
X62364408Y-66870832D01*
X62364539Y-66872665D01*
X62368790Y-66879280D01*
X63193022Y-67703512D01*
X63205033Y-67710071D01*
X63216772Y-67701103D01*
X63264087Y-67635258D01*
X63269401Y-67626413D01*
X63372147Y-67418521D01*
X63375946Y-67408926D01*
X63443360Y-67187043D01*
X63445539Y-67176962D01*
X63476047Y-66945234D01*
X63476566Y-66938560D01*
X63478167Y-66873064D01*
X63477973Y-66866347D01*
X63458823Y-66633415D01*
X63457140Y-66623253D01*
X63400642Y-66398322D01*
X63397324Y-66388574D01*
X63304847Y-66175891D01*
X63299980Y-66166814D01*
X63216376Y-66037584D01*
X63205690Y-66028382D01*
X63196125Y-66032785D01*
X62372022Y-66856888D01*
X62364408Y-66870832D01*
X61634356Y-66870832D01*
X61635592Y-66868568D01*
X61635461Y-66866735D01*
X61631210Y-66860120D01*
X60806945Y-66035855D01*
X60795409Y-66029555D01*
X60783126Y-66039179D01*
X60717589Y-66135252D01*
X60712491Y-66144226D01*
X60614853Y-66354568D01*
X60611290Y-66364255D01*
X60549317Y-66587720D01*
X60547386Y-66597841D01*
X60522740Y-66828451D01*
X60522489Y-66838739D01*
X57008000Y-66838739D01*
X57008000Y-65664332D01*
X61157908Y-65664332D01*
X61158039Y-65666165D01*
X61162290Y-65672780D01*
X61987188Y-66497678D01*
X62001132Y-66505292D01*
X62002965Y-66505161D01*
X62009580Y-66500910D01*
X62834478Y-65676012D01*
X62842092Y-65662068D01*
X62841961Y-65660235D01*
X62837710Y-65653620D01*
X62012812Y-64828722D01*
X61998868Y-64821108D01*
X61997035Y-64821239D01*
X61990420Y-64825490D01*
X61165522Y-65650388D01*
X61157908Y-65664332D01*
X57008000Y-65664332D01*
X57008000Y-64425739D01*
X60522489Y-64425739D01*
X60535839Y-64657263D01*
X60537275Y-64667484D01*
X60588259Y-64893715D01*
X60591338Y-64903543D01*
X60678589Y-65118414D01*
X60683242Y-65127625D01*
X60782682Y-65289895D01*
X60793140Y-65299357D01*
X60801916Y-65295574D01*
X61627978Y-64469512D01*
X61634356Y-64457832D01*
X62364408Y-64457832D01*
X62364539Y-64459665D01*
X62368790Y-64466280D01*
X63193022Y-65290512D01*
X63205033Y-65297071D01*
X63216772Y-65288103D01*
X63264087Y-65222258D01*
X63269401Y-65213413D01*
X63372147Y-65005521D01*
X63375946Y-64995926D01*
X63443360Y-64774043D01*
X63445539Y-64763962D01*
X63476047Y-64532234D01*
X63476566Y-64525560D01*
X63478167Y-64460064D01*
X63477973Y-64453347D01*
X63458823Y-64220415D01*
X63457140Y-64210253D01*
X63400642Y-63985322D01*
X63397324Y-63975574D01*
X63304847Y-63762891D01*
X63299980Y-63753814D01*
X63216376Y-63624584D01*
X63205690Y-63615382D01*
X63196125Y-63619785D01*
X62372022Y-64443888D01*
X62364408Y-64457832D01*
X61634356Y-64457832D01*
X61635592Y-64455568D01*
X61635461Y-64453735D01*
X61631210Y-64447120D01*
X60806945Y-63622855D01*
X60795409Y-63616555D01*
X60783126Y-63626179D01*
X60717589Y-63722252D01*
X60712491Y-63731226D01*
X60614853Y-63941568D01*
X60611290Y-63951255D01*
X60549317Y-64174720D01*
X60547386Y-64184841D01*
X60522740Y-64415451D01*
X60522489Y-64425739D01*
X57008000Y-64425739D01*
X57008000Y-54401861D01*
X61155582Y-54401861D01*
X61159561Y-54407465D01*
X61356809Y-54522726D01*
X61366096Y-54527176D01*
X61582751Y-54609908D01*
X61592649Y-54612784D01*
X61819908Y-54659020D01*
X61830136Y-54660239D01*
X62061894Y-54668738D01*
X62072180Y-54668271D01*
X62302217Y-54638803D01*
X62312295Y-54636661D01*
X62534426Y-54570018D01*
X62544024Y-54566256D01*
X62752289Y-54464229D01*
X62761134Y-54458956D01*
X62831843Y-54408519D01*
X62840243Y-54397820D01*
X62833256Y-54384666D01*
X62012812Y-53564222D01*
X61998868Y-53556608D01*
X61997035Y-53556739D01*
X61990420Y-53560990D01*
X61162840Y-54388570D01*
X61155582Y-54401861D01*
X57008000Y-54401861D01*
X57008000Y-53161239D01*
X60522489Y-53161239D01*
X60535839Y-53392763D01*
X60537275Y-53402984D01*
X60588259Y-53629215D01*
X60591338Y-53639043D01*
X60678589Y-53853914D01*
X60683242Y-53863125D01*
X60782682Y-54025395D01*
X60793140Y-54034857D01*
X60801916Y-54031074D01*
X61627978Y-53205012D01*
X61634356Y-53193332D01*
X62364408Y-53193332D01*
X62364539Y-53195165D01*
X62368790Y-53201780D01*
X63193022Y-54026012D01*
X63205033Y-54032571D01*
X63216772Y-54023603D01*
X63264087Y-53957758D01*
X63269401Y-53948913D01*
X63372147Y-53741021D01*
X63375946Y-53731426D01*
X63443360Y-53509543D01*
X63445539Y-53499462D01*
X63476047Y-53267734D01*
X63476566Y-53261060D01*
X63478167Y-53195564D01*
X63477973Y-53188847D01*
X63458823Y-52955915D01*
X63457140Y-52945753D01*
X63400642Y-52720822D01*
X63397324Y-52711074D01*
X63304847Y-52498391D01*
X63299980Y-52489314D01*
X63216376Y-52360084D01*
X63205690Y-52350882D01*
X63196125Y-52355285D01*
X62372022Y-53179388D01*
X62364408Y-53193332D01*
X61634356Y-53193332D01*
X61635592Y-53191068D01*
X61635461Y-53189235D01*
X61631210Y-53182620D01*
X60806945Y-52358355D01*
X60795409Y-52352055D01*
X60783126Y-52361679D01*
X60717589Y-52457752D01*
X60712491Y-52466726D01*
X60614853Y-52677068D01*
X60611290Y-52686755D01*
X60549317Y-52910220D01*
X60547386Y-52920341D01*
X60522740Y-53150951D01*
X60522489Y-53161239D01*
X57008000Y-53161239D01*
X57008000Y-51986832D01*
X61157908Y-51986832D01*
X61158039Y-51988665D01*
X61162290Y-51995280D01*
X61987188Y-52820178D01*
X62001132Y-52827792D01*
X62002965Y-52827661D01*
X62009580Y-52823410D01*
X62834478Y-51998512D01*
X62842092Y-51984568D01*
X62841961Y-51982735D01*
X62837710Y-51976120D01*
X62012812Y-51151222D01*
X61998868Y-51143608D01*
X61997035Y-51143739D01*
X61990420Y-51147990D01*
X61165522Y-51972888D01*
X61157908Y-51986832D01*
X57008000Y-51986832D01*
X57008000Y-50748239D01*
X60522489Y-50748239D01*
X60535839Y-50979763D01*
X60537275Y-50989984D01*
X60588259Y-51216215D01*
X60591338Y-51226043D01*
X60678589Y-51440914D01*
X60683242Y-51450125D01*
X60782682Y-51612395D01*
X60793140Y-51621857D01*
X60801916Y-51618074D01*
X61627978Y-50792012D01*
X61634356Y-50780332D01*
X62364408Y-50780332D01*
X62364539Y-50782165D01*
X62368790Y-50788780D01*
X63193022Y-51613012D01*
X63205033Y-51619571D01*
X63216772Y-51610603D01*
X63264087Y-51544758D01*
X63269401Y-51535913D01*
X63372147Y-51328021D01*
X63375946Y-51318426D01*
X63443360Y-51096543D01*
X63445539Y-51086462D01*
X63476047Y-50854734D01*
X63476566Y-50848060D01*
X63478167Y-50782564D01*
X63477973Y-50775847D01*
X63458823Y-50542915D01*
X63457140Y-50532753D01*
X63400642Y-50307822D01*
X63397324Y-50298074D01*
X63304847Y-50085391D01*
X63299980Y-50076314D01*
X63216376Y-49947084D01*
X63205690Y-49937882D01*
X63196125Y-49942285D01*
X62372022Y-50766388D01*
X62364408Y-50780332D01*
X61634356Y-50780332D01*
X61635592Y-50778068D01*
X61635461Y-50776235D01*
X61631210Y-50769620D01*
X60806945Y-49945355D01*
X60795409Y-49939055D01*
X60783126Y-49948679D01*
X60717589Y-50044752D01*
X60712491Y-50053726D01*
X60614853Y-50264068D01*
X60611290Y-50273755D01*
X60549317Y-50497220D01*
X60547386Y-50507341D01*
X60522740Y-50737951D01*
X60522489Y-50748239D01*
X57008000Y-50748239D01*
X57008000Y-49573342D01*
X61158938Y-49573342D01*
X61165683Y-49585673D01*
X61987188Y-50407178D01*
X62001132Y-50414792D01*
X62002965Y-50414661D01*
X62009580Y-50410410D01*
X62835413Y-49584577D01*
X62842434Y-49571721D01*
X62834661Y-49561053D01*
X62822105Y-49551136D01*
X62813532Y-49545440D01*
X62610492Y-49433356D01*
X62601095Y-49429133D01*
X62382487Y-49351720D01*
X62372516Y-49349086D01*
X62144206Y-49308419D01*
X62133952Y-49307449D01*
X61902053Y-49304615D01*
X61891768Y-49305335D01*
X61662531Y-49340413D01*
X61652504Y-49342802D01*
X61432073Y-49414850D01*
X61422564Y-49418847D01*
X61216865Y-49525927D01*
X61208140Y-49531421D01*
X61167391Y-49562017D01*
X61158938Y-49573342D01*
X57008000Y-49573342D01*
X57008000Y-47415871D01*
X60491690Y-47415871D01*
X60491987Y-47421023D01*
X60491987Y-47421027D01*
X60497745Y-47520885D01*
X60505640Y-47657802D01*
X60506777Y-47662848D01*
X60506778Y-47662854D01*
X60517307Y-47709574D01*
X60558916Y-47894207D01*
X60560858Y-47898989D01*
X60560859Y-47898993D01*
X60621419Y-48048133D01*
X60650088Y-48118736D01*
X60776707Y-48325359D01*
X60935372Y-48508527D01*
X60939347Y-48511827D01*
X60939350Y-48511830D01*
X61001638Y-48563543D01*
X61121823Y-48663322D01*
X61331053Y-48785586D01*
X61335873Y-48787426D01*
X61335878Y-48787429D01*
X61485995Y-48844752D01*
X61557442Y-48872035D01*
X61562510Y-48873066D01*
X61562513Y-48873067D01*
X61679780Y-48896925D01*
X61794910Y-48920349D01*
X61800085Y-48920539D01*
X61800087Y-48920539D01*
X62031917Y-48929040D01*
X62031921Y-48929040D01*
X62037081Y-48929229D01*
X62042201Y-48928573D01*
X62042203Y-48928573D01*
X62117315Y-48918951D01*
X62277450Y-48898437D01*
X62282401Y-48896952D01*
X62282404Y-48896951D01*
X62504612Y-48830285D01*
X62504611Y-48830285D01*
X62509562Y-48828800D01*
X62646277Y-48761824D01*
X62722533Y-48724467D01*
X62722538Y-48724464D01*
X62727184Y-48722188D01*
X62731394Y-48719185D01*
X62731399Y-48719182D01*
X62920259Y-48584469D01*
X62920264Y-48584465D01*
X62924471Y-48581464D01*
X63096126Y-48410408D01*
X63237537Y-48213613D01*
X63242811Y-48202943D01*
X63317062Y-48052706D01*
X63344908Y-47996365D01*
X63401588Y-47809810D01*
X63413851Y-47769449D01*
X63413852Y-47769443D01*
X63415355Y-47764497D01*
X63446986Y-47524237D01*
X63447068Y-47520885D01*
X63448669Y-47455365D01*
X63448669Y-47455361D01*
X63448751Y-47452000D01*
X63428895Y-47210482D01*
X63397643Y-47086062D01*
X71778493Y-47086062D01*
X71787789Y-47098077D01*
X71838994Y-47133931D01*
X71848489Y-47139414D01*
X72045947Y-47231490D01*
X72056239Y-47235236D01*
X72266688Y-47291625D01*
X72277481Y-47293528D01*
X72494525Y-47312517D01*
X72505475Y-47312517D01*
X72722519Y-47293528D01*
X72733312Y-47291625D01*
X72943761Y-47235236D01*
X72954053Y-47231490D01*
X73151511Y-47139414D01*
X73161006Y-47133931D01*
X73213048Y-47097491D01*
X73221424Y-47087012D01*
X73214356Y-47073566D01*
X72512812Y-46372022D01*
X72498868Y-46364408D01*
X72497035Y-46364539D01*
X72490420Y-46368790D01*
X71784923Y-47074287D01*
X71778493Y-47086062D01*
X63397643Y-47086062D01*
X63369859Y-46975449D01*
X63273228Y-46753215D01*
X63214664Y-46662689D01*
X63144407Y-46554087D01*
X63144405Y-46554084D01*
X63141599Y-46549747D01*
X62978506Y-46370510D01*
X62788328Y-46220317D01*
X62576174Y-46103201D01*
X62440662Y-46055214D01*
X62352613Y-46024034D01*
X62352610Y-46024033D01*
X62347741Y-46022309D01*
X62342652Y-46021402D01*
X62342650Y-46021402D01*
X62253235Y-46005475D01*
X71187483Y-46005475D01*
X71206472Y-46222519D01*
X71208375Y-46233312D01*
X71264764Y-46443761D01*
X71268510Y-46454053D01*
X71360586Y-46651511D01*
X71366069Y-46661006D01*
X71402509Y-46713048D01*
X71412988Y-46721424D01*
X71426434Y-46714356D01*
X72410905Y-45729885D01*
X72473217Y-45695859D01*
X72544032Y-45700924D01*
X72589095Y-45729885D01*
X73574287Y-46715077D01*
X73586062Y-46721507D01*
X73598077Y-46712211D01*
X73633931Y-46661006D01*
X73639414Y-46651511D01*
X73731490Y-46454053D01*
X73735236Y-46443761D01*
X73791625Y-46233312D01*
X73793528Y-46222519D01*
X73812517Y-46005475D01*
X73812517Y-45994525D01*
X73793528Y-45777481D01*
X73791625Y-45766688D01*
X73735236Y-45556239D01*
X73731490Y-45545947D01*
X73639414Y-45348489D01*
X73633929Y-45338989D01*
X73633299Y-45338090D01*
X73633144Y-45337630D01*
X73631182Y-45334232D01*
X73631865Y-45333838D01*
X73610612Y-45270816D01*
X73627898Y-45201956D01*
X73650934Y-45176197D01*
X73649730Y-45174993D01*
X73656081Y-45168642D01*
X73663261Y-45163261D01*
X73668642Y-45156081D01*
X73668645Y-45156078D01*
X73745229Y-45053891D01*
X73750615Y-45046705D01*
X73801745Y-44910316D01*
X73808500Y-44848134D01*
X73808500Y-43445230D01*
X76185325Y-43445230D01*
X76203172Y-43671999D01*
X76204715Y-43681746D01*
X76257817Y-43902927D01*
X76260866Y-43912312D01*
X76347913Y-44122463D01*
X76352395Y-44131258D01*
X76455032Y-44298745D01*
X76465490Y-44308207D01*
X76474266Y-44304424D01*
X77325578Y-43453112D01*
X77333192Y-43439168D01*
X77333061Y-43437335D01*
X77328810Y-43430720D01*
X76477310Y-42579220D01*
X76464930Y-42572460D01*
X76457280Y-42578187D01*
X76352395Y-42749342D01*
X76347913Y-42758137D01*
X76260866Y-42968288D01*
X76257817Y-42977673D01*
X76204715Y-43198854D01*
X76203172Y-43208601D01*
X76185325Y-43435370D01*
X76185325Y-43445230D01*
X73808500Y-43445230D01*
X73808500Y-43151866D01*
X73801745Y-43089684D01*
X73750615Y-42953295D01*
X73663261Y-42836739D01*
X73546705Y-42749385D01*
X73410316Y-42698255D01*
X73348134Y-42691500D01*
X71651866Y-42691500D01*
X71589684Y-42698255D01*
X71453295Y-42749385D01*
X71336739Y-42836739D01*
X71249385Y-42953295D01*
X71198255Y-43089684D01*
X71191500Y-43151866D01*
X71191500Y-44848134D01*
X71198255Y-44910316D01*
X71249385Y-45046705D01*
X71254771Y-45053891D01*
X71331355Y-45156078D01*
X71331358Y-45156081D01*
X71336739Y-45163261D01*
X71343919Y-45168642D01*
X71350270Y-45174993D01*
X71348128Y-45177135D01*
X71381564Y-45221846D01*
X71386594Y-45292664D01*
X71368477Y-45334035D01*
X71368818Y-45334232D01*
X71367048Y-45337298D01*
X71366701Y-45338090D01*
X71366071Y-45338989D01*
X71360586Y-45348489D01*
X71268510Y-45545947D01*
X71264764Y-45556239D01*
X71208375Y-45766688D01*
X71206472Y-45777481D01*
X71187483Y-45994525D01*
X71187483Y-46005475D01*
X62253235Y-46005475D01*
X62109163Y-45979812D01*
X62018635Y-45978706D01*
X61872018Y-45976914D01*
X61872016Y-45976914D01*
X61866848Y-45976851D01*
X61627303Y-46013507D01*
X61396961Y-46088794D01*
X61182009Y-46200691D01*
X61177876Y-46203794D01*
X61177873Y-46203796D01*
X61126841Y-46242112D01*
X60988218Y-46346193D01*
X60820795Y-46521392D01*
X60817881Y-46525664D01*
X60817880Y-46525665D01*
X60798492Y-46554087D01*
X60684234Y-46721583D01*
X60582203Y-46941390D01*
X60580821Y-46946372D01*
X60580821Y-46946373D01*
X60528807Y-47133931D01*
X60517442Y-47174910D01*
X60516893Y-47180047D01*
X60496096Y-47374646D01*
X60491690Y-47415871D01*
X57008000Y-47415871D01*
X57008000Y-42208190D01*
X76829693Y-42208190D01*
X76833476Y-42216966D01*
X77684788Y-43068278D01*
X77698732Y-43075892D01*
X77700565Y-43075761D01*
X77707180Y-43071510D01*
X78558680Y-42220010D01*
X78565440Y-42207630D01*
X78559713Y-42199980D01*
X78388558Y-42095095D01*
X78379763Y-42090613D01*
X78169612Y-42003566D01*
X78160227Y-42000517D01*
X77939046Y-41947415D01*
X77929299Y-41945872D01*
X77702530Y-41928025D01*
X77692670Y-41928025D01*
X77465901Y-41945872D01*
X77456154Y-41947415D01*
X77234973Y-42000517D01*
X77225588Y-42003566D01*
X77015437Y-42090613D01*
X77006642Y-42095095D01*
X76839155Y-42197732D01*
X76829693Y-42208190D01*
X57008000Y-42208190D01*
X57008000Y-40101861D01*
X61125582Y-40101861D01*
X61129561Y-40107465D01*
X61326809Y-40222726D01*
X61336096Y-40227176D01*
X61552751Y-40309908D01*
X61562649Y-40312784D01*
X61789908Y-40359020D01*
X61800136Y-40360239D01*
X62031894Y-40368738D01*
X62042180Y-40368271D01*
X62272217Y-40338803D01*
X62282295Y-40336661D01*
X62504426Y-40270018D01*
X62514024Y-40266256D01*
X62722289Y-40164229D01*
X62731134Y-40158956D01*
X62801843Y-40108519D01*
X62810243Y-40097820D01*
X62803256Y-40084666D01*
X62585285Y-39866695D01*
X70877251Y-39866695D01*
X70890110Y-40089715D01*
X70891247Y-40094761D01*
X70891248Y-40094767D01*
X70905606Y-40158475D01*
X70939222Y-40307639D01*
X71023266Y-40514616D01*
X71050686Y-40559362D01*
X71137104Y-40700383D01*
X71139987Y-40705088D01*
X71286250Y-40873938D01*
X71458126Y-41016632D01*
X71651000Y-41129338D01*
X71859692Y-41209030D01*
X71864760Y-41210061D01*
X71864763Y-41210062D01*
X71959862Y-41229410D01*
X72078597Y-41253567D01*
X72083772Y-41253757D01*
X72083774Y-41253757D01*
X72296673Y-41261564D01*
X72296677Y-41261564D01*
X72301837Y-41261753D01*
X72306957Y-41261097D01*
X72306959Y-41261097D01*
X72518288Y-41234025D01*
X72518289Y-41234025D01*
X72523416Y-41233368D01*
X72528366Y-41231883D01*
X72732429Y-41170661D01*
X72732434Y-41170659D01*
X72737384Y-41169174D01*
X72937994Y-41070896D01*
X73119860Y-40941173D01*
X73278096Y-40783489D01*
X73337594Y-40700689D01*
X73408453Y-40602077D01*
X73409640Y-40602930D01*
X73456960Y-40559362D01*
X73526897Y-40547145D01*
X73592338Y-40574678D01*
X73620166Y-40606511D01*
X73677694Y-40700388D01*
X73683777Y-40708699D01*
X73823213Y-40869667D01*
X73830580Y-40876883D01*
X73994434Y-41012916D01*
X74002881Y-41018831D01*
X74186756Y-41126279D01*
X74196042Y-41130729D01*
X74395001Y-41206703D01*
X74404899Y-41209579D01*
X74508250Y-41230606D01*
X74522299Y-41229410D01*
X74526000Y-41219065D01*
X74526000Y-41218517D01*
X75034000Y-41218517D01*
X75038064Y-41232359D01*
X75051478Y-41234393D01*
X75058184Y-41233534D01*
X75068262Y-41231392D01*
X75272255Y-41170191D01*
X75281842Y-41166433D01*
X75473095Y-41072739D01*
X75481945Y-41067464D01*
X75655328Y-40943792D01*
X75663200Y-40937139D01*
X75814052Y-40786812D01*
X75820730Y-40778965D01*
X75948022Y-40601819D01*
X75949147Y-40602627D01*
X75996669Y-40558876D01*
X76066607Y-40546661D01*
X76132046Y-40574197D01*
X76159870Y-40606028D01*
X76217690Y-40700383D01*
X76223777Y-40708699D01*
X76363213Y-40869667D01*
X76370580Y-40876883D01*
X76534434Y-41012916D01*
X76542881Y-41018831D01*
X76726756Y-41126279D01*
X76736042Y-41130729D01*
X76935001Y-41206703D01*
X76944899Y-41209579D01*
X77048250Y-41230606D01*
X77062299Y-41229410D01*
X77066000Y-41219065D01*
X77066000Y-41218517D01*
X77574000Y-41218517D01*
X77578064Y-41232359D01*
X77591478Y-41234393D01*
X77598184Y-41233534D01*
X77608262Y-41231392D01*
X77812255Y-41170191D01*
X77821842Y-41166433D01*
X78013095Y-41072739D01*
X78021945Y-41067464D01*
X78195328Y-40943792D01*
X78203200Y-40937139D01*
X78354052Y-40786812D01*
X78360730Y-40778965D01*
X78488022Y-40601819D01*
X78489147Y-40602627D01*
X78536669Y-40558876D01*
X78606607Y-40546661D01*
X78672046Y-40574197D01*
X78699870Y-40606028D01*
X78757690Y-40700383D01*
X78763777Y-40708699D01*
X78903213Y-40869667D01*
X78910580Y-40876883D01*
X79074434Y-41012916D01*
X79082881Y-41018831D01*
X79266756Y-41126279D01*
X79276042Y-41130729D01*
X79475001Y-41206703D01*
X79484899Y-41209579D01*
X79588250Y-41230606D01*
X79602299Y-41229410D01*
X79606000Y-41219065D01*
X79606000Y-41218517D01*
X80114000Y-41218517D01*
X80118064Y-41232359D01*
X80131478Y-41234393D01*
X80138184Y-41233534D01*
X80148262Y-41231392D01*
X80352255Y-41170191D01*
X80361842Y-41166433D01*
X80553095Y-41072739D01*
X80561945Y-41067464D01*
X80735328Y-40943792D01*
X80743193Y-40937145D01*
X80847897Y-40832805D01*
X80910268Y-40798889D01*
X80981075Y-40804077D01*
X81037837Y-40846723D01*
X81054819Y-40877826D01*
X81099385Y-40996705D01*
X81186739Y-41113261D01*
X81303295Y-41200615D01*
X81439684Y-41251745D01*
X81501866Y-41258500D01*
X83298134Y-41258500D01*
X83360316Y-41251745D01*
X83496705Y-41200615D01*
X83613261Y-41113261D01*
X83700615Y-40996705D01*
X83751745Y-40860316D01*
X83758500Y-40798134D01*
X83758500Y-39001866D01*
X83751745Y-38939684D01*
X83700615Y-38803295D01*
X83613261Y-38686739D01*
X83496705Y-38599385D01*
X83421362Y-38571140D01*
X83378203Y-38554960D01*
X83321439Y-38512318D01*
X83296739Y-38445756D01*
X83311947Y-38376408D01*
X83333493Y-38347727D01*
X83434435Y-38247137D01*
X83438096Y-38243489D01*
X83477025Y-38189314D01*
X83565435Y-38066277D01*
X83568453Y-38062077D01*
X83581995Y-38034678D01*
X83665136Y-37866453D01*
X83665137Y-37866451D01*
X83667430Y-37861811D01*
X83721838Y-37682735D01*
X83730865Y-37653023D01*
X83730865Y-37653021D01*
X83732370Y-37648069D01*
X83761529Y-37426590D01*
X83763156Y-37360000D01*
X83744852Y-37137361D01*
X83690431Y-36920702D01*
X83601354Y-36715840D01*
X83480014Y-36528277D01*
X83329670Y-36363051D01*
X83325619Y-36359852D01*
X83325615Y-36359848D01*
X83158414Y-36227800D01*
X83158410Y-36227798D01*
X83154359Y-36224598D01*
X83118028Y-36204542D01*
X83064619Y-36175059D01*
X82958789Y-36116638D01*
X82953920Y-36114914D01*
X82953916Y-36114912D01*
X82753087Y-36043795D01*
X82753083Y-36043794D01*
X82748212Y-36042069D01*
X82743119Y-36041162D01*
X82743116Y-36041161D01*
X82533373Y-36003800D01*
X82533367Y-36003799D01*
X82528284Y-36002894D01*
X82454452Y-36001992D01*
X82310081Y-36000228D01*
X82310079Y-36000228D01*
X82304911Y-36000165D01*
X82084091Y-36033955D01*
X81871756Y-36103357D01*
X81673607Y-36206507D01*
X81669474Y-36209610D01*
X81669471Y-36209612D01*
X81625116Y-36242915D01*
X81494965Y-36340635D01*
X81340629Y-36502138D01*
X81337715Y-36506410D01*
X81337714Y-36506411D01*
X81325404Y-36524457D01*
X81234337Y-36657957D01*
X81232898Y-36660066D01*
X81177987Y-36705069D01*
X81107462Y-36713240D01*
X81043715Y-36681986D01*
X81023018Y-36657502D01*
X80942426Y-36532926D01*
X80936136Y-36524757D01*
X80792806Y-36367240D01*
X80785273Y-36360215D01*
X80618139Y-36228222D01*
X80609552Y-36222517D01*
X80423117Y-36119599D01*
X80413705Y-36115369D01*
X80212959Y-36044280D01*
X80202988Y-36041646D01*
X80131837Y-36028972D01*
X80118540Y-36030432D01*
X80114000Y-36044989D01*
X80114000Y-41218517D01*
X79606000Y-41218517D01*
X79606000Y-40172115D01*
X79601525Y-40156876D01*
X79600135Y-40155671D01*
X79592452Y-40154000D01*
X77592115Y-40154000D01*
X77576876Y-40158475D01*
X77575671Y-40159865D01*
X77574000Y-40167548D01*
X77574000Y-41218517D01*
X77066000Y-41218517D01*
X77066000Y-40172115D01*
X77061525Y-40156876D01*
X77060135Y-40155671D01*
X77052452Y-40154000D01*
X75052115Y-40154000D01*
X75036876Y-40158475D01*
X75035671Y-40159865D01*
X75034000Y-40167548D01*
X75034000Y-41218517D01*
X74526000Y-41218517D01*
X74526000Y-39627885D01*
X75034000Y-39627885D01*
X75038475Y-39643124D01*
X75039865Y-39644329D01*
X75047548Y-39646000D01*
X77047885Y-39646000D01*
X77063124Y-39641525D01*
X77064329Y-39640135D01*
X77066000Y-39632452D01*
X77066000Y-39627885D01*
X77574000Y-39627885D01*
X77578475Y-39643124D01*
X77579865Y-39644329D01*
X77587548Y-39646000D01*
X79587885Y-39646000D01*
X79603124Y-39641525D01*
X79604329Y-39640135D01*
X79606000Y-39632452D01*
X79606000Y-37632115D01*
X79601525Y-37616876D01*
X79600135Y-37615671D01*
X79592452Y-37614000D01*
X77592115Y-37614000D01*
X77576876Y-37618475D01*
X77575671Y-37619865D01*
X77574000Y-37627548D01*
X77574000Y-39627885D01*
X77066000Y-39627885D01*
X77066000Y-37632115D01*
X77061525Y-37616876D01*
X77060135Y-37615671D01*
X77052452Y-37614000D01*
X75052115Y-37614000D01*
X75036876Y-37618475D01*
X75035671Y-37619865D01*
X75034000Y-37627548D01*
X75034000Y-39627885D01*
X74526000Y-39627885D01*
X74526000Y-37087885D01*
X75034000Y-37087885D01*
X75038475Y-37103124D01*
X75039865Y-37104329D01*
X75047548Y-37106000D01*
X77047885Y-37106000D01*
X77063124Y-37101525D01*
X77064329Y-37100135D01*
X77066000Y-37092452D01*
X77066000Y-37087885D01*
X77574000Y-37087885D01*
X77578475Y-37103124D01*
X77579865Y-37104329D01*
X77587548Y-37106000D01*
X79587885Y-37106000D01*
X79603124Y-37101525D01*
X79604329Y-37100135D01*
X79606000Y-37092452D01*
X79606000Y-36043102D01*
X79602082Y-36029758D01*
X79587806Y-36027771D01*
X79549324Y-36033660D01*
X79539288Y-36036051D01*
X79336868Y-36102212D01*
X79327359Y-36106209D01*
X79138463Y-36204542D01*
X79129738Y-36210036D01*
X78959433Y-36337905D01*
X78951726Y-36344748D01*
X78804590Y-36498717D01*
X78798104Y-36506727D01*
X78693193Y-36660521D01*
X78638282Y-36705524D01*
X78567757Y-36713695D01*
X78504010Y-36682441D01*
X78483313Y-36657957D01*
X78402427Y-36532926D01*
X78396136Y-36524757D01*
X78252806Y-36367240D01*
X78245273Y-36360215D01*
X78078139Y-36228222D01*
X78069552Y-36222517D01*
X77883117Y-36119599D01*
X77873705Y-36115369D01*
X77672959Y-36044280D01*
X77662988Y-36041646D01*
X77591837Y-36028972D01*
X77578540Y-36030432D01*
X77574000Y-36044989D01*
X77574000Y-37087885D01*
X77066000Y-37087885D01*
X77066000Y-36043102D01*
X77062082Y-36029758D01*
X77047806Y-36027771D01*
X77009324Y-36033660D01*
X76999288Y-36036051D01*
X76796868Y-36102212D01*
X76787359Y-36106209D01*
X76598463Y-36204542D01*
X76589738Y-36210036D01*
X76419433Y-36337905D01*
X76411726Y-36344748D01*
X76264590Y-36498717D01*
X76258104Y-36506727D01*
X76153193Y-36660521D01*
X76098282Y-36705524D01*
X76027757Y-36713695D01*
X75964010Y-36682441D01*
X75943313Y-36657957D01*
X75862427Y-36532926D01*
X75856136Y-36524757D01*
X75712806Y-36367240D01*
X75705273Y-36360215D01*
X75538139Y-36228222D01*
X75529552Y-36222517D01*
X75343117Y-36119599D01*
X75333705Y-36115369D01*
X75132959Y-36044280D01*
X75122988Y-36041646D01*
X75051837Y-36028972D01*
X75038540Y-36030432D01*
X75034000Y-36044989D01*
X75034000Y-37087885D01*
X74526000Y-37087885D01*
X74526000Y-36043102D01*
X74522082Y-36029758D01*
X74507806Y-36027771D01*
X74469324Y-36033660D01*
X74459288Y-36036051D01*
X74256868Y-36102212D01*
X74247359Y-36106209D01*
X74058463Y-36204542D01*
X74049738Y-36210036D01*
X73879433Y-36337905D01*
X73871726Y-36344748D01*
X73724590Y-36498717D01*
X73718109Y-36506722D01*
X73613498Y-36660074D01*
X73558587Y-36705076D01*
X73488062Y-36713247D01*
X73424315Y-36681993D01*
X73403618Y-36657509D01*
X73322822Y-36532617D01*
X73322820Y-36532614D01*
X73320014Y-36528277D01*
X73169670Y-36363051D01*
X73165619Y-36359852D01*
X73165615Y-36359848D01*
X72998414Y-36227800D01*
X72998410Y-36227798D01*
X72994359Y-36224598D01*
X72958028Y-36204542D01*
X72904619Y-36175059D01*
X72798789Y-36116638D01*
X72793920Y-36114914D01*
X72793916Y-36114912D01*
X72593087Y-36043795D01*
X72593083Y-36043794D01*
X72588212Y-36042069D01*
X72583119Y-36041162D01*
X72583116Y-36041161D01*
X72373373Y-36003800D01*
X72373367Y-36003799D01*
X72368284Y-36002894D01*
X72294452Y-36001992D01*
X72150081Y-36000228D01*
X72150079Y-36000228D01*
X72144911Y-36000165D01*
X71924091Y-36033955D01*
X71711756Y-36103357D01*
X71513607Y-36206507D01*
X71509474Y-36209610D01*
X71509471Y-36209612D01*
X71465116Y-36242915D01*
X71334965Y-36340635D01*
X71180629Y-36502138D01*
X71177715Y-36506410D01*
X71177714Y-36506411D01*
X71165404Y-36524457D01*
X71054743Y-36686680D01*
X71039003Y-36720590D01*
X70979866Y-36847990D01*
X70960688Y-36889305D01*
X70900989Y-37104570D01*
X70877251Y-37326695D01*
X70877548Y-37331848D01*
X70877548Y-37331851D01*
X70883011Y-37426590D01*
X70890110Y-37549715D01*
X70891247Y-37554761D01*
X70891248Y-37554767D01*
X70905606Y-37618475D01*
X70939222Y-37767639D01*
X71023266Y-37974616D01*
X71050686Y-38019362D01*
X71137291Y-38160688D01*
X71139987Y-38165088D01*
X71286250Y-38333938D01*
X71458126Y-38476632D01*
X71519196Y-38512318D01*
X71531445Y-38519476D01*
X71580169Y-38571114D01*
X71593240Y-38640897D01*
X71566509Y-38706669D01*
X71526055Y-38740027D01*
X71513607Y-38746507D01*
X71509474Y-38749610D01*
X71509471Y-38749612D01*
X71426771Y-38811705D01*
X71334965Y-38880635D01*
X71180629Y-39042138D01*
X71177715Y-39046410D01*
X71177714Y-39046411D01*
X71165404Y-39064457D01*
X71054743Y-39226680D01*
X70960688Y-39429305D01*
X70900989Y-39644570D01*
X70877251Y-39866695D01*
X62585285Y-39866695D01*
X61982812Y-39264222D01*
X61968868Y-39256608D01*
X61967035Y-39256739D01*
X61960420Y-39260990D01*
X61132840Y-40088570D01*
X61125582Y-40101861D01*
X57008000Y-40101861D01*
X57008000Y-38861239D01*
X60492489Y-38861239D01*
X60505839Y-39092763D01*
X60507275Y-39102984D01*
X60558259Y-39329215D01*
X60561338Y-39339043D01*
X60648589Y-39553914D01*
X60653242Y-39563125D01*
X60752682Y-39725395D01*
X60763140Y-39734857D01*
X60771916Y-39731074D01*
X61597978Y-38905012D01*
X61604356Y-38893332D01*
X62334408Y-38893332D01*
X62334539Y-38895165D01*
X62338790Y-38901780D01*
X63163022Y-39726012D01*
X63175033Y-39732571D01*
X63186772Y-39723603D01*
X63234087Y-39657758D01*
X63239401Y-39648913D01*
X63342147Y-39441021D01*
X63345946Y-39431426D01*
X63413360Y-39209543D01*
X63415539Y-39199462D01*
X63446047Y-38967734D01*
X63446566Y-38961060D01*
X63448167Y-38895564D01*
X63447973Y-38888847D01*
X63428823Y-38655915D01*
X63427139Y-38645747D01*
X63370642Y-38420822D01*
X63367324Y-38411074D01*
X63274847Y-38198391D01*
X63269980Y-38189314D01*
X63186376Y-38060084D01*
X63175690Y-38050882D01*
X63166125Y-38055285D01*
X62342022Y-38879388D01*
X62334408Y-38893332D01*
X61604356Y-38893332D01*
X61605592Y-38891068D01*
X61605461Y-38889235D01*
X61601210Y-38882620D01*
X60776945Y-38058355D01*
X60765409Y-38052055D01*
X60753126Y-38061679D01*
X60687589Y-38157752D01*
X60682491Y-38166726D01*
X60584853Y-38377068D01*
X60581290Y-38386755D01*
X60519317Y-38610220D01*
X60517386Y-38620341D01*
X60492740Y-38850951D01*
X60492489Y-38861239D01*
X57008000Y-38861239D01*
X57008000Y-37686832D01*
X61127908Y-37686832D01*
X61128039Y-37688665D01*
X61132290Y-37695280D01*
X61957188Y-38520178D01*
X61971132Y-38527792D01*
X61972965Y-38527661D01*
X61979580Y-38523410D01*
X62804478Y-37698512D01*
X62812092Y-37684568D01*
X62811961Y-37682735D01*
X62807710Y-37676120D01*
X61982812Y-36851222D01*
X61968868Y-36843608D01*
X61967035Y-36843739D01*
X61960420Y-36847990D01*
X61135522Y-37672888D01*
X61127908Y-37686832D01*
X57008000Y-37686832D01*
X57008000Y-35634000D01*
X57028002Y-35565879D01*
X57081658Y-35519386D01*
X57134000Y-35508000D01*
X60610615Y-35508000D01*
X60678736Y-35528002D01*
G37*
%TD.AperFunction*%
%TA.AperFunction,Conductor*%
G36*
X75242012Y-68138370D02*
G01*
X75248593Y-68144497D01*
X75837595Y-68733500D01*
X76419604Y-69315509D01*
X76453630Y-69377821D01*
X76456509Y-69404604D01*
X76456509Y-83081248D01*
X76455982Y-83092431D01*
X76454307Y-83099924D01*
X76454556Y-83107850D01*
X76454556Y-83107851D01*
X76456447Y-83168014D01*
X76456509Y-83171972D01*
X76456509Y-83199871D01*
X76457006Y-83203804D01*
X76457013Y-83203861D01*
X76457945Y-83215695D01*
X76459335Y-83259904D01*
X76461547Y-83267518D01*
X76461548Y-83267523D01*
X76464986Y-83279356D01*
X76468997Y-83298719D01*
X76471535Y-83318812D01*
X76474452Y-83326179D01*
X76474453Y-83326184D01*
X76487811Y-83359923D01*
X76491655Y-83371150D01*
X76503991Y-83413608D01*
X76508028Y-83420434D01*
X76514302Y-83431043D01*
X76522997Y-83448791D01*
X76530457Y-83467632D01*
X76535119Y-83474048D01*
X76535119Y-83474049D01*
X76556445Y-83503402D01*
X76562961Y-83513322D01*
X76585467Y-83551377D01*
X76599788Y-83565698D01*
X76612628Y-83580731D01*
X76624537Y-83597122D01*
X76630643Y-83602173D01*
X76658614Y-83625313D01*
X76667393Y-83633303D01*
X78995226Y-85961138D01*
X78995229Y-85961141D01*
X79531984Y-86497897D01*
X79566010Y-86560209D01*
X79568889Y-86586992D01*
X79568889Y-95123622D01*
X79568362Y-95134805D01*
X79566687Y-95142298D01*
X79566936Y-95150224D01*
X79566936Y-95150225D01*
X79568827Y-95210375D01*
X79568889Y-95214334D01*
X79568889Y-95242245D01*
X79569386Y-95246179D01*
X79569386Y-95246180D01*
X79569394Y-95246245D01*
X79570327Y-95258082D01*
X79571716Y-95302278D01*
X79577367Y-95321728D01*
X79581376Y-95341089D01*
X79583915Y-95361186D01*
X79586834Y-95368557D01*
X79586834Y-95368559D01*
X79600193Y-95402301D01*
X79604038Y-95413531D01*
X79616371Y-95455982D01*
X79620404Y-95462801D01*
X79620406Y-95462806D01*
X79626682Y-95473417D01*
X79635377Y-95491165D01*
X79642837Y-95510006D01*
X79647499Y-95516422D01*
X79647499Y-95516423D01*
X79668825Y-95545776D01*
X79675341Y-95555696D01*
X79697847Y-95593751D01*
X79712168Y-95608072D01*
X79725008Y-95623105D01*
X79736917Y-95639496D01*
X79743023Y-95644547D01*
X79770994Y-95667687D01*
X79779773Y-95675677D01*
X81429595Y-97325499D01*
X81463621Y-97387811D01*
X81466500Y-97414594D01*
X81466500Y-115485406D01*
X81446498Y-115553527D01*
X81429595Y-115574501D01*
X80818290Y-116185805D01*
X80223862Y-116780233D01*
X80104499Y-116899595D01*
X80042187Y-116933621D01*
X80015404Y-116936500D01*
X79579394Y-116936500D01*
X79511273Y-116916498D01*
X79476181Y-116882771D01*
X79369357Y-116730211D01*
X79369355Y-116730208D01*
X79366198Y-116725700D01*
X79204300Y-116563802D01*
X79199792Y-116560645D01*
X79199789Y-116560643D01*
X79121611Y-116505902D01*
X79016749Y-116432477D01*
X79011767Y-116430154D01*
X79011762Y-116430151D01*
X78977543Y-116414195D01*
X78924258Y-116367278D01*
X78904797Y-116299001D01*
X78925339Y-116231041D01*
X78977543Y-116185805D01*
X79011762Y-116169849D01*
X79011767Y-116169846D01*
X79016749Y-116167523D01*
X79121611Y-116094098D01*
X79199789Y-116039357D01*
X79199792Y-116039355D01*
X79204300Y-116036198D01*
X79366198Y-115874300D01*
X79497523Y-115686749D01*
X79499846Y-115681767D01*
X79499849Y-115681762D01*
X79591961Y-115484225D01*
X79591961Y-115484224D01*
X79594284Y-115479243D01*
X79625593Y-115362399D01*
X79652119Y-115263402D01*
X79652120Y-115263399D01*
X79653543Y-115258087D01*
X79673498Y-115030000D01*
X79653543Y-114801913D01*
X79594284Y-114580757D01*
X79591961Y-114575775D01*
X79499849Y-114378238D01*
X79499846Y-114378233D01*
X79497523Y-114373251D01*
X79366198Y-114185700D01*
X79204300Y-114023802D01*
X79199792Y-114020645D01*
X79199789Y-114020643D01*
X79121611Y-113965902D01*
X79016749Y-113892477D01*
X79011767Y-113890154D01*
X79011762Y-113890151D01*
X78977543Y-113874195D01*
X78924258Y-113827278D01*
X78904797Y-113759001D01*
X78925339Y-113691041D01*
X78977543Y-113645805D01*
X79011762Y-113629849D01*
X79011767Y-113629846D01*
X79016749Y-113627523D01*
X79121611Y-113554098D01*
X79199789Y-113499357D01*
X79199792Y-113499355D01*
X79204300Y-113496198D01*
X79366198Y-113334300D01*
X79497523Y-113146749D01*
X79499846Y-113141767D01*
X79499849Y-113141762D01*
X79591961Y-112944225D01*
X79591961Y-112944224D01*
X79594284Y-112939243D01*
X79653543Y-112718087D01*
X79673498Y-112490000D01*
X79653543Y-112261913D01*
X79594284Y-112040757D01*
X79591961Y-112035775D01*
X79499849Y-111838238D01*
X79499846Y-111838233D01*
X79497523Y-111833251D01*
X79366198Y-111645700D01*
X79204300Y-111483802D01*
X79199792Y-111480645D01*
X79199789Y-111480643D01*
X79121611Y-111425902D01*
X79016749Y-111352477D01*
X79011767Y-111350154D01*
X79011762Y-111350151D01*
X78977543Y-111334195D01*
X78924258Y-111287278D01*
X78904797Y-111219001D01*
X78925339Y-111151041D01*
X78977543Y-111105805D01*
X79011762Y-111089849D01*
X79011767Y-111089846D01*
X79016749Y-111087523D01*
X79121611Y-111014098D01*
X79199789Y-110959357D01*
X79199792Y-110959355D01*
X79204300Y-110956198D01*
X79366198Y-110794300D01*
X79497523Y-110606749D01*
X79499846Y-110601767D01*
X79499849Y-110601762D01*
X79591961Y-110404225D01*
X79591961Y-110404224D01*
X79594284Y-110399243D01*
X79653543Y-110178087D01*
X79673498Y-109950000D01*
X79653543Y-109721913D01*
X79652117Y-109716591D01*
X79595707Y-109506067D01*
X79595706Y-109506065D01*
X79594284Y-109500757D01*
X79587933Y-109487137D01*
X79499849Y-109298238D01*
X79499846Y-109298233D01*
X79497523Y-109293251D01*
X79366198Y-109105700D01*
X79204300Y-108943802D01*
X79199792Y-108940645D01*
X79199789Y-108940643D01*
X79052321Y-108837385D01*
X79016749Y-108812477D01*
X79011767Y-108810154D01*
X79011762Y-108810151D01*
X78977543Y-108794195D01*
X78924258Y-108747278D01*
X78904797Y-108679001D01*
X78925339Y-108611041D01*
X78977543Y-108565805D01*
X79011762Y-108549849D01*
X79011767Y-108549846D01*
X79016749Y-108547523D01*
X79121611Y-108474098D01*
X79199789Y-108419357D01*
X79199792Y-108419355D01*
X79204300Y-108416198D01*
X79366198Y-108254300D01*
X79497523Y-108066749D01*
X79499846Y-108061767D01*
X79499849Y-108061762D01*
X79591961Y-107864225D01*
X79591961Y-107864224D01*
X79594284Y-107859243D01*
X79618659Y-107768277D01*
X79652119Y-107643402D01*
X79652119Y-107643400D01*
X79653543Y-107638087D01*
X79673498Y-107410000D01*
X79653543Y-107181913D01*
X79652119Y-107176598D01*
X79595707Y-106966067D01*
X79595706Y-106966065D01*
X79594284Y-106960757D01*
X79591961Y-106955775D01*
X79499849Y-106758238D01*
X79499846Y-106758233D01*
X79497523Y-106753251D01*
X79366198Y-106565700D01*
X79204300Y-106403802D01*
X79199792Y-106400645D01*
X79199789Y-106400643D01*
X79061817Y-106304034D01*
X79016749Y-106272477D01*
X79011767Y-106270154D01*
X79011762Y-106270151D01*
X78976951Y-106253919D01*
X78923666Y-106207002D01*
X78904205Y-106138725D01*
X78924747Y-106070765D01*
X78976951Y-106025529D01*
X79011511Y-106009414D01*
X79021007Y-106003931D01*
X79199467Y-105878972D01*
X79207875Y-105871916D01*
X79361916Y-105717875D01*
X79368972Y-105709467D01*
X79493931Y-105531007D01*
X79499414Y-105521511D01*
X79591490Y-105324053D01*
X79595236Y-105313761D01*
X79641394Y-105141497D01*
X79641058Y-105127401D01*
X79633116Y-105124000D01*
X77092033Y-105124000D01*
X77078502Y-105127973D01*
X77077273Y-105136522D01*
X77124764Y-105313761D01*
X77128510Y-105324053D01*
X77220586Y-105521511D01*
X77226069Y-105531007D01*
X77351028Y-105709467D01*
X77358084Y-105717875D01*
X77512125Y-105871916D01*
X77520533Y-105878972D01*
X77698993Y-106003931D01*
X77708489Y-106009414D01*
X77743049Y-106025529D01*
X77796334Y-106072446D01*
X77815795Y-106140723D01*
X77795253Y-106208683D01*
X77743049Y-106253919D01*
X77708238Y-106270151D01*
X77708233Y-106270154D01*
X77703251Y-106272477D01*
X77658183Y-106304034D01*
X77520211Y-106400643D01*
X77520208Y-106400645D01*
X77515700Y-106403802D01*
X77353802Y-106565700D01*
X77222477Y-106753251D01*
X77220154Y-106758233D01*
X77220151Y-106758238D01*
X77128039Y-106955775D01*
X77125716Y-106960757D01*
X77124294Y-106966065D01*
X77124293Y-106966067D01*
X77067881Y-107176598D01*
X77066457Y-107181913D01*
X77046502Y-107410000D01*
X77046981Y-107415475D01*
X77046981Y-107415486D01*
X77048026Y-107427430D01*
X77034038Y-107497035D01*
X76984639Y-107548027D01*
X76915513Y-107564218D01*
X76848607Y-107540466D01*
X76833411Y-107527507D01*
X76064143Y-106758238D01*
X75070405Y-105764500D01*
X75036379Y-105702188D01*
X75033500Y-105675405D01*
X75033500Y-102330000D01*
X77046502Y-102330000D01*
X77066457Y-102558087D01*
X77125716Y-102779243D01*
X77128039Y-102784224D01*
X77128039Y-102784225D01*
X77220151Y-102981762D01*
X77220154Y-102981767D01*
X77222477Y-102986749D01*
X77353802Y-103174300D01*
X77515700Y-103336198D01*
X77520208Y-103339355D01*
X77520211Y-103339357D01*
X77598389Y-103394098D01*
X77703251Y-103467523D01*
X77708233Y-103469846D01*
X77708238Y-103469849D01*
X77743049Y-103486081D01*
X77796334Y-103532998D01*
X77815795Y-103601275D01*
X77795253Y-103669235D01*
X77743049Y-103714471D01*
X77708489Y-103730586D01*
X77698993Y-103736069D01*
X77520533Y-103861028D01*
X77512125Y-103868084D01*
X77358084Y-104022125D01*
X77351028Y-104030533D01*
X77226069Y-104208993D01*
X77220586Y-104218489D01*
X77128510Y-104415947D01*
X77124764Y-104426239D01*
X77078606Y-104598503D01*
X77078942Y-104612599D01*
X77086884Y-104616000D01*
X79627967Y-104616000D01*
X79641498Y-104612027D01*
X79642727Y-104603478D01*
X79595236Y-104426239D01*
X79591490Y-104415947D01*
X79499414Y-104218489D01*
X79493931Y-104208993D01*
X79368972Y-104030533D01*
X79361916Y-104022125D01*
X79207875Y-103868084D01*
X79199467Y-103861028D01*
X79021007Y-103736069D01*
X79011511Y-103730586D01*
X78976951Y-103714471D01*
X78923666Y-103667554D01*
X78904205Y-103599277D01*
X78924747Y-103531317D01*
X78976951Y-103486081D01*
X79011762Y-103469849D01*
X79011767Y-103469846D01*
X79016749Y-103467523D01*
X79121611Y-103394098D01*
X79199789Y-103339357D01*
X79199792Y-103339355D01*
X79204300Y-103336198D01*
X79366198Y-103174300D01*
X79497523Y-102986749D01*
X79499846Y-102981767D01*
X79499849Y-102981762D01*
X79591961Y-102784225D01*
X79591961Y-102784224D01*
X79594284Y-102779243D01*
X79653543Y-102558087D01*
X79673498Y-102330000D01*
X79653543Y-102101913D01*
X79594284Y-101880757D01*
X79591961Y-101875775D01*
X79499849Y-101678238D01*
X79499846Y-101678233D01*
X79497523Y-101673251D01*
X79366198Y-101485700D01*
X79204300Y-101323802D01*
X79199792Y-101320645D01*
X79199789Y-101320643D01*
X79121611Y-101265902D01*
X79016749Y-101192477D01*
X79011767Y-101190154D01*
X79011762Y-101190151D01*
X78977543Y-101174195D01*
X78924258Y-101127278D01*
X78904797Y-101059001D01*
X78925339Y-100991041D01*
X78977543Y-100945805D01*
X79011762Y-100929849D01*
X79011767Y-100929846D01*
X79016749Y-100927523D01*
X79121611Y-100854098D01*
X79199789Y-100799357D01*
X79199792Y-100799355D01*
X79204300Y-100796198D01*
X79366198Y-100634300D01*
X79497523Y-100446749D01*
X79499846Y-100441767D01*
X79499849Y-100441762D01*
X79591961Y-100244225D01*
X79591961Y-100244224D01*
X79594284Y-100239243D01*
X79653543Y-100018087D01*
X79673498Y-99790000D01*
X79653543Y-99561913D01*
X79594284Y-99340757D01*
X79499966Y-99138489D01*
X79499849Y-99138238D01*
X79499846Y-99138233D01*
X79497523Y-99133251D01*
X79366198Y-98945700D01*
X79204300Y-98783802D01*
X79199789Y-98780643D01*
X79195576Y-98777108D01*
X79196527Y-98775974D01*
X79156529Y-98725929D01*
X79149224Y-98655310D01*
X79181258Y-98591951D01*
X79242462Y-98555970D01*
X79259517Y-98552918D01*
X79270316Y-98551745D01*
X79406705Y-98500615D01*
X79523261Y-98413261D01*
X79610615Y-98296705D01*
X79661745Y-98160316D01*
X79668500Y-98098134D01*
X79668500Y-96401866D01*
X79661745Y-96339684D01*
X79610615Y-96203295D01*
X79523261Y-96086739D01*
X79406705Y-95999385D01*
X79270316Y-95948255D01*
X79208134Y-95941500D01*
X77511866Y-95941500D01*
X77449684Y-95948255D01*
X77313295Y-95999385D01*
X77196739Y-96086739D01*
X77109385Y-96203295D01*
X77058255Y-96339684D01*
X77051500Y-96401866D01*
X77051500Y-98098134D01*
X77058255Y-98160316D01*
X77109385Y-98296705D01*
X77196739Y-98413261D01*
X77313295Y-98500615D01*
X77449684Y-98551745D01*
X77460474Y-98552917D01*
X77462606Y-98553803D01*
X77465222Y-98554425D01*
X77465121Y-98554848D01*
X77526035Y-98580155D01*
X77566463Y-98638517D01*
X77568922Y-98709471D01*
X77532629Y-98770490D01*
X77523969Y-98777489D01*
X77520207Y-98780646D01*
X77515700Y-98783802D01*
X77353802Y-98945700D01*
X77222477Y-99133251D01*
X77220154Y-99138233D01*
X77220151Y-99138238D01*
X77220034Y-99138489D01*
X77125716Y-99340757D01*
X77066457Y-99561913D01*
X77046502Y-99790000D01*
X77066457Y-100018087D01*
X77125716Y-100239243D01*
X77128039Y-100244224D01*
X77128039Y-100244225D01*
X77220151Y-100441762D01*
X77220154Y-100441767D01*
X77222477Y-100446749D01*
X77353802Y-100634300D01*
X77515700Y-100796198D01*
X77520208Y-100799355D01*
X77520211Y-100799357D01*
X77598389Y-100854098D01*
X77703251Y-100927523D01*
X77708233Y-100929846D01*
X77708238Y-100929849D01*
X77742457Y-100945805D01*
X77795742Y-100992722D01*
X77815203Y-101060999D01*
X77794661Y-101128959D01*
X77742457Y-101174195D01*
X77708238Y-101190151D01*
X77708233Y-101190154D01*
X77703251Y-101192477D01*
X77598389Y-101265902D01*
X77520211Y-101320643D01*
X77520208Y-101320645D01*
X77515700Y-101323802D01*
X77353802Y-101485700D01*
X77222477Y-101673251D01*
X77220154Y-101678233D01*
X77220151Y-101678238D01*
X77128039Y-101875775D01*
X77125716Y-101880757D01*
X77066457Y-102101913D01*
X77046502Y-102330000D01*
X75033500Y-102330000D01*
X75033500Y-68233594D01*
X75053502Y-68165473D01*
X75107158Y-68118980D01*
X75177432Y-68108876D01*
X75242012Y-68138370D01*
G37*
%TD.AperFunction*%
%TA.AperFunction,Conductor*%
G36*
X84412551Y-48788693D02*
G01*
X84468462Y-48832447D01*
X84492000Y-48905778D01*
X84492000Y-94818267D01*
X84471998Y-94886388D01*
X84418342Y-94932881D01*
X84348068Y-94942985D01*
X84283488Y-94913491D01*
X84276905Y-94907362D01*
X83120394Y-93750851D01*
X83086368Y-93688539D01*
X83083489Y-93661756D01*
X83083489Y-82216156D01*
X83084016Y-82204973D01*
X83085691Y-82197480D01*
X83085426Y-82189032D01*
X83083551Y-82129390D01*
X83083489Y-82125432D01*
X83083489Y-82097533D01*
X83082985Y-82093542D01*
X83082052Y-82081700D01*
X83081878Y-82076142D01*
X83080663Y-82037500D01*
X83078451Y-82029886D01*
X83078450Y-82029881D01*
X83075012Y-82018048D01*
X83071001Y-81998684D01*
X83070385Y-81993803D01*
X83068463Y-81978592D01*
X83065546Y-81971225D01*
X83065545Y-81971220D01*
X83052187Y-81937481D01*
X83048343Y-81926254D01*
X83043269Y-81908791D01*
X83036007Y-81883796D01*
X83025696Y-81866361D01*
X83017001Y-81848613D01*
X83009541Y-81829772D01*
X82997237Y-81812836D01*
X82983553Y-81794002D01*
X82977037Y-81784082D01*
X82958569Y-81752854D01*
X82958567Y-81752851D01*
X82954531Y-81746027D01*
X82940210Y-81731706D01*
X82927369Y-81716672D01*
X82920120Y-81706695D01*
X82915461Y-81700282D01*
X82881384Y-81672091D01*
X82872605Y-81664101D01*
X81140043Y-79931538D01*
X81106017Y-79869226D01*
X81105053Y-79820561D01*
X81105864Y-79815961D01*
X81107286Y-79810655D01*
X81115648Y-79715084D01*
X81125237Y-79605475D01*
X81125716Y-79600000D01*
X81107286Y-79389345D01*
X81052556Y-79185090D01*
X80963189Y-78993442D01*
X80841901Y-78820224D01*
X80692376Y-78670699D01*
X80564333Y-78581043D01*
X80524588Y-78553213D01*
X80480259Y-78497756D01*
X80472950Y-78427137D01*
X80504980Y-78363776D01*
X80524588Y-78346787D01*
X80687864Y-78232460D01*
X80692376Y-78229301D01*
X80841901Y-78079776D01*
X80963189Y-77906558D01*
X80967220Y-77897915D01*
X81050233Y-77719892D01*
X81050234Y-77719891D01*
X81052556Y-77714910D01*
X81107286Y-77510655D01*
X81125716Y-77300000D01*
X81107286Y-77089345D01*
X81058195Y-76906136D01*
X81053979Y-76890400D01*
X81053978Y-76890398D01*
X81052556Y-76885090D01*
X81048288Y-76875937D01*
X80965512Y-76698423D01*
X80965510Y-76698420D01*
X80963189Y-76693442D01*
X80841901Y-76520224D01*
X80692376Y-76370699D01*
X80524588Y-76253213D01*
X80480259Y-76197756D01*
X80472950Y-76127137D01*
X80504980Y-76063776D01*
X80524588Y-76046787D01*
X80619483Y-75980341D01*
X80692376Y-75929301D01*
X80841901Y-75779776D01*
X80963189Y-75606558D01*
X81044184Y-75432865D01*
X81050233Y-75419892D01*
X81050234Y-75419891D01*
X81052556Y-75414910D01*
X81058328Y-75393371D01*
X81105862Y-75215970D01*
X81105862Y-75215968D01*
X81107286Y-75210655D01*
X81125716Y-75000000D01*
X81107286Y-74789345D01*
X81084357Y-74703771D01*
X81053979Y-74590400D01*
X81053978Y-74590398D01*
X81052556Y-74585090D01*
X81027607Y-74531587D01*
X80965512Y-74398423D01*
X80965510Y-74398420D01*
X80963189Y-74393442D01*
X80841901Y-74220224D01*
X80692376Y-74070699D01*
X80524588Y-73953213D01*
X80480259Y-73897756D01*
X80472950Y-73827137D01*
X80504980Y-73763776D01*
X80524588Y-73746787D01*
X80687864Y-73632460D01*
X80692376Y-73629301D01*
X80841901Y-73479776D01*
X80963189Y-73306558D01*
X80990279Y-73248465D01*
X81050233Y-73119892D01*
X81050234Y-73119891D01*
X81052556Y-73114910D01*
X81074896Y-73031538D01*
X81105862Y-72915970D01*
X81105862Y-72915968D01*
X81107286Y-72910655D01*
X81125716Y-72700000D01*
X81107286Y-72489345D01*
X81105862Y-72484030D01*
X81053979Y-72290400D01*
X81053978Y-72290398D01*
X81052556Y-72285090D01*
X80963189Y-72093442D01*
X80841901Y-71920224D01*
X80692376Y-71770699D01*
X80524588Y-71653213D01*
X80480259Y-71597756D01*
X80472950Y-71527137D01*
X80504980Y-71463776D01*
X80524588Y-71446787D01*
X80636532Y-71368403D01*
X80692376Y-71329301D01*
X80841901Y-71179776D01*
X80963189Y-71006558D01*
X80969782Y-70992421D01*
X81050233Y-70819892D01*
X81050234Y-70819891D01*
X81052556Y-70814910D01*
X81107286Y-70610655D01*
X81125716Y-70400000D01*
X81107286Y-70189345D01*
X81052556Y-69985090D01*
X80963189Y-69793442D01*
X80841901Y-69620224D01*
X80692376Y-69470699D01*
X80524588Y-69353213D01*
X80480259Y-69297756D01*
X80472950Y-69227137D01*
X80504980Y-69163776D01*
X80524588Y-69146787D01*
X80668216Y-69046218D01*
X80692376Y-69029301D01*
X80841901Y-68879776D01*
X80963189Y-68706558D01*
X80971668Y-68688376D01*
X81050233Y-68519892D01*
X81050234Y-68519891D01*
X81052556Y-68514910D01*
X81100356Y-68336520D01*
X81105862Y-68315970D01*
X81105862Y-68315968D01*
X81107286Y-68310655D01*
X81125716Y-68100000D01*
X81107286Y-67889345D01*
X81052556Y-67685090D01*
X81029319Y-67635258D01*
X80965512Y-67498423D01*
X80965510Y-67498420D01*
X80963189Y-67493442D01*
X80841901Y-67320224D01*
X80692376Y-67170699D01*
X80519158Y-67049411D01*
X80514180Y-67047090D01*
X80514177Y-67047088D01*
X80332492Y-66962367D01*
X80332491Y-66962366D01*
X80327510Y-66960044D01*
X80322202Y-66958622D01*
X80322200Y-66958621D01*
X80128570Y-66906738D01*
X80128568Y-66906738D01*
X80123255Y-66905314D01*
X79912600Y-66886884D01*
X79701945Y-66905314D01*
X79696632Y-66906738D01*
X79696630Y-66906738D01*
X79503000Y-66958621D01*
X79502998Y-66958622D01*
X79497690Y-66960044D01*
X79492709Y-66962366D01*
X79492708Y-66962367D01*
X79311023Y-67047088D01*
X79311020Y-67047090D01*
X79306042Y-67049411D01*
X79132824Y-67170699D01*
X78983299Y-67320224D01*
X78980140Y-67324736D01*
X78918498Y-67412770D01*
X78863041Y-67457099D01*
X78815285Y-67466500D01*
X77714595Y-67466500D01*
X77646474Y-67446498D01*
X77625500Y-67429595D01*
X76570405Y-66374500D01*
X76536379Y-66312188D01*
X76533500Y-66285405D01*
X76533500Y-62169030D01*
X79333400Y-62169030D01*
X79339127Y-62176680D01*
X79523872Y-62289893D01*
X79532667Y-62294375D01*
X79750090Y-62384434D01*
X79759475Y-62387483D01*
X79988308Y-62442422D01*
X79998055Y-62443965D01*
X80232670Y-62462430D01*
X80242530Y-62462430D01*
X80477145Y-62443965D01*
X80486892Y-62442422D01*
X80715725Y-62387483D01*
X80725110Y-62384434D01*
X80942533Y-62294375D01*
X80951328Y-62289893D01*
X81132405Y-62178928D01*
X81141867Y-62168470D01*
X81138084Y-62159694D01*
X80250412Y-61272022D01*
X80236468Y-61264408D01*
X80234635Y-61264539D01*
X80228020Y-61268790D01*
X79340160Y-62156650D01*
X79333400Y-62169030D01*
X76533500Y-62169030D01*
X76533500Y-60914594D01*
X76536338Y-60904930D01*
X78675170Y-60904930D01*
X78693635Y-61139545D01*
X78695178Y-61149292D01*
X78750117Y-61378125D01*
X78753166Y-61387510D01*
X78843225Y-61604933D01*
X78847707Y-61613728D01*
X78958672Y-61794805D01*
X78969130Y-61804267D01*
X78977906Y-61800484D01*
X79865578Y-60912812D01*
X79871956Y-60901132D01*
X80602008Y-60901132D01*
X80602139Y-60902965D01*
X80606390Y-60909580D01*
X81494250Y-61797440D01*
X81506630Y-61804200D01*
X81514280Y-61798473D01*
X81627493Y-61613728D01*
X81631975Y-61604933D01*
X81722034Y-61387510D01*
X81725083Y-61378125D01*
X81780022Y-61149292D01*
X81781565Y-61139545D01*
X81800030Y-60904930D01*
X81800030Y-60895070D01*
X81781565Y-60660455D01*
X81780022Y-60650708D01*
X81725083Y-60421875D01*
X81722034Y-60412490D01*
X81631975Y-60195067D01*
X81627493Y-60186272D01*
X81516528Y-60005195D01*
X81506070Y-59995733D01*
X81497294Y-59999516D01*
X80609622Y-60887188D01*
X80602008Y-60901132D01*
X79871956Y-60901132D01*
X79873192Y-60898868D01*
X79873061Y-60897035D01*
X79868810Y-60890420D01*
X78980950Y-60002560D01*
X78968570Y-59995800D01*
X78960920Y-60001527D01*
X78847707Y-60186272D01*
X78843225Y-60195067D01*
X78753166Y-60412490D01*
X78750117Y-60421875D01*
X78695178Y-60650708D01*
X78693635Y-60660455D01*
X78675170Y-60895070D01*
X78675170Y-60904930D01*
X76536338Y-60904930D01*
X76553502Y-60846473D01*
X76570405Y-60825499D01*
X77764375Y-59631529D01*
X79333333Y-59631529D01*
X79337117Y-59640307D01*
X80224788Y-60527978D01*
X80238732Y-60535592D01*
X80240565Y-60535461D01*
X80247180Y-60531210D01*
X81135040Y-59643350D01*
X81141800Y-59630970D01*
X81136073Y-59623320D01*
X81010420Y-59546318D01*
X80995090Y-59542171D01*
X80973124Y-59549135D01*
X80931892Y-59571650D01*
X80861077Y-59566585D01*
X80816014Y-59537624D01*
X80250412Y-58972022D01*
X80236468Y-58964408D01*
X80234635Y-58964539D01*
X80228020Y-58968790D01*
X79659186Y-59537624D01*
X79596874Y-59571650D01*
X79526059Y-59566585D01*
X79510052Y-59556298D01*
X79508934Y-59558346D01*
X79479094Y-59542052D01*
X79470773Y-59542647D01*
X79342793Y-59621073D01*
X79333333Y-59631529D01*
X77764375Y-59631529D01*
X78863103Y-58532801D01*
X78925415Y-58498775D01*
X78996230Y-58503840D01*
X79053066Y-58546387D01*
X79077928Y-58613655D01*
X79088579Y-58776159D01*
X79090380Y-58787529D01*
X79139923Y-58982604D01*
X79143764Y-58993451D01*
X79228029Y-59176238D01*
X79233778Y-59186195D01*
X79247512Y-59205628D01*
X79258101Y-59214016D01*
X79271402Y-59206988D01*
X80148505Y-58329885D01*
X80210817Y-58295859D01*
X80281632Y-58300924D01*
X80326695Y-58329885D01*
X81204571Y-59207761D01*
X81216951Y-59214521D01*
X81223531Y-59209595D01*
X81297195Y-59078060D01*
X81301876Y-59067547D01*
X81366572Y-58876957D01*
X81369257Y-58865774D01*
X81398434Y-58664539D01*
X81399064Y-58657157D01*
X81400464Y-58603704D01*
X81400221Y-58596305D01*
X81381616Y-58393824D01*
X81379518Y-58382503D01*
X81324887Y-58188797D01*
X81320763Y-58178050D01*
X81232834Y-57999751D01*
X81220644Y-57929809D01*
X81248203Y-57864379D01*
X81256745Y-57854927D01*
X81604358Y-57507314D01*
X81612648Y-57499770D01*
X81619129Y-57495657D01*
X81665770Y-57445989D01*
X81668524Y-57443148D01*
X81688245Y-57423427D01*
X81690723Y-57420232D01*
X81698429Y-57411210D01*
X81723269Y-57384758D01*
X81728697Y-57378978D01*
X81738457Y-57361225D01*
X81749310Y-57344702D01*
X81756864Y-57334963D01*
X81761724Y-57328698D01*
X81779287Y-57288114D01*
X81784494Y-57277484D01*
X81805806Y-57238717D01*
X81807777Y-57231040D01*
X81807779Y-57231035D01*
X81810843Y-57219099D01*
X81817249Y-57200387D01*
X81822145Y-57189074D01*
X81825292Y-57181802D01*
X81832208Y-57138138D01*
X81834615Y-57126517D01*
X81843639Y-57091368D01*
X81843639Y-57091367D01*
X81845611Y-57083687D01*
X81845611Y-57063426D01*
X81847162Y-57043715D01*
X81849090Y-57031542D01*
X81850330Y-57023714D01*
X81846170Y-56979703D01*
X81845611Y-56967846D01*
X81845611Y-55653279D01*
X81846138Y-55642096D01*
X81847813Y-55634603D01*
X81845673Y-55566512D01*
X81845611Y-55562555D01*
X81845611Y-55534655D01*
X81845107Y-55530664D01*
X81844174Y-55518822D01*
X81843034Y-55482547D01*
X81842785Y-55474622D01*
X81840572Y-55467004D01*
X81837132Y-55455163D01*
X81833123Y-55435804D01*
X81832957Y-55434494D01*
X81830585Y-55415714D01*
X81827669Y-55408348D01*
X81827667Y-55408342D01*
X81814311Y-55374609D01*
X81810466Y-55363379D01*
X81800341Y-55328528D01*
X81800341Y-55328527D01*
X81798130Y-55320918D01*
X81787816Y-55303477D01*
X81779119Y-55285724D01*
X81774583Y-55274269D01*
X81771663Y-55266894D01*
X81745674Y-55231123D01*
X81739158Y-55221203D01*
X81720689Y-55189974D01*
X81716653Y-55183149D01*
X81702332Y-55168828D01*
X81689491Y-55153794D01*
X81677583Y-55137404D01*
X81643506Y-55109213D01*
X81634727Y-55101223D01*
X81433005Y-54899501D01*
X81398979Y-54837189D01*
X81396100Y-54810406D01*
X81396100Y-53901866D01*
X81389345Y-53839684D01*
X81338215Y-53703295D01*
X81250861Y-53586739D01*
X81210832Y-53556739D01*
X81141487Y-53504767D01*
X81141484Y-53504765D01*
X81134305Y-53499385D01*
X81069435Y-53475066D01*
X81024570Y-53446180D01*
X80250412Y-52672022D01*
X80236468Y-52664408D01*
X80234635Y-52664539D01*
X80228020Y-52668790D01*
X79450630Y-53446180D01*
X79405765Y-53475066D01*
X79340895Y-53499385D01*
X79333716Y-53504765D01*
X79333713Y-53504767D01*
X79264368Y-53556739D01*
X79224339Y-53586739D01*
X79136985Y-53703295D01*
X79085855Y-53839684D01*
X79079100Y-53901866D01*
X79079100Y-55298134D01*
X79085855Y-55360316D01*
X79136985Y-55496705D01*
X79224339Y-55613261D01*
X79231519Y-55618642D01*
X79319556Y-55684622D01*
X79362071Y-55741481D01*
X79367097Y-55812300D01*
X79342941Y-55863453D01*
X79299542Y-55918505D01*
X79241662Y-55959619D01*
X79200592Y-55966500D01*
X76578763Y-55966500D01*
X76567579Y-55965973D01*
X76560091Y-55964299D01*
X76552168Y-55964548D01*
X76492033Y-55966438D01*
X76488075Y-55966500D01*
X76460144Y-55966500D01*
X76456229Y-55966995D01*
X76456225Y-55966995D01*
X76456167Y-55967003D01*
X76456138Y-55967006D01*
X76444296Y-55967939D01*
X76400110Y-55969327D01*
X76382744Y-55974372D01*
X76380658Y-55974978D01*
X76361306Y-55978986D01*
X76354235Y-55979880D01*
X76341203Y-55981526D01*
X76333834Y-55984443D01*
X76333832Y-55984444D01*
X76300097Y-55997800D01*
X76288869Y-56001645D01*
X76246407Y-56013982D01*
X76239585Y-56018016D01*
X76239579Y-56018019D01*
X76228968Y-56024294D01*
X76211218Y-56032990D01*
X76199756Y-56037528D01*
X76199751Y-56037531D01*
X76192383Y-56040448D01*
X76185968Y-56045109D01*
X76156625Y-56066427D01*
X76146707Y-56072943D01*
X76128019Y-56083995D01*
X76108637Y-56095458D01*
X76094313Y-56109782D01*
X76079281Y-56122621D01*
X76062893Y-56134528D01*
X76045641Y-56155382D01*
X76034712Y-56168593D01*
X76026722Y-56177373D01*
X75248595Y-56955500D01*
X75186283Y-56989526D01*
X75115468Y-56984461D01*
X75058632Y-56941914D01*
X75033821Y-56875394D01*
X75033500Y-56866405D01*
X75033500Y-51914594D01*
X75053502Y-51846473D01*
X75070405Y-51825499D01*
X75300010Y-51595894D01*
X75362322Y-51561868D01*
X75389105Y-51558989D01*
X78669597Y-51558989D01*
X78737718Y-51578991D01*
X78784211Y-51632647D01*
X78794315Y-51702921D01*
X78786006Y-51733207D01*
X78753166Y-51812490D01*
X78750117Y-51821875D01*
X78695178Y-52050708D01*
X78693635Y-52060455D01*
X78675170Y-52295070D01*
X78675170Y-52304930D01*
X78693635Y-52539545D01*
X78695178Y-52549292D01*
X78750117Y-52778125D01*
X78753166Y-52787510D01*
X78843225Y-53004933D01*
X78847707Y-53013728D01*
X78958672Y-53194805D01*
X78969130Y-53204267D01*
X78977906Y-53200484D01*
X79877258Y-52301132D01*
X80602008Y-52301132D01*
X80602139Y-52302965D01*
X80606390Y-52309580D01*
X81494250Y-53197440D01*
X81506630Y-53204200D01*
X81514280Y-53198473D01*
X81627493Y-53013728D01*
X81631975Y-53004933D01*
X81722034Y-52787510D01*
X81725083Y-52778125D01*
X81780022Y-52549292D01*
X81781565Y-52539545D01*
X81800030Y-52304930D01*
X81800030Y-52295070D01*
X81781565Y-52060455D01*
X81780022Y-52050708D01*
X81725083Y-51821875D01*
X81722034Y-51812490D01*
X81631975Y-51595067D01*
X81627493Y-51586272D01*
X81516528Y-51405195D01*
X81506070Y-51395733D01*
X81497294Y-51399516D01*
X80609622Y-52287188D01*
X80602008Y-52301132D01*
X79877258Y-52301132D01*
X80714793Y-51463597D01*
X80739745Y-51444241D01*
X80763773Y-51430031D01*
X80778094Y-51415710D01*
X80793128Y-51402869D01*
X80797743Y-51399516D01*
X80809518Y-51390961D01*
X80837709Y-51356884D01*
X80845699Y-51348105D01*
X82199141Y-49994664D01*
X82261453Y-49960638D01*
X82317649Y-49961240D01*
X82370496Y-49973927D01*
X82536076Y-50013680D01*
X82536082Y-50013681D01*
X82540889Y-50014835D01*
X82777600Y-50033465D01*
X83014311Y-50014835D01*
X83019118Y-50013681D01*
X83019124Y-50013680D01*
X83164991Y-49978660D01*
X83245194Y-49959405D01*
X83249767Y-49957511D01*
X83459989Y-49870435D01*
X83459993Y-49870433D01*
X83464563Y-49868540D01*
X83468783Y-49865954D01*
X83662802Y-49747059D01*
X83662808Y-49747055D01*
X83667016Y-49744476D01*
X83847569Y-49590269D01*
X84001776Y-49409716D01*
X84004355Y-49405508D01*
X84004359Y-49405502D01*
X84123254Y-49211483D01*
X84125840Y-49207263D01*
X84216705Y-48987894D01*
X84243481Y-48876364D01*
X84278833Y-48814795D01*
X84341860Y-48782112D01*
X84412551Y-48788693D01*
G37*
%TD.AperFunction*%
%TD*%
M02*
