%TF.GenerationSoftware,KiCad,Pcbnew,(6.0.1)*%
%TF.CreationDate,2023-06-13T10:27:40-07:00*%
%TF.ProjectId,16Bars,31364261-7273-42e6-9b69-6361645f7063,rev?*%
%TF.SameCoordinates,Original*%
%TF.FileFunction,Soldermask,Bot*%
%TF.FilePolarity,Negative*%
%FSLAX46Y46*%
G04 Gerber Fmt 4.6, Leading zero omitted, Abs format (unit mm)*
G04 Created by KiCad (PCBNEW (6.0.1)) date 2023-06-13 10:27:40*
%MOMM*%
%LPD*%
G01*
G04 APERTURE LIST*
%ADD10R,1.600000X1.600000*%
%ADD11O,1.600000X1.600000*%
%ADD12R,1.800000X1.800000*%
%ADD13C,1.800000*%
%ADD14C,2.000000*%
%ADD15C,1.930400*%
%ADD16C,1.400000*%
%ADD17R,1.300000X1.300000*%
%ADD18C,1.300000*%
%ADD19C,2.100000*%
%ADD20O,1.700000X1.700000*%
%ADD21R,1.700000X1.700000*%
%ADD22C,1.600000*%
G04 APERTURE END LIST*
D10*
%TO.C,A1*%
X78360000Y-97250000D03*
D11*
X78360000Y-99790000D03*
X78360000Y-102330000D03*
X78360000Y-104870000D03*
X78360000Y-107410000D03*
X78360000Y-109950000D03*
X78360000Y-112490000D03*
X78360000Y-115030000D03*
X78360000Y-117570000D03*
X78360000Y-120110000D03*
X78360000Y-122650000D03*
X78360000Y-125190000D03*
X78360000Y-127730000D03*
X78360000Y-130270000D03*
X78360000Y-132810000D03*
X63120000Y-132810000D03*
X63120000Y-130270000D03*
X63120000Y-127730000D03*
X63120000Y-125190000D03*
X63120000Y-122650000D03*
X63120000Y-120110000D03*
X63120000Y-117570000D03*
X63120000Y-115030000D03*
X63120000Y-112490000D03*
X63120000Y-109950000D03*
X63120000Y-107410000D03*
X63120000Y-104870000D03*
X63120000Y-102330000D03*
X63120000Y-99790000D03*
X63120000Y-97250000D03*
%TD*%
D12*
%TO.C,D4*%
X68225000Y-69977500D03*
D13*
X70765000Y-69977500D03*
%TD*%
D12*
%TO.C,D3*%
X68225000Y-83655000D03*
D13*
X70765000Y-83655000D03*
%TD*%
D14*
%TO.C,SW1*%
X82777600Y-45980300D03*
X77697600Y-45980300D03*
X77697600Y-43440300D03*
X77697600Y-48520300D03*
X82777600Y-43440300D03*
X82777600Y-48520300D03*
X80237600Y-43320300D03*
X80237600Y-48720300D03*
%TD*%
D15*
%TO.C,J1*%
X61970000Y-47452000D03*
X61970000Y-36479200D03*
X61970000Y-38892200D03*
%TD*%
D12*
%TO.C,D1*%
X68225000Y-56300000D03*
D13*
X70765000Y-56300000D03*
%TD*%
D15*
%TO.C,J5*%
X62000000Y-66869700D03*
X62000000Y-64456700D03*
X62000000Y-75429500D03*
%TD*%
D16*
%TO.C,S1*%
X79912600Y-70400000D03*
X79912600Y-72700000D03*
X79912600Y-75000000D03*
X79912600Y-77300000D03*
X79912600Y-79600000D03*
X79912600Y-68100000D03*
X79912600Y-81900000D03*
%TD*%
D17*
%TO.C,SW3*%
X80237600Y-54600000D03*
D18*
X80237600Y-56600000D03*
X80237600Y-58600000D03*
D19*
X80237600Y-52300000D03*
X80237600Y-60900000D03*
%TD*%
D15*
%TO.C,J6*%
X62000000Y-89107000D03*
X62000000Y-78134200D03*
X62000000Y-80547200D03*
%TD*%
%TO.C,J4*%
X62000000Y-61752000D03*
X62000000Y-50779200D03*
X62000000Y-53192200D03*
%TD*%
D20*
%TO.C,J3*%
X74810000Y-108600000D03*
X72270000Y-108600000D03*
X69730000Y-108600000D03*
D21*
X67190000Y-108600000D03*
%TD*%
%TO.C,J2*%
X82400000Y-39900000D03*
D20*
X82400000Y-37360000D03*
X79860000Y-39900000D03*
X79860000Y-37360000D03*
X77320000Y-39900000D03*
X77320000Y-37360000D03*
X74780000Y-39900000D03*
X74780000Y-37360000D03*
X72240000Y-39900000D03*
X72240000Y-37360000D03*
%TD*%
D10*
%TO.C,C1*%
X72500000Y-44000000D03*
D22*
X72500000Y-46000000D03*
%TD*%
M02*
