M48
; DRILL file {KiCad (6.0.1)} date Tue Jun 13 10:27:36 2023
; FORMAT={-:-/ absolute / inch / decimal}
; #@! TF.CreationDate,2023-06-13T10:27:36-07:00
; #@! TF.GenerationSoftware,Kicad,Pcbnew,(6.0.1)
; #@! TF.FileFunction,Plated,1,2,PTH
FMAT,2
INCH
; #@! TA.AperFunction,Plated,PTH,ViaDrill
T1C0.0157
; #@! TA.AperFunction,Plated,PTH,ComponentDrill
T2C0.0315
; #@! TA.AperFunction,Plated,PTH,ComponentDrill
T3C0.0350
; #@! TA.AperFunction,Plated,PTH,ComponentDrill
T4C0.0354
; #@! TA.AperFunction,Plated,PTH,ComponentDrill
T5C0.0394
; #@! TA.AperFunction,Plated,PTH,ComponentDrill
T6C0.0433
; #@! TA.AperFunction,Plated,PTH,ComponentDrill
T7C0.0450
; #@! TA.AperFunction,Plated,PTH,ComponentDrill
T8C0.0551
%
G90
G05
T1
X2.8583Y-3.9449
X2.9055Y-1.9882
X2.9764Y-2.0669
X2.9803Y-3.9449
T2
X2.8543Y-1.7323
X2.8543Y-1.811
X3.159Y-2.1496
X3.159Y-2.2283
X3.159Y-2.3071
T3
X2.4398Y-1.4362
X2.4409Y-1.9992
X2.4409Y-2.5377
X2.4409Y-3.0761
T4
X2.686Y-2.2165
X2.686Y-2.755
X2.686Y-3.2935
X2.786Y-2.2165
X2.786Y-2.755
X2.786Y-3.2935
X3.1462Y-2.6811
X3.1462Y-2.7717
X3.1462Y-2.8622
X3.1462Y-2.9528
X3.1462Y-3.0433
X3.1462Y-3.1339
X3.1462Y-3.2244
T5
X2.485Y-3.8287
X2.485Y-3.9287
X2.485Y-4.0287
X2.485Y-4.1287
X2.485Y-4.2287
X2.485Y-4.3287
X2.485Y-4.4287
X2.485Y-4.5287
X2.485Y-4.6287
X2.485Y-4.7287
X2.485Y-4.8287
X2.485Y-4.9287
X2.485Y-5.0287
X2.485Y-5.1287
X2.485Y-5.2287
X2.6453Y-4.2756
X2.7453Y-4.2756
X2.8441Y-1.4709
X2.8441Y-1.5709
X2.8453Y-4.2756
X2.9441Y-1.4709
X2.9441Y-1.5709
X2.9453Y-4.2756
X3.0441Y-1.4709
X3.0441Y-1.5709
X3.085Y-3.8287
X3.085Y-3.9287
X3.085Y-4.0287
X3.085Y-4.1287
X3.085Y-4.2287
X3.085Y-4.3287
X3.085Y-4.4287
X3.085Y-4.5287
X3.085Y-4.6287
X3.085Y-4.7287
X3.085Y-4.8287
X3.085Y-4.9287
X3.085Y-5.0287
X3.085Y-5.1287
X3.085Y-5.2287
X3.1441Y-1.4709
X3.1441Y-1.5709
X3.2441Y-1.4709
X3.2441Y-1.5709
T6
X3.059Y-1.7102
X3.059Y-1.9102
X3.159Y-1.7055
X3.159Y-1.9181
X3.259Y-1.7102
X3.259Y-1.9102
T7
X2.4398Y-1.5312
X2.4398Y-1.8682
X2.4409Y-2.0942
X2.4409Y-2.4312
X2.4409Y-2.6327
X2.4409Y-2.9697
X2.4409Y-3.1711
X2.4409Y-3.5081
T8
X3.159Y-2.0591
X3.159Y-2.3976
T0
M30
