%TF.GenerationSoftware,KiCad,Pcbnew,(6.0.1)*%
%TF.CreationDate,2023-06-13T10:27:40-07:00*%
%TF.ProjectId,16Bars,31364261-7273-42e6-9b69-6361645f7063,rev?*%
%TF.SameCoordinates,Original*%
%TF.FileFunction,Soldermask,Top*%
%TF.FilePolarity,Negative*%
%FSLAX46Y46*%
G04 Gerber Fmt 4.6, Leading zero omitted, Abs format (unit mm)*
G04 Created by KiCad (PCBNEW (6.0.1)) date 2023-06-13 10:27:40*
%MOMM*%
%LPD*%
G01*
G04 APERTURE LIST*
G04 Aperture macros list*
%AMRoundRect*
0 Rectangle with rounded corners*
0 $1 Rounding radius*
0 $2 $3 $4 $5 $6 $7 $8 $9 X,Y pos of 4 corners*
0 Add a 4 corners polygon primitive as box body*
4,1,4,$2,$3,$4,$5,$6,$7,$8,$9,$2,$3,0*
0 Add four circle primitives for the rounded corners*
1,1,$1+$1,$2,$3*
1,1,$1+$1,$4,$5*
1,1,$1+$1,$6,$7*
1,1,$1+$1,$8,$9*
0 Add four rect primitives between the rounded corners*
20,1,$1+$1,$2,$3,$4,$5,0*
20,1,$1+$1,$4,$5,$6,$7,0*
20,1,$1+$1,$6,$7,$8,$9,0*
20,1,$1+$1,$8,$9,$2,$3,0*%
G04 Aperture macros list end*
%ADD10C,0.150000*%
%ADD11R,1.524000X1.270000*%
%ADD12R,1.600000X1.600000*%
%ADD13O,1.600000X1.600000*%
%ADD14R,1.800000X1.800000*%
%ADD15C,1.800000*%
%ADD16C,2.000000*%
%ADD17C,1.930400*%
%ADD18RoundRect,0.135000X0.135000X0.185000X-0.135000X0.185000X-0.135000X-0.185000X0.135000X-0.185000X0*%
%ADD19R,0.450000X0.600000*%
%ADD20RoundRect,0.135000X-0.135000X-0.185000X0.135000X-0.185000X0.135000X0.185000X-0.135000X0.185000X0*%
%ADD21C,1.400000*%
%ADD22RoundRect,0.140000X-0.140000X-0.170000X0.140000X-0.170000X0.140000X0.170000X-0.140000X0.170000X0*%
%ADD23R,1.300000X1.300000*%
%ADD24C,1.300000*%
%ADD25C,2.100000*%
%ADD26RoundRect,0.218750X-0.218750X-0.256250X0.218750X-0.256250X0.218750X0.256250X-0.218750X0.256250X0*%
%ADD27O,1.700000X1.700000*%
%ADD28R,1.700000X1.700000*%
%ADD29C,1.600000*%
G04 APERTURE END LIST*
D10*
X65300001Y-68600000D02*
G75*
G03*
X65300001Y-68600000I-1J0D01*
G01*
D11*
%TO.C,REF\u002A\u002A*%
X63200000Y-138900000D03*
%TD*%
%TO.C,REF\u002A\u002A*%
X60500000Y-138900000D03*
%TD*%
%TO.C,REF\u002A\u002A*%
X57800000Y-138900000D03*
%TD*%
D12*
%TO.C,A1*%
X78360000Y-97250000D03*
D13*
X78360000Y-99790000D03*
X78360000Y-102330000D03*
X78360000Y-104870000D03*
X78360000Y-107410000D03*
X78360000Y-109950000D03*
X78360000Y-112490000D03*
X78360000Y-115030000D03*
X78360000Y-117570000D03*
X78360000Y-120110000D03*
X78360000Y-122650000D03*
X78360000Y-125190000D03*
X78360000Y-127730000D03*
X78360000Y-130270000D03*
X78360000Y-132810000D03*
X63120000Y-132810000D03*
X63120000Y-130270000D03*
X63120000Y-127730000D03*
X63120000Y-125190000D03*
X63120000Y-122650000D03*
X63120000Y-120110000D03*
X63120000Y-117570000D03*
X63120000Y-115030000D03*
X63120000Y-112490000D03*
X63120000Y-109950000D03*
X63120000Y-107410000D03*
X63120000Y-104870000D03*
X63120000Y-102330000D03*
X63120000Y-99790000D03*
X63120000Y-97250000D03*
%TD*%
D14*
%TO.C,D4*%
X68225000Y-69977500D03*
D15*
X70765000Y-69977500D03*
%TD*%
D14*
%TO.C,D3*%
X68225000Y-83655000D03*
D15*
X70765000Y-83655000D03*
%TD*%
D16*
%TO.C,SW1*%
X82777600Y-45980300D03*
X77697600Y-45980300D03*
X77697600Y-43440300D03*
X77697600Y-48520300D03*
X82777600Y-43440300D03*
X82777600Y-48520300D03*
X80237600Y-43320300D03*
X80237600Y-48720300D03*
%TD*%
D17*
%TO.C,J1*%
X61970000Y-47452000D03*
X61970000Y-36479200D03*
X61970000Y-38892200D03*
%TD*%
D18*
%TO.C,R5*%
X68810000Y-41600000D03*
X67790000Y-41600000D03*
%TD*%
D14*
%TO.C,D1*%
X68225000Y-56300000D03*
D15*
X70765000Y-56300000D03*
%TD*%
D19*
%TO.C,D6*%
X67800000Y-43350000D03*
X67800000Y-45450000D03*
%TD*%
D17*
%TO.C,J5*%
X62000000Y-66869700D03*
X62000000Y-64456700D03*
X62000000Y-75429500D03*
%TD*%
D20*
%TO.C,R3*%
X68510000Y-67100000D03*
X67490000Y-67100000D03*
%TD*%
D21*
%TO.C,S1*%
X79912600Y-70400000D03*
X79912600Y-72700000D03*
X79912600Y-75000000D03*
X79912600Y-77300000D03*
X79912600Y-79600000D03*
X79912600Y-68100000D03*
X79912600Y-81900000D03*
%TD*%
D20*
%TO.C,R2*%
X68515000Y-80800000D03*
X67495000Y-80800000D03*
%TD*%
%TO.C,R15*%
X74490000Y-49500000D03*
X75510000Y-49500000D03*
%TD*%
D22*
%TO.C,C11*%
X72020000Y-49500000D03*
X72980000Y-49500000D03*
%TD*%
D23*
%TO.C,SW3*%
X80237600Y-54600000D03*
D24*
X80237600Y-56600000D03*
X80237600Y-58600000D03*
D25*
X80237600Y-52300000D03*
X80237600Y-60900000D03*
%TD*%
D17*
%TO.C,J6*%
X62000000Y-89107000D03*
X62000000Y-78134200D03*
X62000000Y-80547200D03*
%TD*%
D26*
%TO.C,D2*%
X67712500Y-37700000D03*
X69287500Y-37700000D03*
%TD*%
D20*
%TO.C,R1*%
X67490000Y-53500000D03*
X68510000Y-53500000D03*
%TD*%
D17*
%TO.C,J4*%
X62000000Y-61752000D03*
X62000000Y-50779200D03*
X62000000Y-53192200D03*
%TD*%
D27*
%TO.C,J3*%
X74810000Y-108600000D03*
X72270000Y-108600000D03*
X69730000Y-108600000D03*
D28*
X67190000Y-108600000D03*
%TD*%
D18*
%TO.C,R12*%
X68810000Y-39600000D03*
X67790000Y-39600000D03*
%TD*%
D19*
%TO.C,D5*%
X67800000Y-48750000D03*
X67800000Y-46650000D03*
%TD*%
D28*
%TO.C,J2*%
X82400000Y-39900000D03*
D27*
X82400000Y-37360000D03*
X79860000Y-39900000D03*
X79860000Y-37360000D03*
X77320000Y-39900000D03*
X77320000Y-37360000D03*
X74780000Y-39900000D03*
X74780000Y-37360000D03*
X72240000Y-39900000D03*
X72240000Y-37360000D03*
%TD*%
D12*
%TO.C,C1*%
X72500000Y-44000000D03*
D29*
X72500000Y-46000000D03*
%TD*%
M02*
